<svg width="298" height="214" viewBox="0 0 298 214" fill="none" xmlns="http://www.w3.org/2000/svg">
<g opacity="0.1">
<mask id="mask0_40_902" style="mask-type:alpha" maskUnits="userSpaceOnUse" x="76" y="-180" width="388" height="356">
<path d="M155.337 -149.838C148.191 -146.238 141.1 -142.323 134.081 -138.099C94.5917 -114.338 75.9285 -85.8163 77.0248 -50.9052C77.9746 -20.6546 93.5272 9.73983 107.249 36.5564C116.408 54.4561 125.06 71.3633 127.804 85.4251C136.942 132.236 128.841 147.768 124.001 157.048C121.199 162.422 119.348 165.971 122.863 172.272C126.307 178.447 149.997 176.601 197.416 166.463C217.925 162.078 229.925 150.882 239.567 141.885C244.397 137.379 248.576 133.48 252.881 131.331L252.666 130.9L252.881 131.331C264.733 125.407 268.73 125.297 277.488 125.056C284.792 124.855 295.829 124.551 317.789 120.559C337.087 117.051 363.845 104.87 387.623 88.7686C401.152 79.6074 413.308 69.5419 423.752 58.8516C435.444 46.8848 444.707 34.3945 451.285 21.7272C463.469 -1.73812 466.314 -25.4019 459.742 -48.6066C453.267 -71.4669 442.013 -92.5199 426.293 -111.181C410.678 -129.717 391.456 -144.95 369.162 -156.458C336.71 -173.209 299.185 -180.992 260.644 -178.964C240.098 -177.883 219.217 -174.033 198.579 -167.521C184.078 -162.946 169.602 -157.023 155.337 -149.838ZM214.524 159.459C209.483 161.998 203.762 164.129 197.153 165.542C175.586 170.153 159.232 172.989 147.155 174.213C129.734 175.979 124.716 173.908 123.573 171.861C120.337 166.06 121.906 163.051 124.754 157.59C129.648 148.205 137.84 132.498 128.636 85.3443C125.862 71.1289 117.175 54.1532 107.979 36.1807C94.3105 9.46861 78.8181 -20.8078 77.8758 -50.8162C76.7905 -85.3818 95.3321 -113.659 134.56 -137.263C155.546 -149.891 177.196 -159.767 198.908 -166.618C219.488 -173.111 240.31 -176.95 260.794 -178.028C299.192 -180.048 336.57 -172.299 368.886 -155.618C391.062 -144.172 410.179 -129.023 425.704 -110.593C441.321 -92.0552 452.5 -71.1426 458.931 -48.4368C465.431 -25.4896 462.605 -2.06486 450.531 21.1868C443.989 33.7858 434.77 46.2147 423.131 58.1284C412.72 68.7841 400.601 78.8186 387.111 87.953C363.41 104.003 336.754 116.142 317.546 119.633C295.642 123.616 284.639 123.919 277.358 124.119C268.489 124.363 264.441 124.475 252.45 130.469C252.429 130.479 252.408 130.489 252.388 130.5C248.006 132.707 243.817 136.616 238.969 141.139C232.507 147.168 224.978 154.193 214.524 159.459Z" fill="url(#paint0_linear_40_902)"/>
</mask>
<g mask="url(#mask0_40_902)">
<path d="M155.337 -149.838C148.191 -146.238 141.1 -142.323 134.081 -138.099C94.5917 -114.338 75.9285 -85.8163 77.0248 -50.9052C77.9746 -20.6546 93.5272 9.73983 107.249 36.5564C116.408 54.4561 125.06 71.3633 127.804 85.4251C136.942 132.236 128.841 147.768 124.001 157.048C121.199 162.422 119.348 165.971 122.863 172.272C126.307 178.447 149.997 176.601 197.416 166.463C217.925 162.078 229.925 150.882 239.567 141.885C244.397 137.379 248.576 133.48 252.881 131.331L252.666 130.9L252.881 131.331C264.733 125.407 268.73 125.297 277.488 125.056C284.792 124.855 295.829 124.551 317.789 120.559C337.087 117.051 363.845 104.87 387.623 88.7686C401.152 79.6074 413.308 69.5419 423.752 58.8516C435.444 46.8848 444.707 34.3945 451.285 21.7272C463.469 -1.73812 466.314 -25.4019 459.742 -48.6066C453.267 -71.4669 442.013 -92.5199 426.293 -111.181C410.678 -129.717 391.456 -144.95 369.162 -156.458C336.71 -173.209 299.185 -180.992 260.644 -178.964C240.098 -177.883 219.217 -174.033 198.579 -167.521C184.078 -162.946 169.602 -157.023 155.337 -149.838ZM214.524 159.459C209.483 161.998 203.762 164.129 197.153 165.542C175.586 170.153 159.232 172.989 147.155 174.213C129.734 175.979 124.716 173.908 123.573 171.861C120.337 166.06 121.906 163.051 124.754 157.59C129.648 148.205 137.84 132.498 128.636 85.3443C125.862 71.1289 117.175 54.1532 107.979 36.1807C94.3105 9.46861 78.8181 -20.8078 77.8758 -50.8162C76.7905 -85.3818 95.3321 -113.659 134.56 -137.263C155.546 -149.891 177.196 -159.767 198.908 -166.618C219.488 -173.111 240.31 -176.95 260.794 -178.028C299.192 -180.048 336.57 -172.299 368.886 -155.618C391.062 -144.172 410.179 -129.023 425.704 -110.593C441.321 -92.0552 452.5 -71.1426 458.931 -48.4368C465.431 -25.4896 462.605 -2.06486 450.531 21.1868C443.989 33.7858 434.77 46.2147 423.131 58.1284C412.72 68.7841 400.601 78.8186 387.111 87.953C363.41 104.003 336.754 116.142 317.546 119.633C295.642 123.616 284.639 123.919 277.358 124.119C268.489 124.363 264.441 124.475 252.45 130.469C252.429 130.479 252.408 130.489 252.388 130.5C248.006 132.707 243.817 136.616 238.969 141.139C232.507 147.168 224.978 154.193 214.524 159.459Z" fill="#004BBB"/>
</g>
<mask id="mask1_40_902" style="mask-type:alpha" maskUnits="userSpaceOnUse" x="96" y="-163" width="352" height="326">
<path d="M166.877 -135.988C161.099 -133.077 155.359 -129.941 149.669 -126.582C113.799 -105.527 96.3482 -80.1646 96.3217 -49.0461C96.2986 -22.0125 109.387 5.45413 120.935 29.6875C128.979 46.5679 136.577 62.5119 138.593 75.9193C145.532 118.604 137.864 133.71 133.283 142.735C130.514 148.19 128.685 151.793 132.025 157.949C133.862 161.451 141.403 162.984 154.436 162.496C166.161 162.058 181.869 159.993 199.862 156.527C218.689 152.988 229.887 143.292 238.885 135.501C243.235 131.734 246.992 128.482 250.877 126.518L250.877 126.517C263.183 120.267 266.817 119.874 277.584 118.688C284.819 117.892 294.727 116.801 312.304 113.438C330.311 109.999 355.257 98.5995 377.408 83.6897C390.077 75.1619 401.445 65.8207 411.197 55.9254C422.139 44.823 430.792 33.2517 436.916 21.533C447.964 0.391548 450.689 -20.9245 445.016 -41.8228C439.265 -62.8331 429.129 -82.2202 414.889 -99.4466C400.738 -116.564 383.269 -130.668 362.967 -141.364C333.63 -156.82 299.653 -164.179 264.709 -162.646C246.077 -161.829 227.119 -158.502 208.362 -152.759C194.456 -148.501 180.562 -142.881 166.877 -135.988ZM217.57 149.628C212.445 152.21 206.558 154.356 199.629 155.659C161.57 162.991 135.926 163.727 132.703 157.58C129.607 151.877 131.259 148.625 133.994 143.236C138.622 134.119 146.368 118.859 139.381 75.8809C137.343 62.3273 129.712 46.3145 121.634 29.3614C110.134 5.22816 97.0991 -22.1255 97.1217 -48.9318C97.1483 -79.7368 114.482 -104.879 150.114 -125.793C169.238 -137.081 188.938 -145.868 208.666 -151.909C227.369 -157.635 246.269 -160.952 264.843 -161.767C299.653 -163.294 333.492 -155.967 362.7 -140.579C382.892 -129.941 400.263 -115.919 414.329 -98.9021C428.474 -81.7919 438.541 -62.5373 444.251 -41.6734C449.859 -21.0151 447.154 0.0796894 436.209 21.0236C428.12 36.503 411.269 59.8071 376.929 82.9224C354.847 97.7858 329.994 109.146 312.07 112.571C294.52 115.928 284.627 117.017 277.404 117.812C266.84 118.976 262.882 119.417 250.468 125.709C246.511 127.71 242.726 130.988 238.343 134.783C232.725 139.647 226.242 145.26 217.57 149.628Z" fill="url(#paint1_linear_40_902)"/>
</mask>
<g mask="url(#mask1_40_902)">
<path d="M166.877 -135.988C161.099 -133.077 155.359 -129.941 149.669 -126.582C113.799 -105.527 96.3482 -80.1646 96.3217 -49.0461C96.2986 -22.0125 109.387 5.45413 120.935 29.6875C128.979 46.5679 136.577 62.5119 138.593 75.9193C145.532 118.604 137.864 133.71 133.283 142.735C130.514 148.19 128.685 151.793 132.025 157.949C133.862 161.451 141.403 162.984 154.436 162.496C166.161 162.058 181.869 159.993 199.862 156.527C218.689 152.988 229.887 143.292 238.885 135.501C243.235 131.734 246.992 128.482 250.877 126.518L250.877 126.517C263.183 120.267 266.817 119.874 277.584 118.688C284.819 117.892 294.727 116.801 312.304 113.438C330.311 109.999 355.257 98.5995 377.408 83.6897C390.077 75.1619 401.445 65.8207 411.197 55.9254C422.139 44.823 430.792 33.2517 436.916 21.533C447.964 0.391548 450.689 -20.9245 445.016 -41.8228C439.265 -62.8331 429.129 -82.2202 414.889 -99.4466C400.738 -116.564 383.269 -130.668 362.967 -141.364C333.63 -156.82 299.653 -164.179 264.709 -162.646C246.077 -161.829 227.119 -158.502 208.362 -152.759C194.456 -148.501 180.562 -142.881 166.877 -135.988ZM217.57 149.628C212.445 152.21 206.558 154.356 199.629 155.659C161.57 162.991 135.926 163.727 132.703 157.58C129.607 151.877 131.259 148.625 133.994 143.236C138.622 134.119 146.368 118.859 139.381 75.8809C137.343 62.3273 129.712 46.3145 121.634 29.3614C110.134 5.22816 97.0991 -22.1255 97.1217 -48.9318C97.1483 -79.7368 114.482 -104.879 150.114 -125.793C169.238 -137.081 188.938 -145.868 208.666 -151.909C227.369 -157.635 246.269 -160.952 264.843 -161.767C299.653 -163.294 333.492 -155.967 362.7 -140.579C382.892 -129.941 400.263 -115.919 414.329 -98.9021C428.474 -81.7919 438.541 -62.5373 444.251 -41.6734C449.859 -21.0151 447.154 0.0796894 436.209 21.0236C428.12 36.503 411.269 59.8071 376.929 82.9224C354.847 97.7858 329.994 109.146 312.07 112.571C294.52 115.928 284.627 117.017 277.404 117.812C266.84 118.976 262.882 119.417 250.468 125.709C246.511 127.71 242.726 130.988 238.343 134.783C232.725 139.647 226.242 145.26 217.57 149.628Z" fill="#004BBB"/>
</g>
<mask id="mask2_40_902" style="mask-type:alpha" maskUnits="userSpaceOnUse" x="115" y="-147" width="318" height="297">
<path d="M178.596 -122.266C174.135 -120.019 169.692 -117.62 165.258 -115.064C132.983 -96.6932 116.761 -74.4645 115.665 -47.1087C114.71 -23.2709 125.368 1.26754 134.772 22.9175C141.642 38.7339 148.131 53.6731 149.383 66.4131C154.165 104.943 146.92 119.593 142.591 128.346C139.836 133.917 138.016 137.597 141.188 143.625C145.295 151.969 175.751 151.014 202.307 146.591C219.555 143.901 229.993 135.662 238.381 129.042C242.185 126.04 245.47 123.447 248.873 121.704L248.873 121.704C262.809 114.515 265.76 113.985 282.138 111.02C288.304 109.904 295.979 108.515 306.819 106.319C317.904 104.079 332.032 98.6049 346.599 90.903C362.991 82.2365 378.492 71.5061 391.426 59.8721C406.733 46.1034 417.977 31.5917 424.846 16.74C432.847 -0.560963 434.678 -17.9818 430.289 -35.0388C425.264 -54.2017 416.247 -71.9259 403.486 -87.7213C390.8 -103.425 375.082 -116.4 356.769 -126.288C330.546 -140.445 300.116 -147.378 268.768 -146.336C238.607 -145.334 208.334 -137.245 178.596 -122.266ZM220.947 139.767C215.678 142.422 209.527 144.619 202.107 145.776C170.479 151.043 145.13 150 141.83 143.297C138.874 137.678 140.525 134.339 143.26 128.809C147.628 119.976 154.938 105.193 150.126 66.4187C148.86 53.5408 142.342 38.533 135.44 22.6443C126.078 1.08943 115.466 -23.3411 116.413 -46.967C117.497 -74.0423 133.609 -96.0746 165.668 -114.322C199.582 -133.872 234.307 -144.364 268.887 -145.513C300.109 -146.551 330.409 -139.65 356.512 -125.557C374.721 -115.726 390.347 -102.828 402.956 -87.2204C415.628 -71.5347 424.583 -53.935 429.571 -34.9101C433.907 -18.0603 432.09 -0.831805 424.169 16.2946C417.34 31.061 406.15 45.4993 390.909 59.2081C378.013 70.8084 362.555 81.5088 346.207 90.1518C331.69 97.8246 317.623 103.28 306.593 105.508C295.76 107.703 288.089 109.091 281.925 110.207C265.47 113.186 262.507 113.724 248.487 120.95C245.031 122.72 241.724 125.33 237.895 128.352C233.181 132.073 227.814 136.308 220.947 139.767Z" fill="url(#paint2_linear_40_902)"/>
</mask>
<g mask="url(#mask2_40_902)">
<path d="M178.596 -122.266C174.135 -120.019 169.692 -117.62 165.258 -115.064C132.983 -96.6932 116.761 -74.4645 115.665 -47.1087C114.71 -23.2709 125.368 1.26754 134.772 22.9175C141.642 38.7339 148.131 53.6731 149.383 66.4131C154.165 104.943 146.92 119.593 142.591 128.346C139.836 133.917 138.016 137.597 141.188 143.625C145.295 151.969 175.751 151.014 202.307 146.591C219.555 143.901 229.993 135.662 238.381 129.042C242.185 126.04 245.47 123.447 248.873 121.704L248.873 121.704C262.809 114.515 265.76 113.985 282.138 111.02C288.304 109.904 295.979 108.515 306.819 106.319C317.904 104.079 332.032 98.6049 346.599 90.903C362.991 82.2365 378.492 71.5061 391.426 59.8721C406.733 46.1034 417.977 31.5917 424.846 16.74C432.847 -0.560963 434.678 -17.9818 430.289 -35.0388C425.264 -54.2017 416.247 -71.9259 403.486 -87.7213C390.8 -103.425 375.082 -116.4 356.769 -126.288C330.546 -140.445 300.116 -147.378 268.768 -146.336C238.607 -145.334 208.334 -137.245 178.596 -122.266ZM220.947 139.767C215.678 142.422 209.527 144.619 202.107 145.776C170.479 151.043 145.13 150 141.83 143.297C138.874 137.678 140.525 134.339 143.26 128.809C147.628 119.976 154.938 105.193 150.126 66.4187C148.86 53.5408 142.342 38.533 135.44 22.6443C126.078 1.08943 115.466 -23.3411 116.413 -46.967C117.497 -74.0423 133.609 -96.0746 165.668 -114.322C199.582 -133.872 234.307 -144.364 268.887 -145.513C300.109 -146.551 330.409 -139.65 356.512 -125.557C374.721 -115.726 390.347 -102.828 402.956 -87.2204C415.628 -71.5347 424.583 -53.935 429.571 -34.9101C433.907 -18.0603 432.09 -0.831805 424.169 16.2946C417.34 31.061 406.15 45.4993 390.909 59.2081C378.013 70.8084 362.555 81.5088 346.207 90.1518C331.69 97.8246 317.623 103.28 306.593 105.508C295.76 107.703 288.089 109.091 281.925 110.207C265.47 113.186 262.507 113.724 248.487 120.95C245.031 122.72 241.724 125.33 237.895 128.352C233.181 132.073 227.814 136.308 220.947 139.767Z" fill="#004BBB"/>
</g>
<mask id="mask3_40_902" style="mask-type:alpha" maskUnits="userSpaceOnUse" x="134" y="-131" width="284" height="270">
<path d="M190.059 -108.443C186.982 -106.893 183.912 -105.261 180.847 -103.547C152.14 -87.8311 137.162 -68.7035 135.062 -45.0714C133.225 -24.4027 141.14 -3.7217 148.794 16.2785C154.418 30.9727 159.729 44.852 160.175 56.9065C162.856 91.2393 156.288 104.845 151.941 113.849C149.072 119.79 147.341 123.376 150.352 129.302C153.91 137.013 177.808 140.25 204.751 136.655C220.612 134.827 230.375 127.967 238.22 122.455C241.221 120.346 244.056 118.354 246.869 116.891L246.87 116.891L248.291 116.143C264.634 107.549 265.969 106.848 301.335 99.1985C311.275 97.058 324.469 91.8983 337.532 85.052C352.556 77.1738 366.779 67.4941 378.664 57.0592C392.786 44.6606 403.233 31.6159 409.715 18.288C417.276 2.74049 419.244 -12.9185 415.563 -28.2542C411.267 -45.5738 403.369 -61.6394 392.087 -76.0081C380.864 -90.3023 366.896 -102.155 350.569 -111.236C327.458 -124.091 300.574 -130.592 272.822 -130.037C245.221 -129.486 217.424 -122.227 190.059 -108.443ZM224.91 129.847C219.391 132.626 212.814 134.945 204.586 135.893C178.377 139.39 154.322 136.303 150.958 129.013C148.134 123.454 149.802 119.998 152.566 114.274C156.681 105.751 163.567 91.486 160.87 56.9571C160.42 44.7748 155.082 30.8279 149.432 16.0618C141.814 -3.84378 133.936 -24.4271 135.756 -44.9005C137.834 -68.286 152.706 -87.242 181.222 -102.852C211.466 -119.77 242.318 -128.659 272.925 -129.271C300.558 -129.823 327.322 -123.353 350.322 -110.56C366.551 -101.533 380.434 -89.7543 391.586 -75.5517C402.786 -61.286 410.627 -45.3368 414.891 -28.1474C418.525 -13.0066 416.574 2.47426 409.091 17.8614C402.647 31.1129 392.249 44.0915 378.188 56.4363C366.337 66.8414 352.153 76.4943 337.168 84.3516C324.151 91.1783 311.009 96.3152 301.118 98.4452C265.674 106.112 264.332 106.816 247.927 115.443L246.507 116.19C243.66 117.671 240.811 119.673 237.793 121.793C234.08 124.402 229.934 127.316 224.91 129.847Z" fill="url(#paint3_linear_40_902)"/>
</mask>
<g mask="url(#mask3_40_902)">
<path d="M190.059 -108.443C186.982 -106.893 183.912 -105.261 180.847 -103.547C152.14 -87.8311 137.162 -68.7035 135.062 -45.0714C133.225 -24.4027 141.14 -3.7217 148.794 16.2785C154.418 30.9727 159.729 44.852 160.175 56.9065C162.856 91.2393 156.288 104.845 151.941 113.849C149.072 119.79 147.341 123.376 150.352 129.302C153.91 137.013 177.808 140.25 204.751 136.655C220.612 134.827 230.375 127.967 238.22 122.455C241.221 120.346 244.056 118.354 246.869 116.891L246.87 116.891L248.291 116.143C264.634 107.549 265.969 106.848 301.335 99.1985C311.275 97.058 324.469 91.8983 337.532 85.052C352.556 77.1738 366.779 67.4941 378.664 57.0592C392.786 44.6606 403.233 31.6159 409.715 18.288C417.276 2.74049 419.244 -12.9185 415.563 -28.2542C411.267 -45.5738 403.369 -61.6394 392.087 -76.0081C380.864 -90.3023 366.896 -102.155 350.569 -111.236C327.458 -124.091 300.574 -130.592 272.822 -130.037C245.221 -129.486 217.424 -122.227 190.059 -108.443ZM224.91 129.847C219.391 132.626 212.814 134.945 204.586 135.893C178.377 139.39 154.322 136.303 150.958 129.013C148.134 123.454 149.802 119.998 152.566 114.274C156.681 105.751 163.567 91.486 160.87 56.9571C160.42 44.7748 155.082 30.8279 149.432 16.0618C141.814 -3.84378 133.936 -24.4271 135.756 -44.9005C137.834 -68.286 152.706 -87.242 181.222 -102.852C211.466 -119.77 242.318 -128.659 272.925 -129.271C300.558 -129.823 327.322 -123.353 350.322 -110.56C366.551 -101.533 380.434 -89.7543 391.586 -75.5517C402.786 -61.286 410.627 -45.3368 414.891 -28.1474C418.525 -13.0066 416.574 2.47426 409.091 17.8614C402.647 31.1129 392.249 44.0915 378.188 56.4363C366.337 66.8414 352.153 76.4943 337.168 84.3516C324.151 91.1783 311.009 96.3152 301.118 98.4452C265.674 106.112 264.332 106.816 247.927 115.443L246.507 116.19C243.66 117.671 240.811 119.673 237.793 121.793C234.08 124.402 229.934 127.316 224.91 129.847Z" fill="#004BBB"/>
</g>
<mask id="mask4_40_902" style="mask-type:alpha" maskUnits="userSpaceOnUse" x="153" y="-114" width="250" height="242">
<path d="M201.479 -94.6549C199.796 -93.8071 198.116 -92.9325 196.436 -92.0286C140.007 -62.6809 152.246 -24.1634 163.043 9.81999C167.33 23.3133 171.379 36.0581 170.968 47.3993C171.632 77.473 165.447 90.5417 161.353 99.1895C158.423 105.38 156.654 109.117 159.514 114.979C161.152 118.772 167.057 122.26 175.707 124.532C184.891 126.943 196.074 127.72 207.194 126.719C222.111 125.798 231.001 120.375 238.846 115.59C240.927 114.321 242.893 113.122 244.864 112.078L244.865 112.077C247.824 110.489 250.368 109.039 252.612 107.76C262.979 101.851 269.236 98.2854 295.85 92.0783C312.832 88.1418 341.998 74.6236 365.902 54.2466C378.84 43.2174 388.49 31.6401 394.583 19.8364C401.704 6.0421 403.808 -7.85488 400.836 -21.4689C397.271 -36.9504 390.494 -51.3633 380.692 -64.3117C370.932 -77.2037 358.711 -87.9386 344.368 -96.2183C324.364 -107.765 301.023 -113.829 276.868 -113.754C251.828 -113.677 226.491 -107.254 201.479 -94.6549ZM229.837 119.897C223.881 122.897 216.753 125.413 207.067 126.011C183.176 128.162 163.133 121.791 160.083 114.727C157.383 109.193 159.096 105.574 161.934 99.5785C166.054 90.8735 172.281 77.7184 171.613 47.4963C172.029 36.0398 167.958 23.229 163.649 9.66596C158.181 -7.54565 152.526 -25.3428 155.156 -42.7015C158.148 -62.4492 171.761 -78.3723 196.774 -91.3811C223.343 -105.674 250.32 -112.962 276.953 -113.044C300.999 -113.118 324.228 -107.086 344.128 -95.5985C358.382 -87.3707 370.524 -76.7062 380.218 -63.9009C389.947 -51.049 396.674 -36.7445 400.211 -21.3852C404.025 -3.91366 401.094 23.2935 365.467 53.6646C341.631 73.9838 312.562 87.4604 295.64 91.3829C268.951 97.6078 262.668 101.188 252.26 107.12C250.018 108.398 247.478 109.846 244.526 111.43C242.541 112.482 240.568 113.685 238.48 114.959C235.791 116.599 232.976 118.316 229.837 119.897Z" fill="url(#paint4_linear_40_902)"/>
</mask>
<g mask="url(#mask4_40_902)">
<path d="M201.479 -94.6552C199.796 -93.8074 198.116 -92.9328 196.436 -92.0288C140.007 -62.6812 152.246 -24.1636 163.043 9.81975C167.33 23.3131 171.379 36.0578 170.968 47.3991C171.632 77.4728 165.447 90.5414 161.353 99.1893C158.423 105.38 156.654 109.117 159.514 114.979C161.152 118.771 167.057 122.26 175.707 124.531C184.891 126.943 196.074 127.72 207.194 126.718C222.111 125.798 231.001 120.375 238.846 115.59C240.927 114.32 242.893 113.121 244.864 112.078L244.865 112.077C247.824 110.489 250.368 109.039 252.612 107.76C262.979 101.851 269.236 98.2852 295.85 92.0781C312.832 88.1415 341.998 74.6234 365.902 54.2464C378.84 43.2172 388.49 31.6399 394.583 19.8362C401.704 6.04186 403.808 -7.85512 400.836 -21.4691C397.271 -36.9506 390.494 -51.3635 380.692 -64.3119C370.932 -77.204 358.711 -87.9388 344.368 -96.2185C324.364 -107.765 301.023 -113.829 276.868 -113.754C251.828 -113.677 226.491 -107.254 201.479 -94.6552ZM229.837 119.897C223.881 122.897 216.753 125.413 207.067 126.01C183.176 128.162 163.133 121.791 160.083 114.727C157.383 109.193 159.096 105.574 161.934 99.5783C166.054 90.8733 172.281 77.7182 171.613 47.4961C172.029 36.0396 167.958 23.2288 163.649 9.66571C158.181 -7.5459 152.526 -25.3431 155.156 -42.7018C158.148 -62.4494 171.761 -78.3725 196.774 -91.3813C223.343 -105.674 250.32 -112.962 276.953 -113.045C300.999 -113.119 324.228 -107.086 344.128 -95.5988C358.382 -87.371 370.524 -76.7064 380.218 -63.9011C389.947 -51.0492 396.674 -36.7447 400.211 -21.3854C404.025 -3.9139 401.094 23.2933 365.467 53.6644C341.631 73.9836 312.562 87.4601 295.64 91.3826C268.951 97.6075 262.668 101.188 252.26 107.12C250.018 108.398 247.478 109.845 244.526 111.43C242.541 112.481 240.568 113.685 238.48 114.958C235.791 116.599 232.976 118.315 229.837 119.897Z" fill="#004BBB"/>
</g>
<mask id="mask5_40_902" style="mask-type:alpha" maskUnits="userSpaceOnUse" x="167" y="-98" width="220" height="215">
<path d="M210.193 -79.6056C189.613 -69.2387 177.777 -56.4518 174.04 -40.5625C170.641 -26.1097 174.164 -10.9943 177.57 3.62333C180.409 15.8042 183.091 27.3096 181.765 37.8926C180.541 63.6066 174.726 76.0417 170.877 84.2703C167.806 90.8359 165.953 94.7988 168.679 100.656C171.945 108.754 190.159 117.383 209.635 116.782C224.988 116.963 233.594 112.293 241.917 107.776L242.863 107.263C246.861 105.062 250.078 102.955 253.188 100.918C261.526 95.4559 269.401 90.2971 290.367 84.9576C305.653 81.0944 331.818 68.956 353.141 51.4338C371.112 36.6655 391.42 13.2071 386.111 -14.6827C380.457 -41.971 362.982 -66.2327 338.168 -81.2528C321.266 -91.4827 301.465 -97.0994 280.905 -97.4955C258.426 -97.9287 235.528 -92.3521 212.833 -80.9205C212.564 -80.7849 212.296 -80.649 212.027 -80.512C211.408 -80.2118 210.797 -79.9098 210.193 -79.6056ZM236.568 109.847C229.656 113.329 221.747 116.273 209.553 116.129C188.733 116.771 172.026 107.424 169.209 100.44C166.619 94.8745 168.423 91.0169 171.412 84.6257C175.282 76.3535 181.128 63.8524 182.356 38.0361C183.695 27.3545 180.999 15.787 178.145 3.54032C174.757 -10.996 171.254 -26.0272 174.616 -40.3249C178.422 -56.5059 190.755 -69.4464 212.327 -79.9107C212.594 -80.0465 212.864 -80.1838 213.131 -80.3181C235.759 -91.7166 258.575 -97.2743 280.971 -96.8424C301.43 -96.4484 321.128 -90.8627 337.935 -80.6896C350.219 -73.2547 360.623 -63.6954 368.86 -52.2768C377.118 -40.8292 382.727 -28.1607 385.532 -14.6239C390.78 12.9455 370.6 36.2219 352.748 50.8926C331.482 68.3675 305.4 80.4701 290.165 84.3201C269.119 89.6798 261.211 94.8609 252.838 100.345C249.735 102.378 246.527 104.479 242.545 106.671L241.601 107.183C239.952 108.078 238.29 108.98 236.568 109.847Z" fill="url(#paint5_linear_40_902)"/>
</mask>
<g mask="url(#mask5_40_902)">
<path d="M210.192 -79.6056C189.612 -69.2387 177.777 -56.4518 174.04 -40.5625C170.64 -26.1097 174.163 -10.9943 177.57 3.62333C180.409 15.8042 183.09 27.3096 181.765 37.8926C180.541 63.6066 174.725 76.0417 170.876 84.2703C167.806 90.8359 165.952 94.7988 168.679 100.656C171.945 108.754 190.159 117.383 209.634 116.782C224.988 116.963 233.594 112.293 241.916 107.776L242.862 107.263C246.861 105.062 250.077 102.955 253.188 100.918C261.525 95.4559 269.401 90.2971 290.366 84.9576C305.653 81.0944 331.817 68.956 353.14 51.4338C371.111 36.6655 391.42 13.2071 386.111 -14.6827C380.456 -41.971 362.982 -66.2327 338.167 -81.2528C321.266 -91.4827 301.465 -97.0994 280.904 -97.4955C258.426 -97.9287 235.527 -92.3521 212.833 -80.9205C212.563 -80.7849 212.296 -80.649 212.027 -80.512C211.408 -80.2118 210.796 -79.9098 210.192 -79.6056ZM236.567 109.847C229.656 113.329 221.746 116.273 209.553 116.129C188.733 116.771 172.025 107.424 169.208 100.44C166.619 94.8745 168.423 91.0169 171.412 84.6257C175.281 76.3535 181.128 63.8524 182.355 38.0361C183.694 27.3545 180.998 15.787 178.144 3.54032C174.756 -10.996 171.253 -26.0272 174.616 -40.3249C178.421 -56.5059 190.755 -69.4464 212.327 -79.9107C212.593 -80.0465 212.864 -80.1838 213.131 -80.3181C235.759 -91.7166 258.574 -97.2743 280.971 -96.8424C301.43 -96.4484 321.128 -90.8627 337.935 -80.6896C350.218 -73.2547 360.623 -63.6954 368.859 -52.2768C377.117 -40.8292 382.726 -28.1607 385.531 -14.6239C390.779 12.9455 370.6 36.2219 352.747 50.8926C331.482 68.3675 305.4 80.4701 290.164 84.3201C269.119 89.6798 261.21 94.8609 252.838 100.345C249.735 102.378 246.526 104.479 242.544 106.671L241.601 107.183C239.951 108.078 238.29 108.98 236.567 109.847Z" fill="#004BBB"/>
</g>
<mask id="mask6_40_902" style="mask-type:alpha" maskUnits="userSpaceOnUse" x="176" y="-82" width="196" height="190">
<path d="M222.054 -66.3859C207.001 -58.8039 197.671 -49.4719 193.606 -37.9735C189.559 -26.5265 191.012 -14.142 192.417 -2.16549C193.617 8.06657 194.858 18.6473 192.562 28.3871C189.669 49.5682 184.214 61.2006 180.604 68.898C177.247 76.0589 175.22 80.3812 177.841 86.3331C180.754 94.0799 195.542 105.937 212.069 106.843C224.115 108.277 232.728 106.963 240.856 102.451L240.857 102.45C245.152 100.014 248.606 97.3823 252.261 94.5957C259.987 88.7069 267.977 82.6168 284.882 77.8368C298.544 74.0098 321.738 63.2348 340.377 48.6209C356.528 35.9569 375.018 15.872 371.383 -7.8952C367.208 -31.6031 352.843 -52.9131 331.969 -66.3684C318.161 -75.2692 301.894 -80.4243 284.926 -81.2763C266.158 -82.2188 246.876 -78.0867 227.616 -68.9949C225.683 -68.1497 223.827 -67.2793 222.054 -66.3859ZM239.105 102.683C231.487 106.521 223.277 107.586 212.042 106.249C195.734 105.355 181.188 93.7483 178.331 86.1502C175.825 80.4584 177.696 76.4676 181.093 69.2231C184.717 61.4954 190.193 49.8172 193.093 28.5766C195.409 18.7597 194.161 8.12178 192.954 -2.16565C191.558 -14.0701 190.114 -26.3802 194.115 -37.6974C198.61 -50.4144 209.654 -60.4673 227.876 -68.4395C247.073 -77.5013 266.281 -81.6192 284.971 -80.6807C301.846 -79.8334 318.019 -74.7099 331.742 -65.8636C352.457 -52.5112 366.711 -31.3712 370.85 -7.86416C374.441 15.615 356.07 35.5406 340.026 48.1203C321.435 62.6963 298.307 73.4419 284.686 77.2578C267.698 82.0607 259.675 88.1764 251.915 94.0915C248.272 96.8685 244.831 99.4916 240.562 101.912C240.078 102.181 239.593 102.438 239.105 102.683Z" fill="url(#paint6_linear_40_902)"/>
</mask>
<g mask="url(#mask6_40_902)">
<path d="M222.054 -66.3859C207.001 -58.8039 197.671 -49.4719 193.606 -37.9735C189.559 -26.5265 191.012 -14.142 192.417 -2.16549C193.617 8.06657 194.858 18.6473 192.562 28.3871C189.669 49.5682 184.214 61.2006 180.604 68.898C177.247 76.0589 175.22 80.3812 177.841 86.3331C180.754 94.0799 195.542 105.937 212.069 106.843C224.115 108.277 232.728 106.963 240.856 102.451L240.857 102.45C245.152 100.014 248.606 97.3823 252.261 94.5957C259.987 88.7069 267.977 82.6168 284.882 77.8368C298.544 74.0098 321.738 63.2348 340.377 48.6209C356.528 35.9569 375.018 15.872 371.383 -7.8952C367.208 -31.6031 352.843 -52.9131 331.969 -66.3684C318.161 -75.2692 301.894 -80.4243 284.926 -81.2763C266.158 -82.2188 246.876 -78.0867 227.616 -68.9949C225.683 -68.1497 223.827 -67.2793 222.054 -66.3859ZM239.105 102.683C231.487 106.521 223.277 107.586 212.042 106.249C195.734 105.355 181.188 93.7483 178.331 86.1502C175.825 80.4584 177.696 76.4676 181.093 69.2231C184.717 61.4954 190.193 49.8172 193.093 28.5766C195.409 18.7597 194.161 8.12178 192.954 -2.16565C191.558 -14.0701 190.114 -26.3802 194.115 -37.6974C198.61 -50.4144 209.654 -60.4673 227.876 -68.4395C247.073 -77.5013 266.281 -81.6192 284.971 -80.6807C301.846 -79.8334 318.019 -74.7099 331.742 -65.8636C352.457 -52.5112 366.711 -31.3712 370.85 -7.86416C374.441 15.615 356.07 35.5406 340.026 48.1203C321.435 62.6963 298.307 73.4419 284.686 77.2578C267.698 82.0607 259.675 88.1764 251.915 94.0915C248.272 96.8685 244.831 99.4916 240.562 101.912C240.078 102.181 239.593 102.438 239.105 102.683Z" fill="#004BBB"/>
</g>
<mask id="mask7_40_902" style="mask-type:alpha" maskUnits="userSpaceOnUse" x="185" y="-66" width="172" height="166">
<path d="M233.568 -53.3233C209.317 -41.1079 208.457 -24.6052 207.551 -7.24074C207.104 1.32289 206.643 10.1783 203.365 18.8851C199.214 35.1997 194.346 45.2693 190.792 52.6217C186.692 61.1028 184.434 65.7747 187.005 72.0111C188.502 76.2933 192.319 81.8538 196.961 86.5056C202.571 92.1283 208.799 95.8207 214.497 96.9027C224.135 99.6984 232.061 101.531 238.852 97.6375L238.853 97.6364C243.113 95.1343 246.816 91.8641 250.737 88.4022C257.815 82.1533 265.836 75.0711 279.399 70.7161C288.804 67.7292 309.543 59.1209 327.613 45.8088C337.014 38.8828 344.272 31.708 349.186 24.4835C354.99 15.949 357.503 7.33972 356.656 -1.1049C353.997 -21.2793 342.748 -39.6887 325.792 -51.6219C315.06 -59.1745 302.314 -63.8445 288.933 -65.1271C274.135 -66.5456 258.751 -63.9721 243.209 -57.4783C239.642 -56.1575 236.44 -54.7702 233.568 -53.3233ZM237.824 97.5606C231.341 100.826 223.737 99.0431 214.541 96.3767C201.513 93.9018 189.986 79.1013 187.454 71.8599C184.979 65.8559 187.2 61.2614 191.232 52.9208C194.795 45.5497 199.675 35.4546 203.83 19.1175C207.128 10.362 207.592 1.4639 208.041 -7.14116C208.553 -16.9521 209.036 -26.219 213.568 -34.6912C218.676 -44.2386 228.163 -51.3165 243.425 -56.9676C258.911 -63.4378 274.227 -66.0012 288.953 -64.5896C302.25 -63.3152 314.911 -58.6778 325.567 -51.1781C342.381 -39.3452 353.535 -21.0943 356.17 -1.10567C357.003 7.19785 354.517 15.6903 348.78 24.1261C343.893 31.3104 336.669 38.4505 327.306 45.3485C309.278 58.6291 288.59 67.2162 279.208 70.1964C265.565 74.5765 257.509 81.6892 250.401 87.9648C246.496 91.4131 242.807 94.6705 238.581 97.1529C238.33 97.2965 238.078 97.4326 237.824 97.5606Z" fill="url(#paint7_linear_40_902)"/>
</mask>
<g mask="url(#mask7_40_902)">
<path d="M233.568 -53.3233C209.317 -41.1079 208.457 -24.6052 207.552 -7.24074C207.105 1.32289 206.643 10.1783 203.365 18.8851C199.214 35.1997 194.347 45.2693 190.792 52.6217C186.692 61.1028 184.434 65.7747 187.006 72.0111C188.503 76.2933 192.319 81.8538 196.961 86.5056C202.571 92.1283 208.799 95.8207 214.497 96.9027C224.135 99.6984 232.062 101.531 238.852 97.6375L238.854 97.6364C243.113 95.1343 246.816 91.8641 250.737 88.4022C257.815 82.1533 265.837 75.0711 279.399 70.7161C288.804 67.7292 309.544 59.1209 327.614 45.8088C337.015 38.8828 344.272 31.708 349.186 24.4835C354.99 15.949 357.504 7.33972 356.656 -1.1049C353.997 -21.2793 342.748 -39.6887 325.792 -51.6219C315.06 -59.1745 302.314 -63.8445 288.933 -65.1271C274.135 -66.5456 258.751 -63.9721 243.209 -57.4783C239.642 -56.1575 236.44 -54.7702 233.568 -53.3233ZM237.824 97.5606C231.342 100.826 223.737 99.0431 214.541 96.3767C201.513 93.9018 189.986 79.1013 187.454 71.8599C184.979 65.8559 187.2 61.2614 191.232 52.9208C194.795 45.5497 199.676 35.4546 203.83 19.1175C207.128 10.362 207.592 1.4639 208.041 -7.14116C208.553 -16.9521 209.036 -26.219 213.569 -34.6912C218.676 -44.2386 228.164 -51.3165 243.425 -56.9676C258.911 -63.4378 274.227 -66.0012 288.954 -64.5896C302.25 -63.3152 314.911 -58.6778 325.568 -51.1781C342.381 -39.3452 353.535 -21.0943 356.17 -1.10567C357.003 7.19785 354.517 15.6903 348.78 24.1261C343.894 31.3104 336.669 38.4505 327.306 45.3485C309.279 58.6291 288.59 67.2162 279.208 70.1964C265.565 74.5765 257.509 81.6892 250.402 87.9648C246.496 91.4131 242.807 94.6705 238.581 97.1529C238.331 97.2965 238.078 97.4326 237.824 97.5606Z" fill="#004BBB"/>
</g>
<mask id="mask8_40_902" style="mask-type:alpha" maskUnits="userSpaceOnUse" x="195" y="-50" width="147" height="144">
<path d="M244.375 -40.6677C229.726 -33.29 226.399 -23.0479 222.409 -10.7695C220.326 -4.36013 218.172 2.2675 214.17 9.38808C209.713 20.0631 205.606 27.8438 202.305 34.0959C196.642 44.8227 193.523 50.7315 196.17 57.689C198.747 65.6388 207.759 82.9611 216.896 86.9444C217.502 87.3109 218.108 87.6835 218.713 88.0558C225.042 91.9464 231.588 95.9673 236.848 92.8238L236.849 92.8227C240.917 90.3272 244.842 86.3451 248.997 82.1293C255.719 75.3078 263.338 67.5763 273.916 63.5944C285.386 59.3272 342.572 36.4805 341.928 5.68877C340.862 -11.0346 332.753 -26.6387 319.681 -37.1339C311.881 -43.3959 302.88 -47.428 292.927 -49.1187C282.081 -50.9611 270.601 -49.8994 258.805 -45.9621C253.031 -44.4138 248.296 -42.643 244.375 -40.6677ZM236.118 92.6588C231.133 95.1696 224.912 91.3446 218.888 87.6414C218.276 87.2657 217.665 86.8896 217.054 86.5197L217.025 86.5046C208.035 82.6002 199.133 65.453 196.577 57.5673C194.01 50.8216 197.094 44.9805 202.692 34.3769C205.996 28.1173 210.109 20.3271 214.562 9.65642C218.574 2.52111 220.735 -4.12725 222.825 -10.5571C227.846 -26.0079 231.813 -38.2122 258.97 -45.4955C270.717 -49.4159 282.134 -50.4733 292.916 -48.6418C302.792 -46.9642 311.72 -42.9656 319.453 -36.7567C332.402 -26.3607 340.434 -10.9045 341.49 5.64878C341.746 17.917 332.695 30.3449 314.586 42.5761C298.647 53.3425 280.704 60.5403 273.729 63.1351C263.077 67.1459 255.427 74.9074 248.677 81.7556C244.539 85.955 240.63 89.9216 236.6 92.3937C236.441 92.4888 236.28 92.5772 236.118 92.6588Z" fill="url(#paint8_linear_40_902)"/>
</mask>
<g mask="url(#mask8_40_902)">
<path d="M244.375 -40.6674C229.727 -33.2897 226.4 -23.0476 222.41 -10.7693C220.326 -4.35988 218.173 2.26774 214.17 9.38832C209.714 20.0633 205.606 27.844 202.305 34.0961C196.642 44.8229 193.523 50.7318 196.17 57.6892C198.747 65.6391 207.759 82.9614 216.897 86.9446C217.502 87.3112 218.108 87.6838 218.714 88.0561C225.042 91.9466 231.589 95.9675 236.848 92.8241L236.85 92.8229C240.918 90.3274 244.842 86.3454 248.997 82.1295C255.72 75.308 263.338 67.5766 273.917 63.5946C285.386 59.3275 342.572 36.4807 341.929 5.68901C340.862 -11.0343 332.753 -26.6384 319.681 -37.1337C311.882 -43.3956 302.88 -47.4278 292.928 -49.1185C282.081 -50.9609 270.601 -49.8991 258.805 -45.9619C253.031 -44.4135 248.296 -42.6428 244.375 -40.6674ZM236.118 92.659C231.133 95.1698 224.912 91.3448 218.888 87.6417C218.277 87.2659 217.665 86.8898 217.054 86.5199L217.025 86.5048C208.035 82.6005 199.134 65.4533 196.577 57.5676C194.01 50.8218 197.094 44.9808 202.692 34.3771C205.997 28.1175 210.109 20.3274 214.562 9.65667C218.575 2.52136 220.735 -4.12701 222.825 -10.5569C227.846 -26.0077 231.813 -38.212 258.97 -45.4952C270.717 -49.4156 282.134 -50.473 292.917 -48.6416C302.792 -46.9639 311.72 -42.9654 319.454 -36.7565C332.402 -26.3605 340.434 -10.9043 341.49 5.64902C341.746 17.9172 332.695 30.3451 314.587 42.5764C298.647 53.3427 280.704 60.5405 273.729 63.1354C263.077 67.1461 255.427 74.9077 248.678 81.7558C244.539 85.9552 240.63 89.9218 236.6 92.3939C236.441 92.489 236.28 92.5774 236.118 92.659Z" fill="#004BBB"/>
</g>
<mask id="mask9_40_902" style="mask-type:alpha" maskUnits="userSpaceOnUse" x="204" y="-36" width="124" height="125">
<path d="M252.957 -29.0664C244.297 -24.7038 239 -17.9202 231.678 -8.54259C229.597 -5.87736 227.446 -3.12163 224.975 -0.101437C223.353 2.36178 221.828 4.6599 220.392 6.82336C207.896 25.6501 202.193 34.2428 205.334 43.368C207.401 50.2655 213.699 71.2736 219.293 76.9527C224.115 83.6334 230.242 90.9132 234.842 88.0101L234.844 88.009C238.654 85.5413 242.847 80.6871 247.286 75.5479C253.546 68.2999 260.641 60.0873 268.434 56.4717C269.92 55.7907 271.715 55.0066 273.792 54.0987C282.303 50.3788 295.164 44.7577 306.087 37.7105C319.156 29.279 326.258 20.7932 327.196 12.489C327.91 -0.733121 322.911 -14.0646 313.823 -23.1859C303.747 -33.2996 289.749 -37.2985 274.407 -34.4465C265.075 -33.5677 258.361 -31.7885 252.957 -29.0664ZM234.27 87.8309C229.946 90.009 224.165 83.0637 219.573 76.7L219.548 76.6704C214.039 71.1006 207.76 50.1564 205.697 43.2738C202.627 34.354 208.296 25.8138 220.715 7.10231C222.151 4.93829 223.677 2.63992 225.288 0.190746C227.75 -2.81798 229.903 -5.57534 231.985 -8.24184C243.821 -23.3993 250.34 -31.7484 274.504 -34.0242C289.735 -36.8553 303.609 -32.8998 313.583 -22.8885C322.572 -13.8668 327.516 -0.676088 326.811 12.3966C325.887 20.5682 318.838 28.9631 305.86 37.3359C294.958 44.3689 282.112 49.9843 273.61 53.6998C271.532 54.6085 269.736 55.393 268.247 56.0755C260.388 59.7216 253.271 67.9615 246.989 75.2342C242.567 80.3545 238.389 85.191 234.618 87.634C234.504 87.7063 234.387 87.772 234.27 87.8309Z" fill="url(#paint9_linear_40_902)"/>
</mask>
<g mask="url(#mask9_40_902)">
<path d="M252.958 -29.0664C244.297 -24.7038 239.001 -17.9202 231.679 -8.54259C229.598 -5.87736 227.446 -3.12163 224.976 -0.101437C223.354 2.36178 221.829 4.6599 220.393 6.82336C207.897 25.6501 202.194 34.2428 205.334 43.368C207.402 50.2655 213.699 71.2736 219.294 76.9527C224.115 83.6334 230.243 90.9132 234.843 88.0101L234.844 88.009C238.655 85.5413 242.847 80.6871 247.286 75.5479C253.546 68.2999 260.641 60.0873 268.435 56.4717C269.921 55.7907 271.715 55.0066 273.792 54.0987C282.303 50.3788 295.164 44.7577 306.087 37.7105C319.156 29.279 326.259 20.7932 327.197 12.489C327.911 -0.733121 322.911 -14.0646 313.824 -23.1859C303.747 -33.2996 289.749 -37.2985 274.407 -34.4465C265.075 -33.5677 258.362 -31.7885 252.958 -29.0664ZM234.271 87.8309C229.947 90.009 224.165 83.0637 219.574 76.7L219.548 76.6704C214.039 71.1006 207.76 50.1564 205.697 43.2738C202.628 34.354 208.296 25.8138 220.716 7.10231C222.152 4.93829 223.677 2.63992 225.289 0.190746C227.751 -2.81798 229.904 -5.57534 231.986 -8.24184C243.821 -23.3993 250.34 -31.7484 274.504 -34.0242C289.736 -36.8553 303.609 -32.8998 313.584 -22.8885C322.572 -13.8668 327.517 -0.676088 326.811 12.3966C325.888 20.5682 318.839 28.9631 305.861 37.3359C294.959 44.3689 282.112 49.9843 273.611 53.6998C271.532 54.6085 269.737 55.393 268.247 56.0755C260.388 59.7216 253.271 67.9615 246.99 75.2342C242.567 80.3545 238.39 85.191 234.619 87.634C234.504 87.7063 234.388 87.772 234.271 87.8309Z" fill="#004BBB"/>
</g>
<mask id="mask10_40_902" style="mask-type:alpha" maskUnits="userSpaceOnUse" x="213" y="-26" width="102" height="110">
<path d="M251.219 -20.0066C246.182 -17.4694 241.066 -14.01 235.784 -9.58184C217.847 7.51497 211.484 19.0657 214.501 29.0473C215.78 33.6802 217.38 42.9926 218.792 51.209C219.91 57.7148 220.966 63.8598 221.728 66.9353C222.148 69.6653 223.329 73.1827 224.885 76.3248C226.59 79.7663 228.439 82.1846 230.094 83.1343C231.115 83.7208 232.039 83.7403 232.841 83.1956L232.842 83.1949C236.405 80.7201 241.045 74.6152 245.957 68.1518C251.794 60.4719 257.83 52.5307 262.957 49.3456C265.754 47.6258 270.525 45.596 276.05 43.2454C289.763 37.4114 308.547 29.421 312.458 19.2992C315.522 9.34268 314.255 -2.03033 309.156 -10.3928C304.871 -17.4189 298.26 -21.7527 290.036 -22.9259C279.973 -25.6389 271.547 -26.1157 263.539 -24.4217C259.455 -23.5578 255.364 -22.0944 251.219 -20.0066ZM232.398 83.0165C231.753 83.3413 231.021 83.2729 230.217 82.8115C226.843 80.8744 222.908 72.4441 222.055 66.9013C221.293 63.8222 220.238 57.6846 219.122 51.1868C217.708 42.9605 216.106 33.6367 214.819 28.9782C211.849 19.1496 218.188 7.70825 236.015 -9.28383C245.6 -17.3194 254.639 -22.1545 263.643 -24.0589C271.603 -25.7429 279.984 -25.2675 290.016 -22.5637C298.148 -21.4026 304.666 -17.1341 308.884 -10.2159C313.922 -1.95476 315.171 9.28998 312.142 19.1304C308.282 29.1214 289.564 37.0839 275.895 42.8988C270.36 45.2536 265.58 47.2864 262.765 49.0181C257.593 52.2308 251.541 60.1936 245.689 67.8943C240.791 74.339 236.164 80.4263 232.637 82.8753C232.559 82.9286 232.479 82.9756 232.398 83.0165Z" fill="url(#paint10_linear_40_902)"/>
</mask>
<g mask="url(#mask10_40_902)">
<path d="M251.219 -20.0066C246.182 -17.4694 241.066 -14.01 235.784 -9.58184C217.847 7.51497 211.484 19.0657 214.501 29.0473C215.78 33.6802 217.38 42.9926 218.792 51.209C219.91 57.7148 220.966 63.8598 221.728 66.9353C222.148 69.6653 223.329 73.1827 224.885 76.3248C226.59 79.7663 228.439 82.1846 230.094 83.1343C231.115 83.7208 232.039 83.7403 232.841 83.1956L232.842 83.1949C236.405 80.7201 241.045 74.6152 245.957 68.1518C251.794 60.4719 257.83 52.5307 262.957 49.3456C265.754 47.6258 270.525 45.596 276.05 43.2454C289.763 37.4114 308.547 29.421 312.458 19.2992C315.522 9.34268 314.255 -2.03033 309.156 -10.3928C304.871 -17.4189 298.26 -21.7527 290.036 -22.9259C279.973 -25.6389 271.547 -26.1157 263.539 -24.4217C259.455 -23.5578 255.364 -22.0944 251.219 -20.0066ZM232.398 83.0165C231.753 83.3413 231.021 83.2729 230.217 82.8115C226.843 80.8744 222.908 72.4441 222.055 66.9013C221.293 63.8222 220.238 57.6846 219.122 51.1868C217.708 42.9605 216.106 33.6367 214.819 28.9782C211.849 19.1496 218.188 7.70825 236.015 -9.28383C245.6 -17.3194 254.639 -22.1545 263.643 -24.0589C271.603 -25.7429 279.984 -25.2675 290.016 -22.5637C298.148 -21.4026 304.666 -17.1341 308.884 -10.2159C313.922 -1.95476 315.171 9.28998 312.142 19.1304C308.282 29.1214 289.564 37.0839 275.895 42.8988C270.36 45.2536 265.58 47.2864 262.765 49.0181C257.593 52.2308 251.541 60.1936 245.689 67.8943C240.791 74.339 236.164 80.4263 232.637 82.8753C232.559 82.9286 232.479 82.9756 232.398 83.0165Z" fill="#004BBB"/>
</g>
<mask id="mask11_40_902" style="mask-type:alpha" maskUnits="userSpaceOnUse" x="223" y="-26" width="87" height="105">
<path d="M248.461 -20.0455C247.829 -19.7276 247.205 -19.3967 246.587 -19.0525C236.523 -13.4488 229.585 -7.30722 225.966 -0.798439C223.125 4.31165 222.352 9.53558 223.667 14.7279C225.821 23.2299 226.147 48.4806 224.212 56.9438C223.491 60.0976 223.757 64.5836 224.941 69.2513C226.012 73.4748 227.638 76.9718 229.083 78.1609C229.726 78.6897 230.334 78.7645 230.837 78.3811C234.362 75.6935 240.381 66.6437 246.201 57.8919C250.714 51.1058 254.977 44.6958 257.483 42.2127C260.325 39.3961 268.057 37.0912 276.242 34.6513C284.674 32.1377 293.395 29.5387 297.691 26.113C302.186 22.5295 306.145 16.133 308.022 9.41964C310.216 1.57366 309.397 -5.79542 305.718 -11.3299C301.412 -17.8062 292.426 -22.8334 281.679 -24.7775C270.311 -26.8344 258.6 -25.1525 248.461 -20.0455ZM230.491 78.2212C230.12 78.4081 229.707 78.3084 229.234 77.9194C226.433 75.6156 222.902 63.9934 224.488 57.0558C226.43 48.5615 226.102 23.2162 223.94 14.6814C222.646 9.57454 223.411 4.42934 226.214 -0.611487C229.81 -7.07872 236.716 -13.1881 246.74 -18.7698C257.243 -24.619 269.651 -26.6438 281.669 -24.4696C292.175 -22.5689 301.305 -17.4719 305.496 -11.1676C309.116 -5.72284 309.916 1.54374 307.749 9.29382C305.887 15.9549 301.962 22.2996 297.506 25.852C293.244 29.249 284.547 31.8419 276.136 34.3489C267.921 36.7977 260.163 39.1099 257.278 41.9689C254.755 44.4697 250.485 50.89 245.964 57.6873C240.155 66.4219 234.149 75.454 230.656 78.117C230.602 78.1582 230.547 78.193 230.491 78.2212Z" fill="url(#paint11_linear_40_902)"/>
</mask>
<g mask="url(#mask11_40_902)">
<path d="M248.461 -20.0455C247.829 -19.7276 247.205 -19.3967 246.587 -19.0525C236.523 -13.4488 229.585 -7.30722 225.966 -0.798439C223.125 4.31165 222.352 9.53558 223.667 14.7279C225.821 23.2299 226.147 48.4806 224.212 56.9438C223.491 60.0976 223.757 64.5836 224.941 69.2513C226.012 73.4748 227.638 76.9718 229.083 78.1609C229.726 78.6897 230.334 78.7645 230.837 78.3811C234.362 75.6935 240.381 66.6437 246.201 57.8919C250.714 51.1058 254.977 44.6958 257.483 42.2127C260.325 39.3961 268.057 37.0912 276.242 34.6513C284.674 32.1377 293.395 29.5387 297.691 26.113C302.186 22.5295 306.145 16.133 308.022 9.41964C310.216 1.57366 309.397 -5.79542 305.718 -11.3299C301.412 -17.8062 292.426 -22.8334 281.679 -24.7775C270.311 -26.8344 258.6 -25.1525 248.461 -20.0455ZM230.491 78.2212C230.12 78.4081 229.707 78.3084 229.234 77.9194C226.433 75.6156 222.902 63.9934 224.488 57.0558C226.43 48.5615 226.102 23.2162 223.94 14.6814C222.646 9.57454 223.411 4.42934 226.214 -0.611487C229.81 -7.07872 236.716 -13.1881 246.74 -18.7698C257.243 -24.619 269.651 -26.6438 281.669 -24.4696C292.175 -22.5689 301.305 -17.4719 305.496 -11.1676C309.116 -5.72284 309.916 1.54374 307.749 9.29382C305.887 15.9549 301.962 22.2996 297.506 25.852C293.244 29.249 284.547 31.8419 276.136 34.3489C267.921 36.7977 260.163 39.1099 257.278 41.9689C254.755 44.4697 250.485 50.89 245.964 57.6873C240.155 66.4219 234.149 75.454 230.656 78.117C230.602 78.1582 230.547 78.193 230.491 78.2212Z" fill="#004BBB"/>
</g>
</g>
<defs>
<linearGradient id="paint0_linear_40_902" x1="71.9179" y1="71.1812" x2="432.052" y2="-110.229" gradientUnits="userSpaceOnUse">
<stop stop-color="white"/>
<stop offset="0.0436152" stop-color="#B4B4B4"/>
<stop offset="0.150732"/>
<stop offset="0.171421" stop-color="#171717"/>
<stop offset="0.385884" stop-color="white"/>
<stop offset="0.632551" stop-color="#E6E6E6"/>
<stop offset="0.856667" stop-color="#1A1A1A"/>
<stop offset="0.998739"/>
</linearGradient>
<linearGradient id="paint1_linear_40_902" x1="86.844" y1="68.2774" x2="419.448" y2="-99.2654" gradientUnits="userSpaceOnUse">
<stop stop-color="white"/>
<stop offset="0.0436152" stop-color="#B4B4B4"/>
<stop offset="0.150732"/>
<stop offset="0.171421" stop-color="#171717"/>
<stop offset="0.385884" stop-color="white"/>
<stop offset="0.632551" stop-color="#E6E6E6"/>
<stop offset="0.856667" stop-color="#1A1A1A"/>
<stop offset="0.998739"/>
</linearGradient>
<linearGradient id="paint2_linear_40_902" x1="101.761" y1="65.3618" x2="406.854" y2="-88.3229" gradientUnits="userSpaceOnUse">
<stop stop-color="white"/>
<stop offset="0.0436152" stop-color="#B4B4B4"/>
<stop offset="0.150732"/>
<stop offset="0.171421" stop-color="#171717"/>
<stop offset="0.385884" stop-color="white"/>
<stop offset="0.632551" stop-color="#E6E6E6"/>
<stop offset="0.856667" stop-color="#1A1A1A"/>
<stop offset="0.998739"/>
</linearGradient>
<linearGradient id="paint3_linear_40_902" x1="116.665" y1="62.4341" x2="394.276" y2="-77.4073" gradientUnits="userSpaceOnUse">
<stop stop-color="white"/>
<stop offset="0.0436152" stop-color="#B4B4B4"/>
<stop offset="0.150732"/>
<stop offset="0.171421" stop-color="#171717"/>
<stop offset="0.385884" stop-color="white"/>
<stop offset="0.632551" stop-color="#E6E6E6"/>
<stop offset="0.856667" stop-color="#1A1A1A"/>
<stop offset="0.998739"/>
</linearGradient>
<linearGradient id="paint4_linear_40_902" x1="131.556" y1="59.5023" x2="381.726" y2="-66.516" gradientUnits="userSpaceOnUse">
<stop stop-color="white"/>
<stop offset="0.0436152" stop-color="#B4B4B4"/>
<stop offset="0.150732"/>
<stop offset="0.171421" stop-color="#171717"/>
<stop offset="0.385884" stop-color="white"/>
<stop offset="0.632551" stop-color="#E6E6E6"/>
<stop offset="0.856667" stop-color="#1A1A1A"/>
<stop offset="0.998739"/>
</linearGradient>
<linearGradient id="paint5_linear_40_902" x1="146.411" y1="56.5166" x2="369.17" y2="-55.6943" gradientUnits="userSpaceOnUse">
<stop stop-color="white"/>
<stop offset="0.0436152" stop-color="#B4B4B4"/>
<stop offset="0.150732"/>
<stop offset="0.171421" stop-color="#171717"/>
<stop offset="0.385884" stop-color="white"/>
<stop offset="0.632551" stop-color="#E6E6E6"/>
<stop offset="0.856667" stop-color="#1A1A1A"/>
<stop offset="0.998739"/>
</linearGradient>
<linearGradient id="paint6_linear_40_902" x1="161.198" y1="53.4425" x2="356.685" y2="-45.0301" gradientUnits="userSpaceOnUse">
<stop stop-color="white"/>
<stop offset="0.0436152" stop-color="#B4B4B4"/>
<stop offset="0.150732"/>
<stop offset="0.171421" stop-color="#171717"/>
<stop offset="0.385884" stop-color="white"/>
<stop offset="0.632551" stop-color="#E6E6E6"/>
<stop offset="0.856667" stop-color="#1A1A1A"/>
<stop offset="0.998739"/>
</linearGradient>
<linearGradient id="paint7_linear_40_902" x1="176.781" y1="52.1066" x2="345.209" y2="-32.7359" gradientUnits="userSpaceOnUse">
<stop stop-color="white"/>
<stop offset="0.0436152" stop-color="#B4B4B4"/>
<stop offset="0.150732"/>
<stop offset="0.171421" stop-color="#171717"/>
<stop offset="0.385884" stop-color="white"/>
<stop offset="0.632551" stop-color="#E6E6E6"/>
<stop offset="0.856667" stop-color="#1A1A1A"/>
<stop offset="0.998739"/>
</linearGradient>
<linearGradient id="paint8_linear_40_902" x1="191.923" y1="50.6158" x2="333.883" y2="-20.8941" gradientUnits="userSpaceOnUse">
<stop stop-color="white"/>
<stop offset="0.0436152" stop-color="#B4B4B4"/>
<stop offset="0.150732"/>
<stop offset="0.171421" stop-color="#171717"/>
<stop offset="0.385884" stop-color="white"/>
<stop offset="0.632551" stop-color="#E6E6E6"/>
<stop offset="0.856667" stop-color="#1A1A1A"/>
<stop offset="0.998739"/>
</linearGradient>
<linearGradient id="paint9_linear_40_902" x1="204.489" y1="49.3362" x2="322.799" y2="-10.2603" gradientUnits="userSpaceOnUse">
<stop stop-color="white"/>
<stop offset="0.0436152" stop-color="#B4B4B4"/>
<stop offset="0.150732"/>
<stop offset="0.171421" stop-color="#171717"/>
<stop offset="0.385884" stop-color="white"/>
<stop offset="0.632551" stop-color="#E6E6E6"/>
<stop offset="0.856667" stop-color="#1A1A1A"/>
<stop offset="0.998739"/>
</linearGradient>
<linearGradient id="paint10_linear_40_902" x1="210.387" y1="47.5456" x2="312.533" y2="-3.90843" gradientUnits="userSpaceOnUse">
<stop stop-color="white"/>
<stop offset="0.0436152" stop-color="#B4B4B4"/>
<stop offset="0.150732"/>
<stop offset="0.171421" stop-color="#171717"/>
<stop offset="0.385884" stop-color="white"/>
<stop offset="0.632551" stop-color="#E6E6E6"/>
<stop offset="0.856667" stop-color="#1A1A1A"/>
<stop offset="0.998739"/>
</linearGradient>
<linearGradient id="paint11_linear_40_902" x1="211.102" y1="43.5603" x2="308.749" y2="-5.62749" gradientUnits="userSpaceOnUse">
<stop stop-color="white"/>
<stop offset="0.0436152" stop-color="#B4B4B4"/>
<stop offset="0.150732"/>
<stop offset="0.171421" stop-color="#171717"/>
<stop offset="0.385884" stop-color="white"/>
<stop offset="0.632551" stop-color="#E6E6E6"/>
<stop offset="0.856667" stop-color="#1A1A1A"/>
<stop offset="0.998739"/>
</linearGradient>
</defs>
</svg>
