<svg width="261" height="303" viewBox="0 0 261 303" fill="none" xmlns="http://www.w3.org/2000/svg">
<g opacity="0.1">
<mask id="mask0_37_238" style="mask-type:alpha" maskUnits="userSpaceOnUse" x="-167" y="73" width="388" height="356">
<path d="M-87.6635 103.162C-94.8094 106.762 -101.9 110.677 -108.919 114.901C-148.408 138.662 -167.072 167.184 -165.975 202.095C-165.025 232.345 -149.473 262.74 -135.751 289.556C-126.592 307.456 -117.94 324.363 -115.196 338.425C-106.058 385.236 -114.159 400.768 -118.999 410.048C-121.801 415.422 -123.652 418.971 -120.137 425.272C-116.693 431.447 -93.0025 429.601 -45.5836 419.463C-25.075 415.078 -13.0752 403.882 -3.43293 394.885C1.3974 390.379 5.57589 386.48 9.88146 384.331L9.66555 383.9L9.88146 384.331C21.7326 378.407 25.73 378.297 34.4884 378.056C41.7919 377.855 52.8293 377.551 74.7888 373.559C94.0865 370.051 120.845 357.87 144.623 341.769C158.152 332.607 170.308 322.542 180.752 311.852C192.444 299.885 201.707 287.394 208.285 274.727C220.469 251.262 223.314 227.598 216.742 204.393C210.267 181.533 199.013 160.48 183.293 141.819C167.678 123.283 148.456 108.05 126.162 96.5419C93.7096 79.791 56.1849 72.0084 17.6444 74.0361C-2.90153 75.1169 -23.7834 78.9669 -44.4211 85.4785C-58.9221 90.0538 -73.3981 95.9769 -87.6635 103.162ZM-28.4764 412.459C-33.5171 414.998 -39.2378 417.129 -45.8475 418.542C-67.4137 423.153 -83.7679 425.989 -95.8453 427.213C-113.266 428.979 -118.284 426.908 -119.427 424.861C-122.663 419.06 -121.094 416.051 -118.246 410.59C-113.352 401.205 -105.16 385.498 -114.364 338.344C-117.138 324.129 -125.825 307.153 -135.021 289.181C-148.69 262.469 -164.182 232.192 -165.124 202.184C-166.209 167.618 -147.668 139.341 -108.44 115.737C-87.4541 103.109 -65.8041 93.233 -44.0919 86.3822C-23.5117 79.8886 -2.69036 76.0498 17.7939 74.9719C56.1922 72.9518 93.5698 80.701 125.886 97.3815C148.062 108.828 167.179 123.977 182.704 142.407C198.321 160.945 209.5 181.857 215.931 204.563C222.431 227.51 219.605 250.935 207.531 274.187C200.989 286.786 191.77 299.215 180.131 311.128C169.72 321.784 157.601 331.819 144.111 340.953C120.41 357.003 93.7538 369.142 74.5465 372.633C52.6418 376.616 41.6386 376.919 34.3576 377.119C25.4889 377.363 21.441 377.475 9.44957 383.469C9.42935 383.479 9.40837 383.489 9.38805 383.5C5.00636 385.707 0.817094 389.616 -4.03076 394.139C-10.4931 400.168 -18.0221 407.193 -28.4764 412.459Z" fill="url(#paint0_linear_37_238)"/>
</mask>
<g mask="url(#mask0_37_238)">
<path d="M-87.6635 103.162C-94.8094 106.762 -101.9 110.677 -108.919 114.901C-148.408 138.662 -167.072 167.184 -165.975 202.095C-165.025 232.345 -149.473 262.74 -135.751 289.556C-126.592 307.456 -117.94 324.363 -115.196 338.425C-106.058 385.236 -114.159 400.768 -118.999 410.048C-121.801 415.422 -123.652 418.971 -120.137 425.272C-116.693 431.447 -93.0025 429.601 -45.5836 419.463C-25.075 415.078 -13.0752 403.882 -3.43293 394.885C1.3974 390.379 5.57589 386.48 9.88146 384.331L9.66555 383.9L9.88146 384.331C21.7326 378.407 25.73 378.297 34.4884 378.056C41.7919 377.855 52.8293 377.551 74.7888 373.559C94.0865 370.051 120.845 357.87 144.623 341.769C158.152 332.607 170.308 322.542 180.752 311.852C192.444 299.885 201.707 287.394 208.285 274.727C220.469 251.262 223.314 227.598 216.742 204.393C210.267 181.533 199.013 160.48 183.293 141.819C167.678 123.283 148.456 108.05 126.162 96.5419C93.7096 79.791 56.1849 72.0084 17.6444 74.0361C-2.90153 75.1169 -23.7834 78.9669 -44.4211 85.4785C-58.9221 90.0538 -73.3981 95.9769 -87.6635 103.162ZM-28.4764 412.459C-33.5171 414.998 -39.2378 417.129 -45.8475 418.542C-67.4137 423.153 -83.7679 425.989 -95.8453 427.213C-113.266 428.979 -118.284 426.908 -119.427 424.861C-122.663 419.06 -121.094 416.051 -118.246 410.59C-113.352 401.205 -105.16 385.498 -114.364 338.344C-117.138 324.129 -125.825 307.153 -135.021 289.181C-148.69 262.469 -164.182 232.192 -165.124 202.184C-166.209 167.618 -147.668 139.341 -108.44 115.737C-87.4541 103.109 -65.8041 93.233 -44.0919 86.3822C-23.5117 79.8886 -2.69036 76.0498 17.7939 74.9719C56.1922 72.9518 93.5698 80.701 125.886 97.3815C148.062 108.828 167.179 123.977 182.704 142.407C198.321 160.945 209.5 181.857 215.931 204.563C222.431 227.51 219.605 250.935 207.531 274.187C200.989 286.786 191.77 299.215 180.131 311.128C169.72 321.784 157.601 331.819 144.111 340.953C120.41 357.003 93.7538 369.142 74.5465 372.633C52.6418 376.616 41.6386 376.919 34.3576 377.119C25.4889 377.363 21.441 377.475 9.44957 383.469C9.42935 383.479 9.40837 383.489 9.38805 383.5C5.00636 385.707 0.817094 389.616 -4.03076 394.139C-10.4931 400.168 -18.0221 407.193 -28.4764 412.459Z" fill="#004BBB"/>
</g>
<mask id="mask1_37_238" style="mask-type:alpha" maskUnits="userSpaceOnUse" x="-147" y="90" width="352" height="326">
<path d="M-76.1232 117.012C-81.9014 119.923 -87.6405 123.059 -93.3309 126.418C-129.201 147.473 -146.652 172.835 -146.678 203.954C-146.701 230.987 -133.613 258.454 -122.065 282.687C-114.021 299.568 -106.423 315.512 -104.407 328.919C-97.4676 371.604 -105.136 386.71 -109.717 395.735C-112.486 401.19 -114.315 404.793 -110.975 410.949C-109.138 414.451 -101.597 415.984 -88.564 415.496C-76.8394 415.058 -61.1313 412.993 -43.1377 409.527C-24.3107 405.988 -13.1126 396.292 -4.11455 388.501C0.235223 384.734 3.99194 381.482 7.87702 379.518L7.8773 379.517C20.1831 373.267 23.8165 372.874 34.5842 371.688C41.8189 370.892 51.7272 369.801 69.3039 366.438C87.3106 362.999 112.257 351.6 134.408 336.69C147.077 328.162 158.445 318.821 168.197 308.925C179.139 297.823 187.792 286.252 193.916 274.533C204.964 253.392 207.689 232.076 202.016 211.177C196.265 190.167 186.129 170.78 171.889 153.553C157.738 136.436 140.269 122.332 119.967 111.636C90.6299 96.1801 56.6529 88.8207 21.7087 90.3537C3.0771 91.171 -15.8808 94.4975 -34.6377 100.241C-48.5442 104.499 -62.4377 110.119 -76.1232 117.012ZM-25.4302 402.628C-30.5551 405.21 -36.4424 407.356 -43.3708 408.659C-81.4297 415.991 -107.074 416.727 -110.297 410.58C-113.393 404.877 -111.741 401.625 -109.006 396.236C-104.378 387.119 -96.6317 371.859 -103.619 328.881C-105.657 315.327 -113.288 299.315 -121.366 282.361C-132.866 258.228 -145.901 230.875 -145.878 204.068C-145.852 173.263 -128.518 148.121 -92.8855 127.207C-73.762 115.919 -54.0621 107.132 -34.3338 101.091C-15.6312 95.3647 3.26938 92.048 21.8431 91.2332C56.6534 89.706 90.4917 97.0327 119.7 112.421C139.892 123.059 157.263 137.081 171.329 154.098C185.474 171.208 195.541 190.463 201.251 211.327C206.859 231.985 204.154 253.08 193.209 274.024C185.12 289.503 168.269 312.807 133.929 335.922C111.847 350.786 86.9945 362.146 69.0704 365.571C51.5203 368.928 41.6275 370.017 34.4041 370.812C23.84 371.976 19.882 372.417 7.4683 378.709C3.51107 380.71 -0.274312 383.988 -4.65729 387.783C-10.2751 392.647 -16.7585 398.26 -25.4302 402.628Z" fill="url(#paint1_linear_37_238)"/>
</mask>
<g mask="url(#mask1_37_238)">
<path d="M-76.1232 117.012C-81.9014 119.923 -87.6405 123.059 -93.3309 126.418C-129.201 147.473 -146.652 172.835 -146.678 203.954C-146.701 230.987 -133.613 258.454 -122.065 282.687C-114.021 299.568 -106.423 315.512 -104.407 328.919C-97.4676 371.604 -105.136 386.71 -109.717 395.735C-112.486 401.19 -114.315 404.793 -110.975 410.949C-109.138 414.451 -101.597 415.984 -88.564 415.496C-76.8394 415.058 -61.1313 412.993 -43.1377 409.527C-24.3107 405.988 -13.1126 396.292 -4.11455 388.501C0.235223 384.734 3.99194 381.482 7.87702 379.518L7.8773 379.517C20.1831 373.267 23.8165 372.874 34.5842 371.688C41.8189 370.892 51.7272 369.801 69.3039 366.438C87.3106 362.999 112.257 351.6 134.408 336.69C147.077 328.162 158.445 318.821 168.197 308.925C179.139 297.823 187.792 286.252 193.916 274.533C204.964 253.392 207.689 232.076 202.016 211.177C196.265 190.167 186.129 170.78 171.889 153.553C157.738 136.436 140.269 122.332 119.967 111.636C90.6299 96.1801 56.6529 88.8207 21.7087 90.3537C3.0771 91.171 -15.8808 94.4975 -34.6377 100.241C-48.5442 104.499 -62.4377 110.119 -76.1232 117.012ZM-25.4302 402.628C-30.5551 405.21 -36.4424 407.356 -43.3708 408.659C-81.4297 415.991 -107.074 416.727 -110.297 410.58C-113.393 404.877 -111.741 401.625 -109.006 396.236C-104.378 387.119 -96.6317 371.859 -103.619 328.881C-105.657 315.327 -113.288 299.315 -121.366 282.361C-132.866 258.228 -145.901 230.875 -145.878 204.068C-145.852 173.263 -128.518 148.121 -92.8855 127.207C-73.762 115.919 -54.0621 107.132 -34.3338 101.091C-15.6312 95.3647 3.26938 92.048 21.8431 91.2332C56.6534 89.706 90.4917 97.0327 119.7 112.421C139.892 123.059 157.263 137.081 171.329 154.098C185.474 171.208 195.541 190.463 201.251 211.327C206.859 231.985 204.154 253.08 193.209 274.024C185.12 289.503 168.269 312.807 133.929 335.922C111.847 350.786 86.9945 362.146 69.0704 365.571C51.5203 368.928 41.6275 370.017 34.4041 370.812C23.84 371.976 19.882 372.417 7.4683 378.709C3.51107 380.71 -0.274312 383.988 -4.65729 387.783C-10.2751 392.647 -16.7585 398.26 -25.4302 402.628Z" fill="#004BBB"/>
</g>
<mask id="mask2_37_238" style="mask-type:alpha" maskUnits="userSpaceOnUse" x="-128" y="106" width="318" height="297">
<path d="M-64.4042 130.734C-68.865 132.981 -73.3077 135.38 -77.7422 137.936C-110.017 156.307 -126.239 178.536 -127.335 205.891C-128.29 229.729 -117.632 254.268 -108.228 275.917C-101.358 291.734 -94.8693 306.673 -93.6168 319.413C-88.8351 357.943 -96.0801 372.593 -100.409 381.346C-103.164 386.917 -104.984 390.597 -101.812 396.625C-97.705 404.969 -67.2494 404.014 -40.6929 399.591C-23.4453 396.901 -13.0069 388.662 -4.61897 382.042C-0.815119 379.04 2.46981 376.447 5.87253 374.704L5.87327 374.704C19.8087 367.515 22.7602 366.985 39.1375 364.02C45.3042 362.904 52.979 361.515 63.8188 359.319C74.9045 357.079 89.0324 351.605 103.599 343.903C119.991 335.237 135.492 324.506 148.426 312.872C163.733 299.103 174.977 284.592 181.846 269.74C189.847 252.439 191.678 235.018 187.289 217.961C182.264 198.798 173.247 181.074 160.486 165.279C147.8 149.575 132.082 136.6 113.769 126.712C87.5459 112.555 57.116 105.622 25.7679 106.664C-4.39298 107.666 -34.6664 115.755 -64.4042 130.734ZM-22.0526 392.767C-27.3219 395.422 -33.4734 397.619 -40.8932 398.776C-72.5213 404.043 -97.8698 403 -101.17 396.297C-104.126 390.678 -102.475 387.339 -99.7404 381.809C-95.3725 372.976 -88.0617 358.193 -92.8739 319.419C-94.1399 306.541 -100.658 291.533 -107.56 275.644C-116.922 254.089 -127.534 229.659 -126.587 206.033C-125.503 178.958 -109.391 156.925 -77.3321 138.678C-43.4184 119.128 -8.69306 108.636 25.8867 107.487C57.1087 106.449 87.409 113.35 113.512 127.443C131.721 137.274 147.347 150.172 159.956 165.78C172.628 181.465 181.583 199.065 186.571 218.09C190.907 234.94 189.09 252.168 181.169 269.295C174.34 284.061 163.15 298.499 147.909 312.208C135.013 323.808 119.555 334.509 103.207 343.152C88.69 350.825 74.623 356.28 63.5935 358.508C52.7602 360.703 45.089 362.091 38.9251 363.207C22.4701 366.186 19.5073 366.724 5.48676 373.95C2.03095 375.72 -1.27597 378.33 -5.10483 381.352C-9.81882 385.073 -15.1862 389.308 -22.0526 392.767Z" fill="url(#paint2_linear_37_238)"/>
</mask>
<g mask="url(#mask2_37_238)">
<path d="M-64.4042 130.734C-68.865 132.981 -73.3077 135.38 -77.7422 137.936C-110.017 156.307 -126.239 178.536 -127.335 205.891C-128.29 229.729 -117.632 254.268 -108.228 275.917C-101.358 291.734 -94.8693 306.673 -93.6168 319.413C-88.8351 357.943 -96.0801 372.593 -100.409 381.346C-103.164 386.917 -104.984 390.597 -101.812 396.625C-97.705 404.969 -67.2494 404.014 -40.6929 399.591C-23.4453 396.901 -13.0069 388.662 -4.61897 382.042C-0.815119 379.04 2.46981 376.447 5.87253 374.704L5.87327 374.704C19.8087 367.515 22.7602 366.985 39.1375 364.02C45.3042 362.904 52.979 361.515 63.8188 359.319C74.9045 357.079 89.0324 351.605 103.599 343.903C119.991 335.237 135.492 324.506 148.426 312.872C163.733 299.103 174.977 284.592 181.846 269.74C189.847 252.439 191.678 235.018 187.289 217.961C182.264 198.798 173.247 181.074 160.486 165.279C147.8 149.575 132.082 136.6 113.769 126.712C87.5459 112.555 57.116 105.622 25.7679 106.664C-4.39298 107.666 -34.6664 115.755 -64.4042 130.734ZM-22.0526 392.767C-27.3219 395.422 -33.4734 397.619 -40.8932 398.776C-72.5213 404.043 -97.8698 403 -101.17 396.297C-104.126 390.678 -102.475 387.339 -99.7404 381.809C-95.3725 372.976 -88.0617 358.193 -92.8739 319.419C-94.1399 306.541 -100.658 291.533 -107.56 275.644C-116.922 254.089 -127.534 229.659 -126.587 206.033C-125.503 178.958 -109.391 156.925 -77.3321 138.678C-43.4184 119.128 -8.69306 108.636 25.8867 107.487C57.1087 106.449 87.409 113.35 113.512 127.443C131.721 137.274 147.347 150.172 159.956 165.78C172.628 181.465 181.583 199.065 186.571 218.09C190.907 234.94 189.09 252.168 181.169 269.295C174.34 284.061 163.15 298.499 147.909 312.208C135.013 323.808 119.555 334.509 103.207 343.152C88.69 350.825 74.623 356.28 63.5935 358.508C52.7602 360.703 45.089 362.091 38.9251 363.207C22.4701 366.186 19.5073 366.724 5.48676 373.95C2.03095 375.72 -1.27597 378.33 -5.10483 381.352C-9.81882 385.073 -15.1862 389.308 -22.0526 392.767Z" fill="#004BBB"/>
</g>
<mask id="mask3_37_238" style="mask-type:alpha" maskUnits="userSpaceOnUse" x="-109" y="122" width="284" height="270">
<path d="M-52.9411 144.557C-56.0178 146.107 -59.0878 147.739 -62.1528 149.453C-90.8602 165.169 -105.838 184.297 -107.938 207.929C-109.775 228.597 -101.86 249.278 -94.2059 269.278C-88.5824 283.973 -83.2709 297.852 -82.825 309.907C-80.1435 344.239 -86.7124 357.845 -91.0593 366.849C-93.9275 372.79 -95.6585 376.376 -92.6485 382.302C-89.0905 390.013 -65.1918 393.25 -38.2486 389.655C-22.388 387.827 -12.625 380.967 -4.77996 375.455C-1.77894 373.346 1.0555 371.354 3.86867 369.891L3.86964 369.891L5.29088 369.143C21.6341 360.549 22.9685 359.848 58.3345 352.198C68.275 350.058 81.4689 344.898 94.5316 338.052C109.556 330.174 123.779 320.494 135.664 310.059C149.786 297.661 160.233 284.616 166.715 271.288C174.276 255.74 176.244 240.081 172.563 224.746C168.267 207.426 160.369 191.361 149.087 176.992C137.864 162.698 123.896 150.845 107.569 141.764C84.4582 128.909 57.5737 122.408 29.8221 122.963C2.22089 123.514 -25.576 130.773 -52.9411 144.557ZM-18.0904 382.847C-23.6088 385.626 -30.1859 387.945 -38.4137 388.893C-64.6231 392.39 -88.6784 389.303 -92.0424 382.013C-94.8661 376.454 -93.1979 372.998 -90.4342 367.274C-86.3195 358.751 -79.4326 344.486 -82.1298 309.957C-82.5799 297.775 -87.9176 283.828 -93.5684 269.062C-101.186 249.156 -109.064 228.573 -107.244 208.1C-105.166 184.714 -90.2937 165.758 -61.7783 150.148C-31.5342 133.23 -0.681861 124.341 29.9245 123.729C57.5584 123.177 84.3219 129.647 107.322 142.44C123.551 151.467 137.434 163.246 148.586 177.448C159.786 191.714 167.627 207.663 171.891 224.853C175.525 239.993 173.574 255.474 166.091 270.861C159.647 284.113 149.249 297.092 135.188 309.436C123.337 319.841 109.153 329.494 94.1683 337.352C81.1512 344.178 68.0094 349.315 58.1175 351.445C22.6739 359.112 21.3322 359.816 4.92723 368.443L3.50713 369.19C0.660318 370.671 -2.1894 372.673 -5.20656 374.793C-8.91977 377.402 -13.0662 380.316 -18.0904 382.847Z" fill="url(#paint3_linear_37_238)"/>
</mask>
<g mask="url(#mask3_37_238)">
<path d="M-52.9411 144.557C-56.0178 146.107 -59.0878 147.739 -62.1528 149.453C-90.8602 165.169 -105.838 184.297 -107.938 207.929C-109.775 228.597 -101.86 249.278 -94.2059 269.278C-88.5824 283.973 -83.2709 297.852 -82.825 309.907C-80.1435 344.239 -86.7124 357.845 -91.0593 366.849C-93.9275 372.79 -95.6585 376.376 -92.6485 382.302C-89.0905 390.013 -65.1918 393.25 -38.2486 389.655C-22.388 387.827 -12.625 380.967 -4.77996 375.455C-1.77894 373.346 1.0555 371.354 3.86867 369.891L3.86964 369.891L5.29088 369.143C21.6341 360.549 22.9685 359.848 58.3345 352.198C68.275 350.058 81.4689 344.898 94.5316 338.052C109.556 330.174 123.779 320.494 135.664 310.059C149.786 297.661 160.233 284.616 166.715 271.288C174.276 255.74 176.244 240.081 172.563 224.746C168.267 207.426 160.369 191.361 149.087 176.992C137.864 162.698 123.896 150.845 107.569 141.764C84.4582 128.909 57.5737 122.408 29.8221 122.963C2.22089 123.514 -25.576 130.773 -52.9411 144.557ZM-18.0904 382.847C-23.6088 385.626 -30.1859 387.945 -38.4137 388.893C-64.6231 392.39 -88.6784 389.303 -92.0424 382.013C-94.8661 376.454 -93.1979 372.998 -90.4342 367.274C-86.3195 358.751 -79.4326 344.486 -82.1298 309.957C-82.5799 297.775 -87.9176 283.828 -93.5684 269.062C-101.186 249.156 -109.064 228.573 -107.244 208.1C-105.166 184.714 -90.2937 165.758 -61.7783 150.148C-31.5342 133.23 -0.681861 124.341 29.9245 123.729C57.5584 123.177 84.3219 129.647 107.322 142.44C123.551 151.467 137.434 163.246 148.586 177.448C159.786 191.714 167.627 207.663 171.891 224.853C175.525 239.993 173.574 255.474 166.091 270.861C159.647 284.113 149.249 297.092 135.188 309.436C123.337 319.841 109.153 329.494 94.1683 337.352C81.1512 344.178 68.0094 349.315 58.1175 351.445C22.6739 359.112 21.3322 359.816 4.92723 368.443L3.50713 369.19C0.660318 370.671 -2.1894 372.673 -5.20656 374.793C-8.91977 377.402 -13.0662 380.316 -18.0904 382.847Z" fill="#004BBB"/>
</g>
<mask id="mask4_37_238" style="mask-type:alpha" maskUnits="userSpaceOnUse" x="-90" y="139" width="250" height="242">
<path d="M-41.5214 158.345C-43.2045 159.193 -44.8843 160.067 -46.5642 160.971C-102.993 190.319 -90.7545 228.837 -79.9573 262.82C-75.6702 276.313 -71.621 289.058 -72.0318 300.399C-71.3677 330.473 -77.5534 343.542 -81.6465 352.19C-84.5768 358.38 -86.3456 362.117 -83.486 367.979C-81.8483 371.772 -75.9435 375.26 -67.2935 377.532C-58.1086 379.943 -46.9263 380.72 -35.8064 379.719C-20.8895 378.798 -11.9986 373.375 -4.15395 368.59C-2.07269 367.321 -0.106768 366.122 1.86392 365.078L1.86536 365.077C4.82386 363.489 7.36793 362.039 9.61245 360.76C19.9794 354.851 26.2365 351.285 52.8496 345.078C69.8324 341.142 98.9981 327.624 122.902 307.247C135.84 296.217 145.49 284.64 151.583 272.836C158.704 259.042 160.808 245.145 157.836 231.531C154.271 216.05 147.494 201.637 137.692 188.688C127.932 175.796 115.711 165.061 101.368 156.782C81.3642 145.235 58.0232 139.171 33.8676 139.246C8.82798 139.323 -16.5089 145.746 -41.5214 158.345ZM-13.1629 372.897C-19.1191 375.897 -26.2474 378.413 -35.9327 379.011C-59.8238 381.162 -79.8667 374.791 -82.9174 367.727C-85.6166 362.193 -83.9036 358.574 -81.0659 352.579C-76.9455 343.874 -70.7191 330.718 -71.3871 300.496C-70.9711 289.04 -75.0416 276.229 -79.3508 262.666C-84.8193 245.454 -90.474 227.657 -87.844 210.298C-84.8522 190.551 -71.239 174.628 -46.2261 161.619C-19.6568 147.326 7.31961 140.038 33.9527 139.956C57.9987 139.882 81.2276 145.914 101.128 157.401C115.382 165.629 127.524 176.294 137.218 189.099C146.947 201.951 153.674 216.256 157.211 231.615C161.025 249.086 158.094 276.294 122.467 306.665C98.631 326.984 69.5619 340.46 52.6402 344.383C25.9507 350.608 19.6679 354.188 9.25997 360.12C7.0183 361.398 4.47794 362.846 1.5258 364.43C-0.459252 365.482 -2.4318 366.685 -4.52016 367.959C-7.20943 369.599 -10.0236 371.316 -13.1629 372.897Z" fill="url(#paint4_linear_37_238)"/>
</mask>
<g mask="url(#mask4_37_238)">
<path d="M-41.5214 158.345C-43.2045 159.193 -44.8843 160.067 -46.5642 160.971C-102.993 190.319 -90.7545 228.836 -79.9573 262.82C-75.6702 276.313 -71.621 289.058 -72.0318 300.399C-71.3677 330.473 -77.5534 343.541 -81.6465 352.189C-84.5768 358.38 -86.3456 362.117 -83.486 367.979C-81.8483 371.771 -75.9435 375.26 -67.2935 377.531C-58.1086 379.943 -46.9263 380.72 -35.8064 379.718C-20.8895 378.798 -11.9986 373.375 -4.15395 368.59C-2.07269 367.32 -0.106768 366.121 1.86392 365.078L1.86536 365.077C4.82386 363.489 7.36793 362.039 9.61245 360.76C19.9794 354.851 26.2365 351.285 52.8496 345.078C69.8324 341.142 98.9981 327.623 122.902 307.246C135.84 296.217 145.49 284.64 151.583 272.836C158.704 259.042 160.808 245.145 157.836 231.531C154.271 216.049 147.494 201.637 137.692 188.688C127.932 175.796 115.711 165.061 101.368 156.782C81.3642 145.235 58.0232 139.171 33.8676 139.246C8.82798 139.323 -16.5089 145.746 -41.5214 158.345ZM-13.1629 372.897C-19.1191 375.897 -26.2474 378.413 -35.9327 379.01C-59.8238 381.162 -79.8667 374.791 -82.9174 367.727C-85.6166 362.193 -83.9036 358.574 -81.0659 352.578C-76.9455 343.873 -70.7191 330.718 -71.3871 300.496C-70.9711 289.04 -75.0416 276.229 -79.3508 262.666C-84.8193 245.454 -90.474 227.657 -87.844 210.298C-84.8522 190.551 -71.239 174.628 -46.2261 161.619C-19.6568 147.326 7.31961 140.038 33.9527 139.955C57.9987 139.881 81.2276 145.914 101.128 157.401C115.382 165.629 127.524 176.294 137.218 189.099C146.947 201.951 153.674 216.255 157.211 231.615C161.025 249.086 158.094 276.293 122.467 306.664C98.631 326.984 69.5619 340.46 52.6402 344.383C25.9507 350.608 19.6679 354.188 9.25997 360.12C7.0183 361.398 4.47794 362.845 1.5258 364.43C-0.459252 365.481 -2.4318 366.685 -4.52016 367.958C-7.20943 369.599 -10.0236 371.315 -13.1629 372.897Z" fill="#004BBB"/>
</g>
<mask id="mask5_37_238" style="mask-type:alpha" maskUnits="userSpaceOnUse" x="-76" y="155" width="220" height="215">
<path d="M-32.8072 173.394C-53.3875 183.761 -65.2227 196.548 -68.9599 212.437C-72.3594 226.89 -68.8364 242.006 -65.4298 256.623C-62.5909 268.804 -59.9093 280.31 -61.2349 290.893C-62.4586 316.607 -68.2744 329.042 -72.1231 337.27C-75.1936 343.836 -77.0471 347.799 -74.321 353.656C-71.0548 361.754 -52.8407 370.383 -33.3652 369.782C-18.0118 369.963 -9.40598 365.293 -1.08318 360.776L-0.137482 360.263C3.86145 358.062 7.07764 355.955 10.1881 353.918C18.5258 348.456 26.4014 343.297 47.367 337.958C62.6532 334.094 88.8177 321.956 110.141 304.434C128.112 289.666 148.42 266.207 143.111 238.317C137.457 211.029 119.982 186.767 95.1675 171.747C78.2664 161.517 58.4654 155.901 37.9048 155.505C15.4263 155.071 -7.47224 160.648 -30.1669 172.08C-30.4361 172.215 -30.7039 172.351 -30.973 172.488C-31.592 172.788 -32.2033 173.09 -32.8072 173.394ZM-6.4323 362.847C-13.3439 366.329 -21.2533 369.273 -33.447 369.129C-54.267 369.771 -70.974 360.424 -73.7913 353.44C-76.3808 347.874 -74.5765 344.017 -71.5875 337.626C-67.7185 329.354 -61.8719 316.852 -60.6442 291.036C-59.3054 280.355 -62.0012 268.787 -64.8554 256.54C-68.2434 242.004 -71.7464 226.973 -68.3837 212.675C-64.5781 196.494 -52.2447 183.554 -30.673 173.089C-30.4061 172.953 -30.1357 172.816 -29.8689 172.682C-7.24091 161.283 15.575 155.726 37.9711 156.158C58.4302 156.552 78.1282 162.137 94.9355 172.31C107.219 179.745 117.623 189.305 125.86 200.723C134.118 212.171 139.727 224.839 142.532 238.376C147.78 265.946 127.6 289.222 109.748 303.893C88.4823 321.367 62.4 333.47 47.1646 337.32C26.1192 342.68 18.2105 347.861 9.8381 353.345C6.73523 355.378 3.52688 357.479 -0.455387 359.671L-1.39878 360.183C-3.04818 361.078 -4.70955 361.98 -6.4323 362.847Z" fill="url(#paint5_linear_37_238)"/>
</mask>
<g mask="url(#mask5_37_238)">
<path d="M-32.8077 173.394C-53.388 183.761 -65.2232 196.548 -68.9604 212.437C-72.3599 226.89 -68.8368 242.006 -65.4303 256.623C-62.5913 268.804 -59.9098 280.31 -61.2354 290.893C-62.459 316.607 -68.2749 329.042 -72.1236 337.27C-75.1941 343.836 -77.0476 347.799 -74.3215 353.656C-71.0553 361.754 -52.8412 370.383 -33.3657 369.782C-18.0122 369.963 -9.40647 365.293 -1.08367 360.776L-0.13797 360.263C3.86096 358.062 7.07715 355.955 10.1876 353.918C18.5253 348.456 26.4009 343.297 47.3665 337.958C62.6527 334.094 88.8172 321.956 110.14 304.434C128.111 289.666 148.42 266.207 143.111 238.317C137.456 211.029 119.982 186.767 95.167 171.747C78.2659 161.517 58.4649 155.901 37.9043 155.505C15.4258 155.071 -7.47273 160.648 -30.1674 172.08C-30.4366 172.215 -30.7044 172.351 -30.9734 172.488C-31.5925 172.788 -32.2038 173.09 -32.8077 173.394ZM-6.43279 362.847C-13.3443 366.329 -21.2538 369.273 -33.4475 369.129C-54.2675 369.771 -70.9745 360.424 -73.7918 353.44C-76.3813 347.874 -74.577 344.017 -71.588 337.626C-67.719 329.354 -61.8724 316.852 -60.6447 291.036C-59.3059 280.355 -62.0017 268.787 -64.8559 256.54C-68.2439 242.004 -71.7469 226.973 -68.3842 212.675C-64.5786 196.494 -52.2452 183.554 -30.6735 173.089C-30.4066 172.953 -30.1362 172.816 -29.8694 172.682C-7.2414 161.283 15.5745 155.726 37.9706 156.158C58.4297 156.552 78.1277 162.137 94.935 172.31C107.218 179.745 117.623 189.305 125.859 200.723C134.117 212.171 139.726 224.839 142.531 238.376C147.779 265.946 127.6 289.222 109.747 303.893C88.4819 321.367 62.3995 333.47 47.1641 337.32C26.1187 342.68 18.21 347.861 9.83761 353.345C6.73475 355.378 3.52639 357.479 -0.455875 359.671L-1.39927 360.183C-3.04867 361.078 -4.71004 361.98 -6.43279 362.847Z" fill="#004BBB"/>
</g>
<mask id="mask6_37_238" style="mask-type:alpha" maskUnits="userSpaceOnUse" x="-67" y="171" width="196" height="190">
<path d="M-20.9461 186.614C-35.999 194.196 -45.3292 203.528 -49.394 215.027C-53.4406 226.474 -51.988 238.858 -50.5831 250.835C-49.383 261.067 -48.1416 271.647 -50.4376 281.387C-53.3315 302.568 -58.7862 314.201 -62.3955 321.898C-65.7534 329.059 -67.7802 333.381 -65.1587 339.333C-62.2464 347.08 -47.4584 358.937 -30.931 359.843C-18.8846 361.277 -10.2721 359.963 -2.1444 355.451L-2.1428 355.45C2.15247 353.014 5.6055 350.382 9.26123 347.596C16.9875 341.707 24.9767 335.617 41.8817 330.837C55.5442 327.01 78.7381 316.235 97.3765 301.621C113.528 288.957 132.018 268.872 128.383 245.105C124.208 221.397 109.843 200.087 88.9693 186.632C75.161 177.731 58.8936 172.576 41.9259 171.724C23.1575 170.781 3.87586 174.913 -15.3835 184.005C-17.3168 184.85 -19.1726 185.721 -20.9461 186.614ZM-3.895 355.683C-11.5133 359.521 -19.723 360.586 -30.9583 359.249C-47.2657 358.355 -61.8121 346.748 -64.6687 339.15C-67.1754 333.458 -65.304 329.468 -61.9069 322.223C-58.2832 314.495 -52.807 302.817 -49.9065 281.577C-47.5911 271.76 -48.8389 261.122 -50.0456 250.834C-51.442 238.93 -52.8859 226.62 -48.8852 215.303C-44.3897 202.586 -33.3464 192.533 -15.1235 184.56C4.07349 175.499 23.281 171.381 41.9713 172.319C58.846 173.167 75.0192 178.29 88.7422 187.136C109.457 200.489 123.711 221.629 127.85 245.136C131.441 268.615 113.07 288.541 97.0257 301.12C78.4355 315.696 55.3072 326.442 41.6858 330.258C24.6982 335.061 16.6748 341.176 8.91539 347.092C5.2721 349.868 1.83082 352.492 -2.43812 354.912C-2.92173 355.181 -3.40733 355.438 -3.895 355.683Z" fill="url(#paint6_linear_37_238)"/>
</mask>
<g mask="url(#mask6_37_238)">
<path d="M-20.9461 186.614C-35.999 194.196 -45.3292 203.528 -49.394 215.027C-53.4406 226.474 -51.988 238.858 -50.5831 250.835C-49.383 261.067 -48.1416 271.647 -50.4376 281.387C-53.3315 302.568 -58.7862 314.201 -62.3955 321.898C-65.7534 329.059 -67.7802 333.381 -65.1587 339.333C-62.2464 347.08 -47.4584 358.937 -30.931 359.843C-18.8846 361.277 -10.2721 359.963 -2.1444 355.451L-2.1428 355.45C2.15247 353.014 5.6055 350.382 9.26123 347.596C16.9875 341.707 24.9767 335.617 41.8817 330.837C55.5442 327.01 78.7381 316.235 97.3765 301.621C113.528 288.957 132.018 268.872 128.383 245.105C124.208 221.397 109.843 200.087 88.9693 186.632C75.161 177.731 58.8936 172.576 41.9259 171.724C23.1575 170.781 3.87586 174.913 -15.3835 184.005C-17.3168 184.85 -19.1726 185.721 -20.9461 186.614ZM-3.895 355.683C-11.5133 359.521 -19.723 360.586 -30.9583 359.249C-47.2657 358.355 -61.8121 346.748 -64.6687 339.15C-67.1754 333.458 -65.304 329.468 -61.9069 322.223C-58.2832 314.495 -52.807 302.817 -49.9065 281.577C-47.5911 271.76 -48.8389 261.122 -50.0456 250.834C-51.442 238.93 -52.8859 226.62 -48.8852 215.303C-44.3897 202.586 -33.3464 192.533 -15.1235 184.56C4.07349 175.499 23.281 171.381 41.9713 172.319C58.846 173.167 75.0192 178.29 88.7422 187.136C109.457 200.489 123.711 221.629 127.85 245.136C131.441 268.615 113.07 288.541 97.0257 301.12C78.4355 315.696 55.3072 326.442 41.6858 330.258C24.6982 335.061 16.6748 341.176 8.91539 347.092C5.2721 349.868 1.83082 352.492 -2.43812 354.912C-2.92173 355.181 -3.40733 355.438 -3.895 355.683Z" fill="#004BBB"/>
</g>
<mask id="mask7_37_238" style="mask-type:alpha" maskUnits="userSpaceOnUse" x="-58" y="187" width="172" height="166">
<path d="M-9.43207 199.677C-33.6834 211.892 -34.5431 228.395 -35.4487 245.759C-35.8955 254.323 -36.3572 263.178 -39.6354 271.885C-43.7858 288.2 -48.6537 298.269 -52.2079 305.622C-56.3079 314.103 -58.5661 318.775 -55.9946 325.011C-54.4977 329.293 -50.6808 334.854 -46.0392 339.506C-40.429 345.128 -34.2012 348.821 -28.5028 349.903C-18.8651 352.698 -10.9386 354.531 -4.14844 350.637L-4.1466 350.636C0.112568 348.134 3.81611 344.864 7.73713 341.402C14.8145 335.153 22.8364 328.071 36.3986 323.716C45.8036 320.729 66.5435 312.121 84.6133 298.809C94.0143 291.883 101.272 284.708 106.186 277.483C111.99 268.949 114.503 260.34 113.656 251.895C110.997 231.721 99.7479 213.311 82.792 201.378C72.0599 193.825 59.3142 189.155 45.9327 187.873C31.1346 186.454 15.7509 189.028 0.208839 195.522C-3.35845 196.842 -6.55985 198.23 -9.43207 199.677ZM-5.17639 350.561C-11.6587 353.826 -19.263 352.043 -28.4591 349.377C-41.4873 346.902 -53.0138 332.101 -55.5458 324.86C-58.0212 318.856 -55.8002 314.261 -51.7683 305.921C-48.2049 298.55 -43.3247 288.455 -39.1701 272.118C-35.8722 263.362 -35.408 254.464 -34.959 245.859C-34.4474 236.048 -33.9641 226.781 -29.4316 218.309C-24.324 208.761 -14.8367 201.684 0.425108 196.032C15.9112 189.562 31.2267 186.999 45.9533 188.41C59.25 189.685 71.911 194.322 82.5674 201.822C99.381 213.655 110.535 231.906 113.17 251.894C114.003 260.198 111.517 268.69 105.78 277.126C100.893 284.31 93.6685 291.451 84.3057 298.348C66.2783 311.629 45.5901 320.216 36.2077 323.196C22.5648 327.577 14.5086 334.689 7.4013 340.965C3.49589 344.413 -0.193458 347.67 -4.41889 350.153C-4.6696 350.297 -4.92232 350.433 -5.17639 350.561Z" fill="url(#paint7_linear_37_238)"/>
</mask>
<g mask="url(#mask7_37_238)">
<path d="M-9.43183 199.677C-33.6832 211.892 -34.5429 228.395 -35.4484 245.759C-35.8953 254.323 -36.3569 263.178 -39.6351 271.885C-43.7855 288.2 -48.6534 298.269 -52.2076 305.622C-56.3077 314.103 -58.5659 318.775 -55.9943 325.011C-54.4974 329.293 -50.6806 334.854 -46.0389 339.506C-40.4288 345.128 -34.2009 348.821 -28.5026 349.903C-18.8648 352.698 -10.9383 354.531 -4.1482 350.637L-4.14636 350.636C0.112812 348.134 3.81635 344.864 7.73737 341.402C14.8147 335.153 22.8367 328.071 36.3989 323.716C45.8038 320.729 66.5437 312.121 84.6136 298.809C94.0146 291.883 101.272 284.708 106.186 277.483C111.99 268.949 114.504 260.34 113.656 251.895C110.997 231.721 99.7481 213.311 82.7922 201.378C72.0601 193.825 59.3145 189.155 45.9329 187.873C31.1349 186.454 15.7512 189.028 0.209083 195.522C-3.3582 196.842 -6.5596 198.23 -9.43183 199.677ZM-5.17614 350.561C-11.6585 353.826 -19.2628 352.043 -28.4588 349.377C-41.487 346.902 -53.0136 332.101 -55.5455 324.86C-58.021 318.856 -55.8 314.261 -51.768 305.921C-48.2047 298.55 -43.3245 288.455 -39.1699 272.118C-35.8719 263.362 -35.4078 254.464 -34.9588 245.859C-34.4472 236.048 -33.9639 226.781 -29.4314 218.309C-24.3237 208.761 -14.8364 201.684 0.425353 196.032C15.9115 189.562 31.227 186.999 45.9536 188.41C59.2502 189.685 71.9113 194.322 82.5676 201.822C99.3812 213.655 110.535 231.906 113.17 251.894C114.003 260.198 111.517 268.69 105.78 277.126C100.894 284.31 93.6688 291.451 84.3059 298.348C66.2786 311.629 45.5903 320.216 36.208 323.196C22.5651 327.577 14.5088 334.689 7.40154 340.965C3.49613 344.413 -0.193214 347.67 -4.41864 350.153C-4.66936 350.297 -4.92207 350.433 -5.17614 350.561Z" fill="#004BBB"/>
</g>
<mask id="mask8_37_238" style="mask-type:alpha" maskUnits="userSpaceOnUse" x="-48" y="203" width="147" height="144">
<path d="M1.37458 212.332C-13.2736 219.71 -16.6005 229.952 -20.5907 242.23C-22.674 248.64 -24.8277 255.267 -28.8302 262.388C-33.2867 273.063 -37.3943 280.844 -40.6951 287.096C-46.3579 297.823 -49.4774 303.732 -46.8298 310.689C-44.2528 318.639 -35.2413 335.961 -26.1035 339.944C-25.4983 340.311 -24.8924 340.684 -24.2867 341.056C-17.9578 344.946 -11.4117 348.967 -6.1522 345.824L-6.15069 345.823C-2.08268 343.327 1.84169 339.345 5.99651 335.129C12.7193 328.308 20.3382 320.576 30.9163 316.594C42.3862 312.327 99.5718 289.48 98.9283 258.689C97.8618 241.965 89.7529 226.361 76.6809 215.866C68.8814 209.604 59.8802 205.572 49.9274 203.881C39.0812 202.039 27.6006 203.101 15.8049 207.038C10.0309 208.586 5.29597 210.357 1.37458 212.332ZM-6.88241 345.659C-11.8667 348.17 -18.0884 344.345 -24.1122 340.641C-24.7236 340.266 -25.3351 339.89 -25.9459 339.52L-25.9748 339.505C-34.9652 335.6 -43.8665 318.453 -46.4232 310.567C-48.99 303.822 -45.9063 297.981 -40.3082 287.377C-37.0037 281.117 -32.891 273.327 -28.4381 262.656C-24.4257 255.521 -22.265 248.873 -20.1752 242.443C-15.154 226.992 -11.187 214.788 15.9697 207.505C27.7166 203.584 39.1342 202.527 49.9163 204.358C59.7917 206.036 68.7201 210.034 76.4533 216.243C89.402 226.639 97.434 242.095 98.49 258.649C98.7462 270.917 89.6948 283.345 71.5864 295.576C55.6471 306.342 37.7036 313.54 30.7285 316.135C20.0771 320.146 12.4267 327.907 5.67726 334.756C1.53867 338.955 -2.37041 342.922 -6.4003 345.394C-6.55942 345.489 -6.72039 345.577 -6.88241 345.659Z" fill="url(#paint8_linear_37_238)"/>
</mask>
<g mask="url(#mask8_37_238)">
<path d="M1.37482 212.333C-13.2734 219.71 -16.6003 229.952 -20.5904 242.231C-22.6738 248.64 -24.8275 255.268 -28.8299 262.388C-33.2865 273.063 -37.3941 280.844 -40.6948 287.096C-46.3577 297.823 -49.4772 303.732 -46.8296 310.689C-44.2525 318.639 -35.2411 335.961 -26.1033 339.945C-25.4981 340.311 -24.8921 340.684 -24.2864 341.056C-17.9576 344.947 -11.4114 348.968 -6.15196 345.824L-6.15044 345.823C-2.08243 343.327 1.84194 339.345 5.99675 335.13C12.7195 328.308 20.3385 320.577 30.9165 316.595C42.3864 312.327 99.5721 289.481 98.9286 258.689C97.862 241.966 89.7531 226.362 76.6812 215.866C68.8817 209.604 59.8805 205.572 49.9277 203.882C39.0814 202.039 27.6008 203.101 15.8051 207.038C10.0311 208.586 5.29622 210.357 1.37482 212.333ZM-6.88216 345.659C-11.8665 348.17 -18.0882 344.345 -24.1119 340.642C-24.7233 340.266 -25.3349 339.89 -25.9457 339.52L-25.9745 339.505C-34.9649 335.6 -43.8663 318.453 -46.423 310.568C-48.9897 303.822 -45.9061 297.981 -40.308 287.377C-37.0035 281.118 -32.8908 273.327 -28.4378 262.657C-24.4254 255.521 -22.2648 248.873 -20.175 242.443C-15.1537 226.992 -11.1867 214.788 15.9699 207.505C27.7169 203.584 39.1345 202.527 49.9166 204.358C59.792 206.036 68.7203 210.035 76.4535 216.244C89.4023 226.639 97.4343 242.096 98.4903 258.649C98.7464 270.917 89.695 283.345 71.5866 295.576C55.6473 306.343 37.7038 313.541 30.7288 316.135C20.0774 320.146 12.4269 327.908 5.6775 334.756C1.53891 338.955 -2.37017 342.922 -6.40006 345.394C-6.55918 345.489 -6.72015 345.577 -6.88216 345.659Z" fill="#004BBB"/>
</g>
<mask id="mask9_37_238" style="mask-type:alpha" maskUnits="userSpaceOnUse" x="-39" y="217" width="124" height="125">
<path d="M9.95741 223.934C1.29689 228.296 -3.9998 235.08 -11.322 244.457C-13.4028 247.123 -15.5545 249.878 -18.0247 252.899C-19.6467 255.362 -21.1718 257.66 -22.6079 259.823C-35.1037 278.65 -40.8068 287.243 -37.6665 296.368C-35.5989 303.265 -29.3011 324.274 -23.7068 329.953C-18.8852 336.633 -12.7578 343.913 -8.15763 341.01L-8.1561 341.009C-4.34574 338.541 -0.153132 333.687 4.28557 328.548C10.5458 321.3 17.6407 313.087 25.4342 309.472C26.9203 308.791 28.7145 308.007 30.7918 307.099C39.3026 303.379 52.1636 297.758 63.0867 290.711C76.1558 282.279 83.258 273.793 84.1963 265.489C84.9105 252.267 79.9106 238.935 70.8233 229.814C60.7468 219.7 46.7486 215.701 31.4069 218.554C22.0749 219.432 15.3613 221.212 9.95741 223.934ZM-8.72953 340.831C-13.0535 343.009 -18.8354 336.064 -23.4269 329.7L-23.452 329.67C-28.961 324.101 -35.2401 303.156 -37.3032 296.274C-40.3727 287.354 -34.7044 278.814 -22.2849 260.102C-20.8487 257.938 -19.3232 255.64 -17.7117 253.191C-15.2496 250.182 -13.0967 247.425 -11.0147 244.758C0.820571 229.601 7.33986 221.252 31.5035 218.976C46.7353 216.145 60.609 220.1 70.5833 230.111C79.5717 239.133 84.5165 252.324 83.8109 265.397C82.887 273.568 75.8381 281.963 62.8603 290.336C51.9582 297.369 39.1116 302.984 30.6104 306.7C28.5316 307.608 26.7365 308.393 25.2468 309.075C17.3879 312.722 10.2707 320.962 3.98908 328.234C-0.433201 333.354 -4.61072 338.191 -8.38181 340.634C-8.49645 340.706 -8.61261 340.772 -8.72953 340.831Z" fill="url(#paint9_linear_37_238)"/>
</mask>
<g mask="url(#mask9_37_238)">
<path d="M9.9579 223.934C1.29738 228.296 -3.99931 235.08 -11.3215 244.457C-13.4023 247.123 -15.554 249.878 -18.0242 252.899C-19.6462 255.362 -21.1713 257.66 -22.6074 259.823C-35.1032 278.65 -40.8064 287.243 -37.666 296.368C-35.5984 303.265 -29.3006 324.274 -23.7063 329.953C-18.8848 336.633 -12.7573 343.913 -8.15714 341.01L-8.15561 341.009C-4.34525 338.541 -0.152644 333.687 4.28606 328.548C10.5463 321.3 17.6412 313.087 25.4347 309.472C26.9208 308.791 28.715 308.007 30.7923 307.099C39.303 303.379 52.1641 297.758 63.0872 290.711C76.1562 282.279 83.2585 273.793 84.1968 265.489C84.9109 252.267 79.9111 238.935 70.8238 229.814C60.7473 219.7 46.7491 215.701 31.4073 218.554C22.0754 219.432 15.3618 221.212 9.9579 223.934ZM-8.72904 340.831C-13.053 343.009 -18.8349 336.064 -23.4265 329.7L-23.4515 329.67C-28.9606 324.101 -35.2397 303.156 -37.3027 296.274C-40.3722 287.354 -34.7039 278.814 -22.2844 260.102C-20.8483 257.938 -19.3227 255.64 -17.7112 253.191C-15.2491 250.182 -13.0962 247.425 -11.0142 244.758C0.821059 229.601 7.34035 221.252 31.504 218.976C46.7358 216.145 60.6095 220.1 70.5838 230.111C79.5722 239.133 84.517 252.324 83.8113 265.397C82.8875 273.568 75.8386 281.963 62.8608 290.336C51.9587 297.369 39.1121 302.984 30.6109 306.7C28.5321 307.608 26.737 308.393 25.2473 309.075C17.3884 312.722 10.2712 320.962 3.98957 328.234C-0.432713 333.354 -4.61024 338.191 -8.38132 340.634C-8.49596 340.706 -8.61212 340.772 -8.72904 340.831Z" fill="#004BBB"/>
</g>
<mask id="mask10_37_238" style="mask-type:alpha" maskUnits="userSpaceOnUse" x="-30" y="227" width="102" height="110">
<path d="M8.21889 232.993C3.18203 235.531 -1.93421 238.99 -7.21635 243.418C-25.153 260.515 -31.516 272.066 -28.4995 282.047C-27.2202 286.68 -25.6197 295.993 -24.2078 304.209C-23.0897 310.715 -22.0338 316.86 -21.2722 319.935C-20.8525 322.665 -19.6709 326.183 -18.1148 329.325C-16.4105 332.766 -14.5608 335.185 -12.9061 336.134C-11.8847 336.721 -10.9607 336.74 -10.1594 336.196L-10.1585 336.195C-6.59491 333.72 -1.95517 327.615 2.95714 321.152C8.79402 313.472 14.8295 305.531 19.9574 302.346C22.7538 300.626 27.5251 298.596 33.05 296.245C46.7635 290.411 65.5471 282.421 69.4578 272.299C72.5223 262.343 71.2554 250.97 66.1557 242.607C61.8714 235.581 55.2597 231.247 47.0358 230.074C36.9729 227.361 28.5473 226.884 20.5392 228.578C16.4547 229.442 12.3636 230.906 8.21889 232.993ZM-10.6017 336.016C-11.2467 336.341 -11.9787 336.273 -12.7825 335.811C-16.1574 333.874 -20.0918 325.444 -20.9453 319.901C-21.707 316.822 -22.7618 310.685 -23.8783 304.187C-25.2919 295.961 -26.8942 286.637 -28.1807 281.978C-31.151 272.15 -24.8118 260.708 -6.98543 243.716C2.60032 235.681 11.6394 230.845 20.6428 228.941C28.6032 227.257 36.9836 227.732 47.0159 230.436C55.1477 231.597 61.6657 235.866 65.8844 242.784C70.9223 251.045 72.1706 262.29 69.1424 272.13C65.2816 282.121 46.5635 290.084 32.8952 295.899C27.3601 298.254 22.5801 300.286 19.7654 302.018C14.5932 305.231 8.54137 313.194 2.68869 320.894C-2.20948 327.339 -6.83594 333.426 -10.3626 335.875C-10.4408 335.929 -10.5206 335.976 -10.6017 336.016Z" fill="url(#paint10_linear_37_238)"/>
</mask>
<g mask="url(#mask10_37_238)">
<path d="M8.21889 232.993C3.18203 235.531 -1.93421 238.99 -7.21635 243.418C-25.153 260.515 -31.516 272.066 -28.4995 282.047C-27.2202 286.68 -25.6197 295.993 -24.2078 304.209C-23.0897 310.715 -22.0338 316.86 -21.2722 319.935C-20.8525 322.665 -19.6709 326.183 -18.1148 329.325C-16.4105 332.766 -14.5608 335.185 -12.9061 336.134C-11.8847 336.721 -10.9607 336.74 -10.1594 336.196L-10.1585 336.195C-6.59491 333.72 -1.95517 327.615 2.95714 321.152C8.79402 313.472 14.8295 305.531 19.9574 302.346C22.7538 300.626 27.5251 298.596 33.05 296.245C46.7635 290.411 65.5471 282.421 69.4578 272.299C72.5223 262.343 71.2554 250.97 66.1557 242.607C61.8714 235.581 55.2597 231.247 47.0358 230.074C36.9729 227.361 28.5473 226.884 20.5392 228.578C16.4547 229.442 12.3636 230.906 8.21889 232.993ZM-10.6017 336.016C-11.2467 336.341 -11.9787 336.273 -12.7825 335.811C-16.1574 333.874 -20.0918 325.444 -20.9453 319.901C-21.707 316.822 -22.7618 310.685 -23.8783 304.187C-25.2919 295.961 -26.8942 286.637 -28.1807 281.978C-31.151 272.15 -24.8118 260.708 -6.98543 243.716C2.60032 235.681 11.6394 230.845 20.6428 228.941C28.6032 227.257 36.9836 227.732 47.0159 230.436C55.1477 231.597 61.6657 235.866 65.8844 242.784C70.9223 251.045 72.1706 262.29 69.1424 272.13C65.2816 282.121 46.5635 290.084 32.8952 295.899C27.3601 298.254 22.5801 300.286 19.7654 302.018C14.5932 305.231 8.54137 313.194 2.68869 320.894C-2.20948 327.339 -6.83594 333.426 -10.3626 335.875C-10.4408 335.929 -10.5206 335.976 -10.6017 336.016Z" fill="#004BBB"/>
</g>
<mask id="mask11_37_238" style="mask-type:alpha" maskUnits="userSpaceOnUse" x="-20" y="227" width="87" height="105">
<path d="M5.46054 232.954C4.82945 233.272 4.20523 233.603 3.58677 233.948C-6.47707 239.551 -13.4149 245.693 -17.0337 252.202C-19.8746 257.312 -20.6484 262.536 -19.3329 267.728C-17.1793 276.23 -16.853 301.481 -18.7878 309.944C-19.5088 313.098 -19.2435 317.584 -18.0595 322.251C-16.9883 326.475 -15.3622 329.972 -13.9167 331.161C-13.2737 331.69 -12.6661 331.764 -12.1628 331.381C-8.63794 328.694 -2.61938 319.644 3.20109 310.892C7.71416 304.106 11.9771 297.696 14.4829 295.213C17.3245 292.396 25.0565 290.091 33.2421 287.651C41.6743 285.138 50.3945 282.539 54.6913 279.113C59.1864 275.529 63.145 269.133 65.022 262.42C67.2156 254.574 66.3972 247.205 62.7179 241.67C58.4122 235.194 49.4258 230.167 38.6793 228.223C27.3114 226.166 15.5996 227.847 5.46054 232.954ZM-12.5093 331.221C-12.8804 331.408 -13.2935 331.308 -13.7664 330.919C-16.5674 328.616 -20.0981 316.993 -18.5118 310.056C-16.57 301.561 -16.8981 276.216 -19.0602 267.681C-20.3538 262.575 -19.5886 257.429 -16.786 252.389C-13.1903 245.921 -6.28441 239.812 3.73994 234.23C14.2431 228.381 26.6506 226.356 38.6691 228.53C49.1749 230.431 58.305 235.528 62.4963 241.832C66.1161 247.277 66.9164 254.544 64.7495 262.294C62.8872 268.955 58.962 275.3 54.506 278.852C50.2444 282.249 41.5471 284.842 33.1359 287.349C24.9215 289.798 17.1627 292.11 14.2781 294.969C11.7549 297.47 7.48493 303.89 2.96449 310.687C-2.84454 319.422 -8.85133 328.454 -12.3438 331.117C-12.3981 331.158 -12.4532 331.193 -12.5093 331.221Z" fill="url(#paint11_linear_37_238)"/>
</mask>
<g mask="url(#mask11_37_238)">
<path d="M5.46054 232.954C4.82945 233.272 4.20523 233.603 3.58677 233.948C-6.47707 239.551 -13.4149 245.693 -17.0337 252.202C-19.8746 257.312 -20.6484 262.536 -19.3329 267.728C-17.1793 276.23 -16.853 301.481 -18.7878 309.944C-19.5088 313.098 -19.2435 317.584 -18.0595 322.251C-16.9883 326.475 -15.3622 329.972 -13.9167 331.161C-13.2737 331.69 -12.6661 331.764 -12.1628 331.381C-8.63794 328.694 -2.61938 319.644 3.20109 310.892C7.71416 304.106 11.9771 297.696 14.4829 295.213C17.3245 292.396 25.0565 290.091 33.2421 287.651C41.6743 285.138 50.3945 282.539 54.6913 279.113C59.1864 275.529 63.145 269.133 65.022 262.42C67.2156 254.574 66.3972 247.205 62.7179 241.67C58.4122 235.194 49.4258 230.167 38.6793 228.223C27.3114 226.166 15.5996 227.847 5.46054 232.954ZM-12.5093 331.221C-12.8804 331.408 -13.2935 331.308 -13.7664 330.919C-16.5674 328.616 -20.0981 316.993 -18.5118 310.056C-16.57 301.561 -16.8981 276.216 -19.0602 267.681C-20.3538 262.575 -19.5886 257.429 -16.786 252.389C-13.1903 245.921 -6.28441 239.812 3.73994 234.23C14.2431 228.381 26.6506 226.356 38.6691 228.53C49.1749 230.431 58.305 235.528 62.4963 241.832C66.1161 247.277 66.9164 254.544 64.7495 262.294C62.8872 268.955 58.962 275.3 54.506 278.852C50.2444 282.249 41.5471 284.842 33.1359 287.349C24.9215 289.798 17.1627 292.11 14.2781 294.969C11.7549 297.47 7.48493 303.89 2.96449 310.687C-2.84454 319.422 -8.85133 328.454 -12.3438 331.117C-12.3981 331.158 -12.4532 331.193 -12.5093 331.221Z" fill="#004BBB"/>
</g>
</g>
<defs>
<linearGradient id="paint0_linear_37_238" x1="-171.082" y1="324.181" x2="189.052" y2="142.771" gradientUnits="userSpaceOnUse">
<stop stop-color="white"/>
<stop offset="0.0436152" stop-color="#B4B4B4"/>
<stop offset="0.150732"/>
<stop offset="0.171421" stop-color="#171717"/>
<stop offset="0.385884" stop-color="white"/>
<stop offset="0.632551" stop-color="#E6E6E6"/>
<stop offset="0.856667" stop-color="#1A1A1A"/>
<stop offset="0.998739"/>
</linearGradient>
<linearGradient id="paint1_linear_37_238" x1="-156.156" y1="321.277" x2="176.448" y2="153.735" gradientUnits="userSpaceOnUse">
<stop stop-color="white"/>
<stop offset="0.0436152" stop-color="#B4B4B4"/>
<stop offset="0.150732"/>
<stop offset="0.171421" stop-color="#171717"/>
<stop offset="0.385884" stop-color="white"/>
<stop offset="0.632551" stop-color="#E6E6E6"/>
<stop offset="0.856667" stop-color="#1A1A1A"/>
<stop offset="0.998739"/>
</linearGradient>
<linearGradient id="paint2_linear_37_238" x1="-141.239" y1="318.362" x2="163.854" y2="164.677" gradientUnits="userSpaceOnUse">
<stop stop-color="white"/>
<stop offset="0.0436152" stop-color="#B4B4B4"/>
<stop offset="0.150732"/>
<stop offset="0.171421" stop-color="#171717"/>
<stop offset="0.385884" stop-color="white"/>
<stop offset="0.632551" stop-color="#E6E6E6"/>
<stop offset="0.856667" stop-color="#1A1A1A"/>
<stop offset="0.998739"/>
</linearGradient>
<linearGradient id="paint3_linear_37_238" x1="-126.335" y1="315.434" x2="151.276" y2="175.593" gradientUnits="userSpaceOnUse">
<stop stop-color="white"/>
<stop offset="0.0436152" stop-color="#B4B4B4"/>
<stop offset="0.150732"/>
<stop offset="0.171421" stop-color="#171717"/>
<stop offset="0.385884" stop-color="white"/>
<stop offset="0.632551" stop-color="#E6E6E6"/>
<stop offset="0.856667" stop-color="#1A1A1A"/>
<stop offset="0.998739"/>
</linearGradient>
<linearGradient id="paint4_linear_37_238" x1="-111.444" y1="312.502" x2="138.726" y2="186.484" gradientUnits="userSpaceOnUse">
<stop stop-color="white"/>
<stop offset="0.0436152" stop-color="#B4B4B4"/>
<stop offset="0.150732"/>
<stop offset="0.171421" stop-color="#171717"/>
<stop offset="0.385884" stop-color="white"/>
<stop offset="0.632551" stop-color="#E6E6E6"/>
<stop offset="0.856667" stop-color="#1A1A1A"/>
<stop offset="0.998739"/>
</linearGradient>
<linearGradient id="paint5_linear_37_238" x1="-96.5893" y1="309.517" x2="126.17" y2="197.306" gradientUnits="userSpaceOnUse">
<stop stop-color="white"/>
<stop offset="0.0436152" stop-color="#B4B4B4"/>
<stop offset="0.150732"/>
<stop offset="0.171421" stop-color="#171717"/>
<stop offset="0.385884" stop-color="white"/>
<stop offset="0.632551" stop-color="#E6E6E6"/>
<stop offset="0.856667" stop-color="#1A1A1A"/>
<stop offset="0.998739"/>
</linearGradient>
<linearGradient id="paint6_linear_37_238" x1="-81.802" y1="306.442" x2="113.685" y2="207.97" gradientUnits="userSpaceOnUse">
<stop stop-color="white"/>
<stop offset="0.0436152" stop-color="#B4B4B4"/>
<stop offset="0.150732"/>
<stop offset="0.171421" stop-color="#171717"/>
<stop offset="0.385884" stop-color="white"/>
<stop offset="0.632551" stop-color="#E6E6E6"/>
<stop offset="0.856667" stop-color="#1A1A1A"/>
<stop offset="0.998739"/>
</linearGradient>
<linearGradient id="paint7_linear_37_238" x1="-66.2192" y1="305.107" x2="102.209" y2="220.264" gradientUnits="userSpaceOnUse">
<stop stop-color="white"/>
<stop offset="0.0436152" stop-color="#B4B4B4"/>
<stop offset="0.150732"/>
<stop offset="0.171421" stop-color="#171717"/>
<stop offset="0.385884" stop-color="white"/>
<stop offset="0.632551" stop-color="#E6E6E6"/>
<stop offset="0.856667" stop-color="#1A1A1A"/>
<stop offset="0.998739"/>
</linearGradient>
<linearGradient id="paint8_linear_37_238" x1="-51.0773" y1="303.616" x2="90.8834" y2="232.106" gradientUnits="userSpaceOnUse">
<stop stop-color="white"/>
<stop offset="0.0436152" stop-color="#B4B4B4"/>
<stop offset="0.150732"/>
<stop offset="0.171421" stop-color="#171717"/>
<stop offset="0.385884" stop-color="white"/>
<stop offset="0.632551" stop-color="#E6E6E6"/>
<stop offset="0.856667" stop-color="#1A1A1A"/>
<stop offset="0.998739"/>
</linearGradient>
<linearGradient id="paint9_linear_37_238" x1="-38.511" y1="302.336" x2="79.7993" y2="242.74" gradientUnits="userSpaceOnUse">
<stop stop-color="white"/>
<stop offset="0.0436152" stop-color="#B4B4B4"/>
<stop offset="0.150732"/>
<stop offset="0.171421" stop-color="#171717"/>
<stop offset="0.385884" stop-color="white"/>
<stop offset="0.632551" stop-color="#E6E6E6"/>
<stop offset="0.856667" stop-color="#1A1A1A"/>
<stop offset="0.998739"/>
</linearGradient>
<linearGradient id="paint10_linear_37_238" x1="-32.6127" y1="300.546" x2="69.5335" y2="249.092" gradientUnits="userSpaceOnUse">
<stop stop-color="white"/>
<stop offset="0.0436152" stop-color="#B4B4B4"/>
<stop offset="0.150732"/>
<stop offset="0.171421" stop-color="#171717"/>
<stop offset="0.385884" stop-color="white"/>
<stop offset="0.632551" stop-color="#E6E6E6"/>
<stop offset="0.856667" stop-color="#1A1A1A"/>
<stop offset="0.998739"/>
</linearGradient>
<linearGradient id="paint11_linear_37_238" x1="-31.8984" y1="296.56" x2="65.7487" y2="247.373" gradientUnits="userSpaceOnUse">
<stop stop-color="white"/>
<stop offset="0.0436152" stop-color="#B4B4B4"/>
<stop offset="0.150732"/>
<stop offset="0.171421" stop-color="#171717"/>
<stop offset="0.385884" stop-color="white"/>
<stop offset="0.632551" stop-color="#E6E6E6"/>
<stop offset="0.856667" stop-color="#1A1A1A"/>
<stop offset="0.998739"/>
</linearGradient>
</defs>
</svg>
