<svg width="111" height="15" viewBox="0 0 111 15" fill="none" xmlns="http://www.w3.org/2000/svg">
<ellipse cx="2" cy="2" rx="2" ry="2" fill="#004BBB"/>
<ellipse cx="15" cy="2" rx="2" ry="2" fill="#004BBB"/>
<ellipse cx="27" cy="2" rx="2" ry="2" fill="#004BBB"/>
<ellipse cx="39" cy="2" rx="2" ry="2" fill="#004BBB"/>
<ellipse cx="52" cy="2" rx="2" ry="2" fill="#004BBB"/>
<ellipse cx="64" cy="2" rx="2" ry="2" fill="#004BBB"/>
<ellipse cx="77" cy="2" rx="2" ry="2" fill="#004BBB"/>
<ellipse cx="90" cy="2" rx="2" ry="2" fill="#004BBB"/>
<ellipse cx="102" cy="2" rx="2" ry="2" fill="#004BBB"/>
<ellipse cx="9.00001" cy="13" rx="2.00001" ry="1.99997" fill="#004BBB"/>
<ellipse cx="21" cy="13" rx="2.00001" ry="1.99997" fill="#004BBB"/>
<ellipse cx="34" cy="13" rx="2.00001" ry="1.99997" fill="#004BBB"/>
<ellipse cx="46" cy="13" rx="2.00001" ry="1.99997" fill="#004BBB"/>
<ellipse cx="59" cy="13" rx="2.00001" ry="1.99997" fill="#004BBB"/>
<ellipse cx="72" cy="13" rx="2.00001" ry="1.99997" fill="#004BBB"/>
<ellipse cx="84" cy="13" rx="2.00001" ry="1.99997" fill="#004BBB"/>
<ellipse cx="96" cy="13" rx="2.00001" ry="1.99997" fill="#004BBB"/>
<ellipse cx="109" cy="13" rx="2.00001" ry="1.99997" fill="#004BBB"/>
</svg>
