<svg width="298" height="187" viewBox="0 0 298 187" fill="none" xmlns="http://www.w3.org/2000/svg">
<g opacity="0.1">
<mask id="mask0_38_86" style="mask-type:alpha" maskUnits="userSpaceOnUse" x="-130" y="-207" width="388" height="356">
<path d="M-50.6635 -176.838C-57.8094 -173.238 -64.8996 -169.323 -71.9192 -165.099C-111.408 -141.338 -130.072 -112.816 -128.975 -77.9052C-128.025 -47.6546 -112.473 -17.2602 -98.751 9.5564C-89.5916 27.4561 -80.9404 44.3633 -78.1958 58.4251C-69.0585 105.236 -77.1589 120.768 -81.9986 130.048C-84.8011 135.422 -86.6524 138.971 -83.1373 145.272C-79.6925 151.447 -56.0025 149.601 -8.58358 139.463C11.925 135.078 23.9248 123.882 33.5671 114.885C38.3974 110.379 42.5759 106.48 46.8815 104.331L46.6656 103.9L46.8815 104.331C58.7326 98.4068 62.73 98.2968 71.4884 98.0558C78.7919 97.8547 89.8293 97.5509 111.789 93.5588C131.087 90.0505 157.845 77.8698 181.623 61.7686C195.152 52.6074 207.308 42.5419 217.752 31.8516C229.444 19.8848 238.707 7.39445 245.285 -5.27279C257.469 -28.7381 260.314 -52.4019 253.742 -75.6066C247.267 -98.4669 236.013 -119.52 220.293 -138.181C204.678 -156.717 185.456 -171.95 163.162 -183.458C130.71 -200.209 93.1849 -207.992 54.6444 -205.964C34.0985 -204.883 13.2166 -201.033 -7.42111 -194.521C-21.9221 -189.946 -36.3981 -184.023 -50.6635 -176.838ZM8.52358 132.459C3.48292 134.998 -2.23781 137.129 -8.84749 138.542C-30.4137 143.153 -46.7679 145.989 -58.8453 147.213C-76.2659 148.979 -81.2844 146.908 -82.4268 144.861C-85.6632 139.06 -84.0942 136.051 -81.2459 130.59C-76.3516 121.205 -68.1597 105.498 -77.3636 58.3443C-80.1385 44.1289 -88.8249 27.1532 -98.0212 9.18074C-111.69 -17.5314 -127.182 -47.8078 -128.124 -77.8162C-129.209 -112.382 -110.668 -140.659 -71.4395 -164.263C-50.4541 -176.891 -28.8041 -186.767 -7.0919 -193.618C13.4883 -200.111 34.3096 -203.95 54.7939 -205.028C93.1922 -207.048 130.57 -199.299 162.886 -182.618C185.062 -171.172 204.179 -156.023 219.704 -137.593C235.321 -119.055 246.5 -98.1426 252.931 -75.4368C259.431 -52.4896 256.605 -29.0649 244.531 -5.81317C237.99 6.78577 228.77 19.2147 217.131 31.1284C206.72 41.7841 194.601 51.8186 181.111 60.953C157.41 77.0028 130.754 89.1418 111.546 92.6335C89.6418 96.6158 78.6386 96.9187 71.3576 97.1191C62.4889 97.3632 58.441 97.4747 46.4496 103.469C46.4294 103.479 46.4084 103.489 46.388 103.5C42.0064 105.707 37.8171 109.616 32.9692 114.139C26.5069 120.168 18.9779 127.193 8.52358 132.459Z" fill="url(#paint0_linear_38_86)"/>
</mask>
<g mask="url(#mask0_38_86)">
<path d="M-50.6635 -176.838C-57.8094 -173.238 -64.8996 -169.323 -71.9192 -165.099C-111.408 -141.338 -130.072 -112.816 -128.975 -77.9052C-128.025 -47.6546 -112.473 -17.2602 -98.751 9.5564C-89.5916 27.4561 -80.9404 44.3633 -78.1958 58.4251C-69.0585 105.236 -77.1589 120.768 -81.9986 130.048C-84.8011 135.422 -86.6524 138.971 -83.1373 145.272C-79.6925 151.447 -56.0025 149.601 -8.58358 139.463C11.925 135.078 23.9248 123.882 33.5671 114.885C38.3974 110.379 42.5759 106.48 46.8815 104.331L46.6656 103.9L46.8815 104.331C58.7326 98.4068 62.73 98.2968 71.4884 98.0558C78.7919 97.8547 89.8293 97.5509 111.789 93.5588C131.087 90.0505 157.845 77.8698 181.623 61.7686C195.152 52.6074 207.308 42.5419 217.752 31.8516C229.444 19.8848 238.707 7.39445 245.285 -5.27279C257.469 -28.7381 260.314 -52.4019 253.742 -75.6066C247.267 -98.4669 236.013 -119.52 220.293 -138.181C204.678 -156.717 185.456 -171.95 163.162 -183.458C130.71 -200.209 93.1849 -207.992 54.6444 -205.964C34.0985 -204.883 13.2166 -201.033 -7.42111 -194.521C-21.9221 -189.946 -36.3981 -184.023 -50.6635 -176.838ZM8.52358 132.459C3.48292 134.998 -2.23781 137.129 -8.84749 138.542C-30.4137 143.153 -46.7679 145.989 -58.8453 147.213C-76.2659 148.979 -81.2844 146.908 -82.4268 144.861C-85.6632 139.06 -84.0942 136.051 -81.2459 130.59C-76.3516 121.205 -68.1597 105.498 -77.3636 58.3443C-80.1385 44.1289 -88.8249 27.1532 -98.0212 9.18074C-111.69 -17.5314 -127.182 -47.8078 -128.124 -77.8162C-129.209 -112.382 -110.668 -140.659 -71.4395 -164.263C-50.4541 -176.891 -28.8041 -186.767 -7.0919 -193.618C13.4883 -200.111 34.3096 -203.95 54.7939 -205.028C93.1922 -207.048 130.57 -199.299 162.886 -182.618C185.062 -171.172 204.179 -156.023 219.704 -137.593C235.321 -119.055 246.5 -98.1426 252.931 -75.4368C259.431 -52.4896 256.605 -29.0649 244.531 -5.81317C237.99 6.78577 228.77 19.2147 217.131 31.1284C206.72 41.7841 194.601 51.8186 181.111 60.953C157.41 77.0028 130.754 89.1418 111.546 92.6335C89.6418 96.6158 78.6386 96.9187 71.3576 97.1191C62.4889 97.3632 58.441 97.4747 46.4496 103.469C46.4294 103.479 46.4084 103.489 46.388 103.5C42.0064 105.707 37.8171 109.616 32.9692 114.139C26.5069 120.168 18.9779 127.193 8.52358 132.459Z" fill="#004BBB"/>
</g>
<mask id="mask1_38_86" style="mask-type:alpha" maskUnits="userSpaceOnUse" x="-110" y="-190" width="352" height="326">
<path d="M-39.1231 -162.988C-44.9014 -160.077 -50.6405 -156.941 -56.3309 -153.582C-92.2014 -132.527 -109.652 -107.165 -109.678 -76.0461C-109.701 -49.0125 -96.6129 -21.5459 -85.0648 2.68749C-77.0208 19.5679 -69.4231 35.5119 -67.4067 48.9193C-60.4676 91.6036 -68.1356 106.71 -72.7171 115.735C-75.4859 121.19 -77.3154 124.793 -73.9746 130.949C-72.1381 134.451 -64.5967 135.984 -51.564 135.496C-39.8394 135.058 -24.1313 132.993 -6.13768 129.527C12.6893 125.988 23.8874 116.292 32.8855 108.501C37.2352 104.734 40.9919 101.482 44.877 99.5176L44.8773 99.5175C57.1831 93.2668 60.8165 92.8738 71.5842 91.6883C78.8189 90.8918 88.7272 89.8009 106.304 86.4384C124.311 82.9988 149.257 71.5995 171.408 56.6897C184.077 48.1619 195.445 38.8207 205.197 28.9254C216.139 17.823 224.792 6.25169 230.916 -5.46697C241.964 -26.6084 244.689 -47.9245 239.016 -68.8228C233.265 -89.833 223.129 -109.22 208.889 -126.447C194.738 -143.564 177.269 -157.668 156.967 -168.364C127.63 -183.82 93.6529 -191.179 58.7087 -189.646C40.0771 -188.829 21.1192 -185.502 2.3623 -179.759C-11.5442 -175.501 -25.4377 -169.881 -39.1231 -162.988ZM11.5698 122.628C6.44491 125.21 0.557607 127.356 -6.37083 128.659C-44.4297 135.991 -70.0738 136.727 -73.2975 130.58C-76.3926 124.877 -74.7414 121.625 -72.0062 116.236C-67.3779 107.119 -59.6317 91.8587 -66.6186 48.8809C-68.6569 35.3273 -76.2875 19.3145 -84.366 2.36145C-95.8663 -21.7718 -108.901 -49.1255 -108.878 -75.9318C-108.852 -106.737 -91.5179 -131.879 -55.8855 -152.793C-36.762 -164.081 -17.0621 -172.868 2.66625 -178.909C21.3688 -184.635 40.2694 -187.952 58.843 -188.767C93.6535 -190.294 127.492 -182.967 156.7 -167.579C176.892 -156.941 194.263 -142.919 208.329 -125.902C222.474 -108.792 232.541 -89.5373 238.251 -68.6734C243.859 -48.0151 241.154 -26.9203 230.209 -5.97637C222.12 9.50303 205.269 32.8071 170.929 55.9224C148.847 70.7858 123.994 82.1463 106.07 85.5706C88.5203 88.928 78.6275 90.017 71.4041 90.8124C60.84 91.9755 56.882 92.4174 44.4683 98.7092C40.5111 100.71 36.7257 103.988 32.3427 107.783C26.7249 112.647 20.2415 118.26 11.5698 122.628Z" fill="url(#paint1_linear_38_86)"/>
</mask>
<g mask="url(#mask1_38_86)">
<path d="M-39.1231 -162.988C-44.9014 -160.077 -50.6405 -156.941 -56.3309 -153.582C-92.2014 -132.527 -109.652 -107.165 -109.678 -76.0461C-109.701 -49.0125 -96.6129 -21.5459 -85.0648 2.68749C-77.0208 19.5679 -69.4231 35.5119 -67.4067 48.9193C-60.4676 91.6036 -68.1356 106.71 -72.7171 115.735C-75.4859 121.19 -77.3154 124.793 -73.9746 130.949C-72.1381 134.451 -64.5967 135.984 -51.564 135.496C-39.8394 135.058 -24.1313 132.993 -6.13768 129.527C12.6893 125.988 23.8874 116.292 32.8855 108.501C37.2352 104.734 40.9919 101.482 44.877 99.5176L44.8773 99.5175C57.1831 93.2668 60.8165 92.8738 71.5842 91.6883C78.8189 90.8918 88.7272 89.8009 106.304 86.4384C124.311 82.9988 149.257 71.5995 171.408 56.6897C184.077 48.1619 195.445 38.8207 205.197 28.9254C216.139 17.823 224.792 6.25169 230.916 -5.46697C241.964 -26.6084 244.689 -47.9245 239.016 -68.8228C233.265 -89.833 223.129 -109.22 208.889 -126.447C194.738 -143.564 177.269 -157.668 156.967 -168.364C127.63 -183.82 93.6529 -191.179 58.7087 -189.646C40.0771 -188.829 21.1192 -185.502 2.3623 -179.759C-11.5442 -175.501 -25.4377 -169.881 -39.1231 -162.988ZM11.5698 122.628C6.44491 125.21 0.557607 127.356 -6.37083 128.659C-44.4297 135.991 -70.0738 136.727 -73.2975 130.58C-76.3926 124.877 -74.7414 121.625 -72.0062 116.236C-67.3779 107.119 -59.6317 91.8587 -66.6186 48.8809C-68.6569 35.3273 -76.2875 19.3145 -84.366 2.36145C-95.8663 -21.7718 -108.901 -49.1255 -108.878 -75.9318C-108.852 -106.737 -91.5179 -131.879 -55.8855 -152.793C-36.762 -164.081 -17.0621 -172.868 2.66625 -178.909C21.3688 -184.635 40.2694 -187.952 58.843 -188.767C93.6535 -190.294 127.492 -182.967 156.7 -167.579C176.892 -156.941 194.263 -142.919 208.329 -125.902C222.474 -108.792 232.541 -89.5373 238.251 -68.6734C243.859 -48.0151 241.154 -26.9203 230.209 -5.97637C222.12 9.50303 205.269 32.8071 170.929 55.9224C148.847 70.7858 123.994 82.1463 106.07 85.5706C88.5203 88.928 78.6275 90.017 71.4041 90.8124C60.84 91.9755 56.882 92.4174 44.4683 98.7092C40.5111 100.71 36.7257 103.988 32.3427 107.783C26.7249 112.647 20.2415 118.26 11.5698 122.628Z" fill="#004BBB"/>
</g>
<mask id="mask2_38_86" style="mask-type:alpha" maskUnits="userSpaceOnUse" x="-91" y="-174" width="318" height="297">
<path d="M-27.4042 -149.266C-31.865 -147.019 -36.3077 -144.62 -40.7422 -142.064C-73.0167 -123.693 -89.2391 -101.465 -90.335 -74.1087C-91.2901 -50.2709 -80.6318 -25.7325 -71.2281 -4.08251C-64.3581 11.7339 -57.8693 26.6731 -56.6168 39.4131C-51.8351 77.9426 -59.0801 92.593 -63.4089 101.346C-66.1637 106.917 -67.9837 110.597 -64.812 116.625C-60.705 124.969 -30.2494 124.014 -3.69289 119.591C13.5547 116.901 23.9931 108.662 32.381 102.042C36.1849 99.0402 39.4698 96.4474 42.8725 94.7044L42.8733 94.704C56.8087 87.5154 59.7602 86.9848 76.1375 84.0203C82.3042 82.9041 89.979 81.5149 100.819 79.3187C111.904 77.0792 126.032 71.6049 140.599 63.903C156.991 55.2365 172.492 44.5061 185.426 32.8721C200.733 19.1034 211.977 4.59173 218.846 -10.26C226.847 -27.561 228.678 -44.9818 224.289 -62.0388C219.264 -81.2017 210.247 -98.9259 197.486 -114.721C184.8 -130.425 169.082 -143.4 150.769 -153.288C124.546 -167.445 94.116 -174.378 62.7679 -173.336C32.607 -172.334 2.33356 -164.245 -27.4042 -149.266ZM14.9474 112.767C9.67812 115.422 3.52664 117.619 -3.89323 118.776C-35.5213 124.043 -60.8698 123 -64.1697 116.297C-67.1262 110.678 -65.4754 107.339 -62.7404 101.809C-58.3725 92.9758 -51.0617 78.1927 -55.8739 39.4187C-57.1399 26.5408 -63.6585 11.533 -70.5601 -4.35574C-79.9225 -25.9106 -90.5339 -50.3411 -89.5873 -73.967C-88.5026 -101.042 -72.391 -123.075 -40.3321 -141.322C-6.41843 -160.872 28.3069 -171.364 62.8867 -172.513C94.1087 -173.551 124.409 -166.65 150.512 -152.557C168.721 -142.726 184.347 -129.828 196.956 -114.22C209.628 -98.5347 218.583 -80.935 223.571 -61.9101C227.907 -45.0603 226.09 -27.8318 218.169 -10.7054C211.34 4.06105 200.15 18.4993 184.909 32.2081C172.013 43.8084 156.555 54.5088 140.207 63.1518C125.69 70.8246 111.623 76.2798 100.593 78.508C89.7602 80.7029 82.089 82.0915 75.9251 83.2072C59.4701 86.1861 56.5073 86.7239 42.4868 93.9497C39.031 95.7204 35.724 98.3302 31.8952 101.352C27.1812 105.073 21.8138 109.308 14.9474 112.767Z" fill="url(#paint2_linear_38_86)"/>
</mask>
<g mask="url(#mask2_38_86)">
<path d="M-27.4042 -149.266C-31.865 -147.019 -36.3077 -144.62 -40.7422 -142.064C-73.0167 -123.693 -89.2391 -101.465 -90.335 -74.1087C-91.2901 -50.2709 -80.6318 -25.7325 -71.2281 -4.08251C-64.3581 11.7339 -57.8693 26.6731 -56.6168 39.4131C-51.8351 77.9426 -59.0801 92.593 -63.4089 101.346C-66.1637 106.917 -67.9837 110.597 -64.812 116.625C-60.705 124.969 -30.2494 124.014 -3.69289 119.591C13.5547 116.901 23.9931 108.662 32.381 102.042C36.1849 99.0402 39.4698 96.4474 42.8725 94.7044L42.8733 94.704C56.8087 87.5154 59.7602 86.9848 76.1375 84.0203C82.3042 82.9041 89.979 81.5149 100.819 79.3187C111.904 77.0792 126.032 71.6049 140.599 63.903C156.991 55.2365 172.492 44.5061 185.426 32.8721C200.733 19.1034 211.977 4.59173 218.846 -10.26C226.847 -27.561 228.678 -44.9818 224.289 -62.0388C219.264 -81.2017 210.247 -98.9259 197.486 -114.721C184.8 -130.425 169.082 -143.4 150.769 -153.288C124.546 -167.445 94.116 -174.378 62.7679 -173.336C32.607 -172.334 2.33356 -164.245 -27.4042 -149.266ZM14.9474 112.767C9.67812 115.422 3.52664 117.619 -3.89323 118.776C-35.5213 124.043 -60.8698 123 -64.1697 116.297C-67.1262 110.678 -65.4754 107.339 -62.7404 101.809C-58.3725 92.9758 -51.0617 78.1927 -55.8739 39.4187C-57.1399 26.5408 -63.6585 11.533 -70.5601 -4.35574C-79.9225 -25.9106 -90.5339 -50.3411 -89.5873 -73.967C-88.5026 -101.042 -72.391 -123.075 -40.3321 -141.322C-6.41843 -160.872 28.3069 -171.364 62.8867 -172.513C94.1087 -173.551 124.409 -166.65 150.512 -152.557C168.721 -142.726 184.347 -129.828 196.956 -114.22C209.628 -98.5347 218.583 -80.935 223.571 -61.9101C227.907 -45.0603 226.09 -27.8318 218.169 -10.7054C211.34 4.06105 200.15 18.4993 184.909 32.2081C172.013 43.8084 156.555 54.5088 140.207 63.1518C125.69 70.8246 111.623 76.2798 100.593 78.508C89.7602 80.7029 82.089 82.0915 75.9251 83.2072C59.4701 86.1861 56.5073 86.7239 42.4868 93.9497C39.031 95.7204 35.724 98.3302 31.8952 101.352C27.1812 105.073 21.8138 109.308 14.9474 112.767Z" fill="#004BBB"/>
</g>
<mask id="mask3_38_86" style="mask-type:alpha" maskUnits="userSpaceOnUse" x="-72" y="-158" width="284" height="270">
<path d="M-15.9411 -135.443C-19.0178 -133.893 -22.0878 -132.261 -25.1528 -130.547C-53.8602 -114.831 -68.8375 -95.7034 -70.9379 -72.0714C-72.7746 -51.4027 -64.8598 -30.7217 -57.2059 -10.7215C-51.5824 3.97265 -46.2709 17.852 -45.825 29.9065C-43.1435 64.2393 -49.7124 77.8454 -54.0593 86.8489C-56.9275 92.7898 -58.6585 96.3757 -55.6485 102.302C-52.0905 110.013 -28.1918 113.25 -1.24858 109.655C14.612 107.827 24.375 100.967 32.22 95.4548C35.2211 93.346 38.0555 91.3543 40.8687 89.891L40.8696 89.8905L42.2909 89.1435C58.6341 80.5491 59.9685 79.8484 95.3345 72.1985C105.275 70.058 118.469 64.8983 131.532 58.052C146.556 50.1738 160.779 40.4941 172.664 30.0592C186.786 17.6606 197.233 4.6159 203.715 -8.71198C211.276 -24.2595 213.244 -39.9185 209.563 -55.2542C205.267 -72.5738 197.369 -88.6394 186.087 -103.008C174.864 -117.302 160.896 -129.155 144.569 -138.236C121.458 -151.091 94.5737 -157.592 66.8221 -157.037C39.2209 -156.486 11.424 -149.227 -15.9411 -135.443ZM18.9096 102.847C13.3912 105.626 6.81413 107.945 -1.41371 108.893C-27.6231 112.39 -51.6784 109.303 -55.0424 102.013C-57.8661 96.4536 -56.1979 92.9983 -53.4342 87.2737C-49.3195 78.7508 -42.4327 64.486 -45.1298 29.9571C-45.5799 17.7748 -50.9176 3.8279 -56.5684 -10.9382C-64.1864 -30.8438 -72.0635 -51.4271 -70.2439 -71.9005C-68.1656 -95.286 -53.2937 -114.242 -24.7783 -129.852C5.46582 -146.77 36.3181 -155.659 66.9245 -156.271C94.5584 -156.823 121.322 -150.353 144.322 -137.56C160.551 -128.533 174.434 -116.754 185.586 -102.552C196.786 -88.286 204.627 -72.3368 208.891 -55.1474C212.525 -40.0066 210.574 -24.5257 203.091 -9.13861C196.647 4.11292 186.249 17.0915 172.188 29.4363C160.337 39.8414 146.153 49.4943 131.168 57.3516C118.151 64.1783 105.009 69.3152 95.1175 71.4452C59.6739 79.112 58.3322 79.8163 41.9272 88.4435L40.5071 89.1899C37.6603 90.6707 34.8106 92.6731 31.7934 94.7932C28.0802 97.4022 23.9338 100.316 18.9096 102.847Z" fill="url(#paint3_linear_38_86)"/>
</mask>
<g mask="url(#mask3_38_86)">
<path d="M-15.9411 -135.443C-19.0178 -133.893 -22.0878 -132.261 -25.1528 -130.547C-53.8602 -114.831 -68.8375 -95.7034 -70.9379 -72.0714C-72.7746 -51.4027 -64.8598 -30.7217 -57.2059 -10.7215C-51.5824 3.97265 -46.2709 17.852 -45.825 29.9065C-43.1435 64.2393 -49.7124 77.8454 -54.0593 86.8489C-56.9275 92.7898 -58.6585 96.3757 -55.6485 102.302C-52.0905 110.013 -28.1918 113.25 -1.24858 109.655C14.612 107.827 24.375 100.967 32.22 95.4548C35.2211 93.346 38.0555 91.3543 40.8687 89.891L40.8696 89.8905L42.2909 89.1435C58.6341 80.5491 59.9685 79.8484 95.3345 72.1985C105.275 70.058 118.469 64.8983 131.532 58.052C146.556 50.1738 160.779 40.4941 172.664 30.0592C186.786 17.6606 197.233 4.6159 203.715 -8.71198C211.276 -24.2595 213.244 -39.9185 209.563 -55.2542C205.267 -72.5738 197.369 -88.6394 186.087 -103.008C174.864 -117.302 160.896 -129.155 144.569 -138.236C121.458 -151.091 94.5737 -157.592 66.8221 -157.037C39.2209 -156.486 11.424 -149.227 -15.9411 -135.443ZM18.9096 102.847C13.3912 105.626 6.81413 107.945 -1.41371 108.893C-27.6231 112.39 -51.6784 109.303 -55.0424 102.013C-57.8661 96.4536 -56.1979 92.9983 -53.4342 87.2737C-49.3195 78.7508 -42.4327 64.486 -45.1298 29.9571C-45.5799 17.7748 -50.9176 3.8279 -56.5684 -10.9382C-64.1864 -30.8438 -72.0635 -51.4271 -70.2439 -71.9005C-68.1656 -95.286 -53.2937 -114.242 -24.7783 -129.852C5.46582 -146.77 36.3181 -155.659 66.9245 -156.271C94.5584 -156.823 121.322 -150.353 144.322 -137.56C160.551 -128.533 174.434 -116.754 185.586 -102.552C196.786 -88.286 204.627 -72.3368 208.891 -55.1474C212.525 -40.0066 210.574 -24.5257 203.091 -9.13861C196.647 4.11292 186.249 17.0915 172.188 29.4363C160.337 39.8414 146.153 49.4943 131.168 57.3516C118.151 64.1783 105.009 69.3152 95.1175 71.4452C59.6739 79.112 58.3322 79.8163 41.9272 88.4435L40.5071 89.1899C37.6603 90.6707 34.8106 92.6731 31.7934 94.7932C28.0802 97.4022 23.9338 100.316 18.9096 102.847Z" fill="#004BBB"/>
</g>
<mask id="mask4_38_86" style="mask-type:alpha" maskUnits="userSpaceOnUse" x="-53" y="-141" width="250" height="242">
<path d="M-4.5214 -121.655C-6.20449 -120.807 -7.88427 -119.933 -9.56422 -119.029C-65.9928 -89.6809 -53.7545 -51.1633 -42.9573 -17.18C-38.6702 -3.68669 -34.621 9.05809 -35.0318 20.3993C-34.3677 50.473 -40.5534 63.5417 -44.6465 72.1895C-47.5768 78.3801 -49.3456 82.117 -46.486 87.9792C-44.8483 91.7717 -38.9435 95.2601 -30.2935 97.5315C-21.1086 99.9435 -9.92633 100.72 1.19364 99.7187C16.1105 98.7982 25.0014 93.3749 32.8461 88.59C34.9273 87.3206 36.8932 86.1215 38.8639 85.0779L38.8654 85.0771C41.8239 83.4891 44.3679 82.0391 46.6125 80.76C56.9794 74.8511 63.2365 71.2854 89.8496 65.0783C106.832 61.1418 135.998 47.6236 159.902 27.2466C172.84 16.2174 182.49 4.64014 188.583 -7.1636C195.704 -20.9579 197.808 -34.8549 194.836 -48.4689C191.271 -63.9504 184.494 -78.3633 174.692 -91.3117C164.932 -104.204 152.711 -114.939 138.368 -123.218C118.364 -134.765 95.0232 -140.829 70.8676 -140.754C45.828 -140.677 20.4911 -134.254 -4.5214 -121.655ZM23.8371 92.8969C17.8809 95.8972 10.7526 98.4129 1.06734 99.0106C-22.8238 101.162 -42.8667 94.7909 -45.9174 87.7271C-48.6166 82.1929 -46.9036 78.574 -44.0659 72.5785C-39.9455 63.8735 -33.7191 50.7184 -34.3871 20.4963C-33.9711 9.03983 -38.0416 -3.77096 -42.3508 -17.334C-47.8193 -34.5457 -53.474 -52.3428 -50.844 -69.7015C-47.8522 -89.4492 -34.239 -105.372 -9.22612 -118.381C17.3432 -132.674 44.3196 -139.962 70.9527 -140.044C94.9987 -140.118 118.228 -134.086 138.128 -122.599C152.382 -114.371 164.524 -103.706 174.218 -90.9009C183.947 -78.049 190.674 -63.7445 194.211 -48.3852C198.025 -30.9137 195.094 -3.70647 159.467 26.6646C135.631 46.9838 106.562 60.4604 89.6402 64.3829C62.9507 70.6078 56.6679 74.1883 46.26 80.1203C44.0183 81.3979 41.4779 82.8457 38.5258 84.4303C36.5407 85.4816 34.5682 86.6848 32.4798 87.9586C29.7906 89.599 26.9764 91.3155 23.8371 92.8969Z" fill="url(#paint4_linear_38_86)"/>
</mask>
<g mask="url(#mask4_38_86)">
<path d="M-4.5214 -121.655C-6.20449 -120.807 -7.88427 -119.933 -9.56422 -119.029C-65.9928 -89.6812 -53.7545 -51.1636 -42.9573 -17.1803C-38.6702 -3.68693 -34.621 9.05785 -35.0318 20.3991C-34.3677 50.4728 -40.5534 63.5414 -44.6465 72.1893C-47.5768 78.3799 -49.3456 82.1167 -46.486 87.9789C-44.8483 91.7715 -38.9435 95.2598 -30.2935 97.5313C-21.1086 99.9432 -9.92633 100.72 1.19364 99.7185C16.1105 98.7979 25.0014 93.3747 32.8461 88.5897C34.9273 87.3203 36.8932 86.1213 38.8639 85.0776L38.8654 85.0769C41.8239 83.4889 44.3679 82.0389 46.6125 80.7597C56.9794 74.8509 63.2365 71.2852 89.8496 65.0781C106.832 61.1415 135.998 47.6234 159.902 27.2464C172.84 16.2172 182.49 4.6399 188.583 -7.16385C195.704 -20.9581 197.808 -34.8551 194.836 -48.4691C191.271 -63.9506 184.494 -78.3635 174.692 -91.3119C164.932 -104.204 152.711 -114.939 138.368 -123.218C118.364 -134.765 95.0232 -140.829 70.8676 -140.754C45.828 -140.677 20.4911 -134.254 -4.5214 -121.655ZM23.8371 92.8966C17.8809 95.8969 10.7526 98.4126 1.06734 99.0103C-22.8238 101.162 -42.8667 94.7907 -45.9174 87.7269C-48.6166 82.1927 -46.9036 78.5738 -44.0659 72.5783C-39.9455 63.8733 -33.7191 50.7182 -34.3871 20.4961C-33.9711 9.03959 -38.0416 -3.7712 -42.3508 -17.3343C-47.8193 -34.5459 -53.474 -52.3431 -50.844 -69.7018C-47.8522 -89.4494 -34.239 -105.372 -9.22612 -118.381C17.3432 -132.674 44.3196 -139.962 70.9527 -140.045C94.9987 -140.119 118.228 -134.086 138.128 -122.599C152.382 -114.371 164.524 -103.706 174.218 -90.9011C183.947 -78.0492 190.674 -63.7447 194.211 -48.3854C198.025 -30.9139 195.094 -3.70671 159.467 26.6644C135.631 46.9836 106.562 60.4601 89.6402 64.3826C62.9507 70.6075 56.6679 74.188 46.26 80.12C44.0183 81.3977 41.4779 82.8455 38.5258 84.4301C36.5407 85.4813 34.5682 86.6846 32.4798 87.9584C29.7906 89.5988 26.9764 91.3153 23.8371 92.8966Z" fill="#004BBB"/>
</g>
<mask id="mask5_38_86" style="mask-type:alpha" maskUnits="userSpaceOnUse" x="-39" y="-125" width="220" height="215">
<path d="M4.19283 -106.606C-16.3875 -96.2387 -28.2227 -83.4518 -31.9599 -67.5625C-35.3594 -53.1097 -31.8364 -37.9943 -28.4298 -23.3767C-25.5909 -11.1958 -22.9093 0.309551 -24.2349 10.8926C-25.4586 36.6066 -31.2744 49.0417 -35.1231 57.2703C-38.1936 63.8359 -40.0471 67.7988 -37.321 73.6561C-34.0548 81.754 -15.8407 90.383 3.63478 89.7819C18.9883 89.9627 27.594 85.2932 35.9168 80.7761L36.8625 80.2633C40.8614 78.0624 44.0776 75.9555 47.1881 73.9179C55.5258 68.4559 63.4014 63.2971 84.367 57.9576C99.6532 54.0944 125.818 41.956 147.141 24.4338C165.112 9.66555 185.42 -13.7929 180.111 -41.6827C174.457 -68.971 156.982 -93.2327 132.168 -108.253C115.266 -118.483 95.4654 -124.099 74.9048 -124.495C52.4263 -124.929 29.5278 -119.352 6.83306 -107.92C6.56387 -107.785 6.29609 -107.649 6.02704 -107.512C5.40801 -107.212 4.79672 -106.91 4.19283 -106.606ZM30.5677 82.8474C23.6561 86.3289 15.7467 89.2725 3.55299 89.129C-17.267 89.7714 -33.974 80.4239 -36.7913 73.4396C-39.3808 67.8745 -37.5765 64.0169 -34.5875 57.6257C-30.7185 49.3535 -24.8719 36.8524 -23.6442 11.0361C-22.3054 0.354537 -25.0012 -11.213 -27.8554 -23.4597C-31.2434 -37.996 -34.7464 -53.0272 -31.3837 -67.3249C-27.5781 -83.5059 -15.2447 -96.4464 6.32701 -106.911C6.59393 -107.047 6.86427 -107.184 7.13106 -107.318C29.7591 -118.717 52.575 -124.274 74.9711 -123.842C95.4302 -123.448 115.128 -117.863 131.936 -107.69C144.219 -100.255 154.623 -90.6954 162.86 -79.2768C171.118 -67.8292 176.727 -55.1607 179.532 -41.6239C184.78 -14.0545 164.6 9.2219 146.748 23.8926C125.482 41.3675 99.4 53.4701 84.1646 57.3201C63.1191 62.6798 55.2105 67.8609 46.8381 73.3453C43.7352 75.3778 40.5269 77.4795 36.5446 79.6714L35.6012 80.1828C33.9518 81.078 32.2905 81.9796 30.5677 82.8474Z" fill="url(#paint5_linear_38_86)"/>
</mask>
<g mask="url(#mask5_38_86)">
<path d="M4.19234 -106.606C-16.388 -96.2387 -28.2232 -83.4518 -31.9604 -67.5625C-35.3599 -53.1097 -31.8368 -37.9943 -28.4303 -23.3767C-25.5913 -11.1958 -22.9098 0.309551 -24.2354 10.8926C-25.459 36.6066 -31.2749 49.0417 -35.1236 57.2703C-38.1941 63.8359 -40.0476 67.7988 -37.3215 73.6561C-34.0553 81.754 -15.8412 90.383 3.63429 89.7819C18.9878 89.9627 27.5935 85.2932 35.9163 80.7761L36.862 80.2633C40.861 78.0624 44.0772 75.9555 47.1876 73.9179C55.5253 68.4559 63.4009 63.2971 84.3665 57.9576C99.6527 54.0944 125.817 41.956 147.14 24.4338C165.111 9.66555 185.42 -13.7929 180.111 -41.6827C174.456 -68.971 156.982 -93.2327 132.167 -108.253C115.266 -118.483 95.4649 -124.099 74.9043 -124.495C52.4258 -124.929 29.5273 -119.352 6.83257 -107.92C6.56338 -107.785 6.2956 -107.649 6.02655 -107.512C5.40752 -107.212 4.79623 -106.91 4.19234 -106.606ZM30.5672 82.8474C23.6557 86.3289 15.7462 89.2725 3.55251 89.129C-17.2675 89.7714 -33.9745 80.4239 -36.7918 73.4396C-39.3813 67.8745 -37.577 64.0169 -34.588 57.6257C-30.719 49.3535 -24.8724 36.8524 -23.6447 11.0361C-22.3059 0.354537 -25.0017 -11.213 -27.8559 -23.4597C-31.2439 -37.996 -34.7469 -53.0272 -31.3842 -67.3249C-27.5786 -83.5059 -15.2452 -96.4464 6.32653 -106.911C6.59344 -107.047 6.86378 -107.184 7.13057 -107.318C29.7586 -118.717 52.5745 -124.274 74.9706 -123.842C95.4297 -123.448 115.128 -117.863 131.935 -107.69C144.218 -100.255 154.623 -90.6954 162.859 -79.2768C171.117 -67.8292 176.726 -55.1607 179.531 -41.6239C184.779 -14.0545 164.6 9.2219 146.747 23.8926C125.482 41.3675 99.3995 53.4701 84.1641 57.3201C63.1187 62.6798 55.21 67.8609 46.8376 73.3453C43.7347 75.3778 40.5264 77.4795 36.5441 79.6714L35.6007 80.1828C33.9513 81.078 32.29 81.9796 30.5672 82.8474Z" fill="#004BBB"/>
</g>
<mask id="mask6_38_86" style="mask-type:alpha" maskUnits="userSpaceOnUse" x="-30" y="-109" width="196" height="190">
<path d="M16.0539 -93.3859C1.00099 -85.8039 -8.32924 -76.4719 -12.394 -64.9735C-16.4406 -53.5265 -14.988 -41.142 -13.5831 -29.1655C-12.383 -18.9334 -11.1416 -8.35275 -13.4376 1.3871C-16.3315 22.5682 -21.7862 34.2006 -25.3955 41.898C-28.7534 49.0589 -30.7802 53.3812 -28.1587 59.3331C-25.2464 67.0799 -10.4584 78.9375 6.069 79.8435C18.1154 81.2772 26.7279 79.9628 34.8556 75.4505L34.8572 75.4495C39.1525 73.0144 42.6055 70.3823 46.2612 67.5957C53.9875 61.7069 61.9767 55.6168 78.8817 50.8368C92.5442 47.0098 115.738 36.2348 134.377 21.6209C150.528 8.95692 169.018 -11.128 165.383 -34.8952C161.208 -58.6031 146.843 -79.9131 125.969 -93.3684C112.161 -102.269 95.8936 -107.424 78.9259 -108.276C60.1575 -109.219 40.8759 -105.087 21.6165 -95.9949C19.6832 -95.1497 17.8275 -94.2793 16.0539 -93.3859ZM33.105 75.6832C25.4867 79.5208 17.277 80.5862 6.04169 79.2494C-10.2657 78.355 -24.8121 66.7483 -27.6687 59.1502C-30.1754 53.4584 -28.304 49.4676 -24.9069 42.2231C-21.2832 34.4954 -15.807 22.8172 -12.9065 1.57665C-10.5911 -8.24032 -11.8389 -18.8782 -13.0456 -29.1657C-14.442 -41.0701 -15.8859 -53.3802 -11.8852 -64.6974C-7.38967 -77.4144 3.65357 -87.4673 21.8765 -95.4395C41.0735 -104.501 60.281 -108.619 78.9713 -107.681C95.846 -106.833 112.019 -101.71 125.742 -92.8636C146.457 -79.5112 160.711 -58.3712 164.85 -34.8642C168.441 -11.385 150.07 8.54059 134.026 21.1203C115.435 35.6963 92.3072 46.4419 78.6858 50.2578C61.6982 55.0607 53.6748 61.1764 45.9154 67.0915C42.2721 69.8685 38.8308 72.4916 34.5619 74.9119C34.0783 75.1805 33.5927 75.4376 33.105 75.6832Z" fill="url(#paint6_linear_38_86)"/>
</mask>
<g mask="url(#mask6_38_86)">
<path d="M16.0539 -93.3859C1.00099 -85.8039 -8.32924 -76.4719 -12.394 -64.9735C-16.4406 -53.5265 -14.988 -41.142 -13.5831 -29.1655C-12.383 -18.9334 -11.1416 -8.35275 -13.4376 1.3871C-16.3315 22.5682 -21.7862 34.2006 -25.3955 41.898C-28.7534 49.0589 -30.7802 53.3812 -28.1587 59.3331C-25.2464 67.0799 -10.4584 78.9375 6.069 79.8435C18.1154 81.2772 26.7279 79.9628 34.8556 75.4505L34.8572 75.4495C39.1525 73.0144 42.6055 70.3823 46.2612 67.5957C53.9875 61.7069 61.9767 55.6168 78.8817 50.8368C92.5442 47.0098 115.738 36.2348 134.377 21.6209C150.528 8.95692 169.018 -11.128 165.383 -34.8952C161.208 -58.6031 146.843 -79.9131 125.969 -93.3684C112.161 -102.269 95.8936 -107.424 78.9259 -108.276C60.1575 -109.219 40.8759 -105.087 21.6165 -95.9949C19.6832 -95.1497 17.8275 -94.2793 16.0539 -93.3859ZM33.105 75.6832C25.4867 79.5208 17.277 80.5862 6.04169 79.2494C-10.2657 78.355 -24.8121 66.7483 -27.6687 59.1502C-30.1754 53.4584 -28.304 49.4676 -24.9069 42.2231C-21.2832 34.4954 -15.807 22.8172 -12.9065 1.57665C-10.5911 -8.24032 -11.8389 -18.8782 -13.0456 -29.1657C-14.442 -41.0701 -15.8859 -53.3802 -11.8852 -64.6974C-7.38967 -77.4144 3.65357 -87.4673 21.8765 -95.4395C41.0735 -104.501 60.281 -108.619 78.9713 -107.681C95.846 -106.833 112.019 -101.71 125.742 -92.8636C146.457 -79.5112 160.711 -58.3712 164.85 -34.8642C168.441 -11.385 150.07 8.54059 134.026 21.1203C115.435 35.6963 92.3072 46.4419 78.6858 50.2578C61.6982 55.0607 53.6748 61.1764 45.9154 67.0915C42.2721 69.8685 38.8308 72.4916 34.5619 74.9119C34.0783 75.1805 33.5927 75.4376 33.105 75.6832Z" fill="#004BBB"/>
</g>
<mask id="mask7_38_86" style="mask-type:alpha" maskUnits="userSpaceOnUse" x="-21" y="-93" width="172" height="166">
<path d="M27.5679 -80.3233C3.3166 -68.1079 2.45686 -51.6052 1.55133 -34.2407C1.1045 -25.6771 0.642812 -16.8217 -2.63539 -8.11485C-6.78576 8.19972 -11.6537 18.2693 -15.2079 25.6217C-19.3079 34.1028 -21.5661 38.7747 -18.9946 45.0111C-17.4977 49.2933 -13.6808 54.8538 -9.03918 59.5056C-3.42901 65.1283 2.79882 68.8207 8.49717 69.9027C18.1349 72.6984 26.0614 74.5311 32.8516 70.6375L32.8534 70.6364C37.1126 68.1343 40.8161 64.8641 44.7371 61.4022C51.8145 55.1533 59.8364 48.0711 73.3986 43.7161C82.8036 40.7292 103.543 32.1209 121.613 18.8088C131.014 11.8828 138.272 4.70802 143.186 -2.51652C148.99 -11.051 151.503 -19.6603 150.656 -28.1049C147.997 -48.2793 136.748 -66.6887 119.792 -78.6219C109.06 -86.1745 96.3142 -90.8445 82.9327 -92.1271C68.1346 -93.5456 52.7509 -90.9721 37.2088 -84.4783C33.6416 -83.1575 30.4402 -81.7702 27.5679 -80.3233ZM31.8236 70.5606C25.3413 73.826 17.737 72.0431 8.54092 69.3767C-4.48727 66.9018 -16.0138 52.1013 -18.5458 44.8599C-21.0212 38.8559 -18.8002 34.2614 -14.7683 25.9208C-11.2049 18.5497 -6.32471 8.45459 -2.17013 -7.88247C1.12783 -16.638 1.59197 -25.5361 2.04096 -34.1412C2.55259 -43.9521 3.03588 -53.219 7.56838 -61.6912C12.676 -71.2386 22.1633 -78.3165 37.4251 -83.9676C52.9112 -90.4378 68.2267 -93.0012 82.9533 -91.5896C96.25 -90.3152 108.911 -85.6778 119.567 -78.1781C136.381 -66.3452 147.535 -48.0943 150.17 -28.1057C151.003 -19.8021 148.517 -11.3097 142.779 -2.87388C137.893 4.31042 130.669 11.4505 121.306 18.3485C103.278 31.6291 82.5901 40.2162 73.2077 43.1964C59.5649 47.5765 51.5086 54.6892 44.4013 60.9648C40.4959 64.4131 36.8065 67.6705 32.5811 70.1529C32.3304 70.2965 32.0777 70.4326 31.8236 70.5606Z" fill="url(#paint7_linear_38_86)"/>
</mask>
<g mask="url(#mask7_38_86)">
<path d="M27.5682 -80.3233C3.31684 -68.1079 2.4571 -51.6052 1.55158 -34.2407C1.10474 -25.6771 0.643057 -16.8217 -2.63515 -8.11485C-6.78552 8.19972 -11.6534 18.2693 -15.2076 25.6217C-19.3077 34.1028 -21.5659 38.7747 -18.9943 45.0111C-17.4974 49.2933 -13.6806 54.8538 -9.03894 59.5056C-3.42876 65.1283 2.79906 68.8207 8.49742 69.9027C18.1352 72.6984 26.0617 74.5311 32.8518 70.6375L32.8536 70.6364C37.1128 68.1343 40.8164 64.8641 44.7374 61.4022C51.8147 55.1533 59.8367 48.0711 73.3989 43.7161C82.8038 40.7292 103.544 32.1209 121.614 18.8088C131.015 11.8828 138.272 4.70802 143.186 -2.51652C148.99 -11.051 151.504 -19.6603 150.656 -28.1049C147.997 -48.2793 136.748 -66.6887 119.792 -78.6219C109.06 -86.1745 96.3145 -90.8445 82.9329 -92.1271C68.1349 -93.5456 52.7512 -90.9721 37.2091 -84.4783C33.6418 -83.1575 30.4404 -81.7702 27.5682 -80.3233ZM31.8239 70.5606C25.3415 73.826 17.7372 72.0431 8.54116 69.3767C-4.48703 66.9018 -16.0136 52.1013 -18.5455 44.8599C-21.021 38.8559 -18.8 34.2614 -14.768 25.9208C-11.2047 18.5497 -6.32446 8.45459 -2.16989 -7.88247C1.12808 -16.638 1.59221 -25.5361 2.0412 -34.1412C2.55283 -43.9521 3.03612 -53.219 7.56862 -61.6912C12.6763 -71.2386 22.1636 -78.3165 37.4254 -83.9676C52.9115 -90.4378 68.227 -93.0012 82.9536 -91.5896C96.2502 -90.3152 108.911 -85.6778 119.568 -78.1781C136.381 -66.3452 147.535 -48.0943 150.17 -28.1057C151.003 -19.8021 148.517 -11.3097 142.78 -2.87388C137.894 4.31042 130.669 11.4505 121.306 18.3485C103.279 31.6291 82.5903 40.2162 73.208 43.1964C59.5651 47.5765 51.5088 54.6892 44.4015 60.9648C40.4961 64.4131 36.8068 67.6705 32.5814 70.1529C32.3306 70.2965 32.0779 70.4326 31.8239 70.5606Z" fill="#004BBB"/>
</g>
<mask id="mask8_38_86" style="mask-type:alpha" maskUnits="userSpaceOnUse" x="-11" y="-77" width="147" height="144">
<path d="M38.3746 -67.6677C23.7264 -60.29 20.3995 -50.0479 16.4093 -37.7695C14.326 -31.3601 12.1723 -24.7325 8.16981 -17.6119C3.71328 -6.93694 -0.394325 0.843754 -3.69506 7.09587C-9.35791 17.8227 -12.4774 23.7315 -9.82982 30.689C-7.25279 38.6388 1.75865 55.9611 10.8965 59.9444C11.5017 60.3109 12.1076 60.6835 12.7133 61.0558C19.0422 64.9464 25.5883 68.9673 30.8478 65.8238L30.8493 65.8227C34.9173 63.3272 38.8417 59.3451 42.9965 55.1293C49.7193 48.3078 57.3382 40.5763 67.9163 36.5944C79.3862 32.3272 136.572 9.48047 135.928 -21.3112C134.862 -38.0346 126.753 -53.6387 113.681 -64.1339C105.881 -70.3959 96.8802 -74.428 86.9274 -76.1187C76.0812 -77.9611 64.6006 -76.8994 52.8049 -72.9621C47.0309 -71.4138 42.296 -69.643 38.3746 -67.6677ZM30.1176 65.6588C25.1333 68.1696 18.9116 64.3446 12.8878 60.6414C12.2764 60.2657 11.6649 59.8896 11.0541 59.5197L11.0252 59.5046C2.03483 55.6002 -6.86655 38.453 -9.42324 30.5673C-11.99 23.8216 -8.90629 17.9805 -3.30822 7.37687C-0.00374177 1.11727 4.10899 -6.67289 8.56192 -17.3436C12.5743 -24.4789 14.735 -31.1273 16.8248 -37.5571C21.846 -53.0079 25.813 -65.2122 52.9697 -72.4955C64.7166 -76.4159 76.1343 -77.4733 86.9163 -75.6418C96.7917 -73.9642 105.72 -69.9656 113.453 -63.7567C126.402 -53.3607 134.434 -37.9045 135.49 -21.3512C135.746 -9.08303 126.695 3.3449 108.586 15.5761C92.6471 26.3425 74.7036 33.5403 67.7285 36.1351C57.0771 40.1459 49.4267 47.9074 42.6773 54.7556C38.5387 58.955 34.6296 62.9216 30.5997 65.3937C30.4406 65.4888 30.2796 65.5772 30.1176 65.6588Z" fill="url(#paint8_linear_38_86)"/>
</mask>
<g mask="url(#mask8_38_86)">
<path d="M38.3748 -67.6674C23.7266 -60.2897 20.3997 -50.0476 16.4096 -37.7693C14.3262 -31.3599 12.1725 -24.7323 8.17005 -17.6117C3.71353 -6.9367 -0.394081 0.843998 -3.69482 7.09611C-9.35767 17.8229 -12.4772 23.7318 -9.82957 30.6892C-7.25254 38.6391 1.7589 55.9614 10.8967 59.9446C11.5019 60.3112 12.1079 60.6838 12.7136 61.0561C19.0424 64.9466 25.5886 68.9675 30.848 65.8241L30.8496 65.8229C34.9176 63.3274 38.8419 59.3454 42.9968 55.1295C49.7195 48.308 57.3385 40.5766 67.9165 36.5946C79.3864 32.3275 136.572 9.48071 135.929 -21.311C134.862 -38.0343 126.753 -53.6384 113.681 -64.1337C105.882 -70.3956 96.8805 -74.4278 86.9277 -76.1185C76.0814 -77.9609 64.6008 -76.8991 52.8051 -72.9619C47.0311 -71.4135 42.2962 -69.6428 38.3748 -67.6674ZM30.1178 65.659C25.1335 68.1698 18.9118 64.3448 12.8881 60.6417C12.2767 60.2659 11.6651 59.8898 11.0543 59.5199L11.0255 59.5048C2.03508 55.6005 -6.8663 38.4533 -9.42299 30.5676C-11.9897 23.8218 -8.90605 17.9808 -3.30797 7.37711C-0.00349763 1.11752 4.10923 -6.67265 8.56216 -17.3433C12.5746 -24.4786 14.7352 -31.127 16.825 -37.5569C21.8463 -53.0077 25.8133 -65.212 52.9699 -72.4953C64.7169 -76.4156 76.1345 -77.473 86.9166 -75.6416C96.792 -73.9639 105.72 -69.9654 113.454 -63.7565C126.402 -53.3605 134.434 -37.9043 135.49 -21.351C135.746 -9.08278 126.695 3.34515 108.587 15.5764C92.6473 26.3427 74.7038 33.5405 67.7288 36.1354C57.0774 40.1461 49.4269 47.9077 42.6775 54.7558C38.5389 58.9552 34.6298 62.9218 30.5999 65.3939C30.4408 65.489 30.2799 65.5774 30.1178 65.659Z" fill="#004BBB"/>
</g>
<mask id="mask9_38_86" style="mask-type:alpha" maskUnits="userSpaceOnUse" x="-2" y="-63" width="124" height="125">
<path d="M46.9574 -56.0664C38.2969 -51.7038 33.0002 -44.9202 25.678 -35.5426C23.5972 -32.8774 21.4455 -30.1216 18.9753 -27.1014C17.3533 -24.6382 15.8282 -22.3401 14.3921 -20.1766C1.8963 -1.34992 -3.80684 7.2428 -0.666459 16.368C1.4011 23.2655 7.69888 44.2736 13.2932 49.9527C18.1148 56.6334 24.2422 63.9132 28.8424 61.0101L28.8439 61.009C32.6543 58.5413 36.8469 53.6871 41.2856 48.5479C47.5458 41.2999 54.6407 33.0873 62.4342 29.4717C63.9203 28.7907 65.7145 28.0066 67.7918 27.0987C76.3025 23.3788 89.1636 17.7577 100.087 10.7105C113.156 2.27905 120.258 -6.2068 121.196 -14.511C121.91 -27.7331 116.911 -41.0646 107.823 -50.1859C97.7468 -60.2996 83.7486 -64.2985 68.4069 -61.4465C59.0749 -60.5677 52.3613 -58.7885 46.9574 -56.0664ZM28.2705 60.8309C23.9465 63.009 18.1646 56.0637 13.5731 49.7L13.548 49.6704C8.03896 44.1006 1.75986 23.1564 -0.3032 16.2738C-3.37273 7.35398 2.29557 -1.18619 14.7151 -19.8977C16.1513 -22.0617 17.6768 -24.3601 19.2883 -26.8093C21.7504 -29.818 23.9033 -32.5753 25.9853 -35.2418C37.8206 -50.3993 44.3399 -58.7484 68.5035 -61.0242C83.7353 -63.8553 97.609 -59.8998 107.583 -49.8885C116.572 -40.8668 121.516 -27.6761 120.811 -14.6034C119.887 -6.43179 112.838 1.96313 99.8603 10.3359C88.9582 17.3689 76.1116 22.9843 67.6104 26.6998C65.5316 27.6085 63.7365 28.393 62.2468 29.0755C54.3879 32.7216 47.2707 40.9615 40.9891 48.2342C36.5668 53.3545 32.3893 58.191 28.6182 60.634C28.5035 60.7063 28.3874 60.772 28.2705 60.8309Z" fill="url(#paint9_linear_38_86)"/>
</mask>
<g mask="url(#mask9_38_86)">
<path d="M46.9579 -56.0664C38.2974 -51.7038 33.0007 -44.9202 25.6785 -35.5426C23.5977 -32.8774 21.446 -30.1216 18.9758 -27.1014C17.3538 -24.6382 15.8287 -22.3401 14.3926 -20.1766C1.89679 -1.34992 -3.80635 7.2428 -0.665971 16.368C1.40159 23.2655 7.69936 44.2736 13.2937 49.9527C18.1152 56.6334 24.2427 63.9132 28.8429 61.0101L28.8444 61.009C32.6547 58.5413 36.8474 53.6871 41.2861 48.5479C47.5463 41.2999 54.6412 33.0873 62.4347 29.4717C63.9208 28.7907 65.715 28.0066 67.7923 27.0987C76.303 23.3788 89.1641 17.7577 100.087 10.7105C113.156 2.27905 120.259 -6.2068 121.197 -14.511C121.911 -27.7331 116.911 -41.0646 107.824 -50.1859C97.7473 -60.2996 83.7491 -64.2985 68.4073 -61.4465C59.0754 -60.5677 52.3618 -58.7885 46.9579 -56.0664ZM28.271 60.8309C23.947 63.009 18.1651 56.0637 13.5735 49.7L13.5485 49.6704C8.03945 44.1006 1.76035 23.1564 -0.302712 16.2738C-3.37224 7.35398 2.29606 -1.18619 14.7156 -19.8977C16.1517 -22.0617 17.6773 -24.3601 19.2888 -26.8093C21.7509 -29.818 23.9038 -32.5753 25.9858 -35.2418C37.8211 -50.3993 44.3404 -58.7484 68.504 -61.0242C83.7358 -63.8553 97.6095 -59.8998 107.584 -49.8885C116.572 -40.8668 121.517 -27.6761 120.811 -14.6034C119.888 -6.43179 112.839 1.96313 99.8608 10.3359C88.9587 17.3689 76.1121 22.9843 67.6109 26.6998C65.5321 27.6085 63.737 28.393 62.2473 29.0755C54.3884 32.7216 47.2712 40.9615 40.9896 48.2342C36.5673 53.3545 32.3898 58.191 28.6187 60.634C28.504 60.7063 28.3879 60.772 28.271 60.8309Z" fill="#004BBB"/>
</g>
<mask id="mask10_38_86" style="mask-type:alpha" maskUnits="userSpaceOnUse" x="7" y="-53" width="102" height="110">
<path d="M45.2189 -47.0066C40.182 -44.4694 35.0658 -41.01 29.7837 -36.5818C11.847 -19.485 5.48403 -7.93428 8.50054 2.04726C9.77981 6.68023 11.3803 15.9926 12.7922 24.209C13.9103 30.7148 14.9662 36.8598 15.7278 39.9353C16.1475 42.6653 17.3291 46.1827 18.8852 49.3248C20.5895 52.7663 22.4392 55.1846 24.0939 56.1343C25.1153 56.7208 26.0393 56.7403 26.8406 56.1956L26.8415 56.1949C30.4051 53.7201 35.0448 47.6152 39.9571 41.1518C45.794 33.4719 51.8295 25.5307 56.9574 22.3456C59.7538 20.6258 64.5251 18.596 70.05 16.2454C83.7635 10.4114 102.547 2.42101 106.458 -7.70076C109.522 -17.6573 108.255 -29.0303 103.156 -37.3928C98.8714 -44.4189 92.2597 -48.7527 84.0358 -49.9259C73.9729 -52.6389 65.5473 -53.1157 57.5392 -51.4217C53.4547 -50.5578 49.3636 -49.0944 45.2189 -47.0066ZM26.3983 56.0165C25.7533 56.3413 25.0213 56.2729 24.2175 55.8115C20.8426 53.8744 16.9082 45.4441 16.0547 39.9013C15.293 36.8222 14.2382 30.6846 13.1217 24.1868C11.7081 15.9605 10.1058 6.63672 8.81931 1.97822C5.84899 -7.85044 12.1882 -19.2918 30.0146 -36.2838C39.6003 -44.3194 48.6394 -49.1545 57.6428 -51.0589C65.6032 -52.7429 73.9836 -52.2675 84.0159 -49.5637C92.1477 -48.4026 98.6657 -44.1341 102.884 -37.2159C107.922 -28.9548 109.171 -17.71 106.142 -7.86965C102.282 2.12143 83.5635 10.0839 69.8952 15.8988C64.3601 18.2536 59.5801 20.2864 56.7654 22.0181C51.5932 25.2308 45.5414 33.1936 39.6887 40.8943C34.7905 47.339 30.1641 53.4263 26.6374 55.8753C26.5592 55.9286 26.4794 55.9756 26.3983 56.0165Z" fill="url(#paint10_linear_38_86)"/>
</mask>
<g mask="url(#mask10_38_86)">
<path d="M45.2189 -47.0066C40.182 -44.4694 35.0658 -41.01 29.7837 -36.5818C11.847 -19.485 5.48403 -7.93428 8.50054 2.04726C9.77981 6.68023 11.3803 15.9926 12.7922 24.209C13.9103 30.7148 14.9662 36.8598 15.7278 39.9353C16.1475 42.6653 17.3291 46.1827 18.8852 49.3248C20.5895 52.7663 22.4392 55.1846 24.0939 56.1343C25.1153 56.7208 26.0393 56.7403 26.8406 56.1956L26.8415 56.1949C30.4051 53.7201 35.0448 47.6152 39.9571 41.1518C45.794 33.4719 51.8295 25.5307 56.9574 22.3456C59.7538 20.6258 64.5251 18.596 70.05 16.2454C83.7635 10.4114 102.547 2.42101 106.458 -7.70076C109.522 -17.6573 108.255 -29.0303 103.156 -37.3928C98.8714 -44.4189 92.2597 -48.7527 84.0358 -49.9259C73.9729 -52.6389 65.5473 -53.1157 57.5392 -51.4217C53.4547 -50.5578 49.3636 -49.0944 45.2189 -47.0066ZM26.3983 56.0165C25.7533 56.3413 25.0213 56.2729 24.2175 55.8115C20.8426 53.8744 16.9082 45.4441 16.0547 39.9013C15.293 36.8222 14.2382 30.6846 13.1217 24.1868C11.7081 15.9605 10.1058 6.63672 8.81931 1.97822C5.84899 -7.85044 12.1882 -19.2918 30.0146 -36.2838C39.6003 -44.3194 48.6394 -49.1545 57.6428 -51.0589C65.6032 -52.7429 73.9836 -52.2675 84.0159 -49.5637C92.1477 -48.4026 98.6657 -44.1341 102.884 -37.2159C107.922 -28.9548 109.171 -17.71 106.142 -7.86965C102.282 2.12143 83.5635 10.0839 69.8952 15.8988C64.3601 18.2536 59.5801 20.2864 56.7654 22.0181C51.5932 25.2308 45.5414 33.1936 39.6887 40.8943C34.7905 47.339 30.1641 53.4263 26.6374 55.8753C26.5592 55.9286 26.4794 55.9756 26.3983 56.0165Z" fill="#004BBB"/>
</g>
<mask id="mask11_38_86" style="mask-type:alpha" maskUnits="userSpaceOnUse" x="17" y="-53" width="87" height="105">
<path d="M42.4605 -47.0455C41.8294 -46.7276 41.2052 -46.3967 40.5868 -46.0525C30.5229 -40.4488 23.5851 -34.3072 19.9663 -27.7984C17.1254 -22.6884 16.3516 -17.4644 17.6671 -12.2721C19.8207 -3.77008 20.147 21.4806 18.2122 29.9438C17.4912 33.0976 17.7565 37.5836 18.9405 42.2513C20.0117 46.4748 21.6378 49.9718 23.0833 51.1609C23.7263 51.6897 24.3339 51.7645 24.8372 51.3811C28.3621 48.6935 34.3806 39.6437 40.2011 30.8919C44.7142 24.1058 48.9771 17.6958 51.4829 15.2127C54.3245 12.3961 62.0565 10.0912 70.2421 7.65125C78.6743 5.13773 87.3945 2.53871 91.6913 -0.887023C96.1864 -4.47054 100.145 -10.867 102.022 -17.5804C104.216 -25.4263 103.397 -32.7954 99.7179 -38.3299C95.4122 -44.8062 86.4258 -49.8334 75.6793 -51.7775C64.3114 -53.8344 52.5996 -52.1525 42.4605 -47.0455ZM24.4907 51.2212C24.1196 51.4081 23.7065 51.3084 23.2336 50.9194C20.4326 48.6156 16.9019 36.9934 18.4882 30.0558C20.43 21.5615 20.1019 -3.78379 17.9398 -12.3186C16.6462 -17.4255 17.4114 -22.5707 20.214 -27.6115C23.8097 -34.0787 30.7156 -40.1881 40.7399 -45.7698C51.2431 -51.619 63.6506 -53.6438 75.6691 -51.4696C86.1749 -49.5689 95.305 -44.4719 99.4963 -38.1676C103.116 -32.7228 103.916 -25.4563 101.749 -17.7062C99.8872 -11.0451 95.962 -4.70036 91.506 -1.14795C87.2444 2.24902 78.5471 4.84191 70.1359 7.34886C61.9215 9.79766 54.1627 12.1099 51.2781 14.9689C48.7549 17.4697 44.4849 23.89 39.9645 30.6873C34.1555 39.4219 28.1487 48.454 24.6562 51.117C24.6019 51.1582 24.5468 51.193 24.4907 51.2212Z" fill="url(#paint11_linear_38_86)"/>
</mask>
<g mask="url(#mask11_38_86)">
<path d="M42.4605 -47.0455C41.8294 -46.7276 41.2052 -46.3967 40.5868 -46.0525C30.5229 -40.4488 23.5851 -34.3072 19.9663 -27.7984C17.1254 -22.6884 16.3516 -17.4644 17.6671 -12.2721C19.8207 -3.77008 20.147 21.4806 18.2122 29.9438C17.4912 33.0976 17.7565 37.5836 18.9405 42.2513C20.0117 46.4748 21.6378 49.9718 23.0833 51.1609C23.7263 51.6897 24.3339 51.7645 24.8372 51.3811C28.3621 48.6935 34.3806 39.6437 40.2011 30.8919C44.7142 24.1058 48.9771 17.6958 51.4829 15.2127C54.3245 12.3961 62.0565 10.0912 70.2421 7.65125C78.6743 5.13773 87.3945 2.53871 91.6913 -0.887023C96.1864 -4.47054 100.145 -10.867 102.022 -17.5804C104.216 -25.4263 103.397 -32.7954 99.7179 -38.3299C95.4122 -44.8062 86.4258 -49.8334 75.6793 -51.7775C64.3114 -53.8344 52.5996 -52.1525 42.4605 -47.0455ZM24.4907 51.2212C24.1196 51.4081 23.7065 51.3084 23.2336 50.9194C20.4326 48.6156 16.9019 36.9934 18.4882 30.0558C20.43 21.5615 20.1019 -3.78379 17.9398 -12.3186C16.6462 -17.4255 17.4114 -22.5707 20.214 -27.6115C23.8097 -34.0787 30.7156 -40.1881 40.7399 -45.7698C51.2431 -51.619 63.6506 -53.6438 75.6691 -51.4696C86.1749 -49.5689 95.305 -44.4719 99.4963 -38.1676C103.116 -32.7228 103.916 -25.4563 101.749 -17.7062C99.8872 -11.0451 95.962 -4.70036 91.506 -1.14795C87.2444 2.24902 78.5471 4.84191 70.1359 7.34886C61.9215 9.79766 54.1627 12.1099 51.2781 14.9689C48.7549 17.4697 44.4849 23.89 39.9645 30.6873C34.1555 39.4219 28.1487 48.454 24.6562 51.117C24.6019 51.1582 24.5468 51.193 24.4907 51.2212Z" fill="#004BBB"/>
</g>
</g>
<defs>
<linearGradient id="paint0_linear_38_86" x1="-134.082" y1="44.1812" x2="226.052" y2="-137.229" gradientUnits="userSpaceOnUse">
<stop stop-color="white"/>
<stop offset="0.0436152" stop-color="#B4B4B4"/>
<stop offset="0.150732"/>
<stop offset="0.171421" stop-color="#171717"/>
<stop offset="0.385884" stop-color="white"/>
<stop offset="0.632551" stop-color="#E6E6E6"/>
<stop offset="0.856667" stop-color="#1A1A1A"/>
<stop offset="0.998739"/>
</linearGradient>
<linearGradient id="paint1_linear_38_86" x1="-119.156" y1="41.2774" x2="213.448" y2="-126.265" gradientUnits="userSpaceOnUse">
<stop stop-color="white"/>
<stop offset="0.0436152" stop-color="#B4B4B4"/>
<stop offset="0.150732"/>
<stop offset="0.171421" stop-color="#171717"/>
<stop offset="0.385884" stop-color="white"/>
<stop offset="0.632551" stop-color="#E6E6E6"/>
<stop offset="0.856667" stop-color="#1A1A1A"/>
<stop offset="0.998739"/>
</linearGradient>
<linearGradient id="paint2_linear_38_86" x1="-104.239" y1="38.3618" x2="200.854" y2="-115.323" gradientUnits="userSpaceOnUse">
<stop stop-color="white"/>
<stop offset="0.0436152" stop-color="#B4B4B4"/>
<stop offset="0.150732"/>
<stop offset="0.171421" stop-color="#171717"/>
<stop offset="0.385884" stop-color="white"/>
<stop offset="0.632551" stop-color="#E6E6E6"/>
<stop offset="0.856667" stop-color="#1A1A1A"/>
<stop offset="0.998739"/>
</linearGradient>
<linearGradient id="paint3_linear_38_86" x1="-89.3354" y1="35.4341" x2="188.276" y2="-104.407" gradientUnits="userSpaceOnUse">
<stop stop-color="white"/>
<stop offset="0.0436152" stop-color="#B4B4B4"/>
<stop offset="0.150732"/>
<stop offset="0.171421" stop-color="#171717"/>
<stop offset="0.385884" stop-color="white"/>
<stop offset="0.632551" stop-color="#E6E6E6"/>
<stop offset="0.856667" stop-color="#1A1A1A"/>
<stop offset="0.998739"/>
</linearGradient>
<linearGradient id="paint4_linear_38_86" x1="-74.444" y1="32.5023" x2="175.726" y2="-93.516" gradientUnits="userSpaceOnUse">
<stop stop-color="white"/>
<stop offset="0.0436152" stop-color="#B4B4B4"/>
<stop offset="0.150732"/>
<stop offset="0.171421" stop-color="#171717"/>
<stop offset="0.385884" stop-color="white"/>
<stop offset="0.632551" stop-color="#E6E6E6"/>
<stop offset="0.856667" stop-color="#1A1A1A"/>
<stop offset="0.998739"/>
</linearGradient>
<linearGradient id="paint5_linear_38_86" x1="-59.5893" y1="29.5166" x2="163.17" y2="-82.6943" gradientUnits="userSpaceOnUse">
<stop stop-color="white"/>
<stop offset="0.0436152" stop-color="#B4B4B4"/>
<stop offset="0.150732"/>
<stop offset="0.171421" stop-color="#171717"/>
<stop offset="0.385884" stop-color="white"/>
<stop offset="0.632551" stop-color="#E6E6E6"/>
<stop offset="0.856667" stop-color="#1A1A1A"/>
<stop offset="0.998739"/>
</linearGradient>
<linearGradient id="paint6_linear_38_86" x1="-44.802" y1="26.4425" x2="150.685" y2="-72.0301" gradientUnits="userSpaceOnUse">
<stop stop-color="white"/>
<stop offset="0.0436152" stop-color="#B4B4B4"/>
<stop offset="0.150732"/>
<stop offset="0.171421" stop-color="#171717"/>
<stop offset="0.385884" stop-color="white"/>
<stop offset="0.632551" stop-color="#E6E6E6"/>
<stop offset="0.856667" stop-color="#1A1A1A"/>
<stop offset="0.998739"/>
</linearGradient>
<linearGradient id="paint7_linear_38_86" x1="-29.2192" y1="25.1066" x2="139.209" y2="-59.7359" gradientUnits="userSpaceOnUse">
<stop stop-color="white"/>
<stop offset="0.0436152" stop-color="#B4B4B4"/>
<stop offset="0.150732"/>
<stop offset="0.171421" stop-color="#171717"/>
<stop offset="0.385884" stop-color="white"/>
<stop offset="0.632551" stop-color="#E6E6E6"/>
<stop offset="0.856667" stop-color="#1A1A1A"/>
<stop offset="0.998739"/>
</linearGradient>
<linearGradient id="paint8_linear_38_86" x1="-14.0773" y1="23.6158" x2="127.883" y2="-47.8941" gradientUnits="userSpaceOnUse">
<stop stop-color="white"/>
<stop offset="0.0436152" stop-color="#B4B4B4"/>
<stop offset="0.150732"/>
<stop offset="0.171421" stop-color="#171717"/>
<stop offset="0.385884" stop-color="white"/>
<stop offset="0.632551" stop-color="#E6E6E6"/>
<stop offset="0.856667" stop-color="#1A1A1A"/>
<stop offset="0.998739"/>
</linearGradient>
<linearGradient id="paint9_linear_38_86" x1="-1.511" y1="22.3362" x2="116.799" y2="-37.2603" gradientUnits="userSpaceOnUse">
<stop stop-color="white"/>
<stop offset="0.0436152" stop-color="#B4B4B4"/>
<stop offset="0.150732"/>
<stop offset="0.171421" stop-color="#171717"/>
<stop offset="0.385884" stop-color="white"/>
<stop offset="0.632551" stop-color="#E6E6E6"/>
<stop offset="0.856667" stop-color="#1A1A1A"/>
<stop offset="0.998739"/>
</linearGradient>
<linearGradient id="paint10_linear_38_86" x1="4.38735" y1="20.5456" x2="106.533" y2="-30.9084" gradientUnits="userSpaceOnUse">
<stop stop-color="white"/>
<stop offset="0.0436152" stop-color="#B4B4B4"/>
<stop offset="0.150732"/>
<stop offset="0.171421" stop-color="#171717"/>
<stop offset="0.385884" stop-color="white"/>
<stop offset="0.632551" stop-color="#E6E6E6"/>
<stop offset="0.856667" stop-color="#1A1A1A"/>
<stop offset="0.998739"/>
</linearGradient>
<linearGradient id="paint11_linear_38_86" x1="5.10162" y1="16.5603" x2="102.749" y2="-32.6275" gradientUnits="userSpaceOnUse">
<stop stop-color="white"/>
<stop offset="0.0436152" stop-color="#B4B4B4"/>
<stop offset="0.150732"/>
<stop offset="0.171421" stop-color="#171717"/>
<stop offset="0.385884" stop-color="white"/>
<stop offset="0.632551" stop-color="#E6E6E6"/>
<stop offset="0.856667" stop-color="#1A1A1A"/>
<stop offset="0.998739"/>
</linearGradient>
</defs>
</svg>
