<svg width="231" height="254" viewBox="0 0 231 254" fill="none" xmlns="http://www.w3.org/2000/svg">
<g opacity="0.1">
<mask id="mask0_37_621" style="mask-type:alpha" maskUnits="userSpaceOnUse" x="-197" y="73" width="388" height="356">
<path d="M-117.663 103.162C-124.809 106.762 -131.899 110.677 -138.919 114.901C-178.408 138.662 -197.071 167.184 -195.975 202.095C-195.025 232.345 -179.473 262.74 -165.751 289.556C-156.591 307.456 -147.94 324.363 -145.196 338.425C-136.058 385.236 -144.159 400.768 -148.998 410.048C-151.801 415.422 -153.652 418.971 -150.137 425.272C-146.692 431.447 -123.002 429.601 -75.5833 419.463C-55.0747 415.078 -43.0749 403.882 -33.4327 394.885C-28.6024 390.379 -24.4239 386.48 -20.1183 384.331L-20.3342 383.9L-20.1183 384.331C-8.26717 378.407 -4.26976 378.297 4.48865 378.056C11.7922 377.855 22.8295 377.551 44.789 373.559C64.0868 370.051 90.8449 357.87 114.623 341.769C128.152 332.607 140.308 322.542 150.753 311.852C162.445 299.885 171.708 287.394 178.285 274.727C190.469 251.262 193.315 227.598 186.742 204.393C180.267 181.533 169.014 160.48 153.293 141.819C137.678 123.283 118.457 108.05 96.1623 96.5419C63.7099 79.791 26.1851 72.0084 -12.3554 74.0361C-32.9013 75.1169 -53.7831 78.9669 -74.4209 85.4785C-88.9219 90.0538 -103.398 95.9769 -117.663 103.162ZM-58.4762 412.459C-63.5168 414.998 -69.2376 417.129 -75.8472 418.542C-97.4135 423.153 -113.768 425.989 -125.845 427.213C-143.266 428.979 -148.284 426.908 -149.427 424.861C-152.663 419.06 -151.094 416.051 -148.246 410.59C-143.351 401.205 -135.159 385.498 -144.363 338.344C-147.138 324.129 -155.825 307.153 -165.021 289.181C-178.689 262.469 -194.182 232.192 -195.124 202.184C-196.209 167.618 -177.668 139.341 -138.439 115.737C-117.454 103.109 -95.8039 93.233 -74.0917 86.3822C-53.5114 79.8886 -32.6901 76.0498 -12.2059 74.9719C26.1925 72.9518 63.57 80.701 95.8859 97.3815C118.063 108.828 137.179 123.977 152.704 142.407C168.321 160.945 179.501 181.857 185.932 204.563C192.431 227.51 189.605 250.935 177.532 274.187C170.99 286.786 161.771 299.215 150.131 311.128C139.72 321.784 127.601 331.819 114.112 340.953C90.41 357.003 63.754 369.142 44.5467 372.633C22.6421 376.616 11.6389 376.919 4.35781 377.119C-4.51089 377.363 -8.55871 377.475 -20.5502 383.469C-20.5704 383.479 -20.5914 383.489 -20.6117 383.5C-24.9934 385.707 -29.1827 389.616 -34.0305 394.139C-40.4929 400.168 -48.0218 407.193 -58.4762 412.459Z" fill="url(#paint0_linear_37_621)"/>
</mask>
<g mask="url(#mask0_37_621)">
<path d="M-117.663 103.162C-124.809 106.762 -131.899 110.677 -138.919 114.901C-178.408 138.662 -197.071 167.184 -195.975 202.095C-195.025 232.345 -179.473 262.74 -165.751 289.556C-156.591 307.456 -147.94 324.363 -145.196 338.425C-136.058 385.236 -144.159 400.768 -148.998 410.048C-151.801 415.422 -153.652 418.971 -150.137 425.272C-146.692 431.447 -123.002 429.601 -75.5833 419.463C-55.0747 415.078 -43.0749 403.882 -33.4327 394.885C-28.6024 390.379 -24.4239 386.48 -20.1183 384.331L-20.3342 383.9L-20.1183 384.331C-8.26717 378.407 -4.26976 378.297 4.48865 378.056C11.7922 377.855 22.8295 377.551 44.789 373.559C64.0868 370.051 90.8449 357.87 114.623 341.769C128.152 332.607 140.308 322.542 150.753 311.852C162.445 299.885 171.708 287.394 178.285 274.727C190.469 251.262 193.315 227.598 186.742 204.393C180.267 181.533 169.014 160.48 153.293 141.819C137.678 123.283 118.457 108.05 96.1623 96.5419C63.7099 79.791 26.1851 72.0084 -12.3554 74.0361C-32.9013 75.1169 -53.7831 78.9669 -74.4209 85.4785C-88.9219 90.0538 -103.398 95.9769 -117.663 103.162ZM-58.4762 412.459C-63.5168 414.998 -69.2376 417.129 -75.8472 418.542C-97.4135 423.153 -113.768 425.989 -125.845 427.213C-143.266 428.979 -148.284 426.908 -149.427 424.861C-152.663 419.06 -151.094 416.051 -148.246 410.59C-143.351 401.205 -135.159 385.498 -144.363 338.344C-147.138 324.129 -155.825 307.153 -165.021 289.181C-178.689 262.469 -194.182 232.192 -195.124 202.184C-196.209 167.618 -177.668 139.341 -138.439 115.737C-117.454 103.109 -95.8039 93.233 -74.0917 86.3822C-53.5114 79.8886 -32.6901 76.0498 -12.2059 74.9719C26.1925 72.9518 63.57 80.701 95.8859 97.3815C118.063 108.828 137.179 123.977 152.704 142.407C168.321 160.945 179.501 181.857 185.932 204.563C192.431 227.51 189.605 250.935 177.532 274.187C170.99 286.786 161.771 299.215 150.131 311.128C139.72 321.784 127.601 331.819 114.112 340.953C90.41 357.003 63.754 369.142 44.5467 372.633C22.6421 376.616 11.6389 376.919 4.35781 377.119C-4.51089 377.363 -8.55871 377.475 -20.5502 383.469C-20.5704 383.479 -20.5914 383.489 -20.6117 383.5C-24.9934 385.707 -29.1827 389.616 -34.0305 394.139C-40.4929 400.168 -48.0218 407.193 -58.4762 412.459Z" fill="#004BBB"/>
</g>
<mask id="mask1_37_621" style="mask-type:alpha" maskUnits="userSpaceOnUse" x="-177" y="90" width="352" height="326">
<path d="M-106.123 117.012C-111.901 119.923 -117.64 123.059 -123.331 126.418C-159.201 147.473 -176.652 172.835 -176.678 203.954C-176.701 230.987 -163.613 258.454 -152.065 282.687C-144.021 299.568 -136.423 315.512 -134.406 328.919C-127.467 371.604 -135.135 386.71 -139.717 395.735C-142.486 401.19 -144.315 404.793 -140.974 410.949C-139.138 414.451 -131.596 415.984 -118.564 415.496C-106.839 415.058 -91.1311 412.993 -73.1374 409.527C-54.3105 405.988 -43.1123 396.292 -34.1143 388.501C-29.7645 384.734 -26.0078 381.482 -22.1227 379.518L-22.1225 379.517C-9.81669 373.267 -6.18321 372.874 4.58446 371.688C11.8192 370.892 21.7274 369.801 39.3041 366.438C57.3108 362.999 82.2573 351.6 104.408 336.69C117.077 328.162 128.445 318.821 138.197 308.925C149.139 297.823 157.792 286.252 163.916 274.533C174.964 253.392 177.689 232.076 172.016 211.177C166.265 190.167 156.129 170.78 141.889 153.553C127.739 136.436 110.269 122.332 89.9668 111.636C60.6302 96.1801 26.6531 88.8207 -8.29104 90.3537C-26.9227 91.171 -45.8805 94.4975 -64.6375 100.241C-78.544 104.499 -92.4375 110.119 -106.123 117.012ZM-55.43 402.628C-60.5548 405.21 -66.4421 407.356 -73.3706 408.659C-111.429 415.991 -137.074 416.727 -140.297 410.58C-143.392 404.877 -141.741 401.625 -139.006 396.236C-134.378 387.119 -126.631 371.859 -133.618 328.881C-135.657 315.327 -143.287 299.315 -151.366 282.361C-162.866 258.228 -175.901 230.875 -175.878 204.068C-175.851 173.263 -158.518 148.121 -122.885 127.207C-103.762 115.919 -84.0619 107.132 -64.3335 101.091C-45.6309 95.3647 -26.7304 92.048 -8.1567 91.2332C26.6537 89.706 60.4919 97.0327 89.7006 112.421C109.892 123.059 127.263 137.081 141.33 154.098C155.474 171.208 165.541 190.463 171.251 211.327C176.86 231.985 174.154 253.08 163.209 274.024C155.12 289.503 138.27 312.807 103.929 335.922C81.8477 350.786 56.9947 362.146 39.0706 365.571C21.5205 368.928 11.6277 370.017 4.40436 370.812C-6.15977 371.976 -10.1177 372.417 -22.5315 378.709C-26.4887 380.71 -30.2741 383.988 -34.657 387.783C-40.2749 392.647 -46.7582 398.26 -55.43 402.628Z" fill="url(#paint1_linear_37_621)"/>
</mask>
<g mask="url(#mask1_37_621)">
<path d="M-106.123 117.012C-111.901 119.923 -117.64 123.059 -123.331 126.418C-159.201 147.473 -176.652 172.835 -176.678 203.954C-176.701 230.987 -163.613 258.454 -152.065 282.687C-144.021 299.568 -136.423 315.512 -134.406 328.919C-127.467 371.604 -135.135 386.71 -139.717 395.735C-142.486 401.19 -144.315 404.793 -140.974 410.949C-139.138 414.451 -131.596 415.984 -118.564 415.496C-106.839 415.058 -91.1311 412.993 -73.1374 409.527C-54.3105 405.988 -43.1123 396.292 -34.1143 388.501C-29.7645 384.734 -26.0078 381.482 -22.1227 379.518L-22.1225 379.517C-9.81669 373.267 -6.18321 372.874 4.58446 371.688C11.8192 370.892 21.7274 369.801 39.3041 366.438C57.3108 362.999 82.2573 351.6 104.408 336.69C117.077 328.162 128.445 318.821 138.197 308.925C149.139 297.823 157.792 286.252 163.916 274.533C174.964 253.392 177.689 232.076 172.016 211.177C166.265 190.167 156.129 170.78 141.889 153.553C127.739 136.436 110.269 122.332 89.9668 111.636C60.6302 96.1801 26.6531 88.8207 -8.29104 90.3537C-26.9227 91.171 -45.8805 94.4975 -64.6375 100.241C-78.544 104.499 -92.4375 110.119 -106.123 117.012ZM-55.43 402.628C-60.5548 405.21 -66.4421 407.356 -73.3706 408.659C-111.429 415.991 -137.074 416.727 -140.297 410.58C-143.392 404.877 -141.741 401.625 -139.006 396.236C-134.378 387.119 -126.631 371.859 -133.618 328.881C-135.657 315.327 -143.287 299.315 -151.366 282.361C-162.866 258.228 -175.901 230.875 -175.878 204.068C-175.851 173.263 -158.518 148.121 -122.885 127.207C-103.762 115.919 -84.0619 107.132 -64.3335 101.091C-45.6309 95.3647 -26.7304 92.048 -8.1567 91.2332C26.6537 89.706 60.4919 97.0327 89.7006 112.421C109.892 123.059 127.263 137.081 141.33 154.098C155.474 171.208 165.541 190.463 171.251 211.327C176.86 231.985 174.154 253.08 163.209 274.024C155.12 289.503 138.27 312.807 103.929 335.922C81.8477 350.786 56.9947 362.146 39.0706 365.571C21.5205 368.928 11.6277 370.017 4.40436 370.812C-6.15977 371.976 -10.1177 372.417 -22.5315 378.709C-26.4887 380.71 -30.2741 383.988 -34.657 387.783C-40.2749 392.647 -46.7582 398.26 -55.43 402.628Z" fill="#004BBB"/>
</g>
<mask id="mask2_37_621" style="mask-type:alpha" maskUnits="userSpaceOnUse" x="-158" y="106" width="318" height="297">
<path d="M-94.4039 130.734C-98.8647 132.981 -103.307 135.38 -107.742 137.936C-140.016 156.307 -156.239 178.536 -157.335 205.891C-158.29 229.729 -147.632 254.268 -138.228 275.917C-131.358 291.734 -124.869 306.673 -123.617 319.413C-118.835 357.943 -126.08 372.593 -130.409 381.346C-133.163 386.917 -134.983 390.597 -131.812 396.625C-127.705 404.969 -97.2491 404.014 -70.6927 399.591C-53.4451 396.901 -43.0067 388.662 -34.6187 382.042C-30.8149 379.04 -27.53 376.447 -24.1272 374.704L-24.1265 374.704C-10.1911 367.515 -7.23956 366.985 9.13777 364.02C15.3045 362.904 22.9792 361.515 33.819 359.319C44.9047 357.079 59.0327 351.605 73.5992 343.903C89.9913 335.237 105.492 324.506 118.426 312.872C133.734 299.103 144.978 284.592 151.846 269.74C159.847 252.439 161.678 235.018 157.289 217.961C152.265 198.798 143.247 181.074 130.486 165.279C117.8 149.575 102.082 136.6 83.7689 126.712C57.5461 112.555 27.1162 105.622 -4.23187 106.664C-34.3927 107.666 -64.6662 115.755 -94.4039 130.734ZM-52.0524 392.767C-57.3216 395.422 -63.4731 397.619 -70.893 398.776C-102.521 404.043 -127.87 403 -131.169 396.297C-134.126 390.678 -132.475 387.339 -129.74 381.809C-125.372 372.976 -118.061 358.193 -122.874 319.419C-124.14 306.541 -130.658 291.533 -137.56 275.644C-146.922 254.089 -157.534 229.659 -156.587 206.033C-155.502 178.958 -139.391 156.925 -107.332 138.678C-73.4182 119.128 -38.6928 108.636 -4.11309 107.487C27.109 106.449 57.4093 113.35 83.512 127.443C101.722 137.274 117.347 150.172 129.956 165.78C142.628 181.465 151.583 199.065 156.571 218.09C160.907 234.94 159.09 252.168 151.169 269.295C144.341 284.061 133.15 298.499 117.909 312.208C105.013 323.808 89.555 334.509 73.2073 343.152C58.6902 350.825 44.6232 356.28 33.5937 358.508C22.7605 360.703 15.0893 362.091 8.92536 363.207C-7.52968 366.186 -10.4925 366.724 -24.513 373.95C-27.9688 375.72 -31.2757 378.33 -35.1046 381.352C-39.8186 385.073 -45.1859 389.308 -52.0524 392.767Z" fill="url(#paint2_linear_37_621)"/>
</mask>
<g mask="url(#mask2_37_621)">
<path d="M-94.4039 130.734C-98.8647 132.981 -103.307 135.38 -107.742 137.936C-140.016 156.307 -156.239 178.536 -157.335 205.891C-158.29 229.729 -147.632 254.268 -138.228 275.917C-131.358 291.734 -124.869 306.673 -123.617 319.413C-118.835 357.943 -126.08 372.593 -130.409 381.346C-133.163 386.917 -134.983 390.597 -131.812 396.625C-127.705 404.969 -97.2491 404.014 -70.6927 399.591C-53.4451 396.901 -43.0067 388.662 -34.6187 382.042C-30.8149 379.04 -27.53 376.447 -24.1272 374.704L-24.1265 374.704C-10.1911 367.515 -7.23956 366.985 9.13777 364.02C15.3045 362.904 22.9792 361.515 33.819 359.319C44.9047 357.079 59.0327 351.605 73.5992 343.903C89.9913 335.237 105.492 324.506 118.426 312.872C133.734 299.103 144.978 284.592 151.846 269.74C159.847 252.439 161.678 235.018 157.289 217.961C152.265 198.798 143.247 181.074 130.486 165.279C117.8 149.575 102.082 136.6 83.7689 126.712C57.5461 112.555 27.1162 105.622 -4.23187 106.664C-34.3927 107.666 -64.6662 115.755 -94.4039 130.734ZM-52.0524 392.767C-57.3216 395.422 -63.4731 397.619 -70.893 398.776C-102.521 404.043 -127.87 403 -131.169 396.297C-134.126 390.678 -132.475 387.339 -129.74 381.809C-125.372 372.976 -118.061 358.193 -122.874 319.419C-124.14 306.541 -130.658 291.533 -137.56 275.644C-146.922 254.089 -157.534 229.659 -156.587 206.033C-155.502 178.958 -139.391 156.925 -107.332 138.678C-73.4182 119.128 -38.6928 108.636 -4.11309 107.487C27.109 106.449 57.4093 113.35 83.512 127.443C101.722 137.274 117.347 150.172 129.956 165.78C142.628 181.465 151.583 199.065 156.571 218.09C160.907 234.94 159.09 252.168 151.169 269.295C144.341 284.061 133.15 298.499 117.909 312.208C105.013 323.808 89.555 334.509 73.2073 343.152C58.6902 350.825 44.6232 356.28 33.5937 358.508C22.7605 360.703 15.0893 362.091 8.92536 363.207C-7.52968 366.186 -10.4925 366.724 -24.513 373.95C-27.9688 375.72 -31.2757 378.33 -35.1046 381.352C-39.8186 385.073 -45.1859 389.308 -52.0524 392.767Z" fill="#004BBB"/>
</g>
<mask id="mask3_37_621" style="mask-type:alpha" maskUnits="userSpaceOnUse" x="-139" y="122" width="284" height="270">
<path d="M-82.9408 144.557C-86.0176 146.107 -89.0875 147.739 -92.1525 149.453C-120.86 165.169 -135.837 184.297 -137.938 207.929C-139.774 228.597 -131.86 249.278 -124.206 269.278C-118.582 283.973 -113.271 297.852 -112.825 309.907C-110.143 344.239 -116.712 357.845 -121.059 366.849C-123.927 372.79 -125.658 376.376 -122.648 382.302C-119.09 390.013 -95.1916 393.25 -68.2483 389.655C-52.3878 387.827 -42.6248 380.967 -34.7797 375.455C-31.7787 373.346 -28.9443 371.354 -26.1311 369.891L-26.1301 369.891L-24.7089 369.143C-8.36569 360.549 -7.03121 359.848 28.3348 352.198C38.2752 350.058 51.4692 344.898 64.5318 338.052C79.5558 330.174 93.7794 320.494 105.665 310.059C119.787 297.661 130.234 284.616 136.715 271.288C144.276 255.74 146.244 240.081 142.563 224.746C138.267 207.426 130.369 191.361 119.087 176.992C107.865 162.698 93.896 150.845 77.5696 141.764C54.4585 128.909 27.5739 122.408 -0.177646 122.963C-27.7789 123.514 -55.5757 130.773 -82.9408 144.557ZM-48.0902 382.847C-53.6086 385.626 -60.1856 387.945 -68.4135 388.893C-94.6229 392.39 -118.678 389.303 -122.042 382.013C-124.866 376.454 -123.198 372.998 -120.434 367.274C-116.319 358.751 -109.432 344.486 -112.13 309.957C-112.58 297.775 -117.917 283.828 -123.568 269.062C-131.186 249.156 -139.063 228.573 -137.244 208.1C-135.165 184.714 -120.293 165.758 -91.7781 150.148C-61.5339 133.23 -30.6816 124.341 -0.0752411 123.729C27.5586 123.177 54.3221 129.647 77.3221 142.44C93.5517 151.467 107.435 163.246 118.586 177.448C129.786 191.714 137.628 207.663 141.892 224.853C145.526 239.993 143.574 255.474 136.091 270.861C129.647 284.113 119.25 297.092 105.189 309.436C93.3375 319.841 79.1531 329.494 64.1686 337.352C51.1514 344.178 38.0097 349.315 28.1178 351.445C-7.32582 359.112 -8.66755 359.816 -25.0725 368.443L-26.4926 369.19C-29.3394 370.671 -32.1892 372.673 -35.2063 374.793C-38.9195 377.402 -43.066 380.316 -48.0902 382.847Z" fill="url(#paint3_linear_37_621)"/>
</mask>
<g mask="url(#mask3_37_621)">
<path d="M-82.9408 144.557C-86.0176 146.107 -89.0875 147.739 -92.1525 149.453C-120.86 165.169 -135.837 184.297 -137.938 207.929C-139.774 228.597 -131.86 249.278 -124.206 269.278C-118.582 283.973 -113.271 297.852 -112.825 309.907C-110.143 344.239 -116.712 357.845 -121.059 366.849C-123.927 372.79 -125.658 376.376 -122.648 382.302C-119.09 390.013 -95.1916 393.25 -68.2483 389.655C-52.3878 387.827 -42.6248 380.967 -34.7797 375.455C-31.7787 373.346 -28.9443 371.354 -26.1311 369.891L-26.1301 369.891L-24.7089 369.143C-8.36569 360.549 -7.03121 359.848 28.3348 352.198C38.2752 350.058 51.4692 344.898 64.5318 338.052C79.5558 330.174 93.7794 320.494 105.665 310.059C119.787 297.661 130.234 284.616 136.715 271.288C144.276 255.74 146.244 240.081 142.563 224.746C138.267 207.426 130.369 191.361 119.087 176.992C107.865 162.698 93.896 150.845 77.5696 141.764C54.4585 128.909 27.5739 122.408 -0.177646 122.963C-27.7789 123.514 -55.5757 130.773 -82.9408 144.557ZM-48.0902 382.847C-53.6086 385.626 -60.1856 387.945 -68.4135 388.893C-94.6229 392.39 -118.678 389.303 -122.042 382.013C-124.866 376.454 -123.198 372.998 -120.434 367.274C-116.319 358.751 -109.432 344.486 -112.13 309.957C-112.58 297.775 -117.917 283.828 -123.568 269.062C-131.186 249.156 -139.063 228.573 -137.244 208.1C-135.165 184.714 -120.293 165.758 -91.7781 150.148C-61.5339 133.23 -30.6816 124.341 -0.0752411 123.729C27.5586 123.177 54.3221 129.647 77.3221 142.44C93.5517 151.467 107.435 163.246 118.586 177.448C129.786 191.714 137.628 207.663 141.892 224.853C145.526 239.993 143.574 255.474 136.091 270.861C129.647 284.113 119.25 297.092 105.189 309.436C93.3375 319.841 79.1531 329.494 64.1686 337.352C51.1514 344.178 38.0097 349.315 28.1178 351.445C-7.32582 359.112 -8.66755 359.816 -25.0725 368.443L-26.4926 369.19C-29.3394 370.671 -32.1892 372.673 -35.2063 374.793C-38.9195 377.402 -43.066 380.316 -48.0902 382.847Z" fill="#004BBB"/>
</g>
<mask id="mask4_37_621" style="mask-type:alpha" maskUnits="userSpaceOnUse" x="-120" y="139" width="250" height="242">
<path d="M-71.5212 158.345C-73.2042 159.193 -74.884 160.067 -76.564 160.971C-132.993 190.319 -120.754 228.837 -109.957 262.82C-105.67 276.313 -101.621 289.058 -102.032 300.399C-101.367 330.473 -107.553 343.542 -111.646 352.19C-114.577 358.38 -116.345 362.117 -113.486 367.979C-111.848 371.772 -105.943 375.26 -97.2932 377.532C-88.1084 379.943 -76.9261 380.72 -65.8061 379.719C-50.8892 378.798 -41.9984 373.375 -34.1537 368.59C-32.0724 367.321 -30.1065 366.122 -28.1358 365.078L-28.1344 365.077C-25.1759 363.489 -22.6318 362.039 -20.3873 360.76C-10.0204 354.851 -3.76329 351.285 22.8498 345.078C39.8327 341.142 68.9984 327.624 92.902 307.247C105.84 296.217 115.49 284.64 121.583 272.836C128.705 259.042 130.809 245.145 127.836 231.531C124.271 216.05 117.494 201.637 107.692 188.688C97.9327 175.796 85.7113 165.061 71.3678 156.782C51.3644 145.235 28.0234 139.171 3.86782 139.246C-21.1718 139.323 -46.5087 145.746 -71.5212 158.345ZM-43.1627 372.897C-49.1188 375.897 -56.2472 378.413 -65.9324 379.011C-89.8235 381.162 -109.867 374.791 -112.917 367.727C-115.616 362.193 -113.903 358.574 -111.066 352.579C-106.945 343.874 -100.719 330.718 -101.387 300.496C-100.971 289.04 -105.041 276.229 -109.351 262.666C-114.819 245.454 -120.474 227.657 -117.844 210.298C-114.852 190.551 -101.239 174.628 -76.2259 161.619C-49.6565 147.326 -22.6801 140.038 3.95298 139.956C27.9989 139.882 51.2278 145.914 71.1283 157.401C85.3822 165.629 97.5245 176.294 107.218 189.099C116.948 201.951 123.674 216.256 127.211 231.615C131.025 249.086 128.095 276.294 92.4673 306.665C68.6312 326.984 39.5622 340.46 22.6404 344.383C-4.04902 350.608 -10.3319 354.188 -20.7398 360.12C-22.9815 361.398 -25.5218 362.846 -28.474 364.43C-30.459 365.482 -32.4316 366.685 -34.5199 367.959C-37.2092 369.599 -40.0234 371.316 -43.1627 372.897Z" fill="url(#paint4_linear_37_621)"/>
</mask>
<g mask="url(#mask4_37_621)">
<path d="M-71.5212 158.345C-73.2042 159.193 -74.884 160.067 -76.564 160.971C-132.993 190.319 -120.754 228.836 -109.957 262.82C-105.67 276.313 -101.621 289.058 -102.032 300.399C-101.367 330.473 -107.553 343.541 -111.646 352.189C-114.577 358.38 -116.345 362.117 -113.486 367.979C-111.848 371.771 -105.943 375.26 -97.2932 377.531C-88.1084 379.943 -76.9261 380.72 -65.8061 379.718C-50.8892 378.798 -41.9984 373.375 -34.1537 368.59C-32.0724 367.32 -30.1065 366.121 -28.1358 365.078L-28.1344 365.077C-25.1759 363.489 -22.6318 362.039 -20.3873 360.76C-10.0204 354.851 -3.76329 351.285 22.8498 345.078C39.8327 341.142 68.9984 327.623 92.902 307.246C105.84 296.217 115.49 284.64 121.583 272.836C128.705 259.042 130.809 245.145 127.836 231.531C124.271 216.049 117.494 201.637 107.692 188.688C97.9327 175.796 85.7113 165.061 71.3678 156.782C51.3644 145.235 28.0234 139.171 3.86782 139.246C-21.1718 139.323 -46.5087 145.746 -71.5212 158.345ZM-43.1627 372.897C-49.1188 375.897 -56.2472 378.413 -65.9324 379.01C-89.8235 381.162 -109.867 374.791 -112.917 367.727C-115.616 362.193 -113.903 358.574 -111.066 352.578C-106.945 343.873 -100.719 330.718 -101.387 300.496C-100.971 289.04 -105.041 276.229 -109.351 262.666C-114.819 245.454 -120.474 227.657 -117.844 210.298C-114.852 190.551 -101.239 174.628 -76.2259 161.619C-49.6565 147.326 -22.6801 140.038 3.95298 139.955C27.9989 139.881 51.2278 145.914 71.1283 157.401C85.3822 165.629 97.5245 176.294 107.218 189.099C116.948 201.951 123.674 216.255 127.211 231.615C131.025 249.086 128.095 276.293 92.4673 306.664C68.6312 326.984 39.5622 340.46 22.6404 344.383C-4.04902 350.608 -10.3319 354.188 -20.7398 360.12C-22.9815 361.398 -25.5218 362.845 -28.474 364.43C-30.459 365.481 -32.4316 366.685 -34.5199 367.958C-37.2092 369.599 -40.0234 371.315 -43.1627 372.897Z" fill="#004BBB"/>
</g>
<mask id="mask5_37_621" style="mask-type:alpha" maskUnits="userSpaceOnUse" x="-106" y="155" width="220" height="215">
<path d="M-62.8069 173.394C-83.3872 183.761 -95.2224 196.548 -98.9597 212.437C-102.359 226.89 -98.8361 242.006 -95.4296 256.623C-92.5906 268.804 -89.9091 280.31 -91.2347 290.893C-92.4583 316.607 -98.2741 329.042 -102.123 337.27C-105.193 343.836 -107.047 347.799 -104.321 353.656C-101.055 361.754 -82.8404 370.383 -63.365 369.782C-48.0115 369.963 -39.4057 365.293 -31.0829 360.776L-30.1372 360.263C-26.1383 358.062 -22.9221 355.955 -19.8116 353.918C-11.474 348.456 -3.59833 343.297 17.3672 337.958C32.6535 334.094 58.8179 321.956 80.1408 304.434C98.1122 289.666 118.42 266.207 113.111 238.317C107.457 211.029 89.9825 186.767 65.1678 171.747C48.2666 161.517 28.4656 155.901 7.90507 155.505C-14.5734 155.071 -37.472 160.648 -60.1667 172.08C-60.4359 172.215 -60.7037 172.351 -60.9727 172.488C-61.5917 172.788 -62.203 173.09 -62.8069 173.394ZM-36.4321 362.847C-43.3436 366.329 -51.2531 369.273 -63.4468 369.129C-84.2668 369.771 -100.974 360.424 -103.791 353.44C-106.381 347.874 -104.576 344.017 -101.587 337.626C-97.7183 329.354 -91.8716 316.852 -90.644 291.036C-89.3052 280.355 -92.001 268.787 -94.8551 256.54C-98.2432 242.004 -101.746 226.973 -98.3835 212.675C-94.5778 196.494 -82.2444 183.554 -60.6727 173.089C-60.4058 172.953 -60.1355 172.816 -59.8687 172.682C-37.2407 161.283 -14.4248 155.726 7.97138 156.158C28.4304 156.552 48.1284 162.137 64.9357 172.31C77.2188 179.745 87.6234 189.305 95.8599 200.723C104.118 212.171 109.727 224.839 112.532 238.376C117.78 265.946 97.6007 289.222 79.7479 303.893C58.4826 321.367 32.4003 333.47 17.1648 337.32C-3.8806 342.68 -11.7892 347.861 -20.1617 353.345C-23.2645 355.378 -26.4729 357.479 -30.4551 359.671L-31.3985 360.183C-33.0479 361.078 -34.7093 361.98 -36.4321 362.847Z" fill="url(#paint5_linear_37_621)"/>
</mask>
<g mask="url(#mask5_37_621)">
<path d="M-62.8074 173.394C-83.3877 183.761 -95.2229 196.548 -98.9602 212.437C-102.36 226.89 -98.8366 242.006 -95.4301 256.623C-92.5911 268.804 -89.9096 280.31 -91.2352 290.893C-92.4588 316.607 -98.2746 329.042 -102.123 337.27C-105.194 343.836 -107.047 347.799 -104.321 353.656C-101.055 361.754 -82.8409 370.383 -63.3655 369.782C-48.012 369.963 -39.4062 365.293 -31.0834 360.776L-30.1377 360.263C-26.1388 358.062 -22.9226 355.955 -19.8121 353.918C-11.4745 348.456 -3.59882 343.297 17.3667 337.958C32.653 334.094 58.8174 321.956 80.1403 304.434C98.1117 289.666 118.42 266.207 113.111 238.317C107.456 211.029 89.982 186.767 65.1673 171.747C48.2661 161.517 28.4651 155.901 7.90458 155.505C-14.5739 155.071 -37.4725 160.648 -60.1672 172.08C-60.4364 172.215 -60.7041 172.351 -60.9732 172.488C-61.5922 172.788 -62.2035 173.09 -62.8074 173.394ZM-36.4325 362.847C-43.3441 366.329 -51.2536 369.273 -63.4473 369.129C-84.2672 369.771 -100.974 360.424 -103.792 353.44C-106.381 347.874 -104.577 344.017 -101.588 337.626C-97.7187 329.354 -91.8721 316.852 -90.6445 291.036C-89.3057 280.355 -92.0014 268.787 -94.8556 256.54C-98.2437 242.004 -101.747 226.973 -98.384 212.675C-94.5783 196.494 -82.2449 183.554 -60.6732 173.089C-60.4063 172.953 -60.136 172.816 -59.8692 172.682C-37.2412 161.283 -14.4253 155.726 7.97089 156.158C28.4299 156.552 48.1279 162.137 64.9353 172.31C77.2184 179.745 87.6229 189.305 95.8595 200.723C104.117 212.171 109.726 224.839 112.531 238.376C117.78 265.946 97.6002 289.222 79.7474 303.893C58.4821 321.367 32.3998 333.47 17.1644 337.32C-3.88109 342.68 -11.7897 347.861 -20.1621 353.345C-23.265 355.378 -26.4734 357.479 -30.4556 359.671L-31.399 360.183C-33.0484 361.078 -34.7098 361.98 -36.4325 362.847Z" fill="#004BBB"/>
</g>
<mask id="mask6_37_621" style="mask-type:alpha" maskUnits="userSpaceOnUse" x="-97" y="171" width="196" height="190">
<path d="M-50.9459 186.614C-65.9988 194.196 -75.329 203.528 -79.3938 215.027C-83.4404 226.474 -81.9878 238.858 -80.5828 250.835C-79.3827 261.067 -78.1414 271.647 -80.4373 281.387C-83.3312 302.568 -88.7859 314.201 -92.3953 321.898C-95.7531 329.059 -97.78 333.381 -95.1585 339.333C-92.2461 347.08 -77.4581 358.937 -60.9308 359.843C-48.8844 361.277 -40.2718 359.963 -32.1442 355.451L-32.1426 355.45C-27.8473 353.014 -24.3943 350.382 -20.7385 347.596C-13.0123 341.707 -5.02301 335.617 11.882 330.837C25.5444 327.01 48.7384 316.235 67.3768 301.621C83.5283 288.957 102.018 268.872 98.3831 245.105C94.2086 221.397 79.8434 200.087 58.9695 186.632C45.1613 177.731 28.8939 172.576 11.9261 171.724C-6.84224 170.781 -26.1239 174.913 -45.3833 184.005C-47.3166 184.85 -49.1723 185.721 -50.9459 186.614ZM-33.8948 355.683C-41.5131 359.521 -49.7228 360.586 -60.9581 359.249C-77.2654 358.355 -91.8119 346.748 -94.6685 339.15C-97.1752 333.458 -95.3037 329.468 -91.9066 322.223C-88.283 314.495 -82.8068 302.817 -79.9063 281.577C-77.5908 271.76 -78.8386 261.122 -80.0454 250.834C-81.4417 238.93 -82.8857 226.62 -78.8849 215.303C-74.3894 202.586 -63.3462 192.533 -45.1233 184.56C-25.9263 175.499 -6.71878 171.381 11.9716 172.319C28.8463 173.167 45.0194 178.29 58.7425 187.136C79.4568 200.489 93.711 221.629 97.8501 245.136C101.441 268.615 83.07 288.541 67.0259 301.12C48.4357 315.696 25.3074 326.442 11.686 330.258C-5.3016 335.061 -13.3249 341.176 -21.0844 347.092C-24.7277 349.868 -28.1689 352.492 -32.4379 354.912C-32.9215 355.181 -33.4071 355.438 -33.8948 355.683Z" fill="url(#paint6_linear_37_621)"/>
</mask>
<g mask="url(#mask6_37_621)">
<path d="M-50.9459 186.614C-65.9988 194.196 -75.329 203.528 -79.3938 215.027C-83.4404 226.474 -81.9878 238.858 -80.5828 250.835C-79.3827 261.067 -78.1414 271.647 -80.4373 281.387C-83.3312 302.568 -88.7859 314.201 -92.3953 321.898C-95.7531 329.059 -97.78 333.381 -95.1585 339.333C-92.2461 347.08 -77.4581 358.937 -60.9308 359.843C-48.8844 361.277 -40.2718 359.963 -32.1442 355.451L-32.1426 355.45C-27.8473 353.014 -24.3943 350.382 -20.7385 347.596C-13.0123 341.707 -5.02301 335.617 11.882 330.837C25.5444 327.01 48.7384 316.235 67.3768 301.621C83.5283 288.957 102.018 268.872 98.3831 245.105C94.2086 221.397 79.8434 200.087 58.9695 186.632C45.1613 177.731 28.8939 172.576 11.9261 171.724C-6.84224 170.781 -26.1239 174.913 -45.3833 184.005C-47.3166 184.85 -49.1723 185.721 -50.9459 186.614ZM-33.8948 355.683C-41.5131 359.521 -49.7228 360.586 -60.9581 359.249C-77.2654 358.355 -91.8119 346.748 -94.6685 339.15C-97.1752 333.458 -95.3037 329.468 -91.9066 322.223C-88.283 314.495 -82.8068 302.817 -79.9063 281.577C-77.5908 271.76 -78.8386 261.122 -80.0454 250.834C-81.4417 238.93 -82.8857 226.62 -78.8849 215.303C-74.3894 202.586 -63.3462 192.533 -45.1233 184.56C-25.9263 175.499 -6.71878 171.381 11.9716 172.319C28.8463 173.167 45.0194 178.29 58.7425 187.136C79.4568 200.489 93.711 221.629 97.8501 245.136C101.441 268.615 83.07 288.541 67.0259 301.12C48.4357 315.696 25.3074 326.442 11.686 330.258C-5.3016 335.061 -13.3249 341.176 -21.0844 347.092C-24.7277 349.868 -28.1689 352.492 -32.4379 354.912C-32.9215 355.181 -33.4071 355.438 -33.8948 355.683Z" fill="#004BBB"/>
</g>
<mask id="mask7_37_621" style="mask-type:alpha" maskUnits="userSpaceOnUse" x="-88" y="187" width="172" height="166">
<path d="M-39.4318 199.677C-63.6832 211.892 -64.5429 228.395 -65.4484 245.759C-65.8953 254.323 -66.3569 263.178 -69.6351 271.885C-73.7855 288.2 -78.6534 298.269 -82.2076 305.622C-86.3077 314.103 -88.5659 318.775 -85.9943 325.011C-84.4974 329.293 -80.6806 334.854 -76.0389 339.506C-70.4288 345.128 -64.2009 348.821 -58.5026 349.903C-48.8648 352.698 -40.9383 354.531 -34.1482 350.637L-34.1464 350.636C-29.8872 348.134 -26.1836 344.864 -22.2626 341.402C-15.1853 335.153 -7.16332 328.071 6.39887 323.716C15.8038 320.729 36.5437 312.121 54.6136 298.809C64.0146 291.883 71.2725 284.708 76.1859 277.483C81.9901 268.949 84.5035 260.34 83.6561 251.895C80.9973 231.721 69.7481 213.311 52.7922 201.378C42.0601 193.825 29.3145 189.155 15.9329 187.873C1.13489 186.454 -14.2488 189.028 -29.7909 195.522C-33.3582 196.842 -36.5596 198.23 -39.4318 199.677ZM-35.1761 350.561C-41.6585 353.826 -49.2628 352.043 -58.4588 349.377C-71.487 346.902 -83.0136 332.101 -85.5455 324.86C-88.021 318.856 -85.8 314.261 -81.768 305.921C-78.2047 298.55 -73.3245 288.455 -69.1699 272.118C-65.8719 263.362 -65.4078 254.464 -64.9588 245.859C-64.4472 236.048 -63.9639 226.781 -59.4314 218.309C-54.3237 208.761 -44.8364 201.684 -29.5746 196.032C-14.0885 189.562 1.22695 186.999 15.9536 188.41C29.2502 189.685 41.9113 194.322 52.5676 201.822C69.3812 213.655 80.5353 231.906 83.1699 251.894C84.0031 260.198 81.5169 268.69 75.7797 277.126C70.8936 284.31 63.6688 291.451 54.3059 298.348C36.2786 311.629 15.5903 320.216 6.20797 323.196C-7.43491 327.577 -15.4912 334.689 -22.5985 340.965C-26.5039 344.413 -30.1932 347.67 -34.4186 350.153C-34.6694 350.297 -34.9221 350.433 -35.1761 350.561Z" fill="url(#paint7_linear_37_621)"/>
</mask>
<g mask="url(#mask7_37_621)">
<path d="M-39.4316 199.677C-63.6829 211.892 -64.5427 228.395 -65.4482 245.759C-65.895 254.323 -66.3567 263.178 -69.6349 271.885C-73.7853 288.2 -78.6532 298.269 -82.2074 305.622C-86.3074 314.103 -88.5656 318.775 -85.9941 325.011C-84.4972 329.293 -80.6803 334.854 -76.0387 339.506C-70.4285 345.128 -64.2007 348.821 -58.5023 349.903C-48.8646 352.698 -40.9381 354.531 -34.148 350.637L-34.1461 350.636C-29.8869 348.134 -26.1834 344.864 -22.2624 341.402C-15.185 335.153 -7.16307 328.071 6.39911 323.716C15.8041 320.729 36.544 312.121 54.6138 298.809C64.0148 291.883 71.2727 284.708 76.1862 277.483C81.9904 268.949 84.5038 260.34 83.6563 251.895C80.9976 231.721 69.7484 213.311 52.7925 201.378C42.0603 193.825 29.3147 189.155 15.9332 187.873C1.13513 186.454 -14.2486 189.028 -29.7907 195.522C-33.358 196.842 -36.5594 198.23 -39.4316 199.677ZM-35.1759 350.561C-41.6582 353.826 -49.2625 352.043 -58.4586 349.377C-71.4868 346.902 -83.0133 332.101 -85.5453 324.86C-88.0207 318.856 -85.7997 314.261 -81.7678 305.921C-78.2044 298.55 -73.3242 288.455 -69.1696 272.118C-65.8717 263.362 -65.4075 254.464 -64.9586 245.859C-64.4469 236.048 -63.9636 226.781 -59.4311 218.309C-54.3235 208.761 -44.8362 201.684 -29.5744 196.032C-14.0883 189.562 1.2272 186.999 15.9538 188.41C29.2505 189.685 41.9115 194.322 52.5679 201.822C69.3815 213.655 80.5356 231.906 83.1701 251.894C84.0033 260.198 81.5172 268.69 75.78 277.126C70.8939 284.31 63.669 291.451 54.3062 298.348C36.2788 311.629 15.5905 320.216 6.20822 323.196C-7.43466 327.577 -15.4909 334.689 -22.5982 340.965C-26.5036 344.413 -30.193 347.67 -34.4184 350.153C-34.6691 350.297 -34.9218 350.433 -35.1759 350.561Z" fill="#004BBB"/>
</g>
<mask id="mask8_37_621" style="mask-type:alpha" maskUnits="userSpaceOnUse" x="-78" y="203" width="147" height="144">
<path d="M-28.6252 212.332C-43.2734 219.71 -46.6003 229.952 -50.5904 242.23C-52.6738 248.64 -54.8275 255.267 -58.8299 262.388C-63.2865 273.063 -67.3941 280.844 -70.6948 287.096C-76.3577 297.823 -79.4772 303.732 -76.8296 310.689C-74.2525 318.639 -65.2411 335.961 -56.1033 339.944C-55.4981 340.311 -54.8921 340.684 -54.2864 341.056C-47.9576 344.946 -41.4114 348.967 -36.152 345.824L-36.1504 345.823C-32.0824 343.327 -28.1581 339.345 -24.0032 335.129C-17.2805 328.308 -9.66152 320.576 0.91651 316.594C12.3864 312.327 69.5721 289.48 68.9286 258.689C67.862 241.965 59.7531 226.361 46.6812 215.866C38.8817 209.604 29.8805 205.572 19.9277 203.881C9.08142 202.039 -2.39917 203.101 -14.1949 207.038C-19.9689 208.586 -24.7038 210.357 -28.6252 212.332ZM-36.8822 345.659C-41.8665 348.17 -48.0882 344.345 -54.1119 340.641C-54.7233 340.266 -55.3349 339.89 -55.9457 339.52L-55.9745 339.505C-64.9649 335.6 -73.8663 318.453 -76.423 310.567C-78.9897 303.822 -75.9061 297.981 -70.308 287.377C-67.0035 281.117 -62.8908 273.327 -58.4378 262.656C-54.4254 255.521 -52.2648 248.873 -50.175 242.443C-45.1537 226.992 -41.1867 214.788 -14.0301 207.505C-2.28314 203.584 9.13449 202.527 19.9166 204.358C29.792 206.036 38.7203 210.034 46.4535 216.243C59.4023 226.639 67.4343 242.095 68.4903 258.649C68.7464 270.917 59.695 283.345 41.5866 295.576C25.6473 306.342 7.70384 313.54 0.728779 316.135C-9.92262 320.146 -17.5731 327.907 -24.3225 334.756C-28.4611 338.955 -32.3702 342.922 -36.4001 345.394C-36.5592 345.489 -36.7201 345.577 -36.8822 345.659Z" fill="url(#paint8_linear_37_621)"/>
</mask>
<g mask="url(#mask8_37_621)">
<path d="M-28.6249 212.333C-43.2731 219.71 -46.6 229.952 -50.5902 242.231C-52.6735 248.64 -54.8272 255.268 -58.8297 262.388C-63.2862 273.063 -67.3938 280.844 -70.6946 287.096C-76.3574 297.823 -79.477 303.732 -76.8293 310.689C-74.2523 318.639 -65.2409 335.961 -56.103 339.945C-55.4978 340.311 -54.8919 340.684 -54.2862 341.056C-47.9574 344.947 -41.4112 348.968 -36.1517 345.824L-36.1502 345.823C-32.0822 343.327 -28.1578 339.345 -24.003 335.13C-17.2802 328.308 -9.66128 320.577 0.916754 316.595C12.3867 312.327 69.5723 289.481 68.9288 258.689C67.8623 241.966 59.7534 226.362 46.6814 215.866C38.8819 209.604 29.8807 205.572 19.9279 203.882C9.08167 202.039 -2.39892 203.101 -14.1946 207.038C-19.9686 208.586 -24.7035 210.357 -28.6249 212.333ZM-36.8819 345.659C-41.8663 348.17 -48.0879 344.345 -54.1117 340.642C-54.7231 340.266 -55.3346 339.89 -55.9454 339.52L-55.9743 339.505C-64.9647 335.6 -73.8661 318.453 -76.4228 310.568C-78.9895 303.822 -75.9058 297.981 -70.3077 287.377C-67.0033 281.118 -62.8905 273.327 -58.4376 262.657C-54.4252 255.521 -52.2645 248.873 -50.1748 242.443C-45.1535 226.992 -41.1865 214.788 -14.0298 207.505C-2.28289 203.584 9.13474 202.527 19.9168 204.358C29.7922 206.036 38.7205 210.035 46.4538 216.244C59.4025 226.639 67.4345 242.096 68.4905 258.649C68.7467 270.917 59.6952 283.345 41.5869 295.576C25.6476 306.343 7.70409 313.541 0.729023 316.135C-9.92237 320.146 -17.5728 327.908 -24.3223 334.756C-28.4608 338.955 -32.3699 342.922 -36.3998 345.394C-36.5589 345.489 -36.7199 345.577 -36.8819 345.659Z" fill="#004BBB"/>
</g>
<mask id="mask9_37_621" style="mask-type:alpha" maskUnits="userSpaceOnUse" x="-69" y="217" width="124" height="125">
<path d="M-20.0423 223.934C-28.7029 228.296 -33.9996 235.08 -41.3217 244.457C-43.4025 247.123 -45.5542 249.878 -48.0244 252.899C-49.6464 255.362 -51.1715 257.66 -52.6077 259.823C-65.1035 278.65 -70.8066 287.243 -67.6662 296.368C-65.5987 303.265 -59.3009 324.274 -53.7065 329.953C-48.885 336.633 -42.7575 343.913 -38.1574 341.01L-38.1559 341.009C-34.3455 338.541 -30.1529 333.687 -25.7142 328.548C-19.454 321.3 -12.3591 313.087 -4.56559 309.472C-3.07941 308.791 -1.28525 308.007 0.792082 307.099C9.3028 303.379 22.1638 297.758 33.0869 290.711C46.156 282.279 53.2583 273.793 54.1965 265.489C54.9107 252.267 49.9108 238.935 40.8236 229.814C30.747 219.7 16.7488 215.701 1.4071 218.554C-7.92485 219.432 -14.6385 221.212 -20.0423 223.934ZM-38.7293 340.831C-43.0533 343.009 -48.8352 336.064 -53.4267 329.7L-53.4518 329.67C-58.9608 324.101 -65.2399 303.156 -67.303 296.274C-70.3725 287.354 -64.7042 278.814 -52.2847 260.102C-50.8485 257.938 -49.3229 255.64 -47.7114 253.191C-45.2494 250.182 -43.0964 247.425 -41.0144 244.758C-29.1792 229.601 -22.6599 221.252 1.50375 218.976C16.7355 216.145 30.6092 220.1 40.5835 230.111C49.5719 239.133 54.5167 252.324 53.8111 265.397C52.8873 273.568 45.8383 281.963 32.8606 290.336C21.9584 297.369 9.11188 302.984 0.610625 306.7C-1.46817 307.608 -3.26327 308.393 -4.75296 309.075C-12.6118 312.722 -19.7291 320.962 -26.0107 328.234C-30.433 333.354 -34.6105 338.191 -38.3816 340.634C-38.4962 340.706 -38.6124 340.772 -38.7293 340.831Z" fill="url(#paint9_linear_37_621)"/>
</mask>
<g mask="url(#mask9_37_621)">
<path d="M-20.0419 223.934C-28.7024 228.296 -33.9991 235.08 -41.3212 244.457C-43.4021 247.123 -45.5538 249.878 -48.0239 252.899C-49.6459 255.362 -51.171 257.66 -52.6072 259.823C-65.103 278.65 -70.8061 287.243 -67.6657 296.368C-65.5982 303.265 -59.3004 324.274 -53.706 329.953C-48.8845 336.633 -42.757 343.913 -38.1569 341.01L-38.1554 341.009C-34.345 338.541 -30.1524 333.687 -25.7137 328.548C-19.4535 321.3 -12.3586 313.087 -4.5651 309.472C-3.07892 308.791 -1.28477 308.007 0.79257 307.099C9.30328 303.379 22.1643 297.758 33.0874 290.711C46.1565 282.279 53.2588 273.793 54.197 265.489C54.9112 252.267 49.9113 238.935 40.824 229.814C30.7475 219.7 16.7493 215.701 1.40759 218.554C-7.92436 219.432 -14.638 221.212 -20.0419 223.934ZM-38.7288 340.831C-43.0528 343.009 -48.8347 336.064 -53.4262 329.7L-53.4513 329.67C-58.9603 324.101 -65.2394 303.156 -67.3025 296.274C-70.372 287.354 -64.7037 278.814 -52.2842 260.102C-50.848 257.938 -49.3224 255.64 -47.711 253.191C-45.2489 250.182 -43.0959 247.425 -41.014 244.758C-29.1787 229.601 -22.6594 221.252 1.50424 218.976C16.736 216.145 30.6097 220.1 40.584 230.111C49.5724 239.133 54.5172 252.324 53.8116 265.397C52.8878 273.568 45.8388 281.963 32.861 290.336C21.9589 297.369 9.11237 302.984 0.611113 306.7C-1.46768 307.608 -3.26279 308.393 -4.75247 309.075C-12.6114 312.722 -19.7286 320.962 -26.0102 328.234C-30.4325 333.354 -34.61 338.191 -38.3811 340.634C-38.4957 340.706 -38.6119 340.772 -38.7288 340.831Z" fill="#004BBB"/>
</g>
<mask id="mask10_37_621" style="mask-type:alpha" maskUnits="userSpaceOnUse" x="-60" y="227" width="102" height="110">
<path d="M-21.7809 232.993C-26.8177 235.531 -31.934 238.99 -37.2161 243.418C-55.1527 260.515 -61.5157 272.066 -58.4992 282.047C-57.2199 286.68 -55.6195 295.993 -54.2076 304.209C-53.0895 310.715 -52.0336 316.86 -51.272 319.935C-50.8522 322.665 -49.6707 326.183 -48.1146 329.325C-46.4102 332.766 -44.5606 335.185 -42.9059 336.134C-41.8845 336.721 -40.9605 336.74 -40.1591 336.196L-40.1582 336.195C-36.5947 333.72 -31.9549 327.615 -27.0426 321.152C-21.2057 313.472 -15.1702 305.531 -10.0424 302.346C-7.24599 300.626 -2.47463 298.596 3.05028 296.245C16.7637 290.411 35.5474 282.421 39.4581 272.299C42.5226 262.343 41.2557 250.97 36.156 242.607C31.8716 235.581 25.26 231.247 17.036 230.074C6.97316 227.361 -1.45248 226.884 -9.46051 228.578C-13.5451 229.442 -17.6361 230.906 -21.7809 232.993ZM-40.6015 336.016C-41.2464 336.341 -41.9785 336.273 -42.7823 335.811C-46.1572 333.874 -50.0915 325.444 -50.945 319.901C-51.7067 316.822 -52.7615 310.685 -53.8781 304.187C-55.2917 295.961 -56.894 286.637 -58.1804 281.978C-61.1508 272.15 -54.8116 260.708 -36.9852 243.716C-27.3994 235.681 -18.3604 230.845 -9.35696 228.941C-1.39656 227.257 6.98382 227.732 17.0162 230.436C25.1479 231.597 31.6659 235.866 35.8847 242.784C40.9225 251.045 42.1708 262.29 39.1426 272.13C35.2819 282.121 16.5638 290.084 2.89547 295.899C-2.63964 298.254 -7.41961 300.286 -10.2343 302.018C-15.4065 305.231 -21.4584 313.194 -27.3111 320.894C-32.2092 327.339 -36.8357 333.426 -40.3623 335.875C-40.4406 335.929 -40.5204 335.976 -40.6015 336.016Z" fill="url(#paint10_linear_37_621)"/>
</mask>
<g mask="url(#mask10_37_621)">
<path d="M-21.7809 232.993C-26.8177 235.531 -31.934 238.99 -37.2161 243.418C-55.1527 260.515 -61.5157 272.066 -58.4992 282.047C-57.2199 286.68 -55.6195 295.993 -54.2076 304.209C-53.0895 310.715 -52.0336 316.86 -51.272 319.935C-50.8522 322.665 -49.6707 326.183 -48.1146 329.325C-46.4102 332.766 -44.5606 335.185 -42.9059 336.134C-41.8845 336.721 -40.9605 336.74 -40.1591 336.196L-40.1582 336.195C-36.5947 333.72 -31.9549 327.615 -27.0426 321.152C-21.2057 313.472 -15.1702 305.531 -10.0424 302.346C-7.24599 300.626 -2.47463 298.596 3.05028 296.245C16.7637 290.411 35.5474 282.421 39.4581 272.299C42.5226 262.343 41.2557 250.97 36.156 242.607C31.8716 235.581 25.26 231.247 17.036 230.074C6.97316 227.361 -1.45248 226.884 -9.46051 228.578C-13.5451 229.442 -17.6361 230.906 -21.7809 232.993ZM-40.6015 336.016C-41.2464 336.341 -41.9785 336.273 -42.7823 335.811C-46.1572 333.874 -50.0915 325.444 -50.945 319.901C-51.7067 316.822 -52.7615 310.685 -53.8781 304.187C-55.2917 295.961 -56.894 286.637 -58.1804 281.978C-61.1508 272.15 -54.8116 260.708 -36.9852 243.716C-27.3994 235.681 -18.3604 230.845 -9.35696 228.941C-1.39656 227.257 6.98382 227.732 17.0162 230.436C25.1479 231.597 31.6659 235.866 35.8847 242.784C40.9225 251.045 42.1708 262.29 39.1426 272.13C35.2819 282.121 16.5638 290.084 2.89547 295.899C-2.63964 298.254 -7.41961 300.286 -10.2343 302.018C-15.4065 305.231 -21.4584 313.194 -27.3111 320.894C-32.2092 327.339 -36.8357 333.426 -40.3623 335.875C-40.4406 335.929 -40.5204 335.976 -40.6015 336.016Z" fill="#004BBB"/>
</g>
<mask id="mask11_37_621" style="mask-type:alpha" maskUnits="userSpaceOnUse" x="-50" y="227" width="87" height="105">
<path d="M-24.5392 232.954C-25.1703 233.272 -25.7945 233.603 -26.413 233.948C-36.4768 239.551 -43.4147 245.693 -47.0334 252.202C-49.8744 257.312 -50.6481 262.536 -49.3327 267.728C-47.179 276.23 -46.8528 301.481 -48.7875 309.944C-49.5086 313.098 -49.2432 317.584 -48.0592 322.251C-46.9881 326.475 -45.362 329.972 -43.9165 331.161C-43.2735 331.69 -42.6659 331.764 -42.1626 331.381C-38.6377 328.694 -32.6191 319.644 -26.7987 310.892C-22.2856 304.106 -18.0227 297.696 -15.5169 295.213C-12.6752 292.396 -4.94323 290.091 3.24234 287.651C11.6745 285.138 20.3948 282.539 24.6915 279.113C29.1867 275.529 33.1452 269.133 35.0222 262.42C37.2158 254.574 36.3975 247.205 32.7182 241.67C28.4124 235.194 19.426 230.167 8.67959 228.223C-2.68836 226.166 -14.4002 227.847 -24.5392 232.954ZM-42.5091 331.221C-42.8801 331.408 -43.2932 331.308 -43.7662 330.919C-46.5672 328.616 -50.0978 316.993 -48.5116 310.056C-46.5697 301.561 -46.8978 276.216 -49.06 267.681C-50.3536 262.575 -49.5884 257.429 -46.7858 252.389C-43.1901 245.921 -36.2842 239.812 -26.2598 234.23C-15.7566 228.381 -3.3492 226.356 8.66933 228.53C19.1751 230.431 28.3053 235.528 32.4966 241.832C36.1163 247.277 36.9166 254.544 34.7497 262.294C32.8874 268.955 28.9623 275.3 24.5062 278.852C20.2446 282.249 11.5474 284.842 3.13614 287.349C-5.07826 289.798 -12.8371 292.11 -15.7216 294.969C-18.2449 297.47 -22.5148 303.89 -27.0353 310.687C-32.8443 319.422 -38.8511 328.454 -42.3435 331.117C-42.3979 331.158 -42.453 331.193 -42.5091 331.221Z" fill="url(#paint11_linear_37_621)"/>
</mask>
<g mask="url(#mask11_37_621)">
<path d="M-24.5392 232.954C-25.1703 233.272 -25.7945 233.603 -26.413 233.948C-36.4768 239.551 -43.4147 245.693 -47.0334 252.202C-49.8744 257.312 -50.6481 262.536 -49.3327 267.728C-47.179 276.23 -46.8528 301.481 -48.7875 309.944C-49.5086 313.098 -49.2432 317.584 -48.0592 322.251C-46.9881 326.475 -45.362 329.972 -43.9165 331.161C-43.2735 331.69 -42.6659 331.764 -42.1626 331.381C-38.6377 328.694 -32.6191 319.644 -26.7987 310.892C-22.2856 304.106 -18.0227 297.696 -15.5169 295.213C-12.6752 292.396 -4.94323 290.091 3.24234 287.651C11.6745 285.138 20.3948 282.539 24.6915 279.113C29.1867 275.529 33.1452 269.133 35.0222 262.42C37.2158 254.574 36.3975 247.205 32.7182 241.67C28.4124 235.194 19.426 230.167 8.67959 228.223C-2.68836 226.166 -14.4002 227.847 -24.5392 232.954ZM-42.5091 331.221C-42.8801 331.408 -43.2932 331.308 -43.7662 330.919C-46.5672 328.616 -50.0978 316.993 -48.5116 310.056C-46.5697 301.561 -46.8978 276.216 -49.06 267.681C-50.3536 262.575 -49.5884 257.429 -46.7858 252.389C-43.1901 245.921 -36.2842 239.812 -26.2598 234.23C-15.7566 228.381 -3.3492 226.356 8.66933 228.53C19.1751 230.431 28.3053 235.528 32.4966 241.832C36.1163 247.277 36.9166 254.544 34.7497 262.294C32.8874 268.955 28.9623 275.3 24.5062 278.852C20.2446 282.249 11.5474 284.842 3.13614 287.349C-5.07826 289.798 -12.8371 292.11 -15.7216 294.969C-18.2449 297.47 -22.5148 303.89 -27.0353 310.687C-32.8443 319.422 -38.8511 328.454 -42.3435 331.117C-42.3979 331.158 -42.453 331.193 -42.5091 331.221Z" fill="#004BBB"/>
</g>
</g>
<defs>
<linearGradient id="paint0_linear_37_621" x1="-201.082" y1="324.181" x2="159.052" y2="142.771" gradientUnits="userSpaceOnUse">
<stop stop-color="white"/>
<stop offset="0.0436152" stop-color="#B4B4B4"/>
<stop offset="0.150732"/>
<stop offset="0.171421" stop-color="#171717"/>
<stop offset="0.385884" stop-color="white"/>
<stop offset="0.632551" stop-color="#E6E6E6"/>
<stop offset="0.856667" stop-color="#1A1A1A"/>
<stop offset="0.998739"/>
</linearGradient>
<linearGradient id="paint1_linear_37_621" x1="-186.156" y1="321.277" x2="146.448" y2="153.735" gradientUnits="userSpaceOnUse">
<stop stop-color="white"/>
<stop offset="0.0436152" stop-color="#B4B4B4"/>
<stop offset="0.150732"/>
<stop offset="0.171421" stop-color="#171717"/>
<stop offset="0.385884" stop-color="white"/>
<stop offset="0.632551" stop-color="#E6E6E6"/>
<stop offset="0.856667" stop-color="#1A1A1A"/>
<stop offset="0.998739"/>
</linearGradient>
<linearGradient id="paint2_linear_37_621" x1="-171.239" y1="318.362" x2="133.854" y2="164.677" gradientUnits="userSpaceOnUse">
<stop stop-color="white"/>
<stop offset="0.0436152" stop-color="#B4B4B4"/>
<stop offset="0.150732"/>
<stop offset="0.171421" stop-color="#171717"/>
<stop offset="0.385884" stop-color="white"/>
<stop offset="0.632551" stop-color="#E6E6E6"/>
<stop offset="0.856667" stop-color="#1A1A1A"/>
<stop offset="0.998739"/>
</linearGradient>
<linearGradient id="paint3_linear_37_621" x1="-156.335" y1="315.434" x2="121.276" y2="175.593" gradientUnits="userSpaceOnUse">
<stop stop-color="white"/>
<stop offset="0.0436152" stop-color="#B4B4B4"/>
<stop offset="0.150732"/>
<stop offset="0.171421" stop-color="#171717"/>
<stop offset="0.385884" stop-color="white"/>
<stop offset="0.632551" stop-color="#E6E6E6"/>
<stop offset="0.856667" stop-color="#1A1A1A"/>
<stop offset="0.998739"/>
</linearGradient>
<linearGradient id="paint4_linear_37_621" x1="-141.444" y1="312.502" x2="108.727" y2="186.484" gradientUnits="userSpaceOnUse">
<stop stop-color="white"/>
<stop offset="0.0436152" stop-color="#B4B4B4"/>
<stop offset="0.150732"/>
<stop offset="0.171421" stop-color="#171717"/>
<stop offset="0.385884" stop-color="white"/>
<stop offset="0.632551" stop-color="#E6E6E6"/>
<stop offset="0.856667" stop-color="#1A1A1A"/>
<stop offset="0.998739"/>
</linearGradient>
<linearGradient id="paint5_linear_37_621" x1="-126.589" y1="309.517" x2="96.1707" y2="197.306" gradientUnits="userSpaceOnUse">
<stop stop-color="white"/>
<stop offset="0.0436152" stop-color="#B4B4B4"/>
<stop offset="0.150732"/>
<stop offset="0.171421" stop-color="#171717"/>
<stop offset="0.385884" stop-color="white"/>
<stop offset="0.632551" stop-color="#E6E6E6"/>
<stop offset="0.856667" stop-color="#1A1A1A"/>
<stop offset="0.998739"/>
</linearGradient>
<linearGradient id="paint6_linear_37_621" x1="-111.802" y1="306.442" x2="83.6851" y2="207.97" gradientUnits="userSpaceOnUse">
<stop stop-color="white"/>
<stop offset="0.0436152" stop-color="#B4B4B4"/>
<stop offset="0.150732"/>
<stop offset="0.171421" stop-color="#171717"/>
<stop offset="0.385884" stop-color="white"/>
<stop offset="0.632551" stop-color="#E6E6E6"/>
<stop offset="0.856667" stop-color="#1A1A1A"/>
<stop offset="0.998739"/>
</linearGradient>
<linearGradient id="paint7_linear_37_621" x1="-96.2189" y1="305.107" x2="72.2095" y2="220.264" gradientUnits="userSpaceOnUse">
<stop stop-color="white"/>
<stop offset="0.0436152" stop-color="#B4B4B4"/>
<stop offset="0.150732"/>
<stop offset="0.171421" stop-color="#171717"/>
<stop offset="0.385884" stop-color="white"/>
<stop offset="0.632551" stop-color="#E6E6E6"/>
<stop offset="0.856667" stop-color="#1A1A1A"/>
<stop offset="0.998739"/>
</linearGradient>
<linearGradient id="paint8_linear_37_621" x1="-81.0771" y1="303.616" x2="60.8836" y2="232.106" gradientUnits="userSpaceOnUse">
<stop stop-color="white"/>
<stop offset="0.0436152" stop-color="#B4B4B4"/>
<stop offset="0.150732"/>
<stop offset="0.171421" stop-color="#171717"/>
<stop offset="0.385884" stop-color="white"/>
<stop offset="0.632551" stop-color="#E6E6E6"/>
<stop offset="0.856667" stop-color="#1A1A1A"/>
<stop offset="0.998739"/>
</linearGradient>
<linearGradient id="paint9_linear_37_621" x1="-68.5108" y1="302.336" x2="49.7996" y2="242.74" gradientUnits="userSpaceOnUse">
<stop stop-color="white"/>
<stop offset="0.0436152" stop-color="#B4B4B4"/>
<stop offset="0.150732"/>
<stop offset="0.171421" stop-color="#171717"/>
<stop offset="0.385884" stop-color="white"/>
<stop offset="0.632551" stop-color="#E6E6E6"/>
<stop offset="0.856667" stop-color="#1A1A1A"/>
<stop offset="0.998739"/>
</linearGradient>
<linearGradient id="paint10_linear_37_621" x1="-62.6124" y1="300.546" x2="39.5337" y2="249.092" gradientUnits="userSpaceOnUse">
<stop stop-color="white"/>
<stop offset="0.0436152" stop-color="#B4B4B4"/>
<stop offset="0.150732"/>
<stop offset="0.171421" stop-color="#171717"/>
<stop offset="0.385884" stop-color="white"/>
<stop offset="0.632551" stop-color="#E6E6E6"/>
<stop offset="0.856667" stop-color="#1A1A1A"/>
<stop offset="0.998739"/>
</linearGradient>
<linearGradient id="paint11_linear_37_621" x1="-61.8981" y1="296.56" x2="35.749" y2="247.373" gradientUnits="userSpaceOnUse">
<stop stop-color="white"/>
<stop offset="0.0436152" stop-color="#B4B4B4"/>
<stop offset="0.150732"/>
<stop offset="0.171421" stop-color="#171717"/>
<stop offset="0.385884" stop-color="white"/>
<stop offset="0.632551" stop-color="#E6E6E6"/>
<stop offset="0.856667" stop-color="#1A1A1A"/>
<stop offset="0.998739"/>
</linearGradient>
</defs>
</svg>
