<svg width="169" height="47" viewBox="0 0 169 47" fill="none" xmlns="http://www.w3.org/2000/svg">
<circle cx="0.867647" cy="0.867647" r="0.867647" fill="#005E9E"/>
<circle cx="13.5932" cy="0.867647" r="0.867647" fill="#005E9E"/>
<circle cx="26.3186" cy="0.867647" r="0.867647" fill="#005E9E"/>
<circle cx="39.0442" cy="0.867647" r="0.867647" fill="#005E9E"/>
<circle cx="51.7695" cy="0.867647" r="0.867647" fill="#005E9E"/>
<circle cx="64.4951" cy="0.867647" r="0.867647" fill="#005E9E"/>
<circle cx="77.2207" cy="0.867647" r="0.867647" fill="#005E9E"/>
<circle cx="0.867647" cy="9.3862" r="0.867647" fill="#005E9E"/>
<circle cx="13.5932" cy="9.3862" r="0.867647" fill="#005E9E"/>
<circle cx="26.3186" cy="9.3862" r="0.867647" fill="#005E9E"/>
<circle cx="39.0442" cy="9.3862" r="0.867647" fill="#005E9E"/>
<circle cx="51.7695" cy="9.3862" r="0.867647" fill="#005E9E"/>
<circle cx="64.4951" cy="9.3862" r="0.867647" fill="#005E9E"/>
<circle cx="77.2207" cy="9.3862" r="0.867647" fill="#005E9E"/>
<circle cx="0.867647" cy="43.4602" r="0.867647" fill="#005E9E"/>
<circle cx="13.5932" cy="43.4602" r="0.867647" fill="#005E9E"/>
<circle cx="26.3186" cy="43.4602" r="0.867647" fill="#005E9E"/>
<circle cx="39.0442" cy="43.4602" r="0.867647" fill="#005E9E"/>
<circle cx="51.7695" cy="43.4602" r="0.867647" fill="#005E9E"/>
<circle cx="64.4951" cy="43.4602" r="0.867647" fill="#005E9E"/>
<circle cx="77.2207" cy="43.4602" r="0.867647" fill="#005E9E"/>
<circle cx="0.867647" cy="34.9416" r="0.867647" fill="#005E9E"/>
<circle cx="13.5932" cy="34.9416" r="0.867647" fill="#005E9E"/>
<circle cx="26.3186" cy="34.9416" r="0.867647" fill="#005E9E"/>
<circle cx="39.0442" cy="34.9416" r="0.867647" fill="#005E9E"/>
<circle cx="51.7695" cy="34.9416" r="0.867647" fill="#005E9E"/>
<circle cx="64.4951" cy="34.9416" r="0.867647" fill="#005E9E"/>
<circle cx="77.2207" cy="34.9416" r="0.867647" fill="#005E9E"/>
<circle cx="0.867647" cy="26.4233" r="0.867647" fill="#005E9E"/>
<circle cx="13.5932" cy="26.4233" r="0.867647" fill="#005E9E"/>
<circle cx="26.3186" cy="26.4233" r="0.867647" fill="#005E9E"/>
<circle cx="39.0442" cy="26.4233" r="0.867647" fill="#005E9E"/>
<circle cx="51.7695" cy="26.4233" r="0.867647" fill="#005E9E"/>
<circle cx="64.4951" cy="26.4233" r="0.867647" fill="#005E9E"/>
<circle cx="77.2207" cy="26.4233" r="0.867647" fill="#005E9E"/>
<circle cx="0.867647" cy="17.9048" r="0.867647" fill="#005E9E"/>
<circle cx="13.5932" cy="17.9048" r="0.867647" fill="#005E9E"/>
<circle cx="26.3186" cy="17.9048" r="0.867647" fill="#005E9E"/>
<circle cx="39.0442" cy="17.9048" r="0.867647" fill="#005E9E"/>
<circle cx="51.7695" cy="17.9048" r="0.867647" fill="#005E9E"/>
<circle cx="64.4951" cy="17.9048" r="0.867647" fill="#005E9E"/>
<circle cx="77.2207" cy="17.9048" r="0.867647" fill="#005E9E"/>
</svg>
