<svg width="747" height="582" viewBox="0 0 747 582" fill="none" xmlns="http://www.w3.org/2000/svg">
<g opacity="0.5">
<mask id="mask0_15_1646" style="mask-type:alpha" maskUnits="userSpaceOnUse" x="0" y="258" width="623" height="324">
<path d="M185.864 581.77C177.717 581.77 173.119 580.38 170.632 578.488C156.574 567.794 122.582 571.74 89.7118 575.559C51.8595 579.955 16.1073 584.108 4.08178 568.814C-1.03636 562.304 -1.33834 552.992 3.15927 540.344C16.6105 502.518 62.9968 458.861 99.5418 428.899C144.644 391.92 190.343 362.766 210.057 352.192L210.539 353.106L210.057 352.192C269.55 320.279 321.998 292.526 361.344 276.091C402.88 258.742 428.718 254.24 445.122 261.499C454.682 265.729 460.929 273.97 464.221 286.692C468.798 304.387 478.067 317.102 493.39 326.709C507.301 335.431 525.022 340.838 543.784 346.563C566.482 353.488 592.208 361.338 616.441 376.69C620.503 379.264 622.429 382.624 622.165 386.676C621.496 396.948 606.28 411.592 576.941 430.203C551.158 446.559 514.797 465.705 471.791 485.572C410.883 513.708 340.654 541.356 283.927 559.529C230.871 576.526 201.681 581.77 185.864 581.77ZM138.583 569.518C152.766 569.518 164.672 571.359 171.87 576.834C181.523 584.177 222.139 577.149 283.306 557.554C339.957 539.404 410.099 511.791 470.935 483.688C563.159 441.085 618.927 404.769 620.115 386.54C620.329 383.26 618.77 380.613 615.348 378.445C591.349 363.241 565.763 355.434 543.189 348.546C505.269 336.975 472.521 326.983 462.233 287.216C459.11 275.146 453.243 267.355 444.297 263.397C410.754 248.555 333.799 288.163 211.021 354.021C191.379 364.557 145.826 393.621 100.837 430.507C64.4955 460.303 18.3843 503.667 5.09327 541.044C0.855119 552.962 1.05069 561.624 5.69141 567.526C17.0078 581.918 53.8491 577.638 89.4767 573.5C106.475 571.526 123.77 569.518 138.583 569.518Z" fill="url(#paint0_linear_15_1646)"/>
</mask>
<g mask="url(#mask0_15_1646)">
<path d="M185.864 581.77C177.717 581.77 173.119 580.38 170.632 578.488C156.574 567.794 122.582 571.74 89.7118 575.559C51.8595 579.955 16.1073 584.108 4.08178 568.814C-1.03636 562.304 -1.33834 552.992 3.15927 540.344C16.6105 502.518 62.9968 458.861 99.5418 428.899C144.644 391.92 190.343 362.766 210.057 352.192L210.539 353.106L210.057 352.192C269.55 320.279 321.998 292.526 361.344 276.091C402.88 258.742 428.718 254.24 445.122 261.499C454.682 265.729 460.929 273.97 464.221 286.692C468.798 304.387 478.067 317.102 493.39 326.709C507.301 335.431 525.022 340.838 543.784 346.563C566.482 353.488 592.208 361.338 616.441 376.69C620.503 379.264 622.429 382.624 622.165 386.676C621.496 396.948 606.28 411.592 576.941 430.203C551.158 446.559 514.797 465.705 471.791 485.572C410.883 513.708 340.654 541.356 283.927 559.529C230.871 576.526 201.681 581.77 185.864 581.77ZM138.583 569.518C152.766 569.518 164.672 571.359 171.87 576.834C181.523 584.177 222.139 577.149 283.306 557.554C339.957 539.404 410.099 511.791 470.935 483.688C563.159 441.085 618.927 404.769 620.115 386.54C620.329 383.26 618.77 380.613 615.348 378.445C591.349 363.241 565.763 355.434 543.189 348.546C505.269 336.975 472.521 326.983 462.233 287.216C459.11 275.146 453.243 267.355 444.297 263.397C410.754 248.555 333.799 288.163 211.021 354.021C191.379 364.557 145.826 393.621 100.837 430.507C64.4955 460.303 18.3843 503.667 5.09327 541.044C0.855119 552.962 1.05069 561.624 5.69141 567.526C17.0078 581.918 53.8491 577.638 89.4767 573.5C106.475 571.526 123.77 569.518 138.583 569.518Z" fill="#005E9E"/>
</g>
<mask id="mask1_15_1646" style="mask-type:alpha" maskUnits="userSpaceOnUse" x="20" y="274" width="569" height="301">
<path d="M190.594 574.885C184.341 574.885 179.745 573.975 177.106 572.03C164.157 562.433 133.166 566.003 103.196 569.455C68.3682 573.468 35.4718 577.256 24.3579 563.179C19.6563 557.223 19.3317 548.73 23.3645 537.215C30.0973 517.034 47.7551 491.792 74.4246 464.23C97.1334 440.761 125.957 416.247 153.505 396.974C182.411 377.152 205.801 363.368 212.281 359.615C271.803 327.463 315.542 304.728 349.713 290.708C386.95 275.43 411.31 271.403 426.375 278.035C435.44 282.026 441.359 289.792 444.47 301.776V301.777C448.683 318.027 457.172 329.741 471.184 338.64C483.903 346.718 500.086 351.776 517.219 357.13C537.839 363.575 561.212 370.879 583.216 384.955C587.028 387.508 588.799 390.787 588.497 394.712C586.466 421.085 489.543 468.802 447.966 488.093C350.681 533.233 232.877 574.885 190.594 574.885ZM147.887 563.909C160.788 563.909 171.635 565.56 178.246 570.46C197.614 584.737 336.194 537.812 447.159 486.325C533.101 446.448 585.218 412.144 586.573 394.561C586.821 391.348 585.379 388.74 582.165 386.588C560.394 372.662 537.153 365.398 516.647 358.989C481.999 348.161 452.076 338.809 442.603 302.269V302.269C439.651 290.9 434.091 283.556 425.603 279.82C394.071 265.94 321.038 303.076 213.217 361.317C206.777 365.047 183.44 378.8 154.597 398.579C127.154 417.779 98.4324 442.205 75.8059 465.589C49.3375 492.943 31.8343 517.93 25.1888 537.85C21.391 548.695 21.6144 556.578 25.8676 561.966C36.3158 575.2 70.2048 571.296 102.977 567.521C118.52 565.731 134.336 563.909 147.887 563.909Z" fill="url(#paint1_linear_15_1646)"/>
</mask>
<g mask="url(#mask1_15_1646)">
<path d="M190.594 574.885C184.341 574.885 179.745 573.975 177.106 572.03C164.157 562.433 133.166 566.003 103.196 569.455C68.3682 573.468 35.4718 577.256 24.3579 563.179C19.6563 557.223 19.3317 548.73 23.3645 537.215C30.0973 517.034 47.7551 491.792 74.4246 464.23C97.1334 440.761 125.957 416.247 153.505 396.974C182.411 377.152 205.801 363.368 212.281 359.615C271.803 327.463 315.542 304.728 349.713 290.708C386.95 275.43 411.31 271.403 426.375 278.035C435.44 282.026 441.359 289.792 444.47 301.776V301.777C448.683 318.027 457.172 329.741 471.184 338.64C483.903 346.718 500.086 351.776 517.219 357.13C537.839 363.575 561.212 370.879 583.216 384.955C587.028 387.508 588.799 390.787 588.497 394.712C586.466 421.085 489.543 468.802 447.966 488.093C350.681 533.233 232.877 574.885 190.594 574.885ZM147.887 563.909C160.788 563.909 171.635 565.56 178.246 570.46C197.614 584.737 336.194 537.812 447.159 486.325C533.101 446.448 585.218 412.144 586.573 394.561C586.821 391.348 585.379 388.74 582.165 386.588C560.394 372.662 537.153 365.398 516.647 358.989C481.999 348.161 452.076 338.809 442.603 302.269V302.269C439.651 290.9 434.091 283.556 425.603 279.82C394.071 265.94 321.038 303.076 213.217 361.317C206.777 365.047 183.44 378.8 154.597 398.579C127.154 417.779 98.4324 442.205 75.8059 465.589C49.3375 492.943 31.8343 517.93 25.1888 537.85C21.391 548.695 21.6144 556.578 25.8676 561.966C36.3158 575.2 70.2048 571.296 102.977 567.521C118.52 565.731 134.336 563.909 147.887 563.909Z" fill="#005E9E"/>
</g>
<mask id="mask2_15_1646" style="mask-type:alpha" maskUnits="userSpaceOnUse" x="41" y="291" width="514" height="278">
<path d="M195.729 568.117C190.178 568.117 186.032 567.311 183.579 565.573C171.743 557.072 143.754 560.264 116.687 563.351C84.8802 566.98 54.8379 570.406 44.6334 557.544C40.3489 552.143 40.0008 544.47 43.5695 534.087C49.323 515.373 65.2475 490.81 88.4003 464.953C109.918 440.923 135.887 417.805 159.65 401.527C175.76 390.968 190.582 381.829 202.492 374.485C207.121 371.631 211.119 369.166 214.508 367.038C258.43 343.111 303.76 319.095 338.068 305.319C371.562 291.869 393.658 288.448 407.602 294.548C416.186 298.304 421.784 305.602 424.718 316.86V316.86C433.126 349.204 459.784 357.776 490.652 367.701C509.195 373.663 530.214 380.421 549.991 393.22C557.749 398.753 554.761 406.503 550.894 412.034C530.597 441.068 437.761 486.619 364.429 516.804C297.996 544.149 225.997 568.117 195.729 568.117ZM157.442 558.247C168.992 558.247 178.562 559.733 184.622 564.087C197.63 573.307 271.291 553.174 363.747 515.118C407.029 497.302 448.632 477.764 480.891 460.104C517.124 440.269 540.82 423.284 549.418 410.985C554.423 403.826 554.28 398.509 548.982 394.729C529.439 382.083 508.541 375.364 490.103 369.436C458.728 359.348 431.631 350.635 422.972 317.323C420.188 306.641 414.926 299.737 406.884 296.219C379.425 284.205 320.86 311.172 215.414 368.612C212.066 370.716 208.066 373.183 203.434 376.039C191.533 383.377 176.723 392.509 160.649 403.044C137.016 419.233 111.165 442.247 89.7404 466.174C66.7595 491.839 50.9713 516.159 45.2845 534.655C41.9264 544.428 42.1775 551.533 46.0432 556.406C55.6244 568.484 86.564 564.954 116.484 561.542C131.134 559.871 145.369 558.247 157.442 558.247Z" fill="url(#paint2_linear_15_1646)"/>
</mask>
<g mask="url(#mask2_15_1646)">
<path d="M195.729 568.117C190.178 568.117 186.032 567.311 183.579 565.573C171.743 557.072 143.754 560.264 116.687 563.351C84.8802 566.98 54.8379 570.406 44.6334 557.544C40.3489 552.143 40.0008 544.47 43.5695 534.087C49.323 515.373 65.2475 490.81 88.4003 464.953C109.918 440.923 135.887 417.805 159.65 401.527C175.76 390.968 190.582 381.829 202.492 374.485C207.121 371.631 211.119 369.166 214.508 367.038C258.43 343.111 303.76 319.095 338.068 305.319C371.562 291.869 393.658 288.448 407.602 294.548C416.186 298.304 421.784 305.602 424.718 316.86V316.86C433.126 349.204 459.784 357.776 490.652 367.701C509.195 373.663 530.214 380.421 549.991 393.22C557.749 398.753 554.761 406.503 550.894 412.034C530.597 441.068 437.761 486.619 364.429 516.804C297.996 544.149 225.997 568.117 195.729 568.117ZM157.442 558.247C168.992 558.247 178.562 559.733 184.622 564.087C197.63 573.307 271.291 553.174 363.747 515.118C407.029 497.302 448.632 477.764 480.891 460.104C517.124 440.269 540.82 423.284 549.418 410.985C554.423 403.826 554.28 398.509 548.982 394.729C529.439 382.083 508.541 375.364 490.103 369.436C458.728 359.348 431.631 350.635 422.972 317.323C420.188 306.641 414.926 299.737 406.884 296.219C379.425 284.205 320.86 311.172 215.414 368.612C212.066 370.716 208.066 373.183 203.434 376.039C191.533 383.377 176.723 392.509 160.649 403.044C137.016 419.233 111.165 442.247 89.7404 466.174C66.7595 491.839 50.9713 516.159 45.2845 534.655C41.9264 544.428 42.1775 551.533 46.0432 556.406C55.6244 568.484 86.564 564.954 116.484 561.542C131.134 559.871 145.369 558.247 157.442 558.247Z" fill="#005E9E"/>
</g>
<mask id="mask3_15_1646" style="mask-type:alpha" maskUnits="userSpaceOnUse" x="61" y="308" width="461" height="254">
<path d="M200.533 561.247C195.935 561.247 192.274 560.615 190.055 559.115C179.332 551.707 154.347 554.523 130.185 557.247C102.664 560.35 74.2055 563.556 64.9088 551.909C61.041 547.064 60.6702 540.21 63.7747 530.959C73.815 494.549 122.448 435.007 165.796 406.081C173.03 401.595 179.934 397.395 186.61 393.335C198.87 385.878 209.458 379.437 216.737 374.462L216.806 374.42C268.003 346.24 300.78 329.941 326.403 319.921C356.149 308.287 375.974 305.461 388.796 311.028C396.916 314.554 402.205 321.396 404.967 331.944L404.967 331.945C412.58 361.14 436.447 369.08 464.083 378.275C480.551 383.754 499.216 389.964 516.766 401.485C522.604 405.956 522.713 412.195 517.141 420.065C508.851 431.774 487.276 447.527 454.748 465.62C426.015 481.601 388.997 499.23 350.513 515.258C312.947 530.903 276.512 544.003 247.92 552.145C231.974 556.686 212.882 561.247 200.533 561.247ZM166.733 552.642C177.002 552.642 185.532 553.936 190.998 557.712C196.956 561.739 217.012 559.185 247.464 550.514C275.995 542.389 312.364 529.311 349.872 513.69C414.584 486.739 496.863 445.789 515.774 419.08C520.786 412.001 520.795 406.698 515.8 402.87C498.482 391.505 479.927 385.331 463.556 379.885C435.455 370.536 411.187 362.461 403.342 332.376L403.342 332.377C400.72 322.366 395.745 315.892 388.132 312.586C362.196 301.323 305.985 327.267 217.646 375.888C210.332 380.886 199.74 387.328 187.478 394.787C180.805 398.846 173.905 403.043 166.7 407.509C123.65 436.238 75.3461 495.323 65.3806 531.458C62.4613 540.161 62.7395 546.488 66.2182 550.846C74.9355 561.767 102.928 558.613 129.999 555.562C143.136 554.081 155.901 552.642 166.733 552.642Z" fill="url(#paint3_linear_15_1646)"/>
</mask>
<g mask="url(#mask3_15_1646)">
<path d="M200.533 561.247C195.935 561.247 192.274 560.615 190.055 559.115C179.332 551.707 154.347 554.523 130.185 557.247C102.664 560.35 74.2055 563.556 64.9088 551.909C61.041 547.064 60.6702 540.21 63.7747 530.959C73.815 494.549 122.448 435.007 165.796 406.081C173.03 401.595 179.934 397.395 186.61 393.335C198.87 385.878 209.458 379.437 216.737 374.462L216.806 374.42C268.003 346.24 300.78 329.941 326.403 319.921C356.149 308.287 375.974 305.461 388.796 311.028C396.916 314.554 402.205 321.396 404.967 331.944L404.967 331.945C412.58 361.14 436.447 369.08 464.083 378.275C480.551 383.754 499.216 389.964 516.766 401.485C522.604 405.956 522.713 412.195 517.141 420.065C508.851 431.774 487.276 447.527 454.748 465.62C426.015 481.601 388.997 499.23 350.513 515.258C312.947 530.903 276.512 544.003 247.92 552.145C231.974 556.686 212.882 561.247 200.533 561.247ZM166.733 552.642C177.002 552.642 185.532 553.936 190.998 557.712C196.956 561.739 217.012 559.185 247.464 550.514C275.995 542.389 312.364 529.311 349.872 513.69C414.584 486.739 496.863 445.789 515.774 419.08C520.786 412.001 520.795 406.698 515.8 402.87C498.482 391.505 479.927 385.331 463.556 379.885C435.455 370.536 411.187 362.461 403.342 332.376L403.342 332.377C400.72 322.366 395.745 315.892 388.132 312.586C362.196 301.323 305.985 327.267 217.646 375.888C210.332 380.886 199.74 387.328 187.478 394.787C180.805 398.846 173.905 403.043 166.7 407.509C123.65 436.238 75.3461 495.323 65.3806 531.458C62.4613 540.161 62.7395 546.488 66.2182 550.846C74.9355 561.767 102.928 558.613 129.999 555.562C143.136 554.081 155.901 552.642 166.733 552.642Z" fill="#005E9E"/>
</g>
<mask id="mask4_15_1646" style="mask-type:alpha" maskUnits="userSpaceOnUse" x="82" y="324" width="406" height="231">
<path d="M205.509 554.426C201.611 554.426 198.483 553.901 196.531 552.658C186.926 546.344 164.949 548.784 143.696 551.143C119.055 553.878 93.5758 556.707 85.1833 546.276C81.7316 541.985 81.3377 535.952 83.9792 527.831C87.7388 511.935 99.8486 488.948 116.355 466.405C133.907 442.434 154.168 422.106 171.942 410.634L177.186 407.604C193.848 397.988 209.587 388.906 218.967 381.886L219.054 381.829C305.946 333.376 348.25 318.132 369.941 327.461C377.621 330.764 382.618 337.165 385.216 347.028L385.216 347.029C392.034 373.076 413.109 380.387 437.51 388.854C451.903 393.848 468.217 399.507 483.542 409.75L483.608 409.799C488.983 414.275 488.898 420.46 483.357 428.183C465.493 453.078 395.843 488.692 336.618 513.72C304.014 527.499 272.268 539.068 247.23 546.295C233.212 550.343 216.372 554.426 205.509 554.426ZM176.037 547.038C185.019 547.038 192.505 548.138 197.372 551.337C208.052 558.132 266.365 541.707 336.016 512.273C369.582 498.088 401.893 482.436 426.996 468.199C455.374 452.106 474.427 437.95 482.096 427.262C487.128 420.249 487.309 414.941 482.648 411.036C467.498 400.917 451.299 395.298 437.004 390.338C412.18 381.726 390.742 374.287 383.712 347.43L383.712 347.431C381.245 338.066 376.541 332.006 369.33 328.905C344.9 318.397 291.911 342.999 219.853 383.178C210.393 390.249 194.638 399.341 177.959 408.967L172.749 411.976C155.161 423.329 135.05 443.515 117.607 467.338C101.218 489.72 89.2067 512.494 85.4755 528.258C82.9945 535.894 83.3002 541.444 86.3917 545.286C94.2492 555.053 119.3 552.272 143.526 549.583C155.152 548.292 166.447 547.038 176.037 547.038Z" fill="url(#paint4_linear_15_1646)"/>
</mask>
<g mask="url(#mask4_15_1646)">
<path d="M205.509 554.426C201.611 554.426 198.483 553.901 196.531 552.658C186.926 546.344 164.949 548.784 143.696 551.143C119.055 553.878 93.5758 556.707 85.1833 546.276C81.7316 541.985 81.3377 535.952 83.9792 527.831C87.7388 511.935 99.8486 488.948 116.355 466.405C133.907 442.434 154.168 422.106 171.942 410.634L177.186 407.604C193.848 397.988 209.587 388.906 218.967 381.886L219.054 381.829C305.946 333.376 348.25 318.132 369.941 327.461C377.621 330.764 382.618 337.165 385.216 347.028L385.216 347.029C392.034 373.076 413.109 380.387 437.51 388.854C451.903 393.848 468.217 399.507 483.542 409.75L483.608 409.799C488.983 414.275 488.898 420.46 483.357 428.183C465.493 453.078 395.843 488.692 336.618 513.72C304.014 527.499 272.268 539.068 247.23 546.295C233.212 550.343 216.372 554.426 205.509 554.426ZM176.037 547.038C185.019 547.038 192.505 548.138 197.372 551.337C208.052 558.132 266.365 541.707 336.016 512.273C369.582 498.088 401.893 482.436 426.996 468.199C455.374 452.106 474.427 437.95 482.096 427.262C487.128 420.249 487.309 414.941 482.648 411.036C467.498 400.917 451.299 395.298 437.004 390.338C412.18 381.726 390.742 374.287 383.712 347.43L383.712 347.431C381.245 338.066 376.541 332.006 369.33 328.905C344.9 318.397 291.911 342.999 219.853 383.178C210.393 390.249 194.638 399.341 177.959 408.967L172.749 411.976C155.161 423.329 135.05 443.515 117.607 467.338C101.218 489.72 89.2067 512.494 85.4755 528.258C82.9945 535.894 83.3002 541.444 86.3917 545.286C94.2492 555.053 119.3 552.272 143.526 549.583C155.152 548.292 166.447 547.038 176.037 547.038Z" fill="#005E9E"/>
</g>
<mask id="mask5_15_1646" style="mask-type:alpha" maskUnits="userSpaceOnUse" x="102" y="341" width="352" height="207">
<path d="M210.551 547.625C207.226 547.625 204.664 547.174 203.01 546.202C194.526 540.977 175.563 543.042 157.224 545.039C135.458 547.409 112.95 549.86 105.457 540.643C102.427 536.915 102.006 531.715 104.171 524.745C109.519 496.292 143.645 436.464 178.09 415.186C194.591 406.477 211.475 397.328 221.201 389.309L221.303 389.239C292.332 348.957 331.125 335.375 351.011 343.821C358.292 346.914 363.02 352.896 365.464 362.112L365.464 362.113C371.489 385.014 389.769 391.699 410.934 399.44C423.253 403.946 437.216 409.053 450.318 418.016L450.398 418.08C455.361 422.634 455.071 428.802 449.535 436.415C432.99 459.166 373.2 490.476 322.762 512.192C280.285 530.481 231.025 547.625 210.551 547.625ZM185.363 541.431C193.05 541.431 199.483 542.338 203.743 544.961C213.356 550.614 263.18 536.274 322.2 510.864C372.463 489.223 432.006 458.077 448.38 435.56C453.467 428.566 453.824 423.208 449.472 419.182C436.53 410.338 422.673 405.27 410.446 400.798C388.903 392.919 370.297 386.114 364.081 362.483L364.081 362.485C361.758 353.729 357.302 348.06 350.456 345.152C331.027 336.9 292.627 350.451 222.058 390.467C212.221 398.562 195.293 407.737 178.796 416.441C144.685 437.515 110.846 496.866 105.57 525.055L105.55 525.138C103.527 531.627 103.859 536.399 106.564 539.727C113.567 548.34 135.683 545.931 157.07 543.603C167.187 542.502 177.014 541.431 185.363 541.431Z" fill="url(#paint5_linear_15_1646)"/>
</mask>
<g mask="url(#mask5_15_1646)">
<path d="M210.551 547.625C207.226 547.625 204.664 547.174 203.01 546.202C194.526 540.977 175.563 543.042 157.224 545.039C135.458 547.409 112.95 549.86 105.457 540.643C102.427 536.915 102.006 531.715 104.171 524.745C109.519 496.292 143.645 436.464 178.09 415.186C194.591 406.477 211.475 397.328 221.201 389.309L221.303 389.239C292.332 348.957 331.125 335.375 351.011 343.821C358.292 346.914 363.02 352.896 365.464 362.112L365.464 362.113C371.489 385.014 389.769 391.699 410.934 399.44C423.253 403.946 437.216 409.053 450.318 418.016L450.398 418.08C455.361 422.634 455.071 428.802 449.535 436.415C432.99 459.166 373.2 490.476 322.762 512.192C280.285 530.481 231.025 547.625 210.551 547.625ZM185.363 541.431C193.05 541.431 199.483 542.338 203.743 544.961C213.356 550.614 263.18 536.274 322.2 510.864C372.463 489.223 432.006 458.077 448.38 435.56C453.467 428.566 453.824 423.208 449.472 419.182C436.53 410.338 422.673 405.27 410.446 400.798C388.903 392.919 370.297 386.114 364.081 362.483L364.081 362.485C361.758 353.729 357.302 348.06 350.456 345.152C331.027 336.9 292.627 350.451 222.058 390.467C212.221 398.562 195.293 407.737 178.796 416.441C144.685 437.515 110.846 496.866 105.57 525.055L105.55 525.138C103.527 531.627 103.859 536.399 106.564 539.727C113.567 548.34 135.683 545.931 157.07 543.603C167.187 542.502 177.014 541.431 185.363 541.431Z" fill="#005E9E"/>
</g>
<mask id="mask6_15_1646" style="mask-type:alpha" maskUnits="userSpaceOnUse" x="123" y="357" width="298" height="184">
<path d="M215.585 540.825C212.956 540.825 210.891 540.482 209.492 539.745C202.136 535.608 186.196 537.299 170.781 538.935C151.88 540.94 132.334 543.016 125.731 535.012C123.154 531.888 122.697 527.387 124.373 521.632C127.434 496.857 154.782 436.868 184.24 419.737C196.565 413.993 213.975 405.392 223.438 396.733L223.551 396.649C279.519 364.177 313.968 352.552 331.966 360.068C338.81 362.926 343.435 368.688 345.713 377.195L345.714 377.197C350.946 396.953 366.426 403.017 384.351 410.037C394.599 414.051 406.214 418.6 417.096 426.283L417.188 426.362C421.738 431.049 421.228 437.254 415.673 444.802C408.894 454.014 394.85 465.044 373.929 477.587C355.658 488.542 333.199 499.982 308.98 510.67C273.828 526.184 232.744 540.825 215.585 540.825ZM194.724 535.823C201.101 535.823 206.47 536.536 210.113 538.585C218.656 543.085 260.021 530.838 308.456 509.462C371.793 481.51 404.827 457.327 414.623 444.017C419.719 437.092 420.282 431.477 416.296 427.328C405.56 419.759 394.537 415.441 383.878 411.266C365.621 404.116 349.854 397.94 344.451 377.538C342.254 369.334 338.007 364.018 331.466 361.286C313.882 353.946 279.816 365.534 224.264 397.757C214.656 406.521 197.168 415.165 184.841 420.907C155.739 437.833 128.664 497.33 125.664 521.847L125.642 521.954C124.057 527.36 124.415 531.356 126.736 534.169C132.892 541.629 152.083 539.592 170.644 537.624C179.255 536.71 187.616 535.823 194.724 535.823Z" fill="url(#paint6_linear_15_1646)"/>
</mask>
<g mask="url(#mask6_15_1646)">
<path d="M215.585 540.825C212.956 540.825 210.891 540.482 209.492 539.745C202.136 535.608 186.196 537.299 170.781 538.935C151.88 540.94 132.334 543.016 125.731 535.012C123.154 531.888 122.697 527.387 124.373 521.632C127.434 496.857 154.782 436.868 184.24 419.737C196.565 413.993 213.975 405.392 223.438 396.733L223.551 396.649C279.519 364.177 313.968 352.552 331.966 360.068C338.81 362.926 343.435 368.688 345.713 377.195L345.714 377.197C350.946 396.953 366.426 403.017 384.351 410.037C394.599 414.051 406.214 418.6 417.096 426.283L417.188 426.362C421.738 431.049 421.228 437.254 415.673 444.802C408.894 454.014 394.85 465.044 373.929 477.587C355.658 488.542 333.199 499.982 308.98 510.67C273.828 526.184 232.744 540.825 215.585 540.825ZM194.724 535.823C201.101 535.823 206.47 536.536 210.113 538.585C218.656 543.085 260.021 530.838 308.456 509.462C371.793 481.51 404.827 457.327 414.623 444.017C419.719 437.092 420.282 431.477 416.296 427.328C405.56 419.759 394.537 415.441 383.878 411.266C365.621 404.116 349.854 397.94 344.451 377.538C342.254 369.334 338.007 364.018 331.466 361.286C313.882 353.946 279.816 365.534 224.264 397.757C214.656 406.521 197.168 415.165 184.841 420.907C155.739 437.833 128.664 497.33 125.664 521.847L125.642 521.954C124.057 527.36 124.415 531.356 126.736 534.169C132.892 541.629 152.083 539.592 170.644 537.624C179.255 536.71 187.616 535.823 194.724 535.823Z" fill="#005E9E"/>
</g>
<mask id="mask7_15_1646" style="mask-type:alpha" maskUnits="userSpaceOnUse" x="143" y="374" width="244" height="161">
<path d="M163.627 534.305C155.705 534.305 149.181 533.152 146.003 529.384C143.836 526.816 143.355 523.162 144.574 518.524C145.337 497.226 165.349 437.614 190.393 424.288L190.457 424.259C207.127 417.786 218.977 411.023 225.678 404.155L225.798 404.06C267.558 379.034 296.802 369.632 312.723 376.117C319.33 378.809 323.784 384.246 325.962 392.278L325.963 392.281C330.403 408.896 343.079 414.343 357.757 420.651C365.937 424.167 375.208 428.151 383.875 434.551L383.976 434.646C388.107 439.551 387.366 445.863 381.774 453.407C370.37 468.793 338.055 489.631 295.331 509.15C277.429 517.328 259.661 524.293 245.299 528.761C234.687 532.063 220.985 535.531 215.978 533.289C209.763 530.232 196.865 531.553 184.39 532.83C177.242 533.562 169.984 534.305 163.627 534.305ZM190.914 425.359C176.396 433.109 164.933 456.068 159.39 469.069C151.745 487.004 146.137 507.385 145.754 518.633L145.734 518.767C144.584 523.095 144.966 526.315 146.904 528.611C152.228 534.923 168.518 533.256 184.271 531.643C197.492 530.289 209.979 529.011 216.477 532.208C231.971 539.137 355.002 487.535 380.827 452.693C386.023 445.683 386.794 439.889 383.119 435.472C374.58 429.178 365.793 425.402 357.293 421.749C342.332 415.319 329.41 409.766 324.82 392.591C322.745 384.939 318.526 379.768 312.28 377.223C296.73 370.888 267.857 380.25 226.467 405.047C219.643 412.013 207.681 418.847 190.914 425.359Z" fill="url(#paint7_linear_15_1646)"/>
</mask>
<g mask="url(#mask7_15_1646)">
<path d="M163.627 534.305C155.705 534.305 149.181 533.152 146.003 529.384C143.836 526.816 143.355 523.162 144.574 518.524C145.337 497.226 165.349 437.614 190.393 424.288L190.457 424.259C207.127 417.786 218.977 411.023 225.678 404.155L225.798 404.06C267.558 379.034 296.802 369.632 312.723 376.117C319.33 378.809 323.784 384.246 325.962 392.278L325.963 392.281C330.403 408.896 343.079 414.343 357.757 420.651C365.937 424.167 375.208 428.151 383.875 434.551L383.976 434.646C388.107 439.551 387.366 445.863 381.774 453.407C370.37 468.793 338.055 489.631 295.331 509.15C277.429 517.328 259.661 524.293 245.299 528.761C234.687 532.063 220.985 535.531 215.978 533.289C209.763 530.232 196.865 531.553 184.39 532.83C177.242 533.562 169.984 534.305 163.627 534.305ZM190.914 425.359C176.396 433.109 164.933 456.068 159.39 469.069C151.745 487.004 146.137 507.385 145.754 518.633L145.734 518.767C144.584 523.095 144.966 526.315 146.904 528.611C152.228 534.923 168.518 533.256 184.271 531.643C197.492 530.289 209.979 529.011 216.477 532.208C231.971 539.137 355.002 487.535 380.827 452.693C386.023 445.683 386.794 439.889 383.119 435.472C374.58 429.178 365.793 425.402 357.293 421.749C342.332 415.319 329.41 409.766 324.82 392.591C322.745 384.939 318.526 379.768 312.28 377.223C296.73 370.888 267.857 380.25 226.467 405.047C219.643 412.013 207.681 418.847 190.914 425.359Z" fill="#005E9E"/>
</g>
<mask id="mask8_15_1646" style="mask-type:alpha" maskUnits="userSpaceOnUse" x="164" y="390" width="189" height="138">
<path d="M181.262 527.857C174.572 527.857 169.026 526.908 166.275 523.765C164.515 521.754 164.011 518.948 164.777 515.424C163.934 506.076 167.159 486.293 172.296 469.332C176.151 456.606 184.428 434.423 196.552 428.837L196.626 428.809C204.797 426.456 219.729 421.087 227.924 411.576L228.043 411.473C256.972 393.25 279.476 386.444 293.123 391.792C299.664 394.356 304.068 399.594 306.211 407.362L306.211 407.364C309.862 420.843 319.724 425.688 331.143 431.297C337.56 434.45 344.196 437.71 350.657 442.822L350.762 442.933C354.462 448.192 353.492 454.717 347.878 462.327C338.173 475.485 313.519 492.416 281.93 507.62C254.107 521.011 229.098 529.091 222.473 526.833C217.428 524.844 208.043 525.756 198.108 526.723C192.322 527.286 186.448 527.857 181.262 527.857ZM196.956 429.825C176.754 439.199 164.321 499.179 165.838 515.408L165.846 515.492L165.828 515.575C165.105 518.83 165.51 521.278 167.069 523.059C171.594 528.229 185.022 526.922 198.007 525.66C208.072 524.682 217.578 523.758 222.835 525.83C229.103 527.965 254.321 519.725 281.474 506.657C312.916 491.524 337.422 474.714 347.029 461.69C352.315 454.524 353.295 448.443 349.943 443.613C343.589 438.6 337.027 435.376 330.679 432.257C319.03 426.534 308.969 421.592 305.191 407.648C303.142 400.222 298.953 395.222 292.74 392.787C279.427 387.57 257.273 394.331 228.671 412.337C220.299 422.003 205.231 427.438 196.956 429.825Z" fill="url(#paint8_linear_15_1646)"/>
</mask>
<g mask="url(#mask8_15_1646)">
<path d="M181.262 527.857C174.572 527.857 169.026 526.908 166.275 523.765C164.515 521.754 164.011 518.948 164.777 515.424C163.934 506.076 167.159 486.293 172.296 469.332C176.151 456.606 184.428 434.423 196.552 428.837L196.626 428.809C204.797 426.456 219.729 421.087 227.924 411.576L228.043 411.473C256.972 393.25 279.476 386.444 293.123 391.792C299.664 394.356 304.068 399.594 306.211 407.362L306.211 407.364C309.862 420.843 319.724 425.688 331.143 431.297C337.56 434.45 344.196 437.71 350.657 442.822L350.762 442.933C354.462 448.192 353.492 454.717 347.878 462.327C338.173 475.485 313.519 492.416 281.93 507.62C254.107 521.011 229.098 529.091 222.473 526.833C217.428 524.844 208.043 525.756 198.108 526.723C192.322 527.286 186.448 527.857 181.262 527.857ZM196.956 429.825C176.754 439.199 164.321 499.179 165.838 515.408L165.846 515.492L165.828 515.575C165.105 518.83 165.51 521.278 167.069 523.059C171.594 528.229 185.022 526.922 198.007 525.66C208.072 524.682 217.578 523.758 222.835 525.83C229.103 527.965 254.321 519.725 281.474 506.657C312.916 491.524 337.422 474.714 347.029 461.69C352.315 454.524 353.295 448.443 349.943 443.613C343.589 438.6 337.027 435.376 330.679 432.257C319.03 426.534 308.969 421.592 305.191 407.648C303.142 400.222 298.953 395.222 292.74 392.787C279.427 387.57 257.273 394.331 228.671 412.337C220.299 422.003 205.231 427.438 196.956 429.825Z" fill="#005E9E"/>
</g>
<mask id="mask9_15_1646" style="mask-type:alpha" maskUnits="userSpaceOnUse" x="183" y="405" width="137" height="117">
<path d="M198.995 521.423C193.513 521.423 188.916 520.677 186.553 518.166C185.192 516.72 184.664 514.76 184.984 512.339C182.959 505.261 183.532 486.743 186.297 470.064C191.037 441.479 198.622 434.814 202.722 433.384L202.804 433.364C214.544 431.56 224.776 426.188 230.174 418.994L230.284 418.889C252.092 403.907 265.498 403.986 272.905 406.692C279.54 409.115 284.227 414.562 286.459 422.445L286.46 422.447C289.326 432.8 296.349 437.066 304.481 442.005C308.753 444.6 313.17 447.283 317.444 451.098L317.543 451.221C320.794 457.095 319.632 464.014 314.089 471.784C296.001 497.139 239.24 522.324 228.98 520.374C225.188 519.427 218.839 519.999 212.119 520.606C207.625 521.012 203.066 521.423 198.995 521.423ZM202.987 434.289C196.361 436.642 190.615 449.732 187.218 470.219C184.46 486.856 183.884 505.283 185.908 512.169L185.936 512.268L185.922 512.37C185.612 514.569 186.04 516.253 187.23 517.517C191.037 521.563 202.193 520.556 212.035 519.668C218.836 519.053 225.26 518.473 229.179 519.454C234.336 520.428 251.266 514.323 268.544 505.243C289.413 494.275 305.737 481.879 313.331 471.234C318.622 463.818 319.777 457.263 316.766 451.75C312.574 448.02 308.215 445.373 303.999 442.812C295.698 437.769 288.527 433.414 285.561 422.702C283.415 415.123 278.928 409.893 272.587 407.577C265.393 404.951 252.317 404.911 230.872 419.625C225.326 426.969 214.911 432.447 202.987 434.289Z" fill="url(#paint9_linear_15_1646)"/>
</mask>
<g mask="url(#mask9_15_1646)">
<path d="M198.995 521.423C193.513 521.423 188.916 520.677 186.553 518.166C185.192 516.72 184.664 514.76 184.984 512.339C182.959 505.261 183.532 486.743 186.297 470.064C191.037 441.479 198.622 434.814 202.722 433.384L202.804 433.364C214.544 431.56 224.776 426.188 230.174 418.994L230.284 418.889C252.092 403.907 265.498 403.986 272.905 406.692C279.54 409.115 284.227 414.562 286.459 422.445L286.46 422.447C289.326 432.8 296.349 437.066 304.481 442.005C308.753 444.6 313.17 447.283 317.444 451.098L317.543 451.221C320.794 457.095 319.632 464.014 314.089 471.784C296.001 497.139 239.24 522.324 228.98 520.374C225.188 519.427 218.839 519.999 212.119 520.606C207.625 521.012 203.066 521.423 198.995 521.423ZM202.987 434.289C196.361 436.642 190.615 449.732 187.218 470.219C184.46 486.856 183.884 505.283 185.908 512.169L185.936 512.268L185.922 512.37C185.612 514.569 186.04 516.253 187.23 517.517C191.037 521.563 202.193 520.556 212.035 519.668C218.836 519.053 225.26 518.473 229.179 519.454C234.336 520.428 251.266 514.323 268.544 505.243C289.413 494.275 305.737 481.879 313.331 471.234C318.622 463.818 319.777 457.263 316.766 451.75C312.574 448.02 308.215 445.373 303.999 442.812C295.698 437.769 288.527 433.414 285.561 422.702C283.415 415.123 278.928 409.893 272.587 407.577C265.393 404.951 252.317 404.911 230.872 419.625C225.326 426.969 214.911 432.447 202.987 434.289Z" fill="#005E9E"/>
</g>
<mask id="mask10_15_1646" style="mask-type:alpha" maskUnits="userSpaceOnUse" x="200" y="419" width="86" height="97">
<path d="M217.079 515.026C212.769 515.026 209 514.484 206.899 512.662C205.889 511.786 205.321 510.649 205.212 509.283C199.605 500.426 198.058 456.653 204.288 442.639C205.558 439.781 207.116 438.197 208.918 437.932L208.954 437.927L208.991 437.929C216.223 438.183 226.705 435.33 232.43 426.409L232.513 426.316C239.74 420.315 246.443 418.208 252.436 420.051C258.708 421.981 264.043 428.514 266.708 437.526L266.708 437.529C268.797 444.766 273.107 448.693 277.67 452.85C279.847 454.833 282.097 456.884 284.246 459.393L284.316 459.51C287.138 466.737 285.905 474.526 280.649 482.661C269.376 500.106 243.151 513.591 235.506 513.902C233.399 513.876 230.568 514.123 227.573 514.39C224.102 514.699 220.427 515.026 217.079 515.026ZM209 438.746C207.504 438.984 206.167 440.406 205.026 442.973C202.187 449.36 200.747 462.571 201.174 478.312C201.568 492.863 203.486 505.165 205.945 508.924L206.005 509.015L206.012 509.123C206.086 510.327 206.549 511.282 207.427 512.044C210.9 515.055 220.105 514.236 227.502 513.577C230.518 513.308 233.371 513.056 235.496 513.086C242.994 512.78 268.83 499.457 279.971 482.215C285.059 474.339 286.276 466.822 283.588 459.874C281.486 457.427 279.27 455.409 277.127 453.456C272.477 449.219 268.084 445.216 265.931 437.758C263.344 429.009 258.211 422.682 252.199 420.832C246.495 419.076 240.061 421.121 233.075 426.906C227.168 436.056 216.434 438.997 209 438.746Z" fill="url(#paint10_linear_15_1646)"/>
</mask>
<g mask="url(#mask10_15_1646)">
<path d="M217.079 515.026C212.769 515.026 209 514.484 206.899 512.662C205.889 511.786 205.321 510.649 205.212 509.283C199.605 500.426 198.058 456.653 204.288 442.639C205.558 439.781 207.116 438.197 208.918 437.932L208.954 437.927L208.991 437.929C216.223 438.183 226.705 435.33 232.43 426.409L232.513 426.316C239.74 420.315 246.443 418.208 252.436 420.051C258.708 421.981 264.043 428.514 266.708 437.526L266.708 437.529C268.797 444.766 273.107 448.693 277.67 452.85C279.847 454.833 282.097 456.884 284.246 459.393L284.316 459.51C287.138 466.737 285.905 474.526 280.649 482.661C269.376 500.106 243.151 513.591 235.506 513.902C233.399 513.876 230.568 514.123 227.573 514.39C224.102 514.699 220.427 515.026 217.079 515.026ZM209 438.746C207.504 438.984 206.167 440.406 205.026 442.973C202.187 449.36 200.747 462.571 201.174 478.312C201.568 492.863 203.486 505.165 205.945 508.924L206.005 509.015L206.012 509.123C206.086 510.327 206.549 511.282 207.427 512.044C210.9 515.055 220.105 514.236 227.502 513.577C230.518 513.308 233.371 513.056 235.496 513.086C242.994 512.78 268.83 499.457 279.971 482.215C285.059 474.339 286.276 466.822 283.588 459.874C281.486 457.427 279.27 455.409 277.127 453.456C272.477 449.219 268.084 445.216 265.931 437.758C263.344 429.009 258.211 422.682 252.199 420.832C246.495 419.076 240.061 421.121 233.075 426.906C227.168 436.056 216.434 438.997 209 438.746Z" fill="#005E9E"/>
</g>
<mask id="mask11_15_1646" style="mask-type:alpha" maskUnits="userSpaceOnUse" x="212" y="431" width="42" height="78">
<path d="M235 508.813C231.185 508.813 227.682 507.697 225.567 506.282C221.386 503.485 217.402 488.72 215.068 475.836C212.791 463.265 211.255 447.817 213.264 443.606C213.88 442.314 214.731 442.369 215.184 442.515C221.276 444.492 229.979 442.613 234.691 433.819C235.553 432.21 236.502 431.45 237.522 431.551C240.738 431.882 243.51 441.16 245.736 448.616C246.177 450.092 246.585 451.458 246.954 452.605C257.979 486.812 252.137 500.242 245.295 505.485C242.139 507.904 238.442 508.813 235 508.813ZM214.725 443.128C214.47 443.128 214.176 443.285 213.881 443.905C212.243 447.34 213.025 460.716 215.742 475.711C218.643 491.727 222.648 503.5 225.945 505.707C229.805 508.289 238.493 509.83 244.881 504.935C251.546 499.828 257.204 486.64 246.303 452.818C245.932 451.668 245.523 450.297 245.08 448.815C243.143 442.327 240.214 432.522 237.453 432.239C236.737 432.161 236.012 432.807 235.294 434.148C230.396 443.289 221.328 445.233 214.974 443.172C214.897 443.147 214.813 443.128 214.725 443.128Z" fill="url(#paint11_linear_15_1646)"/>
</mask>
<g mask="url(#mask11_15_1646)">
<path d="M235 508.813C231.185 508.813 227.682 507.697 225.567 506.282C221.386 503.485 217.402 488.72 215.068 475.836C212.791 463.265 211.255 447.817 213.264 443.606C213.88 442.314 214.731 442.369 215.184 442.515C221.276 444.492 229.979 442.613 234.691 433.819C235.553 432.21 236.502 431.45 237.522 431.551C240.738 431.882 243.51 441.16 245.736 448.616C246.177 450.092 246.585 451.458 246.954 452.605C257.979 486.812 252.137 500.242 245.295 505.485C242.139 507.904 238.442 508.813 235 508.813ZM214.725 443.128C214.47 443.128 214.176 443.285 213.881 443.905C212.243 447.34 213.025 460.716 215.742 475.711C218.643 491.727 222.648 503.5 225.945 505.707C229.805 508.289 238.493 509.83 244.881 504.935C251.546 499.828 257.204 486.64 246.303 452.818C245.932 451.668 245.523 450.297 245.08 448.815C243.143 442.327 240.214 432.522 237.453 432.239C236.737 432.161 236.012 432.807 235.294 434.148C230.396 443.289 221.328 445.233 214.974 443.172C214.897 443.147 214.813 443.128 214.725 443.128Z" fill="#005E9E"/>
</g>
</g>
<g opacity="0.5">
<mask id="mask12_15_1646" style="mask-type:alpha" maskUnits="userSpaceOnUse" x="304" y="0" width="443" height="247">
<path d="M464.521 246.016C461.235 246.016 457.937 245.718 454.621 245.125C437.031 241.977 421.772 230.942 407.903 219.485C398.062 211.357 375.237 212.724 353.165 214.048C331.26 215.36 310.571 216.601 305.359 207.698C302.799 203.325 304.131 197.085 309.431 188.621C350.005 123.834 428.684 78.6006 487.542 52.0632C553.867 22.1602 622.05 3.88945 655.125 1.2962C697.225 -2.00384 741.679 0.589307 746.08 13.8241C747.693 18.6746 743.785 24.1865 734.464 30.2072C699.357 52.8862 558.57 179.565 516.176 220.853C498.86 237.718 481.869 246.015 464.521 246.016ZM377.615 210.976C390.957 210.976 402.614 212.438 409.204 217.882C422.858 229.16 437.854 240.019 454.979 243.084C475.111 246.688 494.66 238.927 514.749 219.363C557.185 178.034 698.159 51.1996 733.357 28.4622C741.663 23.0967 745.389 18.2628 744.132 14.4831C740.736 4.2695 703.37 -0.408564 655.284 3.36232C622.386 5.94128 554.492 24.148 488.381 53.955C429.781 80.3759 351.468 125.378 311.168 189.728C306.386 197.364 305.027 203.055 307.128 206.644C311.701 214.457 331.782 213.253 353.043 211.979C361.357 211.481 369.777 210.976 377.615 210.976Z" fill="url(#paint12_linear_15_1646)"/>
</mask>
<g mask="url(#mask12_15_1646)">
<path d="M464.521 246.016C461.235 246.016 457.937 245.718 454.621 245.125C437.031 241.977 421.772 230.942 407.903 219.485C398.062 211.357 375.237 212.724 353.165 214.048C331.26 215.36 310.571 216.601 305.359 207.698C302.799 203.325 304.131 197.085 309.431 188.621C350.005 123.834 428.684 78.6006 487.542 52.0632C553.867 22.1602 622.05 3.88945 655.125 1.2962C697.225 -2.00384 741.679 0.589307 746.08 13.8241C747.693 18.6746 743.785 24.1865 734.464 30.2072C699.357 52.8862 558.57 179.565 516.176 220.853C498.86 237.718 481.869 246.015 464.521 246.016ZM377.615 210.976C390.957 210.976 402.614 212.438 409.204 217.882C422.858 229.16 437.854 240.019 454.979 243.084C475.111 246.688 494.66 238.927 514.749 219.363C557.185 178.034 698.159 51.1996 733.357 28.4622C741.663 23.0967 745.389 18.2628 744.132 14.4831C740.736 4.2695 703.37 -0.408564 655.284 3.36232C622.386 5.94128 554.492 24.148 488.381 53.955C429.781 80.3759 351.468 125.378 311.168 189.728C306.386 197.364 305.027 203.055 307.128 206.644C311.701 214.457 331.782 213.253 353.043 211.979C361.357 211.481 369.777 210.976 377.615 210.976Z" fill="#005E9E"/>
</g>
<mask id="mask13_15_1646" style="mask-type:alpha" maskUnits="userSpaceOnUse" x="319" y="7" width="412" height="230">
<path d="M468.985 236.031C465.923 236.031 462.849 235.752 459.758 235.194C443.543 232.273 429.334 222.029 416.396 211.394C407.224 203.857 385.972 205.181 365.42 206.464C345.041 207.735 325.791 208.935 320.934 200.673C318.552 196.62 319.779 190.83 324.686 182.973C362.343 122.673 435.49 80.5842 490.222 55.8945C551.92 28.0628 615.317 11.0849 646.056 8.69804C685.125 5.66231 726.371 8.11115 730.46 20.4216C731.962 24.9439 728.324 30.0786 719.647 35.6832C687.024 56.7559 556.228 174.385 516.845 212.72C500.794 228.343 485.052 236.03 468.985 236.031ZM388.597 203.531C400.851 203.531 411.537 204.89 417.615 209.885C443.68 231.309 474.888 250.855 515.505 211.319C554.927 172.947 685.898 55.1714 718.607 34.0442C726.332 29.0537 729.798 24.557 728.63 21.0397C725.478 11.5475 690.813 7.17367 646.204 10.6386C615.632 13.0126 552.507 29.9302 491.01 57.6715C436.522 82.2514 363.718 124.123 326.319 184.01C321.897 191.09 320.644 196.362 322.594 199.68C326.85 206.918 345.527 205.755 365.302 204.521C373.189 204.029 381.181 203.531 388.597 203.531Z" fill="url(#paint13_linear_15_1646)"/>
</mask>
<g mask="url(#mask13_15_1646)">
<path d="M468.985 236.031C465.923 236.031 462.849 235.752 459.758 235.194C443.543 232.273 429.334 222.029 416.396 211.394C407.224 203.857 385.972 205.181 365.42 206.464C345.041 207.735 325.791 208.935 320.934 200.673C318.552 196.62 319.779 190.83 324.686 182.973C362.343 122.673 435.49 80.5842 490.222 55.8945C551.92 28.0628 615.317 11.0849 646.056 8.69804C685.125 5.66231 726.371 8.11115 730.46 20.4216C731.962 24.9439 728.324 30.0786 719.647 35.6832C687.024 56.7559 556.228 174.385 516.845 212.72C500.794 228.343 485.052 236.03 468.985 236.031ZM388.597 203.531C400.851 203.531 411.537 204.89 417.615 209.885C443.68 231.309 474.888 250.855 515.505 211.319C554.927 172.947 685.898 55.1714 718.607 34.0442C726.332 29.0537 729.798 24.557 728.63 21.0397C725.478 11.5475 690.813 7.17367 646.204 10.6386C615.632 13.0126 552.507 29.9302 491.01 57.6715C436.522 82.2514 363.718 124.123 326.319 184.01C321.897 191.09 320.644 196.362 322.594 199.68C326.85 206.918 345.527 205.755 365.302 204.521C373.189 204.029 381.181 203.531 388.597 203.531Z" fill="#005E9E"/>
</g>
<mask id="mask14_15_1646" style="mask-type:alpha" maskUnits="userSpaceOnUse" x="335" y="15" width="381" height="212">
<path d="M473.45 226.046C470.61 226.046 467.762 225.785 464.896 225.264C449.315 222.434 436.076 212.445 424.89 203.303C416.386 196.357 396.708 197.64 377.677 198.88C358.003 200.161 341.011 201.269 336.511 193.648C334.305 189.915 335.428 184.575 339.943 177.325C374.682 121.512 442.298 82.5675 492.903 59.7255C549.972 33.9656 608.584 18.2803 636.988 16.0996C673.017 13.3317 711.066 15.6332 714.841 27.0188C716.232 31.2129 712.864 35.9703 704.83 41.159C674.685 60.6294 553.883 169.208 517.515 204.586C502.731 218.968 488.234 226.045 473.45 226.046ZM399.57 196.084C410.738 196.084 420.459 197.341 426.026 201.888C437.038 210.887 450.056 220.719 465.216 223.472C482.387 226.593 499.085 219.985 516.262 203.276C552.666 167.863 673.632 59.1467 703.857 39.6258C711.002 35.0108 714.209 30.851 713.129 27.5961C710.221 18.8263 678.254 14.7546 637.125 17.9154C608.877 20.084 550.521 35.7126 493.64 61.3876C443.263 84.1265 375.97 122.867 341.472 178.293V178.293C337.409 184.817 336.262 189.67 338.061 192.717C341.997 199.381 359.273 198.255 377.561 197.063C385.02 196.577 392.579 196.084 399.57 196.084Z" fill="url(#paint14_linear_15_1646)"/>
</mask>
<g mask="url(#mask14_15_1646)">
<path d="M473.45 226.046C470.61 226.046 467.762 225.785 464.896 225.264C449.315 222.434 436.076 212.445 424.89 203.303C416.386 196.357 396.708 197.64 377.677 198.88C358.003 200.161 341.011 201.269 336.511 193.648C334.305 189.915 335.428 184.575 339.943 177.325C374.682 121.512 442.298 82.5675 492.903 59.7255C549.972 33.9656 608.584 18.2803 636.988 16.0996C673.017 13.3317 711.066 15.6332 714.841 27.0188C716.232 31.2129 712.864 35.9703 704.83 41.159C674.685 60.6294 553.883 169.208 517.515 204.586C502.731 218.968 488.234 226.045 473.45 226.046ZM399.57 196.084C410.738 196.084 420.459 197.341 426.026 201.888C437.038 210.887 450.056 220.719 465.216 223.472C482.387 226.593 499.085 219.985 516.262 203.276C552.666 167.863 673.632 59.1467 703.857 39.6258C711.002 35.0108 714.209 30.851 713.129 27.5961C710.221 18.8263 678.254 14.7546 637.125 17.9154C608.877 20.084 550.521 35.7126 493.64 61.3876C443.263 84.1265 375.97 122.867 341.472 178.293V178.293C337.409 184.817 336.262 189.67 338.061 192.717C341.997 199.381 359.273 198.255 377.561 197.063C385.02 196.577 392.579 196.084 399.57 196.084Z" fill="#005E9E"/>
</g>
<mask id="mask15_15_1646" style="mask-type:alpha" maskUnits="userSpaceOnUse" x="351" y="22" width="349" height="195">
<path d="M477.914 216.061C475.298 216.061 472.673 215.818 470.033 215.334C455.897 212.742 443.703 203.589 433.384 195.212C425.548 188.857 407.442 190.097 389.933 191.297C371.85 192.535 356.232 193.604 352.086 186.624C350.058 183.21 351.076 178.32 355.198 171.677C387.02 120.351 449.104 84.5511 495.582 63.5567C548.024 39.8685 601.851 25.4756 627.919 23.501C660.914 20.9975 695.759 23.1543 699.222 33.6154C700.502 37.4814 697.403 41.862 690.013 46.6349C662.35 64.4996 551.541 164.029 518.184 196.453C504.665 209.594 491.418 216.061 477.914 216.061ZM410.527 188.636C420.616 188.636 429.379 189.789 434.437 193.891C444.596 202.137 456.586 211.145 470.334 213.666C486.029 216.541 501.296 210.513 517.017 195.232C550.408 162.776 661.371 63.1193 689.106 45.207C695.672 40.9673 698.618 37.1444 697.628 34.1523C694.963 26.1039 665.701 22.3361 628.045 25.1914C602.122 27.1552 548.535 41.4954 496.269 65.1039C450.004 86.0023 388.221 121.612 356.623 172.576C352.921 178.544 351.879 182.977 353.528 185.753C357.145 191.843 373.016 190.756 389.819 189.605C396.846 189.124 403.967 188.636 410.527 188.636Z" fill="url(#paint15_linear_15_1646)"/>
</mask>
<g mask="url(#mask15_15_1646)">
<path d="M477.914 216.061C475.298 216.061 472.673 215.818 470.033 215.334C455.897 212.742 443.703 203.589 433.384 195.212C425.548 188.857 407.442 190.097 389.933 191.297C371.85 192.535 356.232 193.604 352.086 186.624C350.058 183.21 351.076 178.32 355.198 171.677C387.02 120.351 449.104 84.5511 495.582 63.5567C548.024 39.8685 601.851 25.4756 627.919 23.501C660.914 20.9975 695.759 23.1543 699.222 33.6154C700.502 37.4814 697.403 41.862 690.013 46.6349C662.35 64.4996 551.541 164.029 518.184 196.453C504.665 209.594 491.418 216.061 477.914 216.061ZM410.527 188.636C420.616 188.636 429.379 189.789 434.437 193.891C444.596 202.137 456.586 211.145 470.334 213.666C486.029 216.541 501.296 210.513 517.017 195.232C550.408 162.776 661.371 63.1193 689.106 45.207C695.672 40.9673 698.618 37.1444 697.628 34.1523C694.963 26.1039 665.701 22.3361 628.045 25.1914C602.122 27.1552 548.535 41.4954 496.269 65.1039C450.004 86.0023 388.221 121.612 356.623 172.576C352.921 178.544 351.879 182.977 353.528 185.753C357.145 191.843 373.016 190.756 389.819 189.605C396.846 189.124 403.967 188.636 410.527 188.636Z" fill="#0056BB"/>
</g>
<mask id="mask16_15_1646" style="mask-type:alpha" maskUnits="userSpaceOnUse" x="366" y="30" width="318" height="177">
<path d="M482.378 206.076C479.985 206.076 477.585 205.852 475.171 205.405C462.482 203.052 451.332 194.734 441.877 187.122C434.71 181.359 418.176 182.556 402.189 183.713C385.696 184.908 371.451 185.94 367.661 179.599C365.811 176.505 366.724 172.066 370.454 166.028L370.453 166.029C399.359 119.19 455.911 86.5346 498.262 67.3877C546.076 45.7714 595.118 32.6711 618.85 30.9025C648.811 28.6652 680.452 30.6763 683.603 40.2122C684.771 43.7508 681.944 47.7541 675.195 52.1108C650.017 68.3695 549.199 158.85 518.853 188.319C506.6 200.219 494.6 206.076 482.378 206.076ZM421.469 181.187C430.485 181.187 438.296 182.234 442.848 185.895C463.945 202.879 487.109 216.969 517.773 187.188C548.15 157.689 649.11 67.0913 674.357 50.7888C680.341 46.9244 683.028 43.4385 682.126 40.7088C679.706 33.3824 653.144 29.9157 618.966 32.4681C595.368 34.2265 546.548 47.2779 498.899 68.82C456.745 87.8779 400.472 120.356 371.775 166.858L371.775 166.859C368.432 172.27 367.496 176.284 368.994 178.789C372.292 184.305 386.759 183.257 402.077 182.147C408.665 181.671 415.345 181.187 421.469 181.187Z" fill="url(#paint16_linear_15_1646)"/>
</mask>
<g mask="url(#mask16_15_1646)">
<path d="M482.378 206.076C479.985 206.076 477.585 205.852 475.171 205.405C462.482 203.052 451.332 194.734 441.877 187.122C434.71 181.359 418.176 182.556 402.189 183.713C385.696 184.908 371.451 185.94 367.661 179.599C365.811 176.505 366.724 172.066 370.454 166.028L370.453 166.029C399.359 119.19 455.911 86.5346 498.262 67.3877C546.076 45.7714 595.118 32.6711 618.85 30.9025C648.811 28.6652 680.452 30.6763 683.603 40.2122C684.771 43.7508 681.944 47.7541 675.195 52.1108C650.017 68.3695 549.199 158.85 518.853 188.319C506.6 200.219 494.6 206.076 482.378 206.076ZM421.469 181.187C430.485 181.187 438.296 182.234 442.848 185.895C463.945 202.879 487.109 216.969 517.773 187.188C548.15 157.689 649.11 67.0913 674.357 50.7888C680.341 46.9244 683.028 43.4385 682.126 40.7088C679.706 33.3824 653.144 29.9157 618.966 32.4681C595.368 34.2265 546.548 47.2779 498.899 68.82C456.745 87.8779 400.472 120.356 371.775 166.858L371.775 166.859C368.432 172.27 367.496 176.284 368.994 178.789C372.292 184.305 386.759 183.257 402.077 182.147C408.665 181.671 415.345 181.187 421.469 181.187Z" fill="#0056BB"/>
</g>
<mask id="mask17_15_1646" style="mask-type:alpha" maskUnits="userSpaceOnUse" x="382" y="37" width="287" height="160">
<path d="M486.842 196.092C484.672 196.092 482.497 195.886 480.309 195.474C469.07 193.361 459.357 186.193 450.372 179.031C443.872 173.859 428.238 175.065 414.444 176.131C399.542 177.282 386.672 178.275 383.237 172.575C381.564 169.8 382.373 165.811 385.71 160.38L385.71 160.381C411.697 118.03 462.718 88.5182 500.943 71.2186C544.128 51.6744 588.385 39.8665 609.783 38.304C636.705 36.3327 665.146 38.1974 667.984 46.809C669.042 50.0194 666.483 53.6456 660.378 57.5865C637.682 72.2398 546.856 153.671 519.522 180.185C508.535 190.844 497.782 196.091 486.842 196.092ZM432.391 173.735C440.341 173.735 447.212 174.677 451.259 177.898C460.104 184.948 469.653 192.002 480.571 194.054C493.304 196.45 505.72 191.571 518.529 179.145C545.891 152.602 636.848 71.0633 659.607 56.3704C665.011 52.881 667.438 49.732 666.625 47.2643C664.448 40.6594 640.584 37.4962 609.886 39.7448C588.613 41.2978 544.562 53.0605 501.529 72.5362C463.487 89.7533 412.724 119.101 386.927 161.141L386.927 161.141C383.944 165.997 383.114 169.592 384.46 171.825C387.438 176.767 400.503 175.759 414.335 174.69C420.479 174.216 426.711 173.735 432.391 173.735Z" fill="url(#paint17_linear_15_1646)"/>
</mask>
<g mask="url(#mask17_15_1646)">
<path d="M486.842 196.092C484.672 196.092 482.497 195.886 480.309 195.474C469.07 193.361 459.357 186.193 450.372 179.031C443.872 173.859 428.238 175.065 414.444 176.131C399.542 177.282 386.672 178.275 383.237 172.575C381.564 169.8 382.373 165.811 385.71 160.38L385.71 160.381C411.697 118.03 462.718 88.5182 500.943 71.2186C544.128 51.6744 588.385 39.8665 609.783 38.304C636.705 36.3327 665.146 38.1974 667.984 46.809C669.042 50.0194 666.483 53.6456 660.378 57.5865C637.682 72.2398 546.856 153.671 519.522 180.185C508.535 190.844 497.782 196.091 486.842 196.092ZM432.391 173.735C440.341 173.735 447.212 174.677 451.259 177.898C460.104 184.948 469.653 192.002 480.571 194.054C493.304 196.45 505.72 191.571 518.529 179.145C545.891 152.602 636.848 71.0633 659.607 56.3704C665.011 52.881 667.438 49.732 666.625 47.2643C664.448 40.6594 640.584 37.4962 609.886 39.7448C588.613 41.2978 544.562 53.0605 501.529 72.5362C463.487 89.7533 412.724 119.101 386.927 161.141L386.927 161.141C383.944 165.997 383.114 169.592 384.46 171.825C387.438 176.767 400.503 175.759 414.335 174.69C420.479 174.216 426.711 173.735 432.391 173.735Z" fill="#0056BB"/>
</g>
<mask id="mask18_15_1646" style="mask-type:alpha" maskUnits="userSpaceOnUse" x="398" y="45" width="255" height="142">
<path d="M491.305 186.107C489.359 186.107 487.407 185.919 485.446 185.544C475.654 183.672 467.285 177.568 458.865 170.941C453.034 166.359 439.043 167.521 426.7 168.549C413.388 169.655 401.891 170.612 398.811 165.552C397.317 163.096 398.021 159.557 400.965 154.733C424.035 116.869 469.524 90.5018 503.622 75.0499C542.179 57.5771 581.651 47.0621 600.714 45.7057C624.602 44.0008 649.84 45.7191 652.365 53.4056C653.312 56.2881 651.023 59.5376 645.561 63.063C625.35 76.1085 544.514 148.491 520.191 172.052C510.469 181.471 500.965 186.107 491.305 186.107ZM443.29 166.281C450.183 166.281 456.124 167.115 459.669 169.901C473.84 181.054 493.245 196.33 519.285 171.101C543.635 147.515 624.588 75.0344 644.856 61.9521C649.681 58.8378 651.848 56.0258 651.124 53.8201C649.191 47.9369 628.029 45.077 600.806 47.0209C581.858 48.3693 542.575 58.8433 504.158 76.2525C470.228 91.6286 424.975 117.846 402.079 155.424L402.079 155.424C399.455 159.723 398.73 162.899 399.925 164.862C402.585 169.231 414.248 168.262 426.593 167.234C432.285 166.761 438.061 166.281 443.29 166.281Z" fill="url(#paint18_linear_15_1646)"/>
</mask>
<g mask="url(#mask18_15_1646)">
<path d="M491.305 186.107C489.359 186.107 487.407 185.919 485.446 185.544C475.654 183.672 467.285 177.568 458.865 170.941C453.034 166.359 439.043 167.521 426.7 168.549C413.388 169.655 401.891 170.612 398.811 165.552C397.317 163.096 398.021 159.557 400.965 154.733C424.035 116.869 469.524 90.5018 503.622 75.0499C542.179 57.5771 581.651 47.0621 600.714 45.7057C624.602 44.0008 649.84 45.7191 652.365 53.4056C653.312 56.2881 651.023 59.5376 645.561 63.063C625.35 76.1085 544.514 148.491 520.191 172.052C510.469 181.471 500.965 186.107 491.305 186.107ZM443.29 166.281C450.183 166.281 456.124 167.115 459.669 169.901C473.84 181.054 493.245 196.33 519.285 171.101C543.635 147.515 624.588 75.0344 644.856 61.9521C649.681 58.8378 651.848 56.0258 651.124 53.8201C649.191 47.9369 628.029 45.077 600.806 47.0209C581.858 48.3693 542.575 58.8433 504.158 76.2525C470.228 91.6286 424.975 117.846 402.079 155.424L402.079 155.424C399.455 159.723 398.73 162.899 399.925 164.862C402.585 169.231 414.248 168.262 426.593 167.234C432.285 166.761 438.061 166.281 443.29 166.281Z" fill="#0056BB"/>
</g>
<mask id="mask19_15_1646" style="mask-type:alpha" maskUnits="userSpaceOnUse" x="413" y="52" width="224" height="125">
<path d="M495.744 176.08C484.44 176.082 475.048 168.805 467.36 162.85C462.196 158.86 449.849 159.98 438.956 160.968C427.234 162.03 417.11 162.949 414.386 158.529C413.068 156.392 413.669 153.303 416.221 149.085C436.373 115.709 476.331 92.4856 506.303 78.8807C540.231 63.4802 574.917 54.2578 591.646 53.107C612.501 51.6659 634.534 53.2399 636.746 60.0016C637.582 62.5567 635.563 65.4291 630.744 68.5387C613.014 79.9799 542.17 143.313 520.86 163.919C511.608 172.866 503.253 176.08 495.744 176.08ZM454.157 158.823C460.006 158.823 465.032 159.549 468.079 161.904C481.23 172.089 497.596 184.764 520.042 163.057C541.375 142.429 612.325 79.008 630.106 67.5337C634.351 64.7945 636.259 62.3193 635.623 60.3757C633.934 55.2136 615.473 52.6582 591.726 54.2976C575.103 55.4409 540.589 64.6258 506.788 79.9688C476.969 93.5041 437.226 116.59 417.231 149.706L417.23 149.706C414.966 153.45 414.346 156.206 415.39 157.899C417.73 161.695 427.989 160.764 438.85 159.779C444.08 159.305 449.392 158.823 454.157 158.823Z" fill="url(#paint19_linear_15_1646)"/>
</mask>
<g mask="url(#mask19_15_1646)">
<path d="M495.744 176.08C484.44 176.082 475.048 168.805 467.36 162.85C462.196 158.86 449.849 159.98 438.956 160.968C427.234 162.03 417.11 162.949 414.386 158.529C413.068 156.392 413.669 153.303 416.221 149.085C436.373 115.709 476.331 92.4856 506.303 78.8807C540.231 63.4802 574.917 54.2578 591.646 53.107C612.501 51.6659 634.534 53.2399 636.746 60.0016C637.582 62.5567 635.563 65.4291 630.744 68.5387C613.014 79.9799 542.17 143.313 520.86 163.919C511.608 172.866 503.253 176.08 495.744 176.08ZM454.157 158.823C460.006 158.823 465.032 159.549 468.079 161.904C481.23 172.089 497.596 184.764 520.042 163.057C541.375 142.429 612.325 79.008 630.106 67.5337C634.351 64.7945 636.259 62.3193 635.623 60.3757C633.934 55.2136 615.473 52.6582 591.726 54.2976C575.103 55.4409 540.589 64.6258 506.788 79.9688C476.969 93.5041 437.226 116.59 417.231 149.706L417.23 149.706C414.966 153.45 414.346 156.206 415.39 157.899C417.73 161.695 427.989 160.764 438.85 159.779C444.08 159.305 449.392 158.823 454.157 158.823Z" fill="#0056BB"/>
</g>
<mask id="mask20_15_1646" style="mask-type:alpha" maskUnits="userSpaceOnUse" x="429" y="60" width="193" height="107">
<path d="M500.252 166.128C490.849 166.129 482.934 160.127 476.024 154.889L475.854 154.76C471.358 151.362 460.655 152.438 451.212 153.388C441.08 154.407 432.33 155.288 429.96 151.507C428.821 149.689 429.316 147.049 431.476 143.438C448.712 114.548 483.138 94.4689 508.983 82.7117C538.282 69.3832 568.183 61.4536 582.578 60.5089C600.402 59.3332 619.229 60.7601 621.128 66.5971C621.853 68.825 620.103 71.3207 615.927 74.0144C600.683 83.8472 539.83 138.133 521.529 155.785C513.658 163.379 506.614 166.128 500.252 166.128ZM464.986 151.361C469.806 151.361 473.935 151.975 476.49 153.907L476.66 154.035C488.511 163.02 501.944 173.202 520.798 155.014C539.119 137.341 600.068 82.9775 615.357 73.1153C619.022 70.7511 620.67 68.6122 620.122 66.93C618.678 62.4893 602.916 60.2381 582.647 61.574C568.347 62.5126 538.602 70.4088 509.418 83.6851C483.71 95.3796 449.477 115.335 432.383 143.988L432.382 143.988C430.477 147.176 429.963 149.513 430.855 150.936C432.876 154.16 442.143 153.227 451.107 152.326C455.864 151.847 460.699 151.361 464.986 151.361Z" fill="url(#paint20_linear_15_1646)"/>
</mask>
<g mask="url(#mask20_15_1646)">
<path d="M500.252 166.128C490.849 166.129 482.934 160.127 476.024 154.889L475.854 154.76C471.358 151.362 460.655 152.438 451.212 153.388C441.08 154.407 432.33 155.288 429.96 151.507C428.821 149.689 429.316 147.049 431.476 143.438C448.712 114.548 483.138 94.4689 508.983 82.7117C538.282 69.3832 568.183 61.4536 582.578 60.5089C600.402 59.3332 619.229 60.7601 621.128 66.5971C621.853 68.825 620.103 71.3207 615.927 74.0144C600.683 83.8472 539.83 138.133 521.529 155.785C513.658 163.379 506.614 166.128 500.252 166.128ZM464.986 151.361C469.806 151.361 473.935 151.975 476.49 153.907L476.66 154.035C488.511 163.02 501.944 173.202 520.798 155.014C539.119 137.341 600.068 82.9775 615.357 73.1153C619.022 70.7511 620.67 68.6122 620.122 66.93C618.678 62.4893 602.916 60.2381 582.647 61.574C568.347 62.5126 538.602 70.4088 509.418 83.6851C483.71 95.3796 449.477 115.335 432.383 143.988L432.382 143.988C430.477 147.176 429.963 149.513 430.855 150.936C432.876 154.16 442.143 153.227 451.107 152.326C455.864 151.847 460.699 151.361 464.986 151.361Z" fill="#0056BB"/>
</g>
<mask id="mask21_15_1646" style="mask-type:alpha" maskUnits="userSpaceOnUse" x="445" y="67" width="161" height="90">
<path d="M504.728 156.108C497.144 156.108 490.745 151.387 485.153 147.262L484.349 146.67C480.521 143.863 471.46 144.897 463.467 145.81C454.925 146.786 447.549 147.628 445.534 144.486C444.572 142.986 444.964 140.796 446.731 137.79C473.161 92.7458 552.061 69.2243 573.509 67.91C581.758 67.4018 589.424 67.5896 595.096 68.4395C601.287 69.367 604.792 70.9659 605.51 73.1919C606.124 75.0927 604.643 77.212 601.11 79.4905C588.354 87.7143 537.49 132.952 522.198 147.652C515.734 153.867 509.95 156.107 504.728 156.108ZM475.761 143.891C479.575 143.891 482.831 144.393 484.899 145.909L485.704 146.502C495.342 153.611 506.267 161.669 521.554 146.97C536.864 132.253 587.811 86.9464 600.607 78.6966C603.692 76.7071 605.081 74.9045 604.623 73.4835C603.421 69.7636 590.356 67.8152 573.566 68.8503C552.237 70.1572 473.788 93.5263 447.535 138.27L447.535 138.27C445.987 140.901 445.578 142.821 446.318 143.975C448.018 146.627 455.818 145.736 463.362 144.874C467.629 144.387 471.971 143.891 475.761 143.891Z" fill="url(#paint21_linear_15_1646)"/>
</mask>
<g mask="url(#mask21_15_1646)">
<path d="M504.728 156.108C497.144 156.108 490.745 151.387 485.153 147.262L484.349 146.67C480.521 143.863 471.46 144.897 463.467 145.81C454.925 146.786 447.549 147.628 445.534 144.486C444.572 142.986 444.964 140.796 446.731 137.79C473.161 92.7458 552.061 69.2243 573.509 67.91C581.758 67.4018 589.424 67.5896 595.096 68.4395C601.287 69.367 604.792 70.9659 605.51 73.1919C606.124 75.0927 604.643 77.212 601.11 79.4905C588.354 87.7143 537.49 132.952 522.198 147.652C515.734 153.867 509.95 156.107 504.728 156.108ZM475.761 143.891C479.575 143.891 482.831 144.393 484.899 145.909L485.704 146.502C495.342 153.611 506.267 161.669 521.554 146.97C536.864 132.253 587.811 86.9464 600.607 78.6966C603.692 76.7071 605.081 74.9045 604.623 73.4835C603.421 69.7636 590.356 67.8152 573.566 68.8503C552.237 70.1572 473.788 93.5263 447.535 138.27L447.535 138.27C445.987 140.901 445.578 142.821 446.318 143.975C448.018 146.627 455.818 145.736 463.362 144.874C467.629 144.387 471.971 143.891 475.761 143.891Z" fill="#005E9E"/>
</g>
<mask id="mask22_15_1646" style="mask-type:alpha" maskUnits="userSpaceOnUse" x="460" y="75" width="131" height="72">
<path d="M509.187 146.181C503.521 146.181 498.7 142.747 494.226 139.56C493.764 139.23 493.304 138.903 492.846 138.581C489.684 136.364 482.266 137.359 475.722 138.236C468.771 139.168 462.767 139.973 461.106 137.468C460.322 136.284 460.61 134.542 461.986 132.143C483.147 95.1786 547.039 76.2663 564.441 75.3119C575.336 74.7089 588.533 75.5224 589.893 79.785C590.396 81.3597 589.184 83.1029 586.293 84.9664C576.025 91.581 535.149 127.771 522.867 139.519C517.75 144.413 513.252 146.181 509.187 146.181ZM486.465 136.411C489.302 136.411 491.719 136.797 493.308 137.911C493.768 138.234 494.229 138.563 494.693 138.893C502.485 144.443 510.543 150.182 522.31 138.927C534.608 127.164 575.555 90.9152 585.857 84.2783C587.605 83.1518 589.591 81.5013 589.123 80.0353C588.166 77.036 577.806 75.3932 564.485 76.1268C547.189 77.0754 483.694 95.8544 462.687 132.551L462.687 132.552C461.497 134.626 461.192 136.127 461.779 137.014C463.16 139.096 469.492 138.248 475.616 137.427C479.372 136.924 483.197 136.411 486.465 136.411Z" fill="url(#paint22_linear_15_1646)"/>
</mask>
<g mask="url(#mask22_15_1646)">
<path d="M509.187 146.181C503.521 146.181 498.7 142.747 494.226 139.56C493.764 139.23 493.304 138.903 492.846 138.581C489.684 136.364 482.266 137.359 475.722 138.236C468.771 139.168 462.767 139.973 461.106 137.468C460.322 136.284 460.61 134.542 461.986 132.143C483.147 95.1786 547.039 76.2663 564.441 75.3119C575.336 74.7089 588.533 75.5224 589.893 79.785C590.396 81.3597 589.184 83.1029 586.293 84.9664C576.025 91.581 535.149 127.771 522.867 139.519C517.75 144.413 513.252 146.181 509.187 146.181ZM486.465 136.411C489.302 136.411 491.719 136.797 493.308 137.911C493.768 138.234 494.229 138.563 494.693 138.893C502.485 144.443 510.543 150.182 522.31 138.927C534.608 127.164 575.555 90.9152 585.857 84.2783C587.605 83.1518 589.591 81.5013 589.123 80.0353C588.166 77.036 577.806 75.3932 564.485 76.1268C547.189 77.0754 483.694 95.8544 462.687 132.551L462.687 132.552C461.497 134.626 461.192 136.127 461.779 137.014C463.16 139.096 469.492 138.248 475.616 137.427C479.372 136.924 483.197 136.411 486.465 136.411Z" fill="#0056BB"/>
</g>
<mask id="mask23_15_1646" style="mask-type:alpha" maskUnits="userSpaceOnUse" x="476" y="82" width="99" height="55">
<path d="M513.649 136.221C509.779 136.221 506.46 133.959 503.204 131.741C502.583 131.318 501.964 130.896 501.344 130.492C498.848 128.868 493.072 129.825 487.978 130.669C482.614 131.558 477.983 132.324 476.677 130.454C476.07 129.585 476.255 128.291 477.241 126.497C485.723 111.069 503.556 100.421 517.022 94.2055C532.264 87.1704 548.157 83.0338 555.374 82.7134C563.453 82.3539 573.252 83.0986 574.278 86.3753C574.669 87.6253 573.726 88.9935 571.475 90.4425C563.707 95.4406 532.815 122.586 523.536 131.385C519.79 134.937 516.563 136.221 513.649 136.221ZM497.062 128.913C498.968 128.913 500.592 129.181 501.715 129.912C502.339 130.319 502.962 130.743 503.587 131.169C509.326 135.079 514.748 138.772 523.066 130.882C532.359 122.071 563.311 94.8763 571.107 89.8603C572.452 88.9942 573.982 87.7227 573.625 86.5835C572.899 84.2672 565.408 82.9579 555.404 83.4035C542.587 83.9724 493.349 98.6224 477.84 126.832C477.005 128.35 476.803 129.435 477.237 130.056C478.295 131.573 483.161 130.767 487.867 129.987C491.079 129.455 494.354 128.913 497.062 128.913Z" fill="url(#paint23_linear_15_1646)"/>
</mask>
<g mask="url(#mask23_15_1646)">
<path d="M513.649 136.221C509.779 136.221 506.46 133.959 503.204 131.741C502.583 131.318 501.964 130.896 501.344 130.492C498.848 128.868 493.072 129.825 487.978 130.669C482.614 131.558 477.983 132.324 476.677 130.454C476.07 129.585 476.255 128.291 477.241 126.497C485.723 111.069 503.556 100.421 517.022 94.2055C532.264 87.1704 548.157 83.0338 555.374 82.7134C563.453 82.3539 573.252 83.0986 574.278 86.3753C574.669 87.6253 573.726 88.9935 571.475 90.4425C563.707 95.4406 532.815 122.586 523.536 131.385C519.79 134.937 516.563 136.221 513.649 136.221ZM497.062 128.913C498.968 128.913 500.592 129.181 501.715 129.912C502.339 130.319 502.962 130.743 503.587 131.169C509.326 135.079 514.748 138.772 523.066 130.882C532.359 122.071 563.311 94.8763 571.107 89.8603C572.452 88.9942 573.982 87.7227 573.625 86.5835C572.899 84.2672 565.408 82.9579 555.404 83.4035C542.587 83.9724 493.349 98.6224 477.84 126.832C477.005 128.35 476.803 129.435 477.237 130.056C478.295 131.573 483.161 130.767 487.867 129.987C491.079 129.455 494.354 128.913 497.062 128.913Z" fill="#0056BB"/>
</g>
</g>
<defs>
<linearGradient id="paint0_linear_15_1646" x1="-2.06151e-06" y1="419.97" x2="622.189" y2="419.97" gradientUnits="userSpaceOnUse">
<stop stop-color="white"/>
<stop offset="0.0436152" stop-color="#B4B4B4"/>
<stop offset="0.150732"/>
<stop offset="0.171421" stop-color="#171717"/>
<stop offset="0.385884" stop-color="white"/>
<stop offset="0.632551" stop-color="#E6E6E6"/>
<stop offset="0.856667" stop-color="#1A1A1A"/>
<stop offset="0.998739"/>
</linearGradient>
<linearGradient id="paint1_linear_15_1646" x1="20.5671" y1="424.921" x2="588.53" y2="424.921" gradientUnits="userSpaceOnUse">
<stop stop-color="white"/>
<stop offset="0.0436152" stop-color="#B4B4B4"/>
<stop offset="0.150732"/>
<stop offset="0.171421" stop-color="#171717"/>
<stop offset="0.385884" stop-color="white"/>
<stop offset="0.632551" stop-color="#E6E6E6"/>
<stop offset="0.856667" stop-color="#1A1A1A"/>
<stop offset="0.998739"/>
</linearGradient>
<linearGradient id="paint2_linear_15_1646" x1="41.1327" y1="429.875" x2="554.836" y2="429.875" gradientUnits="userSpaceOnUse">
<stop stop-color="white"/>
<stop offset="0.0436152" stop-color="#B4B4B4"/>
<stop offset="0.150732"/>
<stop offset="0.171421" stop-color="#171717"/>
<stop offset="0.385884" stop-color="white"/>
<stop offset="0.632551" stop-color="#E6E6E6"/>
<stop offset="0.856667" stop-color="#1A1A1A"/>
<stop offset="0.998739"/>
</linearGradient>
<linearGradient id="paint3_linear_15_1646" x1="61.6967" y1="434.76" x2="521.234" y2="434.76" gradientUnits="userSpaceOnUse">
<stop stop-color="white"/>
<stop offset="0.0436152" stop-color="#B4B4B4"/>
<stop offset="0.150732"/>
<stop offset="0.171421" stop-color="#171717"/>
<stop offset="0.385884" stop-color="white"/>
<stop offset="0.632551" stop-color="#E6E6E6"/>
<stop offset="0.856667" stop-color="#1A1A1A"/>
<stop offset="0.998739"/>
</linearGradient>
<linearGradient id="paint4_linear_15_1646" x1="82.257" y1="439.643" x2="487.577" y2="439.643" gradientUnits="userSpaceOnUse">
<stop stop-color="white"/>
<stop offset="0.0436152" stop-color="#B4B4B4"/>
<stop offset="0.150732"/>
<stop offset="0.171421" stop-color="#171717"/>
<stop offset="0.385884" stop-color="white"/>
<stop offset="0.632551" stop-color="#E6E6E6"/>
<stop offset="0.856667" stop-color="#1A1A1A"/>
<stop offset="0.998739"/>
</linearGradient>
<linearGradient id="paint5_linear_15_1646" x1="102.813" y1="444.525" x2="453.915" y2="444.525" gradientUnits="userSpaceOnUse">
<stop stop-color="white"/>
<stop offset="0.0436152" stop-color="#B4B4B4"/>
<stop offset="0.150732"/>
<stop offset="0.171421" stop-color="#171717"/>
<stop offset="0.385884" stop-color="white"/>
<stop offset="0.632551" stop-color="#E6E6E6"/>
<stop offset="0.856667" stop-color="#1A1A1A"/>
<stop offset="0.998739"/>
</linearGradient>
<linearGradient id="paint6_linear_15_1646" x1="123.384" y1="449.346" x2="420.258" y2="449.346" gradientUnits="userSpaceOnUse">
<stop stop-color="white"/>
<stop offset="0.0436152" stop-color="#B4B4B4"/>
<stop offset="0.150732"/>
<stop offset="0.171421" stop-color="#171717"/>
<stop offset="0.385884" stop-color="white"/>
<stop offset="0.632551" stop-color="#E6E6E6"/>
<stop offset="0.856667" stop-color="#1A1A1A"/>
<stop offset="0.998739"/>
</linearGradient>
<linearGradient id="paint7_linear_15_1646" x1="143.918" y1="454.217" x2="386.605" y2="454.217" gradientUnits="userSpaceOnUse">
<stop stop-color="white"/>
<stop offset="0.0436152" stop-color="#B4B4B4"/>
<stop offset="0.150732"/>
<stop offset="0.171421" stop-color="#171717"/>
<stop offset="0.385884" stop-color="white"/>
<stop offset="0.632551" stop-color="#E6E6E6"/>
<stop offset="0.856667" stop-color="#1A1A1A"/>
<stop offset="0.998739"/>
</linearGradient>
<linearGradient id="paint8_linear_15_1646" x1="164.43" y1="458.938" x2="352.962" y2="458.938" gradientUnits="userSpaceOnUse">
<stop stop-color="white"/>
<stop offset="0.0436152" stop-color="#B4B4B4"/>
<stop offset="0.150732"/>
<stop offset="0.171421" stop-color="#171717"/>
<stop offset="0.385884" stop-color="white"/>
<stop offset="0.632551" stop-color="#E6E6E6"/>
<stop offset="0.856667" stop-color="#1A1A1A"/>
<stop offset="0.998739"/>
</linearGradient>
<linearGradient id="paint9_linear_15_1646" x1="183.775" y1="463.362" x2="319.341" y2="463.362" gradientUnits="userSpaceOnUse">
<stop stop-color="white"/>
<stop offset="0.0436152" stop-color="#B4B4B4"/>
<stop offset="0.150732"/>
<stop offset="0.171421" stop-color="#171717"/>
<stop offset="0.385884" stop-color="white"/>
<stop offset="0.632551" stop-color="#E6E6E6"/>
<stop offset="0.856667" stop-color="#1A1A1A"/>
<stop offset="0.998739"/>
</linearGradient>
<linearGradient id="paint10_linear_15_1646" x1="200.263" y1="467.216" x2="285.79" y2="467.216" gradientUnits="userSpaceOnUse">
<stop stop-color="white"/>
<stop offset="0.0436152" stop-color="#B4B4B4"/>
<stop offset="0.150732"/>
<stop offset="0.171421" stop-color="#171717"/>
<stop offset="0.385884" stop-color="white"/>
<stop offset="0.632551" stop-color="#E6E6E6"/>
<stop offset="0.856667" stop-color="#1A1A1A"/>
<stop offset="0.998739"/>
</linearGradient>
<linearGradient id="paint11_linear_15_1646" x1="212.332" y1="470.178" x2="253.104" y2="470.178" gradientUnits="userSpaceOnUse">
<stop stop-color="white"/>
<stop offset="0.0436152" stop-color="#B4B4B4"/>
<stop offset="0.150732"/>
<stop offset="0.171421" stop-color="#171717"/>
<stop offset="0.385884" stop-color="white"/>
<stop offset="0.632551" stop-color="#E6E6E6"/>
<stop offset="0.856667" stop-color="#1A1A1A"/>
<stop offset="0.998739"/>
</linearGradient>
<linearGradient id="paint12_linear_15_1646" x1="304.098" y1="123.008" x2="746.433" y2="123.008" gradientUnits="userSpaceOnUse">
<stop stop-color="white"/>
<stop offset="0.0436152" stop-color="#B4B4B4"/>
<stop offset="0.150732"/>
<stop offset="0.171421" stop-color="#171717"/>
<stop offset="0.385884" stop-color="white"/>
<stop offset="0.632551" stop-color="#E6E6E6"/>
<stop offset="0.856667" stop-color="#1A1A1A"/>
<stop offset="0.998739"/>
</linearGradient>
<linearGradient id="paint13_linear_15_1646" x1="319.757" y1="121.774" x2="730.79" y2="121.774" gradientUnits="userSpaceOnUse">
<stop stop-color="white"/>
<stop offset="0.0436152" stop-color="#B4B4B4"/>
<stop offset="0.150732"/>
<stop offset="0.171421" stop-color="#171717"/>
<stop offset="0.385884" stop-color="white"/>
<stop offset="0.632551" stop-color="#E6E6E6"/>
<stop offset="0.856667" stop-color="#1A1A1A"/>
<stop offset="0.998739"/>
</linearGradient>
<linearGradient id="paint14_linear_15_1646" x1="335.417" y1="120.541" x2="715.147" y2="120.541" gradientUnits="userSpaceOnUse">
<stop stop-color="white"/>
<stop offset="0.0436152" stop-color="#B4B4B4"/>
<stop offset="0.150732"/>
<stop offset="0.171421" stop-color="#171717"/>
<stop offset="0.385884" stop-color="white"/>
<stop offset="0.632551" stop-color="#E6E6E6"/>
<stop offset="0.856667" stop-color="#1A1A1A"/>
<stop offset="0.998739"/>
</linearGradient>
<linearGradient id="paint15_linear_15_1646" x1="351.075" y1="119.307" x2="699.503" y2="119.307" gradientUnits="userSpaceOnUse">
<stop stop-color="white"/>
<stop offset="0.0436152" stop-color="#B4B4B4"/>
<stop offset="0.150732"/>
<stop offset="0.171421" stop-color="#171717"/>
<stop offset="0.385884" stop-color="white"/>
<stop offset="0.632551" stop-color="#E6E6E6"/>
<stop offset="0.856667" stop-color="#1A1A1A"/>
<stop offset="0.998739"/>
</linearGradient>
<linearGradient id="paint16_linear_15_1646" x1="366.734" y1="118.074" x2="683.859" y2="118.074" gradientUnits="userSpaceOnUse">
<stop stop-color="white"/>
<stop offset="0.0436152" stop-color="#B4B4B4"/>
<stop offset="0.150732"/>
<stop offset="0.171421" stop-color="#171717"/>
<stop offset="0.385884" stop-color="white"/>
<stop offset="0.632551" stop-color="#E6E6E6"/>
<stop offset="0.856667" stop-color="#1A1A1A"/>
<stop offset="0.998739"/>
</linearGradient>
<linearGradient id="paint17_linear_15_1646" x1="382.393" y1="116.84" x2="668.216" y2="116.84" gradientUnits="userSpaceOnUse">
<stop stop-color="white"/>
<stop offset="0.0436152" stop-color="#B4B4B4"/>
<stop offset="0.150732"/>
<stop offset="0.171421" stop-color="#171717"/>
<stop offset="0.385884" stop-color="white"/>
<stop offset="0.632551" stop-color="#E6E6E6"/>
<stop offset="0.856667" stop-color="#1A1A1A"/>
<stop offset="0.998739"/>
</linearGradient>
<linearGradient id="paint18_linear_15_1646" x1="398.051" y1="115.605" x2="652.573" y2="115.605" gradientUnits="userSpaceOnUse">
<stop stop-color="white"/>
<stop offset="0.0436152" stop-color="#B4B4B4"/>
<stop offset="0.150732"/>
<stop offset="0.171421" stop-color="#171717"/>
<stop offset="0.385884" stop-color="white"/>
<stop offset="0.632551" stop-color="#E6E6E6"/>
<stop offset="0.856667" stop-color="#1A1A1A"/>
<stop offset="0.998739"/>
</linearGradient>
<linearGradient id="paint19_linear_15_1646" x1="413.708" y1="114.349" x2="636.93" y2="114.349" gradientUnits="userSpaceOnUse">
<stop stop-color="white"/>
<stop offset="0.0436152" stop-color="#B4B4B4"/>
<stop offset="0.150732"/>
<stop offset="0.171421" stop-color="#171717"/>
<stop offset="0.385884" stop-color="white"/>
<stop offset="0.632551" stop-color="#E6E6E6"/>
<stop offset="0.856667" stop-color="#1A1A1A"/>
<stop offset="0.998739"/>
</linearGradient>
<linearGradient id="paint20_linear_15_1646" x1="429.366" y1="113.129" x2="621.288" y2="113.129" gradientUnits="userSpaceOnUse">
<stop stop-color="white"/>
<stop offset="0.0436152" stop-color="#B4B4B4"/>
<stop offset="0.150732"/>
<stop offset="0.171421" stop-color="#171717"/>
<stop offset="0.385884" stop-color="white"/>
<stop offset="0.632551" stop-color="#E6E6E6"/>
<stop offset="0.856667" stop-color="#1A1A1A"/>
<stop offset="0.998739"/>
</linearGradient>
<linearGradient id="paint21_linear_15_1646" x1="445.022" y1="111.869" x2="605.645" y2="111.869" gradientUnits="userSpaceOnUse">
<stop stop-color="white"/>
<stop offset="0.0436152" stop-color="#B4B4B4"/>
<stop offset="0.150732"/>
<stop offset="0.171421" stop-color="#171717"/>
<stop offset="0.385884" stop-color="white"/>
<stop offset="0.632551" stop-color="#E6E6E6"/>
<stop offset="0.856667" stop-color="#1A1A1A"/>
<stop offset="0.998739"/>
</linearGradient>
<linearGradient id="paint22_linear_15_1646" x1="460.677" y1="110.658" x2="590.004" y2="110.658" gradientUnits="userSpaceOnUse">
<stop stop-color="white"/>
<stop offset="0.0436152" stop-color="#B4B4B4"/>
<stop offset="0.150732"/>
<stop offset="0.171421" stop-color="#171717"/>
<stop offset="0.385884" stop-color="white"/>
<stop offset="0.632551" stop-color="#E6E6E6"/>
<stop offset="0.856667" stop-color="#1A1A1A"/>
<stop offset="0.998739"/>
</linearGradient>
<linearGradient id="paint23_linear_15_1646" x1="476.329" y1="109.426" x2="574.364" y2="109.426" gradientUnits="userSpaceOnUse">
<stop stop-color="white"/>
<stop offset="0.0436152" stop-color="#B4B4B4"/>
<stop offset="0.150732"/>
<stop offset="0.171421" stop-color="#171717"/>
<stop offset="0.385884" stop-color="white"/>
<stop offset="0.632551" stop-color="#E6E6E6"/>
<stop offset="0.856667" stop-color="#1A1A1A"/>
<stop offset="0.998739"/>
</linearGradient>
</defs>
</svg>
