<svg width="435" height="421" viewBox="0 0 435 421" fill="none" xmlns="http://www.w3.org/2000/svg">
<mask id="mask0_15_999" style="mask-type:alpha" maskUnits="userSpaceOnUse" x="150" y="-165" width="535" height="638">
<path d="M429.19 414.522C424.206 416.919 418.98 418.853 413.502 420.331C384.445 428.171 352.964 421.801 323.273 413.75C302.206 408.037 268.621 426.857 236.144 445.058C203.912 463.119 173.471 480.18 158.839 469.863C151.652 464.795 148.958 453.927 150.602 436.638C163.189 304.291 248.344 175.158 317.565 90.134C395.565 -5.67402 485.173 -84.3902 533.377 -112.631C594.738 -148.577 664.119 -176.894 680.794 -159.115C686.905 -152.599 685.142 -141.007 675.555 -124.659C639.444 -63.081 521.627 240.527 488.523 336.934C475.002 376.312 455.502 401.866 429.19 414.522ZM270.907 422.351C291.143 412.618 309.927 406.432 324.035 410.258C353.266 418.184 384.214 424.466 412.504 416.834C445.76 407.863 469.547 381.293 485.233 335.611C518.369 239.11 636.352 -64.8816 672.557 -126.619C681.1 -141.187 683.1 -151.571 678.338 -156.649C665.469 -170.369 605.263 -150.53 535.18 -109.47C487.233 -81.3811 398.015 -2.97774 320.265 92.5227C251.35 177.173 166.575 305.673 154.073 437.126C152.589 452.724 154.828 462.742 160.727 466.901C173.566 475.955 203.112 459.397 234.396 441.867C246.63 435.011 259.019 428.069 270.907 422.351Z" fill="url(#paint0_linear_15_999)"/>
</mask>
<g mask="url(#mask0_15_999)">
<path d="M429.19 414.522C424.206 416.919 418.98 418.853 413.502 420.331C384.445 428.171 352.964 421.801 323.273 413.75C302.206 408.037 268.621 426.857 236.144 445.058C203.912 463.119 173.471 480.18 158.839 469.863C151.652 464.795 148.958 453.927 150.602 436.638C163.189 304.291 248.344 175.158 317.565 90.134C395.565 -5.67402 485.173 -84.3902 533.377 -112.631C594.738 -148.577 664.119 -176.894 680.794 -159.115C686.905 -152.599 685.142 -141.007 675.555 -124.659C639.444 -63.081 521.627 240.527 488.523 336.934C475.002 376.312 455.502 401.866 429.19 414.522ZM270.907 422.351C291.143 412.618 309.927 406.432 324.035 410.258C353.266 418.184 384.214 424.466 412.504 416.834C445.76 407.863 469.547 381.293 485.233 335.611C518.369 239.11 636.352 -64.8816 672.557 -126.619C681.1 -141.187 683.1 -151.571 678.338 -156.649C665.469 -170.369 605.263 -150.53 535.18 -109.47C487.233 -81.3811 398.015 -2.97774 320.265 92.5227C251.35 177.173 166.575 305.673 154.073 437.126C152.589 452.724 154.828 462.742 160.727 466.901C173.566 475.955 203.112 459.397 234.396 441.867C246.63 435.011 259.019 428.069 270.907 422.351Z" fill="#005E9E"/>
</g>
<mask id="mask1_15_999" style="mask-type:alpha" maskUnits="userSpaceOnUse" x="169" y="-143" width="497" height="594">
<path d="M428.416 395.43C423.771 397.664 418.897 399.464 413.789 400.835C386.987 408.031 357.698 402.15 330.04 394.723C310.433 389.46 279.201 407.063 249 424.091C219.052 440.973 190.761 456.92 177.154 447.36C170.477 442.669 167.964 432.592 169.471 416.552C181.024 293.45 260.165 173.339 324.522 94.2556C397.069 5.10805 480.396 -68.0668 525.214 -94.2759C582.176 -127.592 646.584 -153.797 662.087 -137.257C667.781 -131.18 666.143 -120.383 657.218 -105.165C623.66 -47.9463 514.16 234.021 483.392 323.547C470.852 360.033 452.783 383.709 428.416 395.43ZM281.936 402.531C300.521 393.592 317.755 387.953 330.749 391.441C386.467 406.402 448.569 414.634 480.301 322.303C511.099 232.69 620.756 -49.6379 654.401 -107.005C662.348 -120.556 664.208 -130.216 659.778 -134.942C647.826 -147.696 591.945 -129.344 526.905 -91.3065C482.33 -65.2388 399.371 7.64141 327.06 96.4991C262.989 175.231 184.205 294.745 172.731 417.006C171.373 431.46 173.456 440.735 178.921 444.574C190.844 452.949 218.292 437.478 247.352 421.096C258.944 414.562 270.688 407.941 281.936 402.531Z" fill="url(#paint1_linear_15_999)"/>
</mask>
<g mask="url(#mask1_15_999)">
<path d="M428.416 395.43C423.772 397.665 418.898 399.464 413.79 400.835C386.988 408.031 357.699 402.15 330.041 394.723C310.434 389.461 279.202 407.064 249.001 424.091C219.052 440.973 190.762 456.92 177.154 447.36C170.478 442.67 167.965 432.592 169.471 416.552C181.025 293.45 260.166 173.339 324.523 94.2557C397.07 5.10818 480.397 -68.0666 525.214 -94.2758C582.177 -127.592 646.585 -153.797 662.088 -137.257C667.782 -131.18 666.144 -120.383 657.218 -105.165C623.661 -47.9461 514.16 234.021 483.392 323.547C470.853 360.034 452.784 383.709 428.416 395.43ZM281.937 402.531C300.522 393.592 317.756 387.953 330.75 391.441C386.468 406.402 448.57 414.634 480.301 322.303C511.1 232.69 620.756 -49.6378 654.402 -107.005C662.349 -120.556 664.209 -130.216 659.779 -134.941C647.827 -147.696 591.946 -129.344 526.906 -91.3064C482.33 -65.2387 399.371 7.64153 327.06 96.4992C262.99 175.231 184.206 294.746 172.732 417.006C171.374 431.46 173.456 440.735 178.921 444.574C190.845 452.949 218.293 437.478 247.353 421.096C258.945 414.562 270.689 407.942 281.937 402.531Z" fill="#005E9E"/>
</g>
<mask id="mask2_15_999" style="mask-type:alpha" maskUnits="userSpaceOnUse" x="187" y="-121" width="460" height="549">
<path d="M427.643 376.339C423.336 378.41 418.818 380.074 414.079 381.339C388.308 388.218 360.681 382.033 336.809 375.696C318.663 370.883 289.786 387.272 261.859 403.122C232.987 419.507 208.054 433.66 195.47 424.857C189.304 420.544 186.972 411.257 188.342 396.465C198.86 282.608 271.988 171.519 331.481 98.3765C398.575 15.8909 475.621 -51.743 517.053 -75.9221C569.606 -106.595 629.053 -130.702 643.382 -115.4C648.66 -109.763 647.146 -99.7606 638.882 -85.6711C607.872 -32.8011 506.691 227.522 478.262 310.16C466.704 343.754 450.065 365.552 427.643 376.339ZM292.951 382.718C309.891 374.57 325.583 369.472 337.463 372.622C360.964 378.861 388.135 384.956 413.21 378.264C441.611 370.686 461.944 348.026 475.371 308.996C503.828 226.276 605.155 -34.3846 636.247 -87.3924C643.598 -99.9242 645.318 -108.86 641.222 -113.235C630.185 -125.022 578.625 -108.159 518.632 -73.1424C477.428 -49.0961 400.727 18.261 333.856 100.475C274.63 173.287 201.838 283.817 191.392 396.885L191.392 396.886C190.16 410.195 192.087 418.728 197.118 422.248C208.122 429.946 233.474 415.557 260.31 400.326C271.256 394.113 282.349 387.817 292.951 382.718Z" fill="url(#paint2_linear_15_999)"/>
</mask>
<g mask="url(#mask2_15_999)">
<path d="M427.644 376.338C423.337 378.41 418.819 380.074 414.08 381.339C388.309 388.217 360.682 382.032 336.81 375.695C318.665 370.882 289.787 387.272 261.861 403.122C232.989 419.507 208.055 433.659 195.471 424.856C189.305 420.543 186.973 411.257 188.343 396.464C198.862 282.607 271.989 171.518 331.483 98.376C398.576 15.8904 475.622 -51.7435 517.054 -75.9225C569.607 -106.595 629.054 -130.702 643.383 -115.4C648.662 -109.763 647.147 -99.7611 638.883 -85.6716C607.873 -32.8016 506.692 227.521 478.263 310.159C466.706 343.753 450.067 365.552 427.644 376.338ZM292.953 382.717C309.892 374.57 325.584 369.471 337.464 372.622C360.965 378.861 388.137 384.956 413.211 378.263C441.612 370.686 461.945 348.025 475.372 308.995C503.829 226.275 605.156 -34.3851 636.248 -87.3929C643.599 -99.9246 645.319 -108.861 641.223 -113.236C630.186 -125.022 578.626 -108.16 518.634 -73.1429C477.429 -49.0966 400.729 18.2605 333.857 100.474C274.631 173.286 201.839 283.816 191.393 396.885L191.394 396.885C190.162 410.195 192.088 418.728 197.119 422.247C208.123 429.945 233.475 415.557 260.311 400.325C271.257 394.113 282.35 387.817 292.953 382.717Z" fill="#005E9E"/>
</g>
<mask id="mask3_15_999" style="mask-type:alpha" maskUnits="userSpaceOnUse" x="206" y="-98" width="422" height="503">
<path d="M426.873 357.245C422.905 359.153 418.74 360.684 414.371 361.842C390.973 368.043 365.562 362.422 343.582 356.667C326.896 352.304 300.371 367.479 274.722 382.154C248.231 397.31 225.351 410.399 213.789 402.353C208.134 398.418 205.984 389.921 207.216 376.378C216.701 271.765 283.814 169.698 338.444 102.496C400.084 26.6724 470.848 -35.4208 508.894 -57.5695C557.045 -85.6097 611.524 -107.609 624.681 -93.5448C629.543 -88.3475 628.153 -79.1394 620.55 -66.1786C592.092 -17.6665 499.229 221.016 473.134 296.772C462.559 327.475 447.354 347.394 426.873 357.245ZM303.947 362.911C319.249 355.551 333.41 350.987 344.181 353.803C365.82 359.469 390.81 365.009 413.567 358.977C439.543 352.087 458.145 331.39 470.443 295.686C496.563 219.855 589.563 -19.141 618.096 -67.7818C624.851 -79.2953 626.431 -87.5075 622.668 -91.5303C612.545 -102.35 565.318 -86.9793 510.362 -54.9804C472.529 -32.9551 402.088 28.8798 340.655 104.449C286.275 171.343 219.475 272.888 210.057 376.764C208.95 388.929 210.72 396.72 215.318 399.919C225.405 406.94 248.656 393.637 273.271 379.554C283.565 373.665 293.997 367.697 303.947 362.911Z" fill="url(#paint3_linear_15_999)"/>
</mask>
<g mask="url(#mask3_15_999)">
<path d="M426.872 357.245C422.904 359.154 418.739 360.685 414.37 361.843C390.972 368.044 365.561 362.423 343.58 356.667C326.895 352.304 300.37 367.479 274.72 382.154C248.229 397.31 225.35 410.399 213.787 402.353C208.133 398.418 205.983 389.921 207.215 376.378C216.7 271.765 283.812 169.698 338.443 102.497C400.083 26.6727 470.847 -35.4205 508.893 -57.5692C557.044 -85.6095 611.523 -107.609 624.679 -93.5446C629.542 -88.3472 628.151 -79.1391 620.549 -66.1784C592.091 -17.6662 499.227 221.017 473.133 296.772C462.557 327.475 447.353 347.394 426.872 357.245ZM303.946 362.911C319.247 355.551 333.408 350.987 344.18 353.803C365.818 359.469 390.809 365.009 413.566 358.978C439.541 352.088 458.144 331.39 470.442 295.687C496.562 219.855 589.562 -19.1407 618.095 -67.7816C624.849 -79.295 626.43 -87.5073 622.667 -91.5301C612.544 -102.35 565.316 -86.9791 510.361 -54.9801C472.528 -32.9549 402.087 28.8801 340.654 104.449C286.274 171.343 219.474 272.888 210.056 376.764C208.949 388.93 210.719 396.72 215.316 399.92C225.404 406.94 248.655 393.637 273.269 379.554C283.563 373.666 293.996 367.697 303.946 362.911Z" fill="#0056BB"/>
</g>
<mask id="mask4_15_999" style="mask-type:alpha" maskUnits="userSpaceOnUse" x="225" y="-76" width="384" height="459">
<path d="M426.101 338.154C422.471 339.9 418.661 341.295 414.661 342.346C393.639 347.871 370.443 342.814 350.352 337.64C335.127 333.728 310.955 347.688 287.581 361.187C263.469 375.112 242.644 387.141 232.105 379.851C226.961 376.293 224.993 368.587 226.087 356.291L226.087 356.291C234.538 260.923 295.637 167.878 345.405 106.617C401.59 37.4551 466.074 -19.0975 500.733 -39.2155C544.483 -64.6202 593.992 -84.5132 605.976 -71.6881C610.422 -66.9289 609.158 -58.517 602.214 -46.6847C576.311 -2.53187 491.764 214.511 468.005 283.384C458.412 311.195 444.636 329.237 426.101 338.154ZM314.914 343.114C328.589 336.537 341.228 332.501 350.897 334.985C395.728 346.531 441.505 351.978 465.513 282.378C489.296 213.434 573.97 -3.89742 599.944 -48.1697C606.1 -58.6639 607.542 -66.1524 604.111 -69.8234C594.905 -79.6769 552 -65.7981 502.09 -36.8167C467.628 -16.8132 403.445 39.4995 347.452 108.424C297.917 169.4 237.108 261.96 228.718 356.643L228.718 356.644C227.737 367.665 229.351 374.713 233.514 377.593C242.683 383.935 263.835 371.719 286.229 358.785C295.86 353.223 305.626 347.582 314.914 343.114Z" fill="url(#paint4_linear_15_999)"/>
</mask>
<g mask="url(#mask4_15_999)">
<path d="M426.1 338.154C422.47 339.9 418.66 341.295 414.661 342.346C393.638 347.871 370.442 342.814 350.351 337.64C335.126 333.728 310.955 347.688 287.58 361.187C263.468 375.112 242.644 387.141 232.104 379.851C226.96 376.293 224.992 368.587 226.087 356.291L226.086 356.291C234.537 260.923 295.636 167.878 345.404 106.617C401.589 37.4551 466.073 -19.0975 500.732 -39.2155C544.482 -64.6202 593.992 -84.5132 605.975 -71.6881C610.421 -66.9289 609.157 -58.517 602.214 -46.6847C576.31 -2.53187 491.763 214.511 468.004 283.384C458.412 311.195 444.636 329.237 426.1 338.154ZM314.913 343.114C328.588 336.537 341.227 332.501 350.896 334.985C395.727 346.531 441.505 351.978 465.512 282.378C489.296 213.434 573.969 -3.89742 599.943 -48.1697C606.1 -58.6639 607.541 -66.1524 604.11 -69.8234C594.904 -79.6769 552 -65.7981 502.089 -36.8167C467.628 -16.8132 403.444 39.4995 347.451 108.424C297.917 169.4 237.107 261.96 228.717 356.643L228.717 356.644C227.736 367.665 229.35 374.713 233.513 377.593C242.683 383.935 263.834 371.719 286.228 358.785C295.859 353.223 305.626 347.582 314.913 343.114Z" fill="#0056BB"/>
</g>
<mask id="mask5_15_999" style="mask-type:alpha" maskUnits="userSpaceOnUse" x="244" y="-54" width="346" height="414">
<path d="M425.327 319.062C422.035 320.645 418.58 321.906 414.951 322.849C396.309 327.697 376.161 323.414 357.122 318.611C343.356 315.149 320.555 328.467 300.44 340.22C278.708 352.918 259.937 363.881 250.421 357.348C245.788 354.167 244.001 347.251 244.958 336.203L244.958 336.204C252.375 250.081 307.46 166.058 352.364 110.737C403.096 48.2374 461.298 -2.77457 492.572 -20.8626C531.915 -43.6292 576.461 -61.4198 587.271 -49.8324C591.301 -45.5128 590.16 -37.8954 583.879 -27.192C560.527 12.604 484.297 208.006 462.874 269.996C454.264 294.915 441.919 311.08 425.327 319.062ZM325.85 323.329C337.907 317.529 349.04 314.011 357.611 316.167C376.353 320.894 396.166 325.116 414.275 320.406C435.399 314.917 450.544 298.121 460.582 269.07C482.027 207.015 558.373 11.3466 581.789 -28.5576C587.35 -38.0342 588.652 -44.7986 585.554 -48.1191C577.262 -57.006 538.677 -44.6133 493.817 -18.6533C462.726 -0.671485 404.802 50.1185 354.248 112.399C309.559 167.456 254.741 251.031 247.38 336.521L247.379 336.522C246.523 346.399 247.98 352.706 251.71 355.266C259.96 360.93 279.014 349.801 299.186 338.016C308.146 332.782 317.234 327.473 325.85 323.329Z" fill="url(#paint5_linear_15_999)"/>
</mask>
<g mask="url(#mask5_15_999)">
<path d="M425.326 319.063C422.034 320.646 418.579 321.906 414.95 322.85C396.308 327.698 376.16 323.415 357.121 318.612C343.355 315.15 320.554 328.468 300.439 340.221C278.707 352.918 259.936 363.882 250.42 357.348C245.787 354.168 244 347.251 244.957 336.204L244.957 336.205C252.374 250.081 307.459 166.058 352.363 110.737C403.095 48.2379 461.297 -2.77408 492.571 -20.8622C531.914 -43.6287 576.46 -61.4193 587.27 -49.8319C591.3 -45.5123 590.159 -37.8949 583.878 -27.1915C560.526 12.6045 484.296 208.006 462.873 269.997C454.263 294.916 441.918 311.08 425.326 319.063ZM325.849 323.329C337.906 317.53 349.039 314.011 357.61 316.167C376.353 320.895 396.165 325.117 414.275 320.407C435.398 314.918 450.543 298.122 460.581 269.07C482.026 207.015 558.372 11.3471 581.788 -28.5571C587.349 -38.0337 588.651 -44.7981 585.553 -48.1186C577.261 -57.0056 538.676 -44.6129 493.817 -18.6528C462.725 -0.670997 404.801 50.119 354.248 112.399C309.558 167.456 254.74 251.031 247.379 336.522L247.378 336.523C246.522 346.399 247.979 352.706 251.709 355.266C259.959 360.931 279.013 349.801 299.186 338.016C308.145 332.783 317.234 327.473 325.849 323.329Z" fill="#0056BB"/>
</g>
<mask id="mask6_15_999" style="mask-type:alpha" maskUnits="userSpaceOnUse" x="263" y="-32" width="308" height="369">
<path d="M424.549 299.973C421.598 301.393 418.495 302.519 415.237 303.355C398.971 307.529 381.667 303.954 363.889 299.585C351.583 296.573 331.242 308.623 313.297 319.257C293.943 330.722 277.228 340.627 268.734 334.849C264.612 332.045 263.007 325.918 263.827 316.119C270.209 239.241 319.279 164.24 359.321 114.859C404.597 59.0216 456.519 13.5504 484.407 -2.50724C519.349 -22.6373 558.927 -38.324 568.563 -27.9753C572.177 -24.0947 571.161 -17.2713 565.541 -7.69618C544.744 27.7372 476.83 201.501 457.741 256.611C450.112 278.64 439.2 292.926 424.549 299.973ZM336.746 303.558C347.2 298.529 356.841 295.519 364.322 297.35C394.242 304.7 435.215 314.771 455.649 255.763C474.759 200.594 542.777 26.5893 563.632 -8.94379C568.597 -17.4026 569.76 -23.4433 566.995 -26.413C559.618 -34.333 525.36 -23.4307 485.541 -0.488639C457.821 15.4724 406.155 60.7404 361.042 116.375C321.197 165.514 272.371 240.104 266.038 316.402L266.038 316.403C265.307 325.136 266.607 330.701 269.903 332.942C277.237 337.931 294.194 327.885 312.141 317.25C320.417 312.347 328.816 307.372 336.746 303.558Z" fill="url(#paint6_linear_15_999)"/>
</mask>
<g mask="url(#mask6_15_999)">
<path d="M424.549 299.973C421.598 301.393 418.495 302.519 415.237 303.354C398.971 307.528 381.667 303.953 363.889 299.585C351.583 296.573 331.242 308.623 313.297 319.256C293.943 330.722 277.228 340.626 268.734 334.849C264.612 332.045 263.007 325.918 263.827 316.119C270.209 239.241 319.279 164.239 359.321 114.859C404.597 59.0213 456.519 13.5502 484.407 -2.50749C519.349 -22.6375 558.927 -38.3242 568.563 -27.9756C572.177 -24.0949 571.161 -17.2716 565.541 -7.69642C544.744 27.737 476.83 201.501 457.741 256.61C450.112 278.639 439.2 292.926 424.549 299.973ZM336.746 303.557C347.2 298.529 356.841 295.518 364.322 297.35C394.242 304.7 435.215 314.77 455.649 255.763C474.759 200.594 542.777 26.5891 563.632 -8.94404C568.597 -17.4028 569.76 -23.4436 566.995 -26.4132C559.618 -34.3332 525.36 -23.431 485.541 -0.488883C457.821 15.4721 406.155 60.7401 361.042 116.375C321.197 165.513 272.371 240.104 266.038 316.402L266.038 316.403C265.307 325.136 266.607 330.7 269.903 332.942C277.237 337.931 294.194 327.885 312.141 317.25C320.417 312.347 328.816 307.372 336.746 303.557Z" fill="#0056BB"/>
</g>
<mask id="mask7_15_999" style="mask-type:alpha" maskUnits="userSpaceOnUse" x="282" y="-10" width="270" height="324">
<path d="M423.708 280.833C406.565 289.081 386.822 284.392 370.662 280.557C359.815 277.996 341.934 288.779 326.159 298.292C309.183 308.529 294.523 317.371 287.052 312.348C283.439 309.921 282.016 304.584 282.699 296.032C288.047 228.4 331.104 162.42 366.282 118.979C406.105 69.804 451.745 29.874 476.248 15.8455C506.79 -1.65388 541.397 -15.231 549.861 -6.12137C553.059 -2.67899 552.166 3.34968 547.208 11.7962C528.96 42.8758 469.365 194.998 452.613 243.223C445.34 264.163 435.097 275.354 423.708 280.833ZM347.595 283.802C356.467 279.535 364.637 277.019 371.038 278.531C398.68 285.09 433.078 293.252 450.721 242.454C467.491 194.176 527.181 41.8369 545.481 10.6678C549.85 3.2267 550.873 -2.09016 548.44 -4.70867C541.977 -11.663 512.048 -2.24865 477.269 17.6751C452.92 31.6152 407.514 71.3593 367.841 120.35C332.841 163.569 290.006 229.175 284.7 296.28L284.7 296.281C284.094 303.87 285.237 308.694 288.099 310.617C294.516 314.929 309.372 305.969 325.101 296.485C332.675 291.917 340.368 287.278 347.595 283.802Z" fill="url(#paint7_linear_15_999)"/>
</mask>
<g mask="url(#mask7_15_999)">
<path d="M423.707 280.833C406.564 289.081 386.821 284.392 370.661 280.557C359.814 277.996 341.933 288.779 326.158 298.292C309.182 308.529 294.522 317.371 287.051 312.348C283.438 309.921 282.015 304.584 282.698 296.032C288.046 228.4 331.103 162.42 366.281 118.979C406.104 69.804 451.744 29.874 476.247 15.8455C506.789 -1.65388 541.396 -15.231 549.86 -6.12137C553.058 -2.67899 552.165 3.34968 547.207 11.7962C528.959 42.8758 469.364 194.998 452.612 243.223C445.339 264.163 435.096 275.354 423.707 280.833ZM347.594 283.802C356.466 279.535 364.636 277.019 371.037 278.531C398.679 285.09 433.077 293.252 450.72 242.454C467.49 194.176 527.18 41.8369 545.48 10.6678C549.849 3.2267 550.872 -2.09016 548.439 -4.70867C541.976 -11.663 512.047 -2.24865 477.268 17.6751C452.919 31.6152 407.513 71.3593 367.84 120.35C332.84 163.569 290.005 229.175 284.699 296.28L284.699 296.281C284.093 303.87 285.236 308.694 288.098 310.617C294.515 314.929 309.371 305.969 325.1 296.485C332.674 291.917 340.367 287.278 347.594 283.802Z" fill="#0056BB"/>
</g>
<mask id="mask8_15_999" style="mask-type:alpha" maskUnits="userSpaceOnUse" x="301" y="13" width="232" height="279">
<path d="M423.023 261.76C408.762 268.622 392.223 264.877 377.786 261.611L377.431 261.53C368.044 259.42 352.624 268.935 339.019 277.331C324.422 286.339 311.816 294.118 305.365 289.85C302.264 287.799 301.021 283.251 301.568 275.948C305.881 217.558 342.924 160.6 373.24 123.099C407.606 80.588 446.967 46.1987 468.085 34.1996C494.23 19.3325 523.863 7.86066 531.154 15.7323C533.937 18.7368 533.168 23.9714 528.869 31.29C513.178 58.0045 461.899 188.49 447.48 229.836C441.279 247.62 432.672 257.119 423.023 261.76ZM358.378 264.068C365.689 260.551 372.416 258.514 377.75 259.713L378.105 259.793C402.868 265.397 430.935 271.745 445.787 229.146C460.222 187.753 511.588 57.074 527.326 30.2797C531.098 23.8569 531.982 19.2622 529.88 16.9938C524.334 11.005 498.727 18.9333 468.994 35.8386C448.015 47.7587 408.867 81.9808 374.635 124.326C344.48 161.626 307.637 218.247 303.359 276.159L303.359 276.16C302.877 282.605 303.863 286.687 306.291 288.294C311.792 291.932 325.143 283.692 338.057 275.723C344.911 271.493 351.876 267.195 358.378 264.068Z" fill="url(#paint8_linear_15_999)"/>
</mask>
<g mask="url(#mask8_15_999)">
<path d="M423.023 261.76C408.762 268.622 392.223 264.877 377.786 261.611L377.431 261.53C368.044 259.42 352.624 268.935 339.019 277.331C324.422 286.339 311.816 294.118 305.365 289.85C302.264 287.799 301.021 283.251 301.568 275.948C305.881 217.558 342.924 160.6 373.24 123.099C407.606 80.5879 446.967 46.1986 468.085 34.1995C494.23 19.3324 523.863 7.86054 531.154 15.7321C533.937 18.7367 533.168 23.9712 528.869 31.2899C513.178 58.0044 461.899 188.49 447.48 229.836C441.279 247.62 432.672 257.119 423.023 261.76ZM358.378 264.067C365.689 260.551 372.416 258.514 377.75 259.713L378.105 259.793C402.868 265.397 430.935 271.745 445.787 229.146C460.222 187.753 511.588 57.0739 527.326 30.2796C531.098 23.8568 531.982 19.2621 529.88 16.9937C524.334 11.0049 498.727 18.9332 468.994 35.8384C448.015 47.7585 408.867 81.9807 374.635 124.326C344.48 161.626 307.637 218.247 303.359 276.159L303.359 276.16C302.877 282.605 303.863 286.687 306.291 288.293C311.792 291.932 325.143 283.692 338.057 275.723C344.911 271.493 351.876 267.195 358.378 264.067Z" fill="#0056BB"/>
</g>
<mask id="mask9_15_999" style="mask-type:alpha" maskUnits="userSpaceOnUse" x="320" y="35" width="194" height="234">
<path d="M422.242 242.603C410.74 248.136 397.467 245.317 385.87 242.855L384.204 242.503C376.277 240.843 363.315 249.093 351.881 256.373C339.663 264.151 329.112 270.868 323.682 267.355C321.09 265.677 320.029 261.918 320.439 255.862C326.491 165.145 428.386 70.2835 459.923 52.5525C472.05 45.7289 483.819 40.4341 493.065 37.6441C503.155 34.5985 509.678 34.5781 512.45 37.5843C514.817 40.1509 514.172 44.592 510.535 50.7834C497.402 73.1309 454.436 181.98 442.351 216.449C437.242 231.021 430.162 238.793 422.242 242.603ZM369.079 244.36C374.863 241.578 380.18 239.998 384.463 240.894L386.131 241.248C406.121 245.491 428.779 250.3 440.858 215.837C452.958 181.328 495.998 72.3092 509.172 49.8912C512.349 44.485 513.093 40.6131 511.324 38.6941C506.691 33.6712 485.403 40.1124 460.72 54.0022C429.357 71.6346 328.032 165.925 322.021 256.036L322.021 256.037C321.661 261.339 322.491 264.681 324.485 265.972C329.068 268.937 340.225 261.834 351.015 254.965C357.119 251.079 363.329 247.125 369.079 244.36Z" fill="url(#paint9_linear_15_999)"/>
</mask>
<g mask="url(#mask9_15_999)">
<path d="M422.242 242.603C410.741 248.136 397.467 245.317 385.87 242.855L384.204 242.503C376.277 240.843 363.315 249.093 351.881 256.373C339.663 264.151 329.113 270.868 323.682 267.354C321.09 265.677 320.029 261.918 320.44 255.862C326.491 165.145 428.386 70.2834 459.923 52.5524C472.05 45.7287 483.82 40.434 493.065 37.644C503.156 34.5984 509.678 34.5779 512.45 37.5842C514.817 40.1508 514.173 44.5919 510.535 50.7833C497.402 73.1308 454.436 181.98 442.351 216.448C437.242 231.021 430.162 238.793 422.242 242.603ZM369.079 244.36C374.863 241.577 380.181 239.997 384.463 240.894L386.131 241.247C406.121 245.491 428.779 250.3 440.858 215.837C452.958 181.328 495.999 72.309 509.172 49.8911C512.349 44.4849 513.094 40.613 511.324 38.694C506.691 33.6711 485.403 40.1123 460.72 54.0021C429.358 71.6345 328.032 165.925 322.021 256.036L322.021 256.037C321.662 261.339 322.491 264.681 324.485 265.972C329.068 268.937 340.225 261.834 351.015 254.965C357.12 251.078 363.33 247.125 369.079 244.36Z" fill="#005E9E"/>
</g>
<mask id="mask10_15_999" style="mask-type:alpha" maskUnits="userSpaceOnUse" x="339" y="57" width="156" height="189">
<path d="M421.502 223.608C412.909 227.741 403.001 225.813 393.808 224.022C392.858 223.837 391.913 223.653 390.975 223.477C384.505 222.268 374.006 229.257 364.743 235.422C354.904 241.971 346.406 247.627 341.995 244.865C339.912 243.56 339.032 240.588 339.307 235.779C343.471 161.72 426.087 85.1162 451.759 70.9078C467.827 62.0039 488.458 53.6665 493.742 59.4344C495.694 61.5648 495.174 65.2135 492.196 70.2782C481.621 88.2588 446.969 175.473 437.216 203.064C433.154 214.558 427.666 220.643 421.502 223.608ZM379.657 224.69C383.96 222.621 387.918 221.47 391.17 222.077C392.111 222.254 393.059 222.439 394.013 222.624C410.024 225.743 426.581 228.964 435.924 202.53C445.689 174.904 480.406 87.5455 491.015 69.505C492.816 66.4428 494.58 62.3769 492.763 60.3933C489.045 56.3348 472.091 61.2872 452.442 72.1679C426.926 86.29 344.812 162.392 340.678 235.915L340.678 235.916C340.441 240.074 341.112 242.677 342.673 243.655C346.34 245.95 355.302 239.985 363.97 234.216C369.286 230.678 374.701 227.074 379.657 224.69Z" fill="url(#paint10_linear_15_999)"/>
</mask>
<g mask="url(#mask10_15_999)">
<path d="M421.503 223.608C412.91 227.741 403.003 225.812 393.809 224.022C392.859 223.837 391.914 223.653 390.976 223.477C384.507 222.267 374.007 229.256 364.745 235.421C354.905 241.971 346.407 247.627 341.996 244.865C339.913 243.56 339.034 240.588 339.308 235.778C343.472 161.719 426.089 85.1157 451.761 70.9073C467.828 62.0034 488.459 53.666 493.743 59.4339C495.696 61.5643 495.175 65.213 492.197 70.2777C481.622 88.2583 446.97 175.473 437.217 203.063C433.155 214.558 427.668 220.643 421.503 223.608ZM379.659 224.69C383.962 222.62 387.919 221.469 391.172 222.077C392.113 222.254 393.06 222.438 394.014 222.624C410.025 225.742 426.583 228.964 435.926 202.53C445.691 174.904 480.407 87.545 491.016 69.5045C492.817 66.4423 494.581 62.3764 492.764 60.3928C489.046 56.3343 472.092 61.2867 452.443 72.1674C426.927 86.2895 344.813 162.392 340.679 235.915L340.679 235.915C340.442 240.073 341.113 242.677 342.674 243.655C346.341 245.95 355.303 239.985 363.972 234.216C369.288 230.677 374.702 227.074 379.659 224.69Z" fill="#0056BB"/>
</g>
<mask id="mask11_15_999" style="mask-type:alpha" maskUnits="userSpaceOnUse" x="358" y="79" width="118" height="144">
<path d="M420.743 204.559C414.875 207.381 408.132 206.216 401.516 205.073C400.255 204.855 398.998 204.638 397.752 204.45C392.739 203.694 384.703 209.425 377.614 214.48C370.15 219.802 363.704 224.397 360.311 222.383C358.735 221.449 358.037 219.262 358.177 215.697C359.384 185.041 378.386 155.146 394.114 135.464C411.916 113.188 432.896 95.0335 443.599 89.2609C455.58 82.7972 471.005 76.8299 475.038 81.2776C476.576 82.9745 476.179 85.8323 473.859 89.7728C465.855 103.366 439.511 168.953 432.085 189.677C429.088 198.042 425.163 202.432 420.743 204.559ZM390.064 205.068C392.955 203.678 395.622 202.919 397.876 203.259C399.131 203.448 400.396 203.667 401.665 203.886C413.324 205.9 424.338 207.802 430.993 189.221C438.43 168.468 464.827 102.76 472.861 89.1178C474.248 86.7627 475.607 83.6306 474.205 82.0839C471.353 78.9403 459.003 82.3285 444.167 90.3329C425.156 100.586 361.546 159.739 359.339 215.791C359.22 218.807 359.731 220.675 360.859 221.345C363.611 222.978 370.382 218.149 376.931 213.48C381.399 210.294 385.958 207.043 390.064 205.068Z" fill="url(#paint11_linear_15_999)"/>
</mask>
<g mask="url(#mask11_15_999)">
<path d="M420.744 204.558C414.876 207.381 408.133 206.215 401.517 205.072C400.256 204.855 398.999 204.637 397.753 204.449C392.74 203.694 384.704 209.425 377.615 214.48C370.151 219.802 363.705 224.397 360.312 222.383C358.736 221.448 358.038 219.261 358.178 215.697C359.385 185.041 378.387 155.145 394.115 135.464C411.917 113.188 432.897 95.033 443.6 89.2605C455.581 82.7967 471.006 76.8294 475.039 81.2771C476.577 82.974 476.18 85.8318 473.86 89.7723C465.856 103.365 439.512 168.952 432.086 189.676C429.089 198.042 425.164 202.431 420.744 204.558ZM390.065 205.068C392.956 203.677 395.623 202.918 397.877 203.259C399.132 203.448 400.397 203.666 401.666 203.885C413.325 205.9 424.339 207.801 430.994 189.221C438.431 168.467 464.828 102.76 472.862 89.1174C474.248 86.7622 475.608 83.6301 474.206 82.0834C471.354 78.9398 459.004 82.328 444.168 90.3324C425.157 100.585 361.547 159.738 359.34 215.791C359.221 218.807 359.732 220.675 360.86 221.344C363.612 222.978 370.383 218.149 376.932 213.48C381.4 210.293 385.959 207.043 390.065 205.068Z" fill="#0056BB"/>
</g>
<defs>
<linearGradient id="paint0_linear_15_999" x1="92.9396" y1="336.47" x2="765.015" y2="16.2829" gradientUnits="userSpaceOnUse">
<stop stop-color="white"/>
<stop offset="0.0436152" stop-color="#B4B4B4"/>
<stop offset="0.150732"/>
<stop offset="0.171421" stop-color="#171717"/>
<stop offset="0.385884" stop-color="white"/>
<stop offset="0.632551" stop-color="#E6E6E6"/>
<stop offset="0.856667" stop-color="#1A1A1A"/>
<stop offset="0.998739"/>
</linearGradient>
<linearGradient id="paint1_linear_15_999" x1="115.756" y1="323.091" x2="740.271" y2="25.5624" gradientUnits="userSpaceOnUse">
<stop stop-color="white"/>
<stop offset="0.0436152" stop-color="#B4B4B4"/>
<stop offset="0.150732"/>
<stop offset="0.171421" stop-color="#171717"/>
<stop offset="0.385884" stop-color="white"/>
<stop offset="0.632551" stop-color="#E6E6E6"/>
<stop offset="0.856667" stop-color="#1A1A1A"/>
<stop offset="0.998739"/>
</linearGradient>
<linearGradient id="paint2_linear_15_999" x1="138.574" y1="309.713" x2="715.529" y2="34.8426" gradientUnits="userSpaceOnUse">
<stop stop-color="white"/>
<stop offset="0.0436152" stop-color="#B4B4B4"/>
<stop offset="0.150732"/>
<stop offset="0.171421" stop-color="#171717"/>
<stop offset="0.385884" stop-color="white"/>
<stop offset="0.632551" stop-color="#E6E6E6"/>
<stop offset="0.856667" stop-color="#1A1A1A"/>
<stop offset="0.998739"/>
</linearGradient>
<linearGradient id="paint3_linear_15_999" x1="161.395" y1="296.331" x2="690.79" y2="44.1192" gradientUnits="userSpaceOnUse">
<stop stop-color="white"/>
<stop offset="0.0436152" stop-color="#B4B4B4"/>
<stop offset="0.150732"/>
<stop offset="0.171421" stop-color="#171717"/>
<stop offset="0.385884" stop-color="white"/>
<stop offset="0.632551" stop-color="#E6E6E6"/>
<stop offset="0.856667" stop-color="#1A1A1A"/>
<stop offset="0.998739"/>
</linearGradient>
<linearGradient id="paint4_linear_15_999" x1="184.213" y1="282.952" x2="666.047" y2="53.3984" gradientUnits="userSpaceOnUse">
<stop stop-color="white"/>
<stop offset="0.0436152" stop-color="#B4B4B4"/>
<stop offset="0.150732"/>
<stop offset="0.171421" stop-color="#171717"/>
<stop offset="0.385884" stop-color="white"/>
<stop offset="0.632551" stop-color="#E6E6E6"/>
<stop offset="0.856667" stop-color="#1A1A1A"/>
<stop offset="0.998739"/>
</linearGradient>
<linearGradient id="paint5_linear_15_999" x1="207.03" y1="269.571" x2="641.304" y2="62.6759" gradientUnits="userSpaceOnUse">
<stop stop-color="white"/>
<stop offset="0.0436152" stop-color="#B4B4B4"/>
<stop offset="0.150732"/>
<stop offset="0.171421" stop-color="#171717"/>
<stop offset="0.385884" stop-color="white"/>
<stop offset="0.632551" stop-color="#E6E6E6"/>
<stop offset="0.856667" stop-color="#1A1A1A"/>
<stop offset="0.998739"/>
</linearGradient>
<linearGradient id="paint6_linear_15_999" x1="229.844" y1="256.192" x2="616.559" y2="71.9548" gradientUnits="userSpaceOnUse">
<stop stop-color="white"/>
<stop offset="0.0436152" stop-color="#B4B4B4"/>
<stop offset="0.150732"/>
<stop offset="0.171421" stop-color="#171717"/>
<stop offset="0.385884" stop-color="white"/>
<stop offset="0.632551" stop-color="#E6E6E6"/>
<stop offset="0.856667" stop-color="#1A1A1A"/>
<stop offset="0.998739"/>
</linearGradient>
<linearGradient id="paint7_linear_15_999" x1="252.644" y1="242.776" x2="591.803" y2="81.1956" gradientUnits="userSpaceOnUse">
<stop stop-color="white"/>
<stop offset="0.0436152" stop-color="#B4B4B4"/>
<stop offset="0.150732"/>
<stop offset="0.171421" stop-color="#171717"/>
<stop offset="0.385884" stop-color="white"/>
<stop offset="0.632551" stop-color="#E6E6E6"/>
<stop offset="0.856667" stop-color="#1A1A1A"/>
<stop offset="0.998739"/>
</linearGradient>
<linearGradient id="paint8_linear_15_999" x1="275.467" y1="229.419" x2="567.07" y2="90.4954" gradientUnits="userSpaceOnUse">
<stop stop-color="white"/>
<stop offset="0.0436152" stop-color="#B4B4B4"/>
<stop offset="0.150732"/>
<stop offset="0.171421" stop-color="#171717"/>
<stop offset="0.385884" stop-color="white"/>
<stop offset="0.632551" stop-color="#E6E6E6"/>
<stop offset="0.856667" stop-color="#1A1A1A"/>
<stop offset="0.998739"/>
</linearGradient>
<linearGradient id="paint9_linear_15_999" x1="298.262" y1="216" x2="542.309" y2="99.7316" gradientUnits="userSpaceOnUse">
<stop stop-color="white"/>
<stop offset="0.0436152" stop-color="#B4B4B4"/>
<stop offset="0.150732"/>
<stop offset="0.171421" stop-color="#171717"/>
<stop offset="0.385884" stop-color="white"/>
<stop offset="0.632551" stop-color="#E6E6E6"/>
<stop offset="0.856667" stop-color="#1A1A1A"/>
<stop offset="0.998739"/>
</linearGradient>
<linearGradient id="paint10_linear_15_999" x1="321.088" y1="202.661" x2="517.584" y2="109.046" gradientUnits="userSpaceOnUse">
<stop stop-color="white"/>
<stop offset="0.0436152" stop-color="#B4B4B4"/>
<stop offset="0.150732"/>
<stop offset="0.171421" stop-color="#171717"/>
<stop offset="0.385884" stop-color="white"/>
<stop offset="0.632551" stop-color="#E6E6E6"/>
<stop offset="0.856667" stop-color="#1A1A1A"/>
<stop offset="0.998739"/>
</linearGradient>
<linearGradient id="paint11_linear_15_999" x1="343.895" y1="189.289" x2="492.848" y2="118.325" gradientUnits="userSpaceOnUse">
<stop stop-color="white"/>
<stop offset="0.0436152" stop-color="#B4B4B4"/>
<stop offset="0.150732"/>
<stop offset="0.171421" stop-color="#171717"/>
<stop offset="0.385884" stop-color="white"/>
<stop offset="0.632551" stop-color="#E6E6E6"/>
<stop offset="0.856667" stop-color="#1A1A1A"/>
<stop offset="0.998739"/>
</linearGradient>
</defs>
</svg>
