<svg width="208" height="176" viewBox="0 0 208 176" fill="none" xmlns="http://www.w3.org/2000/svg">
<g opacity="0.35">
<mask id="mask0_45_586" style="mask-type:alpha" maskUnits="userSpaceOnUse" x="-19" y="35" width="337" height="284">
<path d="M186.308 45.7371C180.185 43.643 173.911 41.7594 167.498 40.0914C131.422 30.7081 104.377 36.0562 84.8168 56.4409C67.8681 74.1042 59.0978 100.29 51.3599 123.393C46.1951 138.814 41.3165 153.38 34.7411 162.922C12.8519 194.687 -0.709026 198.792 -8.81125 201.245C-13.5029 202.665 -16.6022 203.603 -18.2558 209.2C-19.8761 214.684 -5.40634 227.334 27.2814 249.008C41.4184 258.382 54.6793 258.984 65.3347 259.468C70.6725 259.711 75.2901 259.92 78.9683 261.193L79.0953 260.824L78.9683 261.193C89.0974 264.692 91.4225 266.94 96.5169 271.867C100.765 275.975 107.185 282.183 121.916 292.618C134.862 301.788 157.041 310.364 179.801 314.999C192.751 317.637 205.446 318.969 217.534 318.958C231.066 318.946 243.527 317.234 254.57 313.87C275.027 307.637 290.316 295.894 300.011 278.967C309.562 262.291 315.364 243.875 317.257 224.231C319.138 204.718 317.068 184.989 311.107 165.591C302.43 137.355 285.699 111.262 262.723 90.1309C250.474 78.866 236.435 68.9736 220.995 60.7282C210.146 54.9345 198.533 49.9178 186.308 45.7371ZM41.0081 254.934C36.6886 253.457 32.2206 251.356 27.6643 248.334C12.7979 238.477 1.90598 230.628 -5.63434 224.34C-16.5107 215.269 -18.1532 211.197 -17.616 209.378C-16.0936 204.225 -13.4669 203.43 -8.69857 201.987C-0.504778 199.506 13.2092 195.355 35.2586 163.358C41.9057 153.711 46.804 139.086 51.99 123.602C59.6977 100.589 68.4339 74.5051 85.2468 56.9832C104.613 36.8003 131.448 31.5202 167.286 40.8416C186.458 45.8278 204.415 52.755 220.659 61.4297C236.056 69.6521 250.054 79.5159 262.266 90.7467C285.158 111.8 301.825 137.789 310.466 165.906C316.395 185.201 318.454 204.822 316.584 224.222C314.704 243.738 308.94 262.031 299.454 278.594C289.867 295.334 274.727 306.953 254.456 313.128C243.473 316.475 231.073 318.177 217.601 318.189C205.551 318.2 192.895 316.872 179.983 314.242C157.296 309.622 135.199 301.081 122.314 291.954C107.62 281.545 101.219 275.357 96.9843 271.261C91.8257 266.273 89.4712 263.996 79.2223 260.456C79.2049 260.45 79.1869 260.444 79.1695 260.438C75.4147 259.154 70.7853 258.943 65.4281 258.7C58.2867 258.376 49.9667 257.998 41.0081 254.934Z" fill="url(#paint0_linear_45_586)"/>
</mask>
<g mask="url(#mask0_45_586)">
<path d="M186.308 45.7371C180.185 43.643 173.911 41.7594 167.498 40.0914C131.422 30.7081 104.377 36.0562 84.8168 56.4409C67.8681 74.1042 59.0978 100.29 51.3599 123.393C46.1951 138.814 41.3165 153.38 34.7411 162.922C12.8519 194.687 -0.709026 198.792 -8.81125 201.245C-13.5029 202.665 -16.6022 203.603 -18.2558 209.2C-19.8761 214.684 -5.40634 227.334 27.2814 249.008C41.4184 258.382 54.6793 258.984 65.3347 259.468C70.6725 259.711 75.2901 259.92 78.9683 261.193L79.0953 260.824L78.9683 261.193C89.0974 264.692 91.4225 266.94 96.5169 271.867C100.765 275.975 107.185 282.183 121.916 292.618C134.862 301.788 157.041 310.364 179.801 314.999C192.751 317.637 205.446 318.969 217.534 318.958C231.066 318.946 243.527 317.234 254.57 313.87C275.027 307.637 290.316 295.894 300.011 278.967C309.562 262.291 315.364 243.875 317.257 224.231C319.138 204.718 317.068 184.989 311.107 165.591C302.43 137.355 285.699 111.262 262.723 90.1309C250.474 78.866 236.435 68.9736 220.995 60.7282C210.146 54.9345 198.533 49.9178 186.308 45.7371ZM41.0081 254.934C36.6886 253.457 32.2206 251.356 27.6643 248.334C12.7979 238.477 1.90598 230.628 -5.63434 224.34C-16.5107 215.269 -18.1532 211.197 -17.616 209.378C-16.0936 204.225 -13.4669 203.43 -8.69857 201.987C-0.504778 199.506 13.2092 195.355 35.2586 163.358C41.9057 153.711 46.804 139.086 51.99 123.602C59.6977 100.589 68.4339 74.5051 85.2468 56.9832C104.613 36.8003 131.448 31.5202 167.286 40.8416C186.458 45.8278 204.415 52.755 220.659 61.4297C236.056 69.6521 250.054 79.5159 262.266 90.7467C285.158 111.8 301.825 137.789 310.466 165.906C316.395 185.201 318.454 204.822 316.584 224.222C314.704 243.738 308.94 262.031 299.454 278.594C289.867 295.334 274.727 306.953 254.456 313.128C243.473 316.475 231.073 318.177 217.601 318.189C205.551 318.2 192.895 316.872 179.983 314.242C157.296 309.622 135.199 301.081 122.314 291.954C107.62 281.545 101.219 275.357 96.9843 271.261C91.8257 266.273 89.4712 263.996 79.2223 260.456C79.2049 260.45 79.1869 260.444 79.1695 260.438C75.4147 259.154 70.7853 258.943 65.4281 258.7C58.2867 258.376 49.9667 257.998 41.0081 254.934Z" fill="#C0C0C0"/>
</g>
<mask id="mask1_45_586" style="mask-type:alpha" maskUnits="userSpaceOnUse" x="-5" y="51" width="310" height="260">
<path d="M184.832 60.2437C179.881 58.5503 174.821 57.0074 169.66 55.6184C137.196 46.7955 112.663 51.0574 94.6599 68.6474C79.0204 83.9283 70.5484 107.033 63.0739 127.419C57.8673 141.618 52.9495 155.03 46.3403 163.781C25.5928 191.941 12.5227 196.055 4.71375 198.513C-0.00575376 199.998 -3.12387 200.98 -4.79182 206.393C-5.77749 209.436 -2.39655 214.662 5.25838 221.92C12.145 228.449 22.2252 236.361 34.4091 244.801C47.106 253.681 59.0461 254.669 68.6401 255.462C73.2781 255.846 77.2836 256.177 80.617 257.312L80.6173 257.312C91.1924 260.889 93.4752 262.767 100.252 268.32C104.806 272.051 111.042 277.162 122.93 285.419C135.105 293.882 155.808 301.853 176.958 306.221C189.055 308.72 200.886 310.007 212.123 310.045C224.731 310.089 236.315 308.544 246.554 305.454C265.025 299.88 278.888 289.395 287.758 274.293C296.65 259.082 302.122 242.255 304.023 224.278C305.912 206.414 304.181 188.337 298.878 170.55C291.215 144.848 276.246 121.044 255.59 101.712C244.577 91.4049 231.929 82.3285 217.997 74.7356C207.668 69.1062 196.56 64.2544 184.832 60.2437ZM48.4147 251.134C44.023 249.632 39.4515 247.443 34.7788 244.175C9.00836 226.324 -5.92521 211.917 -4.19536 206.576C-2.65017 201.56 0.163911 200.675 4.82607 199.207C12.7149 196.724 25.9183 192.569 46.8083 164.215C53.4896 155.369 58.4286 141.899 63.6578 127.638C71.1014 107.337 79.5385 84.3271 95.0465 69.1745C112.868 51.7619 137.208 47.5576 169.456 56.322C186.8 60.9899 203.024 67.4064 217.678 75.3923C231.569 82.9633 244.179 92.0122 255.158 102.288C275.735 121.545 290.644 145.25 298.273 170.84C303.548 188.53 305.27 206.504 303.392 224.262C301.503 242.118 296.069 258.831 287.24 273.935C278.471 288.865 264.747 299.235 246.448 304.758C232.924 308.839 209.92 312.283 177.131 305.511C156.047 301.156 135.419 293.217 123.299 284.793C111.429 276.548 105.203 271.446 100.657 267.72C94.0077 262.272 91.513 260.234 80.8531 256.618C77.4576 255.463 73.4216 255.129 68.7482 254.742C62.7583 254.247 55.8457 253.675 48.4147 251.134Z" fill="url(#paint1_linear_45_586)"/>
</mask>
<g mask="url(#mask1_45_586)">
<path d="M184.832 60.2434C179.88 58.5501 174.82 57.0072 169.659 55.6182C137.195 46.7953 112.662 51.0572 94.6594 68.6471C79.0199 83.9281 70.5479 107.033 63.0735 127.418C57.8668 141.618 52.949 155.03 46.3398 163.781C25.5923 191.941 12.5223 196.055 4.71326 198.513C-0.00624204 199.998 -3.12436 200.979 -4.79231 206.393C-5.77798 209.436 -2.39704 214.662 5.25789 221.92C12.1445 228.449 22.2247 236.361 34.4086 244.801C47.1055 253.681 59.0456 254.669 68.6396 255.462C73.2776 255.846 77.2831 256.177 80.6165 257.311L80.6168 257.312C91.1919 260.888 93.4747 262.766 100.252 268.32C104.805 272.051 111.041 277.161 122.929 285.419C135.105 293.882 155.807 301.853 176.958 306.221C189.054 308.72 200.886 310.006 212.123 310.045C224.731 310.089 236.315 308.544 246.553 305.454C265.024 299.879 278.888 289.395 287.758 274.292C296.649 259.082 302.121 242.255 304.022 224.277C305.912 206.413 304.181 188.337 298.877 170.549C291.214 144.847 276.246 121.044 255.59 101.712C244.577 91.4047 231.928 82.3282 217.997 74.7353C207.668 69.1059 196.559 64.2542 184.832 60.2434ZM48.4142 251.133C44.0225 249.631 39.451 247.443 34.7783 244.175C9.00787 226.324 -5.9257 211.917 -4.19584 206.575C-2.65066 201.56 0.163423 200.675 4.82559 199.207C12.7144 196.724 25.9178 192.568 46.8078 164.215C53.4891 155.369 58.4281 141.899 63.6573 127.638C71.1009 107.337 79.538 84.3269 95.046 69.1743C112.867 51.7617 137.207 47.5573 169.456 56.3217C186.8 60.9896 203.024 67.4061 217.677 75.3921C231.568 82.9631 244.178 92.012 255.157 102.287C275.734 121.545 290.643 145.25 298.273 170.84C303.547 188.53 305.269 206.504 303.391 224.262C301.503 242.118 296.069 258.831 287.239 273.935C278.471 288.864 264.746 299.235 246.448 304.757C232.924 308.839 209.92 312.283 177.13 305.51C156.046 301.155 135.419 293.217 123.299 284.793C111.429 276.548 105.203 271.446 100.656 267.72C94.0072 262.272 91.5126 260.234 80.8526 256.618C77.4572 255.462 73.4211 255.129 68.7477 254.742C62.7578 254.247 55.8452 253.675 48.4142 251.133Z" fill="#C0C0C0"/>
</g>
<mask id="mask2_45_586" style="mask-type:alpha" maskUnits="userSpaceOnUse" x="8" y="66" width="284" height="236">
<path d="M183.53 74.7807C179.707 73.4732 175.807 72.2624 171.82 71.1453C142.942 62.8826 120.915 66.0813 104.483 80.9244C90.1632 93.8585 82.0089 113.902 74.8146 131.586C69.5587 144.506 64.5944 156.708 57.9387 164.64C38.3725 189.202 25.8051 193.303 18.2963 195.752C13.5175 197.312 10.3606 198.342 8.67058 203.586C6.17144 210.68 23.9538 227.744 41.5346 240.593C52.8474 249.04 63.5151 250.413 72.0872 251.517C75.9746 252.017 79.3317 252.449 82.2644 253.43L82.265 253.43C94.3043 257.418 96.2808 258.824 107.26 266.614C111.394 269.547 116.539 273.197 123.941 278.22C131.507 283.361 142.665 288.431 155.358 292.493C169.641 297.066 184.613 299.955 198.656 300.85C215.275 301.908 230.024 300.198 242.495 295.765C257.022 290.602 268.128 281.805 275.505 269.618C283.739 255.872 288.882 240.632 290.793 224.32C292.693 208.102 291.301 191.675 286.656 175.496C280.004 152.329 266.796 130.817 248.458 113.286C230.816 96.4184 209.012 83.4958 183.53 74.7807ZM56.0247 247.507C51.5093 245.963 46.7591 243.65 41.8925 240.016C20.9541 224.713 7.21584 209.471 9.22373 203.771C10.7993 198.883 13.6629 197.949 18.4072 196.401C25.9841 193.928 38.6654 189.79 58.3558 165.072C65.0835 157.055 70.0707 144.796 75.3504 131.818C82.5132 114.211 90.6316 94.2559 104.824 81.4368C121.088 66.7459 142.939 63.5942 171.624 71.8018C202.111 80.3451 227.822 94.4816 248.05 113.82C266.313 131.28 279.467 152.7 286.088 175.761C290.707 191.849 292.092 208.178 290.204 224.297C288.306 240.496 283.199 255.629 275.024 269.276C267.737 281.315 256.75 290.011 242.37 295.122C229.971 299.529 215.294 301.229 198.747 300.175C184.745 299.283 169.815 296.402 155.57 291.842C142.922 287.791 131.81 282.746 124.282 277.632C116.885 272.611 111.742 268.963 107.61 266.031C96.5784 258.204 94.5912 256.796 82.4823 252.78C79.5037 251.784 76.1242 251.349 72.2113 250.845C67.3938 250.225 61.9087 249.519 56.0247 247.507Z" fill="url(#paint2_linear_45_586)"/>
</mask>
<g mask="url(#mask2_45_586)">
<path d="M183.53 74.7807C179.707 73.4732 175.807 72.2624 171.821 71.1453C142.943 62.8826 120.916 66.0813 104.483 80.9244C90.1634 93.8585 82.0092 113.902 74.8148 131.586C69.559 144.506 64.5946 156.708 57.939 164.64C38.3727 189.202 25.8053 193.303 18.2966 195.752C13.5178 197.312 10.3608 198.342 8.67082 203.586C6.17169 210.68 23.954 227.744 41.5349 240.593C52.8477 249.04 63.5153 250.413 72.0875 251.517C75.9748 252.017 79.332 252.449 82.2646 253.43L82.2653 253.43C94.3045 257.418 96.2811 258.824 107.26 266.614C111.394 269.547 116.539 273.197 123.941 278.22C131.508 283.361 142.665 288.431 155.358 292.493C169.641 297.066 184.613 299.955 198.656 300.85C215.275 301.908 230.024 300.198 242.495 295.765C257.022 290.602 268.128 281.805 275.505 269.618C283.739 255.872 288.883 240.632 290.794 224.32C292.693 208.102 291.301 191.675 286.656 175.496C280.004 152.329 266.796 130.817 248.459 113.286C230.816 96.4184 209.012 83.4958 183.53 74.7807ZM56.0249 247.507C51.5095 245.963 46.7593 243.65 41.8927 240.016C20.9543 224.713 7.21608 209.471 9.22398 203.771C10.7995 198.883 13.6632 197.949 18.4075 196.401C25.9844 193.928 38.6657 189.79 58.3561 165.072C65.0837 157.055 70.0709 144.796 75.3507 131.818C82.5134 114.211 90.6318 94.2559 104.824 81.4368C121.088 66.7459 142.939 63.5942 171.624 71.8018C202.111 80.3451 227.822 94.4816 248.05 113.82C266.314 131.28 279.467 152.7 286.088 175.761C290.708 191.849 292.092 208.178 290.204 224.297C288.306 240.496 283.199 255.629 275.024 269.276C267.737 281.315 256.75 290.011 242.37 295.122C229.971 299.529 215.294 301.229 198.747 300.175C184.746 299.283 169.815 296.402 155.57 291.842C142.922 287.791 131.81 282.746 124.282 277.632C116.885 272.611 111.742 268.963 107.61 266.031C96.5786 258.204 94.5915 256.796 82.4826 252.78C79.5039 251.784 76.1245 251.349 72.2115 250.845C67.394 250.225 61.909 249.519 56.0249 247.507Z" fill="#C0C0C0"/>
</g>
<mask id="mask3_45_586" style="mask-type:alpha" maskUnits="userSpaceOnUse" x="21" y="82" width="258" height="211">
<path d="M182.025 89.2272C179.388 88.3255 176.708 87.4742 173.983 86.6724C148.658 78.9694 129.128 81.1334 114.279 93.2892C101.293 103.921 93.8161 120.196 86.5855 135.936C81.2732 147.499 76.2553 158.422 69.5396 165.499C51.211 186.473 39.6298 190.374 31.9661 192.955C26.9094 194.658 23.8573 195.686 22.1345 200.779C19.6901 207.198 31.34 222.844 48.6612 236.384C58.6907 244.518 68.1796 246.28 75.8042 247.697C78.721 248.238 81.4759 248.75 83.9133 249.548L83.9141 249.548L85.15 249.947C99.364 254.532 100.524 254.907 124.954 271.022C131.815 275.557 142.262 280.264 153.61 283.942C166.664 288.169 180.306 290.915 193.062 291.881C208.218 293.03 221.669 291.689 233.04 287.895C246.305 283.47 256.469 275.748 263.252 264.944C270.833 252.662 275.651 239.007 277.574 224.357C279.487 209.783 278.436 195.003 274.448 180.428C268.804 159.796 257.352 140.578 241.331 124.85C225.396 109.208 205.474 97.2468 182.025 89.2272ZM64.001 244.184C59.2722 242.567 54.2112 240.077 49.0082 235.857C32.1588 222.686 20.3336 207.035 22.6446 200.966C24.2606 196.188 27.2016 195.198 32.0742 193.557C39.3288 191.113 51.4706 187.024 69.9037 165.93C76.6909 158.778 81.7329 147.802 87.0714 136.181C94.2677 120.516 101.709 104.318 114.573 93.787C129.267 81.758 148.638 79.6301 173.794 87.2816C200.684 95.1925 223.276 107.997 240.946 125.343C256.899 141.004 268.3 160.135 273.918 180.667C277.881 195.156 278.927 209.845 277.026 224.325C275.117 238.871 270.334 252.426 262.81 264.616C256.114 275.283 246.061 282.913 232.934 287.293C221.628 291.065 208.243 292.397 193.153 291.254C180.433 290.29 166.829 287.552 153.809 283.336C142.499 279.673 132.095 274.983 125.267 270.47C100.783 254.32 99.6168 253.943 85.3489 249.341L84.114 248.942C81.6474 248.135 78.8778 247.62 75.9453 247.076C72.3364 246.405 68.3064 245.657 64.001 244.184Z" fill="url(#paint3_linear_45_586)"/>
</mask>
<g mask="url(#mask3_45_586)">
<path d="M182.025 89.2272C179.388 88.3255 176.708 87.4742 173.983 86.6724C148.658 78.9694 129.128 81.1334 114.279 93.2892C101.293 103.921 93.8161 120.196 86.5855 135.936C81.2732 147.499 76.2553 158.422 69.5396 165.499C51.211 186.473 39.6298 190.374 31.9661 192.955C26.9094 194.658 23.8573 195.686 22.1345 200.779C19.6901 207.198 31.34 222.844 48.6612 236.384C58.6907 244.518 68.1796 246.28 75.8042 247.697C78.721 248.238 81.4759 248.75 83.9133 249.548L83.9141 249.548L85.15 249.947C99.364 254.532 100.524 254.907 124.954 271.022C131.815 275.557 142.262 280.264 153.61 283.942C166.664 288.169 180.306 290.915 193.062 291.881C208.218 293.03 221.669 291.689 233.04 287.895C246.305 283.47 256.469 275.748 263.252 264.944C270.833 252.662 275.651 239.007 277.574 224.357C279.487 209.783 278.436 195.003 274.448 180.428C268.804 159.796 257.352 140.578 241.331 124.85C225.396 109.208 205.474 97.2468 182.025 89.2272ZM64.001 244.184C59.2722 242.567 54.2112 240.077 49.0082 235.857C32.1588 222.686 20.3336 207.035 22.6446 200.966C24.2606 196.188 27.2016 195.198 32.0742 193.557C39.3288 191.113 51.4706 187.024 69.9037 165.93C76.6909 158.778 81.7329 147.802 87.0714 136.181C94.2677 120.516 101.709 104.318 114.573 93.787C129.267 81.758 148.638 79.6301 173.794 87.2816C200.684 95.1925 223.276 107.997 240.946 125.343C256.899 141.004 268.3 160.135 273.918 180.667C277.881 195.156 278.927 209.845 277.026 224.325C275.117 238.871 270.334 252.426 262.81 264.616C256.114 275.283 246.061 282.913 232.934 287.293C221.628 291.065 208.243 292.397 193.153 291.254C180.433 290.29 166.829 287.552 153.809 283.336C142.499 279.673 132.095 274.983 125.267 270.47C100.783 254.32 99.6168 253.943 85.3489 249.341L84.114 248.942C81.6474 248.135 78.8778 247.62 75.9453 247.076C72.3364 246.405 68.3064 245.657 64.001 244.184Z" fill="#C0C0C0"/>
</g>
<mask id="mask4_45_586" style="mask-type:alpha" maskUnits="userSpaceOnUse" x="35" y="97" width="231" height="187">
<path d="M180.515 103.629C179.073 103.136 177.617 102.659 176.144 102.2C127.256 86.1853 111.915 115.051 98.3797 140.518C93.0055 150.63 87.9294 160.181 81.1413 166.36C64.1332 183.758 53.0795 187.576 45.765 190.103C40.5287 191.911 37.368 193.003 35.5973 197.972C34.3315 201.065 35.6558 206.451 39.2366 212.736C43.0387 219.41 48.9161 226.313 55.7861 232.175C64.7575 240.276 72.9224 242.347 80.1264 244.175C82.0376 244.66 83.8429 245.118 85.5611 245.666L85.5623 245.667C88.1541 246.479 90.4315 247.129 92.4408 247.703C101.721 250.352 107.322 251.952 125.967 263.823C137.85 271.413 162.165 280.624 187.467 282.913C201.162 284.152 213.314 283.18 223.584 280.024C235.587 276.337 244.81 269.691 250.998 260.27C257.93 249.451 262.427 237.379 264.366 224.388C266.297 211.453 265.588 198.315 262.259 185.34C257.616 167.245 247.916 150.322 234.207 136.401C219.996 121.971 201.949 110.959 180.515 103.629ZM72.54 241.404C67.436 239.659 61.9489 236.961 56.124 231.701C41.3638 219.108 33.7074 203.918 36.0647 198.158C37.7366 193.467 40.7975 192.41 45.8686 190.658C53.2316 188.115 64.3583 184.272 81.45 166.787C88.3076 160.546 93.4098 150.946 98.8119 140.782C105.667 127.883 112.755 114.546 124.277 106.245C137.385 96.8024 154.291 95.6629 175.961 102.762C199.255 110.034 218.73 121.504 233.845 136.852C247.492 150.71 257.146 167.55 261.765 185.552C265.073 198.446 265.778 211.498 263.86 224.346C261.936 237.241 257.473 249.222 250.595 259.956C242.654 272.045 225.269 285.744 187.558 282.332C162.327 280.05 138.091 270.871 126.25 263.309C107.553 251.403 101.928 249.797 92.6111 247.137C90.6044 246.564 88.3303 245.915 85.7441 245.105C84.0134 244.552 82.2019 244.093 80.2841 243.606C77.8145 242.98 75.2301 242.324 72.54 241.404Z" fill="url(#paint4_linear_45_586)"/>
</mask>
<g mask="url(#mask4_45_586)">
<path d="M180.515 103.629C179.073 103.136 177.617 102.659 176.144 102.2C127.256 86.1853 111.915 115.051 98.3795 140.518C93.0053 150.63 87.9291 160.181 81.141 166.36C64.133 183.758 53.0792 187.576 45.7647 190.103C40.5285 191.911 37.3678 193.003 35.597 197.972C34.3313 201.065 35.6556 206.451 39.2363 212.736C43.0385 219.41 48.9159 226.313 55.7859 232.175C64.7572 240.276 72.9221 242.347 80.1261 244.175C82.0374 244.66 83.8427 245.118 85.5609 245.666L85.5621 245.667C88.1538 246.479 90.4313 247.129 92.4405 247.703C101.721 250.352 107.322 251.952 125.967 263.823C137.85 271.413 162.165 280.624 187.467 282.913C201.162 284.152 213.313 283.18 223.584 280.024C235.586 276.337 244.81 269.691 250.998 260.27C257.929 249.451 262.426 237.379 264.366 224.388C266.296 211.453 265.587 198.315 262.258 185.34C257.616 167.245 247.916 150.322 234.207 136.401C219.996 121.971 201.949 110.959 180.515 103.629ZM72.5397 241.404C67.4357 239.659 61.9487 236.961 56.1238 231.701C41.3635 219.108 33.7071 203.918 36.0644 198.158C37.7363 193.467 40.7973 192.41 45.8684 190.658C53.2313 188.115 64.3581 184.272 81.4497 166.787C88.3073 160.546 93.4096 150.946 98.8117 140.782C105.667 127.883 112.755 114.546 124.277 106.245C137.385 96.8024 154.29 95.6629 175.961 102.762C199.254 110.034 218.729 121.504 233.845 136.852C247.491 150.71 257.146 167.55 261.765 185.552C265.073 198.446 265.778 211.498 263.86 224.346C261.936 237.241 257.472 249.222 250.595 259.956C242.654 272.045 225.269 285.744 187.557 282.332C162.327 280.05 138.091 270.871 126.25 263.309C107.552 251.403 101.928 249.797 92.6109 247.137C90.6041 246.564 88.33 245.915 85.7439 245.105C84.0132 244.552 82.2017 244.093 80.2839 243.606C77.8142 242.98 75.2299 242.324 72.5397 241.404Z" fill="#C0C0C0"/>
</g>
<mask id="mask5_45_586" style="mask-type:alpha" maskUnits="userSpaceOnUse" x="48" y="112" width="205" height="163">
<path d="M176.746 117.18C159.11 111.148 145.023 111.541 133.724 118.371C123.446 124.582 116.702 135.17 110.18 145.409C104.745 153.942 99.6116 162.001 92.7442 167.222C77.1883 181.062 66.71 184.736 59.7761 187.166C54.2438 189.106 50.9045 190.277 49.061 195.166C46.2279 201.636 51.5447 217.046 62.9104 227.963C71.4922 236.941 79.0601 239.273 86.3797 241.529L87.2111 241.785C90.7458 242.851 93.7832 243.519 96.7208 244.164C104.595 245.893 112.033 247.527 126.98 256.625C137.862 263.276 159.681 271.532 181.873 273.945C200.577 275.978 225.626 274.445 238.744 255.597C251.318 236.89 255.456 213.064 250.1 190.222C246.451 174.665 238.495 160.041 227.092 147.933C214.625 134.694 198.447 124.613 179 117.962C178.769 117.883 178.539 117.805 178.307 117.727C177.784 117.539 177.263 117.357 176.746 117.18ZM82.1562 239.608C76.2335 237.583 70.0572 234.676 63.2416 227.547C51.0913 215.875 47.0425 200.93 49.4858 195.35C51.2377 190.705 54.4883 189.565 59.8736 187.677C66.8442 185.233 77.3781 181.541 92.9955 167.645C99.9272 162.375 105.089 154.273 110.553 145.694C117.039 135.512 123.745 124.983 133.913 118.838C145.419 111.883 159.877 111.692 178.13 118.241C178.359 118.318 178.591 118.397 178.82 118.475C198.211 125.106 214.331 135.15 226.752 148.34C238.099 160.39 246.015 174.936 249.643 190.407C252.294 201.713 252.655 213.135 250.715 224.356C248.769 235.606 244.62 246.016 238.382 255.296C225.415 273.927 200.544 275.431 181.963 273.411C159.831 271.006 138.079 262.776 127.234 256.147C112.23 247.015 104.761 245.374 96.8537 243.638C93.9234 242.994 90.8934 242.328 87.3735 241.266L86.5441 241.011C85.0935 240.564 83.6325 240.113 82.1562 239.608Z" fill="url(#paint5_linear_45_586)"/>
</mask>
<g mask="url(#mask5_45_586)">
<path d="M175.779 117C158.143 110.969 144.056 111.362 132.757 118.191C122.48 124.403 115.736 134.991 109.213 145.23C103.778 153.762 98.645 161.821 91.7777 167.042C76.2217 180.883 65.7434 184.556 58.8095 186.987C53.2772 188.926 49.9379 190.097 48.0945 194.987C45.2614 201.456 50.5782 216.866 61.9439 227.784C70.5256 236.761 78.0935 239.094 85.4132 241.349L86.2446 241.606C89.7792 242.672 92.8167 243.339 95.7542 243.984C103.629 245.714 111.066 247.348 126.014 256.446C136.895 263.096 158.714 271.353 180.906 273.765C199.61 275.798 224.659 274.265 237.777 255.418C250.352 236.711 254.49 212.884 249.133 190.043C245.485 174.485 237.529 159.862 226.126 147.753C213.659 134.515 197.48 124.433 178.033 117.782C177.802 117.704 177.572 117.626 177.341 117.548C176.817 117.36 176.297 117.177 175.779 117ZM81.1896 239.429C75.2669 237.404 69.0906 234.497 62.275 227.367C50.1248 215.696 46.076 200.75 48.5193 195.17C50.2711 190.525 53.5217 189.386 58.9071 187.498C65.8777 185.054 76.4115 181.361 92.0289 167.465C98.9607 162.196 104.122 154.093 109.586 145.515C116.072 135.332 122.779 124.804 132.946 118.659C144.452 111.704 158.91 111.512 177.163 118.061C177.393 118.139 177.625 118.217 177.853 118.295C197.244 124.927 213.365 134.971 225.786 148.161C237.133 160.21 245.048 174.756 248.676 190.227C251.328 201.533 251.689 212.956 249.748 224.177C247.803 235.427 243.653 245.836 237.415 255.116C224.448 273.747 199.577 275.251 180.997 273.232C158.865 270.826 137.113 262.597 126.268 255.968C111.263 246.835 103.794 245.195 95.8872 243.458C92.9569 242.814 89.9269 242.149 86.4069 241.087L85.5775 240.831C84.127 240.384 82.6659 239.934 81.1896 239.429Z" fill="#C0C0C0"/>
</g>
<mask id="mask6_45_586" style="mask-type:alpha" maskUnits="userSpaceOnUse" x="61" y="128" width="179" height="138">
<path d="M175.814 131.515C162.915 127.103 152.242 126.99 143.296 131.145C134.39 135.282 128.053 143.129 121.925 150.716C116.689 157.199 111.276 163.902 104.347 168.086C90.4659 178.396 80.656 181.824 74.1646 184.093C68.1256 186.203 64.4804 187.477 62.5231 192.359C59.6929 198.425 61.205 213.682 70.0317 223.748C76.0182 231.522 81.6505 235.757 88.857 237.902L88.8585 237.903C92.6961 239.008 96.1712 239.515 99.8502 240.051C107.625 241.186 115.666 242.359 127.993 249.426C137.934 255.158 157.285 262.469 176.277 264.975C192.735 267.147 214.805 266.472 226.487 250.924C237.829 235.098 242.02 214.739 237.989 195.06C235.322 182.043 229.098 169.723 219.991 159.433C209.918 148.051 196.621 139.243 180.469 133.254C178.887 132.615 177.334 132.035 175.814 131.515ZM87.7321 237.022C81.2038 234.79 75.9433 230.647 70.3596 223.396C61.6507 213.464 60.1302 198.489 62.9061 192.539C64.778 187.87 68.1436 186.694 74.2531 184.559C80.7701 182.282 90.6187 178.84 104.538 168.5C111.522 164.284 116.965 157.545 122.229 151.027C128.32 143.485 134.619 135.686 143.424 131.596C153.319 127 165.377 127.696 180.295 133.719C196.394 139.689 209.641 148.462 219.673 159.796C228.73 170.03 234.918 182.277 237.568 195.215C241.569 214.742 237.414 234.942 226.168 250.634C214.627 265.993 192.716 266.646 176.368 264.489C157.425 261.99 138.128 254.7 128.216 248.985C115.829 241.883 107.755 240.705 99.9459 239.566C96.2796 239.031 92.8164 238.526 89.0022 237.428C88.5733 237.3 88.15 237.165 87.7321 237.022Z" fill="url(#paint6_linear_45_586)"/>
</mask>
<g mask="url(#mask6_45_586)">
<path d="M175.814 131.515C162.916 127.104 152.243 126.99 143.297 131.146C134.39 135.283 128.054 143.129 121.925 150.717C116.69 157.199 111.276 163.903 104.347 168.086C90.4664 178.396 80.6564 181.824 74.1651 184.093C68.1261 186.203 64.4809 187.477 62.5236 192.359C59.6933 198.426 61.2055 213.682 70.0322 223.748C76.0186 231.523 81.651 235.757 88.8575 237.903L88.859 237.903C92.6966 239.008 96.1717 239.515 99.8506 240.052C107.626 241.186 115.666 242.359 127.993 249.426C137.935 255.159 157.285 262.47 176.277 264.976C192.735 267.147 214.806 266.472 226.488 250.924C237.83 235.099 242.021 214.739 237.989 195.061C235.322 182.043 229.099 169.723 219.992 159.433C209.918 148.051 196.621 139.244 180.47 133.255C178.887 132.615 177.334 132.035 175.814 131.515ZM87.7326 237.022C81.2043 234.79 75.9438 230.647 70.3601 223.396C61.6512 213.464 60.1307 198.489 62.9065 192.539C64.7785 187.87 68.1441 186.694 74.2536 184.559C80.7706 182.282 90.6192 178.84 104.538 168.5C111.523 164.285 116.966 157.545 122.23 151.027C128.321 143.485 134.62 135.686 143.425 131.596C153.319 127 165.378 127.696 180.296 133.719C196.394 139.689 209.641 148.462 219.673 159.797C228.73 170.03 234.919 182.278 237.569 195.215C241.57 214.743 237.414 234.942 226.168 250.634C214.628 265.993 192.717 266.647 176.368 264.49C157.425 261.99 138.129 254.7 128.217 248.985C115.83 241.883 107.756 240.705 99.9464 239.567C96.2801 239.032 92.8169 238.526 89.0027 237.428C88.5738 237.301 88.1505 237.165 87.7326 237.022Z" fill="#C0C0C0"/>
</g>
<mask id="mask7_45_586" style="mask-type:alpha" maskUnits="userSpaceOnUse" x="73" y="142" width="154" height="116">
<path d="M174.779 145.561C153.997 138.453 143.972 147.293 133.422 156.593C128.219 161.18 122.839 165.923 115.952 168.954C104.173 175.785 95.5986 178.668 89.3378 180.773C82.1158 183.201 78.1377 184.539 75.9877 189.554C74.3592 192.842 73.3045 198.194 73.2415 203.509C73.1654 209.933 74.5544 215.622 77.1529 219.528C80.9894 226.68 84.4144 232.299 90.5066 234.021L90.5083 234.022C94.3642 235.068 98.3498 235.359 102.569 235.667C110.185 236.222 118.818 236.852 129.008 242.228C136.055 245.975 152.765 253.093 170.683 256.007C180.005 257.523 188.258 257.659 195.214 256.412C203.431 254.938 209.83 251.52 214.231 246.253C224.389 233.302 228.666 216.385 225.971 199.832C224.265 189.356 219.754 179.346 212.924 170.886C205.372 161.529 195.181 154.093 182.635 148.783C179.853 147.468 177.24 146.402 174.779 145.561ZM89.9695 233.383C84.4146 231.484 81.143 226.08 77.4817 219.255C71.5415 210.324 73.5756 195.288 76.329 189.728C78.3991 184.9 82.3114 183.585 89.4137 181.196C95.6904 179.086 104.287 176.196 116.081 169.354C123.008 166.307 128.414 161.542 133.642 156.933C139.602 151.678 145.232 146.715 152.694 144.541C161.102 142.092 170.561 143.572 182.462 149.197C194.963 154.488 205.11 161.891 212.625 171.202C219.411 179.609 223.894 189.551 225.587 199.954C228.26 216.367 224.021 233.14 213.957 245.972C209.628 251.151 203.313 254.518 195.191 255.975C188.274 257.215 180.059 257.078 170.775 255.569C152.899 252.662 136.231 245.561 129.2 241.824C118.95 236.416 110.281 235.783 102.632 235.225C98.4293 234.918 94.4592 234.629 90.6337 233.591C90.4089 233.527 90.1872 233.458 89.9695 233.383Z" fill="url(#paint7_linear_45_586)"/>
</mask>
<g mask="url(#mask7_45_586)">
<path d="M174.779 145.561C153.997 138.453 143.972 147.293 133.422 156.593C128.219 161.18 122.839 165.923 115.952 168.954C104.173 175.785 95.5986 178.668 89.3378 180.773C82.1158 183.201 78.1377 184.539 75.9877 189.554C74.3592 192.842 73.3045 198.194 73.2415 203.509C73.1654 209.933 74.5544 215.622 77.1529 219.528C80.9894 226.68 84.4144 232.299 90.5066 234.021L90.5083 234.022C94.3642 235.068 98.3498 235.359 102.569 235.667C110.185 236.222 118.818 236.852 129.008 242.228C136.055 245.975 152.765 253.093 170.683 256.007C180.005 257.523 188.258 257.659 195.214 256.412C203.431 254.938 209.83 251.52 214.231 246.253C224.389 233.302 228.666 216.385 225.971 199.832C224.265 189.356 219.754 179.346 212.924 170.886C205.372 161.529 195.181 154.093 182.635 148.783C179.853 147.468 177.24 146.402 174.779 145.561ZM89.9695 233.383C84.4146 231.484 81.143 226.08 77.4817 219.255C71.5415 210.324 73.5756 195.288 76.329 189.728C78.3991 184.9 82.3114 183.585 89.4137 181.196C95.6904 179.086 104.287 176.196 116.081 169.354C123.008 166.307 128.414 161.542 133.642 156.933C139.602 151.678 145.232 146.715 152.694 144.541C161.102 142.092 170.561 143.572 182.462 149.197C194.963 154.488 205.11 161.891 212.625 171.202C219.411 179.609 223.894 189.551 225.587 199.954C228.26 216.367 224.021 233.14 213.957 245.972C209.628 251.151 203.313 254.518 195.191 255.975C188.274 257.215 180.059 257.078 170.775 255.569C152.899 252.662 136.231 245.561 129.2 241.824C118.95 236.416 110.281 235.783 102.632 235.225C98.4293 234.918 94.4592 234.629 90.6337 233.591C90.4089 233.527 90.1872 233.458 89.9695 233.383Z" fill="#C0C0C0"/>
</g>
<mask id="mask8_45_586" style="mask-type:alpha" maskUnits="userSpaceOnUse" x="83" y="157" width="132" height="92">
<path d="M173.577 158.968C161.025 154.674 153.223 158.546 143.868 163.186C138.984 165.608 133.935 168.112 127.554 169.827C118.863 173.29 112.041 175.318 106.56 176.947C97.1555 179.743 91.9751 181.282 89.4513 186.749C86.3139 192.736 81.3992 207.745 84.2664 215.281C84.3969 215.838 84.5244 216.399 84.6519 216.96C85.9835 222.819 87.3627 228.878 92.1553 230.14L92.1569 230.14C95.9008 231.08 100.423 231.095 105.21 231.112C112.957 231.138 121.736 231.168 130.023 235.03C138.978 239.246 184.537 259.376 201.972 241.584C211.036 231.506 215.468 217.991 214.139 204.497C213.346 196.446 210.584 188.962 205.931 182.252C200.859 174.94 193.751 168.904 184.801 164.314C180.64 161.852 176.937 160.117 173.577 158.968ZM91.8376 229.624C87.5664 228.164 86.2575 222.403 84.9901 216.826C84.8614 216.26 84.7328 215.694 84.6011 215.132L84.5935 215.106C81.764 207.701 86.6398 192.854 89.7516 186.915C92.1988 181.615 97.3197 180.093 106.616 177.33C112.104 175.699 118.934 173.669 127.621 170.206C134.016 168.488 139.081 165.976 143.98 163.546C155.752 157.707 165.051 153.096 184.625 164.673C193.537 169.245 200.608 175.247 205.649 182.515C210.266 189.173 213.006 196.596 213.792 204.579C215.109 217.945 210.718 231.332 201.747 241.308C194.801 248.397 182.496 250.196 165.181 246.648C149.94 243.526 135.628 237.226 130.182 234.662C121.837 230.774 113.023 230.743 105.246 230.716C100.477 230.699 95.9725 230.684 92.2636 229.753C92.1186 229.715 91.9765 229.672 91.8376 229.624Z" fill="url(#paint8_linear_45_586)"/>
</mask>
<g mask="url(#mask8_45_586)">
<path d="M173.577 158.968C161.025 154.674 153.223 158.546 143.868 163.186C138.984 165.608 133.935 168.112 127.554 169.827C118.863 173.29 112.041 175.318 106.56 176.947C97.1555 179.743 91.9751 181.282 89.4513 186.749C86.3139 192.736 81.3992 207.745 84.2664 215.281C84.3969 215.838 84.5244 216.399 84.6519 216.96C85.9835 222.819 87.3627 228.878 92.1553 230.14L92.1569 230.14C95.9008 231.08 100.423 231.095 105.21 231.112C112.957 231.138 121.736 231.168 130.023 235.03C138.978 239.246 184.537 259.376 201.972 241.584C211.036 231.506 215.468 217.991 214.139 204.497C213.346 196.446 210.584 188.962 205.931 182.252C200.859 174.94 193.751 168.904 184.801 164.314C180.64 161.852 176.937 160.117 173.577 158.968ZM91.8376 229.624C87.5664 228.164 86.2575 222.403 84.9901 216.826C84.8614 216.26 84.7328 215.694 84.6011 215.132L84.5935 215.106C81.764 207.701 86.6398 192.854 89.7516 186.915C92.1988 181.615 97.3197 180.093 106.616 177.33C112.104 175.699 118.934 173.669 127.621 170.206C134.016 168.488 139.081 165.976 143.98 163.546C155.752 157.707 165.051 153.096 184.625 164.673C193.537 169.245 200.608 175.247 205.649 182.515C210.266 189.173 213.006 196.596 213.792 204.579C215.109 217.945 210.718 231.332 201.747 241.308C194.801 248.397 182.496 250.196 165.181 246.648C149.94 243.526 135.628 237.226 130.182 234.662C121.837 230.774 113.023 230.743 105.246 230.716C100.477 230.699 95.9725 230.684 92.2636 229.753C92.1186 229.715 91.9765 229.672 91.8376 229.624Z" fill="#C0C0C0"/>
</g>
<mask id="mask9_45_586" style="mask-type:alpha" maskUnits="userSpaceOnUse" x="90" y="168" width="113" height="73">
<path d="M171.728 170.493C164.306 167.955 157.388 168.731 147.825 169.804C145.107 170.109 142.297 170.424 139.154 170.705C136.812 171.161 134.621 171.58 132.558 171.974C114.606 175.402 106.413 176.967 102.914 183.944C100.097 189.042 91.5167 204.568 91.3989 211.014C90.265 217.581 89.5236 225.241 93.8043 226.258L93.8058 226.258C97.3879 227.065 102.566 226.742 108.048 226.4C115.779 225.918 124.54 225.373 131.039 227.832C132.274 228.306 133.742 228.9 135.442 229.587C142.407 232.402 152.933 236.656 163.186 238.983C175.453 241.767 184.377 241.072 189.708 236.916C197.755 229.848 202.632 219.416 202.763 209.003C202.909 197.456 197.301 187.102 186.973 179.848C181.185 174.951 176.358 172.077 171.728 170.493ZM93.5843 225.826C89.8789 224.559 90.6225 217.287 91.7033 211.033L91.7062 211.002C91.809 204.666 100.363 189.187 103.174 184.101C106.594 177.28 114.737 175.725 132.58 172.318C134.643 171.924 136.835 171.506 139.162 171.051C142.294 170.772 145.106 170.457 147.825 170.152C163.283 168.418 171.797 167.463 186.783 180.143C197.037 187.346 202.6 197.603 202.456 209.032C202.326 219.332 197.499 229.653 189.543 236.641C184.297 240.73 175.456 241.405 163.274 238.64C153.041 236.317 142.527 232.068 135.57 229.256C133.869 228.569 132.4 227.975 131.162 227.5C124.609 225.02 115.819 225.568 108.061 226.051C102.6 226.392 97.4405 226.713 93.8948 225.916C93.7882 225.89 93.6845 225.86 93.5843 225.826Z" fill="url(#paint9_linear_45_586)"/>
</mask>
<g mask="url(#mask9_45_586)">
<path d="M171.728 170.493C164.306 167.955 157.388 168.731 147.825 169.804C145.107 170.109 142.297 170.424 139.154 170.705C136.812 171.161 134.621 171.58 132.558 171.974C114.606 175.402 106.413 176.967 102.914 183.944C100.097 189.042 91.5167 204.568 91.3989 211.014C90.265 217.581 89.5236 225.241 93.8043 226.258L93.8058 226.258C97.3879 227.065 102.566 226.742 108.048 226.4C115.779 225.918 124.54 225.373 131.039 227.832C132.274 228.306 133.742 228.9 135.442 229.587C142.407 232.402 152.933 236.656 163.186 238.983C175.453 241.767 184.377 241.072 189.708 236.916C197.755 229.848 202.632 219.416 202.763 209.003C202.909 197.456 197.301 187.102 186.973 179.848C181.185 174.951 176.358 172.077 171.728 170.493ZM93.5843 225.826C89.8789 224.559 90.6225 217.287 91.7033 211.033L91.7062 211.002C91.809 204.666 100.363 189.187 103.174 184.101C106.594 177.28 114.737 175.725 132.58 172.318C134.643 171.924 136.835 171.506 139.162 171.051C142.294 170.772 145.106 170.457 147.825 170.152C163.283 168.418 171.797 167.463 186.783 180.143C197.037 187.346 202.6 197.603 202.456 209.032C202.326 219.332 197.499 229.653 189.543 236.641C184.297 240.73 175.456 241.405 163.274 238.64C153.041 236.317 142.527 232.068 135.57 229.256C133.869 228.569 132.4 227.975 131.162 227.5C124.609 225.02 115.819 225.568 108.061 226.051C102.6 226.392 97.4405 226.713 93.8948 225.916C93.7882 225.89 93.6845 225.86 93.5843 225.826Z" fill="#C0C0C0"/>
</g>
<mask id="mask10_45_586" style="mask-type:alpha" maskUnits="userSpaceOnUse" x="93" y="171" width="101" height="63">
<path d="M165.507 174.613C161.19 173.137 156.296 172.137 150.748 171.589C130.718 170.893 120.441 173.75 116.378 181.141C114.424 184.501 109.946 190.695 105.996 196.159C102.868 200.486 99.9129 204.573 98.5661 206.753C97.2255 208.54 95.8608 211.213 94.9249 213.891C93.8998 216.823 93.5484 219.26 93.9355 220.754C94.1744 221.676 94.6859 222.221 95.4541 222.376L95.455 222.376C98.9016 223.036 105.055 222.264 111.571 221.447C119.312 220.476 127.317 219.472 132.059 220.634C134.635 221.278 138.508 222.887 142.993 224.751C154.123 229.377 169.369 235.715 177.432 232.249C184.921 228.387 190.779 221.221 192.727 213.542C194.365 207.09 193.129 200.817 189.155 195.399C185.03 188.047 180.539 182.907 175.029 179.237C172.219 177.364 169.058 175.828 165.507 174.613ZM95.3074 222.019C94.7547 221.83 94.3801 221.368 94.1921 220.643C93.4024 217.596 96.0496 210.552 98.7707 206.923C100.12 204.741 103.071 200.659 106.195 196.337C110.15 190.866 114.633 184.665 116.598 181.286C120.599 174.008 130.799 171.2 150.706 171.891C160.775 172.885 168.683 175.375 174.878 179.502C180.355 183.151 184.821 188.264 188.934 195.592C192.863 200.95 194.084 207.132 192.471 213.485C190.546 221.071 184.753 228.154 177.351 231.971C169.392 235.392 154.199 229.077 143.105 224.466C138.613 222.598 134.733 220.985 132.14 220.338C127.357 219.166 119.33 220.173 111.568 221.146C105.071 221.961 98.9351 222.731 95.5243 222.078C95.4492 222.063 95.3769 222.043 95.3074 222.019Z" fill="url(#paint10_linear_45_586)"/>
</mask>
<g mask="url(#mask10_45_586)">
<path d="M165.507 174.613C161.19 173.137 156.296 172.137 150.748 171.589C130.718 170.893 120.441 173.75 116.378 181.141C114.424 184.501 109.946 190.695 105.996 196.159C102.868 200.486 99.9129 204.573 98.5661 206.753C97.2255 208.54 95.8608 211.213 94.9249 213.891C93.8998 216.823 93.5484 219.26 93.9355 220.754C94.1744 221.676 94.6859 222.221 95.4541 222.376L95.455 222.376C98.9016 223.036 105.055 222.264 111.571 221.447C119.312 220.476 127.317 219.472 132.059 220.634C134.635 221.278 138.508 222.887 142.993 224.751C154.123 229.377 169.369 235.715 177.432 232.249C184.921 228.387 190.779 221.221 192.727 213.542C194.365 207.09 193.129 200.817 189.155 195.399C185.03 188.047 180.539 182.907 175.029 179.237C172.219 177.364 169.058 175.828 165.507 174.613ZM95.3074 222.019C94.7547 221.83 94.3801 221.368 94.1921 220.643C93.4024 217.596 96.0496 210.552 98.7707 206.923C100.12 204.741 103.071 200.659 106.195 196.337C110.15 190.866 114.633 184.665 116.598 181.286C120.599 174.008 130.799 171.2 150.706 171.891C160.775 172.885 168.683 175.375 174.878 179.502C180.355 183.151 184.821 188.264 188.934 195.592C192.863 200.95 194.084 207.132 192.471 213.485C190.546 221.071 184.753 228.154 177.351 231.971C169.392 235.392 154.199 229.077 143.105 224.466C138.613 222.598 134.733 220.985 132.14 220.338C127.357 219.166 119.33 220.173 111.568 221.146C105.071 221.961 98.9351 222.731 95.5243 222.078C95.4492 222.063 95.3769 222.043 95.3074 222.019Z" fill="#C0C0C0"/>
</g>
<mask id="mask11_45_586" style="mask-type:alpha" maskUnits="userSpaceOnUse" x="96" y="169" width="96" height="59">
<path d="M163.969 172.996C163.428 172.812 162.883 172.638 162.334 172.475C153.402 169.828 145.927 169.292 140.117 170.883C135.556 172.132 132.098 174.64 129.841 178.338C126.145 184.393 111.734 198.867 105.747 202.537C103.516 203.904 101.073 206.596 99.045 209.921C97.2097 212.929 96.1082 215.848 96.2387 217.356C96.2968 218.027 96.5973 218.42 97.1037 218.494C100.651 219.011 109.288 217.37 117.639 215.784C124.115 214.553 130.232 213.391 133.085 213.434C136.321 213.483 142.028 216.649 148.069 220C154.293 223.452 160.728 227.022 165.139 227.568C169.754 228.139 175.691 226.808 180.633 224.095C186.41 220.924 190.206 216.282 191.324 211.024C192.632 204.871 190.453 196.833 185.497 189.521C180.255 181.786 172.657 175.968 163.969 172.996ZM97.0001 218.204C96.6821 218.095 96.5061 217.8 96.4633 217.306C96.2104 214.384 100.931 205.768 105.839 202.76C111.847 199.076 126.312 184.548 130.022 178.469C132.242 174.832 135.65 172.364 140.149 171.132C145.921 169.552 153.36 170.087 162.258 172.724C171.581 175.486 179.771 181.512 185.314 189.689C190.159 196.837 192.378 204.999 191.105 210.988C190.005 216.161 186.258 220.734 180.552 223.867C175.648 226.559 169.76 227.879 165.185 227.313C160.811 226.772 154.392 223.211 148.184 219.768C142.121 216.405 136.395 213.228 133.11 213.178C130.237 213.134 124.11 214.298 117.624 215.531C109.288 217.115 100.669 218.753 97.154 218.24C97.0994 218.232 97.0481 218.22 97.0001 218.204Z" fill="url(#paint11_linear_45_586)"/>
</mask>
<g mask="url(#mask11_45_586)">
<path d="M163.969 172.996C163.428 172.812 162.883 172.638 162.334 172.475C153.402 169.828 145.927 169.292 140.117 170.883C135.556 172.132 132.098 174.64 129.841 178.338C126.145 184.393 111.734 198.867 105.747 202.537C103.516 203.904 101.073 206.596 99.045 209.921C97.2097 212.929 96.1082 215.848 96.2387 217.356C96.2968 218.027 96.5973 218.42 97.1037 218.494C100.651 219.011 109.288 217.37 117.639 215.784C124.115 214.553 130.232 213.391 133.085 213.434C136.321 213.483 142.028 216.649 148.069 220C154.293 223.452 160.728 227.022 165.139 227.568C169.754 228.139 175.691 226.808 180.633 224.095C186.41 220.924 190.206 216.282 191.324 211.024C192.632 204.871 190.453 196.833 185.497 189.521C180.255 181.786 172.657 175.968 163.969 172.996ZM97.0001 218.204C96.6821 218.095 96.5061 217.8 96.4633 217.306C96.2104 214.384 100.931 205.768 105.839 202.76C111.847 199.076 126.312 184.548 130.022 178.469C132.242 174.832 135.65 172.364 140.149 171.132C145.921 169.552 153.36 170.087 162.258 172.724C171.581 175.486 179.771 181.512 185.314 189.689C190.159 196.837 192.378 204.999 191.105 210.988C190.005 216.161 186.258 220.734 180.552 223.867C175.648 226.559 169.76 227.879 165.185 227.313C160.811 226.772 154.392 223.211 148.184 219.768C142.121 216.405 136.395 213.228 133.11 213.178C130.237 213.134 124.11 214.298 117.624 215.531C109.288 217.115 100.669 218.753 97.154 218.24C97.0994 218.232 97.0481 218.22 97.0001 218.204Z" fill="#C0C0C0"/>
</g>
</g>
<defs>
<linearGradient id="paint0_linear_45_586" x1="11.3568" y1="122.559" x2="319.965" y2="228.098" gradientUnits="userSpaceOnUse">
<stop stop-color="white"/>
<stop offset="0.0436152" stop-color="#B4B4B4"/>
<stop offset="0.150732"/>
<stop offset="0.171421" stop-color="#171717"/>
<stop offset="0.385884" stop-color="white"/>
<stop offset="0.632551" stop-color="#E6E6E6"/>
<stop offset="0.856667" stop-color="#1A1A1A"/>
<stop offset="0.998739"/>
</linearGradient>
<linearGradient id="paint1_linear_45_586" x1="21.4804" y1="129.545" x2="306.498" y2="227.015" gradientUnits="userSpaceOnUse">
<stop stop-color="white"/>
<stop offset="0.0436152" stop-color="#B4B4B4"/>
<stop offset="0.150732"/>
<stop offset="0.171421" stop-color="#171717"/>
<stop offset="0.385884" stop-color="white"/>
<stop offset="0.632551" stop-color="#E6E6E6"/>
<stop offset="0.856667" stop-color="#1A1A1A"/>
<stop offset="0.998739"/>
</linearGradient>
<linearGradient id="paint2_linear_45_586" x1="31.6039" y1="136.517" x2="293.046" y2="225.926" gradientUnits="userSpaceOnUse">
<stop stop-color="white"/>
<stop offset="0.0436152" stop-color="#B4B4B4"/>
<stop offset="0.150732"/>
<stop offset="0.171421" stop-color="#171717"/>
<stop offset="0.385884" stop-color="white"/>
<stop offset="0.632551" stop-color="#E6E6E6"/>
<stop offset="0.856667" stop-color="#1A1A1A"/>
<stop offset="0.998739"/>
</linearGradient>
<linearGradient id="paint3_linear_45_586" x1="41.7284" y1="143.476" x2="279.621" y2="224.831" gradientUnits="userSpaceOnUse">
<stop stop-color="white"/>
<stop offset="0.0436152" stop-color="#B4B4B4"/>
<stop offset="0.150732"/>
<stop offset="0.171421" stop-color="#171717"/>
<stop offset="0.385884" stop-color="white"/>
<stop offset="0.632551" stop-color="#E6E6E6"/>
<stop offset="0.856667" stop-color="#1A1A1A"/>
<stop offset="0.998739"/>
</linearGradient>
<linearGradient id="paint4_linear_45_586" x1="51.8478" y1="150.425" x2="266.225" y2="223.739" gradientUnits="userSpaceOnUse">
<stop stop-color="white"/>
<stop offset="0.0436152" stop-color="#B4B4B4"/>
<stop offset="0.150732"/>
<stop offset="0.171421" stop-color="#171717"/>
<stop offset="0.385884" stop-color="white"/>
<stop offset="0.632551" stop-color="#E6E6E6"/>
<stop offset="0.856667" stop-color="#1A1A1A"/>
<stop offset="0.998739"/>
</linearGradient>
<linearGradient id="paint5_linear_45_586" x1="61.9771" y1="157.322" x2="252.866" y2="222.603" gradientUnits="userSpaceOnUse">
<stop stop-color="white"/>
<stop offset="0.0436152" stop-color="#B4B4B4"/>
<stop offset="0.150732"/>
<stop offset="0.171421" stop-color="#171717"/>
<stop offset="0.385884" stop-color="white"/>
<stop offset="0.632551" stop-color="#E6E6E6"/>
<stop offset="0.856667" stop-color="#1A1A1A"/>
<stop offset="0.998739"/>
</linearGradient>
<linearGradient id="paint6_linear_45_586" x1="72.1192" y1="164.131" x2="239.637" y2="221.419" gradientUnits="userSpaceOnUse">
<stop stop-color="white"/>
<stop offset="0.0436152" stop-color="#B4B4B4"/>
<stop offset="0.150732"/>
<stop offset="0.171421" stop-color="#171717"/>
<stop offset="0.385884" stop-color="white"/>
<stop offset="0.632551" stop-color="#E6E6E6"/>
<stop offset="0.856667" stop-color="#1A1A1A"/>
<stop offset="0.998739"/>
</linearGradient>
<linearGradient id="paint7_linear_45_586" x1="81.7087" y1="172.383" x2="226.039" y2="221.741" gradientUnits="userSpaceOnUse">
<stop stop-color="white"/>
<stop offset="0.0436152" stop-color="#B4B4B4"/>
<stop offset="0.150732"/>
<stop offset="0.171421" stop-color="#171717"/>
<stop offset="0.385884" stop-color="white"/>
<stop offset="0.632551" stop-color="#E6E6E6"/>
<stop offset="0.856667" stop-color="#1A1A1A"/>
<stop offset="0.998739"/>
</linearGradient>
<linearGradient id="paint8_linear_45_586" x1="91.1368" y1="180.292" x2="212.787" y2="221.894" gradientUnits="userSpaceOnUse">
<stop stop-color="white"/>
<stop offset="0.0436152" stop-color="#B4B4B4"/>
<stop offset="0.150732"/>
<stop offset="0.171421" stop-color="#171717"/>
<stop offset="0.385884" stop-color="white"/>
<stop offset="0.632551" stop-color="#E6E6E6"/>
<stop offset="0.856667" stop-color="#1A1A1A"/>
<stop offset="0.998739"/>
</linearGradient>
<linearGradient id="paint9_linear_45_586" x1="98.9868" y1="186.833" x2="200.37" y2="221.504" gradientUnits="userSpaceOnUse">
<stop stop-color="white"/>
<stop offset="0.0436152" stop-color="#B4B4B4"/>
<stop offset="0.150732"/>
<stop offset="0.171421" stop-color="#171717"/>
<stop offset="0.385884" stop-color="white"/>
<stop offset="0.632551" stop-color="#E6E6E6"/>
<stop offset="0.856667" stop-color="#1A1A1A"/>
<stop offset="0.998739"/>
</linearGradient>
<linearGradient id="paint10_linear_45_586" x1="103.358" y1="189.228" x2="190.89" y2="219.163" gradientUnits="userSpaceOnUse">
<stop stop-color="white"/>
<stop offset="0.0436152" stop-color="#B4B4B4"/>
<stop offset="0.150732"/>
<stop offset="0.171421" stop-color="#171717"/>
<stop offset="0.385884" stop-color="white"/>
<stop offset="0.632551" stop-color="#E6E6E6"/>
<stop offset="0.856667" stop-color="#1A1A1A"/>
<stop offset="0.998739"/>
</linearGradient>
<linearGradient id="paint11_linear_45_586" x1="106.066" y1="187.387" x2="189.742" y2="216.002" gradientUnits="userSpaceOnUse">
<stop stop-color="white"/>
<stop offset="0.0436152" stop-color="#B4B4B4"/>
<stop offset="0.150732"/>
<stop offset="0.171421" stop-color="#171717"/>
<stop offset="0.385884" stop-color="white"/>
<stop offset="0.632551" stop-color="#E6E6E6"/>
<stop offset="0.856667" stop-color="#1A1A1A"/>
<stop offset="0.998739"/>
</linearGradient>
</defs>
</svg>
