<svg width="208" height="211" viewBox="0 0 208 211" fill="none" xmlns="http://www.w3.org/2000/svg">
<g opacity="0.35">
<mask id="mask0_45_590" style="mask-type:alpha" maskUnits="userSpaceOnUse" x="-177" y="27" width="341" height="287">
<path d="M30.4315 37.7677C24.2535 35.6549 17.9235 33.7546 11.4535 32.0717C-24.9434 22.605 -52.2293 28.0006 -71.9631 48.5667C-89.0626 66.3872 -97.9109 92.8058 -105.718 116.115C-110.928 131.673 -115.85 146.369 -122.484 155.995C-144.568 188.043 -158.25 192.185 -166.424 194.659C-171.158 196.092 -174.284 197.038 -175.953 202.685C-177.587 208.218 -162.989 220.98 -130.01 242.847C-115.748 252.305 -102.369 252.912 -91.6185 253.4C-86.2332 253.645 -81.5746 253.856 -77.8636 255.14L-77.7355 254.769L-77.8636 255.14C-67.6444 258.671 -65.2986 260.939 -60.1589 265.909C-55.8729 270.054 -49.3958 276.317 -34.5335 286.845C-21.4727 296.096 0.903981 304.749 23.866 309.425C36.9309 312.086 49.7394 313.43 61.9354 313.419C75.5877 313.407 88.1591 311.68 99.3007 308.286C119.94 301.998 135.364 290.15 145.145 273.072C154.781 256.248 160.636 237.668 162.545 217.849C164.443 198.163 162.355 178.258 156.341 158.688C147.586 130.201 130.706 103.875 107.526 82.5564C95.1679 71.1913 81.0037 61.2109 65.4265 52.8921C54.4814 47.0469 42.7645 41.9855 30.4315 37.7677ZM-116.162 248.826C-120.519 247.336 -125.027 245.215 -129.624 242.167C-144.623 232.222 -155.612 224.304 -163.219 217.959C-174.192 208.807 -175.849 204.699 -175.307 202.864C-173.771 197.665 -171.121 196.863 -166.31 195.407C-158.044 192.905 -144.208 188.717 -121.962 156.435C-115.256 146.702 -110.314 131.947 -105.082 116.326C-97.3056 93.1078 -88.4917 66.7916 -71.5293 49.1138C-51.9907 28.7513 -24.9167 23.4243 11.2399 32.8286C30.5823 37.8592 48.6992 44.848 65.0874 53.5999C80.6212 61.8955 94.7445 71.8469 107.065 83.1777C130.16 104.418 146.976 130.639 155.693 159.006C161.676 178.473 163.753 198.268 161.867 217.841C159.969 237.53 154.154 255.986 144.584 272.697C134.911 289.585 119.637 301.307 99.1858 307.538C88.1043 310.914 75.5939 312.632 62.0022 312.644C49.8456 312.655 37.0766 311.315 24.0498 308.662C1.16136 304 -21.1327 295.384 -34.1322 286.175C-48.9574 275.674 -55.4145 269.43 -59.6873 265.298C-64.8918 260.265 -67.2672 257.968 -77.6074 254.397C-77.6249 254.391 -77.643 254.384 -77.6606 254.378C-81.4488 253.083 -86.1194 252.871 -91.5243 252.625C-98.7292 252.298 -107.123 251.917 -116.162 248.826Z" fill="url(#paint0_linear_45_590)"/>
</mask>
<g mask="url(#mask0_45_590)">
<path d="M30.4315 37.7677C24.2535 35.6549 17.9235 33.7546 11.4535 32.0717C-24.9434 22.605 -52.2293 28.0006 -71.9631 48.5667C-89.0626 66.3872 -97.9109 92.8058 -105.718 116.115C-110.928 131.673 -115.85 146.369 -122.484 155.995C-144.568 188.043 -158.25 192.185 -166.424 194.659C-171.158 196.092 -174.284 197.038 -175.953 202.685C-177.587 208.218 -162.989 220.98 -130.01 242.847C-115.748 252.305 -102.369 252.912 -91.6185 253.4C-86.2332 253.645 -81.5746 253.856 -77.8636 255.14L-77.7355 254.769L-77.8636 255.14C-67.6444 258.671 -65.2986 260.939 -60.1589 265.909C-55.8729 270.054 -49.3958 276.317 -34.5335 286.845C-21.4727 296.096 0.903981 304.749 23.866 309.425C36.9309 312.086 49.7394 313.43 61.9354 313.419C75.5877 313.407 88.1591 311.68 99.3007 308.286C119.94 301.998 135.364 290.15 145.145 273.072C154.781 256.248 160.636 237.668 162.545 217.849C164.443 198.163 162.355 178.258 156.341 158.688C147.586 130.201 130.706 103.875 107.526 82.5564C95.1679 71.1913 81.0037 61.2109 65.4265 52.8921C54.4814 47.0469 42.7645 41.9855 30.4315 37.7677ZM-116.162 248.826C-120.519 247.336 -125.027 245.215 -129.624 242.167C-144.623 232.222 -155.612 224.304 -163.219 217.959C-174.192 208.807 -175.849 204.699 -175.307 202.864C-173.771 197.665 -171.121 196.863 -166.31 195.407C-158.044 192.905 -144.208 188.717 -121.962 156.435C-115.256 146.702 -110.314 131.947 -105.082 116.326C-97.3056 93.1078 -88.4917 66.7916 -71.5293 49.1138C-51.9907 28.7513 -24.9167 23.4243 11.2399 32.8286C30.5823 37.8592 48.6992 44.848 65.0874 53.5999C80.6212 61.8955 94.7445 71.8469 107.065 83.1777C130.16 104.418 146.976 130.639 155.693 159.006C161.676 178.473 163.753 198.268 161.867 217.841C159.969 237.53 154.154 255.986 144.584 272.697C134.911 289.585 119.637 301.307 99.1858 307.538C88.1043 310.914 75.5939 312.632 62.0022 312.644C49.8456 312.655 37.0766 311.315 24.0498 308.662C1.16136 304 -21.1327 295.384 -34.1322 286.175C-48.9574 275.674 -55.4145 269.43 -59.6873 265.298C-64.8918 260.265 -67.2672 257.968 -77.6074 254.397C-77.6249 254.391 -77.643 254.384 -77.6606 254.378C-81.4488 253.083 -86.1194 252.871 -91.5243 252.625C-98.7292 252.298 -107.123 251.917 -116.162 248.826Z" fill="#C0C0C0"/>
</g>
<mask id="mask1_45_590" style="mask-type:alpha" maskUnits="userSpaceOnUse" x="-163" y="43" width="313" height="262">
<path d="M28.9422 52.4033C23.9467 50.6949 18.8417 49.1383 13.6349 47.7369C-19.1182 38.8355 -43.8695 43.1354 -62.0324 60.8818C-77.811 76.2987 -86.3584 99.6092 -93.8994 120.176C-99.1524 134.502 -104.114 148.033 -110.782 156.862C-131.714 185.272 -144.9 189.423 -152.779 191.903C-157.54 193.401 -160.686 194.391 -162.369 199.853C-163.363 202.923 -159.952 208.196 -152.229 215.518C-145.281 222.105 -135.112 230.088 -122.819 238.602C-110.009 247.562 -97.9631 248.558 -88.2837 249.359C-83.6044 249.746 -79.5633 250.08 -76.2002 251.225L-76.2 251.225C-65.5308 254.833 -63.2277 256.728 -56.3903 262.331C-51.7963 266.095 -45.5046 271.251 -33.5112 279.582C-21.2273 288.12 -0.340449 296.162 20.9979 300.57C33.2024 303.09 45.1389 304.388 56.4761 304.428C69.1962 304.472 80.8834 302.913 91.2129 299.796C109.848 294.171 123.835 283.594 132.784 268.357C141.755 253.011 147.275 236.034 149.193 217.897C151.099 199.874 149.353 181.636 144.002 163.691C136.271 137.76 121.169 113.745 100.33 94.2409C89.2185 83.8418 76.4577 74.6846 62.4021 67.0242C51.9812 61.3447 40.7738 56.4498 28.9422 52.4033ZM-108.689 244.992C-113.12 243.476 -117.732 241.268 -122.446 237.971C-148.446 219.961 -163.512 205.426 -161.767 200.037C-160.208 194.977 -157.369 194.084 -152.665 192.603C-144.706 190.098 -131.386 185.905 -110.31 157.3C-103.569 148.375 -98.5861 134.785 -93.3104 120.397C-85.8005 99.9156 -77.2883 76.7011 -61.6424 61.4137C-43.6624 43.8461 -19.1062 39.6044 13.4292 48.4468C30.9276 53.1562 47.2959 59.6298 62.0797 67.6868C76.0945 75.3251 88.8168 84.4545 99.8936 94.8213C120.653 114.25 135.695 138.166 143.393 163.984C148.714 181.831 150.451 199.965 148.556 217.881C146.651 235.896 141.169 252.757 132.261 267.996C123.414 283.058 109.568 293.521 91.1065 299.093C77.4622 303.211 54.2536 306.685 21.172 299.852C-0.0996484 295.459 -20.9106 287.449 -33.1384 278.951C-45.1137 270.632 -51.3954 265.484 -55.9823 261.726C-62.6904 256.229 -65.2073 254.173 -75.9621 250.525C-79.3877 249.359 -83.4597 249.022 -88.1746 248.632C-94.2178 248.133 -101.192 247.555 -108.689 244.992Z" fill="url(#paint1_linear_45_590)"/>
</mask>
<g mask="url(#mask1_45_590)">
<path d="M28.942 52.4033C23.9464 50.6949 18.8414 49.1383 13.6346 47.7369C-19.1184 38.8355 -43.8698 43.1354 -62.0326 60.8818C-77.8113 76.2987 -86.3586 99.6092 -93.8996 120.176C-99.1526 134.502 -104.114 148.033 -110.782 156.862C-131.714 185.272 -144.901 189.423 -152.779 191.903C-157.541 193.401 -160.686 194.391 -162.369 199.853C-163.364 202.923 -159.953 208.196 -152.23 215.518C-145.282 222.105 -135.112 230.088 -122.82 238.602C-110.01 247.562 -97.9633 248.558 -88.2839 249.359C-83.6047 249.746 -79.5635 250.08 -76.2005 251.225L-76.2002 251.225C-65.531 254.833 -63.2279 256.728 -56.3905 262.331C-51.7965 266.095 -45.5049 271.251 -33.5115 279.582C-21.2276 288.12 -0.340693 296.162 20.9977 300.57C33.2021 303.09 45.1387 304.388 56.4759 304.428C69.196 304.472 80.8832 302.913 91.2126 299.796C109.848 294.171 123.834 283.594 132.784 268.357C141.754 253.011 147.275 236.034 149.193 217.897C151.099 199.874 149.353 181.636 144.002 163.691C136.271 137.76 121.169 113.745 100.33 94.2409C89.2183 83.8418 76.4575 74.6846 62.4018 67.0242C51.9809 61.3447 40.7735 56.4498 28.942 52.4033ZM-108.689 244.992C-113.12 243.476 -117.732 241.268 -122.446 237.971C-148.446 219.961 -163.513 205.426 -161.767 200.037C-160.208 194.977 -157.369 194.084 -152.666 192.603C-144.707 190.098 -131.386 185.905 -110.31 157.3C-103.569 148.375 -98.5863 134.785 -93.3106 120.397C-85.8007 99.9156 -77.2886 76.7011 -61.6426 61.4137C-43.6626 43.8461 -19.1065 39.6044 13.429 48.4468C30.9273 53.1562 47.2957 59.6298 62.0795 67.6868C76.0942 75.3251 88.8166 84.4545 99.8933 94.8213C120.653 114.25 135.695 138.166 143.392 163.984C148.714 181.831 150.451 199.965 148.556 217.881C146.651 235.896 141.168 252.757 132.26 267.996C123.414 283.058 109.567 293.521 91.1063 299.093C77.4619 303.211 54.2533 306.685 21.1718 299.852C-0.0998925 295.459 -20.9108 287.449 -33.1386 278.951C-45.1139 270.632 -51.3957 265.484 -55.9825 261.726C-62.6907 256.229 -65.2075 254.173 -75.9623 250.525C-79.388 249.359 -83.46 249.022 -88.1749 248.632C-94.2181 248.133 -101.192 247.555 -108.689 244.992Z" fill="#C0C0C0"/>
</g>
<mask id="mask2_45_590" style="mask-type:alpha" maskUnits="userSpaceOnUse" x="-150" y="58" width="287" height="238">
<path d="M27.6279 67.0698C23.7716 65.7507 19.8367 64.529 15.8146 63.4021C-13.3205 55.0658 -35.5433 58.293 -52.1223 73.2681C-66.5692 86.3173 -74.7959 106.539 -82.0543 124.381C-87.3569 137.415 -92.3654 149.726 -99.0803 157.728C-118.821 182.509 -131.5 186.646 -139.075 189.118C-143.897 190.691 -147.082 191.73 -148.787 197.021C-151.308 204.178 -133.368 221.394 -115.63 234.357C-104.217 242.88 -93.4543 244.265 -84.8059 245.378C-80.8839 245.883 -77.4969 246.319 -74.5382 247.308L-74.5375 247.308C-62.3912 251.332 -60.3971 252.75 -49.3203 260.609C-45.1495 263.569 -39.9587 267.251 -32.4907 272.319C-24.8572 277.506 -13.6006 282.621 -0.794672 286.719C13.6158 291.332 28.7212 294.247 42.8887 295.15C59.6554 296.218 74.5362 294.492 87.1178 290.02C101.774 284.811 112.979 275.936 120.421 263.64C128.729 249.772 133.918 234.397 135.846 217.939C137.763 201.577 136.358 185.005 131.672 168.681C124.961 145.308 111.635 123.604 93.1343 105.917C75.3346 88.9 53.3373 75.8624 27.6279 67.0698ZM-101.011 241.333C-105.567 239.775 -110.359 237.441 -115.269 233.775C-136.394 218.336 -150.254 202.958 -148.229 197.208C-146.639 192.276 -143.75 191.333 -138.963 189.772C-131.319 187.277 -118.525 183.103 -98.6595 158.165C-91.8719 150.076 -86.8404 137.708 -81.5137 124.614C-74.2872 106.851 -66.0966 86.7182 -51.7781 73.7851C-35.3691 58.9635 -13.3241 55.7837 15.6165 64.0644C46.3748 72.6836 72.3144 86.946 92.7221 106.456C111.148 124.072 124.419 145.682 131.099 168.948C135.759 185.179 137.156 201.654 135.251 217.916C133.337 234.259 128.184 249.527 119.936 263.295C112.585 275.441 101.5 284.215 86.9914 289.372C74.4821 293.818 59.6747 295.533 42.9808 294.469C28.8545 293.57 13.7912 290.663 -0.580291 286.062C-13.341 281.976 -24.5517 276.886 -32.1466 271.725C-39.61 266.66 -44.7984 262.979 -48.9674 260.021C-60.0969 252.125 -62.1017 250.705 -74.3183 246.652C-77.3235 245.648 -80.733 245.209 -84.6807 244.701C-89.5411 244.075 -95.075 243.363 -101.011 241.333Z" fill="url(#paint2_linear_45_590)"/>
</mask>
<g mask="url(#mask2_45_590)">
<path d="M27.6279 67.0698C23.7716 65.7507 19.8367 64.529 15.8146 63.4021C-13.3205 55.0658 -35.5433 58.293 -52.1223 73.2681C-66.5692 86.3173 -74.7959 106.539 -82.0543 124.381C-87.3569 137.415 -92.3654 149.726 -99.0803 157.728C-118.821 182.509 -131.5 186.646 -139.075 189.118C-143.897 190.691 -147.082 191.73 -148.787 197.021C-151.308 204.178 -133.368 221.394 -115.63 234.357C-104.217 242.88 -93.4543 244.265 -84.8059 245.378C-80.8839 245.883 -77.4969 246.319 -74.5382 247.308L-74.5375 247.308C-62.3912 251.332 -60.3971 252.75 -49.3203 260.609C-45.1495 263.569 -39.9587 267.251 -32.4907 272.319C-24.8572 277.506 -13.6006 282.621 -0.794672 286.719C13.6158 291.332 28.7212 294.247 42.8887 295.15C59.6554 296.218 74.5362 294.492 87.1178 290.02C101.774 284.811 112.979 275.936 120.421 263.64C128.729 249.772 133.918 234.397 135.846 217.939C137.763 201.577 136.358 185.005 131.672 168.681C124.961 145.308 111.635 123.604 93.1343 105.917C75.3346 88.9 53.3373 75.8624 27.6279 67.0698ZM-101.011 241.333C-105.567 239.775 -110.359 237.441 -115.269 233.775C-136.394 218.336 -150.254 202.958 -148.229 197.208C-146.639 192.276 -143.75 191.333 -138.963 189.772C-131.319 187.277 -118.525 183.103 -98.6595 158.165C-91.8719 150.076 -86.8404 137.708 -81.5137 124.614C-74.2872 106.851 -66.0966 86.7182 -51.7781 73.7851C-35.3691 58.9635 -13.3241 55.7837 15.6165 64.0644C46.3748 72.6836 72.3144 86.946 92.7221 106.456C111.148 124.072 124.419 145.682 131.099 168.948C135.759 185.179 137.156 201.654 135.251 217.916C133.337 234.259 128.184 249.527 119.936 263.295C112.585 275.441 101.5 284.215 86.9914 289.372C74.4821 293.818 59.6747 295.533 42.9808 294.469C28.8545 293.57 13.7912 290.663 -0.580291 286.062C-13.341 281.976 -24.5517 276.886 -32.1466 271.725C-39.61 266.66 -44.7984 262.979 -48.9674 260.021C-60.0969 252.125 -62.1017 250.705 -74.3183 246.652C-77.3235 245.648 -80.733 245.209 -84.6807 244.701C-89.5411 244.075 -95.075 243.363 -101.011 241.333Z" fill="#C0C0C0"/>
</g>
<mask id="mask3_45_590" style="mask-type:alpha" maskUnits="userSpaceOnUse" x="-136" y="74" width="260" height="213">
<path d="M26.1095 81.6446C23.4495 80.7349 20.7456 79.876 17.9963 79.0671C-7.55441 71.2956 -27.2581 73.4789 -42.2387 85.7428C-55.3407 96.469 -62.8839 112.889 -70.1789 128.769C-75.5384 140.435 -80.6009 151.455 -87.3764 158.596C-105.868 179.756 -117.552 183.691 -125.284 186.295C-130.386 188.014 -133.465 189.051 -135.203 194.189C-137.669 200.665 -125.916 216.45 -108.441 230.111C-98.3218 238.317 -88.7485 240.095 -81.0561 241.524C-78.1133 242.07 -75.3339 242.586 -72.8749 243.392L-72.874 243.392L-71.6271 243.795C-57.2866 248.42 -56.1163 248.798 -31.4687 265.057C-24.5465 269.632 -14.0066 274.381 -2.55798 278.092C10.6119 282.357 24.3755 285.127 37.2448 286.102C52.5361 287.26 66.1066 285.907 77.5788 282.08C90.9615 277.615 101.217 269.825 108.059 258.925C115.707 246.534 120.568 232.757 122.509 217.977C124.439 203.273 123.378 188.362 119.355 173.657C113.66 152.842 102.107 133.452 85.9431 117.585C69.867 101.803 49.7678 89.7356 26.1095 81.6446ZM-92.9642 237.981C-97.7351 236.349 -102.841 233.837 -108.09 229.579C-125.09 216.291 -137.02 200.5 -134.689 194.377C-133.058 189.557 -130.091 188.558 -125.175 186.902C-117.856 184.437 -105.606 180.311 -87.0091 159.03C-80.1615 151.814 -75.0746 140.74 -69.6886 129.017C-62.4283 113.212 -54.9206 96.8697 -41.9423 86.245C-27.1181 74.109 -7.57458 71.9622 17.8052 79.6818C44.9343 87.6631 67.7282 100.582 85.5546 118.082C101.65 133.882 113.153 153.183 118.82 173.898C122.819 188.516 123.874 203.335 121.956 217.945C120.03 232.619 115.204 246.296 107.614 258.594C100.858 269.355 90.716 277.054 77.4713 281.472C66.0649 285.278 52.5614 286.622 37.3365 285.469C24.5039 284.496 10.7783 281.734 -2.35689 277.48C-13.7681 273.785 -24.2649 269.053 -31.1532 264.5C-55.855 248.206 -57.0316 247.826 -71.4265 243.183L-72.6724 242.781C-75.1608 241.966 -77.9552 241.447 -80.9137 240.897C-84.5547 240.221 -88.6205 239.466 -92.9642 237.981Z" fill="url(#paint3_linear_45_590)"/>
</mask>
<g mask="url(#mask3_45_590)">
<path d="M26.1095 81.6446C23.4495 80.7349 20.7456 79.876 17.9963 79.0671C-7.55441 71.2956 -27.2581 73.4789 -42.2387 85.7428C-55.3407 96.469 -62.8839 112.889 -70.1789 128.769C-75.5384 140.435 -80.6009 151.455 -87.3764 158.596C-105.868 179.756 -117.552 183.691 -125.284 186.295C-130.386 188.014 -133.465 189.051 -135.203 194.189C-137.669 200.665 -125.916 216.45 -108.441 230.111C-98.3218 238.317 -88.7485 240.095 -81.0561 241.524C-78.1133 242.07 -75.3339 242.586 -72.8749 243.392L-72.874 243.392L-71.6271 243.795C-57.2866 248.42 -56.1163 248.798 -31.4687 265.057C-24.5465 269.632 -14.0066 274.381 -2.55798 278.092C10.6119 282.357 24.3755 285.127 37.2448 286.102C52.5361 287.26 66.1066 285.907 77.5788 282.08C90.9615 277.615 101.217 269.825 108.059 258.925C115.707 246.534 120.568 232.757 122.509 217.977C124.439 203.273 123.378 188.362 119.355 173.657C113.66 152.842 102.107 133.452 85.9431 117.585C69.867 101.803 49.7678 89.7356 26.1095 81.6446ZM-92.9642 237.981C-97.7351 236.349 -102.841 233.837 -108.09 229.579C-125.09 216.291 -137.02 200.5 -134.689 194.377C-133.058 189.557 -130.091 188.558 -125.175 186.902C-117.856 184.437 -105.606 180.311 -87.0091 159.03C-80.1615 151.814 -75.0746 140.74 -69.6886 129.017C-62.4283 113.212 -54.9206 96.8697 -41.9423 86.245C-27.1181 74.109 -7.57458 71.9622 17.8052 79.6818C44.9343 87.6631 67.7282 100.582 85.5546 118.082C101.65 133.882 113.153 153.183 118.82 173.898C122.819 188.516 123.874 203.335 121.956 217.945C120.03 232.619 115.204 246.296 107.614 258.594C100.858 269.355 90.716 277.054 77.4713 281.472C66.0649 285.278 52.5614 286.622 37.3365 285.469C24.5039 284.496 10.7783 281.734 -2.35689 277.48C-13.7681 273.785 -24.2649 269.053 -31.1532 264.5C-55.855 248.206 -57.0316 247.826 -71.4265 243.183L-72.6724 242.781C-75.1608 241.966 -77.9552 241.447 -80.9137 240.897C-84.5547 240.221 -88.6205 239.466 -92.9642 237.981Z" fill="#C0C0C0"/>
</g>
<mask id="mask4_45_590" style="mask-type:alpha" maskUnits="userSpaceOnUse" x="-123" y="90" width="234" height="188">
<path d="M24.587 96.1746C23.1319 95.677 21.663 95.1965 20.177 94.7328C-29.1466 78.5759 -44.6239 107.698 -58.2795 133.392C-63.7015 143.594 -68.8228 153.23 -75.6713 159.464C-92.8307 177.017 -103.983 180.869 -111.362 183.418C-116.645 185.242 -119.834 186.344 -121.621 191.357C-122.898 194.477 -121.561 199.912 -117.949 206.253C-114.113 212.986 -108.183 219.951 -101.252 225.864C-92.2009 234.038 -83.9634 236.127 -76.6953 237.971C-74.767 238.46 -72.9456 238.922 -71.2122 239.476L-71.2109 239.476C-68.5962 240.295 -66.2984 240.951 -64.2713 241.53C-54.9081 244.203 -49.2572 245.817 -30.447 257.794C-18.4577 265.452 6.07312 274.745 31.6004 277.054C45.4172 278.304 57.6769 277.323 68.0387 274.139C80.1481 270.419 89.4534 263.714 95.6963 254.21C102.69 243.294 107.227 231.115 109.183 218.008C111.131 204.958 110.416 191.703 107.057 178.612C102.374 160.356 92.5872 143.283 78.7562 129.238C64.4189 114.68 46.2113 103.57 24.587 96.1746ZM-84.3492 235.175C-89.4986 233.414 -95.0344 230.693 -100.911 225.386C-115.803 212.682 -123.527 197.356 -121.149 191.545C-119.462 186.812 -116.374 185.746 -111.258 183.978C-103.829 181.413 -92.6036 177.535 -75.3599 159.895C-68.4413 153.599 -63.2936 143.912 -57.8435 133.658C-50.9273 120.645 -43.7759 107.189 -32.1515 98.8143C-18.9274 89.2874 -1.87112 88.1377 19.9923 95.2995C43.4929 102.636 63.141 114.208 78.3907 129.693C92.159 143.674 101.9 160.664 106.559 178.827C109.897 191.835 110.608 205.004 108.673 217.966C106.732 230.976 102.229 243.063 95.2904 253.893C87.2784 266.089 69.7391 279.91 31.6917 276.468C6.23668 274.165 -18.2148 264.905 -30.1609 257.275C-49.0251 245.264 -54.6994 243.643 -64.0994 240.959C-66.1241 240.381 -68.4184 239.726 -71.0275 238.909C-72.7736 238.351 -74.6012 237.888 -76.5361 237.397C-79.0277 236.765 -81.6351 236.104 -84.3492 235.175Z" fill="url(#paint4_linear_45_590)"/>
</mask>
<g mask="url(#mask4_45_590)">
<path d="M24.5872 96.1746C23.1321 95.677 21.6633 95.1965 20.1772 94.7328C-29.1463 78.5759 -44.6237 107.698 -58.2793 133.392C-63.7013 143.594 -68.8226 153.23 -75.6711 159.464C-92.8305 177.017 -103.983 180.869 -111.362 183.418C-116.645 185.242 -119.834 186.344 -121.62 191.357C-122.897 194.477 -121.561 199.912 -117.949 206.253C-114.113 212.986 -108.183 219.951 -101.252 225.864C-92.2006 234.038 -83.9631 236.127 -76.695 237.971C-74.7668 238.46 -72.9454 238.922 -71.2119 239.476L-71.2107 239.476C-68.5959 240.295 -66.2982 240.951 -64.2711 241.53C-54.9079 244.203 -49.257 245.817 -30.4468 257.794C-18.4575 265.452 6.07337 274.745 31.6006 277.054C45.4175 278.304 57.6771 277.323 68.0389 274.139C80.1483 270.419 89.4536 263.714 95.6966 254.21C102.69 243.294 107.227 231.115 109.184 218.008C111.132 204.958 110.416 191.703 107.058 178.612C102.374 160.356 92.5874 143.283 78.7564 129.238C64.4191 114.68 46.2116 103.57 24.5872 96.1746ZM-84.3489 235.175C-89.4983 233.414 -95.0342 230.693 -100.911 225.386C-115.802 212.682 -123.527 197.356 -121.149 191.545C-119.462 186.812 -116.374 185.746 -111.258 183.978C-103.829 181.413 -92.6033 177.535 -75.3596 159.895C-68.441 153.599 -63.2934 143.912 -57.8432 133.658C-50.9271 120.645 -43.7757 107.189 -32.1513 98.8143C-18.9271 89.2874 -1.87088 88.1377 19.9926 95.2995C43.4932 102.636 63.1413 114.208 78.391 129.693C92.1592 143.674 101.9 160.664 106.56 178.827C109.897 191.835 110.608 205.004 108.674 217.966C106.732 230.976 102.229 243.063 95.2907 253.893C87.2787 266.089 69.7394 279.91 31.6919 276.468C6.23693 274.165 -18.2145 264.905 -30.1607 257.275C-49.0249 245.264 -54.6991 243.643 -64.0992 240.959C-66.1238 240.381 -68.4181 239.726 -71.0273 238.909C-72.7734 238.351 -74.601 237.888 -76.5359 237.397C-79.0275 236.765 -81.6348 236.104 -84.3489 235.175Z" fill="#C0C0C0"/>
</g>
<mask id="mask5_45_590" style="mask-type:alpha" maskUnits="userSpaceOnUse" x="-109" y="105" width="207" height="164">
<path d="M20.7839 109.846C2.99118 103.761 -11.2212 104.158 -22.6207 111.047C-32.9897 117.314 -39.7938 127.996 -46.3742 138.327C-51.8574 146.935 -57.0365 155.066 -63.965 160.333C-79.6594 174.297 -90.2309 178.003 -97.2265 180.455C-102.808 182.412 -106.177 183.593 -108.037 188.526C-110.895 195.053 -105.531 210.601 -94.0642 221.615C-85.4062 230.672 -77.7709 233.026 -70.3861 235.301L-69.5473 235.56C-65.9812 236.636 -62.9168 237.309 -59.9531 237.96C-52.0087 239.705 -44.5049 241.353 -29.4243 250.532C-18.4461 257.242 3.567 265.572 25.9564 268.006C44.8268 270.057 70.0989 268.51 83.3334 249.495C96.0199 230.622 100.195 206.583 94.7904 183.538C91.1094 167.843 83.0829 153.089 71.5782 140.873C59.0005 127.516 42.6782 117.345 23.0577 110.635C22.825 110.555 22.5929 110.477 22.3595 110.398C21.831 110.208 21.306 110.024 20.7839 109.846ZM-74.6472 233.364C-80.6226 231.32 -86.8539 228.388 -93.7301 221.195C-105.988 209.42 -110.073 194.341 -107.608 188.712C-105.841 184.025 -102.561 182.875 -97.128 180.97C-90.0954 178.505 -79.4679 174.779 -63.7115 160.76C-56.7181 155.444 -51.5108 147.269 -45.9979 138.614C-39.4544 128.341 -32.6879 117.719 -22.4304 111.519C-10.8217 104.503 3.76461 104.309 22.18 110.916C22.4115 110.994 22.6459 111.074 22.8765 111.153C42.4396 117.843 58.7037 127.976 71.2352 141.284C82.6831 153.44 90.669 168.116 94.3295 183.724C97.0047 195.131 97.3686 206.655 95.4108 217.976C93.4481 229.326 89.2617 239.828 82.9683 249.191C69.886 267.988 44.7935 269.505 26.0478 267.467C3.71882 265.04 -18.2266 256.738 -29.168 250.05C-44.3061 240.836 -51.8417 239.181 -59.8189 237.429C-62.7753 236.779 -65.8323 236.108 -69.3836 235.037L-70.2203 234.778C-71.6838 234.328 -73.1578 233.873 -74.6472 233.364Z" fill="url(#paint5_linear_45_590)"/>
</mask>
<g mask="url(#mask5_45_590)">
<path d="M20.7839 109.846C2.99118 103.761 -11.2212 104.158 -22.6207 111.047C-32.9897 117.314 -39.7938 127.996 -46.3742 138.327C-51.8574 146.935 -57.0365 155.066 -63.965 160.333C-79.6594 174.297 -90.2309 178.003 -97.2265 180.455C-102.808 182.412 -106.177 183.593 -108.037 188.526C-110.895 195.053 -105.531 210.601 -94.0642 221.615C-85.4062 230.672 -77.7709 233.026 -70.3861 235.301L-69.5473 235.56C-65.9812 236.636 -62.9168 237.309 -59.9531 237.96C-52.0087 239.705 -44.5049 241.353 -29.4243 250.532C-18.4461 257.242 3.567 265.572 25.9564 268.006C44.8268 270.057 70.0989 268.51 83.3334 249.495C96.0199 230.622 100.195 206.583 94.7904 183.538C91.1094 167.843 83.0829 153.089 71.5782 140.873C59.0005 127.516 42.6782 117.345 23.0577 110.635C22.825 110.555 22.5929 110.477 22.3595 110.398C21.831 110.208 21.306 110.024 20.7839 109.846ZM-74.6472 233.364C-80.6226 231.32 -86.8539 228.388 -93.7301 221.195C-105.988 209.42 -110.073 194.341 -107.608 188.712C-105.841 184.025 -102.561 182.875 -97.128 180.97C-90.0954 178.505 -79.4679 174.779 -63.7115 160.76C-56.7181 155.444 -51.5108 147.269 -45.9979 138.614C-39.4544 128.341 -32.6879 117.719 -22.4304 111.519C-10.8217 104.503 3.76461 104.309 22.18 110.916C22.4115 110.994 22.6459 111.074 22.8765 111.153C42.4396 117.843 58.7037 127.976 71.2352 141.284C82.6831 153.44 90.669 168.116 94.3295 183.724C97.0047 195.131 97.3686 206.655 95.4108 217.976C93.4481 229.326 89.2617 239.828 82.9683 249.191C69.886 267.988 44.7935 269.505 26.0478 267.467C3.71882 265.04 -18.2266 256.738 -29.168 250.05C-44.3061 240.836 -51.8417 239.181 -59.8189 237.429C-62.7753 236.779 -65.8323 236.108 -69.3836 235.037L-70.2203 234.778C-71.6838 234.328 -73.1578 233.873 -74.6472 233.364Z" fill="#C0C0C0"/>
</g>
<mask id="mask6_45_590" style="mask-type:alpha" maskUnits="userSpaceOnUse" x="-96" y="120" width="181" height="140">
<path d="M19.8448 124.309C6.83122 119.858 -3.93659 119.744 -12.9624 123.936C-21.9478 128.11 -28.341 136.026 -34.5236 143.682C-39.8058 150.222 -45.2677 156.985 -52.2583 161.205C-66.2625 171.607 -76.1598 175.066 -82.7089 177.355C-88.8016 179.484 -92.4792 180.769 -94.4539 185.695C-97.3094 191.815 -95.7838 207.207 -86.8786 217.363C-80.8389 225.206 -75.1564 229.479 -67.8858 231.643L-67.8843 231.644C-64.0125 232.759 -60.5065 233.27 -56.7948 233.811C-48.9505 234.956 -40.8388 236.139 -28.4021 243.269C-18.3719 249.053 1.15059 256.429 20.3117 258.957C36.9161 261.148 59.1831 260.467 70.9687 244.781C82.412 228.814 86.6402 208.273 82.5726 188.42C79.8818 175.287 73.603 162.857 64.415 152.476C54.2519 140.993 40.8365 132.106 24.5414 126.064C22.945 125.419 21.3781 124.834 19.8448 124.309ZM-69.0207 230.755C-75.6071 228.503 -80.9144 224.323 -86.5477 217.008C-95.3341 206.987 -96.8682 191.879 -94.0676 185.876C-92.179 181.166 -88.7835 179.979 -82.6196 177.825C-76.0446 175.528 -66.1084 172.055 -52.0657 161.623C-45.019 157.37 -39.5274 150.571 -34.2168 143.995C-28.0713 136.386 -21.7165 128.517 -12.833 124.391C-2.85065 119.754 9.3153 120.456 24.3659 126.533C40.6079 132.556 53.9727 141.407 64.0936 152.842C73.2313 163.167 79.4747 175.523 82.1486 188.576C86.1852 208.277 81.9927 228.656 70.6464 244.488C59.0035 259.983 36.8973 260.643 20.4033 258.467C1.29188 255.945 -18.176 248.59 -28.1762 242.825C-40.6735 235.659 -48.8196 234.471 -56.6982 233.322C-60.3972 232.782 -63.8912 232.273 -67.7393 231.164C-68.172 231.036 -68.5991 230.899 -69.0207 230.755Z" fill="url(#paint6_linear_45_590)"/>
</mask>
<g mask="url(#mask6_45_590)">
<path d="M19.8451 124.309C6.83147 119.858 -3.93634 119.744 -12.9621 123.936C-21.9476 128.11 -28.3408 136.026 -34.5234 143.682C-39.8056 150.222 -45.2675 156.985 -52.2581 161.205C-66.2623 171.607 -76.1596 175.066 -82.7087 177.355C-88.8014 179.484 -92.479 180.769 -94.4537 185.695C-97.3092 191.815 -95.7836 207.207 -86.8784 217.363C-80.8386 225.206 -75.1561 229.479 -67.8855 231.643L-67.884 231.644C-64.0122 232.759 -60.5063 233.27 -56.7946 233.811C-48.9503 234.956 -40.8385 236.139 -28.4018 243.269C-18.3717 249.053 1.15084 256.429 20.3119 258.957C36.9163 261.148 59.1834 260.467 70.969 244.781C82.4123 228.814 86.6404 208.273 82.5729 188.42C79.8821 175.287 73.6033 162.857 64.4152 152.476C54.2522 140.993 40.8367 132.106 24.5416 126.064C22.9452 125.419 21.3784 124.834 19.8451 124.309ZM-69.0204 230.755C-75.6069 228.503 -80.9141 224.323 -86.5475 217.008C-95.3339 206.987 -96.8679 191.879 -94.0674 185.876C-92.1788 181.166 -88.7833 179.979 -82.6194 177.825C-76.0444 175.528 -66.1081 172.055 -52.0655 161.623C-45.0188 157.37 -39.5272 150.571 -34.2165 143.995C-28.0711 136.386 -21.7162 128.517 -12.8327 124.391C-2.85041 119.754 9.31554 120.456 24.3662 126.533C40.6081 132.556 53.973 141.407 64.0938 152.842C73.2315 163.167 79.475 175.523 82.1489 188.576C86.1854 208.277 81.993 228.656 70.6467 244.488C59.0037 259.983 36.8975 260.643 20.4036 258.467C1.29212 255.945 -18.1758 248.59 -28.176 242.825C-40.6733 235.659 -48.8194 234.471 -56.698 233.322C-60.397 232.782 -63.8909 232.273 -67.739 231.164C-68.1717 231.036 -68.5988 230.899 -69.0204 230.755Z" fill="#C0C0C0"/>
</g>
<mask id="mask7_45_590" style="mask-type:alpha" maskUnits="userSpaceOnUse" x="-84" y="135" width="156" height="117">
<path d="M18.7994 138.48C-2.16667 131.309 -12.2815 140.227 -22.925 149.611C-28.1742 154.238 -33.602 159.023 -40.5508 162.081C-52.4342 168.973 -61.0851 171.882 -67.4016 174.005C-74.6878 176.455 -78.7013 177.805 -80.8705 182.864C-82.5134 186.181 -83.5775 191.581 -83.6411 196.943C-83.7179 203.424 -82.3165 209.164 -79.695 213.105C-75.8243 220.321 -72.3688 225.99 -66.2224 227.727L-66.2207 227.728C-62.3305 228.783 -58.3094 229.077 -54.0525 229.387C-46.3686 229.948 -37.6596 230.584 -27.3787 236.007C-20.2686 239.787 -3.4104 246.969 14.6669 249.908C24.072 251.438 32.3989 251.575 39.4166 250.317C47.7068 248.83 54.1621 245.382 58.6032 240.068C68.851 227.002 73.1661 209.934 70.4472 193.234C68.726 182.665 64.1744 172.566 57.2844 164.03C49.6652 154.59 39.3836 147.088 26.7254 141.731C23.919 140.404 21.2826 139.329 18.7994 138.48ZM-66.7643 227.084C-72.3686 225.167 -75.6693 219.715 -79.3632 212.83C-85.3562 203.819 -83.304 188.65 -80.5261 183.04C-78.4377 178.169 -74.4905 176.842 -67.3251 174.432C-60.9925 172.303 -52.3196 169.387 -40.4208 162.485C-33.4323 159.411 -27.9782 154.603 -22.7036 149.953C-16.69 144.651 -11.0099 139.644 -3.48195 137.451C5.00129 134.98 14.5442 136.473 26.551 142.148C39.1635 147.486 49.4003 154.955 56.9828 164.349C63.8291 172.831 68.3513 182.861 70.0601 193.357C72.7564 209.916 68.4794 226.838 58.3261 239.784C53.9592 245.009 47.5876 248.407 39.3932 249.876C32.4145 251.127 24.1267 250.989 14.7598 249.466C-3.27491 246.533 -20.0913 239.37 -27.1846 235.599C-37.5261 230.143 -46.2725 229.504 -53.989 228.942C-58.2292 228.632 -62.2346 228.34 -66.0941 227.293C-66.321 227.229 -66.5446 227.159 -66.7643 227.084Z" fill="url(#paint7_linear_45_590)"/>
</mask>
<g mask="url(#mask7_45_590)">
<path d="M18.7994 138.48C-2.16667 131.309 -12.2815 140.227 -22.925 149.611C-28.1742 154.238 -33.602 159.023 -40.5508 162.081C-52.4342 168.973 -61.0851 171.882 -67.4016 174.005C-74.6878 176.455 -78.7013 177.805 -80.8705 182.864C-82.5134 186.181 -83.5775 191.581 -83.6411 196.943C-83.7179 203.424 -82.3165 209.164 -79.695 213.105C-75.8243 220.321 -72.3688 225.99 -66.2224 227.727L-66.2207 227.728C-62.3305 228.783 -58.3094 229.077 -54.0525 229.387C-46.3686 229.948 -37.6596 230.584 -27.3787 236.007C-20.2686 239.787 -3.4104 246.969 14.6669 249.908C24.072 251.438 32.3989 251.575 39.4166 250.317C47.7068 248.83 54.1621 245.382 58.6032 240.068C68.851 227.002 73.1661 209.934 70.4472 193.234C68.726 182.665 64.1744 172.566 57.2844 164.03C49.6652 154.59 39.3836 147.088 26.7254 141.731C23.919 140.404 21.2826 139.329 18.7994 138.48ZM-66.7643 227.084C-72.3686 225.167 -75.6693 219.715 -79.3632 212.83C-85.3562 203.819 -83.304 188.65 -80.5261 183.04C-78.4377 178.169 -74.4905 176.842 -67.3251 174.432C-60.9925 172.303 -52.3196 169.387 -40.4208 162.485C-33.4323 159.411 -27.9782 154.603 -22.7036 149.953C-16.69 144.651 -11.0099 139.644 -3.48195 137.451C5.00129 134.98 14.5442 136.473 26.551 142.148C39.1635 147.486 49.4003 154.955 56.9828 164.349C63.8291 172.831 68.3513 182.861 70.0601 193.357C72.7564 209.916 68.4794 226.838 58.3261 239.784C53.9592 245.009 47.5876 248.407 39.3932 249.876C32.4145 251.127 24.1267 250.989 14.7598 249.466C-3.27491 246.533 -20.0913 239.37 -27.1846 235.599C-37.5261 230.143 -46.2725 229.504 -53.989 228.942C-58.2292 228.632 -62.2346 228.34 -66.0941 227.293C-66.321 227.229 -66.5446 227.159 -66.7643 227.084Z" fill="#C0C0C0"/>
</g>
<mask id="mask8_45_590" style="mask-type:alpha" maskUnits="userSpaceOnUse" x="-74" y="150" width="133" height="93">
<path d="M17.5869 152.006C4.92337 147.674 -2.94858 151.58 -12.3866 156.261C-17.3136 158.705 -22.408 161.232 -28.8451 162.962C-37.6143 166.456 -44.4964 168.501 -50.0265 170.145C-59.5145 172.965 -64.741 174.519 -67.2872 180.034C-70.4525 186.075 -75.411 201.217 -72.5182 208.82C-72.3865 209.382 -72.258 209.948 -72.1294 210.514C-70.7859 216.425 -69.3943 222.538 -64.5591 223.811L-64.5576 223.811C-60.7803 224.759 -56.218 224.775 -51.3879 224.792C-43.5725 224.819 -34.7149 224.849 -26.3549 228.745C-17.3195 232.998 28.6449 253.307 46.2348 235.357C55.3788 225.189 59.8503 211.554 58.5097 197.94C57.7097 189.817 54.9234 182.266 50.2285 175.497C45.1121 168.12 37.94 162.031 28.9111 157.399C24.7124 154.916 20.9771 153.165 17.5869 152.006ZM-64.8797 223.291C-69.1889 221.817 -70.5094 216.006 -71.7881 210.379C-71.9179 209.808 -72.0477 209.237 -72.1806 208.669L-72.1882 208.644C-75.0429 201.172 -70.1237 186.194 -66.9842 180.202C-64.5153 174.854 -59.3488 173.319 -49.9696 170.531C-44.433 168.885 -37.5424 166.837 -28.7778 163.344C-22.3264 161.611 -17.2159 159.076 -12.2734 156.625C-0.396671 150.734 8.98497 146.081 28.733 157.762C37.7243 162.374 44.8579 168.429 49.9441 175.763C54.6024 182.479 57.3667 189.969 58.1598 198.022C59.488 211.508 55.0587 225.014 46.0079 235.078C38.9995 242.23 26.5854 244.045 9.11636 240.466C-6.26026 237.316 -20.6997 230.96 -26.1943 228.373C-34.6129 224.451 -43.5061 224.419 -51.3522 224.392C-56.1635 224.375 -60.708 224.36 -64.4498 223.421C-64.5961 223.382 -64.7396 223.339 -64.8797 223.291Z" fill="url(#paint8_linear_45_590)"/>
</mask>
<g mask="url(#mask8_45_590)">
<path d="M17.5869 152.006C4.92337 147.674 -2.94858 151.58 -12.3866 156.261C-17.3136 158.705 -22.408 161.232 -28.8451 162.962C-37.6143 166.456 -44.4964 168.501 -50.0265 170.145C-59.5145 172.965 -64.741 174.519 -67.2872 180.034C-70.4525 186.075 -75.411 201.217 -72.5182 208.82C-72.3865 209.382 -72.258 209.948 -72.1294 210.514C-70.7859 216.425 -69.3943 222.538 -64.5591 223.811L-64.5576 223.811C-60.7803 224.759 -56.218 224.775 -51.3879 224.792C-43.5725 224.819 -34.7149 224.849 -26.3549 228.745C-17.3195 232.998 28.6449 253.307 46.2348 235.357C55.3788 225.189 59.8503 211.554 58.5097 197.94C57.7097 189.817 54.9234 182.266 50.2285 175.497C45.1121 168.12 37.94 162.031 28.9111 157.399C24.7124 154.916 20.9771 153.165 17.5869 152.006ZM-64.8797 223.291C-69.1889 221.817 -70.5094 216.006 -71.7881 210.379C-71.9179 209.808 -72.0477 209.237 -72.1806 208.669L-72.1882 208.644C-75.0429 201.172 -70.1237 186.194 -66.9842 180.202C-64.5153 174.854 -59.3488 173.319 -49.9696 170.531C-44.433 168.885 -37.5424 166.837 -28.7778 163.344C-22.3264 161.611 -17.2159 159.076 -12.2734 156.625C-0.396671 150.734 8.98497 146.081 28.733 157.762C37.7243 162.374 44.8579 168.429 49.9441 175.763C54.6024 182.479 57.3667 189.969 58.1598 198.022C59.488 211.508 55.0587 225.014 46.0079 235.078C38.9995 242.23 26.5854 244.045 9.11636 240.466C-6.26026 237.316 -20.6997 230.96 -26.1943 228.373C-34.6129 224.451 -43.5061 224.419 -51.3522 224.392C-56.1635 224.375 -60.708 224.36 -64.4498 223.421C-64.5961 223.382 -64.7396 223.339 -64.8797 223.291Z" fill="#C0C0C0"/>
</g>
<mask id="mask9_45_590" style="mask-type:alpha" maskUnits="userSpaceOnUse" x="-67" y="161" width="115" height="74">
<path d="M15.7209 163.633C8.23347 161.073 1.25415 161.856 -8.39409 162.938C-11.1361 163.246 -13.9714 163.564 -17.1426 163.848C-19.5049 164.308 -21.7156 164.73 -23.7971 165.127C-41.9089 168.586 -50.1752 170.165 -53.7044 177.204C-56.5468 182.347 -65.2036 198.011 -65.3224 204.515C-66.4664 211.14 -67.2144 218.869 -62.8957 219.894L-62.8942 219.895C-59.2802 220.708 -54.0563 220.383 -48.5256 220.038C-40.7254 219.552 -31.8864 219.002 -25.3294 221.483C-24.084 221.961 -22.6026 222.56 -20.8875 223.253C-13.8603 226.093 -3.24131 230.385 7.10319 232.733C19.4799 235.542 28.4826 234.84 33.861 230.647C41.9795 223.517 46.9003 212.992 47.0328 202.486C47.1794 190.837 41.5216 180.391 31.1015 173.071C25.2625 168.131 20.3928 165.231 15.7209 163.633ZM-63.1176 219.459C-66.8559 218.18 -66.1058 210.844 -65.0153 204.534L-65.0124 204.503C-64.9087 198.111 -56.2784 182.494 -53.4421 177.363C-49.9923 170.481 -41.7765 168.912 -23.7754 165.475C-21.6936 165.077 -19.4825 164.655 -17.1344 164.197C-13.9744 163.915 -11.1375 163.597 -8.39409 163.289C7.20085 161.54 15.791 160.576 30.9104 173.369C41.2555 180.636 46.8676 190.984 46.7224 202.516C46.5915 212.907 41.7214 223.32 33.6949 230.37C28.402 234.495 19.4828 235.176 7.19248 232.387C-3.13181 230.043 -13.7392 225.757 -20.7584 222.919C-22.4749 222.226 -23.957 221.627 -25.2053 221.148C-31.8174 218.646 -40.6852 219.198 -48.5119 219.686C-54.0221 220.03 -59.2271 220.354 -62.8043 219.549C-62.9119 219.523 -63.0165 219.493 -63.1176 219.459Z" fill="url(#paint9_linear_45_590)"/>
</mask>
<g mask="url(#mask9_45_590)">
<path d="M15.7207 163.633C8.23323 161.073 1.25391 161.856 -8.39433 162.938C-11.1364 163.246 -13.9716 163.564 -17.1429 163.848C-19.5052 164.308 -21.7159 164.73 -23.7973 165.127C-41.9091 168.586 -50.1755 170.165 -53.7047 177.204C-56.547 182.347 -65.2039 198.011 -65.3227 204.515C-66.4667 211.14 -67.2147 218.869 -62.8959 219.894L-62.8944 219.895C-59.2804 220.708 -54.0565 220.383 -48.5258 220.038C-40.7257 219.552 -31.8867 219.002 -25.3297 221.483C-24.0842 221.961 -22.6029 222.56 -20.8877 223.253C-13.8606 226.093 -3.24155 230.385 7.10294 232.733C19.4797 235.542 28.4823 234.84 33.8607 230.647C41.9793 223.517 46.9001 212.992 47.0326 202.486C47.1792 190.837 41.5214 180.391 31.1013 173.071C25.2623 168.131 20.3926 165.231 15.7207 163.633ZM-63.1179 219.459C-66.8562 218.18 -66.106 210.844 -65.0156 204.534L-65.0126 204.503C-64.9089 198.111 -56.2786 182.494 -53.4424 177.363C-49.9926 170.481 -41.7767 168.912 -23.7756 165.475C-21.6939 165.077 -19.4827 164.655 -17.1346 164.197C-13.9747 163.915 -11.1378 163.597 -8.39434 163.289C7.2006 161.54 15.7908 160.576 30.9102 173.369C41.2553 180.636 46.8674 190.984 46.7222 202.516C46.5913 212.907 41.7211 223.32 33.6946 230.37C28.4018 234.495 19.4826 235.176 7.19223 232.387C-3.13206 230.043 -13.7395 225.757 -20.7586 222.919C-22.4751 222.226 -23.9573 221.627 -25.2055 221.148C-31.8176 218.646 -40.6854 219.198 -48.5122 219.686C-54.0224 220.03 -59.2274 220.354 -62.8046 219.549C-62.9122 219.523 -63.0168 219.493 -63.1179 219.459Z" fill="#C0C0C0"/>
</g>
<mask id="mask10_45_590" style="mask-type:alpha" maskUnits="userSpaceOnUse" x="-63" y="164" width="101" height="63">
<path d="M9.4445 167.79C5.08988 166.301 0.152187 165.292 -5.44522 164.739C-25.6537 164.037 -36.0218 166.919 -40.1211 174.376C-42.0927 177.766 -46.6101 184.015 -50.5958 189.528C-53.7516 193.894 -56.7327 198.017 -58.0915 200.217C-59.444 202.02 -60.8208 204.716 -61.7651 207.417C-62.7993 210.376 -63.1538 212.835 -62.7633 214.342C-62.5222 215.272 -62.0062 215.822 -61.2311 215.978L-61.2302 215.979C-57.753 216.644 -51.5444 215.865 -44.9712 215.041C-37.1608 214.061 -29.0847 213.048 -24.3003 214.221C-21.7012 214.87 -17.7941 216.494 -13.2697 218.375C-2.04 223.042 13.3413 229.435 21.4763 225.939C29.0319 222.043 34.9413 214.813 36.9073 207.065C38.5594 200.556 37.3129 194.227 33.303 188.761C29.1415 181.344 24.6103 176.158 19.0516 172.455C16.2163 170.566 13.0278 169.016 9.4445 167.79ZM-61.3792 215.618C-61.9368 215.428 -62.3147 214.962 -62.5044 214.229C-63.3011 211.156 -60.6304 204.049 -57.8851 200.388C-56.5241 198.186 -53.5468 194.068 -50.3948 189.708C-46.4042 184.188 -41.8813 177.932 -39.8989 174.522C-35.8624 167.18 -25.5717 164.346 -5.48721 165.044C4.67039 166.047 12.6495 168.559 18.8991 172.723C24.4248 176.404 28.931 181.562 33.0805 188.956C37.0448 194.361 38.2759 200.599 36.6493 207.008C34.7071 214.661 28.8619 221.808 21.3947 225.658C13.3644 229.11 -1.96312 222.738 -13.156 218.086C-17.6885 216.202 -21.6024 214.575 -24.2189 213.922C-29.0446 212.74 -37.1427 213.755 -44.9742 214.737C-51.5285 215.56 -57.7192 216.336 -61.1604 215.677C-61.2361 215.662 -61.309 215.642 -61.3792 215.618Z" fill="url(#paint10_linear_45_590)"/>
</mask>
<g mask="url(#mask10_45_590)">
<path d="M9.4445 167.79C5.08988 166.301 0.152187 165.292 -5.44522 164.739C-25.6537 164.037 -36.0218 166.919 -40.1211 174.376C-42.0927 177.766 -46.6101 184.015 -50.5958 189.528C-53.7516 193.894 -56.7327 198.017 -58.0915 200.217C-59.444 202.02 -60.8208 204.716 -61.7651 207.417C-62.7993 210.376 -63.1538 212.835 -62.7633 214.342C-62.5222 215.272 -62.0062 215.822 -61.2311 215.978L-61.2302 215.979C-57.753 216.644 -51.5444 215.865 -44.9712 215.041C-37.1608 214.061 -29.0847 213.048 -24.3003 214.221C-21.7012 214.87 -17.7941 216.494 -13.2697 218.375C-2.04 223.042 13.3413 229.435 21.4763 225.939C29.0319 222.043 34.9413 214.813 36.9073 207.065C38.5594 200.556 37.3129 194.227 33.303 188.761C29.1415 181.344 24.6103 176.158 19.0516 172.455C16.2163 170.566 13.0278 169.016 9.4445 167.79ZM-61.3792 215.618C-61.9368 215.428 -62.3147 214.962 -62.5044 214.229C-63.3011 211.156 -60.6304 204.049 -57.8851 200.388C-56.5241 198.186 -53.5468 194.068 -50.3948 189.708C-46.4042 184.188 -41.8813 177.932 -39.8989 174.522C-35.8624 167.18 -25.5717 164.346 -5.48721 165.044C4.67039 166.047 12.6495 168.559 18.8991 172.723C24.4248 176.404 28.931 181.562 33.0805 188.956C37.0448 194.361 38.2759 200.599 36.6493 207.008C34.7071 214.661 28.8619 221.808 21.3947 225.658C13.3644 229.11 -1.96312 222.738 -13.156 218.086C-17.6885 216.202 -21.6024 214.575 -24.2189 213.922C-29.0446 212.74 -37.1427 213.755 -44.9742 214.737C-51.5285 215.56 -57.7192 216.336 -61.1604 215.677C-61.2361 215.662 -61.309 215.642 -61.3792 215.618Z" fill="#C0C0C0"/>
</g>
<mask id="mask11_45_590" style="mask-type:alpha" maskUnits="userSpaceOnUse" x="-61" y="163" width="97" height="59">
<path d="M7.89276 166.159C7.34716 165.973 6.79786 165.797 6.2441 165.633C-2.76813 162.963 -10.3098 162.422 -16.1711 164.027C-20.7728 165.287 -24.261 167.817 -26.5382 171.548C-30.2671 177.657 -44.8066 192.26 -50.8466 195.962C-53.0974 197.342 -55.5621 200.057 -57.6084 203.412C-59.46 206.447 -60.5713 209.392 -60.4397 210.913C-60.3811 211.59 -60.0779 211.987 -59.567 212.062C-55.9877 212.583 -47.2747 210.928 -38.8486 209.327C-32.3151 208.085 -26.1437 206.913 -23.2653 206.957C-20.0008 207.006 -14.2433 210.2 -8.14814 213.581C-1.86936 217.064 4.62373 220.666 9.07407 221.216C13.7297 221.792 19.7195 220.45 24.7059 217.712C30.5336 214.513 34.364 209.83 35.4916 204.525C36.8108 198.318 34.6132 190.208 29.6131 182.831C24.324 175.027 16.6583 169.157 7.89276 166.159ZM-59.6715 211.768C-59.9923 211.659 -60.1699 211.361 -60.213 210.863C-60.4683 207.915 -55.7057 199.222 -50.7544 196.187C-44.6922 192.471 -30.0986 177.813 -26.3554 171.681C-24.1156 168.011 -20.6782 165.521 -16.1388 164.278C-10.3149 162.683 -2.81023 163.224 6.16666 165.884C15.5728 168.67 23.8357 174.751 29.4277 183.001C34.3158 190.212 36.5546 198.446 35.2704 204.489C34.1613 209.707 30.3803 214.322 24.6238 217.482C19.6762 220.198 13.7356 221.53 9.12047 220.959C4.70699 220.413 -1.76941 216.821 -8.03241 213.346C-14.1492 209.954 -19.9262 206.749 -23.24 206.698C-26.1386 206.654 -32.3201 207.829 -38.8643 209.072C-47.2739 210.67 -55.9698 212.322 -59.5162 211.806C-59.5713 211.797 -59.623 211.785 -59.6715 211.768Z" fill="url(#paint11_linear_45_590)"/>
</mask>
<g mask="url(#mask11_45_590)">
<path d="M7.89276 166.159C7.34716 165.973 6.79786 165.797 6.2441 165.633C-2.76813 162.963 -10.3098 162.422 -16.1711 164.027C-20.7728 165.287 -24.261 167.817 -26.5382 171.548C-30.2671 177.657 -44.8066 192.26 -50.8466 195.962C-53.0974 197.342 -55.5621 200.057 -57.6084 203.412C-59.46 206.447 -60.5713 209.392 -60.4397 210.913C-60.3811 211.59 -60.0779 211.987 -59.567 212.062C-55.9877 212.583 -47.2747 210.928 -38.8486 209.327C-32.3151 208.085 -26.1437 206.913 -23.2653 206.957C-20.0008 207.006 -14.2433 210.2 -8.14814 213.581C-1.86936 217.064 4.62373 220.666 9.07407 221.216C13.7297 221.792 19.7195 220.45 24.7059 217.712C30.5336 214.513 34.364 209.83 35.4916 204.525C36.8108 198.318 34.6132 190.208 29.6131 182.831C24.324 175.027 16.6583 169.157 7.89276 166.159ZM-59.6715 211.768C-59.9923 211.659 -60.1699 211.361 -60.213 210.863C-60.4683 207.915 -55.7057 199.222 -50.7544 196.187C-44.6922 192.471 -30.0986 177.813 -26.3554 171.681C-24.1156 168.011 -20.6782 165.521 -16.1388 164.278C-10.3149 162.683 -2.81023 163.224 6.16666 165.884C15.5728 168.67 23.8357 174.751 29.4277 183.001C34.3158 190.212 36.5546 198.446 35.2704 204.489C34.1613 209.707 30.3803 214.322 24.6238 217.482C19.6762 220.198 13.7356 221.53 9.12047 220.959C4.70699 220.413 -1.76941 216.821 -8.03241 213.346C-14.1492 209.954 -19.9262 206.749 -23.24 206.698C-26.1386 206.654 -32.3201 207.829 -38.8643 209.072C-47.2739 210.67 -55.9698 212.322 -59.5162 211.806C-59.5713 211.797 -59.623 211.785 -59.6715 211.768Z" fill="#C0C0C0"/>
</g>
</g>
<defs>
<linearGradient id="paint0_linear_45_590" x1="-146.077" y1="115.273" x2="165.277" y2="221.751" gradientUnits="userSpaceOnUse">
<stop stop-color="white"/>
<stop offset="0.0436152" stop-color="#B4B4B4"/>
<stop offset="0.150732"/>
<stop offset="0.171421" stop-color="#171717"/>
<stop offset="0.385884" stop-color="white"/>
<stop offset="0.632551" stop-color="#E6E6E6"/>
<stop offset="0.856667" stop-color="#1A1A1A"/>
<stop offset="0.998739"/>
</linearGradient>
<linearGradient id="paint1_linear_45_590" x1="-135.863" y1="122.321" x2="151.69" y2="220.659" gradientUnits="userSpaceOnUse">
<stop stop-color="white"/>
<stop offset="0.0436152" stop-color="#B4B4B4"/>
<stop offset="0.150732"/>
<stop offset="0.171421" stop-color="#171717"/>
<stop offset="0.385884" stop-color="white"/>
<stop offset="0.632551" stop-color="#E6E6E6"/>
<stop offset="0.856667" stop-color="#1A1A1A"/>
<stop offset="0.998739"/>
</linearGradient>
<linearGradient id="paint2_linear_45_590" x1="-125.649" y1="129.356" x2="138.119" y2="219.56" gradientUnits="userSpaceOnUse">
<stop stop-color="white"/>
<stop offset="0.0436152" stop-color="#B4B4B4"/>
<stop offset="0.150732"/>
<stop offset="0.171421" stop-color="#171717"/>
<stop offset="0.385884" stop-color="white"/>
<stop offset="0.632551" stop-color="#E6E6E6"/>
<stop offset="0.856667" stop-color="#1A1A1A"/>
<stop offset="0.998739"/>
</linearGradient>
<linearGradient id="paint3_linear_45_590" x1="-115.435" y1="136.376" x2="124.574" y2="218.455" gradientUnits="userSpaceOnUse">
<stop stop-color="white"/>
<stop offset="0.0436152" stop-color="#B4B4B4"/>
<stop offset="0.150732"/>
<stop offset="0.171421" stop-color="#171717"/>
<stop offset="0.385884" stop-color="white"/>
<stop offset="0.632551" stop-color="#E6E6E6"/>
<stop offset="0.856667" stop-color="#1A1A1A"/>
<stop offset="0.998739"/>
</linearGradient>
<linearGradient id="paint4_linear_45_590" x1="-105.225" y1="143.387" x2="111.059" y2="217.353" gradientUnits="userSpaceOnUse">
<stop stop-color="white"/>
<stop offset="0.0436152" stop-color="#B4B4B4"/>
<stop offset="0.150732"/>
<stop offset="0.171421" stop-color="#171717"/>
<stop offset="0.385884" stop-color="white"/>
<stop offset="0.632551" stop-color="#E6E6E6"/>
<stop offset="0.856667" stop-color="#1A1A1A"/>
<stop offset="0.998739"/>
</linearGradient>
<linearGradient id="paint5_linear_45_590" x1="-95.0059" y1="150.346" x2="97.5812" y2="216.207" gradientUnits="userSpaceOnUse">
<stop stop-color="white"/>
<stop offset="0.0436152" stop-color="#B4B4B4"/>
<stop offset="0.150732"/>
<stop offset="0.171421" stop-color="#171717"/>
<stop offset="0.385884" stop-color="white"/>
<stop offset="0.632551" stop-color="#E6E6E6"/>
<stop offset="0.856667" stop-color="#1A1A1A"/>
<stop offset="0.998739"/>
</linearGradient>
<linearGradient id="paint6_linear_45_590" x1="-84.7725" y1="157.215" x2="84.2357" y2="215.013" gradientUnits="userSpaceOnUse">
<stop stop-color="white"/>
<stop offset="0.0436152" stop-color="#B4B4B4"/>
<stop offset="0.150732"/>
<stop offset="0.171421" stop-color="#171717"/>
<stop offset="0.385884" stop-color="white"/>
<stop offset="0.632551" stop-color="#E6E6E6"/>
<stop offset="0.856667" stop-color="#1A1A1A"/>
<stop offset="0.998739"/>
</linearGradient>
<linearGradient id="paint7_linear_45_590" x1="-75.0986" y1="165.54" x2="70.5163" y2="215.338" gradientUnits="userSpaceOnUse">
<stop stop-color="white"/>
<stop offset="0.0436152" stop-color="#B4B4B4"/>
<stop offset="0.150732"/>
<stop offset="0.171421" stop-color="#171717"/>
<stop offset="0.385884" stop-color="white"/>
<stop offset="0.632551" stop-color="#E6E6E6"/>
<stop offset="0.856667" stop-color="#1A1A1A"/>
<stop offset="0.998739"/>
</linearGradient>
<linearGradient id="paint8_linear_45_590" x1="-65.5867" y1="173.52" x2="57.1455" y2="215.492" gradientUnits="userSpaceOnUse">
<stop stop-color="white"/>
<stop offset="0.0436152" stop-color="#B4B4B4"/>
<stop offset="0.150732"/>
<stop offset="0.171421" stop-color="#171717"/>
<stop offset="0.385884" stop-color="white"/>
<stop offset="0.632551" stop-color="#E6E6E6"/>
<stop offset="0.856667" stop-color="#1A1A1A"/>
<stop offset="0.998739"/>
</linearGradient>
<linearGradient id="paint9_linear_45_590" x1="-57.667" y1="180.118" x2="44.6182" y2="215.098" gradientUnits="userSpaceOnUse">
<stop stop-color="white"/>
<stop offset="0.0436152" stop-color="#B4B4B4"/>
<stop offset="0.150732"/>
<stop offset="0.171421" stop-color="#171717"/>
<stop offset="0.385884" stop-color="white"/>
<stop offset="0.632551" stop-color="#E6E6E6"/>
<stop offset="0.856667" stop-color="#1A1A1A"/>
<stop offset="0.998739"/>
</linearGradient>
<linearGradient id="paint10_linear_45_590" x1="-53.2567" y1="182.536" x2="35.0537" y2="212.736" gradientUnits="userSpaceOnUse">
<stop stop-color="white"/>
<stop offset="0.0436152" stop-color="#B4B4B4"/>
<stop offset="0.150732"/>
<stop offset="0.171421" stop-color="#171717"/>
<stop offset="0.385884" stop-color="white"/>
<stop offset="0.632551" stop-color="#E6E6E6"/>
<stop offset="0.856667" stop-color="#1A1A1A"/>
<stop offset="0.998739"/>
</linearGradient>
<linearGradient id="paint11_linear_45_590" x1="-50.5249" y1="180.677" x2="33.896" y2="209.548" gradientUnits="userSpaceOnUse">
<stop stop-color="white"/>
<stop offset="0.0436152" stop-color="#B4B4B4"/>
<stop offset="0.150732"/>
<stop offset="0.171421" stop-color="#171717"/>
<stop offset="0.385884" stop-color="white"/>
<stop offset="0.632551" stop-color="#E6E6E6"/>
<stop offset="0.856667" stop-color="#1A1A1A"/>
<stop offset="0.998739"/>
</linearGradient>
</defs>
</svg>
