<svg width="177" height="211" viewBox="0 0 177 211" fill="none" xmlns="http://www.w3.org/2000/svg">
<g opacity="0.35">
<mask id="mask0_45_584" style="mask-type:alpha" maskUnits="userSpaceOnUse" x="12" y="28" width="341" height="287">
<path d="M219.356 38.3954C213.178 36.2827 206.848 34.3823 200.378 32.6995C163.982 23.2327 136.696 28.6284 116.962 49.1945C99.8623 67.015 91.014 93.4336 83.2073 116.742C77.9965 132.301 73.0745 146.996 66.4405 156.623C44.3566 188.671 30.675 192.812 22.5007 195.287C17.7673 196.72 14.6404 197.666 12.9722 203.313C11.3374 208.846 25.9359 221.608 58.9145 243.475C73.1773 252.933 86.5561 253.54 97.3064 254.028C102.692 254.273 107.35 254.484 111.061 255.768L111.189 255.396L111.061 255.768C121.28 259.298 123.626 261.567 128.766 266.537C133.052 270.682 139.529 276.945 154.391 287.473C167.452 296.724 189.829 305.377 212.791 310.053C225.856 312.714 238.664 314.058 250.86 314.047C264.513 314.035 277.084 312.308 288.226 308.914C308.865 302.626 324.289 290.778 334.07 273.7C343.706 256.876 349.561 238.296 351.471 218.477C353.368 198.791 351.28 178.886 345.266 159.316C336.511 130.829 319.631 104.503 296.451 83.1842C284.093 71.8191 269.929 61.8387 254.352 53.5199C243.406 47.6746 231.689 42.6133 219.356 38.3954ZM72.7633 249.454C68.4054 247.964 63.8976 245.843 59.3008 242.795C44.3021 232.85 33.3133 224.932 25.7059 218.587C14.7328 209.435 13.0756 205.327 13.6176 203.492C15.1536 198.293 17.8036 197.491 22.6144 196.035C30.8811 193.533 44.7171 189.344 66.9626 157.063C73.6689 147.33 78.6108 132.575 83.8429 116.954C91.6193 93.7356 100.433 67.4194 117.396 49.7416C136.934 29.3791 164.008 24.0521 200.165 33.4563C219.507 38.487 237.624 45.4758 254.012 54.2277C269.546 62.5233 283.669 72.4747 295.99 83.8055C319.085 105.046 335.901 131.267 344.618 159.634C350.601 179.101 352.678 198.896 350.792 218.469C348.894 238.158 343.079 256.614 333.509 273.325C323.836 290.213 308.562 301.935 288.111 308.166C277.029 311.542 264.519 313.26 250.927 313.272C238.771 313.283 226.002 311.943 212.975 309.29C190.086 304.628 167.792 296.012 154.793 286.803C139.967 276.302 133.51 270.058 129.238 265.926C124.033 260.893 121.658 258.596 111.317 255.024C111.3 255.019 111.282 255.012 111.264 255.006C107.476 253.711 102.805 253.499 97.4006 253.253C90.1956 252.926 81.8016 252.545 72.7633 249.454Z" fill="url(#paint0_linear_45_584)"/>
</mask>
<g mask="url(#mask0_45_584)">
<path d="M219.356 38.3954C213.178 36.2827 206.848 34.3823 200.378 32.6995C163.982 23.2327 136.696 28.6284 116.962 49.1945C99.8623 67.015 91.014 93.4336 83.2073 116.742C77.9965 132.301 73.0745 146.996 66.4405 156.623C44.3566 188.671 30.675 192.812 22.5007 195.287C17.7673 196.72 14.6404 197.666 12.9722 203.313C11.3374 208.846 25.9359 221.608 58.9145 243.475C73.1773 252.933 86.5561 253.54 97.3064 254.028C102.692 254.273 107.35 254.484 111.061 255.768L111.189 255.396L111.061 255.768C121.28 259.298 123.626 261.567 128.766 266.537C133.052 270.682 139.529 276.945 154.391 287.473C167.452 296.724 189.829 305.377 212.791 310.053C225.856 312.714 238.664 314.058 250.86 314.047C264.513 314.035 277.084 312.308 288.226 308.914C308.865 302.626 324.289 290.778 334.07 273.7C343.706 256.876 349.561 238.296 351.471 218.477C353.368 198.791 351.28 178.886 345.266 159.316C336.511 130.829 319.631 104.503 296.451 83.1842C284.093 71.8191 269.929 61.8387 254.352 53.5199C243.406 47.6746 231.689 42.6133 219.356 38.3954ZM72.7633 249.454C68.4054 247.964 63.8976 245.843 59.3008 242.795C44.3021 232.85 33.3133 224.932 25.7059 218.587C14.7328 209.435 13.0756 205.327 13.6176 203.492C15.1536 198.293 17.8036 197.491 22.6144 196.035C30.8811 193.533 44.7171 189.344 66.9626 157.063C73.6689 147.33 78.6108 132.575 83.8429 116.954C91.6193 93.7356 100.433 67.4194 117.396 49.7416C136.934 29.3791 164.008 24.0521 200.165 33.4563C219.507 38.487 237.624 45.4758 254.012 54.2277C269.546 62.5233 283.669 72.4747 295.99 83.8055C319.085 105.046 335.901 131.267 344.618 159.634C350.601 179.101 352.678 198.896 350.792 218.469C348.894 238.158 343.079 256.614 333.509 273.325C323.836 290.213 308.562 301.935 288.111 308.166C277.029 311.542 264.519 313.26 250.927 313.272C238.771 313.283 226.002 311.943 212.975 309.29C190.086 304.628 167.792 296.012 154.793 286.803C139.967 276.302 133.51 270.058 129.238 265.926C124.033 260.893 121.658 258.596 111.317 255.024C111.3 255.019 111.282 255.012 111.264 255.006C107.476 253.711 102.805 253.499 97.4006 253.253C90.1956 252.926 81.8016 252.545 72.7633 249.454Z" fill="#C0C0C0"/>
</g>
<mask id="mask1_45_584" style="mask-type:alpha" maskUnits="userSpaceOnUse" x="26" y="43" width="313" height="263">
<path d="M217.868 53.0314C212.873 51.323 207.768 49.7663 202.561 48.365C169.808 39.4636 145.056 43.7634 126.893 61.5099C111.115 76.9268 102.567 100.237 95.0264 120.804C89.7735 135.13 84.8119 148.662 78.1439 157.49C57.2118 185.901 44.0255 190.051 36.147 192.531C31.3855 194.029 28.2396 195.019 26.5568 200.481C25.5624 203.551 28.9734 208.824 36.6965 216.146C43.6444 222.733 53.8142 230.716 66.1066 239.231C78.9164 248.19 90.9627 249.186 100.642 249.987C105.321 250.374 109.363 250.708 112.726 251.853L112.726 251.853C123.395 255.462 125.698 257.356 132.536 262.959C137.13 266.724 143.421 271.879 155.415 280.21C167.699 288.748 188.585 296.79 209.924 301.198C222.128 303.718 234.065 305.017 245.402 305.056C258.122 305.1 269.809 303.541 280.139 300.424C298.774 294.799 312.761 284.222 321.71 268.985C330.681 253.639 336.201 236.662 338.119 218.525C340.025 200.502 338.279 182.264 332.928 164.319C325.197 138.388 310.095 114.373 289.256 94.869C278.144 84.4699 265.384 75.3127 251.328 67.6522C240.907 61.9727 229.7 57.0778 217.868 53.0314ZM80.2367 245.62C75.806 244.105 71.1938 241.896 66.4796 238.599C40.4798 220.589 25.4134 206.054 27.1586 200.665C28.7176 195.605 31.5567 194.712 36.2603 193.231C44.2193 190.726 57.5402 186.534 78.616 157.928C85.3568 149.003 90.3398 135.413 95.6155 121.025C103.125 100.544 111.638 77.3291 127.283 62.0417C145.264 44.4742 169.82 40.2324 202.355 49.0748C219.854 53.7842 236.222 60.2578 251.006 68.3148C265.02 75.9532 277.743 85.0826 288.82 95.4493C309.579 114.878 324.621 138.794 332.319 164.612C337.64 182.459 339.377 200.593 337.482 218.509C335.577 236.524 330.095 253.385 321.187 268.624C312.34 283.686 298.494 294.149 280.032 299.721C266.388 303.839 243.18 307.314 210.098 300.481C188.826 296.087 168.015 288.077 155.788 279.579C143.812 271.26 137.53 266.113 132.944 262.354C126.235 256.857 123.719 254.801 112.964 251.153C109.538 249.987 105.466 249.651 100.751 249.261C94.708 248.761 87.7339 248.184 80.2367 245.62Z" fill="url(#paint1_linear_45_584)"/>
</mask>
<g mask="url(#mask1_45_584)">
<path d="M217.868 53.0314C212.872 51.323 207.767 49.7663 202.56 48.365C169.807 39.4636 145.056 43.7634 126.893 61.5099C111.114 76.9268 102.567 100.237 95.026 120.804C89.773 135.13 84.8114 148.662 78.1434 157.49C57.2113 185.901 44.025 190.051 36.1465 192.531C31.385 194.029 28.2392 195.019 26.5564 200.481C25.5619 203.551 28.9729 208.824 36.696 216.146C43.6439 222.733 53.8137 230.716 66.1061 239.231C78.9159 248.19 90.9622 249.186 100.642 249.987C105.321 250.374 109.362 250.708 112.725 251.853L112.725 251.853C123.395 255.462 125.698 257.356 132.535 262.959C137.129 266.724 143.421 271.879 155.414 280.21C167.698 288.748 188.585 296.79 209.923 301.198C222.128 303.718 234.064 305.017 245.402 305.056C258.122 305.1 269.809 303.541 280.138 300.424C298.774 294.799 312.76 284.222 321.71 268.985C330.68 253.639 336.201 236.662 338.119 218.525C340.025 200.502 338.278 182.264 332.928 164.319C325.197 138.388 310.095 114.373 289.255 94.869C278.144 84.4699 265.383 75.3127 251.328 67.6522C240.907 61.9727 229.699 57.0778 217.868 53.0314ZM80.2362 245.62C75.8055 244.105 71.1933 241.896 66.4791 238.599C40.4793 220.589 25.4129 206.054 27.1581 200.665C28.7171 195.605 31.5562 194.712 36.2598 193.231C44.2188 190.726 57.5397 186.534 78.6156 157.928C85.3563 149.003 90.3393 135.413 95.615 121.025C103.125 100.544 111.637 77.3291 127.283 62.0417C145.263 44.4742 169.819 40.2324 202.355 49.0748C219.853 53.7842 236.221 60.2578 251.005 68.3148C265.02 75.9532 277.742 85.0826 288.819 95.4493C309.579 114.878 324.62 138.794 332.318 164.612C337.639 182.459 339.377 200.593 337.482 218.509C335.577 236.524 330.094 253.385 321.186 268.624C312.34 283.686 298.493 294.149 280.032 299.721C266.388 303.839 243.179 307.314 210.097 300.481C188.826 296.087 168.015 288.077 155.787 279.579C143.812 271.26 137.53 266.113 132.943 262.354C126.235 256.857 123.718 254.801 112.963 251.153C109.538 249.987 105.466 249.651 100.751 249.261C94.7075 248.761 87.7334 248.184 80.2362 245.62Z" fill="#C0C0C0"/>
</g>
<mask id="mask2_45_584" style="mask-type:alpha" maskUnits="userSpaceOnUse" x="39" y="59" width="287" height="238">
<path d="M216.554 67.6976C212.697 66.3785 208.762 65.1568 204.74 64.0299C175.605 55.6936 153.382 58.9208 136.803 73.8959C122.356 86.9452 114.13 107.167 106.871 125.009C101.569 138.043 96.5602 150.354 89.8453 158.356C70.105 183.137 57.4257 187.274 49.8502 189.746C45.0289 191.319 41.8438 192.358 40.1388 197.649C37.6174 204.806 55.558 222.022 73.2952 234.985C84.7087 243.508 95.4713 244.893 104.12 246.006C108.042 246.511 111.429 246.947 114.387 247.936L114.388 247.936C126.534 251.96 128.529 253.378 139.605 261.237C143.776 264.196 148.967 267.879 156.435 272.947C164.068 278.134 175.325 283.249 188.131 287.347C202.541 291.96 217.647 294.875 231.814 295.778C248.581 296.846 263.462 295.12 276.044 290.648C290.7 285.439 301.905 276.564 309.347 264.268C317.654 250.4 322.844 235.025 324.772 218.567C326.689 202.205 325.284 185.632 320.597 169.309C313.886 145.936 300.56 124.232 282.06 106.545C264.26 89.5278 242.263 76.4903 216.554 67.6976ZM87.9142 241.961C83.3587 240.403 78.5662 238.069 73.6563 234.403C52.5316 218.964 38.6711 203.586 40.6969 197.836C42.2864 192.904 45.1756 191.961 49.9621 190.4C57.6064 187.905 70.4005 183.731 90.2661 158.793C97.0537 150.704 102.085 138.336 107.412 125.242C114.638 107.479 122.829 87.3461 137.148 74.4129C153.556 59.5913 175.602 56.4115 204.542 64.6922C235.3 73.3114 261.24 87.5738 281.648 107.084C300.074 124.7 313.344 146.31 320.025 169.576C324.685 185.807 326.082 202.282 324.177 218.544C322.262 234.887 317.11 250.155 308.862 263.923C301.51 276.069 290.426 284.843 275.917 290C263.408 294.446 248.6 296.161 231.906 295.097C217.78 294.198 202.717 291.29 188.345 286.69C175.585 282.603 164.374 277.514 156.779 272.353C149.316 267.288 144.127 263.607 139.958 260.649C128.829 252.753 126.824 251.332 114.607 247.28C111.602 246.276 108.193 245.837 104.245 245.329C99.3845 244.703 93.8506 243.991 87.9142 241.961Z" fill="url(#paint2_linear_45_584)"/>
</mask>
<g mask="url(#mask2_45_584)">
<path d="M216.554 67.6976C212.697 66.3785 208.762 65.1568 204.74 64.0299C175.605 55.6936 153.382 58.9208 136.803 73.8959C122.356 86.9452 114.13 107.167 106.871 125.009C101.569 138.043 96.5602 150.354 89.8453 158.356C70.105 183.137 57.4257 187.274 49.8502 189.746C45.0289 191.319 41.8438 192.358 40.1388 197.649C37.6174 204.806 55.558 222.022 73.2952 234.985C84.7087 243.508 95.4713 244.893 104.12 246.006C108.042 246.511 111.429 246.947 114.387 247.936L114.388 247.936C126.534 251.96 128.529 253.378 139.605 261.237C143.776 264.196 148.967 267.879 156.435 272.947C164.068 278.134 175.325 283.249 188.131 287.347C202.541 291.96 217.647 294.875 231.814 295.778C248.581 296.846 263.462 295.12 276.044 290.648C290.7 285.439 301.905 276.564 309.347 264.268C317.654 250.4 322.844 235.025 324.772 218.567C326.689 202.205 325.284 185.632 320.597 169.309C313.886 145.936 300.56 124.232 282.06 106.545C264.26 89.5278 242.263 76.4903 216.554 67.6976ZM87.9142 241.961C83.3587 240.403 78.5662 238.069 73.6563 234.403C52.5316 218.964 38.6711 203.586 40.6969 197.836C42.2864 192.904 45.1756 191.961 49.9621 190.4C57.6064 187.905 70.4005 183.731 90.2661 158.793C97.0537 150.704 102.085 138.336 107.412 125.242C114.638 107.479 122.829 87.3461 137.148 74.4129C153.556 59.5913 175.602 56.4115 204.542 64.6922C235.3 73.3114 261.24 87.5738 281.648 107.084C300.074 124.7 313.344 146.31 320.025 169.576C324.685 185.807 326.082 202.282 324.177 218.544C322.262 234.887 317.11 250.155 308.862 263.923C301.51 276.069 290.426 284.843 275.917 290C263.408 294.446 248.6 296.161 231.906 295.097C217.78 294.198 202.717 291.29 188.345 286.69C175.585 282.603 164.374 277.514 156.779 272.353C149.316 267.288 144.127 263.607 139.958 260.649C128.829 252.753 126.824 251.332 114.607 247.28C111.602 246.276 108.193 245.837 104.245 245.329C99.3845 244.703 93.8506 243.991 87.9142 241.961Z" fill="#C0C0C0"/>
</g>
<mask id="mask3_45_584" style="mask-type:alpha" maskUnits="userSpaceOnUse" x="53" y="75" width="260" height="213">
<path d="M215.035 82.2724C212.375 81.3628 209.671 80.5038 206.922 79.6949C181.371 71.9234 161.668 74.1067 146.687 86.3706C133.585 97.0968 126.042 113.517 118.747 129.396C113.387 141.063 108.325 152.083 101.549 159.223C83.0575 180.384 71.3732 184.319 63.6414 186.923C58.5397 188.641 55.4604 189.679 53.7223 194.817C51.2562 201.293 63.0097 217.078 80.485 230.739C90.6037 238.945 100.177 240.723 107.869 242.152C110.812 242.698 113.592 243.214 116.051 244.02L116.052 244.02L117.298 244.423C131.639 249.048 132.809 249.426 157.457 265.685C164.379 270.26 174.919 275.009 186.368 278.72C199.538 282.985 213.301 285.754 226.17 286.73C241.462 287.888 255.032 286.535 266.504 282.708C279.887 278.243 290.142 270.453 296.985 259.553C304.633 247.162 309.494 233.385 311.434 218.605C313.365 203.901 312.304 188.99 308.281 174.285C302.586 153.47 291.033 134.08 274.869 118.213C258.793 102.431 238.693 90.3634 215.035 82.2724ZM95.9613 238.608C91.1904 236.977 86.0844 234.465 80.8351 230.207C63.8358 216.919 51.9054 201.128 54.2369 195.005C55.8673 190.185 58.8345 189.186 63.7505 187.53C71.0695 185.065 83.3194 180.939 101.917 159.658C108.764 152.442 113.851 141.368 119.237 129.645C126.497 113.84 134.005 97.4976 146.983 86.8729C161.808 74.7368 181.351 72.59 206.731 80.3096C233.86 88.2909 256.654 101.21 274.48 118.71C290.575 134.51 302.078 153.811 307.746 174.526C311.745 189.144 312.8 203.963 310.882 218.573C308.955 233.247 304.13 246.924 296.539 259.222C289.784 269.983 279.642 277.682 266.397 282.1C254.991 285.906 241.487 287.25 226.262 286.097C213.43 285.124 199.704 282.362 186.569 278.108C175.158 274.413 164.661 269.681 157.772 265.128C133.071 248.834 131.894 248.454 117.499 243.811L116.253 243.409C113.765 242.594 110.97 242.075 108.012 241.525C104.371 240.849 100.305 240.094 95.9613 238.608Z" fill="url(#paint3_linear_45_584)"/>
</mask>
<g mask="url(#mask3_45_584)">
<path d="M215.035 82.2724C212.375 81.3628 209.671 80.5038 206.922 79.6949C181.371 71.9234 161.668 74.1067 146.687 86.3706C133.585 97.0968 126.042 113.517 118.747 129.396C113.387 141.063 108.325 152.083 101.549 159.223C83.0575 180.384 71.3732 184.319 63.6414 186.923C58.5397 188.641 55.4604 189.679 53.7223 194.817C51.2562 201.293 63.0097 217.078 80.485 230.739C90.6037 238.945 100.177 240.723 107.869 242.152C110.812 242.698 113.592 243.214 116.051 244.02L116.052 244.02L117.298 244.423C131.639 249.048 132.809 249.426 157.457 265.685C164.379 270.26 174.919 275.009 186.368 278.72C199.538 282.985 213.301 285.754 226.17 286.73C241.462 287.888 255.032 286.535 266.504 282.708C279.887 278.243 290.142 270.453 296.985 259.553C304.633 247.162 309.494 233.385 311.434 218.605C313.365 203.901 312.304 188.99 308.281 174.285C302.586 153.47 291.033 134.08 274.869 118.213C258.793 102.431 238.693 90.3634 215.035 82.2724ZM95.9613 238.608C91.1904 236.977 86.0844 234.465 80.8351 230.207C63.8358 216.919 51.9054 201.128 54.2369 195.005C55.8673 190.185 58.8345 189.186 63.7505 187.53C71.0695 185.065 83.3194 180.939 101.917 159.658C108.764 152.442 113.851 141.368 119.237 129.645C126.497 113.84 134.005 97.4976 146.983 86.8729C161.808 74.7368 181.351 72.59 206.731 80.3096C233.86 88.2909 256.654 101.21 274.48 118.71C290.575 134.51 302.078 153.811 307.746 174.526C311.745 189.144 312.8 203.963 310.882 218.573C308.955 233.247 304.13 246.924 296.539 259.222C289.784 269.983 279.642 277.682 266.397 282.1C254.991 285.906 241.487 287.25 226.262 286.097C213.43 285.124 199.704 282.362 186.569 278.108C175.158 274.413 164.661 269.681 157.772 265.128C133.071 248.834 131.894 248.454 117.499 243.811L116.253 243.409C113.765 242.594 110.97 242.075 108.012 241.525C104.371 240.849 100.305 240.094 95.9613 238.608Z" fill="#C0C0C0"/>
</g>
<mask id="mask4_45_584" style="mask-type:alpha" maskUnits="userSpaceOnUse" x="66" y="90" width="234" height="189">
<path d="M213.512 96.8024C212.057 96.3048 210.588 95.8244 209.102 95.3606C159.779 79.2037 144.301 108.326 130.646 134.02C125.224 144.222 120.102 153.858 113.254 160.092C96.0946 177.645 84.9425 181.497 77.5629 184.046C72.2801 185.87 69.0913 186.972 67.3048 191.985C66.0278 195.105 67.3638 200.54 70.9765 206.881C74.8124 213.614 80.7421 220.579 87.6733 226.492C96.7244 234.666 104.962 236.755 112.23 238.599C114.158 239.088 115.98 239.55 117.713 240.104L117.714 240.104C120.329 240.923 122.627 241.579 124.654 242.158C134.017 244.831 139.668 246.445 158.478 258.422C170.468 266.08 194.999 275.372 220.526 277.682C234.343 278.932 246.602 277.951 256.964 274.767C269.073 271.047 278.379 264.342 284.622 254.838C291.615 243.922 296.152 231.743 298.109 218.636C300.057 205.586 299.341 192.331 295.983 179.24C291.299 160.984 281.513 143.911 267.682 129.866C253.344 115.308 235.137 104.198 213.512 96.8024ZM104.576 235.803C99.4268 234.042 93.8909 231.321 88.0142 226.014C73.1226 213.31 65.3981 197.984 67.7763 192.173C69.4631 187.44 72.5513 186.373 77.6675 184.606C85.096 182.04 96.3217 178.163 113.565 160.523C120.484 154.226 125.632 144.54 131.082 134.286C137.998 121.272 145.149 107.816 156.774 99.4421C169.998 89.9152 187.054 88.7656 208.918 95.9274C232.418 103.264 252.066 114.836 267.316 130.321C281.084 144.302 290.825 161.292 295.485 179.454C298.822 192.463 299.534 205.632 297.599 218.594C295.657 231.604 291.154 243.691 284.216 254.521C276.204 266.717 258.665 280.538 220.617 277.096C195.162 274.793 170.711 265.533 158.764 257.903C139.9 245.892 134.226 244.271 124.826 241.587C122.801 241.009 120.507 240.354 117.898 239.537C116.152 238.979 114.324 238.516 112.389 238.025C109.898 237.393 107.29 236.732 104.576 235.803Z" fill="url(#paint4_linear_45_584)"/>
</mask>
<g mask="url(#mask4_45_584)">
<path d="M213.512 96.8024C212.057 96.3048 210.588 95.8244 209.102 95.3606C159.779 79.2037 144.301 108.326 130.646 134.02C125.224 144.222 120.102 153.858 113.254 160.092C96.0946 177.645 84.9425 181.497 77.5629 184.046C72.2801 185.87 69.0913 186.972 67.3048 191.985C66.0278 195.105 67.3638 200.54 70.9765 206.881C74.8124 213.614 80.7421 220.579 87.6733 226.492C96.7244 234.666 104.962 236.755 112.23 238.599C114.158 239.088 115.98 239.55 117.713 240.104L117.714 240.104C120.329 240.923 122.627 241.579 124.654 242.158C134.017 244.831 139.668 246.445 158.478 258.422C170.468 266.08 194.999 275.372 220.526 277.682C234.343 278.932 246.602 277.951 256.964 274.767C269.073 271.047 278.379 264.342 284.622 254.838C291.615 243.922 296.152 231.743 298.109 218.636C300.057 205.586 299.341 192.331 295.983 179.24C291.299 160.984 281.513 143.911 267.682 129.866C253.344 115.308 235.137 104.198 213.512 96.8024ZM104.576 235.803C99.4268 234.042 93.8909 231.321 88.0142 226.014C73.1226 213.31 65.3981 197.984 67.7763 192.173C69.4631 187.44 72.5513 186.373 77.6675 184.606C85.096 182.04 96.3217 178.163 113.565 160.523C120.484 154.226 125.632 144.54 131.082 134.286C137.998 121.272 145.149 107.816 156.774 99.4421C169.998 89.9152 187.054 88.7656 208.918 95.9274C232.418 103.264 252.066 114.836 267.316 130.321C281.084 144.302 290.825 161.292 295.485 179.454C298.822 192.463 299.534 205.632 297.599 218.594C295.657 231.604 291.154 243.691 284.216 254.521C276.204 266.717 258.665 280.538 220.617 277.096C195.162 274.793 170.711 265.533 158.764 257.903C139.9 245.892 134.226 244.271 124.826 241.587C122.801 241.009 120.507 240.354 117.898 239.537C116.152 238.979 114.324 238.516 112.389 238.025C109.898 237.393 107.29 236.732 104.576 235.803Z" fill="#C0C0C0"/>
</g>
<mask id="mask5_45_584" style="mask-type:alpha" maskUnits="userSpaceOnUse" x="80" y="106" width="207" height="164">
<path d="M209.709 110.474C191.916 104.389 177.704 104.785 166.304 111.675C155.935 117.942 149.131 128.624 142.551 138.954C137.068 147.563 131.889 155.694 124.96 160.961C109.266 174.925 98.6942 178.631 91.6986 181.083C86.1171 183.04 82.7481 184.221 80.8882 189.154C78.0299 195.681 83.394 211.228 94.8609 222.243C103.519 231.3 111.154 233.654 118.539 235.929L119.378 236.188C122.944 237.264 126.008 237.937 128.972 238.588C136.916 240.333 144.42 241.981 159.501 251.16C170.479 257.87 192.492 266.2 214.882 268.633C233.752 270.685 259.024 269.138 272.259 250.123C284.945 231.25 289.12 207.211 283.716 184.166C280.035 168.47 272.008 153.717 260.503 141.5C247.926 128.144 231.603 117.973 211.983 111.263C211.75 111.183 211.518 111.105 211.285 111.026C210.756 110.836 210.231 110.652 209.709 110.474ZM114.278 233.992C108.302 231.948 102.071 229.016 95.1949 221.823C82.9366 210.048 78.8518 194.969 81.3168 189.339C83.0842 184.653 86.3637 183.503 91.797 181.598C98.8296 179.133 109.457 175.407 125.214 161.388C132.207 156.072 137.414 147.897 142.927 139.242C149.471 128.969 156.237 118.347 166.495 112.147C178.103 105.13 192.69 104.937 211.105 111.544C211.337 111.622 211.571 111.702 211.802 111.78C231.365 118.471 247.629 128.604 260.16 141.912C271.608 154.068 279.594 168.744 283.255 184.352C285.93 195.759 286.294 207.283 284.336 218.604C282.373 229.954 278.187 240.456 271.894 249.819C258.811 268.616 233.719 270.133 214.973 268.095C192.644 265.668 170.699 257.365 159.757 250.678C144.619 241.464 137.083 239.809 129.106 238.057C126.15 237.407 123.093 236.736 119.542 235.665L118.705 235.406C117.241 234.955 115.767 234.501 114.278 233.992Z" fill="url(#paint5_linear_45_584)"/>
</mask>
<g mask="url(#mask5_45_584)">
<path d="M209.709 110.474C191.917 104.389 177.704 104.785 166.305 111.675C155.936 117.942 149.132 128.624 142.551 138.954C137.068 147.563 131.889 155.694 124.96 160.961C109.266 174.925 98.6944 178.631 91.6988 181.083C86.1173 183.04 82.7483 184.221 80.8885 189.154C78.0302 195.681 83.3943 211.228 94.8611 222.243C103.519 231.3 111.154 233.654 118.539 235.929L119.378 236.188C122.944 237.264 126.009 237.937 128.972 238.588C136.917 240.333 144.42 241.981 159.501 251.16C170.479 257.87 192.492 266.2 214.882 268.633C233.752 270.685 259.024 269.138 272.259 250.123C284.945 231.25 289.12 207.211 283.716 184.166C280.035 168.47 272.008 153.717 260.504 141.5C247.926 128.144 231.604 117.973 211.983 111.263C211.75 111.183 211.518 111.105 211.285 111.026C210.756 110.836 210.231 110.652 209.709 110.474ZM114.278 233.992C108.303 231.948 102.071 229.016 95.1952 221.823C82.9368 210.048 78.852 194.969 81.317 189.339C83.0845 184.653 86.364 183.503 91.7973 181.598C98.8299 179.133 109.457 175.407 125.214 161.388C132.207 156.072 137.415 147.897 142.927 139.242C149.471 128.969 156.237 118.347 166.495 112.147C178.104 105.13 192.69 104.937 211.105 111.544C211.337 111.622 211.571 111.702 211.802 111.78C231.365 118.471 247.629 128.604 260.161 141.912C271.609 154.068 279.594 168.744 283.255 184.352C285.93 195.759 286.294 207.283 284.336 218.604C282.374 229.954 278.187 240.456 271.894 249.819C258.811 268.616 233.719 270.133 214.973 268.095C192.644 265.668 170.699 257.365 159.757 250.678C144.619 241.464 137.084 239.809 129.106 238.057C126.15 237.407 123.093 236.736 119.542 235.665L118.705 235.406C117.242 234.955 115.767 234.501 114.278 233.992Z" fill="#C0C0C0"/>
</g>
<mask id="mask6_45_584" style="mask-type:alpha" maskUnits="userSpaceOnUse" x="93" y="121" width="181" height="140">
<path d="M208.77 124.937C195.757 120.486 184.989 120.372 175.963 124.564C166.978 128.738 160.585 136.654 154.402 144.309C149.12 150.85 143.658 157.613 136.667 161.833C122.663 172.235 112.766 175.694 106.217 177.983C100.124 180.112 96.4463 181.397 94.4716 186.323C91.6161 192.443 93.1417 207.835 102.047 217.991C108.087 225.834 113.769 230.107 121.04 232.271L121.041 232.272C124.913 233.387 128.419 233.898 132.131 234.439C139.975 235.584 148.087 236.767 160.524 243.897C170.554 249.681 190.076 257.057 209.237 259.585C225.842 261.776 248.109 261.095 259.894 245.409C271.338 229.442 275.566 208.901 271.498 189.048C268.808 175.915 262.529 163.485 253.341 153.104C243.178 141.62 229.762 132.734 213.467 126.692C211.871 126.047 210.304 125.462 208.77 124.937ZM119.905 231.383C113.318 229.131 108.011 224.951 102.378 217.636C93.5914 207.615 92.0574 192.507 94.8579 186.504C96.7465 181.793 100.142 180.607 106.306 178.453C112.881 176.155 122.817 172.683 136.86 162.251C143.907 157.998 149.398 151.198 154.709 144.623C160.854 137.013 167.209 129.145 176.093 125.019C186.075 120.382 198.241 121.084 213.292 127.161C229.534 133.184 242.898 142.035 253.019 153.47C262.157 163.795 268.4 176.151 271.074 189.204C275.111 208.905 270.918 229.284 259.572 245.116C247.929 260.611 225.823 261.271 209.329 259.095C190.217 256.573 170.75 249.218 160.749 243.452C148.252 236.287 140.106 235.099 132.227 233.95C128.528 233.41 125.034 232.901 121.186 231.792C120.754 231.664 120.326 231.527 119.905 231.383Z" fill="url(#paint6_linear_45_584)"/>
</mask>
<g mask="url(#mask6_45_584)">
<path d="M208.771 124.937C195.757 120.486 184.989 120.372 175.963 124.564C166.978 128.738 160.585 136.654 154.402 144.309C149.12 150.85 143.658 157.613 136.668 161.833C122.663 172.235 112.766 175.694 106.217 177.983C100.124 180.112 96.4466 181.397 94.4718 186.323C91.6164 192.443 93.142 207.835 102.047 217.991C108.087 225.834 113.769 230.107 121.04 232.271L121.042 232.272C124.913 233.387 128.419 233.898 132.131 234.439C139.975 235.584 148.087 236.767 160.524 243.897C170.554 249.681 190.076 257.057 209.238 259.585C225.842 261.776 248.109 261.095 259.895 245.409C271.338 229.442 275.566 208.901 271.499 189.048C268.808 175.915 262.529 163.485 253.341 153.104C243.178 141.62 229.762 132.734 213.467 126.692C211.871 126.047 210.304 125.462 208.771 124.937ZM119.905 231.383C113.319 229.131 108.011 224.951 102.378 217.636C93.5917 207.615 92.0576 192.507 94.8582 186.504C96.7468 181.793 100.142 180.607 106.306 178.453C112.881 176.155 122.817 172.683 136.86 162.251C143.907 157.998 149.398 151.198 154.709 144.623C160.855 137.013 167.209 129.145 176.093 125.019C186.075 120.382 198.241 121.084 213.292 127.161C229.534 133.184 242.899 142.035 253.019 153.47C262.157 163.795 268.401 176.151 271.075 189.204C275.111 208.905 270.919 229.284 259.572 245.116C247.929 260.611 225.823 261.271 209.329 259.095C190.218 256.573 170.75 249.218 160.75 243.452C148.252 236.287 140.106 235.099 132.228 233.95C128.529 233.41 125.035 232.901 121.187 231.792C120.754 231.664 120.327 231.527 119.905 231.383Z" fill="#C0C0C0"/>
</g>
<mask id="mask7_45_584" style="mask-type:alpha" maskUnits="userSpaceOnUse" x="105" y="136" width="156" height="116">
<path d="M207.725 139.108C186.759 131.937 176.644 140.855 166 150.238C160.751 154.866 155.323 159.651 148.374 162.709C136.491 169.601 127.84 172.509 121.524 174.633C114.237 177.083 110.224 178.433 108.055 183.492C106.412 186.809 105.348 192.209 105.284 197.571C105.207 204.052 106.609 209.792 109.23 213.733C113.101 220.949 116.557 226.618 122.703 228.355L122.705 228.355C126.595 229.411 130.616 229.704 134.873 230.015C142.557 230.576 151.266 231.212 161.547 236.635C168.657 240.415 185.515 247.597 203.592 250.536C212.997 252.066 221.324 252.203 228.342 250.945C236.632 249.458 243.088 246.01 247.529 240.696C257.776 227.63 262.091 210.562 259.373 193.862C257.651 183.292 253.1 173.194 246.21 164.658C238.591 155.218 228.309 147.716 215.651 142.358C212.844 141.032 210.208 139.957 207.725 139.108ZM122.161 227.712C116.557 225.795 113.256 220.343 109.562 213.458C103.569 204.447 105.621 189.277 108.399 183.668C110.488 178.797 114.435 177.47 121.6 175.06C127.933 172.931 136.606 170.015 148.505 163.113C155.493 160.039 160.947 155.231 166.222 150.581C172.235 145.279 177.915 140.272 185.443 138.079C193.927 135.608 203.47 137.101 215.476 142.776C228.089 148.114 238.326 155.583 245.908 164.977C252.754 173.459 257.277 183.489 258.986 193.985C261.682 210.544 257.405 227.466 247.252 240.412C242.885 245.637 236.513 249.035 228.319 250.504C221.34 251.755 213.052 251.617 203.685 250.094C185.65 247.161 168.834 239.998 161.741 236.227C151.399 230.771 142.653 230.132 134.936 229.57C130.696 229.26 126.691 228.968 122.831 227.921C122.604 227.856 122.381 227.787 122.161 227.712Z" fill="url(#paint7_linear_45_584)"/>
</mask>
<g mask="url(#mask7_45_584)">
<path d="M207.725 139.108C186.759 131.937 176.644 140.855 166 150.238C160.751 154.866 155.323 159.651 148.374 162.709C136.491 169.601 127.84 172.509 121.524 174.633C114.237 177.083 110.224 178.433 108.055 183.492C106.412 186.809 105.348 192.209 105.284 197.571C105.207 204.052 106.609 209.792 109.23 213.733C113.101 220.949 116.557 226.618 122.703 228.355L122.705 228.355C126.595 229.411 130.616 229.704 134.873 230.015C142.557 230.576 151.266 231.212 161.547 236.635C168.657 240.415 185.515 247.597 203.592 250.536C212.997 252.066 221.324 252.203 228.342 250.945C236.632 249.458 243.088 246.01 247.529 240.696C257.776 227.63 262.091 210.562 259.373 193.862C257.651 183.292 253.1 173.194 246.21 164.658C238.591 155.218 228.309 147.716 215.651 142.358C212.844 141.032 210.208 139.957 207.725 139.108ZM122.161 227.712C116.557 225.795 113.256 220.343 109.562 213.458C103.569 204.447 105.621 189.277 108.399 183.668C110.488 178.797 114.435 177.47 121.6 175.06C127.933 172.931 136.606 170.015 148.505 163.113C155.493 160.039 160.947 155.231 166.222 150.581C172.235 145.279 177.915 140.272 185.443 138.079C193.927 135.608 203.47 137.101 215.476 142.776C228.089 148.114 238.326 155.583 245.908 164.977C252.754 173.459 257.277 183.489 258.986 193.985C261.682 210.544 257.405 227.466 247.252 240.412C242.885 245.637 236.513 249.035 228.319 250.504C221.34 251.755 213.052 251.617 203.685 250.094C185.65 247.161 168.834 239.998 161.741 236.227C151.399 230.771 142.653 230.132 134.936 229.57C130.696 229.26 126.691 228.968 122.831 227.921C122.604 227.856 122.381 227.787 122.161 227.712Z" fill="#C0C0C0"/>
</g>
<mask id="mask8_45_584" style="mask-type:alpha" maskUnits="userSpaceOnUse" x="115" y="150" width="133" height="94">
<path d="M206.512 152.633C193.849 148.302 185.977 152.208 176.539 156.889C171.612 159.332 166.517 161.859 160.08 163.589C151.311 167.084 144.429 169.129 138.899 170.773C129.411 173.593 124.184 175.146 121.638 180.662C118.473 186.702 113.514 201.845 116.407 209.447C116.539 210.01 116.667 210.576 116.796 211.141C118.139 217.053 119.531 223.166 124.366 224.439L124.368 224.439C128.145 225.387 132.707 225.403 137.537 225.419C145.353 225.446 154.21 225.476 162.57 229.373C171.606 233.626 217.57 253.935 235.16 235.984C244.304 225.817 248.776 212.181 247.435 198.568C246.635 190.445 243.849 182.894 239.154 176.125C234.038 168.748 226.865 162.658 217.836 158.027C213.638 155.543 209.902 153.793 206.512 152.633ZM124.046 223.919C119.736 222.445 118.416 216.633 117.137 211.007C117.007 210.436 116.878 209.864 116.745 209.297L116.737 209.271C113.882 201.8 118.802 186.821 121.941 180.829C124.41 175.482 129.577 173.947 138.956 171.159C144.492 169.513 151.383 167.465 160.148 163.971C166.599 162.238 171.709 159.704 176.652 157.252C188.529 151.362 197.91 146.709 217.658 158.389C226.65 163.002 233.783 169.057 238.87 176.39C243.528 183.107 246.292 190.596 247.085 198.65C248.413 212.135 243.984 225.642 234.933 235.706C227.925 242.858 215.511 244.673 198.042 241.094C182.665 237.943 168.226 231.588 162.731 229.001C154.312 225.079 145.419 225.047 137.573 225.02C132.762 225.003 128.217 224.988 124.475 224.048C124.329 224.01 124.186 223.966 124.046 223.919Z" fill="url(#paint8_linear_45_584)"/>
</mask>
<g mask="url(#mask8_45_584)">
<path d="M206.512 152.633C193.849 148.302 185.977 152.208 176.539 156.889C171.612 159.332 166.517 161.859 160.08 163.589C151.311 167.084 144.429 169.129 138.899 170.773C129.411 173.593 124.184 175.146 121.638 180.662C118.473 186.702 113.514 201.845 116.407 209.447C116.539 210.01 116.667 210.576 116.796 211.141C118.139 217.053 119.531 223.166 124.366 224.439L124.368 224.439C128.145 225.387 132.707 225.403 137.537 225.419C145.353 225.446 154.21 225.476 162.57 229.373C171.606 233.626 217.57 253.935 235.16 235.984C244.304 225.817 248.776 212.181 247.435 198.568C246.635 190.445 243.849 182.894 239.154 176.125C234.038 168.748 226.865 162.658 217.836 158.027C213.638 155.543 209.902 153.793 206.512 152.633ZM124.046 223.919C119.736 222.445 118.416 216.633 117.137 211.007C117.007 210.436 116.878 209.864 116.745 209.297L116.737 209.271C113.882 201.8 118.802 186.821 121.941 180.829C124.41 175.482 129.577 173.947 138.956 171.159C144.492 169.513 151.383 167.465 160.148 163.971C166.599 162.238 171.709 159.704 176.652 157.252C188.529 151.362 197.91 146.709 217.658 158.389C226.65 163.002 233.783 169.057 238.87 176.39C243.528 183.107 246.292 190.596 247.085 198.65C248.413 212.135 243.984 225.642 234.933 235.706C227.925 242.858 215.511 244.673 198.042 241.094C182.665 237.943 168.226 231.588 162.731 229.001C154.312 225.079 145.419 225.047 137.573 225.02C132.762 225.003 128.217 224.988 124.475 224.048C124.329 224.01 124.186 223.966 124.046 223.919Z" fill="#C0C0C0"/>
</g>
<mask id="mask9_45_584" style="mask-type:alpha" maskUnits="userSpaceOnUse" x="122" y="162" width="114" height="74">
<path d="M204.646 164.261C197.159 161.701 190.179 162.484 180.531 163.566C177.789 163.874 174.954 164.192 171.783 164.475C169.42 164.935 167.21 165.358 165.128 165.755C147.016 169.214 138.75 170.792 135.221 177.832C132.379 182.975 123.722 198.639 123.603 205.143C122.459 211.768 121.711 219.497 126.03 220.522L126.031 220.523C129.645 221.336 134.869 221.011 140.4 220.666C148.2 220.18 157.039 219.63 163.596 222.111C164.841 222.589 166.323 223.188 168.038 223.881C175.065 226.721 185.684 231.013 196.029 233.361C208.405 236.17 217.408 235.468 222.786 231.275C230.905 224.145 235.826 213.62 235.958 203.114C236.105 191.465 230.447 181.019 220.027 173.699C214.188 168.759 209.318 165.859 204.646 164.261ZM125.808 220.087C122.069 218.808 122.82 211.472 123.91 205.162L123.913 205.13C124.017 198.739 132.647 183.122 135.483 177.99C138.933 171.109 147.149 169.54 165.15 166.103C167.232 165.705 169.443 165.283 171.791 164.825C174.951 164.543 177.788 164.225 180.531 163.917C196.126 162.168 204.716 161.204 219.836 173.997C230.181 181.264 235.793 191.612 235.648 203.143C235.517 213.535 230.647 223.948 222.62 230.998C217.327 235.123 208.408 235.804 196.118 233.015C185.794 230.671 175.186 226.384 168.167 223.547C166.45 222.854 164.968 222.255 163.72 221.775C157.108 219.273 148.24 219.826 140.413 220.314C134.903 220.657 129.698 220.982 126.121 220.177C126.013 220.151 125.909 220.121 125.808 220.087Z" fill="url(#paint9_linear_45_584)"/>
</mask>
<g mask="url(#mask9_45_584)">
<path d="M204.646 164.261C197.159 161.701 190.179 162.484 180.531 163.566C177.789 163.874 174.954 164.192 171.783 164.475C169.42 164.935 167.21 165.358 165.128 165.755C147.016 169.214 138.75 170.792 135.221 177.832C132.379 182.975 123.722 198.639 123.603 205.143C122.459 211.768 121.711 219.497 126.03 220.522L126.031 220.523C129.645 221.336 134.869 221.011 140.4 220.666C148.2 220.18 157.039 219.63 163.596 222.111C164.841 222.589 166.323 223.188 168.038 223.881C175.065 226.721 185.684 231.013 196.029 233.361C208.405 236.17 217.408 235.468 222.786 231.275C230.905 224.145 235.826 213.62 235.958 203.114C236.105 191.465 230.447 181.019 220.027 173.699C214.188 168.759 209.318 165.859 204.646 164.261ZM125.808 220.087C122.069 218.808 122.82 211.472 123.91 205.162L123.913 205.13C124.017 198.739 132.647 183.122 135.483 177.99C138.933 171.109 147.149 169.54 165.15 166.103C167.232 165.705 169.443 165.283 171.791 164.825C174.951 164.543 177.788 164.225 180.531 163.917C196.126 162.168 204.716 161.204 219.836 173.997C230.181 181.264 235.793 191.612 235.648 203.143C235.517 213.535 230.647 223.948 222.62 230.998C217.327 235.123 208.408 235.804 196.118 233.015C185.794 230.671 175.186 226.384 168.167 223.547C166.45 222.854 164.968 222.255 163.72 221.775C157.108 219.273 148.24 219.826 140.413 220.314C134.903 220.657 129.698 220.982 126.121 220.177C126.013 220.151 125.909 220.121 125.808 220.087Z" fill="#C0C0C0"/>
</g>
<mask id="mask10_45_584" style="mask-type:alpha" maskUnits="userSpaceOnUse" x="126" y="165" width="101" height="63">
<path d="M198.37 168.418C194.015 166.929 189.078 165.92 183.48 165.367C163.272 164.665 152.904 167.547 148.804 175.004C146.833 178.394 142.315 184.643 138.33 190.156C135.174 194.522 132.193 198.645 130.834 200.844C129.482 202.648 128.105 205.344 127.16 208.045C126.126 211.004 125.772 213.463 126.162 214.97C126.403 215.9 126.919 216.45 127.694 216.606L127.695 216.607C131.173 217.272 137.381 216.493 143.954 215.669C151.765 214.689 159.841 213.676 164.625 214.849C167.224 215.498 171.132 217.122 175.656 219.002C186.886 223.67 202.267 230.063 210.402 226.567C217.958 222.671 223.867 215.44 225.833 207.693C227.485 201.184 226.239 194.855 222.229 189.389C218.067 181.972 213.536 176.786 207.977 173.083C205.142 171.194 201.953 169.644 198.37 168.418ZM127.546 216.246C126.989 216.056 126.611 215.59 126.421 214.857C125.624 211.784 128.295 204.677 131.04 201.016C132.401 198.814 135.379 194.696 138.531 190.336C142.521 184.816 147.044 178.56 149.027 175.15C153.063 167.808 163.354 164.974 183.438 165.672C193.596 166.675 201.575 169.187 207.825 173.351C213.35 177.032 217.857 182.19 222.006 189.584C225.97 194.989 227.201 201.227 225.575 207.636C223.633 215.289 217.787 222.436 210.32 226.286C202.29 229.738 186.962 223.366 175.77 218.714C171.237 216.83 167.323 215.203 164.707 214.55C159.881 213.367 151.783 214.383 143.951 215.365C137.397 216.187 131.206 216.964 127.765 216.305C127.689 216.29 127.616 216.27 127.546 216.246Z" fill="url(#paint10_linear_45_584)"/>
</mask>
<g mask="url(#mask10_45_584)">
<path d="M198.37 168.418C194.015 166.929 189.078 165.92 183.48 165.367C163.272 164.665 152.904 167.547 148.804 175.004C146.833 178.394 142.315 184.643 138.33 190.156C135.174 194.522 132.193 198.645 130.834 200.844C129.481 202.648 128.104 205.344 127.16 208.045C126.126 211.004 125.771 213.463 126.162 214.97C126.403 215.9 126.919 216.45 127.694 216.606L127.695 216.607C131.172 217.272 137.381 216.493 143.954 215.669C151.764 214.689 159.841 213.676 164.625 214.849C167.224 215.498 171.131 217.122 175.656 219.002C186.885 223.67 202.267 230.063 210.402 226.567C217.957 222.671 223.867 215.44 225.833 207.693C227.485 201.184 226.238 194.855 222.228 189.389C218.067 181.972 213.536 176.786 207.977 173.083C205.142 171.194 201.953 169.644 198.37 168.418ZM127.546 216.246C126.989 216.056 126.611 215.59 126.421 214.857C125.624 211.784 128.295 204.677 131.04 201.016C132.401 198.814 135.378 194.696 138.531 190.336C142.521 184.816 147.044 178.56 149.026 175.15C153.063 167.808 163.354 164.974 183.438 165.672C193.596 166.675 201.575 169.187 207.824 173.351C213.35 177.032 217.856 182.19 222.006 189.584C225.97 194.989 227.201 201.227 225.575 207.636C223.632 215.289 217.787 222.436 210.32 226.286C202.29 229.738 186.962 223.366 175.769 218.714C171.237 216.83 167.323 215.203 164.706 214.55C159.881 213.367 151.783 214.383 143.951 215.365C137.397 216.187 131.206 216.964 127.765 216.305C127.689 216.29 127.616 216.27 127.546 216.246Z" fill="#C0C0C0"/>
</g>
<mask id="mask11_45_584" style="mask-type:alpha" maskUnits="userSpaceOnUse" x="128" y="163" width="97" height="59">
<path d="M196.817 166.786C196.272 166.6 195.722 166.425 195.168 166.261C186.156 163.59 178.615 163.05 172.753 164.654C168.152 165.914 164.663 168.445 162.386 172.176C158.657 178.284 144.118 192.887 138.078 196.59C135.827 197.969 133.362 200.685 131.316 204.039C129.464 207.075 128.353 210.019 128.485 211.541C128.543 212.218 128.846 212.615 129.357 212.689C132.937 213.211 141.65 211.555 150.076 209.954C156.609 208.713 162.781 207.54 165.659 207.584C168.924 207.634 174.681 210.827 180.776 214.208C187.055 217.691 193.548 221.293 197.998 221.844C202.654 222.42 208.644 221.077 213.63 218.34C219.458 215.141 223.288 210.457 224.416 205.153C225.735 198.945 223.538 190.835 218.537 183.458C213.248 175.655 205.583 169.784 196.817 166.786ZM129.253 212.396C128.932 212.286 128.754 211.988 128.711 211.491C128.456 208.542 133.219 199.849 138.17 196.814C144.232 193.099 158.826 178.44 162.569 172.308C164.809 168.639 168.246 166.148 172.786 164.905C178.609 163.311 186.114 163.851 195.091 166.511C204.497 169.298 212.76 175.378 218.352 183.628C223.24 190.84 225.479 199.073 224.195 205.116C223.086 210.335 219.305 214.949 213.548 218.109C208.601 220.825 202.66 222.158 198.045 221.587C193.631 221.04 187.155 217.448 180.892 213.974C174.775 210.581 168.998 207.376 165.684 207.326C162.786 207.282 156.604 208.456 150.06 209.7C141.65 211.297 132.955 212.95 129.408 212.433C129.353 212.425 129.301 212.413 129.253 212.396Z" fill="url(#paint11_linear_45_584)"/>
</mask>
<g mask="url(#mask11_45_584)">
<path d="M196.818 166.787C196.272 166.6 195.723 166.425 195.169 166.261C186.157 163.59 178.615 163.05 172.754 164.654C168.152 165.914 164.664 168.445 162.387 172.176C158.658 178.285 144.118 192.887 138.078 196.59C135.827 197.97 133.363 200.685 131.316 204.04C129.465 207.075 128.354 210.019 128.485 211.541C128.544 212.218 128.847 212.615 129.358 212.69C132.937 213.211 141.65 211.556 150.076 209.955C156.61 208.713 162.781 207.54 165.66 207.584C168.924 207.634 174.682 210.828 180.777 214.209C187.055 217.691 193.549 221.293 197.999 221.844C202.655 222.42 208.644 221.077 213.631 218.34C219.459 215.141 223.289 210.458 224.416 205.153C225.736 198.945 223.538 190.835 218.538 183.458C213.249 175.655 205.583 169.785 196.818 166.787ZM129.253 212.396C128.932 212.286 128.755 211.989 128.712 211.491C128.457 208.542 133.219 199.85 138.17 196.815C144.233 193.099 158.826 178.441 162.569 172.308C164.809 168.639 168.247 166.148 172.786 164.906C178.61 163.311 186.115 163.851 195.092 166.512C204.498 169.298 212.761 175.378 218.353 183.628C223.241 190.84 225.48 199.074 224.195 205.116C223.086 210.335 219.305 214.95 213.549 218.109C208.601 220.825 202.66 222.158 198.045 221.587C193.632 221.04 187.155 217.448 180.892 213.974C174.776 210.581 168.999 207.376 165.685 207.326C162.786 207.282 156.605 208.456 150.061 209.7C141.651 211.298 132.955 212.95 129.409 212.433C129.354 212.425 129.302 212.413 129.253 212.396Z" fill="#C0C0C0"/>
</g>
</g>
<defs>
<linearGradient id="paint0_linear_45_584" x1="42.8482" y1="115.901" x2="354.202" y2="222.379" gradientUnits="userSpaceOnUse">
<stop stop-color="white"/>
<stop offset="0.0436152" stop-color="#B4B4B4"/>
<stop offset="0.150732"/>
<stop offset="0.171421" stop-color="#171717"/>
<stop offset="0.385884" stop-color="white"/>
<stop offset="0.632551" stop-color="#E6E6E6"/>
<stop offset="0.856667" stop-color="#1A1A1A"/>
<stop offset="0.998739"/>
</linearGradient>
<linearGradient id="paint1_linear_45_584" x1="53.0628" y1="122.949" x2="340.616" y2="221.287" gradientUnits="userSpaceOnUse">
<stop stop-color="white"/>
<stop offset="0.0436152" stop-color="#B4B4B4"/>
<stop offset="0.150732"/>
<stop offset="0.171421" stop-color="#171717"/>
<stop offset="0.385884" stop-color="white"/>
<stop offset="0.632551" stop-color="#E6E6E6"/>
<stop offset="0.856667" stop-color="#1A1A1A"/>
<stop offset="0.998739"/>
</linearGradient>
<linearGradient id="paint2_linear_45_584" x1="63.2762" y1="129.984" x2="327.045" y2="220.188" gradientUnits="userSpaceOnUse">
<stop stop-color="white"/>
<stop offset="0.0436152" stop-color="#B4B4B4"/>
<stop offset="0.150732"/>
<stop offset="0.171421" stop-color="#171717"/>
<stop offset="0.385884" stop-color="white"/>
<stop offset="0.632551" stop-color="#E6E6E6"/>
<stop offset="0.856667" stop-color="#1A1A1A"/>
<stop offset="0.998739"/>
</linearGradient>
<linearGradient id="paint3_linear_45_584" x1="73.4906" y1="137.004" x2="313.5" y2="219.083" gradientUnits="userSpaceOnUse">
<stop stop-color="white"/>
<stop offset="0.0436152" stop-color="#B4B4B4"/>
<stop offset="0.150732"/>
<stop offset="0.171421" stop-color="#171717"/>
<stop offset="0.385884" stop-color="white"/>
<stop offset="0.632551" stop-color="#E6E6E6"/>
<stop offset="0.856667" stop-color="#1A1A1A"/>
<stop offset="0.998739"/>
</linearGradient>
<linearGradient id="paint4_linear_45_584" x1="83.6999" y1="144.015" x2="299.985" y2="217.981" gradientUnits="userSpaceOnUse">
<stop stop-color="white"/>
<stop offset="0.0436152" stop-color="#B4B4B4"/>
<stop offset="0.150732"/>
<stop offset="0.171421" stop-color="#171717"/>
<stop offset="0.385884" stop-color="white"/>
<stop offset="0.632551" stop-color="#E6E6E6"/>
<stop offset="0.856667" stop-color="#1A1A1A"/>
<stop offset="0.998739"/>
</linearGradient>
<linearGradient id="paint5_linear_45_584" x1="93.9192" y1="150.973" x2="286.506" y2="216.835" gradientUnits="userSpaceOnUse">
<stop stop-color="white"/>
<stop offset="0.0436152" stop-color="#B4B4B4"/>
<stop offset="0.150732"/>
<stop offset="0.171421" stop-color="#171717"/>
<stop offset="0.385884" stop-color="white"/>
<stop offset="0.632551" stop-color="#E6E6E6"/>
<stop offset="0.856667" stop-color="#1A1A1A"/>
<stop offset="0.998739"/>
</linearGradient>
<linearGradient id="paint6_linear_45_584" x1="104.153" y1="157.843" x2="273.161" y2="215.641" gradientUnits="userSpaceOnUse">
<stop stop-color="white"/>
<stop offset="0.0436152" stop-color="#B4B4B4"/>
<stop offset="0.150732"/>
<stop offset="0.171421" stop-color="#171717"/>
<stop offset="0.385884" stop-color="white"/>
<stop offset="0.632551" stop-color="#E6E6E6"/>
<stop offset="0.856667" stop-color="#1A1A1A"/>
<stop offset="0.998739"/>
</linearGradient>
<linearGradient id="paint7_linear_45_584" x1="113.827" y1="166.168" x2="259.442" y2="215.966" gradientUnits="userSpaceOnUse">
<stop stop-color="white"/>
<stop offset="0.0436152" stop-color="#B4B4B4"/>
<stop offset="0.150732"/>
<stop offset="0.171421" stop-color="#171717"/>
<stop offset="0.385884" stop-color="white"/>
<stop offset="0.632551" stop-color="#E6E6E6"/>
<stop offset="0.856667" stop-color="#1A1A1A"/>
<stop offset="0.998739"/>
</linearGradient>
<linearGradient id="paint8_linear_45_584" x1="123.339" y1="174.147" x2="246.071" y2="216.12" gradientUnits="userSpaceOnUse">
<stop stop-color="white"/>
<stop offset="0.0436152" stop-color="#B4B4B4"/>
<stop offset="0.150732"/>
<stop offset="0.171421" stop-color="#171717"/>
<stop offset="0.385884" stop-color="white"/>
<stop offset="0.632551" stop-color="#E6E6E6"/>
<stop offset="0.856667" stop-color="#1A1A1A"/>
<stop offset="0.998739"/>
</linearGradient>
<linearGradient id="paint9_linear_45_584" x1="131.258" y1="180.746" x2="233.544" y2="215.726" gradientUnits="userSpaceOnUse">
<stop stop-color="white"/>
<stop offset="0.0436152" stop-color="#B4B4B4"/>
<stop offset="0.150732"/>
<stop offset="0.171421" stop-color="#171717"/>
<stop offset="0.385884" stop-color="white"/>
<stop offset="0.632551" stop-color="#E6E6E6"/>
<stop offset="0.856667" stop-color="#1A1A1A"/>
<stop offset="0.998739"/>
</linearGradient>
<linearGradient id="paint10_linear_45_584" x1="135.669" y1="183.164" x2="223.979" y2="213.364" gradientUnits="userSpaceOnUse">
<stop stop-color="white"/>
<stop offset="0.0436152" stop-color="#B4B4B4"/>
<stop offset="0.150732"/>
<stop offset="0.171421" stop-color="#171717"/>
<stop offset="0.385884" stop-color="white"/>
<stop offset="0.632551" stop-color="#E6E6E6"/>
<stop offset="0.856667" stop-color="#1A1A1A"/>
<stop offset="0.998739"/>
</linearGradient>
<linearGradient id="paint11_linear_45_584" x1="138.399" y1="181.305" x2="222.82" y2="210.175" gradientUnits="userSpaceOnUse">
<stop stop-color="white"/>
<stop offset="0.0436152" stop-color="#B4B4B4"/>
<stop offset="0.150732"/>
<stop offset="0.171421" stop-color="#171717"/>
<stop offset="0.385884" stop-color="white"/>
<stop offset="0.632551" stop-color="#E6E6E6"/>
<stop offset="0.856667" stop-color="#1A1A1A"/>
<stop offset="0.998739"/>
</linearGradient>
</defs>
</svg>
