<svg width="159" height="210" viewBox="0 0 159 210" fill="none" xmlns="http://www.w3.org/2000/svg">
<g opacity="0.35">
<mask id="mask0_44_387" style="mask-type:alpha" maskUnits="userSpaceOnUse" x="13" y="-106" width="337" height="284">
<path d="M217.78 -95.6931C211.656 -97.7872 205.382 -99.6708 198.969 -101.339C162.893 -110.722 135.848 -105.374 116.288 -84.9893C99.3393 -67.3259 90.569 -41.1403 82.8311 -18.037C77.6663 -2.61578 72.7877 11.9502 66.2122 21.4921C44.3231 53.2572 30.7622 57.3621 22.6599 59.8147C17.9683 61.2349 14.869 62.1731 13.2154 67.7697C11.5951 73.2542 26.0649 85.9036 58.7526 107.578C72.8896 116.952 86.1505 117.554 96.8059 118.038C102.144 118.28 106.761 118.49 110.439 119.763L110.566 119.394L110.439 119.763C120.569 123.262 122.894 125.51 127.988 130.437C132.236 134.545 138.656 140.753 153.387 151.188C166.333 160.358 188.512 168.934 211.272 173.569C224.222 176.206 236.917 177.538 249.006 177.528C262.538 177.516 274.998 175.804 286.042 172.44C306.499 166.207 321.787 154.464 331.482 137.537C341.033 120.861 346.835 102.445 348.729 82.8005C350.609 63.2877 348.54 43.5584 342.579 24.1608C333.901 -4.0748 317.17 -30.1686 294.194 -51.2993C281.945 -62.5641 267.906 -72.4565 252.466 -80.702C241.617 -86.4957 230.004 -91.5124 217.78 -95.6931ZM72.4793 113.504C68.1598 112.027 63.6918 109.925 59.1355 106.904C44.2691 97.0468 33.3772 89.1981 25.8369 82.9094C14.9605 73.8385 13.318 69.7663 13.8552 67.9477C15.3776 62.7947 18.0043 61.9997 22.7726 60.5563C30.9664 58.0759 44.6804 53.9247 66.7298 21.9275C73.3769 12.2811 78.2752 -2.34397 83.4612 -17.8277C91.1689 -40.841 99.9051 -66.925 116.718 -84.447C136.084 -104.63 162.92 -109.91 198.757 -100.589C217.929 -95.6023 235.886 -88.6751 252.13 -80.0005C267.527 -71.778 281.525 -61.9143 293.737 -50.6835C316.629 -29.6306 333.296 -3.64079 341.937 24.4761C347.867 43.7712 349.925 63.3917 348.056 82.7922C346.175 102.307 340.412 120.601 330.925 137.164C321.338 153.903 306.198 165.522 285.928 171.698C274.944 175.045 262.544 176.747 249.072 176.759C237.023 176.77 224.366 175.442 211.454 172.812C188.768 168.192 166.67 159.651 153.785 150.524C139.091 140.115 132.691 133.926 128.455 129.831C123.297 124.843 120.942 122.566 110.693 119.026C110.676 119.02 110.658 119.013 110.641 119.007C106.886 117.723 102.257 117.513 96.8993 117.27C89.7579 116.946 81.4379 116.568 72.4793 113.504Z" fill="url(#paint0_linear_44_387)"/>
</mask>
<g mask="url(#mask0_44_387)">
<path d="M217.78 -95.6931C211.656 -97.7872 205.382 -99.6708 198.969 -101.339C162.893 -110.722 135.848 -105.374 116.288 -84.9893C99.3393 -67.3259 90.569 -41.1403 82.8311 -18.037C77.6663 -2.61578 72.7877 11.9502 66.2122 21.4921C44.3231 53.2572 30.7622 57.3621 22.6599 59.8147C17.9683 61.2349 14.869 62.1731 13.2154 67.7697C11.5951 73.2542 26.0649 85.9036 58.7526 107.578C72.8896 116.952 86.1505 117.554 96.8059 118.038C102.144 118.28 106.761 118.49 110.439 119.763L110.566 119.394L110.439 119.763C120.569 123.262 122.894 125.51 127.988 130.437C132.236 134.545 138.656 140.753 153.387 151.188C166.333 160.358 188.512 168.934 211.272 173.569C224.222 176.206 236.917 177.538 249.006 177.528C262.538 177.516 274.998 175.804 286.042 172.44C306.499 166.207 321.787 154.464 331.482 137.537C341.033 120.861 346.835 102.445 348.729 82.8005C350.609 63.2877 348.54 43.5584 342.579 24.1608C333.901 -4.0748 317.17 -30.1686 294.194 -51.2993C281.945 -62.5641 267.906 -72.4565 252.466 -80.702C241.617 -86.4957 230.004 -91.5124 217.78 -95.6931ZM72.4793 113.504C68.1598 112.027 63.6918 109.925 59.1355 106.904C44.2691 97.0468 33.3772 89.1981 25.8369 82.9094C14.9605 73.8385 13.318 69.7663 13.8552 67.9477C15.3776 62.7947 18.0043 61.9997 22.7726 60.5563C30.9664 58.0759 44.6804 53.9247 66.7298 21.9275C73.3769 12.2811 78.2752 -2.34397 83.4612 -17.8277C91.1689 -40.841 99.9051 -66.925 116.718 -84.447C136.084 -104.63 162.92 -109.91 198.757 -100.589C217.929 -95.6023 235.886 -88.6751 252.13 -80.0005C267.527 -71.778 281.525 -61.9143 293.737 -50.6835C316.629 -29.6306 333.296 -3.64079 341.937 24.4761C347.867 43.7712 349.925 63.3917 348.056 82.7922C346.175 102.307 340.412 120.601 330.925 137.164C321.338 153.903 306.198 165.522 285.928 171.698C274.944 175.045 262.544 176.747 249.072 176.759C237.023 176.77 224.366 175.442 211.454 172.812C188.768 168.192 166.67 159.651 153.785 150.524C139.091 140.115 132.691 133.926 128.455 129.831C123.297 124.843 120.942 122.566 110.693 119.026C110.676 119.02 110.658 119.013 110.641 119.007C106.886 117.723 102.257 117.513 96.8993 117.27C89.7579 116.946 81.4379 116.568 72.4793 113.504Z" fill="#C0C0C0"/>
</g>
<mask id="mask1_44_387" style="mask-type:alpha" maskUnits="userSpaceOnUse" x="26" y="-91" width="311" height="260">
<path d="M216.304 -81.1865C211.352 -82.8798 206.292 -84.4228 201.131 -85.8118C168.667 -94.6347 144.134 -90.3727 126.131 -72.7828C110.492 -57.5019 102.02 -34.3969 94.5454 -14.0116C89.3387 0.188192 84.4209 13.6003 77.8117 22.3511C57.0642 50.5109 43.9942 54.6247 36.1852 57.0826C31.4657 58.5681 28.3476 59.5493 26.6796 64.9629C25.6939 68.0061 29.0749 73.2321 36.7298 80.4898C43.6165 87.019 53.6966 94.931 65.8805 103.371C78.5774 112.251 90.5175 113.239 100.112 114.032C104.75 114.416 108.755 114.747 112.088 115.882L112.089 115.882C122.664 119.459 124.947 121.336 131.724 126.89C136.277 130.621 142.513 135.731 154.401 143.989C166.577 152.452 187.279 160.423 208.43 164.791C220.526 167.29 232.358 168.576 243.595 168.615C256.203 168.659 267.787 167.114 278.025 164.024C296.496 158.449 310.359 147.965 319.23 132.862C328.121 117.652 333.593 100.825 335.494 82.8474C337.384 64.9835 335.653 46.9067 330.349 29.1194C322.686 3.41754 307.718 -20.3861 287.062 -39.7179C276.049 -50.0253 263.4 -59.1017 249.469 -66.6946C239.14 -72.324 228.031 -77.1758 216.304 -81.1865ZM79.8861 109.703C75.4945 108.202 70.9229 106.013 66.2503 102.745C40.4798 84.8938 25.5462 70.4869 27.2761 65.1454C28.8213 60.1302 31.6353 59.2446 36.2975 57.7771C44.1863 55.2942 57.3897 51.1384 78.2797 22.785C84.961 13.9388 89.9 0.468713 95.1292 -13.7921C102.573 -34.0932 111.01 -57.1031 126.518 -72.2556C144.339 -89.6683 168.679 -93.8726 200.928 -85.1082C218.272 -80.4403 234.496 -74.0238 249.149 -66.0378C263.04 -58.4668 275.65 -49.418 286.629 -39.1426C307.206 -19.8849 322.115 3.82 329.745 29.4098C335.019 47.1 336.741 65.0737 334.863 82.832C332.975 100.688 327.541 117.401 318.711 132.505C309.943 147.434 296.218 157.805 277.92 163.327C264.396 167.409 241.392 170.853 208.602 164.08C187.518 159.725 166.891 151.787 154.771 143.363C142.901 135.118 136.675 130.016 132.128 126.29C125.479 120.842 122.984 118.804 112.325 115.188C108.929 114.033 104.893 113.699 100.22 113.312C94.2298 112.817 87.3172 112.245 79.8861 109.703Z" fill="url(#paint1_linear_44_387)"/>
</mask>
<g mask="url(#mask1_44_387)">
<path d="M216.304 -81.1865C211.352 -82.8798 206.292 -84.4228 201.131 -85.8118C168.667 -94.6347 144.134 -90.3727 126.131 -72.7828C110.492 -57.5019 102.02 -34.3969 94.5454 -14.0116C89.3387 0.188192 84.4209 13.6003 77.8117 22.3511C57.0642 50.5109 43.9942 54.6247 36.1852 57.0826C31.4657 58.5681 28.3476 59.5493 26.6796 64.9629C25.6939 68.0061 29.0749 73.2321 36.7298 80.4898C43.6165 87.019 53.6966 94.931 65.8805 103.371C78.5774 112.251 90.5175 113.239 100.112 114.032C104.75 114.416 108.755 114.747 112.088 115.882L112.089 115.882C122.664 119.459 124.947 121.336 131.724 126.89C136.277 130.621 142.513 135.731 154.401 143.989C166.577 152.452 187.279 160.423 208.43 164.791C220.526 167.29 232.358 168.576 243.595 168.615C256.203 168.659 267.787 167.114 278.025 164.024C296.496 158.449 310.359 147.965 319.23 132.862C328.121 117.652 333.593 100.825 335.494 82.8474C337.384 64.9835 335.653 46.9067 330.349 29.1194C322.686 3.41754 307.718 -20.3861 287.062 -39.7179C276.049 -50.0253 263.4 -59.1017 249.469 -66.6946C239.14 -72.324 228.031 -77.1758 216.304 -81.1865ZM79.8861 109.703C75.4945 108.202 70.9229 106.013 66.2503 102.745C40.4798 84.8938 25.5462 70.4869 27.2761 65.1454C28.8213 60.1302 31.6353 59.2446 36.2975 57.7771C44.1863 55.2942 57.3897 51.1384 78.2797 22.785C84.961 13.9388 89.9 0.468713 95.1292 -13.7921C102.573 -34.0932 111.01 -57.1031 126.518 -72.2556C144.339 -89.6683 168.679 -93.8726 200.928 -85.1082C218.272 -80.4403 234.496 -74.0238 249.149 -66.0378C263.04 -58.4668 275.65 -49.418 286.629 -39.1426C307.206 -19.8849 322.115 3.82 329.745 29.4098C335.019 47.1 336.741 65.0737 334.863 82.832C332.975 100.688 327.541 117.401 318.711 132.505C309.943 147.434 296.218 157.805 277.92 163.327C264.396 167.409 241.392 170.853 208.602 164.08C187.518 159.725 166.891 151.787 154.771 143.363C142.901 135.118 136.675 130.016 132.128 126.29C125.479 120.842 122.984 118.804 112.325 115.188C108.929 114.033 104.893 113.699 100.22 113.312C94.2298 112.817 87.3172 112.245 79.8861 109.703Z" fill="#C0C0C0"/>
</g>
<mask id="mask2_44_387" style="mask-type:alpha" maskUnits="userSpaceOnUse" x="39" y="-75" width="285" height="235">
<path d="M215.001 -66.6495C211.179 -67.9569 207.278 -69.1678 203.292 -70.2848C174.414 -78.5476 152.387 -75.3489 135.954 -60.5058C121.635 -47.5716 113.48 -27.5281 106.286 -9.84387C101.03 3.07541 96.0658 15.278 89.4102 23.2097C69.8439 47.7718 57.2765 51.8724 49.7678 54.3223C44.989 55.8817 41.832 56.9118 40.142 62.1554C37.6429 69.2496 55.4252 86.3138 73.006 99.1624C84.3189 107.61 94.9865 108.983 103.559 110.086C107.446 110.587 110.803 111.019 113.736 111.999L113.736 112C125.776 115.988 127.752 117.394 138.731 125.183C142.865 128.117 148.01 131.767 155.412 136.79C162.979 141.931 174.136 147.001 186.829 151.063C201.112 155.636 216.085 158.525 230.127 159.419C246.746 160.478 261.496 158.767 273.966 154.335C288.494 149.172 299.6 140.375 306.976 128.188C315.21 114.442 320.354 99.2018 322.265 82.8895C324.165 66.672 322.773 50.2453 318.127 34.0659C311.475 10.8985 298.267 -10.6134 279.93 -28.1445C262.287 -45.0118 240.484 -57.9343 215.001 -66.6495ZM87.4961 106.077C82.9807 104.533 78.2305 102.22 73.3639 98.5854C52.4255 83.2832 38.6873 68.0408 40.6952 62.341C42.2707 57.4529 45.1344 56.5184 49.8787 54.9704C57.4556 52.498 70.1369 48.3603 89.8272 23.6422C96.5549 15.6248 101.542 3.36614 106.822 -9.61232C113.985 -27.2188 122.103 -47.1743 136.295 -59.9934C152.559 -74.6843 174.41 -77.836 203.095 -69.6284C233.583 -61.0851 259.293 -46.9486 279.521 -27.6103C297.785 -10.1497 310.938 11.2694 317.56 34.3308C322.179 50.4187 323.564 66.7481 321.675 82.8663C319.778 99.0656 314.67 114.199 306.495 127.845C299.209 139.885 288.222 148.581 273.841 153.692C261.442 158.099 246.765 159.799 230.218 158.745C216.217 157.853 201.286 154.972 187.042 150.412C174.393 146.361 163.282 141.316 155.754 136.201C148.356 131.181 143.213 127.532 139.081 124.601C128.05 116.774 126.063 115.366 113.954 111.35C110.975 110.354 107.596 109.919 103.683 109.415C98.8652 108.795 93.3801 108.089 87.4961 106.077Z" fill="url(#paint2_linear_44_387)"/>
</mask>
<g mask="url(#mask2_44_387)">
<path d="M215.001 -66.6495C211.179 -67.9569 207.278 -69.1678 203.292 -70.2848C174.414 -78.5476 152.387 -75.3489 135.954 -60.5058C121.635 -47.5716 113.48 -27.5281 106.286 -9.84387C101.03 3.07541 96.0658 15.278 89.4102 23.2097C69.8439 47.7718 57.2765 51.8724 49.7678 54.3223C44.989 55.8817 41.832 56.9118 40.142 62.1554C37.6429 69.2496 55.4252 86.3138 73.006 99.1624C84.3189 107.61 94.9865 108.983 103.559 110.086C107.446 110.587 110.803 111.019 113.736 111.999L113.736 112C125.776 115.988 127.752 117.394 138.731 125.183C142.865 128.117 148.01 131.767 155.412 136.79C162.979 141.931 174.136 147.001 186.829 151.063C201.112 155.636 216.085 158.525 230.127 159.419C246.746 160.478 261.496 158.767 273.966 154.335C288.494 149.172 299.6 140.375 306.976 128.188C315.21 114.442 320.354 99.2018 322.265 82.8895C324.165 66.672 322.773 50.2453 318.127 34.0659C311.475 10.8985 298.267 -10.6134 279.93 -28.1445C262.287 -45.0118 240.484 -57.9343 215.001 -66.6495ZM87.4961 106.077C82.9807 104.533 78.2305 102.22 73.3639 98.5854C52.4255 83.2832 38.6873 68.0408 40.6952 62.341C42.2707 57.4529 45.1344 56.5184 49.8787 54.9704C57.4556 52.498 70.1369 48.3603 89.8272 23.6422C96.5549 15.6248 101.542 3.36614 106.822 -9.61232C113.985 -27.2188 122.103 -47.1743 136.295 -59.9934C152.559 -74.6843 174.41 -77.836 203.095 -69.6284C233.583 -61.0851 259.293 -46.9486 279.521 -27.6103C297.785 -10.1497 310.938 11.2694 317.56 34.3308C322.179 50.4187 323.564 66.7481 321.675 82.8663C319.778 99.0656 314.67 114.199 306.495 127.845C299.209 139.885 288.222 148.581 273.841 153.692C261.442 158.099 246.765 159.799 230.218 158.745C216.217 157.853 201.286 154.972 187.042 150.412C174.393 146.361 163.282 141.316 155.754 136.201C148.356 131.181 143.213 127.532 139.081 124.601C128.05 116.774 126.063 115.366 113.954 111.35C110.975 110.354 107.596 109.919 103.683 109.415C98.8652 108.795 93.3801 108.089 87.4961 106.077Z" fill="#C0C0C0"/>
</g>
<mask id="mask3_44_387" style="mask-type:alpha" maskUnits="userSpaceOnUse" x="53" y="-60" width="257" height="211">
<path d="M213.496 -52.203C210.86 -53.1047 208.18 -53.956 205.455 -54.7578C180.129 -62.4608 160.599 -60.2967 145.751 -48.141C132.764 -37.5094 125.288 -21.234 118.057 -5.4946C112.745 6.06922 107.727 16.9917 101.011 24.0693C82.6824 45.0431 71.1012 48.9437 63.4376 51.5247C58.3808 53.2279 55.3287 54.256 53.606 59.3488C51.1616 65.768 62.8114 81.4134 80.1326 94.9538C90.1621 103.088 99.651 104.85 107.276 106.266C110.192 106.808 112.947 107.32 115.385 108.118L115.386 108.118L116.621 108.517C130.835 113.102 131.995 113.477 156.426 129.592C163.287 134.127 173.734 138.834 185.082 142.512C198.135 146.739 211.777 149.485 224.533 150.451C239.69 151.6 253.141 150.258 264.512 146.465C277.776 142.039 287.941 134.318 294.723 123.514C302.304 111.232 307.122 97.5773 309.045 82.927C310.959 68.3529 309.907 53.573 305.92 38.998C300.275 18.3663 288.823 -0.852379 272.802 -16.5799C256.868 -32.2224 236.946 -44.1834 213.496 -52.203ZM95.4725 102.754C90.7436 101.137 85.6826 98.6469 80.4796 94.4273C63.6302 81.2557 51.8051 65.6046 54.116 59.5355C55.732 54.7581 58.6731 53.7676 63.5457 52.1264C70.8002 49.683 82.942 45.5936 101.375 24.4998C108.162 17.3475 113.204 6.3716 118.543 -5.24871C125.739 -20.9138 133.181 -37.1121 146.044 -47.6432C160.738 -59.6722 180.109 -61.8 205.265 -54.1485C232.155 -46.2376 254.748 -33.4327 272.417 -16.0872C288.37 -0.426167 299.772 18.7045 305.389 39.2373C309.353 53.7259 310.399 68.4144 308.498 82.8953C306.588 97.4404 301.805 110.996 294.282 123.186C287.585 133.852 277.533 141.483 264.405 145.863C253.099 149.635 239.715 150.967 224.624 149.824C211.905 148.86 198.3 146.122 185.281 141.905C173.97 138.243 163.566 133.553 156.738 129.04C132.254 112.89 131.088 112.513 116.82 107.911L115.585 107.512C113.119 106.704 110.349 106.19 107.417 105.645C103.808 104.975 99.7779 104.227 95.4725 102.754Z" fill="url(#paint3_linear_44_387)"/>
</mask>
<g mask="url(#mask3_44_387)">
<path d="M213.496 -52.203C210.86 -53.1047 208.18 -53.956 205.455 -54.7578C180.129 -62.4608 160.599 -60.2967 145.751 -48.141C132.764 -37.5094 125.288 -21.234 118.057 -5.4946C112.745 6.06922 107.727 16.9917 101.011 24.0693C82.6824 45.0431 71.1012 48.9437 63.4376 51.5247C58.3808 53.2279 55.3287 54.256 53.606 59.3488C51.1616 65.768 62.8114 81.4134 80.1326 94.9538C90.1621 103.088 99.651 104.85 107.276 106.266C110.192 106.808 112.947 107.32 115.385 108.118L115.386 108.118L116.621 108.517C130.835 113.102 131.995 113.477 156.426 129.592C163.287 134.127 173.734 138.834 185.082 142.512C198.135 146.739 211.777 149.485 224.533 150.451C239.69 151.6 253.141 150.258 264.512 146.465C277.776 142.039 287.941 134.318 294.723 123.514C302.304 111.232 307.122 97.5773 309.045 82.927C310.959 68.3529 309.907 53.573 305.92 38.998C300.275 18.3663 288.823 -0.852379 272.802 -16.5799C256.868 -32.2224 236.946 -44.1834 213.496 -52.203ZM95.4725 102.754C90.7436 101.137 85.6826 98.6469 80.4796 94.4273C63.6302 81.2557 51.8051 65.6046 54.116 59.5355C55.732 54.7581 58.6731 53.7676 63.5457 52.1264C70.8002 49.683 82.942 45.5936 101.375 24.4998C108.162 17.3475 113.204 6.3716 118.543 -5.24871C125.739 -20.9138 133.181 -37.1121 146.044 -47.6432C160.738 -59.6722 180.109 -61.8 205.265 -54.1485C232.155 -46.2376 254.748 -33.4327 272.417 -16.0872C288.37 -0.426167 299.772 18.7045 305.389 39.2373C309.353 53.7259 310.399 68.4144 308.498 82.8953C306.588 97.4404 301.805 110.996 294.282 123.186C287.585 133.852 277.533 141.483 264.405 145.863C253.099 149.635 239.715 150.967 224.624 149.824C211.905 148.86 198.3 146.122 185.281 141.905C173.97 138.243 163.566 133.553 156.738 129.04C132.254 112.89 131.088 112.513 116.82 107.911L115.585 107.512C113.119 106.704 110.349 106.19 107.417 105.645C103.808 104.975 99.7779 104.227 95.4725 102.754Z" fill="#C0C0C0"/>
</g>
<mask id="mask4_44_387" style="mask-type:alpha" maskUnits="userSpaceOnUse" x="66" y="-44" width="231" height="187">
<path d="M211.987 -37.8013C210.545 -38.2946 209.089 -38.7707 207.616 -39.2304C158.727 -55.2449 143.386 -26.3793 129.851 -0.912033C124.477 9.19997 119.401 18.7509 112.613 24.9298C95.6046 42.3279 84.5509 46.1459 77.2364 48.6724C72.0002 50.4809 68.8395 51.5726 67.0687 56.5421C65.803 59.6344 67.1272 65.0212 70.708 71.3063C74.5101 77.9801 80.3875 84.8833 87.2576 90.7445C96.2289 98.8462 104.394 100.917 111.598 102.745C113.509 103.23 115.314 103.688 117.033 104.236L117.034 104.237C119.625 105.048 121.903 105.699 123.912 106.272C133.193 108.922 138.794 110.522 157.438 122.393C169.322 129.983 193.636 139.194 218.938 141.483C232.633 142.722 244.785 141.75 255.055 138.594C267.058 134.906 276.281 128.26 282.469 118.84C289.401 108.021 293.898 95.9491 295.837 82.9576C297.768 70.0226 297.059 56.885 293.73 43.9096C289.088 25.8144 279.387 8.89176 265.678 -5.02898C251.468 -19.4591 233.421 -30.4711 211.987 -37.8013ZM104.011 99.9738C98.9074 98.2283 93.4204 95.5311 87.5955 90.2709C72.8352 77.6783 65.1788 62.488 67.5361 56.7282C69.208 52.037 72.269 50.9797 77.34 49.2281C84.703 46.685 95.8298 42.8416 112.921 25.3573C119.779 19.1162 124.881 9.51561 130.283 -0.648578C137.139 -13.5471 144.227 -26.8845 155.749 -35.1849C168.856 -44.6278 185.762 -45.7673 207.433 -38.6687C230.726 -31.3966 250.201 -19.9266 265.316 -4.57811C278.963 9.27946 288.618 26.1195 293.236 44.1218C296.545 57.016 297.25 70.0682 295.332 82.9162C293.407 95.8111 288.944 107.792 282.067 118.526C274.126 130.615 256.741 144.314 219.029 140.902C193.798 138.62 169.563 129.441 157.722 121.879C139.024 109.973 133.4 108.367 124.083 105.707C122.076 105.134 119.802 104.484 117.216 103.675C115.485 103.122 113.673 102.662 111.756 102.176C109.286 101.549 106.702 100.894 104.011 99.9738Z" fill="url(#paint4_linear_44_387)"/>
</mask>
<g mask="url(#mask4_44_387)">
<path d="M211.987 -37.8013C210.545 -38.2946 209.089 -38.7707 207.616 -39.2304C158.727 -55.2449 143.386 -26.3793 129.851 -0.912033C124.477 9.19997 119.401 18.7509 112.613 24.9298C95.6046 42.3279 84.5509 46.1459 77.2364 48.6724C72.0002 50.4809 68.8395 51.5726 67.0687 56.5421C65.803 59.6344 67.1272 65.0212 70.708 71.3063C74.5101 77.9801 80.3875 84.8833 87.2576 90.7445C96.2289 98.8462 104.394 100.917 111.598 102.745C113.509 103.23 115.314 103.688 117.033 104.236L117.034 104.237C119.625 105.048 121.903 105.699 123.912 106.272C133.193 108.922 138.794 110.522 157.438 122.393C169.322 129.983 193.636 139.194 218.938 141.483C232.633 142.722 244.785 141.75 255.055 138.594C267.058 134.906 276.281 128.26 282.469 118.84C289.401 108.021 293.898 95.9491 295.837 82.9576C297.768 70.0226 297.059 56.885 293.73 43.9096C289.088 25.8144 279.387 8.89176 265.678 -5.02898C251.468 -19.4591 233.421 -30.4711 211.987 -37.8013ZM104.011 99.9738C98.9074 98.2283 93.4204 95.5311 87.5955 90.2709C72.8352 77.6783 65.1788 62.488 67.5361 56.7282C69.208 52.037 72.269 50.9797 77.34 49.2281C84.703 46.685 95.8298 42.8416 112.921 25.3573C119.779 19.1162 124.881 9.51561 130.283 -0.648578C137.139 -13.5471 144.227 -26.8845 155.749 -35.1849C168.856 -44.6278 185.762 -45.7673 207.433 -38.6687C230.726 -31.3966 250.201 -19.9266 265.316 -4.57811C278.963 9.27946 288.618 26.1195 293.236 44.1218C296.545 57.016 297.25 70.0682 295.332 82.9162C293.407 95.8111 288.944 107.792 282.067 118.526C274.126 130.615 256.741 144.314 219.029 140.902C193.798 138.62 169.563 129.441 157.722 121.879C139.024 109.973 133.4 108.367 124.083 105.707C122.076 105.134 119.802 104.484 117.216 103.675C115.485 103.122 113.673 102.662 111.756 102.176C109.286 101.549 106.702 100.894 104.011 99.9738Z" fill="#C0C0C0"/>
</g>
<mask id="mask5_44_387" style="mask-type:alpha" maskUnits="userSpaceOnUse" x="79" y="-29" width="205" height="163">
<path d="M208.217 -24.2509C190.581 -30.282 176.494 -29.889 165.195 -23.0599C154.918 -16.8482 148.174 -6.26025 141.651 3.9788C136.216 12.5112 131.083 20.5704 124.216 25.7915C108.66 39.6319 98.1814 43.3053 91.2475 45.7359C85.7152 47.6755 82.3759 48.8461 80.5325 53.7357C77.6994 60.2051 83.0162 75.6154 94.3819 86.5329C102.964 95.5101 110.531 97.8428 117.851 100.098L118.683 100.355C122.217 101.421 125.255 102.088 128.192 102.733C136.066 104.463 143.504 106.097 158.452 115.195C169.333 121.845 191.152 130.102 213.344 132.514C232.048 134.547 257.097 133.014 270.215 114.167C282.79 95.4601 286.928 71.6331 281.571 48.7916C277.923 33.2345 269.967 18.6111 258.564 6.50224C246.097 -6.73631 229.918 -16.8176 210.471 -23.4686C210.24 -23.5475 210.01 -23.6254 209.779 -23.7034C209.255 -23.8914 208.735 -24.0739 208.217 -24.2509ZM113.628 98.178C107.705 96.1525 101.529 93.2459 94.713 86.1163C82.5627 74.4449 78.514 59.4993 80.9572 53.9194C82.7091 49.2741 85.9597 48.1346 91.3451 46.2466C98.3157 43.803 108.85 40.1101 124.467 26.2141C131.399 20.9449 136.56 12.8423 142.024 4.26388C148.51 -5.9185 155.217 -16.4473 165.384 -22.5924C176.89 -29.547 191.348 -29.7389 209.601 -23.1898C209.831 -23.1124 210.063 -23.0338 210.291 -22.9556C229.682 -16.3243 245.803 -6.28018 258.224 6.91001C269.571 18.9591 277.486 33.5054 281.114 48.9761C283.766 60.2825 284.127 71.705 282.186 82.9261C280.241 94.1759 276.091 104.585 269.853 113.865C256.886 132.496 232.015 134 213.435 131.981C191.303 129.575 169.551 121.346 158.706 114.717C143.701 105.584 136.232 103.944 128.325 102.207C125.395 101.563 122.365 100.898 118.845 99.8361L118.016 99.5801C116.565 99.1331 115.104 98.6828 113.628 98.178Z" fill="url(#paint5_linear_44_387)"/>
</mask>
<g mask="url(#mask5_44_387)">
<path d="M207.251 -24.4301C189.615 -30.4612 175.528 -30.0682 164.229 -23.2391C153.952 -17.0274 147.207 -6.43945 140.685 3.7996C135.25 12.332 130.117 20.3912 123.249 25.6123C107.693 39.4527 97.2151 43.1261 90.2812 45.5567C84.7489 47.4963 81.4096 48.6669 79.5662 53.5565C76.7331 60.0259 82.0499 75.4362 93.4156 86.3537C101.997 95.3309 109.565 97.6636 116.885 99.919L117.716 100.176C121.251 101.242 124.288 101.909 127.226 102.554C135.1 104.284 142.538 105.917 157.486 115.015C168.367 121.666 190.186 129.923 212.378 132.335C231.082 134.368 256.131 132.835 269.249 113.988C281.824 95.2809 285.962 71.4539 280.605 48.6124C276.956 33.0553 269.001 18.4319 257.597 6.32304C245.131 -6.9155 228.952 -16.9968 209.505 -23.6478C209.274 -23.7267 209.044 -23.8046 208.813 -23.8826C208.289 -24.0706 207.768 -24.2531 207.251 -24.4301ZM112.661 97.9988C106.739 95.9733 100.562 93.0667 93.7467 85.9371C81.5964 74.2657 77.5477 59.3201 79.9909 53.7402C81.7428 49.0949 84.9934 47.9554 90.3788 46.0674C97.3493 43.6238 107.883 39.9309 123.501 26.0349C130.432 20.7657 135.594 12.6631 141.058 4.08468C147.544 -6.0977 154.251 -16.6265 164.418 -22.7716C175.924 -29.7262 190.382 -29.9181 208.635 -23.369C208.864 -23.2916 209.096 -23.2129 209.325 -23.1348C228.716 -16.5035 244.836 -6.45938 257.257 6.73081C268.604 18.7799 276.52 33.3262 280.148 48.7969C282.8 60.1033 283.16 71.5258 281.22 82.7469C279.274 93.9967 275.125 104.406 268.887 113.686C255.92 132.317 231.049 133.821 212.468 131.802C190.336 129.396 168.584 121.166 157.74 114.538C142.735 105.405 135.266 103.765 127.359 102.028C124.429 101.384 121.399 100.719 117.879 99.6569L117.049 99.4009C115.599 98.9539 114.138 98.5036 112.661 97.9988Z" fill="#C0C0C0"/>
</g>
<mask id="mask6_44_387" style="mask-type:alpha" maskUnits="userSpaceOnUse" x="92" y="-14" width="179" height="139">
<path d="M207.287 -9.91493C194.388 -14.3266 183.715 -14.4403 174.769 -10.2846C165.863 -6.14754 159.526 1.69861 153.398 9.28647C148.162 15.769 142.748 22.4725 135.819 26.6557C121.939 36.9662 112.129 40.3942 105.637 42.6626C99.5983 44.7729 95.9531 46.0467 93.9958 50.9293C91.1655 56.9955 92.6777 72.252 101.504 82.318C107.491 90.0924 113.123 94.3272 120.33 96.4725L120.331 96.4729C124.169 97.578 127.644 98.0849 131.323 98.6215C139.098 99.756 147.138 100.929 159.465 107.996C169.407 113.728 188.757 121.039 207.749 123.545C224.207 125.717 246.278 125.042 257.96 109.494C269.302 93.6684 273.493 73.3086 269.461 53.6303C266.794 40.613 260.571 28.2933 251.464 18.0032C241.39 6.6212 228.093 -2.18661 211.942 -8.17561C210.359 -8.81496 208.806 -9.39519 207.287 -9.91493ZM119.205 95.5922C112.676 93.3597 107.416 89.2169 101.832 81.9662C93.1234 72.0338 91.6029 57.0589 94.3787 51.1091C96.2507 46.44 99.6162 45.264 105.726 43.129C112.243 40.8516 122.091 37.4102 136.01 27.0699C142.995 22.8544 148.438 16.1147 153.702 9.59705C159.793 2.05491 166.092 -5.74418 174.897 -9.83428C184.791 -14.4304 196.85 -13.7344 211.768 -7.71111C227.867 -1.74117 241.114 7.03178 251.145 18.3665C260.202 28.6001 266.391 40.8474 269.041 53.7847C273.042 73.3125 268.887 93.5119 257.64 109.204C246.1 124.563 224.189 125.216 207.84 123.059C188.897 120.56 169.601 113.27 159.689 107.555C147.302 100.453 139.228 99.2752 131.419 98.1364C127.752 97.6015 124.289 97.0963 120.475 95.998C120.046 95.8704 119.623 95.7351 119.205 95.5922Z" fill="url(#paint6_linear_44_387)"/>
</mask>
<g mask="url(#mask6_44_387)">
<path d="M207.287 -9.91493C194.388 -14.3266 183.715 -14.4403 174.769 -10.2846C165.863 -6.14754 159.526 1.69861 153.398 9.28647C148.162 15.769 142.748 22.4725 135.819 26.6557C121.939 36.9662 112.129 40.3942 105.637 42.6626C99.5983 44.7729 95.9531 46.0467 93.9958 50.9293C91.1655 56.9955 92.6777 72.252 101.504 82.318C107.491 90.0924 113.123 94.3272 120.33 96.4725L120.331 96.4729C124.169 97.578 127.644 98.0849 131.323 98.6215C139.098 99.756 147.138 100.929 159.465 107.996C169.407 113.728 188.757 121.039 207.749 123.545C224.207 125.717 246.278 125.042 257.96 109.494C269.302 93.6684 273.493 73.3086 269.461 53.6303C266.794 40.613 260.571 28.2933 251.464 18.0032C241.39 6.6212 228.093 -2.18661 211.942 -8.17561C210.359 -8.81496 208.806 -9.39519 207.287 -9.91493ZM119.205 95.5922C112.676 93.3597 107.416 89.2169 101.832 81.9662C93.1234 72.0338 91.6029 57.0589 94.3787 51.1091C96.2507 46.44 99.6162 45.264 105.726 43.129C112.243 40.8516 122.091 37.4102 136.01 27.0699C142.995 22.8544 148.438 16.1147 153.702 9.59705C159.793 2.05491 166.092 -5.74418 174.897 -9.83428C184.791 -14.4304 196.85 -13.7344 211.768 -7.71111C227.867 -1.74117 241.114 7.03178 251.145 18.3665C260.202 28.6001 266.391 40.8474 269.041 53.7847C273.042 73.3125 268.887 93.5119 257.64 109.204C246.1 124.563 224.189 125.216 207.84 123.059C188.897 120.56 169.601 113.27 159.689 107.555C147.302 100.453 139.228 99.2752 131.419 98.1364C127.752 97.6015 124.289 97.0963 120.475 95.998C120.046 95.8704 119.623 95.7351 119.205 95.5922Z" fill="#C0C0C0"/>
</g>
<mask id="mask7_44_387" style="mask-type:alpha" maskUnits="userSpaceOnUse" x="104" y="1" width="155" height="115">
<path d="M206.25 4.1306C185.469 -2.97675 175.443 5.86274 164.894 15.1633C159.691 19.7498 154.311 24.4929 147.423 27.5239C135.645 34.3548 127.07 37.2379 120.809 39.343C113.587 41.7712 109.609 43.109 107.459 48.1237C105.831 51.4116 104.776 56.7638 104.713 62.0786C104.637 68.5025 106.026 74.1914 108.624 78.0974C112.461 85.2501 115.886 90.8688 121.978 92.5909L121.98 92.5914C125.836 93.6378 129.821 93.9285 134.041 94.2364C141.657 94.7921 150.289 95.4223 160.479 100.798C167.527 104.544 184.236 111.663 202.154 114.577C211.476 116.092 219.73 116.229 226.686 114.981C234.903 113.508 241.301 110.09 245.703 104.823C255.86 91.8723 260.137 74.9547 257.442 58.4023C255.736 47.9258 251.225 37.9163 244.396 29.4556C236.844 20.0992 226.653 12.6628 214.106 7.35276C211.325 6.03794 208.711 4.97232 206.25 4.1306ZM121.441 91.9532C115.886 90.0536 112.614 84.6494 108.953 77.8251C103.013 68.8942 105.047 53.858 107.8 48.2976C109.871 43.4699 113.783 42.1544 120.885 39.7663C127.162 37.6559 135.758 34.7655 147.552 27.9243C154.479 24.8772 159.885 20.1114 165.113 15.5026C171.074 10.2478 176.704 5.28443 184.165 3.11123C192.574 0.662188 202.032 2.14192 213.933 7.76667C226.435 13.0577 236.581 20.4605 244.097 29.7716C250.883 38.1786 255.365 48.1208 257.059 58.5236C259.731 74.9369 255.492 91.7099 245.428 104.541C241.1 109.721 234.784 113.088 226.662 114.544C219.745 115.785 211.53 115.648 202.246 114.138C184.37 111.231 167.702 104.131 160.672 100.394C150.421 94.9855 141.752 94.3527 134.104 93.7948C129.901 93.4882 125.931 93.1985 122.105 92.1604C121.88 92.0968 121.659 92.0277 121.441 91.9532Z" fill="url(#paint7_linear_44_387)"/>
</mask>
<g mask="url(#mask7_44_387)">
<path d="M206.25 4.1306C185.469 -2.97675 175.443 5.86274 164.894 15.1633C159.691 19.7498 154.311 24.4929 147.423 27.5239C135.645 34.3548 127.07 37.2379 120.809 39.343C113.587 41.7712 109.609 43.109 107.459 48.1237C105.831 51.4116 104.776 56.7638 104.713 62.0786C104.637 68.5025 106.026 74.1914 108.624 78.0974C112.461 85.2501 115.886 90.8688 121.978 92.5909L121.98 92.5914C125.836 93.6378 129.821 93.9285 134.041 94.2364C141.657 94.7921 150.289 95.4223 160.479 100.798C167.527 104.544 184.236 111.663 202.154 114.577C211.476 116.092 219.73 116.229 226.686 114.981C234.903 113.508 241.301 110.09 245.703 104.823C255.86 91.8723 260.137 74.9547 257.442 58.4023C255.736 47.9258 251.225 37.9163 244.396 29.4556C236.844 20.0992 226.653 12.6628 214.106 7.35276C211.325 6.03794 208.711 4.97232 206.25 4.1306ZM121.441 91.9532C115.886 90.0536 112.614 84.6494 108.953 77.8251C103.013 68.8942 105.047 53.858 107.8 48.2976C109.871 43.4699 113.783 42.1544 120.885 39.7663C127.162 37.6559 135.758 34.7655 147.552 27.9243C154.479 24.8772 159.885 20.1114 165.113 15.5026C171.074 10.2478 176.704 5.28443 184.165 3.11123C192.574 0.662188 202.032 2.14192 213.933 7.76667C226.435 13.0577 236.581 20.4605 244.097 29.7716C250.883 38.1786 255.365 48.1208 257.059 58.5236C259.731 74.9369 255.492 91.7099 245.428 104.541C241.1 109.721 234.784 113.088 226.662 114.544C219.745 115.785 211.53 115.648 202.246 114.138C184.37 111.231 167.702 104.131 160.672 100.394C150.421 94.9855 141.752 94.3527 134.104 93.7948C129.901 93.4882 125.931 93.1985 122.105 92.1604C121.88 92.0968 121.659 92.0277 121.441 91.9532Z" fill="#C0C0C0"/>
</g>
<mask id="mask8_44_387" style="mask-type:alpha" maskUnits="userSpaceOnUse" x="114" y="15" width="132" height="93">
<path d="M205.048 17.5372C192.497 13.2439 184.694 17.1153 175.339 21.7553C170.456 24.1772 165.406 26.6818 159.026 28.3967C150.334 31.8601 143.513 33.8877 138.031 35.5168C128.627 38.3122 123.447 39.8519 120.923 45.3185C117.785 51.3058 112.871 66.3149 115.738 73.8504C115.868 74.4076 115.996 74.9687 116.123 75.5294C117.455 81.3888 118.834 87.4476 123.627 88.7093L123.628 88.7096C127.372 89.6492 131.894 89.6648 136.682 89.6813C144.428 89.7081 153.208 89.7381 161.494 93.5998C170.45 97.8157 216.009 117.946 233.444 100.153C242.507 90.0755 246.939 76.5602 245.61 63.0665C244.817 55.0153 242.056 47.5311 237.402 40.8215C232.331 33.5096 225.222 27.474 216.273 22.8831C212.111 20.4215 208.409 18.6864 205.048 17.5372ZM123.309 88.1939C119.038 86.7332 117.729 80.9729 116.462 75.3958C116.333 74.8298 116.204 74.2636 116.073 73.7012L116.065 73.676C113.235 66.2703 118.111 51.4239 121.223 45.4847C123.67 40.1846 128.791 38.6625 138.088 35.8994C143.575 34.2682 150.405 32.2382 159.093 28.7752C165.487 27.0577 170.552 24.5454 175.451 22.1156C187.223 16.2768 196.522 11.6653 216.096 23.2424C225.008 27.8146 232.079 33.8162 237.12 41.0848C241.738 47.7424 244.477 55.1655 245.264 63.1483C246.58 76.5147 242.19 89.9018 233.219 99.8773C226.272 106.966 213.968 108.765 196.653 105.218C181.412 102.095 167.099 95.7953 161.653 93.2314C153.309 89.3436 144.494 89.3124 136.717 89.2853C131.948 89.2689 127.444 89.2534 123.735 88.3226C123.59 88.2844 123.448 88.2414 123.309 88.1939Z" fill="url(#paint8_linear_44_387)"/>
</mask>
<g mask="url(#mask8_44_387)">
<path d="M205.048 17.5372C192.497 13.2439 184.694 17.1153 175.339 21.7553C170.456 24.1772 165.406 26.6818 159.026 28.3967C150.334 31.8601 143.513 33.8877 138.031 35.5168C128.627 38.3122 123.447 39.8519 120.923 45.3185C117.785 51.3058 112.871 66.3149 115.738 73.8504C115.868 74.4076 115.996 74.9687 116.123 75.5294C117.455 81.3888 118.834 87.4476 123.627 88.7093L123.628 88.7096C127.372 89.6492 131.894 89.6648 136.682 89.6813C144.428 89.7081 153.208 89.7381 161.494 93.5998C170.45 97.8157 216.009 117.946 233.444 100.153C242.507 90.0755 246.939 76.5602 245.61 63.0665C244.817 55.0153 242.056 47.5311 237.402 40.8215C232.331 33.5096 225.222 27.474 216.273 22.8831C212.111 20.4215 208.409 18.6864 205.048 17.5372ZM123.309 88.1939C119.038 86.7332 117.729 80.9729 116.462 75.3958C116.333 74.8298 116.204 74.2636 116.073 73.7012L116.065 73.676C113.235 66.2703 118.111 51.4239 121.223 45.4847C123.67 40.1846 128.791 38.6625 138.088 35.8994C143.575 34.2682 150.405 32.2382 159.093 28.7752C165.487 27.0577 170.552 24.5454 175.451 22.1156C187.223 16.2768 196.522 11.6653 216.096 23.2424C225.008 27.8146 232.079 33.8162 237.12 41.0848C241.738 47.7424 244.477 55.1655 245.264 63.1483C246.58 76.5147 242.19 89.9018 233.219 99.8773C226.272 106.966 213.968 108.765 196.653 105.218C181.412 102.095 167.099 95.7953 161.653 93.2314C153.309 89.3436 144.494 89.3124 136.717 89.2853C131.948 89.2689 127.444 89.2534 123.735 88.3226C123.59 88.2844 123.448 88.2414 123.309 88.1939Z" fill="#C0C0C0"/>
</g>
<mask id="mask9_44_387" style="mask-type:alpha" maskUnits="userSpaceOnUse" x="121" y="27" width="114" height="73">
<path d="M203.199 29.0627C195.778 26.5247 188.86 27.3008 179.297 28.3737C176.579 28.6788 173.769 28.994 170.625 29.2749C168.284 29.7308 166.093 30.1495 164.03 30.5433C146.077 33.9715 137.884 35.5361 134.386 42.514C131.569 47.6114 122.988 63.1371 122.87 69.5838C121.736 76.1504 120.995 83.8109 125.276 84.8275L125.277 84.8278C128.859 85.6342 134.037 85.3115 139.519 84.9697C147.25 84.4878 156.012 83.9427 162.511 86.402C163.745 86.8759 165.213 87.4693 166.913 88.1565C173.879 90.9715 184.404 95.2255 194.657 97.5525C206.925 100.337 215.848 99.6414 221.179 95.4856C229.226 88.418 234.104 77.9856 234.235 67.5724C234.38 56.026 228.772 45.6721 218.444 38.4175C212.656 33.5204 207.83 30.6463 203.199 29.0627ZM125.056 84.3956C121.35 83.1284 122.094 75.857 123.175 69.6026L123.178 69.5714C123.28 63.2358 131.835 47.757 134.646 42.6707C138.065 35.85 146.209 34.2949 164.051 30.8878C166.114 30.4937 168.306 30.0752 170.633 29.6211C173.766 29.3421 176.577 29.0266 179.297 28.7215C194.754 26.9874 203.269 26.0322 218.255 38.7122C228.508 45.9151 234.071 56.1725 233.927 67.6019C233.797 77.9016 228.97 88.2225 221.014 95.2105C215.768 99.2996 206.928 99.9745 194.746 97.2097C184.513 94.8868 173.999 90.6379 167.041 87.8259C165.34 87.1384 163.871 86.5446 162.634 86.0696C156.08 83.5896 147.29 84.1374 139.533 84.6209C134.071 84.9614 128.912 85.2829 125.366 84.4852C125.26 84.4598 125.156 84.4299 125.056 84.3956Z" fill="url(#paint9_linear_44_387)"/>
</mask>
<g mask="url(#mask9_44_387)">
<path d="M203.199 29.0627C195.778 26.5247 188.86 27.3008 179.297 28.3737C176.579 28.6788 173.769 28.994 170.625 29.2749C168.284 29.7308 166.093 30.1495 164.03 30.5433C146.077 33.9715 137.884 35.5361 134.386 42.514C131.569 47.6114 122.988 63.1371 122.87 69.5838C121.736 76.1504 120.995 83.8109 125.276 84.8275L125.277 84.8278C128.859 85.6342 134.037 85.3115 139.519 84.9697C147.25 84.4878 156.012 83.9427 162.511 86.402C163.745 86.8759 165.213 87.4693 166.913 88.1565C173.879 90.9715 184.404 95.2255 194.657 97.5525C206.925 100.337 215.848 99.6414 221.179 95.4856C229.226 88.418 234.104 77.9856 234.235 67.5724C234.38 56.026 228.772 45.6721 218.444 38.4175C212.656 33.5204 207.83 30.6463 203.199 29.0627ZM125.056 84.3956C121.35 83.1284 122.094 75.857 123.175 69.6026L123.178 69.5714C123.28 63.2358 131.835 47.757 134.646 42.6707C138.065 35.85 146.209 34.2949 164.051 30.8878C166.114 30.4937 168.306 30.0752 170.633 29.6211C173.766 29.3421 176.577 29.0266 179.297 28.7215C194.754 26.9874 203.269 26.0322 218.255 38.7122C228.508 45.9151 234.071 56.1725 233.927 67.6019C233.797 77.9016 228.97 88.2225 221.014 95.2105C215.768 99.2996 206.928 99.9745 194.746 97.2097C184.513 94.8868 173.999 90.6379 167.041 87.8259C165.34 87.1384 163.871 86.5446 162.634 86.0696C156.08 83.5896 147.29 84.1374 139.533 84.6209C134.071 84.9614 128.912 85.2829 125.366 84.4852C125.26 84.4598 125.156 84.4299 125.056 84.3956Z" fill="#C0C0C0"/>
</g>
<mask id="mask10_44_387" style="mask-type:alpha" maskUnits="userSpaceOnUse" x="125" y="30" width="100" height="62">
<path d="M196.978 33.1827C192.662 31.7067 187.768 30.7064 182.22 30.1584C162.189 29.4628 151.913 32.3196 147.849 39.7103C145.895 43.0709 141.418 49.2646 137.467 54.7291C134.339 59.0561 131.384 63.143 130.038 65.3231C128.697 67.1103 127.332 69.7832 126.396 72.4604C125.371 75.3926 125.02 77.8299 125.407 79.3237C125.646 80.2459 126.157 80.7911 126.926 80.9461L126.926 80.9462C130.373 81.606 136.527 80.8341 143.042 80.0169C150.784 79.046 158.789 78.0419 163.531 79.2041C166.107 79.8475 169.98 81.4572 174.464 83.321C185.595 87.9473 200.84 94.2844 208.904 90.8185C216.393 86.957 222.25 79.7904 224.199 72.1115C225.836 65.66 224.601 59.3864 220.626 53.9688C216.501 46.6172 212.01 41.4771 206.5 37.8065C203.69 35.9343 200.53 34.3974 196.978 33.1827ZM126.779 80.5891C126.226 80.4001 125.852 79.9382 125.664 79.2125C124.874 76.1657 127.521 69.1221 130.242 65.4929C131.591 63.3106 134.542 59.2285 137.666 54.907C141.622 49.4359 146.105 43.2347 148.07 39.8555C152.071 32.578 162.271 29.7694 182.178 30.4605C192.246 31.4553 200.155 33.9447 206.349 38.0716C211.826 41.7204 216.293 46.8335 220.406 54.1622C224.335 59.5196 225.555 65.7022 223.943 72.0548C222.018 79.6406 216.224 86.7239 208.823 90.5407C200.863 93.9614 185.671 87.6464 174.577 83.0354C170.084 81.1681 166.205 79.5552 163.611 78.9079C158.828 77.7357 150.802 78.7424 143.039 79.716C136.543 80.5308 130.407 81.3004 126.996 80.6474C126.921 80.6324 126.848 80.6128 126.779 80.5891Z" fill="url(#paint10_linear_44_387)"/>
</mask>
<g mask="url(#mask10_44_387)">
<path d="M196.978 33.1827C192.662 31.7067 187.768 30.7064 182.22 30.1584C162.189 29.4628 151.913 32.3196 147.849 39.7103C145.895 43.0709 141.418 49.2646 137.467 54.7291C134.339 59.0561 131.384 63.143 130.038 65.3231C128.697 67.1103 127.332 69.7832 126.396 72.4604C125.371 75.3926 125.02 77.8299 125.407 79.3237C125.646 80.2459 126.157 80.7911 126.926 80.9461L126.926 80.9462C130.373 81.606 136.527 80.8341 143.042 80.0169C150.784 79.046 158.789 78.0419 163.531 79.2041C166.107 79.8475 169.98 81.4572 174.464 83.321C185.595 87.9473 200.84 94.2844 208.904 90.8185C216.393 86.957 222.25 79.7904 224.199 72.1115C225.836 65.66 224.601 59.3864 220.626 53.9688C216.501 46.6172 212.01 41.4771 206.5 37.8065C203.69 35.9343 200.53 34.3974 196.978 33.1827ZM126.779 80.5891C126.226 80.4001 125.852 79.9382 125.664 79.2125C124.874 76.1657 127.521 69.1221 130.242 65.4929C131.591 63.3106 134.542 59.2285 137.666 54.907C141.622 49.4359 146.105 43.2347 148.07 39.8555C152.071 32.578 162.271 29.7694 182.178 30.4605C192.246 31.4553 200.155 33.9447 206.349 38.0716C211.826 41.7204 216.293 46.8335 220.406 54.1622C224.335 59.5196 225.555 65.7022 223.943 72.0548C222.018 79.6406 216.224 86.7239 208.823 90.5407C200.863 93.9614 185.671 87.6464 174.577 83.0354C170.084 81.1681 166.205 79.5552 163.611 78.9079C158.828 77.7357 150.802 78.7424 143.039 79.716C136.543 80.5308 130.407 81.3004 126.996 80.6474C126.921 80.6324 126.848 80.6128 126.779 80.5891Z" fill="#C0C0C0"/>
</g>
<mask id="mask11_44_387" style="mask-type:alpha" maskUnits="userSpaceOnUse" x="127" y="28" width="97" height="59">
<path d="M195.44 31.566C194.899 31.3811 194.355 31.2075 193.806 31.0448C184.873 28.3978 177.398 27.862 171.588 29.4526C167.027 30.7014 163.57 33.2096 161.313 36.9076C157.617 42.9625 143.205 57.4366 137.219 61.1064C134.988 62.4738 132.545 65.1651 130.516 68.4903C128.681 71.4989 127.58 74.4173 127.71 75.9256C127.768 76.5965 128.069 76.99 128.575 77.064C132.123 77.581 140.759 75.94 149.111 74.3532C155.587 73.1226 161.704 71.9603 164.557 72.0039C167.792 72.0531 173.499 75.2185 179.541 78.5696C185.764 82.0217 192.2 85.592 196.611 86.1375C201.225 86.7085 207.162 85.3779 212.105 82.6648C217.881 79.494 221.678 74.8518 222.795 69.594C224.103 63.441 221.925 55.4025 216.969 48.0907C211.726 40.3559 204.128 34.5375 195.44 31.566ZM128.471 76.7733C128.154 76.6645 127.977 76.3693 127.935 75.8759C127.682 72.9534 132.402 64.3373 137.31 61.3292C143.319 57.646 157.784 43.1173 161.494 37.0389C163.714 33.4019 167.121 30.9333 171.62 29.7015C177.393 28.1211 184.831 28.6566 193.729 31.2933C203.052 34.0553 211.242 40.0817 216.785 48.259C221.63 55.4071 223.849 63.5683 222.576 69.5577C221.477 74.7304 217.729 79.3041 212.023 82.4361C207.119 85.1282 201.231 86.4488 196.657 85.8828C192.282 85.3413 185.863 81.7809 179.655 78.3372C173.592 74.9743 167.866 71.7976 164.582 71.7477C161.709 71.7039 155.582 72.8681 149.095 74.1006C140.76 75.6844 132.141 77.3221 128.625 76.81C128.571 76.8019 128.52 76.7897 128.471 76.7733Z" fill="url(#paint11_linear_44_387)"/>
</mask>
<g mask="url(#mask11_44_387)">
<path d="M195.44 31.566C194.899 31.3811 194.355 31.2075 193.806 31.0448C184.873 28.3978 177.398 27.862 171.588 29.4526C167.027 30.7014 163.57 33.2096 161.313 36.9076C157.617 42.9625 143.205 57.4366 137.219 61.1064C134.988 62.4738 132.545 65.1651 130.516 68.4903C128.681 71.4989 127.58 74.4173 127.71 75.9256C127.768 76.5965 128.069 76.99 128.575 77.064C132.123 77.581 140.759 75.94 149.111 74.3532C155.587 73.1226 161.704 71.9603 164.557 72.0039C167.792 72.0531 173.499 75.2185 179.541 78.5696C185.764 82.0217 192.2 85.592 196.611 86.1375C201.225 86.7085 207.162 85.3779 212.105 82.6648C217.881 79.494 221.678 74.8518 222.795 69.594C224.103 63.441 221.925 55.4025 216.969 48.0907C211.726 40.3559 204.128 34.5375 195.44 31.566ZM128.471 76.7733C128.154 76.6645 127.977 76.3693 127.935 75.8759C127.682 72.9534 132.402 64.3373 137.31 61.3292C143.319 57.646 157.784 43.1173 161.494 37.0389C163.714 33.4019 167.121 30.9333 171.62 29.7015C177.393 28.1211 184.831 28.6566 193.729 31.2933C203.052 34.0553 211.242 40.0817 216.785 48.259C221.63 55.4071 223.849 63.5683 222.576 69.5577C221.477 74.7304 217.729 79.3041 212.023 82.4361C207.119 85.1282 201.231 86.4488 196.657 85.8828C192.282 85.3413 185.863 81.7809 179.655 78.3372C173.592 74.9743 167.866 71.7976 164.582 71.7477C161.709 71.7039 155.582 72.8681 149.095 74.1006C140.76 75.6844 132.141 77.3221 128.625 76.81C128.571 76.8019 128.52 76.7897 128.471 76.7733Z" fill="#C0C0C0"/>
</g>
</g>
<defs>
<linearGradient id="paint0_linear_44_387" x1="42.828" y1="-18.8708" x2="351.436" y2="86.6677" gradientUnits="userSpaceOnUse">
<stop stop-color="white"/>
<stop offset="0.0436152" stop-color="#B4B4B4"/>
<stop offset="0.150732"/>
<stop offset="0.171421" stop-color="#171717"/>
<stop offset="0.385884" stop-color="white"/>
<stop offset="0.632551" stop-color="#E6E6E6"/>
<stop offset="0.856667" stop-color="#1A1A1A"/>
<stop offset="0.998739"/>
</linearGradient>
<linearGradient id="paint1_linear_44_387" x1="52.9518" y1="-11.8854" x2="337.969" y2="85.5853" gradientUnits="userSpaceOnUse">
<stop stop-color="white"/>
<stop offset="0.0436152" stop-color="#B4B4B4"/>
<stop offset="0.150732"/>
<stop offset="0.171421" stop-color="#171717"/>
<stop offset="0.385884" stop-color="white"/>
<stop offset="0.632551" stop-color="#E6E6E6"/>
<stop offset="0.856667" stop-color="#1A1A1A"/>
<stop offset="0.998739"/>
</linearGradient>
<linearGradient id="paint2_linear_44_387" x1="63.0754" y1="-4.91275" x2="324.518" y2="84.4959" gradientUnits="userSpaceOnUse">
<stop stop-color="white"/>
<stop offset="0.0436152" stop-color="#B4B4B4"/>
<stop offset="0.150732"/>
<stop offset="0.171421" stop-color="#171717"/>
<stop offset="0.385884" stop-color="white"/>
<stop offset="0.632551" stop-color="#E6E6E6"/>
<stop offset="0.856667" stop-color="#1A1A1A"/>
<stop offset="0.998739"/>
</linearGradient>
<linearGradient id="paint3_linear_44_387" x1="73.1999" y1="2.04582" x2="311.093" y2="83.4008" gradientUnits="userSpaceOnUse">
<stop stop-color="white"/>
<stop offset="0.0436152" stop-color="#B4B4B4"/>
<stop offset="0.150732"/>
<stop offset="0.171421" stop-color="#171717"/>
<stop offset="0.385884" stop-color="white"/>
<stop offset="0.632551" stop-color="#E6E6E6"/>
<stop offset="0.856667" stop-color="#1A1A1A"/>
<stop offset="0.998739"/>
</linearGradient>
<linearGradient id="paint4_linear_44_387" x1="83.3193" y1="8.99524" x2="297.697" y2="82.3085" gradientUnits="userSpaceOnUse">
<stop stop-color="white"/>
<stop offset="0.0436152" stop-color="#B4B4B4"/>
<stop offset="0.150732"/>
<stop offset="0.171421" stop-color="#171717"/>
<stop offset="0.385884" stop-color="white"/>
<stop offset="0.632551" stop-color="#E6E6E6"/>
<stop offset="0.856667" stop-color="#1A1A1A"/>
<stop offset="0.998739"/>
</linearGradient>
<linearGradient id="paint5_linear_44_387" x1="93.4485" y1="15.8918" x2="284.337" y2="81.1723" gradientUnits="userSpaceOnUse">
<stop stop-color="white"/>
<stop offset="0.0436152" stop-color="#B4B4B4"/>
<stop offset="0.150732"/>
<stop offset="0.171421" stop-color="#171717"/>
<stop offset="0.385884" stop-color="white"/>
<stop offset="0.632551" stop-color="#E6E6E6"/>
<stop offset="0.856667" stop-color="#1A1A1A"/>
<stop offset="0.998739"/>
</linearGradient>
<linearGradient id="paint6_linear_44_387" x1="103.592" y1="22.7009" x2="271.11" y2="79.989" gradientUnits="userSpaceOnUse">
<stop stop-color="white"/>
<stop offset="0.0436152" stop-color="#B4B4B4"/>
<stop offset="0.150732"/>
<stop offset="0.171421" stop-color="#171717"/>
<stop offset="0.385884" stop-color="white"/>
<stop offset="0.632551" stop-color="#E6E6E6"/>
<stop offset="0.856667" stop-color="#1A1A1A"/>
<stop offset="0.998739"/>
</linearGradient>
<linearGradient id="paint7_linear_44_387" x1="113.18" y1="30.9525" x2="257.511" y2="80.3111" gradientUnits="userSpaceOnUse">
<stop stop-color="white"/>
<stop offset="0.0436152" stop-color="#B4B4B4"/>
<stop offset="0.150732"/>
<stop offset="0.171421" stop-color="#171717"/>
<stop offset="0.385884" stop-color="white"/>
<stop offset="0.632551" stop-color="#E6E6E6"/>
<stop offset="0.856667" stop-color="#1A1A1A"/>
<stop offset="0.998739"/>
</linearGradient>
<linearGradient id="paint8_linear_44_387" x1="122.608" y1="38.8616" x2="244.258" y2="80.4637" gradientUnits="userSpaceOnUse">
<stop stop-color="white"/>
<stop offset="0.0436152" stop-color="#B4B4B4"/>
<stop offset="0.150732"/>
<stop offset="0.171421" stop-color="#171717"/>
<stop offset="0.385884" stop-color="white"/>
<stop offset="0.632551" stop-color="#E6E6E6"/>
<stop offset="0.856667" stop-color="#1A1A1A"/>
<stop offset="0.998739"/>
</linearGradient>
<linearGradient id="paint9_linear_44_387" x1="130.458" y1="45.4023" x2="231.842" y2="80.0736" gradientUnits="userSpaceOnUse">
<stop stop-color="white"/>
<stop offset="0.0436152" stop-color="#B4B4B4"/>
<stop offset="0.150732"/>
<stop offset="0.171421" stop-color="#171717"/>
<stop offset="0.385884" stop-color="white"/>
<stop offset="0.632551" stop-color="#E6E6E6"/>
<stop offset="0.856667" stop-color="#1A1A1A"/>
<stop offset="0.998739"/>
</linearGradient>
<linearGradient id="paint10_linear_44_387" x1="134.83" y1="47.7982" x2="222.361" y2="77.7325" gradientUnits="userSpaceOnUse">
<stop stop-color="white"/>
<stop offset="0.0436152" stop-color="#B4B4B4"/>
<stop offset="0.150732"/>
<stop offset="0.171421" stop-color="#171717"/>
<stop offset="0.385884" stop-color="white"/>
<stop offset="0.632551" stop-color="#E6E6E6"/>
<stop offset="0.856667" stop-color="#1A1A1A"/>
<stop offset="0.998739"/>
</linearGradient>
<linearGradient id="paint11_linear_44_387" x1="137.537" y1="45.9562" x2="221.214" y2="74.572" gradientUnits="userSpaceOnUse">
<stop stop-color="white"/>
<stop offset="0.0436152" stop-color="#B4B4B4"/>
<stop offset="0.150732"/>
<stop offset="0.171421" stop-color="#171717"/>
<stop offset="0.385884" stop-color="white"/>
<stop offset="0.632551" stop-color="#E6E6E6"/>
<stop offset="0.856667" stop-color="#1A1A1A"/>
<stop offset="0.998739"/>
</linearGradient>
</defs>
</svg>
