<svg width="355" height="200" viewBox="0 0 355 200" fill="none" xmlns="http://www.w3.org/2000/svg">
<g opacity="0.35">
<mask id="mask0_45_589" style="mask-type:alpha" maskUnits="userSpaceOnUse" x="12" y="-114" width="336" height="283">
<path d="M216.357 -103.48C210.251 -105.568 203.995 -107.446 197.601 -109.109C161.629 -118.465 134.662 -113.132 115.159 -92.8068C98.2598 -75.1946 89.5149 -49.0849 81.7995 -26.0486C76.6496 -10.672 71.7852 3.85171 65.2288 13.366C43.4031 45.039 29.8814 49.132 21.8027 51.5775C17.1246 52.9935 14.0343 53.929 12.3855 59.5094C10.7699 64.978 25.1977 77.5907 57.7907 99.202C71.8868 108.549 85.1092 109.149 95.7337 109.632C101.056 109.874 105.66 110.083 109.328 111.352L109.454 110.984L109.328 111.352C119.428 114.841 121.746 117.083 126.826 121.995C131.061 126.091 137.463 132.281 152.151 142.685C165.059 151.829 187.175 160.38 209.868 165.002C222.78 167.632 235.439 168.96 247.492 168.949C260.985 168.938 273.41 167.231 284.421 163.876C304.819 157.661 320.063 145.952 329.73 129.074C339.253 112.447 345.039 94.084 346.926 74.4966C348.801 55.0404 346.738 35.3683 340.794 16.027C332.142 -12.1268 315.459 -38.145 292.549 -59.2145C280.336 -70.4466 266.338 -80.3104 250.943 -88.5319C240.126 -94.3088 228.546 -99.311 216.357 -103.48ZM71.4776 105.111C67.1707 103.638 62.7156 101.543 58.1725 98.5306C43.3492 88.7016 32.4889 80.8757 24.9704 74.6052C14.1256 65.5606 12.4878 61.5003 13.0235 59.6869C14.5415 54.5488 17.1605 53.7561 21.915 52.317C30.0851 49.8437 43.7593 45.7046 65.7448 13.8001C72.3726 4.18169 77.2567 -10.401 82.4277 -25.8399C90.1131 -48.7865 98.8239 -74.7949 115.588 -92.2661C134.898 -112.39 161.656 -117.655 197.39 -108.361C216.506 -103.389 234.411 -96.482 250.608 -87.8324C265.96 -79.6338 279.918 -69.7987 292.095 -58.6004C314.92 -37.6085 331.538 -11.6941 340.154 16.3413C346.067 35.5804 348.119 55.1441 346.255 74.4884C344.38 93.9471 338.633 112.187 329.174 128.703C319.615 145.394 304.519 156.979 284.307 163.137C273.355 166.473 260.991 168.171 247.558 168.183C235.544 168.194 222.924 166.869 210.05 164.247C187.429 159.64 165.395 151.125 152.548 142.024C137.896 131.645 131.514 125.474 127.292 121.391C122.148 116.417 119.8 114.147 109.581 110.617C109.564 110.611 109.546 110.605 109.528 110.599C105.785 109.318 101.169 109.109 95.8269 108.866C88.7061 108.543 80.4103 108.166 71.4776 105.111Z" fill="url(#paint0_linear_45_589)"/>
</mask>
<g mask="url(#mask0_45_589)">
<path d="M216.357 -103.48C210.251 -105.568 203.995 -107.446 197.601 -109.109C161.629 -118.465 134.662 -113.132 115.159 -92.8068C98.2598 -75.1946 89.5149 -49.0849 81.7995 -26.0486C76.6496 -10.672 71.7852 3.85171 65.2288 13.366C43.4031 45.039 29.8814 49.132 21.8027 51.5775C17.1246 52.9935 14.0343 53.929 12.3855 59.5094C10.7699 64.978 25.1977 77.5907 57.7907 99.202C71.8868 108.549 85.1092 109.149 95.7337 109.632C101.056 109.874 105.66 110.083 109.328 111.352L109.454 110.984L109.328 111.352C119.428 114.841 121.746 117.083 126.826 121.995C131.061 126.091 137.463 132.281 152.151 142.685C165.059 151.829 187.175 160.38 209.868 165.002C222.78 167.632 235.439 168.96 247.492 168.949C260.985 168.938 273.41 167.231 284.421 163.876C304.819 157.661 320.063 145.952 329.73 129.074C339.253 112.447 345.039 94.084 346.926 74.4966C348.801 55.0404 346.738 35.3683 340.794 16.027C332.142 -12.1268 315.459 -38.145 292.549 -59.2145C280.336 -70.4466 266.338 -80.3104 250.943 -88.5319C240.126 -94.3088 228.546 -99.311 216.357 -103.48ZM71.4776 105.111C67.1707 103.638 62.7156 101.543 58.1725 98.5306C43.3492 88.7016 32.4889 80.8757 24.9704 74.6052C14.1256 65.5606 12.4878 61.5003 13.0235 59.6869C14.5415 54.5488 17.1605 53.7561 21.915 52.317C30.0851 49.8437 43.7593 45.7046 65.7448 13.8001C72.3726 4.18169 77.2567 -10.401 82.4277 -25.8399C90.1131 -48.7865 98.8239 -74.7949 115.588 -92.2661C134.898 -112.39 161.656 -117.655 197.39 -108.361C216.506 -103.389 234.411 -96.482 250.608 -87.8324C265.96 -79.6338 279.918 -69.7987 292.095 -58.6004C314.92 -37.6085 331.538 -11.6941 340.154 16.3413C346.067 35.5804 348.119 55.1441 346.255 74.4884C344.38 93.9471 338.633 112.187 329.174 128.703C319.615 145.394 304.519 156.979 284.307 163.137C273.355 166.473 260.991 168.171 247.558 168.183C235.544 168.194 222.924 166.869 210.05 164.247C187.429 159.64 165.395 151.125 152.548 142.024C137.896 131.645 131.514 125.474 127.292 121.391C122.148 116.417 119.8 114.147 109.581 110.617C109.564 110.611 109.546 110.605 109.528 110.599C105.785 109.318 101.169 109.109 95.8269 108.866C88.7061 108.543 80.4103 108.166 71.4776 105.111Z" fill="#C0C0C0"/>
</g>
<mask id="mask1_45_589" style="mask-type:alpha" maskUnits="userSpaceOnUse" x="25" y="-99" width="310" height="260">
<path d="M214.885 -89.0151C209.948 -90.7035 204.902 -92.242 199.757 -93.6269C167.386 -102.424 142.924 -98.1747 124.974 -80.6357C109.38 -65.3991 100.932 -42.3611 93.4795 -22.0349C88.288 -7.87625 83.3844 5.49696 76.7943 14.2225C56.107 42.3006 43.0748 46.4025 35.2885 48.8532C30.5827 50.3345 27.4736 51.3128 25.8105 56.7107C24.8276 59.7451 28.1988 64.9559 35.8315 72.1926C42.6982 78.7028 52.7491 86.5919 64.8978 95.0071C77.5579 103.862 89.4633 104.847 99.0296 105.638C103.654 106.02 107.648 106.351 110.972 107.482L110.972 107.482C121.516 111.048 123.793 112.921 130.55 118.458C135.09 122.179 141.308 127.274 153.162 135.508C165.302 143.946 185.945 151.894 207.034 156.25C219.095 158.741 230.892 160.024 242.097 160.063C254.668 160.106 266.219 158.566 276.428 155.485C294.845 149.926 308.668 139.472 317.513 124.413C326.378 109.247 331.835 92.4686 333.73 74.5434C335.614 56.7312 333.888 38.7068 328.6 20.9711C320.959 -4.65626 306.034 -28.3909 285.438 -47.6667C274.457 -57.9442 261.845 -66.9943 247.954 -74.5652C237.655 -80.1783 226.578 -85.016 214.885 -89.0151ZM78.8627 101.322C74.4838 99.824 69.9255 97.6417 65.2664 94.3831C39.5706 76.5839 24.6804 62.2187 26.4052 56.8927C27.9459 51.892 30.7518 51.009 35.4005 49.5458C43.2664 47.0701 56.4315 42.9263 77.261 14.655C83.923 5.83447 88.8476 -7.59654 94.0616 -21.8161C101.484 -42.0583 109.896 -65.0014 125.359 -80.1101C143.129 -97.4722 167.398 -101.664 199.553 -92.9254C216.847 -88.2711 233.024 -81.8731 247.635 -73.9103C261.486 -66.3613 274.06 -57.3386 285.007 -47.0931C305.524 -27.8912 320.39 -4.25496 327.997 21.2606C333.256 38.8996 334.973 56.8212 333.101 74.528C331.218 92.3323 325.799 108.996 316.995 124.057C308.252 138.943 294.568 149.284 276.322 154.79C262.838 158.86 239.9 162.294 207.206 155.541C186.183 151.199 165.615 143.283 153.53 134.884C141.695 126.662 135.487 121.575 130.953 117.86C124.324 112.428 121.836 110.396 111.207 106.79C107.822 105.638 103.797 105.305 99.1373 104.92C93.1648 104.426 86.2722 103.855 78.8627 101.322Z" fill="url(#paint1_linear_45_589)"/>
</mask>
<g mask="url(#mask1_45_589)">
<path d="M214.884 -89.0151C209.947 -90.7035 204.902 -92.242 199.756 -93.6269C167.386 -102.424 142.924 -98.1747 124.973 -80.6357C109.379 -65.3991 100.932 -42.3611 93.479 -22.0349C88.2875 -7.87625 83.3839 5.49696 76.7938 14.2225C56.1065 42.3006 43.0743 46.4025 35.288 48.8532C30.5822 50.3345 27.4731 51.3128 25.81 56.7107C24.8272 59.7451 28.1983 64.9559 35.831 72.1926C42.6977 78.7028 52.7486 86.5919 64.8973 95.0071C77.5574 103.862 89.4628 104.847 99.0291 105.638C103.654 106.02 107.648 106.351 110.971 107.482L110.971 107.482C121.516 111.048 123.792 112.921 130.55 118.458C135.09 122.179 141.308 127.274 153.161 135.508C165.301 143.946 185.944 151.894 207.033 156.25C219.095 158.741 230.892 160.024 242.096 160.063C254.668 160.106 266.218 158.566 276.427 155.485C294.844 149.926 308.668 139.472 317.512 124.413C326.378 109.247 331.834 92.4686 333.73 74.5434C335.613 56.7312 333.887 38.7068 328.599 20.9711C320.959 -4.65626 306.033 -28.3909 285.437 -47.6667C274.456 -57.9442 261.844 -66.9943 247.953 -74.5652C237.654 -80.1783 226.578 -85.016 214.884 -89.0151ZM78.8622 101.322C74.4833 99.824 69.925 97.6417 65.2659 94.3831C39.5701 76.5839 24.6799 62.2187 26.4047 56.8927C27.9454 51.892 30.7513 51.009 35.4 49.5458C43.2659 47.0701 56.4311 42.9263 77.2605 14.655C83.9225 5.83447 88.8471 -7.59654 94.0612 -21.8161C101.483 -42.0583 109.896 -65.0014 125.359 -80.1101C143.129 -97.4722 167.398 -101.664 199.553 -92.9254C216.847 -88.2711 233.024 -81.8731 247.635 -73.9103C261.485 -66.3613 274.059 -57.3386 285.006 -47.0931C305.523 -27.8912 320.389 -4.25496 327.997 21.2606C333.256 38.8996 334.973 56.8212 333.1 74.528C331.217 92.3323 325.799 108.996 316.995 124.057C308.252 138.943 294.567 149.284 276.322 154.79C262.837 158.86 239.9 162.294 207.205 155.541C186.182 151.199 165.614 143.283 153.53 134.884C141.694 126.662 135.486 121.575 130.953 117.86C124.323 112.428 121.836 110.396 111.207 106.79C107.821 105.638 103.797 105.305 99.1369 104.92C93.1643 104.426 86.2718 103.855 78.8622 101.322Z" fill="#C0C0C0"/>
</g>
<mask id="mask2_45_589" style="mask-type:alpha" maskUnits="userSpaceOnUse" x="38" y="-83" width="284" height="235">
<path d="M213.586 -74.5202C209.775 -75.8239 205.886 -77.0312 201.911 -78.145C173.116 -86.3838 151.153 -83.1944 134.768 -68.3943C120.49 -55.4977 112.36 -35.5122 105.186 -17.8793C99.9455 -4.99743 94.9955 7.1698 88.3591 15.0785C68.8496 39.5694 56.3186 43.6581 48.8317 46.1009C44.0667 47.6558 40.9189 48.6829 39.2338 53.9114C36.7419 60.9849 54.4727 77.9997 72.0026 90.811C83.2826 99.2344 93.9194 100.603 102.467 101.703C106.343 102.202 109.69 102.633 112.614 103.611L112.615 103.611C124.619 107.588 126.59 108.99 137.537 116.757C141.659 119.681 146.79 123.321 154.17 128.33C161.714 133.456 172.839 138.511 185.496 142.561C199.738 147.12 214.666 150.001 228.668 150.893C245.239 151.949 259.946 150.243 272.38 145.824C286.865 140.676 297.939 131.904 305.294 119.752C313.505 106.046 318.633 90.8504 320.539 74.5853C322.433 58.4148 321.045 42.0358 316.413 25.9032C309.781 2.80297 296.611 -18.6466 278.326 -36.1269C260.735 -52.9452 238.995 -65.8303 213.586 -74.5202ZM86.4506 97.7054C81.9484 96.1657 77.2119 93.8596 72.3594 90.2357C51.4817 74.9779 37.7833 59.7797 39.7854 54.0964C41.3563 49.2224 44.2117 48.2906 48.9422 46.7471C56.4972 44.2819 69.1417 40.1562 88.775 15.5098C95.4832 7.51557 100.456 -4.70754 105.72 -17.6484C112.862 -35.2038 120.957 -55.1015 135.108 -67.8834C151.325 -82.5317 173.113 -85.6743 201.715 -77.4905C232.114 -68.972 257.75 -54.8764 277.919 -35.5941C296.13 -18.1842 309.245 3.17277 315.847 26.1674C320.453 42.2087 321.834 58.4908 319.951 74.5622C318.059 90.7145 312.966 105.804 304.815 119.411C297.549 131.415 286.594 140.087 272.255 145.183C259.892 149.577 245.258 151.272 228.759 150.221C214.798 149.332 199.911 146.458 185.708 141.912C173.096 137.873 162.016 132.843 154.51 127.743C147.134 122.737 142.006 119.099 137.886 116.176C126.887 108.372 124.905 106.968 112.832 102.963C109.862 101.97 106.492 101.536 102.59 101.034C97.7868 100.416 92.3176 99.7118 86.4506 97.7054Z" fill="url(#paint2_linear_45_589)"/>
</mask>
<g mask="url(#mask2_45_589)">
<path d="M213.586 -74.5202C209.775 -75.8239 205.886 -77.0312 201.911 -78.145C173.116 -86.3838 151.153 -83.1944 134.768 -68.3943C120.49 -55.4977 112.36 -35.5122 105.186 -17.8793C99.9455 -4.99743 94.9955 7.1698 88.3591 15.0785C68.8496 39.5694 56.3186 43.6581 48.8317 46.1009C44.0667 47.6558 40.9189 48.6829 39.2338 53.9114C36.7419 60.9849 54.4727 77.9997 72.0026 90.811C83.2826 99.2344 93.9194 100.603 102.467 101.703C106.343 102.202 109.69 102.633 112.614 103.611L112.615 103.611C124.619 107.588 126.59 108.99 137.537 116.757C141.659 119.681 146.79 123.321 154.17 128.33C161.714 133.456 172.839 138.511 185.496 142.561C199.738 147.12 214.666 150.001 228.668 150.893C245.239 151.949 259.946 150.243 272.38 145.824C286.865 140.676 297.939 131.904 305.294 119.752C313.505 106.046 318.633 90.8504 320.539 74.5853C322.433 58.4148 321.045 42.0358 316.413 25.9032C309.781 2.80297 296.611 -18.6466 278.326 -36.1269C260.735 -52.9452 238.995 -65.8303 213.586 -74.5202ZM86.4506 97.7054C81.9484 96.1657 77.2119 93.8596 72.3594 90.2357C51.4817 74.9779 37.7833 59.7797 39.7854 54.0964C41.3563 49.2224 44.2117 48.2906 48.9422 46.7471C56.4972 44.2819 69.1417 40.1562 88.775 15.5098C95.4832 7.51557 100.456 -4.70754 105.72 -17.6484C112.862 -35.2038 120.957 -55.1015 135.108 -67.8834C151.325 -82.5317 173.113 -85.6743 201.715 -77.4905C232.114 -68.972 257.75 -54.8764 277.919 -35.5941C296.13 -18.1842 309.245 3.17277 315.847 26.1674C320.453 42.2087 321.834 58.4908 319.951 74.5622C318.059 90.7145 312.966 105.804 304.815 119.411C297.549 131.415 286.594 140.087 272.255 145.183C259.892 149.577 245.258 151.272 228.759 150.221C214.798 149.332 199.911 146.458 185.708 141.912C173.096 137.873 162.016 132.843 154.51 127.743C147.134 122.737 142.006 119.099 137.886 116.176C126.887 108.372 124.905 106.968 112.832 102.963C109.862 101.97 106.492 101.536 102.59 101.034C97.7868 100.416 92.3176 99.7118 86.4506 97.7054Z" fill="#C0C0C0"/>
</g>
<mask id="mask3_45_589" style="mask-type:alpha" maskUnits="userSpaceOnUse" x="52" y="-68" width="257" height="211">
<path d="M212.085 -60.1157C209.457 -61.0147 206.784 -61.8636 204.067 -62.6631C178.815 -70.3437 159.342 -68.186 144.536 -56.0655C131.588 -45.4647 124.133 -29.2365 116.923 -13.5427C111.626 -2.01238 106.623 8.87843 99.9264 15.9355C81.6509 36.8485 70.1033 40.7378 62.4618 43.3114C57.4197 45.0096 54.3765 46.0347 52.6587 51.1128C50.2214 57.5134 61.8375 73.1135 79.1085 86.6146C89.1089 94.7252 98.5703 96.4823 106.173 97.8944C109.081 98.4344 111.828 98.9446 114.258 99.7405L114.259 99.7408L115.492 100.139C129.664 104.71 130.821 105.084 155.18 121.152C162.022 125.674 172.438 130.368 183.753 134.035C196.769 138.25 210.372 140.987 223.091 141.951C238.203 143.096 251.615 141.759 262.953 137.976C276.179 133.564 286.314 125.864 293.077 115.092C300.636 102.846 305.44 89.2304 307.358 74.6227C309.265 60.0908 308.217 45.3537 304.241 30.8209C298.613 10.2491 287.194 -8.91392 271.219 -24.5958C255.331 -40.193 235.467 -52.1193 212.085 -60.1157ZM94.4039 94.3925C89.6887 92.78 84.6424 90.297 79.4545 86.0896C62.6539 72.9562 50.863 57.3504 53.1673 51.2989C54.7786 46.5354 57.7111 45.5478 62.5696 43.9113C69.8031 41.475 81.9097 37.3974 100.289 16.3648C107.057 9.2332 112.084 -1.71087 117.407 -13.2975C124.583 -28.9172 132.003 -45.0686 144.829 -55.5691C159.48 -67.5632 178.795 -69.6849 203.878 -62.0556C230.69 -54.1676 253.218 -41.3998 270.836 -24.1046C286.742 -8.48894 298.111 10.5863 303.712 31.0595C307.664 45.5061 308.707 60.1521 306.812 74.591C304.908 89.094 300.139 102.611 292.637 114.765C285.96 125.401 275.937 133.009 262.847 137.376C251.574 141.137 238.228 142.466 223.181 141.325C210.499 140.364 196.933 137.634 183.952 133.43C172.674 129.779 162.3 125.102 155.492 120.602C131.079 104.499 129.916 104.123 115.69 99.5341L114.458 99.1366C111.999 98.3312 109.237 97.8183 106.313 97.2753C102.715 96.6069 98.6968 95.8606 94.4039 94.3925Z" fill="url(#paint3_linear_45_589)"/>
</mask>
<g mask="url(#mask3_45_589)">
<path d="M212.085 -60.1157C209.457 -61.0147 206.784 -61.8636 204.067 -62.6631C178.815 -70.3437 159.342 -68.186 144.536 -56.0655C131.588 -45.4647 124.133 -29.2365 116.923 -13.5427C111.626 -2.01238 106.623 8.87843 99.9264 15.9355C81.6509 36.8485 70.1033 40.7378 62.4618 43.3114C57.4197 45.0096 54.3765 46.0347 52.6587 51.1128C50.2214 57.5134 61.8375 73.1135 79.1085 86.6146C89.1089 94.7252 98.5703 96.4823 106.173 97.8944C109.081 98.4344 111.828 98.9446 114.258 99.7405L114.259 99.7408L115.492 100.139C129.664 104.71 130.821 105.084 155.18 121.152C162.022 125.674 172.438 130.368 183.753 134.035C196.769 138.25 210.372 140.987 223.091 141.951C238.203 143.096 251.615 141.759 262.953 137.976C276.179 133.564 286.314 125.864 293.077 115.092C300.636 102.846 305.44 89.2304 307.358 74.6227C309.265 60.0908 308.217 45.3537 304.241 30.8209C298.613 10.2491 287.194 -8.91392 271.219 -24.5958C255.331 -40.193 235.467 -52.1193 212.085 -60.1157ZM94.4039 94.3925C89.6887 92.78 84.6424 90.297 79.4545 86.0896C62.6539 72.9562 50.863 57.3504 53.1673 51.2989C54.7786 46.5354 57.7111 45.5478 62.5696 43.9113C69.8031 41.475 81.9097 37.3974 100.289 16.3648C107.057 9.2332 112.084 -1.71087 117.407 -13.2975C124.583 -28.9172 132.003 -45.0686 144.829 -55.5691C159.48 -67.5632 178.795 -69.6849 203.878 -62.0556C230.69 -54.1676 253.218 -41.3998 270.836 -24.1046C286.742 -8.48894 298.111 10.5863 303.712 31.0595C307.664 45.5061 308.707 60.1521 306.812 74.591C304.908 89.094 300.139 102.611 292.637 114.765C285.96 125.401 275.937 133.009 262.847 137.376C251.574 141.137 238.228 142.466 223.181 141.325C210.499 140.364 196.933 137.634 183.952 133.43C172.674 129.779 162.3 125.102 155.492 120.602C131.079 104.499 129.916 104.123 115.69 99.5341L114.458 99.1366C111.999 98.3312 109.237 97.8183 106.313 97.2753C102.715 96.6069 98.6968 95.8606 94.4039 94.3925Z" fill="#C0C0C0"/>
</g>
<mask id="mask4_45_589" style="mask-type:alpha" maskUnits="userSpaceOnUse" x="65" y="-52" width="231" height="186">
<path d="M210.58 -45.7557C209.142 -46.2475 207.691 -46.7223 206.222 -47.1807C157.475 -63.1487 142.179 -34.3668 128.683 -8.97338C123.324 1.10931 118.263 10.6326 111.494 16.7935C94.5356 34.1412 83.5139 37.9482 76.2206 40.4673C70.9995 42.2706 67.848 43.3592 66.0824 48.3143C64.8203 51.3976 66.1407 56.7687 69.7111 63.0356C73.5022 69.6901 79.3626 76.5733 86.2127 82.4175C95.158 90.4957 103.299 92.5608 110.482 94.3829C112.388 94.8664 114.188 95.3231 115.901 95.8702L115.903 95.8706C118.487 96.68 120.758 97.3283 122.761 97.9004C132.015 100.542 137.6 102.137 156.19 113.975C168.039 121.542 192.283 130.726 217.512 133.009C231.167 134.244 243.284 133.275 253.524 130.128C265.492 126.451 274.688 119.825 280.858 110.432C287.77 99.6437 292.254 87.607 294.188 74.6531C296.113 61.7557 295.406 48.6561 292.087 35.7184C287.458 17.6755 277.786 0.802 264.116 -13.0784C249.947 -27.4667 231.952 -38.4468 210.58 -45.7557ZM102.918 91.6201C97.8288 89.8796 92.3576 87.1902 86.5496 81.9452C71.8321 69.3891 64.1979 54.2429 66.5484 48.4998C68.2155 43.8222 71.2675 42.768 76.3239 41.0214C83.6655 38.4857 94.76 34.6535 111.802 17.2198C118.64 10.9968 123.727 1.42404 129.114 -8.71068C135.949 -21.5718 143.017 -34.8705 154.505 -43.1469C167.575 -52.5624 184.432 -53.6987 206.04 -46.6206C229.265 -39.3696 248.684 -27.9328 263.755 -12.6288C277.363 1.18857 286.989 17.9798 291.594 35.9299C294.893 48.7868 295.596 61.8011 293.684 74.6119C291.765 87.4694 287.315 99.4155 280.457 110.118C272.539 122.173 255.205 135.832 217.602 132.43C192.445 130.154 168.279 121.002 156.473 113.461C137.829 101.59 132.221 99.9888 122.931 97.3364C120.93 96.7651 118.663 96.1176 116.084 95.31C114.358 94.7589 112.552 94.3008 110.64 93.8157C108.177 93.1911 105.6 92.5374 102.918 91.6201Z" fill="url(#paint4_linear_45_589)"/>
</mask>
<g mask="url(#mask4_45_589)">
<path d="M210.58 -45.7557C209.142 -46.2475 207.691 -46.7223 206.222 -47.1807C157.475 -63.1487 142.179 -34.3668 128.683 -8.97338C123.324 1.10931 118.263 10.6326 111.494 16.7935C94.5356 34.1412 83.5139 37.9482 76.2206 40.4673C70.9995 42.2706 67.848 43.3592 66.0824 48.3143C64.8203 51.3976 66.1407 56.7687 69.7111 63.0356C73.5022 69.6901 79.3626 76.5733 86.2127 82.4175C95.158 90.4957 103.299 92.5608 110.482 94.3829C112.388 94.8664 114.188 95.3231 115.901 95.8702L115.903 95.8706C118.487 96.68 120.758 97.3283 122.761 97.9004C132.015 100.542 137.6 102.137 156.19 113.975C168.039 121.542 192.283 130.726 217.512 133.009C231.167 134.244 243.284 133.275 253.524 130.128C265.492 126.451 274.688 119.825 280.858 110.432C287.77 99.6437 292.254 87.607 294.188 74.6531C296.113 61.7557 295.406 48.6561 292.087 35.7184C287.458 17.6755 277.786 0.802 264.116 -13.0784C249.947 -27.4667 231.952 -38.4468 210.58 -45.7557ZM102.918 91.6201C97.8288 89.8796 92.3576 87.1902 86.5496 81.9452C71.8321 69.3891 64.1979 54.2429 66.5484 48.4998C68.2155 43.8222 71.2675 42.768 76.3239 41.0214C83.6655 38.4857 94.76 34.6535 111.802 17.2198C118.64 10.9968 123.727 1.42404 129.114 -8.71068C135.949 -21.5718 143.017 -34.8705 154.505 -43.1469C167.575 -52.5624 184.432 -53.6987 206.04 -46.6206C229.265 -39.3696 248.684 -27.9328 263.755 -12.6288C277.363 1.18857 286.989 17.9798 291.594 35.9299C294.893 48.7868 295.596 61.8011 293.684 74.6119C291.765 87.4694 287.315 99.4155 280.457 110.118C272.539 122.173 255.205 135.832 217.602 132.43C192.445 130.154 168.279 121.002 156.473 113.461C137.829 101.59 132.221 99.9888 122.931 97.3364C120.93 96.7651 118.663 96.1176 116.084 95.31C114.358 94.7589 112.552 94.3008 110.64 93.8157C108.177 93.1911 105.6 92.5374 102.918 91.6201Z" fill="#C0C0C0"/>
</g>
<mask id="mask5_45_589" style="mask-type:alpha" maskUnits="userSpaceOnUse" x="78" y="-37" width="205" height="162">
<path d="M206.822 -32.2444C189.237 -38.258 175.191 -37.8662 163.925 -31.0569C153.677 -24.8632 146.952 -14.3059 140.449 -4.09656C135.03 4.4111 129.911 12.4469 123.064 17.6529C107.553 31.4532 97.105 35.1159 90.1912 37.5395C84.675 39.4735 81.3454 40.6407 79.5073 45.5161C76.6824 51.9668 81.9838 67.3324 93.3165 78.2183C101.873 87.1695 109.419 89.4954 116.718 91.7442L117.547 92C121.071 93.0633 124.1 93.7284 127.029 94.3718C134.88 96.0961 142.296 97.7252 157.201 106.797C168.051 113.428 189.806 121.661 211.934 124.066C230.584 126.093 255.56 124.565 268.64 105.772C281.178 87.1195 285.304 63.3617 279.963 40.5863C276.325 25.0743 268.393 10.4933 257.022 -1.58043C244.592 -14.7806 228.46 -24.8327 209.069 -31.4644C208.839 -31.543 208.61 -31.6207 208.379 -31.6986C207.857 -31.886 207.338 -32.0679 206.822 -32.2444ZM112.506 89.8296C106.601 87.81 100.443 84.9118 93.6467 77.8028C81.5317 66.1653 77.4946 51.263 79.9308 45.6993C81.6776 41.0675 84.9188 39.9313 90.2885 38.0487C97.2389 35.6122 107.742 31.93 123.314 18.0743C130.226 12.8203 135.372 4.74124 140.821 -3.8123C147.288 -13.9652 153.975 -24.4634 164.113 -30.5907C175.586 -37.5252 190.002 -37.7165 208.202 -31.1864C208.431 -31.1092 208.662 -31.0308 208.89 -30.9529C228.224 -24.3409 244.298 -14.3258 256.683 -1.17385C267.997 10.8403 275.89 25.3444 279.508 40.7704C282.152 52.044 282.511 63.4333 280.576 74.6219C278.637 85.8391 274.499 96.2184 268.279 105.471C255.35 124.048 230.551 125.548 212.024 123.534C189.956 121.136 168.268 112.93 157.454 106.321C142.493 97.2143 135.045 95.5788 127.161 93.847C124.24 93.2052 121.218 92.5416 117.709 91.4829L116.882 91.2276C115.435 90.782 113.978 90.333 112.506 89.8296Z" fill="url(#paint5_linear_45_589)"/>
</mask>
<g mask="url(#mask5_45_589)">
<path d="M206.822 -32.2444C189.237 -38.258 175.191 -37.8662 163.925 -31.0569C153.677 -24.8632 146.952 -14.3059 140.449 -4.09656C135.03 4.4111 129.911 12.4469 123.064 17.6529C107.553 31.4532 97.105 35.1159 90.1912 37.5395C84.675 39.4735 81.3454 40.6407 79.5073 45.5161C76.6824 51.9668 81.9838 67.3324 93.3165 78.2183C101.873 87.1695 109.419 89.4954 116.718 91.7442L117.547 92C121.071 93.0633 124.1 93.7284 127.029 94.3718C134.88 96.0961 142.296 97.7252 157.201 106.797C168.051 113.428 189.806 121.661 211.934 124.066C230.584 126.093 255.56 124.565 268.64 105.772C281.178 87.1195 285.304 63.3617 279.963 40.5863C276.325 25.0743 268.393 10.4933 257.022 -1.58043C244.592 -14.7806 228.46 -24.8327 209.069 -31.4644C208.839 -31.543 208.61 -31.6207 208.379 -31.6986C207.857 -31.886 207.338 -32.0679 206.822 -32.2444ZM112.506 89.8296C106.601 87.81 100.443 84.9118 93.6467 77.8028C81.5317 66.1653 77.4946 51.263 79.9308 45.6993C81.6776 41.0675 84.9188 39.9313 90.2885 38.0487C97.2389 35.6122 107.742 31.93 123.314 18.0743C130.226 12.8203 135.372 4.74124 140.821 -3.8123C147.288 -13.9652 153.975 -24.4634 164.113 -30.5907C175.586 -37.5252 190.002 -37.7165 208.202 -31.1864C208.431 -31.1092 208.662 -31.0308 208.89 -30.9529C228.224 -24.3409 244.298 -14.3258 256.683 -1.17385C267.997 10.8403 275.89 25.3444 279.508 40.7704C282.152 52.044 282.511 63.4333 280.576 74.6219C278.637 85.8391 274.499 96.2184 268.279 105.471C255.35 124.048 230.551 125.548 212.024 123.534C189.956 121.136 168.268 112.93 157.454 106.321C142.493 97.2143 135.045 95.5788 127.161 93.847C124.24 93.2052 121.218 92.5416 117.709 91.4829L116.882 91.2276C115.435 90.782 113.978 90.333 112.506 89.8296Z" fill="#C0C0C0"/>
</g>
<mask id="mask6_45_589" style="mask-type:alpha" maskUnits="userSpaceOnUse" x="91" y="-22" width="179" height="139">
<path d="M205.894 -17.9499C193.032 -22.3488 182.391 -22.4621 173.47 -18.3185C164.59 -14.1934 158.271 -6.36999 152.161 1.19587C146.941 7.65956 141.543 14.3437 134.634 18.5148C120.793 28.7954 111.012 32.2134 104.539 34.4753C98.5177 36.5795 94.8831 37.8496 92.9315 42.718C90.1094 48.7666 91.6171 63.9789 100.418 74.0158C106.387 81.7676 112.003 85.9901 119.189 88.1292L119.19 88.1296C123.017 89.2315 126.482 89.7369 130.15 90.272C137.903 91.4032 145.92 92.5724 158.211 99.6194C168.124 105.335 187.418 112.625 206.355 115.124C222.766 117.289 244.772 116.616 256.42 101.113C267.73 85.3332 271.908 65.0325 267.888 45.4112C265.229 32.4316 259.024 20.1476 249.943 9.88737C239.899 -1.46168 226.64 -10.244 210.536 -16.2156C208.958 -16.8531 207.409 -17.4316 205.894 -17.9499ZM118.067 87.2515C111.558 85.0254 106.313 80.8946 100.745 73.6649C92.0616 63.7614 90.5455 48.8299 93.3133 42.8972C95.1798 38.2417 98.5356 37.0691 104.627 34.9403C111.126 32.6695 120.946 29.2381 134.824 18.9278C141.788 14.7245 147.216 8.00432 152.464 1.50555C158.538 -6.01473 164.819 -13.7912 173.598 -17.8695C183.464 -22.4522 195.488 -21.7582 210.362 -15.7524C226.414 -9.7998 239.623 -1.05228 249.625 10.2496C258.656 20.4535 264.827 32.6653 267.469 45.5651C271.459 65.0364 267.315 85.1772 256.102 100.823C244.595 116.138 222.747 116.79 206.446 114.639C187.558 112.147 168.318 104.878 158.434 99.1798C146.083 92.0981 138.032 90.9237 130.246 89.7882C126.59 89.2549 123.137 88.7512 119.334 87.656C118.906 87.5288 118.484 87.394 118.067 87.2515Z" fill="url(#paint6_linear_45_589)"/>
</mask>
<g mask="url(#mask6_45_589)">
<path d="M205.894 -17.9499C193.032 -22.3488 182.391 -22.4621 173.47 -18.3185C164.59 -14.1934 158.271 -6.36999 152.161 1.19587C146.941 7.65956 141.543 14.3437 134.634 18.5148C120.793 28.7954 111.012 32.2134 104.539 34.4753C98.5177 36.5795 94.8831 37.8496 92.9315 42.718C90.1094 48.7666 91.6171 63.9789 100.418 74.0158C106.387 81.7676 112.003 85.9901 119.189 88.1292L119.19 88.1296C123.017 89.2315 126.482 89.7369 130.15 90.272C137.903 91.4032 145.92 92.5724 158.211 99.6194C168.124 105.335 187.418 112.625 206.355 115.124C222.766 117.289 244.772 116.616 256.42 101.113C267.73 85.3332 271.908 65.0325 267.888 45.4112C265.229 32.4316 259.024 20.1476 249.943 9.88737C239.899 -1.46168 226.64 -10.244 210.536 -16.2156C208.958 -16.8531 207.409 -17.4316 205.894 -17.9499ZM118.067 87.2515C111.558 85.0254 106.313 80.8946 100.745 73.6649C92.0616 63.7614 90.5455 48.8299 93.3133 42.8972C95.1798 38.2417 98.5356 37.0691 104.627 34.9403C111.126 32.6695 120.946 29.2381 134.824 18.9278C141.788 14.7245 147.216 8.00432 152.464 1.50555C158.538 -6.01473 164.819 -13.7912 173.598 -17.8695C183.464 -22.4522 195.488 -21.7582 210.362 -15.7524C226.414 -9.7998 239.623 -1.05228 249.625 10.2496C258.656 20.4535 264.827 32.6653 267.469 45.5651C271.459 65.0364 267.315 85.1772 256.102 100.823C244.595 116.138 222.747 116.79 206.446 114.639C187.558 112.147 168.318 104.878 158.434 99.1798C146.083 92.0981 138.032 90.9237 130.246 89.7882C126.59 89.2549 123.137 88.7512 119.334 87.656C118.906 87.5288 118.484 87.394 118.067 87.2515Z" fill="#C0C0C0"/>
</g>
<mask id="mask7_45_589" style="mask-type:alpha" maskUnits="userSpaceOnUse" x="103" y="-7" width="154" height="115">
<path d="M204.861 -3.94512C184.14 -11.0319 174.143 -2.218 163.624 7.05555C158.436 11.6288 153.072 16.3582 146.204 19.3804C134.46 26.1915 125.91 29.0662 119.667 31.1652C112.466 33.5864 108.5 34.9203 106.356 39.9204C104.732 43.1989 103.681 48.5355 103.618 53.8349C103.542 60.2402 104.927 65.9126 107.518 69.8073C111.343 76.9393 114.758 82.5416 120.833 84.2588L120.835 84.2592C124.679 85.3026 128.653 85.5925 132.861 85.8995C140.455 86.4536 149.062 87.082 159.222 92.442C166.249 96.1777 182.911 103.275 200.777 106.181C210.072 107.692 218.301 107.828 225.237 106.584C233.43 105.115 239.81 101.707 244.199 96.4552C254.327 83.5422 258.592 66.6737 255.905 50.1693C254.204 39.7232 249.705 29.7426 242.896 21.3065C235.366 11.9772 225.204 4.56234 212.694 -0.732297C209.92 -2.04331 207.315 -3.10585 204.861 -3.94512ZM120.297 83.623C114.759 81.7288 111.496 76.3402 107.846 69.5358C101.923 60.6307 103.951 45.6381 106.696 40.0938C108.76 35.2802 112.661 33.9685 119.743 31.5873C126.002 29.483 134.573 26.601 146.333 19.7796C153.24 16.7414 158.63 11.9894 163.843 7.39392C169.786 2.15438 175.4 -2.79463 182.84 -4.96154C191.224 -7.40348 200.655 -5.92804 212.522 -0.319594C224.987 4.95613 235.104 12.3374 242.598 21.6216C249.364 30.0042 253.833 39.9176 255.522 50.2902C258.187 66.656 253.96 83.3803 243.925 96.1746C239.609 101.339 233.312 104.697 225.214 106.149C218.317 107.385 210.126 107.249 200.868 105.744C183.044 102.845 166.425 95.7653 159.414 92.0388C149.194 86.6464 140.55 86.0154 132.923 85.4592C128.733 85.1535 124.774 84.8646 120.96 83.8296C120.735 83.7661 120.514 83.6972 120.297 83.623Z" fill="url(#paint7_linear_45_589)"/>
</mask>
<g mask="url(#mask7_45_589)">
<path d="M204.861 -3.94512C184.14 -11.0319 174.143 -2.218 163.624 7.05555C158.436 11.6288 153.072 16.3582 146.204 19.3804C134.46 26.1915 125.91 29.0662 119.667 31.1652C112.466 33.5864 108.5 34.9203 106.356 39.9204C104.732 43.1989 103.681 48.5355 103.618 53.8349C103.542 60.2402 104.927 65.9126 107.518 69.8073C111.343 76.9393 114.758 82.5416 120.833 84.2588L120.835 84.2592C124.679 85.3026 128.653 85.5925 132.861 85.8995C140.455 86.4536 149.062 87.082 159.222 92.442C166.249 96.1777 182.911 103.275 200.777 106.181C210.072 107.692 218.301 107.828 225.237 106.584C233.43 105.115 239.81 101.707 244.199 96.4552C254.327 83.5422 258.592 66.6737 255.905 50.1693C254.204 39.7232 249.705 29.7426 242.896 21.3065C235.366 11.9772 225.204 4.56234 212.694 -0.732297C209.92 -2.04331 207.315 -3.10585 204.861 -3.94512ZM120.297 83.623C114.759 81.7288 111.496 76.3402 107.846 69.5358C101.923 60.6307 103.951 45.6381 106.696 40.0938C108.76 35.2802 112.661 33.9685 119.743 31.5873C126.002 29.483 134.573 26.601 146.333 19.7796C153.24 16.7414 158.63 11.9894 163.843 7.39392C169.786 2.15438 175.4 -2.79463 182.84 -4.96154C191.224 -7.40348 200.655 -5.92804 212.522 -0.319594C224.987 4.95613 235.104 12.3374 242.598 21.6216C249.364 30.0042 253.833 39.9176 255.522 50.2902C258.187 66.656 253.96 83.3803 243.925 96.1746C239.609 101.339 233.312 104.697 225.214 106.149C218.317 107.385 210.126 107.249 200.868 105.744C183.044 102.845 166.425 95.7653 159.414 92.0388C149.194 86.6464 140.55 86.0154 132.923 85.4592C128.733 85.1535 124.774 84.8646 120.96 83.8296C120.735 83.7661 120.514 83.6972 120.297 83.623Z" fill="#C0C0C0"/>
</g>
<mask id="mask8_45_589" style="mask-type:alpha" maskUnits="userSpaceOnUse" x="113" y="7" width="132" height="93">
<path d="M203.662 9.42259C191.147 5.14177 183.367 9.00193 174.039 13.6285C169.17 16.0433 164.135 18.5407 157.773 20.2507C149.106 23.7039 142.305 25.7256 136.839 27.3501C127.462 30.1374 122.297 31.6726 119.78 37.1234C116.652 43.0933 111.752 58.0588 114.611 65.5726C114.741 66.1282 114.868 66.6876 114.995 67.2467C116.323 73.0891 117.698 79.1303 122.477 80.3884L122.478 80.3886C126.211 81.3256 130.72 81.3411 135.494 81.3576C143.218 81.3843 151.972 81.4142 160.234 85.2647C169.164 89.4684 214.591 109.54 231.975 91.7992C241.012 81.7507 245.432 68.2745 244.107 54.8199C243.316 46.7921 240.562 39.3295 235.922 32.6394C230.866 25.3487 223.777 19.3306 214.854 14.753C210.704 12.2986 207.013 10.5684 203.662 9.42259ZM122.16 79.8745C117.901 78.418 116.596 72.6744 115.332 67.1135C115.204 66.5492 115.076 65.9845 114.944 65.4238L114.937 65.3986C112.115 58.0145 116.977 43.2111 120.08 37.2891C122.52 32.0044 127.626 30.4867 136.896 27.7316C142.367 26.1051 149.177 24.081 157.84 20.628C164.216 18.9155 169.266 16.4104 174.151 13.9877C185.889 8.16588 195.161 3.5677 214.678 15.1112C223.564 19.6702 230.614 25.6544 235.641 32.902C240.245 39.5402 242.977 46.9418 243.761 54.9014C245.073 68.2291 240.696 81.5775 231.751 91.524C224.825 98.5923 212.555 100.386 195.291 96.8488C180.094 93.7354 165.823 87.4538 160.393 84.8974C152.073 81.0209 143.284 80.9898 135.529 80.9628C130.774 80.9464 126.283 80.9309 122.585 80.0028C122.44 79.9647 122.298 79.9218 122.16 79.8745Z" fill="url(#paint8_linear_45_589)"/>
</mask>
<g mask="url(#mask8_45_589)">
<path d="M203.662 9.42259C191.147 5.14177 183.367 9.00193 174.039 13.6285C169.17 16.0433 164.135 18.5407 157.773 20.2507C149.106 23.7039 142.305 25.7256 136.839 27.3501C127.462 30.1374 122.297 31.6726 119.78 37.1234C116.652 43.0933 111.752 58.0588 114.611 65.5726C114.741 66.1282 114.868 66.6876 114.995 67.2467C116.323 73.0891 117.698 79.1303 122.477 80.3884L122.478 80.3886C126.211 81.3256 130.72 81.3411 135.494 81.3576C143.218 81.3843 151.972 81.4142 160.234 85.2647C169.164 89.4684 214.591 109.54 231.975 91.7992C241.012 81.7507 245.432 68.2745 244.107 54.8199C243.316 46.7921 240.562 39.3295 235.922 32.6394C230.866 25.3487 223.777 19.3306 214.854 14.753C210.704 12.2986 207.013 10.5684 203.662 9.42259ZM122.16 79.8745C117.901 78.418 116.596 72.6744 115.332 67.1135C115.204 66.5492 115.076 65.9845 114.944 65.4238L114.937 65.3986C112.115 58.0145 116.977 43.2111 120.08 37.2891C122.52 32.0044 127.626 30.4867 136.896 27.7316C142.367 26.1051 149.177 24.081 157.84 20.628C164.216 18.9155 169.266 16.4104 174.151 13.9877C185.889 8.16588 195.161 3.5677 214.678 15.1112C223.564 19.6702 230.614 25.6544 235.641 32.902C240.245 39.5402 242.977 46.9418 243.761 54.9014C245.073 68.2291 240.696 81.5775 231.751 91.524C224.825 98.5923 212.555 100.386 195.291 96.8488C180.094 93.7354 165.823 87.4538 160.393 84.8974C152.073 81.0209 143.284 80.9898 135.529 80.9628C130.774 80.9464 126.283 80.9309 122.585 80.0028C122.44 79.9647 122.298 79.9218 122.16 79.8745Z" fill="#C0C0C0"/>
</g>
<mask id="mask9_45_589" style="mask-type:alpha" maskUnits="userSpaceOnUse" x="120" y="19" width="113" height="72">
<path d="M201.818 20.9147C194.418 18.3841 187.521 19.158 177.985 20.2278C175.275 20.5319 172.473 20.8463 169.339 21.1263C167.004 21.581 164.819 21.9984 162.762 22.3911C144.862 25.8093 136.693 27.3695 133.205 34.3271C130.396 39.4097 121.84 54.8904 121.722 61.3185C120.592 67.866 119.853 75.5043 124.121 76.518L124.122 76.5182C127.694 77.3223 132.857 77.0005 138.323 76.6597C146.032 76.1792 154.768 75.6357 161.248 78.0879C162.479 78.5604 163.943 79.1521 165.638 79.8373C172.583 82.6441 183.078 86.8858 193.301 89.2061C205.533 91.9823 214.431 91.2889 219.746 87.1452C227.77 80.098 232.633 69.6959 232.764 59.3129C232.909 47.7999 227.317 37.476 217.019 30.2424C211.248 25.3596 206.436 22.4938 201.818 20.9147ZM123.901 76.0873C120.207 74.8238 120.948 67.5734 122.026 61.3371L122.029 61.3061C122.131 54.9889 130.661 39.5549 133.464 34.4833C136.873 27.6824 144.993 26.1318 162.784 22.7346C164.841 22.3416 167.026 21.9244 169.347 21.4715C172.47 21.1933 175.274 20.8788 177.985 20.5745C193.398 18.8454 201.888 17.8931 216.83 30.5363C227.054 37.7184 232.601 47.946 232.457 59.3423C232.328 69.6121 227.515 79.9031 219.582 86.8709C214.351 90.9481 205.536 91.621 193.39 88.8643C183.186 86.5481 172.703 82.3115 165.765 79.5076C164.069 78.8221 162.604 78.2301 161.371 77.7564C154.836 75.2837 146.072 75.8298 138.336 76.3119C132.891 76.6515 127.747 76.972 124.211 76.1766C124.105 76.1513 124.001 76.1215 123.901 76.0873Z" fill="url(#paint9_linear_45_589)"/>
</mask>
<g mask="url(#mask9_45_589)">
<path d="M201.818 20.9147C194.418 18.3841 187.521 19.158 177.985 20.2278C175.275 20.5319 172.473 20.8463 169.339 21.1263C167.004 21.581 164.819 21.9984 162.762 22.3911C144.862 25.8093 136.693 27.3695 133.205 34.3271C130.396 39.4097 121.84 54.8904 121.722 61.3185C120.592 67.866 119.853 75.5043 124.121 76.518L124.122 76.5182C127.694 77.3223 132.857 77.0005 138.323 76.6597C146.032 76.1792 154.768 75.6357 161.248 78.0879C162.479 78.5604 163.943 79.1521 165.638 79.8373C172.583 82.6441 183.078 86.8858 193.301 89.2061C205.533 91.9823 214.431 91.2889 219.746 87.1452C227.77 80.098 232.633 69.6959 232.764 59.3129C232.909 47.7999 227.317 37.476 217.019 30.2424C211.248 25.3596 206.436 22.4938 201.818 20.9147ZM123.901 76.0873C120.207 74.8238 120.948 67.5734 122.026 61.3371L122.029 61.3061C122.131 54.9889 130.661 39.5549 133.464 34.4833C136.873 27.6824 144.993 26.1318 162.784 22.7346C164.841 22.3416 167.026 21.9244 169.347 21.4715C172.47 21.1933 175.274 20.8788 177.985 20.5745C193.398 18.8454 201.888 17.8931 216.83 30.5363C227.054 37.7184 232.601 47.946 232.457 59.3423C232.328 69.6121 227.515 79.9031 219.582 86.8709C214.351 90.9481 205.536 91.621 193.39 88.8643C183.186 86.5481 172.703 82.3115 165.765 79.5076C164.069 78.8221 162.604 78.2301 161.371 77.7564C154.836 75.2837 146.072 75.8298 138.336 76.3119C132.891 76.6515 127.747 76.972 124.211 76.1766C124.105 76.1513 124.001 76.1215 123.901 76.0873Z" fill="#C0C0C0"/>
</g>
<mask id="mask10_45_589" style="mask-type:alpha" maskUnits="userSpaceOnUse" x="124" y="21" width="100" height="63">
<path d="M195.615 25.0228C191.312 23.551 186.432 22.5536 180.9 22.0072C160.927 21.3136 150.681 24.1622 146.629 31.5315C144.681 34.8823 140.216 41.058 136.277 46.5067C133.158 50.8211 130.212 54.8962 128.869 57.07C127.532 58.852 126.171 61.5172 125.238 64.1866C124.216 67.1103 123.866 69.5405 124.252 71.03C124.49 71.9495 125 72.4931 125.766 72.6477L125.767 72.6478C129.204 73.3057 135.339 72.536 141.836 71.7212C149.555 70.7531 157.537 69.7519 162.265 70.9107C164.834 71.5523 168.695 73.1573 173.167 75.0157C184.265 79.6286 199.467 85.9473 207.506 82.4915C214.974 78.6412 220.814 71.4954 222.757 63.8387C224.39 57.4059 223.158 51.1504 219.195 45.7486C215.082 38.4183 210.604 33.2931 205.11 29.6331C202.308 27.7663 199.157 26.2339 195.615 25.0228ZM125.62 72.2917C125.069 72.1032 124.695 71.6427 124.508 70.9191C123.72 67.8812 126.36 60.858 129.073 57.2393C130.418 55.0633 133.36 50.9931 136.476 46.684C140.42 41.2288 144.89 35.0456 146.849 31.6762C150.838 24.4198 161.009 21.6193 180.858 22.3084C190.897 23.3003 198.783 25.7825 204.959 29.8975C210.421 33.5357 214.874 38.634 218.975 45.9415C222.893 51.2833 224.11 57.448 222.502 63.7821C220.583 71.346 214.806 78.4087 207.426 82.2144C199.489 85.6253 184.341 79.3286 173.279 74.731C168.8 72.869 164.931 71.2608 162.346 70.6154C157.576 69.4466 149.573 70.4504 141.833 71.4212C135.355 72.2336 129.237 73.001 125.836 72.3499C125.761 72.3349 125.689 72.3154 125.62 72.2917Z" fill="url(#paint10_linear_45_589)"/>
</mask>
<g mask="url(#mask10_45_589)">
<path d="M195.616 25.0228C191.312 23.551 186.432 22.5536 180.9 22.0072C160.928 21.3136 150.681 24.1622 146.63 31.5315C144.681 34.8823 140.216 41.058 136.277 46.5067C133.158 50.8211 130.212 54.8962 128.869 57.07C127.532 58.852 126.172 61.5172 125.239 64.1866C124.216 67.1103 123.866 69.5405 124.252 71.03C124.49 71.9495 125 72.4931 125.766 72.6477L125.767 72.6478C129.204 73.3057 135.34 72.536 141.836 71.7212C149.555 70.7531 157.537 69.7519 162.265 70.9107C164.834 71.5523 168.695 73.1573 173.167 75.0157C184.265 79.6286 199.467 85.9473 207.507 82.4915C214.974 78.6412 220.814 71.4954 222.757 63.8387C224.39 57.4059 223.158 51.1504 219.195 45.7486C215.082 38.4183 210.604 33.2931 205.11 29.6331C202.308 27.7663 199.157 26.2339 195.616 25.0228ZM125.62 72.2917C125.069 72.1032 124.695 71.6427 124.508 70.9191C123.721 67.8812 126.36 60.858 129.073 57.2393C130.418 55.0633 133.361 50.9931 136.476 46.684C140.42 41.2288 144.89 35.0456 146.849 31.6762C150.838 24.4198 161.009 21.6193 180.858 22.3084C190.897 23.3003 198.783 25.7825 204.96 29.8975C210.421 33.5357 214.874 38.634 218.975 45.9415C222.893 51.2833 224.11 57.448 222.502 63.7821C220.583 71.346 214.806 78.4087 207.426 82.2144C199.49 85.6253 184.341 79.3286 173.279 74.731C168.8 72.869 164.932 71.2608 162.346 70.6154C157.576 69.4466 149.573 70.4504 141.833 71.4212C135.355 72.2336 129.237 73.001 125.836 72.3499C125.761 72.3349 125.689 72.3154 125.62 72.2917Z" fill="#C0C0C0"/>
</g>
<mask id="mask11_45_589" style="mask-type:alpha" maskUnits="userSpaceOnUse" x="126" y="20" width="96" height="58">
<path d="M194.082 23.4108C193.542 23.2264 193 23.0534 192.452 22.8911C183.545 20.2517 176.092 19.7175 170.299 21.3035C165.751 22.5487 162.304 25.0497 160.053 28.7369C156.368 34.7742 141.998 49.2064 136.029 52.8655C133.805 54.229 131.369 56.9126 129.346 60.2281C127.516 63.228 126.418 66.1379 126.548 67.6418C126.606 68.3107 126.906 68.7031 127.411 68.7769C130.948 69.2924 139.559 67.6562 147.887 66.074C154.344 64.847 160.443 63.688 163.288 63.7315C166.514 63.7805 172.204 66.9367 178.228 70.2782C184.434 73.7203 190.851 77.2802 195.249 77.8242C199.85 78.3935 205.77 77.0668 210.698 74.3615C216.458 71.1998 220.243 66.5712 221.358 61.3285C222.662 55.1934 220.49 47.1782 215.548 39.8876C210.321 32.1752 202.745 26.3737 194.082 23.4108ZM127.307 68.487C126.99 68.3786 126.815 68.0842 126.772 67.5922C126.52 64.6782 131.227 56.0871 136.12 53.0878C142.111 49.4152 156.534 34.9286 160.234 28.8678C162.448 25.2414 165.845 22.78 170.331 21.5517C176.087 19.9759 183.504 20.5099 192.376 23.1388C201.672 25.8929 209.838 31.9018 215.365 40.0554C220.196 47.1828 222.408 55.3203 221.139 61.2923C220.043 66.4501 216.306 71.0105 210.617 74.1335C205.727 76.8177 199.856 78.1345 195.295 77.5702C190.933 77.0302 184.532 73.4801 178.343 70.0464C172.297 66.6933 166.588 63.5258 163.313 63.476C160.448 63.4324 154.339 64.5931 147.871 65.8221C139.56 67.4013 130.966 69.0343 127.461 68.5236C127.406 68.5155 127.355 68.5034 127.307 68.487Z" fill="url(#paint11_linear_45_589)"/>
</mask>
<g mask="url(#mask11_45_589)">
<path d="M194.082 23.4108C193.542 23.2264 193 23.0534 192.452 22.8911C183.545 20.2517 176.092 19.7175 170.299 21.3035C165.751 22.5487 162.304 25.0497 160.053 28.7369C156.368 34.7742 141.998 49.2064 136.029 52.8655C133.805 54.229 131.369 56.9126 129.346 60.2281C127.516 63.228 126.418 66.1379 126.548 67.6418C126.606 68.3107 126.906 68.7031 127.411 68.7769C130.948 69.2924 139.559 67.6562 147.887 66.074C154.344 64.847 160.443 63.688 163.288 63.7315C166.514 63.7805 172.204 66.9367 178.228 70.2782C184.434 73.7203 190.851 77.2802 195.249 77.8242C199.85 78.3935 205.77 77.0668 210.698 74.3615C216.458 71.1998 220.243 66.5712 221.358 61.3285C222.662 55.1934 220.49 47.1782 215.548 39.8876C210.321 32.1752 202.745 26.3737 194.082 23.4108ZM127.307 68.487C126.99 68.3786 126.815 68.0842 126.772 67.5922C126.52 64.6782 131.227 56.0871 136.12 53.0878C142.111 49.4152 156.534 34.9286 160.234 28.8678C162.448 25.2414 165.845 22.78 170.331 21.5517C176.087 19.9759 183.504 20.5099 192.376 23.1388C201.672 25.8929 209.838 31.9018 215.365 40.0554C220.196 47.1828 222.408 55.3203 221.139 61.2923C220.043 66.4501 216.306 71.0105 210.617 74.1335C205.727 76.8177 199.856 78.1345 195.295 77.5702C190.933 77.0302 184.532 73.4801 178.343 70.0464C172.297 66.6933 166.588 63.5258 163.313 63.476C160.448 63.4324 154.339 64.5931 147.871 65.8221C139.56 67.4013 130.966 69.0343 127.461 68.5236C127.406 68.5155 127.355 68.5034 127.307 68.487Z" fill="#C0C0C0"/>
</g>
</g>
<defs>
<linearGradient id="paint0_linear_45_589" x1="41.9123" y1="-26.88" x2="349.626" y2="78.3526" gradientUnits="userSpaceOnUse">
<stop stop-color="white"/>
<stop offset="0.0436152" stop-color="#B4B4B4"/>
<stop offset="0.150732"/>
<stop offset="0.171421" stop-color="#171717"/>
<stop offset="0.385884" stop-color="white"/>
<stop offset="0.632551" stop-color="#E6E6E6"/>
<stop offset="0.856667" stop-color="#1A1A1A"/>
<stop offset="0.998739"/>
</linearGradient>
<linearGradient id="paint1_linear_45_589" x1="52.0065" y1="-19.9149" x2="336.198" y2="77.2733" gradientUnits="userSpaceOnUse">
<stop stop-color="white"/>
<stop offset="0.0436152" stop-color="#B4B4B4"/>
<stop offset="0.150732"/>
<stop offset="0.171421" stop-color="#171717"/>
<stop offset="0.385884" stop-color="white"/>
<stop offset="0.632551" stop-color="#E6E6E6"/>
<stop offset="0.856667" stop-color="#1A1A1A"/>
<stop offset="0.998739"/>
</linearGradient>
<linearGradient id="paint2_linear_45_589" x1="62.1007" y1="-12.9624" x2="322.785" y2="76.1871" gradientUnits="userSpaceOnUse">
<stop stop-color="white"/>
<stop offset="0.0436152" stop-color="#B4B4B4"/>
<stop offset="0.150732"/>
<stop offset="0.171421" stop-color="#171717"/>
<stop offset="0.385884" stop-color="white"/>
<stop offset="0.632551" stop-color="#E6E6E6"/>
<stop offset="0.856667" stop-color="#1A1A1A"/>
<stop offset="0.998739"/>
</linearGradient>
<linearGradient id="paint3_linear_45_589" x1="72.1958" y1="-6.02411" x2="309.399" y2="75.0951" gradientUnits="userSpaceOnUse">
<stop stop-color="white"/>
<stop offset="0.0436152" stop-color="#B4B4B4"/>
<stop offset="0.150732"/>
<stop offset="0.171421" stop-color="#171717"/>
<stop offset="0.385884" stop-color="white"/>
<stop offset="0.632551" stop-color="#E6E6E6"/>
<stop offset="0.856667" stop-color="#1A1A1A"/>
<stop offset="0.998739"/>
</linearGradient>
<linearGradient id="paint4_linear_45_589" x1="82.2858" y1="0.905179" x2="296.042" y2="74.0059" gradientUnits="userSpaceOnUse">
<stop stop-color="white"/>
<stop offset="0.0436152" stop-color="#B4B4B4"/>
<stop offset="0.150732"/>
<stop offset="0.171421" stop-color="#171717"/>
<stop offset="0.385884" stop-color="white"/>
<stop offset="0.632551" stop-color="#E6E6E6"/>
<stop offset="0.856667" stop-color="#1A1A1A"/>
<stop offset="0.998739"/>
</linearGradient>
<linearGradient id="paint5_linear_45_589" x1="92.3858" y1="7.78187" x2="282.721" y2="72.8732" gradientUnits="userSpaceOnUse">
<stop stop-color="white"/>
<stop offset="0.0436152" stop-color="#B4B4B4"/>
<stop offset="0.150732"/>
<stop offset="0.171421" stop-color="#171717"/>
<stop offset="0.385884" stop-color="white"/>
<stop offset="0.632551" stop-color="#E6E6E6"/>
<stop offset="0.856667" stop-color="#1A1A1A"/>
<stop offset="0.998739"/>
</linearGradient>
<linearGradient id="paint6_linear_45_589" x1="102.5" y1="14.5714" x2="269.532" y2="71.6935" gradientUnits="userSpaceOnUse">
<stop stop-color="white"/>
<stop offset="0.0436152" stop-color="#B4B4B4"/>
<stop offset="0.150732"/>
<stop offset="0.171421" stop-color="#171717"/>
<stop offset="0.385884" stop-color="white"/>
<stop offset="0.632551" stop-color="#E6E6E6"/>
<stop offset="0.856667" stop-color="#1A1A1A"/>
<stop offset="0.998739"/>
</linearGradient>
<linearGradient id="paint7_linear_45_589" x1="112.06" y1="22.7991" x2="255.973" y2="72.0145" gradientUnits="userSpaceOnUse">
<stop stop-color="white"/>
<stop offset="0.0436152" stop-color="#B4B4B4"/>
<stop offset="0.150732"/>
<stop offset="0.171421" stop-color="#171717"/>
<stop offset="0.385884" stop-color="white"/>
<stop offset="0.632551" stop-color="#E6E6E6"/>
<stop offset="0.856667" stop-color="#1A1A1A"/>
<stop offset="0.998739"/>
</linearGradient>
<linearGradient id="paint8_linear_45_589" x1="121.461" y1="30.6852" x2="242.758" y2="72.1667" gradientUnits="userSpaceOnUse">
<stop stop-color="white"/>
<stop offset="0.0436152" stop-color="#B4B4B4"/>
<stop offset="0.150732"/>
<stop offset="0.171421" stop-color="#171717"/>
<stop offset="0.385884" stop-color="white"/>
<stop offset="0.632551" stop-color="#E6E6E6"/>
<stop offset="0.856667" stop-color="#1A1A1A"/>
<stop offset="0.998739"/>
</linearGradient>
<linearGradient id="paint9_linear_45_589" x1="129.288" y1="37.207" x2="230.378" y2="71.7778" gradientUnits="userSpaceOnUse">
<stop stop-color="white"/>
<stop offset="0.0436152" stop-color="#B4B4B4"/>
<stop offset="0.150732"/>
<stop offset="0.171421" stop-color="#171717"/>
<stop offset="0.385884" stop-color="white"/>
<stop offset="0.632551" stop-color="#E6E6E6"/>
<stop offset="0.856667" stop-color="#1A1A1A"/>
<stop offset="0.998739"/>
</linearGradient>
<linearGradient id="paint10_linear_45_589" x1="133.647" y1="39.5959" x2="220.925" y2="69.4434" gradientUnits="userSpaceOnUse">
<stop stop-color="white"/>
<stop offset="0.0436152" stop-color="#B4B4B4"/>
<stop offset="0.150732"/>
<stop offset="0.171421" stop-color="#171717"/>
<stop offset="0.385884" stop-color="white"/>
<stop offset="0.632551" stop-color="#E6E6E6"/>
<stop offset="0.856667" stop-color="#1A1A1A"/>
<stop offset="0.998739"/>
</linearGradient>
<linearGradient id="paint11_linear_45_589" x1="136.347" y1="37.7593" x2="219.781" y2="66.2922" gradientUnits="userSpaceOnUse">
<stop stop-color="white"/>
<stop offset="0.0436152" stop-color="#B4B4B4"/>
<stop offset="0.150732"/>
<stop offset="0.171421" stop-color="#171717"/>
<stop offset="0.385884" stop-color="white"/>
<stop offset="0.632551" stop-color="#E6E6E6"/>
<stop offset="0.856667" stop-color="#1A1A1A"/>
<stop offset="0.998739"/>
</linearGradient>
</defs>
</svg>
