<svg width="158" height="479" viewBox="0 0 158 479" fill="none" xmlns="http://www.w3.org/2000/svg">
<g opacity="0.2">
<mask id="mask0_22_3507" style="mask-type:alpha" maskUnits="userSpaceOnUse" x="22" y="-108" width="627" height="529">
<path d="M403.465 -88.2805C392.068 -92.1778 380.391 -95.6833 368.457 -98.7876C301.317 -116.251 250.983 -106.297 214.581 -68.3599C183.038 -35.4871 166.716 13.2464 152.315 56.2433C142.703 84.9434 133.624 112.052 121.386 129.81C80.6489 188.927 55.411 196.567 40.3321 201.131C31.6005 203.774 25.8326 205.52 22.7552 215.936C19.7396 226.143 46.6689 249.685 107.503 290.022C133.813 307.468 158.493 308.589 178.323 309.489C188.257 309.94 196.851 310.33 203.696 312.699L203.933 312.013L203.696 312.699C222.547 319.211 226.875 323.395 236.356 332.564C244.262 340.209 256.21 351.763 283.626 371.183C307.719 388.249 348.996 404.21 391.353 412.836C415.454 417.745 439.081 420.224 461.579 420.204C486.762 420.182 509.953 416.996 530.505 410.734C568.577 399.135 597.03 377.28 615.073 345.778C632.848 314.743 643.647 280.469 647.17 243.909C650.67 207.595 646.819 170.877 635.725 134.777C619.576 82.228 588.438 33.6655 545.677 -5.66031C522.881 -26.625 496.753 -45.0355 468.019 -60.381C447.828 -71.1634 426.215 -80.4999 403.465 -88.2805ZM133.05 301.051C125.011 298.302 116.695 294.391 108.216 288.768C80.5484 270.423 60.2777 255.816 46.2446 244.112C26.0029 227.23 22.946 219.652 23.9458 216.267C26.7792 206.677 31.6676 205.198 40.5418 202.511C55.7911 197.895 81.3139 190.169 122.349 130.62C134.72 112.668 143.836 85.4492 153.488 56.6328C167.832 13.8034 184.091 -34.741 215.381 -67.3507C251.423 -104.913 301.366 -114.739 368.062 -97.3914C403.743 -88.1116 437.162 -75.2196 467.393 -59.0753C496.048 -43.7728 522.1 -25.4157 544.828 -4.51418C587.431 34.6668 618.449 83.0358 634.53 135.363C645.566 171.273 649.397 207.788 645.918 243.894C642.418 280.213 631.692 314.259 614.037 345.084C596.194 376.237 568.019 397.861 530.293 409.355C509.851 415.583 486.774 418.752 461.702 418.774C439.277 418.793 415.722 416.322 391.692 411.428C349.471 402.829 308.346 386.934 284.366 369.948C257.019 350.577 245.108 339.059 237.226 331.437C227.625 322.153 223.243 317.916 204.169 311.327C204.137 311.316 204.103 311.305 204.071 311.293C197.083 308.904 188.467 308.512 178.497 308.06C165.206 307.456 149.722 306.753 133.05 301.051Z" fill="url(#paint0_linear_22_3507)"/>
</mask>
<g mask="url(#mask0_22_3507)">
<path d="M403.465 -88.2805C392.068 -92.1778 380.391 -95.6833 368.457 -98.7876C301.317 -116.251 250.983 -106.297 214.581 -68.3599C183.038 -35.4871 166.716 13.2464 152.315 56.2433C142.703 84.9434 133.624 112.052 121.386 129.81C80.6489 188.927 55.411 196.567 40.3321 201.131C31.6005 203.774 25.8326 205.52 22.7552 215.936C19.7396 226.143 46.6689 249.685 107.503 290.022C133.813 307.468 158.493 308.589 178.323 309.489C188.257 309.94 196.851 310.33 203.696 312.699L203.933 312.013L203.696 312.699C222.547 319.211 226.875 323.395 236.356 332.564C244.262 340.209 256.21 351.763 283.626 371.183C307.719 388.249 348.996 404.21 391.353 412.836C415.454 417.745 439.081 420.224 461.579 420.204C486.762 420.182 509.953 416.996 530.505 410.734C568.577 399.135 597.03 377.28 615.073 345.778C632.848 314.743 643.647 280.469 647.17 243.909C650.67 207.595 646.819 170.877 635.725 134.777C619.576 82.228 588.438 33.6655 545.677 -5.66031C522.881 -26.625 496.753 -45.0355 468.019 -60.381C447.828 -71.1634 426.215 -80.4999 403.465 -88.2805ZM133.05 301.051C125.011 298.302 116.695 294.391 108.216 288.768C80.5484 270.423 60.2777 255.816 46.2446 244.112C26.0029 227.23 22.946 219.652 23.9458 216.267C26.7792 206.677 31.6676 205.198 40.5418 202.511C55.7911 197.895 81.3139 190.169 122.349 130.62C134.72 112.668 143.836 85.4492 153.488 56.6328C167.832 13.8034 184.091 -34.741 215.381 -67.3507C251.423 -104.913 301.366 -114.739 368.062 -97.3914C403.743 -88.1116 437.162 -75.2196 467.393 -59.0753C496.048 -43.7728 522.1 -25.4157 544.828 -4.51418C587.431 34.6668 618.449 83.0358 634.53 135.363C645.566 171.273 649.397 207.788 645.918 243.894C642.418 280.213 631.692 314.259 614.037 345.084C596.194 376.237 568.019 397.861 530.293 409.355C509.851 415.583 486.774 418.752 461.702 418.774C439.277 418.793 415.722 416.322 391.692 411.428C349.471 402.829 308.346 386.934 284.366 369.948C257.019 350.577 245.108 339.059 237.226 331.437C227.625 322.153 223.243 317.916 204.169 311.327C204.137 311.316 204.103 311.305 204.071 311.293C197.083 308.904 188.467 308.512 178.497 308.06C165.206 307.456 149.722 306.753 133.05 301.051Z" fill="#C0C0C0"/>
</g>
<mask id="mask1_22_3507" style="mask-type:alpha" maskUnits="userSpaceOnUse" x="47" y="-79" width="577" height="483">
<path d="M400.716 -61.2833C391.501 -64.4347 382.084 -67.3062 372.479 -69.8912C312.061 -86.3113 266.403 -78.3796 232.899 -45.6433C203.793 -17.2044 188.026 25.7957 174.115 63.7342C164.425 90.1611 155.272 115.122 142.972 131.408C104.36 183.815 80.0354 191.472 65.5022 196.046C56.7189 198.811 50.9158 200.637 47.8117 210.712C45.9772 216.375 52.2694 226.101 66.5158 239.608C79.3324 251.76 98.0923 266.485 120.768 282.191C144.397 298.719 166.619 300.557 184.474 302.033C193.106 302.747 200.56 303.364 206.764 305.475L206.764 305.475C226.445 312.132 230.694 315.627 243.307 325.963C251.781 332.907 263.387 342.417 285.511 357.785C308.17 373.535 346.7 388.369 386.062 396.5C408.575 401.15 430.594 403.544 451.507 403.617C474.972 403.698 496.53 400.823 515.585 395.072C549.96 384.697 575.761 365.185 592.27 337.078C608.817 308.77 619.001 277.453 622.539 243.996C626.055 210.75 622.834 177.108 612.964 144.004C598.702 96.1712 570.845 51.8708 532.402 15.8929C511.906 -3.2899 488.366 -20.1818 462.439 -34.3128C443.215 -44.7895 422.542 -53.819 400.716 -61.2833ZM146.833 293.977C138.66 291.182 130.152 287.109 121.456 281.027C73.4948 247.805 45.7023 220.992 48.9217 211.051C51.7974 201.718 57.0346 200.07 65.7113 197.338C80.393 192.718 104.965 184.983 143.843 132.215C156.278 115.752 165.47 90.6832 175.201 64.1427C189.055 26.3609 204.757 -16.4622 233.618 -44.6623C266.785 -77.0685 312.083 -84.8931 372.1 -68.5819C404.379 -59.8946 434.573 -47.953 461.844 -33.0905C487.696 -19.0003 511.165 -2.15966 531.598 16.9635C569.893 52.8036 597.639 96.9202 611.839 144.545C621.655 177.468 624.859 210.918 621.364 243.967C617.85 277.199 607.736 308.302 591.304 336.413C574.985 364.197 549.443 383.498 515.389 393.775C490.219 401.372 447.407 407.781 386.383 395.177C347.144 387.072 308.755 372.297 286.199 356.62C264.108 341.276 252.52 331.78 244.059 324.847C231.685 314.707 227.042 310.914 207.203 304.184C200.884 302.034 193.373 301.413 184.675 300.693C173.528 299.771 160.663 298.707 146.833 293.977Z" fill="url(#paint1_linear_22_3507)"/>
</mask>
<g mask="url(#mask1_22_3507)">
<path d="M400.716 -61.2833C391.501 -64.4347 382.084 -67.3062 372.479 -69.8912C312.061 -86.3113 266.403 -78.3796 232.899 -45.6433C203.793 -17.2044 188.026 25.7957 174.115 63.7342C164.425 90.1611 155.272 115.122 142.972 131.408C104.36 183.815 80.0354 191.472 65.5022 196.046C56.7189 198.811 50.9158 200.637 47.8117 210.712C45.9772 216.375 52.2694 226.101 66.5158 239.608C79.3324 251.76 98.0923 266.485 120.768 282.191C144.397 298.719 166.619 300.557 184.474 302.033C193.106 302.747 200.56 303.364 206.764 305.475L206.764 305.475C226.445 312.132 230.694 315.627 243.307 325.963C251.781 332.907 263.387 342.417 285.511 357.785C308.17 373.535 346.7 388.369 386.062 396.5C408.575 401.15 430.594 403.544 451.507 403.617C474.972 403.698 496.53 400.823 515.585 395.072C549.96 384.697 575.761 365.185 592.27 337.078C608.817 308.77 619.001 277.453 622.539 243.996C626.055 210.75 622.834 177.108 612.964 144.004C598.702 96.1712 570.845 51.8708 532.402 15.8929C511.906 -3.2899 488.366 -20.1818 462.439 -34.3128C443.215 -44.7895 422.542 -53.819 400.716 -61.2833ZM146.833 293.977C138.66 291.182 130.152 287.109 121.456 281.027C73.4948 247.805 45.7023 220.992 48.9217 211.051C51.7974 201.718 57.0346 200.07 65.7113 197.338C80.393 192.718 104.965 184.983 143.843 132.215C156.278 115.752 165.47 90.6832 175.201 64.1427C189.055 26.3609 204.757 -16.4622 233.618 -44.6623C266.785 -77.0685 312.083 -84.8931 372.1 -68.5819C404.379 -59.8946 434.573 -47.953 461.844 -33.0905C487.696 -19.0003 511.165 -2.15966 531.598 16.9635C569.893 52.8036 597.639 96.9202 611.839 144.545C621.655 177.468 624.859 210.918 621.364 243.967C617.85 277.199 607.736 308.302 591.304 336.413C574.985 364.197 549.443 383.498 515.389 393.775C490.219 401.372 447.407 407.781 386.383 395.177C347.144 387.072 308.755 372.297 286.199 356.62C264.108 341.276 252.52 331.78 244.059 324.847C231.685 314.707 227.042 310.914 207.203 304.184C200.884 302.034 193.373 301.413 184.675 300.693C173.528 299.771 160.663 298.707 146.833 293.977Z" fill="#C0C0C0"/>
</g>
<mask id="mask2_22_3507" style="mask-type:alpha" maskUnits="userSpaceOnUse" x="72" y="-50" width="528" height="438">
<path d="M398.293 -34.2282C391.18 -36.6615 383.921 -38.915 376.502 -40.9939C322.757 -56.3715 281.764 -50.4184 251.181 -22.7944C224.531 1.27706 209.356 38.5796 195.966 71.4913C186.185 95.535 176.946 118.245 164.559 133.006C128.145 178.718 104.756 186.35 90.7818 190.909C81.8881 193.812 76.0127 195.729 72.8675 205.487C68.2164 218.69 101.311 250.448 134.03 274.36C155.084 290.082 174.937 292.637 190.891 294.691C198.125 295.622 204.373 296.426 209.831 298.251L209.832 298.251C232.238 305.674 235.917 308.29 256.35 322.787C264.043 328.246 273.619 335.04 287.395 344.388C301.476 353.956 322.24 363.391 345.863 370.952C372.446 379.461 400.31 384.838 426.444 386.503C457.373 388.473 484.823 385.289 508.032 377.041C535.068 367.432 555.737 351.06 569.466 328.378C584.79 302.796 594.363 274.434 597.919 244.075C601.455 213.893 598.864 183.322 590.219 153.211C577.839 110.094 553.258 70.0591 519.13 37.4324C486.296 6.04118 445.718 -18.0087 398.293 -34.2282ZM160.997 287.228C152.594 284.354 143.753 280.05 134.696 273.286C95.7281 244.808 70.1601 216.441 73.897 205.833C76.8291 196.736 82.1587 194.996 90.9882 192.115C105.089 187.514 128.69 179.814 165.335 133.811C177.856 118.89 187.138 96.0761 196.964 71.9222C210.294 39.1552 225.403 2.0166 251.816 -21.8408C282.085 -49.1816 322.751 -55.0471 376.136 -39.7722C432.875 -23.8725 480.725 2.43671 518.37 38.4267C552.36 70.9222 576.839 110.785 589.162 153.704C597.759 183.645 600.336 214.035 596.822 244.032C593.29 274.18 583.785 302.344 568.571 327.742C555.01 350.147 534.562 366.332 507.799 375.844C484.723 384.045 457.409 387.209 426.614 385.248C400.556 383.588 372.769 378.225 346.259 369.739C322.719 362.201 302.039 352.812 288.029 343.292C274.262 333.949 264.691 327.159 257.001 321.703C236.471 307.137 232.772 304.516 210.237 297.041C204.693 295.188 198.404 294.378 191.122 293.441C182.156 292.287 171.948 290.973 160.997 287.228Z" fill="url(#paint2_linear_22_3507)"/>
</mask>
<g mask="url(#mask2_22_3507)">
<path d="M398.293 -34.2282C391.18 -36.6615 383.921 -38.915 376.502 -40.9939C322.757 -56.3715 281.764 -50.4184 251.181 -22.7944C224.531 1.27706 209.356 38.5796 195.966 71.4913C186.185 95.535 176.946 118.245 164.559 133.006C128.145 178.718 104.756 186.35 90.7818 190.909C81.8881 193.812 76.0127 195.729 72.8675 205.487C68.2164 218.69 101.311 250.448 134.03 274.36C155.084 290.082 174.937 292.637 190.891 294.691C198.125 295.622 204.373 296.426 209.831 298.251L209.832 298.251C232.238 305.674 235.917 308.29 256.35 322.787C264.043 328.246 273.619 335.04 287.395 344.388C301.476 353.956 322.24 363.391 345.863 370.952C372.446 379.461 400.31 384.838 426.444 386.503C457.373 388.473 484.823 385.289 508.032 377.041C535.068 367.432 555.737 351.06 569.466 328.378C584.79 302.796 594.363 274.434 597.919 244.075C601.455 213.893 598.864 183.322 590.219 153.211C577.839 110.094 553.258 70.0591 519.13 37.4324C486.296 6.04118 445.718 -18.0087 398.293 -34.2282ZM160.997 287.228C152.594 284.354 143.753 280.05 134.696 273.286C95.7281 244.808 70.1601 216.441 73.897 205.833C76.8291 196.736 82.1587 194.996 90.9882 192.115C105.089 187.514 128.69 179.814 165.335 133.811C177.856 118.89 187.138 96.0761 196.964 71.9222C210.294 39.1552 225.403 2.0166 251.816 -21.8408C282.085 -49.1816 322.751 -55.0471 376.136 -39.7722C432.875 -23.8725 480.725 2.43671 518.37 38.4267C552.36 70.9222 576.839 110.785 589.162 153.704C597.759 183.645 600.336 214.035 596.822 244.032C593.29 274.18 583.785 302.344 568.571 327.742C555.01 350.147 534.562 366.332 507.799 375.844C484.723 384.045 457.409 387.209 426.614 385.248C400.556 383.588 372.769 378.225 346.259 369.739C322.719 362.201 302.039 352.812 288.029 343.292C274.262 333.949 264.691 327.159 257.001 321.703C236.471 307.137 232.772 304.516 210.237 297.041C204.693 295.188 198.404 294.378 191.122 293.441C182.156 292.287 171.948 290.973 160.997 287.228Z" fill="#C0C0C0"/>
</g>
<mask id="mask3_22_3507" style="mask-type:alpha" maskUnits="userSpaceOnUse" x="97" y="-21" width="479" height="392">
<path d="M395.492 -7.34231C390.585 -9.02035 385.598 -10.6048 380.526 -12.0969C333.394 -26.4328 297.047 -22.4054 269.413 0.21735C245.244 20.0036 231.329 50.2933 217.873 79.5855C207.986 101.107 198.647 121.434 186.149 134.606C152.038 173.64 130.485 180.899 116.222 185.703C106.811 188.872 101.131 190.786 97.9246 200.264C93.3754 212.211 115.057 241.328 147.293 266.528C165.958 281.666 183.618 284.945 197.808 287.581C203.236 288.589 208.363 289.541 212.899 291.027L212.901 291.027L215.201 291.77C241.655 300.302 243.813 301 289.28 330.991C302.049 339.431 321.492 348.192 342.61 355.036C366.904 362.904 392.294 368.013 416.033 369.812C444.24 371.95 469.273 369.454 490.436 362.393C515.122 354.157 534.039 339.786 546.662 319.68C560.77 296.822 569.737 271.41 573.316 244.145C576.877 217.021 574.92 189.515 567.499 162.39C556.994 123.992 535.682 88.225 505.865 58.955C476.21 29.8431 439.134 7.58283 395.492 -7.34231ZM175.841 281.045C167.041 278.035 157.622 273.401 147.938 265.548C116.581 241.034 94.573 211.906 98.8739 200.611C101.881 191.72 107.355 189.877 116.423 186.823C129.924 182.275 152.521 174.664 186.827 135.407C199.458 122.096 208.842 101.669 218.777 80.0432C232.17 50.8892 246.019 20.7429 269.96 1.1439C297.305 -21.243 333.357 -25.2031 380.174 -10.9631C430.218 3.75969 472.265 27.5906 505.149 59.8719C534.838 89.0183 556.058 124.622 566.512 162.835C573.889 189.799 575.835 217.136 572.297 244.086C568.744 271.155 559.842 296.384 545.84 319.07C533.378 338.921 514.669 353.122 490.238 361.273C469.197 368.293 444.287 370.773 416.202 368.644C392.531 366.851 367.211 361.755 342.981 353.908C321.932 347.092 302.568 338.364 289.862 329.965C244.295 299.908 242.125 299.206 215.571 290.642L213.273 289.9C208.683 288.396 203.528 287.439 198.07 286.426C191.354 285.178 183.854 283.785 175.841 281.045Z" fill="url(#paint3_linear_22_3507)"/>
</mask>
<g mask="url(#mask3_22_3507)">
<path d="M395.492 -7.34231C390.585 -9.02035 385.598 -10.6048 380.526 -12.0969C333.394 -26.4328 297.047 -22.4054 269.413 0.21735C245.244 20.0036 231.329 50.2933 217.873 79.5855C207.986 101.107 198.647 121.434 186.149 134.606C152.038 173.64 130.485 180.899 116.222 185.703C106.811 188.872 101.131 190.786 97.9246 200.264C93.3754 212.211 115.057 241.328 147.293 266.528C165.958 281.666 183.618 284.945 197.808 287.581C203.236 288.589 208.363 289.541 212.899 291.027L212.901 291.027L215.201 291.77C241.655 300.302 243.813 301 289.28 330.991C302.049 339.431 321.492 348.192 342.61 355.036C366.904 362.904 392.294 368.013 416.033 369.812C444.24 371.95 469.273 369.454 490.436 362.393C515.122 354.157 534.039 339.786 546.662 319.68C560.77 296.822 569.737 271.41 573.316 244.145C576.877 217.021 574.92 189.515 567.499 162.39C556.994 123.992 535.682 88.225 505.865 58.955C476.21 29.8431 439.134 7.58283 395.492 -7.34231ZM175.841 281.045C167.041 278.035 157.622 273.401 147.938 265.548C116.581 241.034 94.573 211.906 98.8739 200.611C101.881 191.72 107.355 189.877 116.423 186.823C129.924 182.275 152.521 174.664 186.827 135.407C199.458 122.096 208.842 101.669 218.777 80.0432C232.17 50.8892 246.019 20.7429 269.96 1.1439C297.305 -21.243 333.357 -25.2031 380.174 -10.9631C430.218 3.75969 472.265 27.5906 505.149 59.8719C534.838 89.0183 556.058 124.622 566.512 162.835C573.889 189.799 575.835 217.136 572.297 244.086C568.744 271.155 559.842 296.384 545.84 319.07C533.378 338.921 514.669 353.122 490.238 361.273C469.197 368.293 444.287 370.773 416.202 368.644C392.531 366.851 367.211 361.755 342.981 353.908C321.932 347.092 302.568 338.364 289.862 329.965C244.295 299.908 242.125 299.206 215.571 290.642L213.273 289.9C208.683 288.396 203.528 287.439 198.07 286.426C191.354 285.178 183.854 283.785 175.841 281.045Z" fill="#C0C0C0"/>
</g>
<mask id="mask4_22_3507" style="mask-type:alpha" maskUnits="userSpaceOnUse" x="122" y="8" width="429" height="347">
<path d="M392.684 19.4603C390 18.5423 387.29 17.6561 384.549 16.8006C293.564 -13.0035 265.013 40.7175 239.823 88.114C229.821 106.933 220.374 124.708 207.741 136.208C176.088 168.587 155.516 175.692 141.903 180.394C132.158 183.76 126.276 185.792 122.98 195.041C120.625 200.795 123.089 210.821 129.753 222.518C136.829 234.938 147.767 247.786 160.553 258.694C177.249 273.772 192.445 277.626 205.852 281.027C209.409 281.929 212.769 282.782 215.967 283.803L215.969 283.804C220.792 285.314 225.031 286.525 228.77 287.592C246.042 292.523 256.466 295.5 291.165 317.594C313.281 331.719 358.532 348.862 405.621 353.122C431.109 355.427 453.723 353.618 472.838 347.745C495.175 340.882 512.34 328.513 523.857 310.982C536.758 290.846 545.127 268.38 548.736 244.202C552.329 220.129 551.009 195.679 544.814 171.53C536.174 137.854 518.121 106.36 492.608 80.4521C466.16 53.5965 432.573 33.1023 392.684 19.4603ZM191.733 275.87C182.234 272.622 172.023 267.602 161.182 257.812C133.712 234.376 119.463 206.106 123.85 195.387C126.962 186.656 132.658 184.688 142.096 181.429C155.799 176.696 176.507 169.543 208.315 137.003C221.078 125.388 230.574 107.521 240.627 88.6043C253.385 64.5992 266.577 39.7774 288.02 24.3296C312.414 6.7557 343.878 4.63493 384.208 17.8461C427.559 31.3799 463.803 52.7265 491.934 81.2912C517.331 107.081 535.3 138.422 543.895 171.925C550.052 195.922 551.364 220.214 547.795 244.125C544.213 268.123 535.907 290.42 523.108 310.397C508.328 332.896 475.974 358.39 405.79 352.041C358.834 347.793 313.729 330.711 291.692 316.637C256.894 294.479 246.427 291.49 229.087 286.54C225.352 285.473 221.12 284.265 216.307 282.757C213.086 281.729 209.715 280.874 206.146 279.968C201.549 278.802 196.74 277.582 191.733 275.87Z" fill="url(#paint4_linear_22_3507)"/>
</mask>
<g mask="url(#mask4_22_3507)">
<path d="M392.684 19.4603C390 18.5423 387.29 17.6561 384.549 16.8006C293.564 -13.0035 265.013 40.7175 239.823 88.114C229.821 106.933 220.374 124.708 207.741 136.208C176.088 168.587 155.516 175.692 141.903 180.394C132.158 183.76 126.276 185.792 122.98 195.041C120.625 200.795 123.089 210.821 129.753 222.518C136.829 234.938 147.767 247.786 160.553 258.694C177.249 273.772 192.445 277.626 205.852 281.027C209.409 281.929 212.769 282.782 215.967 283.803L215.969 283.804C220.792 285.314 225.031 286.525 228.77 287.592C246.042 292.523 256.466 295.5 291.165 317.594C313.281 331.719 358.532 348.862 405.621 353.122C431.109 355.427 453.723 353.618 472.838 347.745C495.175 340.882 512.34 328.513 523.857 310.982C536.758 290.846 545.127 268.38 548.736 244.202C552.329 220.129 551.009 195.679 544.814 171.53C536.174 137.854 518.121 106.36 492.608 80.4521C466.16 53.5965 432.573 33.1023 392.684 19.4603ZM191.733 275.87C182.234 272.622 172.023 267.602 161.182 257.812C133.712 234.376 119.463 206.106 123.85 195.387C126.962 186.656 132.658 184.688 142.096 181.429C155.799 176.696 176.507 169.543 208.315 137.003C221.078 125.388 230.574 107.521 240.627 88.6043C253.385 64.5992 266.577 39.7774 288.02 24.3296C312.414 6.7557 343.878 4.63493 384.208 17.8461C427.559 31.3799 463.803 52.7265 491.934 81.2912C517.331 107.081 535.3 138.422 543.895 171.925C550.052 195.922 551.364 220.214 547.795 244.125C544.213 268.123 535.907 290.42 523.108 310.397C508.328 332.896 475.974 358.39 405.79 352.041C358.834 347.793 313.729 330.711 291.692 316.637C256.894 294.479 246.427 291.49 229.087 286.54C225.352 285.473 221.12 284.265 216.307 282.757C213.086 281.729 209.715 280.874 206.146 279.968C201.549 278.802 196.74 277.582 191.733 275.87Z" fill="#C0C0C0"/>
</g>
<mask id="mask5_22_3507" style="mask-type:alpha" maskUnits="userSpaceOnUse" x="146" y="36" width="381" height="302">
<path d="M385.667 44.6789C352.846 33.4546 326.629 34.1859 305.601 46.8954C286.473 58.4558 273.922 78.1608 261.783 97.2164C251.669 113.096 242.115 128.095 229.334 137.811C200.383 163.57 180.883 170.406 167.978 174.93C157.682 178.539 151.467 180.718 148.037 189.818C142.764 201.858 152.659 230.538 173.811 250.856C189.783 267.563 203.867 271.904 217.489 276.102L219.037 276.579C225.615 278.564 231.268 279.805 236.735 281.006C251.39 284.225 265.232 287.265 293.05 304.198C313.301 316.575 353.908 331.941 395.209 336.43C430.018 340.214 476.637 337.362 501.05 302.285C524.453 267.47 532.154 223.126 522.185 180.616C515.394 151.664 500.588 124.448 479.366 101.913C456.164 77.2748 426.055 58.5127 389.862 46.1348C389.433 45.988 389.004 45.843 388.574 45.6977C387.599 45.3479 386.631 45.0083 385.667 44.6789ZM209.629 272.528C198.607 268.759 187.112 263.349 174.428 250.08C151.815 228.359 144.28 200.544 148.827 190.16C152.087 181.514 158.137 179.394 168.16 175.88C181.132 171.332 200.737 164.459 229.802 138.598C242.702 128.792 252.308 113.712 262.478 97.747C274.548 78.7968 287.03 59.202 305.952 47.7654C327.366 34.8224 354.273 34.4653 388.243 46.6537C388.67 46.7977 389.102 46.9441 389.528 47.0896C425.615 59.4308 455.617 78.1237 478.733 102.672C499.851 125.096 514.582 152.168 521.334 180.96C526.269 202.002 526.94 223.26 523.329 244.143C519.709 265.08 511.986 284.453 500.377 301.723C476.244 336.397 429.957 339.197 395.378 335.438C354.188 330.961 313.706 315.645 293.523 303.309C265.598 286.312 251.698 283.259 236.982 280.027C231.529 278.829 225.89 277.59 219.339 275.614L217.795 275.138C215.096 274.306 212.377 273.468 209.629 272.528Z" fill="url(#paint5_linear_22_3507)"/>
</mask>
<g mask="url(#mask5_22_3507)">
<path d="M385.667 44.6789C352.846 33.4546 326.629 34.1859 305.601 46.8954C286.473 58.4558 273.922 78.1608 261.783 97.2164C251.669 113.096 242.115 128.095 229.334 137.811C200.383 163.57 180.883 170.406 167.978 174.93C157.682 178.539 151.467 180.718 148.037 189.818C142.764 201.858 152.659 230.538 173.811 250.856C189.783 267.563 203.867 271.904 217.489 276.102L219.037 276.579C225.615 278.564 231.268 279.805 236.735 281.006C251.39 284.225 265.232 287.265 293.05 304.198C313.301 316.575 353.908 331.941 395.209 336.43C430.018 340.214 476.637 337.362 501.05 302.285C524.453 267.47 532.154 223.126 522.185 180.616C515.394 151.664 500.588 124.448 479.366 101.913C456.164 77.2748 426.055 58.5127 389.862 46.1348C389.433 45.988 389.004 45.843 388.574 45.6977C387.599 45.3479 386.631 45.0083 385.667 44.6789ZM209.629 272.528C198.607 268.759 187.112 263.349 174.428 250.08C151.815 228.359 144.28 200.544 148.827 190.16C152.087 181.514 158.137 179.394 168.16 175.88C181.132 171.332 200.737 164.459 229.802 138.598C242.702 128.792 252.308 113.712 262.478 97.747C274.548 78.7968 287.03 59.202 305.952 47.7654C327.366 34.8224 354.273 34.4653 388.243 46.6537C388.67 46.7977 389.102 46.9441 389.528 47.0896C425.615 59.4308 455.617 78.1237 478.733 102.672C499.851 125.096 514.582 152.168 521.334 180.96C526.269 202.002 526.94 223.26 523.329 244.143C519.709 265.08 511.986 284.453 500.377 301.723C476.244 336.397 429.957 339.197 395.378 335.438C354.188 330.961 313.706 315.645 293.523 303.309C265.598 286.312 251.698 283.259 236.982 280.027C231.529 278.829 225.89 277.59 219.339 275.614L217.795 275.138C215.096 274.306 212.377 273.468 209.629 272.528Z" fill="#C0C0C0"/>
</g>
<mask id="mask6_22_3507" style="mask-type:alpha" maskUnits="userSpaceOnUse" x="170" y="65" width="333" height="257">
<path d="M383.936 71.3594C359.931 63.1489 340.068 62.9374 323.418 70.6714C306.843 78.3708 295.05 92.9731 283.645 107.095C273.901 119.159 263.826 131.635 250.93 139.42C225.097 158.609 206.84 164.988 194.759 169.21C183.52 173.138 176.736 175.508 173.094 184.595C167.826 195.885 170.64 224.278 187.068 243.012C198.209 257.481 208.691 265.362 222.103 269.354L222.106 269.355C229.248 271.412 235.715 272.355 242.562 273.354C257.032 275.465 271.996 277.648 294.937 290.801C313.439 301.469 349.452 315.075 384.798 319.739C415.427 323.78 456.502 322.524 478.243 293.589C499.352 264.136 507.151 226.245 499.648 189.622C494.684 165.396 483.102 142.468 466.153 123.317C447.406 102.134 422.659 85.7424 392.6 74.5964C389.655 73.4065 386.765 72.3267 383.936 71.3594ZM220.009 267.716C207.86 263.561 198.07 255.851 187.678 242.357C171.47 223.872 168.64 196.003 173.806 184.93C177.29 176.24 183.554 174.051 194.924 170.078C207.053 165.84 225.382 159.435 251.286 140.191C264.284 132.346 274.415 119.802 284.211 107.673C295.547 93.6361 307.27 79.1215 323.657 71.5095C342.071 62.9558 364.513 64.2511 392.276 75.4608C422.237 86.5714 446.891 102.898 465.56 123.993C482.416 143.039 493.933 165.832 498.866 189.909C506.312 226.252 498.578 263.845 477.648 293.048C456.171 321.632 415.392 322.849 384.967 318.834C349.712 314.183 313.801 300.616 295.354 289.98C272.3 276.762 257.274 274.57 242.74 272.451C235.917 271.455 229.472 270.515 222.373 268.471C221.575 268.234 220.787 267.982 220.009 267.716Z" fill="url(#paint6_linear_22_3507)"/>
</mask>
<g mask="url(#mask6_22_3507)">
</g>
</g>
<defs>
<linearGradient id="paint0_linear_22_3507" x1="77.8664" y1="54.6916" x2="652.21" y2="251.107" gradientUnits="userSpaceOnUse">
<stop stop-color="white"/>
<stop offset="0.0436152" stop-color="#B4B4B4"/>
<stop offset="0.150732"/>
<stop offset="0.171421" stop-color="#171717"/>
<stop offset="0.385884" stop-color="white"/>
<stop offset="0.632551" stop-color="#E6E6E6"/>
<stop offset="0.856667" stop-color="#1A1A1A"/>
<stop offset="0.998739"/>
</linearGradient>
<linearGradient id="paint1_linear_22_3507" x1="96.7062" y1="67.6912" x2="627.145" y2="249.092" gradientUnits="userSpaceOnUse">
<stop stop-color="white"/>
<stop offset="0.0436152" stop-color="#B4B4B4"/>
<stop offset="0.150732"/>
<stop offset="0.171421" stop-color="#171717"/>
<stop offset="0.385884" stop-color="white"/>
<stop offset="0.632551" stop-color="#E6E6E6"/>
<stop offset="0.856667" stop-color="#1A1A1A"/>
<stop offset="0.998739"/>
</linearGradient>
<linearGradient id="paint2_linear_22_3507" x1="115.548" y1="80.6685" x2="602.112" y2="247.065" gradientUnits="userSpaceOnUse">
<stop stop-color="white"/>
<stop offset="0.0436152" stop-color="#B4B4B4"/>
<stop offset="0.150732"/>
<stop offset="0.171421" stop-color="#171717"/>
<stop offset="0.385884" stop-color="white"/>
<stop offset="0.632551" stop-color="#E6E6E6"/>
<stop offset="0.856667" stop-color="#1A1A1A"/>
<stop offset="0.998739"/>
</linearGradient>
<linearGradient id="paint3_linear_22_3507" x1="134.39" y1="93.6188" x2="577.127" y2="245.027" gradientUnits="userSpaceOnUse">
<stop stop-color="white"/>
<stop offset="0.0436152" stop-color="#B4B4B4"/>
<stop offset="0.150732"/>
<stop offset="0.171421" stop-color="#171717"/>
<stop offset="0.385884" stop-color="white"/>
<stop offset="0.632551" stop-color="#E6E6E6"/>
<stop offset="0.856667" stop-color="#1A1A1A"/>
<stop offset="0.998739"/>
</linearGradient>
<linearGradient id="paint4_linear_22_3507" x1="153.224" y1="106.552" x2="552.196" y2="242.994" gradientUnits="userSpaceOnUse">
<stop stop-color="white"/>
<stop offset="0.0436152" stop-color="#B4B4B4"/>
<stop offset="0.150732"/>
<stop offset="0.171421" stop-color="#171717"/>
<stop offset="0.385884" stop-color="white"/>
<stop offset="0.632551" stop-color="#E6E6E6"/>
<stop offset="0.856667" stop-color="#1A1A1A"/>
<stop offset="0.998739"/>
</linearGradient>
<linearGradient id="paint5_linear_22_3507" x1="172.074" y1="119.387" x2="527.333" y2="240.879" gradientUnits="userSpaceOnUse">
<stop stop-color="white"/>
<stop offset="0.0436152" stop-color="#B4B4B4"/>
<stop offset="0.150732"/>
<stop offset="0.171421" stop-color="#171717"/>
<stop offset="0.385884" stop-color="white"/>
<stop offset="0.632551" stop-color="#E6E6E6"/>
<stop offset="0.856667" stop-color="#1A1A1A"/>
<stop offset="0.998739"/>
</linearGradient>
<linearGradient id="paint6_linear_22_3507" x1="190.953" y1="132.06" x2="502.716" y2="238.677" gradientUnits="userSpaceOnUse">
<stop stop-color="white"/>
<stop offset="0.0436152" stop-color="#B4B4B4"/>
<stop offset="0.150732"/>
<stop offset="0.171421" stop-color="#171717"/>
<stop offset="0.385884" stop-color="white"/>
<stop offset="0.632551" stop-color="#E6E6E6"/>
<stop offset="0.856667" stop-color="#1A1A1A"/>
<stop offset="0.998739"/>
</linearGradient>
</defs>
</svg>
