<svg width="731" height="652" viewBox="0 0 731 652" fill="none" xmlns="http://www.w3.org/2000/svg">
<path d="M403.465 84.7198C392.068 80.8224 380.391 77.317 368.457 74.2127C301.317 56.7497 250.983 66.7028 214.581 104.64C183.038 137.513 166.716 186.247 152.315 229.244C142.703 257.944 133.624 285.052 121.386 302.81C80.6489 361.927 55.411 369.567 40.3321 374.131C31.6005 376.775 25.8326 378.521 22.7552 388.936C19.7396 399.143 46.6689 422.685 107.503 463.022C133.813 480.468 158.493 481.589 178.323 482.489C188.257 482.94 196.851 483.331 203.696 485.7L203.933 485.013L203.696 485.7C222.547 492.211 226.875 496.396 236.356 505.564C244.262 513.209 256.21 524.763 283.626 544.183C307.719 561.249 348.996 577.21 391.353 585.837C415.454 590.745 439.081 593.224 461.579 593.204C486.762 593.182 509.953 589.996 530.505 583.735C568.577 572.135 597.03 550.281 615.073 518.778C632.848 487.743 643.647 453.469 647.17 416.91C650.67 380.595 646.819 343.877 635.725 307.777C619.576 255.228 588.438 206.666 545.677 167.34C522.881 146.375 496.753 127.965 468.019 112.619C447.828 101.837 426.215 92.5003 403.465 84.7198ZM133.05 474.051C125.011 471.302 116.695 467.391 108.216 461.769C80.5484 443.423 60.2777 428.816 46.2446 417.112C26.0029 400.231 22.946 392.652 23.9458 389.268C26.7792 379.677 31.6676 378.198 40.5418 375.512C55.7911 370.895 81.3139 363.17 122.349 303.62C134.72 285.668 143.836 258.449 153.488 229.633C167.832 186.804 184.091 138.259 215.381 105.65C251.423 68.0877 301.366 58.2611 368.062 75.6088C403.743 84.8887 437.162 97.7807 467.393 113.925C496.048 129.227 522.1 147.585 544.828 168.486C587.431 207.667 618.449 256.036 634.53 308.364C645.566 344.273 649.397 380.788 645.918 416.894C642.418 453.214 631.692 487.259 614.037 518.085C596.194 549.238 568.019 570.862 530.293 582.355C509.851 588.583 486.774 591.752 461.702 591.774C439.277 591.794 415.722 589.322 391.692 584.428C349.471 575.829 308.346 559.935 284.366 542.948C257.019 523.577 245.108 512.059 237.226 504.437C227.625 495.153 223.243 490.916 204.169 484.327C204.137 484.316 204.103 484.305 204.071 484.294C197.083 481.904 188.467 481.513 178.497 481.06C165.206 480.456 149.722 479.753 133.05 474.051Z" fill="#004BBB" fill-opacity="0.3"/>
<path d="M400.716 111.717C391.501 108.566 382.084 105.694 372.479 103.109C312.061 86.6889 266.403 94.6207 232.899 127.357C203.793 155.796 188.026 198.796 174.115 236.734C164.425 263.161 155.272 288.122 142.972 304.408C104.36 356.816 80.0354 364.472 65.5022 369.046C56.7189 371.811 50.9158 373.637 47.8117 383.712C45.9772 389.376 52.2694 399.102 66.5158 412.609C79.3324 424.76 98.0923 439.485 120.768 455.192C144.397 471.719 166.619 473.557 184.474 475.034C193.106 475.747 200.56 476.364 206.764 478.475L206.764 478.476C226.445 485.132 230.694 488.627 243.307 498.963C251.781 505.907 263.387 515.417 285.511 530.786C308.17 546.535 346.7 561.37 386.062 569.5C408.575 574.15 430.594 576.545 451.507 576.617C474.972 576.698 496.53 573.823 515.585 568.072C549.96 557.697 575.761 538.185 592.27 510.078C608.817 481.77 619.001 450.454 622.539 416.996C626.055 383.75 622.834 350.108 612.964 317.004C598.702 269.171 570.845 224.871 532.402 188.893C511.906 169.71 488.366 152.818 462.439 138.687C443.215 128.211 422.542 119.181 400.716 111.717ZM146.833 466.977C138.66 464.182 130.152 460.109 121.456 454.027C73.4948 420.805 45.7023 393.993 48.9217 384.052C51.7974 374.718 57.0346 373.07 65.7113 370.339C80.393 365.718 104.965 357.984 143.843 305.216C156.278 288.752 165.47 263.683 175.201 237.143C189.055 199.361 204.757 156.538 233.618 128.338C266.785 95.9318 312.083 88.1071 372.1 104.418C404.379 113.106 434.573 125.047 461.844 139.91C487.696 154 511.165 170.841 531.598 189.964C569.893 225.804 597.639 269.92 611.839 317.545C621.655 350.468 624.859 383.918 621.364 416.968C617.85 450.199 607.736 481.303 591.304 509.413C574.985 537.198 549.443 556.498 515.389 566.776C490.219 574.372 447.407 580.782 386.383 568.177C347.144 560.072 308.755 545.297 286.199 529.621C264.108 514.276 252.52 504.78 244.059 497.847C231.685 487.707 227.042 483.914 207.203 477.185C200.884 475.034 193.373 474.413 184.675 473.694C173.528 472.771 160.663 471.707 146.833 466.977Z" fill="#004BBB" fill-opacity="0.3"/>
<path d="M395.492 165.658C390.585 163.98 385.598 162.395 380.526 160.903C333.394 146.567 297.047 150.595 269.413 173.218C245.244 193.004 231.329 223.294 217.873 252.586C207.986 274.107 198.647 294.434 186.149 307.606C152.038 346.64 130.485 353.899 116.222 358.703C106.811 361.873 101.131 363.786 97.9246 373.264C93.3754 385.211 115.057 414.328 147.293 439.528C165.958 454.666 183.618 457.946 197.808 460.581C203.236 461.589 208.363 462.542 212.899 464.027L212.901 464.028L215.201 464.77C241.655 473.303 243.813 474 289.28 503.992C302.049 512.432 321.492 521.193 342.61 528.037C366.904 535.904 392.294 541.014 416.033 542.812C444.24 544.95 469.273 542.454 490.436 535.394C515.122 527.158 534.039 512.787 546.662 492.68C560.77 469.823 569.737 444.41 573.316 417.145C576.877 390.022 574.92 362.515 567.499 335.39C556.994 296.993 535.682 261.225 505.865 231.955C476.21 202.843 439.134 180.583 395.492 165.658ZM175.841 454.045C167.041 451.035 157.622 446.401 147.938 438.548C116.581 414.035 94.573 384.907 98.8739 373.612C101.881 364.721 107.355 362.877 116.423 359.823C129.924 355.276 152.521 347.665 186.827 308.408C199.458 295.097 208.842 274.67 218.777 253.043C232.17 223.889 246.019 193.743 269.96 174.144C297.305 151.757 333.357 147.797 380.174 162.037C430.218 176.76 472.265 200.591 505.149 232.872C534.838 262.018 556.058 297.622 566.512 335.835C573.889 362.8 575.835 390.136 572.297 417.086C568.744 444.156 559.842 469.384 545.84 492.07C533.378 511.921 514.669 526.122 490.238 534.273C469.197 541.293 444.287 543.773 416.202 541.645C392.531 539.851 367.211 534.755 342.981 526.908C321.932 520.093 302.568 511.364 289.862 502.965C244.295 472.908 242.125 472.206 215.571 463.642L213.273 462.9C208.683 461.397 203.528 460.439 198.07 459.426C191.354 458.178 183.854 456.785 175.841 454.045Z" fill="#004BBB" fill-opacity="0.3"/>
<path d="M392.684 192.46C390 191.542 387.29 190.656 384.549 189.801C293.564 159.997 265.013 213.718 239.823 261.114C229.821 279.933 220.374 297.708 207.741 309.208C176.088 341.587 155.516 348.692 141.903 353.394C132.158 356.76 126.276 358.792 122.98 368.041C120.625 373.796 123.089 383.821 129.753 395.518C136.829 407.938 147.767 420.786 160.553 431.694C177.249 446.772 192.445 450.626 205.852 454.027C209.409 454.93 212.769 455.782 215.967 456.803L215.969 456.804C220.792 458.315 225.031 459.525 228.77 460.592C246.042 465.523 256.466 468.5 291.165 490.595C313.281 504.719 358.532 521.862 405.621 526.122C431.109 528.427 453.723 526.619 472.838 520.746C495.175 513.883 512.34 501.514 523.857 483.982C536.758 463.846 545.127 441.38 548.736 417.202C552.329 393.129 551.009 368.679 544.814 344.531C536.174 310.854 518.121 279.36 492.608 253.452C466.16 226.597 432.573 206.102 392.684 192.46ZM191.733 448.87C182.234 445.622 172.023 440.602 161.182 430.812C133.712 407.377 119.463 379.106 123.85 368.387C126.962 359.656 132.658 357.689 142.096 354.429C155.799 349.696 176.507 342.543 208.315 310.003C221.078 298.388 230.574 280.521 240.627 261.604C253.385 237.599 266.577 212.777 288.02 197.33C312.414 179.756 343.878 177.635 384.208 190.846C427.559 204.38 463.803 225.727 491.934 254.291C517.331 280.081 535.3 311.422 543.895 344.925C550.052 368.923 551.364 393.214 547.795 417.125C544.213 441.123 535.907 463.42 523.108 483.397C508.328 505.896 475.974 531.39 405.79 525.041C358.834 520.793 313.729 503.711 291.692 489.637C256.894 467.479 246.427 464.49 229.087 459.54C225.352 458.473 221.12 457.265 216.307 455.758C213.086 454.729 209.715 453.874 206.146 452.968C201.549 451.803 196.74 450.582 191.733 448.87Z" fill="#004BBB" fill-opacity="0.3"/>
<path d="M385.668 217.679C352.846 206.455 326.629 207.186 305.601 219.895C286.474 231.456 273.922 251.161 261.784 270.217C251.669 286.096 242.115 301.095 229.335 310.812C200.384 336.57 180.883 343.406 167.979 347.93C157.683 351.539 151.468 353.718 148.037 362.818C142.764 374.858 152.659 403.538 173.812 423.856C189.783 440.563 203.867 444.905 217.49 449.102L219.037 449.579C225.616 451.564 231.268 452.806 236.735 454.006C251.39 457.225 265.232 460.265 293.051 477.198C313.302 489.575 353.909 504.941 395.21 509.43C430.019 513.214 476.637 510.362 501.051 475.285C524.453 440.47 532.154 396.126 522.185 353.617C515.395 324.664 500.589 297.448 479.366 274.913C456.165 250.275 426.056 231.513 389.862 219.135C389.433 218.988 389.005 218.843 388.574 218.698C387.6 218.348 386.631 218.008 385.668 217.679ZM209.63 445.528C198.607 441.759 187.112 436.349 174.428 423.081C151.816 401.359 144.28 373.544 148.828 363.16C152.088 354.515 158.138 352.394 168.16 348.88C181.133 344.332 200.737 337.46 229.802 311.598C242.703 301.792 252.309 286.712 262.478 270.747C274.549 251.797 287.03 232.202 305.952 220.766C327.366 207.823 354.273 207.465 388.243 219.654C388.67 219.798 389.103 219.944 389.528 220.09C425.615 232.431 455.617 251.124 478.734 275.672C499.851 298.096 514.582 325.168 521.335 353.96C526.27 375.002 526.941 396.26 523.329 417.143C519.709 438.08 511.987 457.453 500.377 474.723C476.245 509.397 429.958 512.197 395.378 508.438C354.189 503.961 313.707 488.645 293.524 476.309C265.599 459.312 251.698 456.259 236.983 453.027C231.529 451.829 225.89 450.59 219.339 448.614L217.796 448.138C215.096 447.306 212.377 446.468 209.63 445.528Z" fill="#004BBB" fill-opacity="0.3"/>
<path d="M383.936 244.36C359.931 236.149 340.068 235.938 323.418 243.672C306.843 251.371 295.05 265.973 283.645 280.095C273.901 292.159 263.826 304.635 250.93 312.42C225.097 331.609 206.84 337.989 194.759 342.21C183.52 346.138 176.736 348.508 173.094 357.595C167.826 368.885 170.64 397.278 187.068 416.012C198.209 430.481 208.691 438.362 222.103 442.355L222.106 442.355C229.248 444.412 235.715 445.355 242.562 446.354C257.032 448.465 271.996 450.648 294.937 463.801C313.439 474.469 349.452 488.076 384.798 492.739C415.427 496.781 456.502 495.524 478.243 466.589C499.352 437.136 507.151 399.245 499.648 362.622C494.684 338.396 483.102 315.468 466.153 296.317C447.406 275.135 422.659 258.743 392.6 247.597C389.655 246.407 386.765 245.327 383.936 244.36ZM220.009 440.716C207.86 436.561 198.07 428.851 187.678 415.357C171.47 396.872 168.64 369.003 173.806 357.93C177.29 349.24 183.554 347.052 194.924 343.078C207.053 338.84 225.382 332.435 251.286 313.191C264.284 305.346 274.415 292.803 284.211 280.673C295.547 266.636 307.27 252.122 323.657 244.51C342.071 235.956 364.513 237.251 392.276 248.461C422.237 259.572 446.891 275.899 465.56 296.993C482.416 316.039 493.933 338.832 498.866 362.909C506.312 399.252 498.578 436.845 477.648 466.048C456.171 494.633 415.392 495.849 384.967 491.835C349.712 487.183 313.801 473.616 295.354 462.98C272.3 449.763 257.274 447.571 242.74 445.451C235.917 444.456 229.472 443.516 222.373 441.471C221.575 441.234 220.787 440.982 220.009 440.716Z" fill="#004BBB" fill-opacity="0.3"/>
<path d="M382.007 270.499C343.332 257.272 324.674 273.723 305.04 291.032C295.357 299.568 285.344 308.395 272.526 314.036C250.605 326.749 234.647 332.114 222.996 336.032C209.555 340.551 202.151 343.041 198.15 352.374C195.119 358.493 193.156 368.454 193.039 378.345C192.897 390.3 195.483 400.888 200.318 408.157C207.459 421.469 213.833 431.926 225.171 435.131L225.174 435.131C232.35 437.079 239.768 437.62 247.62 438.193C261.794 439.227 277.86 440.4 296.824 450.404C309.94 457.377 341.038 470.625 374.384 476.048C391.734 478.869 407.094 479.122 420.039 476.801C435.332 474.059 447.24 467.698 455.432 457.895C474.336 433.793 482.296 402.308 477.28 371.503C474.105 352.005 465.709 333.377 452.999 317.631C438.944 300.218 419.978 286.378 396.628 276.496C391.451 274.049 386.588 272.066 382.007 270.499ZM224.171 433.944C213.833 430.408 207.744 420.351 200.93 407.65C189.875 391.029 193.661 363.046 198.785 352.697C202.638 343.713 209.919 341.264 223.137 336.82C234.818 332.892 250.817 327.513 272.766 314.781C285.657 309.11 295.718 300.241 305.448 291.663C316.541 281.884 327.019 272.647 340.906 268.602C356.555 264.044 374.158 266.798 396.307 277.266C419.572 287.113 438.456 300.89 452.443 318.219C465.072 333.865 473.414 352.368 476.566 371.729C481.54 402.275 473.65 433.491 454.921 457.371C446.865 467.01 435.112 473.278 419.996 475.988C407.123 478.296 391.835 478.041 374.556 475.232C341.288 469.822 310.267 456.607 297.182 449.652C278.106 439.587 261.972 438.409 247.737 437.371C239.916 436.801 232.527 436.261 225.407 434.329C224.989 434.211 224.576 434.082 224.171 433.944Z" fill="#004BBB" fill-opacity="0.3"/>
<path d="M379.771 295.45C356.411 287.46 341.89 294.665 324.48 303.3C315.391 307.808 305.994 312.469 294.119 315.661C277.943 322.106 265.248 325.88 255.047 328.912C237.545 334.114 227.904 336.979 223.207 347.153C217.368 358.296 208.221 386.229 213.557 400.253C213.8 401.29 214.037 402.334 214.275 403.378C216.753 414.283 219.32 425.559 228.239 427.907L228.242 427.907C235.21 429.656 243.626 429.685 252.536 429.716C266.952 429.766 283.292 429.821 298.713 437.008C315.38 444.854 400.169 482.318 432.617 449.205C449.484 430.449 457.733 405.296 455.26 380.183C453.784 365.2 448.644 351.271 439.984 338.784C430.546 325.176 417.316 313.943 400.66 305.399C392.915 300.818 386.025 297.589 379.771 295.45ZM227.648 426.947C219.699 424.229 217.263 413.509 214.904 403.129C214.665 402.076 214.425 401.022 214.18 399.976L214.166 399.929C208.9 386.146 217.974 358.516 223.766 347.463C228.32 337.599 237.851 334.766 255.152 329.624C265.365 326.588 278.076 322.81 294.244 316.365C306.144 313.169 315.571 308.493 324.689 303.971C346.597 293.104 363.903 284.522 400.332 306.068C416.918 314.577 430.077 325.747 439.459 339.274C448.052 351.664 453.151 365.479 454.614 380.336C457.064 405.212 448.894 430.126 432.198 448.691C419.27 461.884 396.37 465.232 364.146 458.63C335.781 452.819 309.145 441.094 299.009 436.323C283.48 429.087 267.075 429.029 252.601 428.979C243.726 428.948 235.343 428.919 228.441 427.187C228.171 427.116 227.906 427.036 227.648 426.947Z" fill="#004BBB" fill-opacity="0.3"/>
<path d="M376.329 316.899C362.517 312.176 349.643 313.62 331.845 315.617C326.787 316.185 321.557 316.772 315.707 317.294C311.349 318.143 307.271 318.922 303.432 319.655C270.021 326.035 254.773 328.947 248.263 341.933C243.019 351.42 227.05 380.315 226.831 392.312C224.721 404.533 223.341 418.79 231.308 420.682L231.311 420.683C237.977 422.183 247.614 421.583 257.816 420.947C272.204 420.05 288.51 419.035 300.605 423.612C302.902 424.494 305.635 425.599 308.799 426.877C321.762 432.116 341.35 440.033 360.432 444.364C383.263 449.546 399.87 448.252 409.791 440.518C424.767 427.364 433.845 407.949 434.089 388.569C434.359 367.08 423.923 347.811 404.701 334.309C393.93 325.196 384.947 319.847 376.329 316.899ZM230.898 419.878C224.003 417.52 225.386 403.987 227.398 392.347L227.403 392.289C227.595 380.498 243.515 351.691 248.746 342.225C255.11 329.531 270.266 326.637 303.472 320.296C307.312 319.563 311.391 318.784 315.722 317.939C321.551 317.419 326.784 316.832 331.845 316.264C360.612 313.037 376.458 311.26 404.349 334.858C423.432 348.263 433.784 367.353 433.516 388.624C433.275 407.792 424.291 427 409.485 440.006C399.721 447.616 383.268 448.872 360.597 443.726C341.552 439.403 321.985 431.496 309.037 426.262C305.871 424.983 303.137 423.878 300.834 422.994C288.637 418.378 272.279 419.398 257.841 420.297C247.677 420.931 238.075 421.53 231.476 420.045C231.278 419.998 231.085 419.942 230.898 419.878Z" fill="#004BBB" fill-opacity="0.3"/>
<path d="M361.888 321.559C360.882 321.214 359.869 320.891 358.847 320.589C342.223 315.662 328.311 314.665 317.499 317.625C309.01 319.95 302.576 324.617 298.375 331.5C291.496 342.768 264.676 369.706 253.534 376.535C249.382 379.08 244.836 384.089 241.061 390.278C237.645 395.877 235.595 401.308 235.838 404.115C235.946 405.364 236.505 406.096 237.448 406.234C244.05 407.196 260.123 404.142 275.666 401.189C287.718 398.899 299.103 396.735 304.412 396.817C310.434 396.908 321.055 402.799 332.298 409.036C343.881 415.46 355.858 422.105 364.067 423.12C372.655 424.183 383.705 421.707 392.903 416.657C403.653 410.756 410.719 402.117 412.799 392.331C415.232 380.88 411.179 365.92 401.955 352.312C392.199 337.917 378.058 327.089 361.888 321.559ZM237.255 405.693C236.663 405.49 236.336 404.941 236.256 404.023C235.785 398.584 244.571 382.548 253.704 376.95C264.887 370.095 291.807 343.056 298.712 331.744C302.844 324.975 309.185 320.381 317.558 318.089C328.301 315.147 342.145 316.144 358.704 321.051C376.056 326.191 391.298 337.407 401.613 352.625C410.63 365.929 414.76 381.117 412.391 392.264C410.345 401.891 403.37 410.403 392.751 416.232C383.625 421.242 372.666 423.7 364.153 422.646C356.012 421.638 344.065 415.012 332.512 408.603C321.228 402.345 310.572 396.433 304.459 396.34C299.112 396.258 287.709 398.425 275.637 400.719C260.125 403.666 244.083 406.714 237.541 405.761C237.44 405.746 237.344 405.723 237.255 405.693Z" fill="#004BBB" fill-opacity="0.3"/>
</svg>
