<svg width="731" height="197" viewBox="0 0 731 197" fill="none" xmlns="http://www.w3.org/2000/svg">
<g opacity="0.1">
<mask id="mask0_21_3375" style="mask-type:alpha" maskUnits="userSpaceOnUse" x="22" y="-390" width="627" height="529">
<path d="M403.465 -370.28C392.068 -374.178 380.391 -377.683 368.457 -380.788C301.317 -398.251 250.983 -388.297 214.581 -350.36C183.038 -317.487 166.716 -268.754 152.315 -225.757C142.703 -197.057 133.624 -169.948 121.386 -152.19C80.6489 -93.0728 55.411 -85.4332 40.3321 -80.8688C31.6005 -78.2257 25.8326 -76.4797 22.7552 -66.064C19.7396 -55.8569 46.6689 -32.3155 107.503 8.02175C133.813 25.4682 158.493 26.5885 178.323 27.489C188.257 27.9401 196.851 28.3304 203.696 30.6993L203.933 30.0132L203.696 30.6993C222.547 37.211 226.875 41.3955 236.356 50.5638C244.262 58.209 256.21 69.7629 283.626 89.183C307.719 106.249 348.996 122.21 391.353 130.836C415.454 135.745 439.081 138.224 461.579 138.204C486.762 138.182 509.953 134.996 530.505 128.734C568.577 117.135 597.03 95.2804 615.073 63.7777C632.848 32.7425 643.647 -1.53101 647.17 -38.0905C650.67 -74.4053 646.819 -111.123 635.725 -147.223C619.576 -199.772 588.438 -248.334 545.677 -287.66C522.881 -308.625 496.753 -327.036 468.019 -342.381C447.828 -353.163 426.215 -362.5 403.465 -370.28ZM133.05 19.0512C125.011 16.302 116.695 12.391 108.216 6.76844C80.5484 -11.5771 60.2777 -26.1842 46.2446 -37.8878C26.0029 -54.7695 22.946 -62.3481 23.9458 -65.7327C26.7792 -75.3228 31.6676 -76.8024 40.5418 -79.4886C55.7911 -84.1048 81.3139 -91.8305 122.349 -151.38C134.72 -169.332 143.836 -196.551 153.488 -225.367C167.832 -268.197 184.091 -316.741 215.381 -349.351C251.423 -386.913 301.366 -396.739 368.062 -379.391C403.743 -370.112 437.162 -357.22 467.393 -341.075C496.048 -325.773 522.1 -307.416 544.828 -286.514C587.431 -247.333 618.449 -198.964 634.53 -146.637C645.566 -110.727 649.397 -74.2118 645.918 -38.1059C642.418 -1.78655 631.692 32.2589 614.037 63.0843C596.194 94.2375 568.019 115.861 530.293 127.355C509.851 133.583 486.774 136.752 461.702 136.774C439.277 136.793 415.722 134.322 391.692 129.428C349.471 120.829 308.346 104.934 284.366 87.948C257.019 68.5766 245.108 57.0585 237.226 49.4368C227.625 40.1531 223.243 35.9159 204.169 29.327C204.137 29.3159 204.103 29.3045 204.071 29.2934C197.083 26.9037 188.467 26.5124 178.497 26.0596C165.206 25.4562 149.722 24.7529 133.05 19.0512Z" fill="url(#paint0_linear_21_3375)"/>
</mask>
<g mask="url(#mask0_21_3375)">
<path d="M403.465 -370.28C392.068 -374.178 380.391 -377.683 368.457 -380.788C301.317 -398.251 250.983 -388.297 214.581 -350.36C183.038 -317.487 166.716 -268.754 152.315 -225.757C142.703 -197.057 133.624 -169.948 121.386 -152.19C80.6489 -93.0728 55.411 -85.4332 40.3321 -80.8688C31.6005 -78.2257 25.8326 -76.4797 22.7552 -66.064C19.7396 -55.8569 46.6689 -32.3155 107.503 8.02175C133.813 25.4682 158.493 26.5885 178.323 27.489C188.257 27.9401 196.851 28.3304 203.696 30.6993L203.933 30.0132L203.696 30.6993C222.547 37.211 226.875 41.3955 236.356 50.5638C244.262 58.209 256.21 69.7629 283.626 89.183C307.719 106.249 348.996 122.21 391.353 130.836C415.454 135.745 439.081 138.224 461.579 138.204C486.762 138.182 509.953 134.996 530.505 128.734C568.577 117.135 597.03 95.2804 615.073 63.7777C632.848 32.7425 643.647 -1.53101 647.17 -38.0905C650.67 -74.4053 646.819 -111.123 635.725 -147.223C619.576 -199.772 588.438 -248.334 545.677 -287.66C522.881 -308.625 496.753 -327.036 468.019 -342.381C447.828 -353.163 426.215 -362.5 403.465 -370.28ZM133.05 19.0512C125.011 16.302 116.695 12.391 108.216 6.76844C80.5484 -11.5771 60.2777 -26.1842 46.2446 -37.8878C26.0029 -54.7695 22.946 -62.3481 23.9458 -65.7327C26.7792 -75.3228 31.6676 -76.8024 40.5418 -79.4886C55.7911 -84.1048 81.3139 -91.8305 122.349 -151.38C134.72 -169.332 143.836 -196.551 153.488 -225.367C167.832 -268.197 184.091 -316.741 215.381 -349.351C251.423 -386.913 301.366 -396.739 368.062 -379.391C403.743 -370.112 437.162 -357.22 467.393 -341.075C496.048 -325.773 522.1 -307.416 544.828 -286.514C587.431 -247.333 618.449 -198.964 634.53 -146.637C645.566 -110.727 649.397 -74.2118 645.918 -38.1059C642.418 -1.78655 631.692 32.2589 614.037 63.0843C596.194 94.2375 568.019 115.861 530.293 127.355C509.851 133.583 486.774 136.752 461.702 136.774C439.277 136.793 415.722 134.322 391.692 129.428C349.471 120.829 308.346 104.934 284.366 87.948C257.019 68.5766 245.108 57.0585 237.226 49.4368C227.625 40.1531 223.243 35.9159 204.169 29.327C204.137 29.3159 204.103 29.3045 204.071 29.2934C197.083 26.9037 188.467 26.5124 178.497 26.0596C165.206 25.4562 149.722 24.7529 133.05 19.0512Z" fill="#004BBB"/>
</g>
<mask id="mask1_21_3375" style="mask-type:alpha" maskUnits="userSpaceOnUse" x="47" y="-361" width="577" height="483">
<path d="M400.716 -343.283C391.501 -346.434 382.084 -349.306 372.479 -351.891C312.061 -368.311 266.403 -360.379 232.899 -327.643C203.793 -299.204 188.026 -256.204 174.115 -218.266C164.425 -191.839 155.272 -166.878 142.972 -150.592C104.36 -98.1844 80.0354 -90.5282 65.5022 -85.9539C56.7189 -83.1892 50.9158 -81.3631 47.8117 -71.2881C45.9772 -65.6245 52.2694 -55.8984 66.5158 -42.3913C79.3324 -30.24 98.0923 -15.5152 120.768 0.191561C144.397 16.7192 166.619 18.5568 184.474 20.0336C193.106 20.7474 200.56 21.3641 206.764 23.4754L206.764 23.4755C226.445 30.1324 230.694 33.6274 243.307 43.9628C251.781 50.907 263.387 60.4175 285.511 75.7857C308.17 91.5352 346.7 106.37 386.062 114.5C408.575 119.15 430.594 121.545 451.507 121.617C474.972 121.698 496.53 118.823 515.585 113.072C549.96 102.697 575.761 83.1853 592.27 55.0782C608.817 26.7702 619.001 -4.54649 622.539 -38.0036C626.055 -71.2497 622.834 -104.892 612.964 -137.996C598.702 -185.829 570.845 -230.129 532.402 -266.107C511.906 -285.29 488.366 -302.182 462.439 -316.313C443.215 -326.789 422.542 -335.819 400.716 -343.283ZM146.833 11.9774C138.66 9.18234 130.152 5.10906 121.456 -0.972995C73.4948 -34.195 45.7023 -61.0075 48.9217 -70.9484C51.7974 -80.2821 57.0346 -81.9302 65.7113 -84.6613C80.393 -89.2821 104.965 -97.0165 143.843 -149.784C156.278 -166.248 165.47 -191.317 175.201 -217.857C189.055 -255.639 204.757 -298.462 233.618 -326.662C266.785 -359.068 312.083 -366.893 372.1 -350.582C404.379 -341.894 434.573 -329.953 461.844 -315.09C487.696 -301 511.165 -284.159 531.598 -265.036C569.893 -229.196 597.639 -185.08 611.839 -137.455C621.655 -104.532 624.859 -71.0818 621.364 -38.0323C617.85 -4.80089 607.736 26.3026 591.304 54.4132C574.985 82.1976 549.443 101.498 515.389 111.776C490.219 119.372 447.407 125.782 386.383 113.177C347.144 105.072 308.755 90.2975 286.199 74.6207C264.108 59.2758 252.52 49.78 244.059 42.8468C231.685 32.7068 227.042 28.9142 207.203 22.1845C200.884 20.0342 193.373 19.4129 184.675 18.6936C173.528 17.7714 160.663 16.7069 146.833 11.9774Z" fill="url(#paint1_linear_21_3375)"/>
</mask>
<g mask="url(#mask1_21_3375)">
<path d="M400.716 -343.283C391.501 -346.434 382.084 -349.306 372.479 -351.891C312.061 -368.311 266.403 -360.379 232.899 -327.643C203.793 -299.204 188.026 -256.204 174.115 -218.266C164.425 -191.839 155.272 -166.878 142.972 -150.592C104.36 -98.1844 80.0354 -90.5282 65.5022 -85.9539C56.7189 -83.1892 50.9158 -81.3631 47.8117 -71.2881C45.9772 -65.6245 52.2694 -55.8984 66.5158 -42.3913C79.3324 -30.24 98.0923 -15.5152 120.768 0.191561C144.397 16.7192 166.619 18.5568 184.474 20.0336C193.106 20.7474 200.56 21.3641 206.764 23.4754L206.764 23.4755C226.445 30.1324 230.694 33.6274 243.307 43.9628C251.781 50.907 263.387 60.4175 285.511 75.7857C308.17 91.5352 346.7 106.37 386.062 114.5C408.575 119.15 430.594 121.545 451.507 121.617C474.972 121.698 496.53 118.823 515.585 113.072C549.96 102.697 575.761 83.1853 592.27 55.0782C608.817 26.7702 619.001 -4.54649 622.539 -38.0036C626.055 -71.2497 622.834 -104.892 612.964 -137.996C598.702 -185.829 570.845 -230.129 532.402 -266.107C511.906 -285.29 488.366 -302.182 462.439 -316.313C443.215 -326.789 422.542 -335.819 400.716 -343.283ZM146.833 11.9774C138.66 9.18234 130.152 5.10906 121.456 -0.972995C73.4948 -34.195 45.7023 -61.0075 48.9217 -70.9484C51.7974 -80.2821 57.0346 -81.9302 65.7113 -84.6613C80.393 -89.2821 104.965 -97.0165 143.843 -149.784C156.278 -166.248 165.47 -191.317 175.201 -217.857C189.055 -255.639 204.757 -298.462 233.618 -326.662C266.785 -359.068 312.083 -366.893 372.1 -350.582C404.379 -341.894 434.573 -329.953 461.844 -315.09C487.696 -301 511.165 -284.159 531.598 -265.036C569.893 -229.196 597.639 -185.08 611.839 -137.455C621.655 -104.532 624.859 -71.0818 621.364 -38.0323C617.85 -4.80089 607.736 26.3026 591.304 54.4132C574.985 82.1976 549.443 101.498 515.389 111.776C490.219 119.372 447.407 125.782 386.383 113.177C347.144 105.072 308.755 90.2975 286.199 74.6207C264.108 59.2758 252.52 49.78 244.059 42.8468C231.685 32.7068 227.042 28.9142 207.203 22.1845C200.884 20.0342 193.373 19.4129 184.675 18.6936C173.528 17.7714 160.663 16.7069 146.833 11.9774Z" fill="#004BBB"/>
</g>
<mask id="mask2_21_3375" style="mask-type:alpha" maskUnits="userSpaceOnUse" x="72" y="-332" width="528" height="438">
<path d="M398.293 -316.228C391.18 -318.661 383.921 -320.915 376.502 -322.994C322.757 -338.372 281.764 -332.418 251.181 -304.794C224.531 -280.723 209.356 -243.42 195.966 -210.509C186.185 -186.465 176.946 -163.755 164.559 -148.994C128.145 -103.282 104.756 -95.6501 90.7818 -91.0906C81.8881 -88.1885 76.0127 -86.2714 72.8675 -76.5126C68.2164 -63.3099 101.311 -31.552 134.03 -7.63991C155.084 8.08213 174.937 10.6372 190.891 12.6905C198.125 13.6217 204.373 14.4256 209.831 16.2509L209.832 16.2513C232.238 23.6737 235.917 26.2902 256.35 40.7872C264.043 46.2459 273.619 53.0395 287.395 62.3883C301.476 71.9561 322.24 81.3906 345.863 88.9515C372.446 97.4608 400.31 102.838 426.444 104.503C457.373 106.473 484.823 103.289 508.032 95.0409C535.068 85.4319 555.737 69.0595 569.466 46.3785C584.79 20.7964 594.363 -7.56648 597.919 -37.925C601.455 -68.1069 598.864 -98.6782 590.219 -128.789C577.839 -171.906 553.258 -211.941 519.13 -244.568C486.296 -275.959 445.718 -300.009 398.293 -316.228ZM160.997 5.22825C152.594 2.35442 143.753 -1.94989 134.696 -8.71371C95.7281 -37.1922 70.1601 -65.5594 73.897 -76.1673C76.8291 -85.2644 82.1587 -87.0036 90.9882 -89.8846C105.089 -94.4858 128.69 -102.186 165.335 -148.189C177.856 -163.11 187.138 -185.924 196.964 -210.078C210.294 -242.845 225.403 -279.983 251.816 -303.841C282.085 -331.182 322.751 -337.047 376.136 -321.772C432.875 -305.873 480.725 -279.563 518.37 -243.573C552.36 -211.078 576.839 -171.215 589.162 -128.296C597.759 -98.3555 600.336 -67.9652 596.822 -37.9681C593.29 -7.82009 583.785 20.344 568.571 45.7415C555.01 68.1471 534.562 84.3321 507.799 93.8441C484.723 102.045 457.409 105.209 426.614 103.248C400.556 101.588 372.769 96.2252 346.259 87.7391C322.719 80.2006 302.039 70.8116 288.029 61.2924C274.262 51.9493 264.691 45.1588 257.001 39.7026C236.471 25.1372 232.772 22.5162 210.237 15.0414C204.693 13.1881 198.404 12.3784 191.122 11.4412C182.156 10.2873 171.948 8.97318 160.997 5.22825Z" fill="url(#paint2_linear_21_3375)"/>
</mask>
<g mask="url(#mask2_21_3375)">
<path d="M398.293 -316.228C391.18 -318.661 383.921 -320.915 376.502 -322.994C322.757 -338.372 281.764 -332.418 251.181 -304.794C224.531 -280.723 209.356 -243.42 195.966 -210.509C186.185 -186.465 176.946 -163.755 164.559 -148.994C128.145 -103.282 104.756 -95.6501 90.7818 -91.0906C81.8881 -88.1885 76.0127 -86.2714 72.8675 -76.5126C68.2164 -63.3099 101.311 -31.552 134.03 -7.63991C155.084 8.08213 174.937 10.6372 190.891 12.6905C198.125 13.6217 204.373 14.4256 209.831 16.2509L209.832 16.2513C232.238 23.6737 235.917 26.2902 256.35 40.7872C264.043 46.2459 273.619 53.0395 287.395 62.3883C301.476 71.9561 322.24 81.3906 345.863 88.9515C372.446 97.4608 400.31 102.838 426.444 104.503C457.373 106.473 484.823 103.289 508.032 95.0409C535.068 85.4319 555.737 69.0595 569.466 46.3785C584.79 20.7964 594.363 -7.56648 597.919 -37.925C601.455 -68.1069 598.864 -98.6782 590.219 -128.789C577.839 -171.906 553.258 -211.941 519.13 -244.568C486.296 -275.959 445.718 -300.009 398.293 -316.228ZM160.997 5.22825C152.594 2.35442 143.753 -1.94989 134.696 -8.71371C95.7281 -37.1922 70.1601 -65.5594 73.897 -76.1673C76.8291 -85.2644 82.1587 -87.0036 90.9882 -89.8846C105.089 -94.4858 128.69 -102.186 165.335 -148.189C177.856 -163.11 187.138 -185.924 196.964 -210.078C210.294 -242.845 225.403 -279.983 251.816 -303.841C282.085 -331.182 322.751 -337.047 376.136 -321.772C432.875 -305.873 480.725 -279.563 518.37 -243.573C552.36 -211.078 576.839 -171.215 589.162 -128.296C597.759 -98.3555 600.336 -67.9652 596.822 -37.9681C593.29 -7.82009 583.785 20.344 568.571 45.7415C555.01 68.1471 534.562 84.3321 507.799 93.8441C484.723 102.045 457.409 105.209 426.614 103.248C400.556 101.588 372.769 96.2252 346.259 87.7391C322.719 80.2006 302.039 70.8116 288.029 61.2924C274.262 51.9493 264.691 45.1588 257.001 39.7026C236.471 25.1372 232.772 22.5162 210.237 15.0414C204.693 13.1881 198.404 12.3784 191.122 11.4412C182.156 10.2873 171.948 8.97318 160.997 5.22825Z" fill="#004BBB"/>
</g>
<mask id="mask3_21_3375" style="mask-type:alpha" maskUnits="userSpaceOnUse" x="97" y="-303" width="479" height="392">
<path d="M395.492 -289.343C390.585 -291.021 385.598 -292.605 380.526 -294.097C333.394 -308.433 297.047 -304.406 269.413 -281.783C245.244 -261.997 231.329 -231.707 217.873 -202.415C207.986 -180.894 198.647 -160.566 186.149 -147.394C152.038 -108.36 130.485 -101.101 116.222 -96.2974C106.811 -93.1278 101.131 -91.2144 97.9246 -81.7363C93.3754 -69.7896 115.057 -40.6723 147.293 -15.4726C165.958 -0.334411 183.618 2.94518 197.808 5.58089C203.236 6.58891 208.363 7.54103 212.899 9.02669L212.901 9.02721L215.201 9.76958C241.655 18.3021 243.813 19 289.28 48.9911C302.049 57.431 321.492 66.1921 342.61 73.036C366.904 80.9035 392.294 86.0131 416.033 87.812C444.24 89.9495 469.273 87.4534 490.436 80.3932C515.122 72.1571 534.039 57.7862 546.662 37.6797C560.77 14.8222 569.737 -10.5903 573.316 -37.8554C576.877 -64.979 574.92 -92.4854 567.499 -119.611C556.994 -158.008 535.682 -193.775 505.865 -223.045C476.21 -252.157 439.134 -274.417 395.492 -289.343ZM175.841 -0.95536C167.041 -3.96504 157.622 -8.59955 147.938 -16.4525C116.581 -40.9659 94.573 -70.0938 98.8739 -81.3889C101.881 -90.2798 107.355 -92.1233 116.423 -95.1777C129.924 -99.725 152.521 -107.336 186.827 -146.593C199.458 -159.904 208.842 -180.331 218.777 -201.957C232.17 -231.111 246.019 -261.257 269.96 -280.856C297.305 -303.243 333.357 -307.203 380.174 -292.963C430.218 -278.241 472.265 -254.41 505.149 -222.128C534.838 -192.982 556.058 -157.378 566.512 -119.165C573.889 -92.201 575.835 -64.8645 572.297 -37.9145C568.744 -10.845 559.842 14.3836 545.84 37.0696C533.378 56.9207 514.669 71.1213 490.238 79.2725C469.197 86.2924 444.287 88.7725 416.202 86.6441C392.531 84.8505 367.211 79.7548 342.981 71.9079C321.932 65.0921 302.568 56.3633 289.862 47.9645C244.295 17.9077 242.125 17.2059 215.571 8.64137L213.273 7.89957C208.683 6.39616 203.528 5.43882 198.07 4.4253C191.354 3.17782 183.854 1.78483 175.841 -0.95536Z" fill="url(#paint3_linear_21_3375)"/>
</mask>
<g mask="url(#mask3_21_3375)">
<path d="M395.492 -289.343C390.585 -291.021 385.598 -292.605 380.526 -294.097C333.394 -308.433 297.047 -304.406 269.413 -281.783C245.244 -261.997 231.329 -231.707 217.873 -202.415C207.986 -180.894 198.647 -160.566 186.149 -147.394C152.038 -108.36 130.485 -101.101 116.222 -96.2974C106.811 -93.1278 101.131 -91.2144 97.9246 -81.7363C93.3754 -69.7896 115.057 -40.6723 147.293 -15.4726C165.958 -0.334411 183.618 2.94518 197.808 5.58089C203.236 6.58891 208.363 7.54103 212.899 9.02669L212.901 9.02721L215.201 9.76958C241.655 18.3021 243.813 19 289.28 48.9911C302.049 57.431 321.492 66.1921 342.61 73.036C366.904 80.9035 392.294 86.0131 416.033 87.812C444.24 89.9495 469.273 87.4534 490.436 80.3932C515.122 72.1571 534.039 57.7862 546.662 37.6797C560.77 14.8222 569.737 -10.5903 573.316 -37.8554C576.877 -64.979 574.92 -92.4854 567.499 -119.611C556.994 -158.008 535.682 -193.775 505.865 -223.045C476.21 -252.157 439.134 -274.417 395.492 -289.343ZM175.841 -0.95536C167.041 -3.96504 157.622 -8.59955 147.938 -16.4525C116.581 -40.9659 94.573 -70.0938 98.8739 -81.3889C101.881 -90.2798 107.355 -92.1233 116.423 -95.1777C129.924 -99.725 152.521 -107.336 186.827 -146.593C199.458 -159.904 208.842 -180.331 218.777 -201.957C232.17 -231.111 246.019 -261.257 269.96 -280.856C297.305 -303.243 333.357 -307.203 380.174 -292.963C430.218 -278.241 472.265 -254.41 505.149 -222.128C534.838 -192.982 556.058 -157.378 566.512 -119.165C573.889 -92.201 575.835 -64.8645 572.297 -37.9145C568.744 -10.845 559.842 14.3836 545.84 37.0696C533.378 56.9207 514.669 71.1213 490.238 79.2725C469.197 86.2924 444.287 88.7725 416.202 86.6441C392.531 84.8505 367.211 79.7548 342.981 71.9079C321.932 65.0921 302.568 56.3633 289.862 47.9645C244.295 17.9077 242.125 17.2059 215.571 8.64137L213.273 7.89957C208.683 6.39616 203.528 5.43882 198.07 4.4253C191.354 3.17782 183.854 1.78483 175.841 -0.95536Z" fill="#004BBB"/>
</g>
<mask id="mask4_21_3375" style="mask-type:alpha" maskUnits="userSpaceOnUse" x="122" y="-274" width="429" height="347">
<path d="M392.684 -262.54C390 -263.458 387.29 -264.344 384.549 -265.2C293.564 -295.004 265.013 -241.283 239.823 -193.886C229.821 -175.067 220.374 -157.292 207.741 -145.793C176.088 -113.414 155.516 -106.308 141.903 -101.606C132.158 -98.2401 126.276 -96.2083 122.98 -86.9597C120.625 -81.2048 123.089 -71.1796 129.753 -59.4825C136.829 -47.0621 147.767 -34.2147 160.553 -23.3066C177.249 -8.2286 192.445 -4.37424 205.852 -0.973212C209.409 -0.0708314 212.769 0.781567 215.967 1.80273L215.969 1.80351C220.792 3.31414 225.031 4.5243 228.77 5.59206C246.042 10.5231 256.466 13.4999 291.165 35.5942C313.281 49.7191 358.532 66.8614 405.621 71.1213C431.109 73.4269 453.723 71.6182 472.838 65.7452C495.175 58.8822 512.34 46.5132 523.857 28.9816C536.758 8.8459 545.127 -13.6204 548.736 -37.7986C552.329 -61.8715 551.009 -86.3217 544.814 -110.47C536.174 -144.146 518.121 -175.641 492.608 -201.548C466.16 -228.404 432.573 -248.898 392.684 -262.54ZM191.733 -6.1301C182.234 -9.37856 172.023 -14.3983 161.182 -24.188C133.712 -47.6238 119.463 -75.8941 123.85 -86.6133C126.962 -95.3441 132.658 -97.3118 142.096 -100.572C155.799 -105.305 176.507 -112.457 208.315 -144.997C221.078 -156.612 230.574 -174.48 240.627 -193.396C253.385 -217.401 266.577 -242.223 288.02 -257.671C312.414 -275.245 343.878 -277.365 384.208 -264.154C427.559 -250.62 463.803 -229.274 491.934 -200.709C517.331 -174.919 535.3 -143.579 543.895 -110.075C550.052 -86.0778 551.364 -61.7866 547.795 -37.8756C544.213 -13.8773 535.907 8.41996 523.108 28.3968C508.328 50.8958 475.974 76.39 405.79 70.0409C358.834 65.7929 313.729 48.7106 291.692 34.6366C256.894 12.4791 246.427 9.49004 229.087 4.53932C225.352 3.47305 221.12 2.26457 216.307 0.757176C213.086 -0.271411 209.715 -1.12653 206.146 -2.03197C201.549 -3.19781 196.74 -4.41795 191.733 -6.1301Z" fill="url(#paint4_linear_21_3375)"/>
</mask>
<g mask="url(#mask4_21_3375)">
<path d="M392.684 -262.54C390 -263.458 387.29 -264.344 384.549 -265.2C293.564 -295.004 265.013 -241.283 239.823 -193.886C229.821 -175.067 220.374 -157.292 207.741 -145.793C176.088 -113.414 155.516 -106.308 141.903 -101.606C132.158 -98.2401 126.276 -96.2083 122.98 -86.9597C120.625 -81.2048 123.089 -71.1796 129.753 -59.4825C136.829 -47.0621 147.767 -34.2147 160.553 -23.3066C177.249 -8.2286 192.445 -4.37424 205.852 -0.973212C209.409 -0.0708314 212.769 0.781567 215.967 1.80273L215.969 1.80351C220.792 3.31414 225.031 4.5243 228.77 5.59206C246.042 10.5231 256.466 13.4999 291.165 35.5942C313.281 49.7191 358.532 66.8614 405.621 71.1213C431.109 73.4269 453.723 71.6182 472.838 65.7452C495.175 58.8822 512.34 46.5132 523.857 28.9816C536.758 8.8459 545.127 -13.6204 548.736 -37.7986C552.329 -61.8715 551.009 -86.3217 544.814 -110.47C536.174 -144.146 518.121 -175.641 492.608 -201.548C466.16 -228.404 432.573 -248.898 392.684 -262.54ZM191.733 -6.1301C182.234 -9.37856 172.023 -14.3983 161.182 -24.188C133.712 -47.6238 119.463 -75.8941 123.85 -86.6133C126.962 -95.3441 132.658 -97.3118 142.096 -100.572C155.799 -105.305 176.507 -112.457 208.315 -144.997C221.078 -156.612 230.574 -174.48 240.627 -193.396C253.385 -217.401 266.577 -242.223 288.02 -257.671C312.414 -275.245 343.878 -277.365 384.208 -264.154C427.559 -250.62 463.803 -229.274 491.934 -200.709C517.331 -174.919 535.3 -143.579 543.895 -110.075C550.052 -86.0778 551.364 -61.7866 547.795 -37.8756C544.213 -13.8773 535.907 8.41996 523.108 28.3968C508.328 50.8958 475.974 76.39 405.79 70.0409C358.834 65.7929 313.729 48.7106 291.692 34.6366C256.894 12.4791 246.427 9.49004 229.087 4.53932C225.352 3.47305 221.12 2.26457 216.307 0.757176C213.086 -0.271411 209.715 -1.12653 206.146 -2.03197C201.549 -3.19781 196.74 -4.41795 191.733 -6.1301Z" fill="#004BBB"/>
</g>
<mask id="mask5_21_3375" style="mask-type:alpha" maskUnits="userSpaceOnUse" x="146" y="-246" width="381" height="302">
<path d="M385.668 -237.321C352.846 -248.546 326.629 -247.814 305.601 -235.105C286.474 -223.544 273.922 -203.839 261.784 -184.784C251.669 -168.904 242.115 -153.906 229.335 -144.189C200.384 -118.431 180.883 -111.594 167.979 -107.071C157.683 -103.461 151.468 -101.282 148.037 -92.1824C142.764 -80.1424 152.659 -51.4627 173.812 -31.1444C189.783 -14.4371 203.867 -10.0958 217.49 -5.8984L219.037 -5.42094C225.616 -3.43641 231.268 -2.19485 236.735 -0.99409C251.39 2.22439 265.232 5.26511 293.051 22.1973C313.302 34.5743 353.909 49.9407 395.21 54.4301C430.019 58.2137 476.637 55.3613 501.051 20.2845C524.453 -14.5303 532.154 -58.874 522.185 -101.384C515.395 -130.337 500.589 -157.552 479.366 -180.087C456.165 -204.725 426.056 -223.488 389.862 -235.865C389.433 -236.012 389.005 -236.157 388.574 -236.303C387.6 -236.652 386.631 -236.992 385.668 -237.321ZM209.63 -9.47203C198.607 -13.2416 187.112 -18.651 174.428 -31.9198C151.816 -53.641 144.28 -81.456 148.828 -91.8405C152.088 -100.486 158.138 -102.606 168.16 -106.12C181.133 -110.668 200.737 -117.541 229.802 -143.402C242.703 -153.209 252.309 -168.288 262.478 -184.253C274.549 -203.203 287.03 -222.798 305.952 -234.235C327.366 -247.178 354.273 -247.535 388.243 -235.347C388.67 -235.203 389.103 -235.056 389.528 -234.911C425.615 -222.569 455.617 -203.877 478.734 -179.329C499.851 -156.904 514.582 -129.833 521.335 -101.04C526.27 -79.9983 526.941 -58.7403 523.329 -37.857C519.709 -16.9202 511.987 2.4526 500.377 19.7231C476.245 54.397 429.958 57.1963 395.378 53.4376C354.189 48.9603 313.707 33.6445 293.524 21.3084C265.599 4.3115 251.698 1.25874 236.983 -1.97352C231.529 -3.17142 225.89 -4.41006 219.339 -6.38621L217.796 -6.86258C215.096 -7.69443 212.377 -8.53245 209.63 -9.47203Z" fill="url(#paint5_linear_21_3375)"/>
</mask>
<g mask="url(#mask5_21_3375)">
<path d="M385.668 -237.321C352.846 -248.546 326.629 -247.814 305.601 -235.105C286.474 -223.544 273.922 -203.839 261.784 -184.784C251.669 -168.904 242.115 -153.906 229.335 -144.189C200.384 -118.431 180.883 -111.594 167.979 -107.071C157.683 -103.461 151.468 -101.282 148.037 -92.1824C142.764 -80.1424 152.659 -51.4627 173.812 -31.1444C189.783 -14.4371 203.867 -10.0958 217.49 -5.8984L219.037 -5.42094C225.616 -3.43641 231.268 -2.19485 236.735 -0.99409C251.39 2.22439 265.232 5.26511 293.051 22.1973C313.302 34.5743 353.909 49.9407 395.21 54.4301C430.019 58.2137 476.637 55.3613 501.051 20.2845C524.453 -14.5303 532.154 -58.874 522.185 -101.384C515.395 -130.337 500.589 -157.552 479.366 -180.087C456.165 -204.725 426.056 -223.488 389.862 -235.865C389.433 -236.012 389.005 -236.157 388.574 -236.303C387.6 -236.652 386.631 -236.992 385.668 -237.321ZM209.63 -9.47203C198.607 -13.2416 187.112 -18.651 174.428 -31.9198C151.816 -53.641 144.28 -81.456 148.828 -91.8405C152.088 -100.486 158.138 -102.606 168.16 -106.12C181.133 -110.668 200.737 -117.541 229.802 -143.402C242.703 -153.209 252.309 -168.288 262.478 -184.253C274.549 -203.203 287.03 -222.798 305.952 -234.235C327.366 -247.178 354.273 -247.535 388.243 -235.347C388.67 -235.203 389.103 -235.056 389.528 -234.911C425.615 -222.569 455.617 -203.877 478.734 -179.329C499.851 -156.904 514.582 -129.833 521.335 -101.04C526.27 -79.9983 526.941 -58.7403 523.329 -37.857C519.709 -16.9202 511.987 2.4526 500.377 19.7231C476.245 54.397 429.958 57.1963 395.378 53.4376C354.189 48.9603 313.707 33.6445 293.524 21.3084C265.599 4.3115 251.698 1.25874 236.983 -1.97352C231.529 -3.17142 225.89 -4.41006 219.339 -6.38621L217.796 -6.86258C215.096 -7.69443 212.377 -8.53245 209.63 -9.47203Z" fill="#004BBB"/>
</g>
<mask id="mask6_21_3375" style="mask-type:alpha" maskUnits="userSpaceOnUse" x="170" y="-217" width="333" height="257">
<path d="M383.936 -210.641C359.931 -218.851 340.068 -219.063 323.418 -211.329C306.843 -203.629 295.05 -189.027 283.645 -174.906C273.901 -162.841 263.826 -150.365 250.93 -142.58C225.097 -123.392 206.84 -117.012 194.759 -112.79C183.52 -108.863 176.736 -106.492 173.094 -97.4052C167.826 -86.1155 170.64 -57.7221 187.068 -38.9884C198.209 -24.5196 208.691 -16.6385 222.103 -12.6459L222.106 -12.6452C229.248 -10.5884 235.715 -9.6451 242.562 -8.64636C257.032 -6.53506 271.996 -4.3527 294.937 8.80038C313.439 19.4686 349.452 33.075 384.798 37.7387C415.427 41.7801 456.502 40.5238 478.243 11.5885C499.352 -17.8645 507.151 -55.7556 499.648 -92.3784C494.684 -116.605 483.102 -139.532 466.153 -158.683C447.406 -179.866 422.659 -196.258 392.6 -207.404C389.655 -208.594 386.765 -209.674 383.936 -210.641ZM220.009 -14.2841C207.86 -18.4391 198.07 -26.1491 187.678 -39.6433C171.47 -58.128 168.64 -85.9975 173.806 -97.0706C177.29 -105.76 183.554 -107.949 194.924 -111.922C207.053 -116.16 225.382 -122.565 251.286 -141.809C264.284 -149.655 274.415 -162.198 284.211 -174.328C295.547 -188.364 307.27 -202.879 323.657 -210.491C342.071 -219.044 364.513 -217.749 392.276 -206.539C422.237 -195.429 446.891 -179.102 465.56 -158.007C482.416 -138.962 493.933 -116.168 498.866 -92.0911C506.312 -55.7483 498.578 -18.1557 477.648 11.0478C456.171 39.6322 415.392 40.8488 384.967 36.8342C349.712 32.1824 313.801 18.6157 295.354 7.97989C272.3 -5.23787 257.274 -7.42989 242.74 -9.54929C235.917 -10.5448 229.472 -11.4849 222.373 -13.529C221.575 -13.7664 220.787 -14.0182 220.009 -14.2841Z" fill="url(#paint6_linear_21_3375)"/>
</mask>
<g mask="url(#mask6_21_3375)">
<path d="M383.936 -210.641C359.931 -218.851 340.068 -219.063 323.418 -211.329C306.843 -203.629 295.05 -189.027 283.645 -174.906C273.901 -162.841 263.826 -150.365 250.93 -142.58C225.097 -123.392 206.84 -117.012 194.759 -112.79C183.52 -108.863 176.736 -106.492 173.094 -97.4052C167.826 -86.1155 170.64 -57.7221 187.068 -38.9884C198.209 -24.5196 208.691 -16.6385 222.103 -12.6459L222.106 -12.6452C229.248 -10.5884 235.715 -9.6451 242.562 -8.64636C257.032 -6.53506 271.996 -4.3527 294.937 8.80038C313.439 19.4686 349.452 33.075 384.798 37.7387C415.427 41.7801 456.502 40.5238 478.243 11.5885C499.352 -17.8645 507.151 -55.7556 499.648 -92.3784C494.684 -116.605 483.102 -139.532 466.153 -158.683C447.406 -179.866 422.659 -196.258 392.6 -207.404C389.655 -208.594 386.765 -209.674 383.936 -210.641ZM220.009 -14.2841C207.86 -18.4391 198.07 -26.1491 187.678 -39.6433C171.47 -58.128 168.64 -85.9975 173.806 -97.0706C177.29 -105.76 183.554 -107.949 194.924 -111.922C207.053 -116.16 225.382 -122.565 251.286 -141.809C264.284 -149.655 274.415 -162.198 284.211 -174.328C295.547 -188.364 307.27 -202.879 323.657 -210.491C342.071 -219.044 364.513 -217.749 392.276 -206.539C422.237 -195.429 446.891 -179.102 465.56 -158.007C482.416 -138.962 493.933 -116.168 498.866 -92.0911C506.312 -55.7483 498.578 -18.1557 477.648 11.0478C456.171 39.6322 415.392 40.8488 384.967 36.8342C349.712 32.1824 313.801 18.6157 295.354 7.97989C272.3 -5.23787 257.274 -7.42989 242.74 -9.54929C235.917 -10.5448 229.472 -11.4849 222.373 -13.529C221.575 -13.7664 220.787 -14.0182 220.009 -14.2841Z" fill="#004BBB"/>
</g>
<mask id="mask7_21_3375" style="mask-type:alpha" maskUnits="userSpaceOnUse" x="193" y="-190" width="286" height="214">
<path d="M382.007 -184.501C343.332 -197.728 324.674 -181.277 305.04 -163.968C295.357 -155.432 285.344 -146.605 272.526 -140.964C250.605 -128.251 234.647 -122.886 222.996 -118.968C209.555 -114.449 202.151 -111.959 198.15 -102.627C195.119 -96.5074 193.156 -86.5467 193.039 -76.6554C192.897 -64.7 195.483 -54.1125 200.318 -46.8431C207.459 -33.5315 213.833 -23.0747 225.171 -19.8697L225.174 -19.8688C232.35 -17.9213 239.768 -17.3803 247.62 -16.8073C261.794 -15.7731 277.86 -14.6002 296.824 -4.59581C309.94 2.37685 341.038 15.6247 374.384 21.0473C391.734 23.8683 407.094 24.1218 420.039 21.8008C435.332 19.0588 447.24 12.6979 455.432 2.89484C474.336 -21.2071 482.296 -52.692 477.28 -83.4973C474.105 -102.995 465.709 -121.623 452.999 -137.369C438.944 -154.782 419.978 -168.622 396.628 -178.504C391.451 -180.951 386.588 -182.934 382.007 -184.501ZM224.171 -21.0564C213.833 -24.5919 207.744 -34.6495 200.93 -47.3499C189.875 -63.9711 193.661 -91.9545 198.785 -102.303C202.638 -111.288 209.919 -113.736 223.137 -118.18C234.818 -122.108 250.817 -127.487 272.766 -140.219C285.657 -145.89 295.718 -154.759 305.448 -163.337C316.541 -173.116 327.019 -182.354 340.906 -186.398C356.555 -190.956 374.158 -188.202 396.307 -177.734C419.572 -167.887 438.456 -154.11 452.443 -136.781C465.072 -121.135 473.414 -102.632 476.566 -83.2715C481.54 -52.725 473.65 -21.5093 454.921 2.37102C446.865 12.0101 435.112 18.2773 419.996 20.9876C407.123 23.2956 391.835 23.0411 374.556 20.2317C341.288 14.8216 310.267 1.60709 297.182 -5.34839C278.106 -15.4131 261.972 -16.5909 247.737 -17.6292C239.916 -18.1997 232.527 -18.7389 225.407 -20.6708C224.989 -20.7893 224.576 -20.9178 224.171 -21.0564Z" fill="url(#paint7_linear_21_3375)"/>
</mask>
<g mask="url(#mask7_21_3375)">
<path d="M382.007 -184.501C343.332 -197.728 324.674 -181.277 305.04 -163.968C295.357 -155.432 285.344 -146.605 272.526 -140.964C250.605 -128.251 234.647 -122.886 222.996 -118.968C209.555 -114.449 202.151 -111.959 198.15 -102.627C195.119 -96.5074 193.156 -86.5467 193.039 -76.6554C192.897 -64.7 195.483 -54.1125 200.318 -46.8431C207.459 -33.5315 213.833 -23.0747 225.171 -19.8697L225.174 -19.8688C232.35 -17.9213 239.768 -17.3803 247.62 -16.8073C261.794 -15.7731 277.86 -14.6002 296.824 -4.59581C309.94 2.37685 341.038 15.6247 374.384 21.0473C391.734 23.8683 407.094 24.1218 420.039 21.8008C435.332 19.0588 447.24 12.6979 455.432 2.89484C474.336 -21.2071 482.296 -52.692 477.28 -83.4973C474.105 -102.995 465.709 -121.623 452.999 -137.369C438.944 -154.782 419.978 -168.622 396.628 -178.504C391.451 -180.951 386.588 -182.934 382.007 -184.501ZM224.171 -21.0564C213.833 -24.5919 207.744 -34.6495 200.93 -47.3499C189.875 -63.9711 193.661 -91.9545 198.785 -102.303C202.638 -111.288 209.919 -113.736 223.137 -118.18C234.818 -122.108 250.817 -127.487 272.766 -140.219C285.657 -145.89 295.718 -154.759 305.448 -163.337C316.541 -173.116 327.019 -182.354 340.906 -186.398C356.555 -190.956 374.158 -188.202 396.307 -177.734C419.572 -167.887 438.456 -154.11 452.443 -136.781C465.072 -121.135 473.414 -102.632 476.566 -83.2715C481.54 -52.725 473.65 -21.5093 454.921 2.37102C446.865 12.0101 435.112 18.2773 419.996 20.9876C407.123 23.2956 391.835 23.0411 374.556 20.2317C341.288 14.8216 310.267 1.60709 297.182 -5.34839C278.106 -15.4131 261.972 -16.5909 247.737 -17.6292C239.916 -18.1997 232.527 -18.7389 225.407 -20.6708C224.989 -20.7893 224.576 -20.9178 224.171 -21.0564Z" fill="#004BBB"/>
</g>
<mask id="mask8_21_3375" style="mask-type:alpha" maskUnits="userSpaceOnUse" x="211" y="-164" width="245" height="172">
<path d="M379.771 -159.55C356.411 -167.54 341.89 -160.335 324.48 -151.7C315.391 -147.193 305.994 -142.531 294.119 -139.34C277.943 -132.894 265.248 -129.121 255.047 -126.089C237.545 -120.886 227.904 -118.021 223.207 -107.847C217.368 -96.7044 208.221 -68.7714 213.557 -54.7472C213.8 -53.7102 214.037 -52.666 214.275 -51.6224C216.753 -40.7177 219.32 -29.4418 228.239 -27.0936L228.242 -27.0932C235.21 -25.3444 243.626 -25.3154 252.536 -25.2846C266.952 -25.2349 283.292 -25.179 298.713 -17.9921C315.38 -10.146 400.169 27.3174 432.617 -5.79554C449.484 -24.551 457.733 -49.704 455.26 -74.8169C453.784 -89.8007 448.644 -103.729 439.984 -116.217C430.546 -129.824 417.316 -141.057 400.66 -149.601C392.915 -154.182 386.025 -157.412 379.771 -159.55ZM227.648 -28.0529C219.699 -30.7713 217.263 -41.4918 214.904 -51.871C214.665 -52.9244 214.425 -53.9782 214.18 -55.0248L214.166 -55.0718C208.9 -68.8543 217.974 -96.4846 223.766 -107.538C228.32 -117.402 237.851 -120.234 255.152 -125.377C265.365 -128.413 278.076 -132.191 294.244 -138.635C306.144 -141.832 315.571 -146.508 324.689 -151.029C346.597 -161.896 363.903 -170.478 400.332 -148.932C416.918 -140.423 430.077 -129.254 439.459 -115.726C448.052 -103.336 453.151 -89.5213 454.614 -74.6647C457.064 -49.7888 448.894 -24.8743 432.198 -6.30918C419.27 6.88364 396.37 10.2318 364.146 3.62953C335.781 -2.18161 309.145 -13.9061 299.009 -18.6776C283.48 -25.9131 267.075 -25.9712 252.601 -26.0216C243.726 -26.0522 235.343 -26.081 228.441 -27.8134C228.171 -27.8844 227.906 -27.9645 227.648 -28.0529Z" fill="url(#paint8_linear_21_3375)"/>
</mask>
<g mask="url(#mask8_21_3375)">
<path d="M379.771 -159.55C356.411 -167.54 341.89 -160.335 324.48 -151.7C315.391 -147.193 305.994 -142.531 294.119 -139.34C277.943 -132.894 265.248 -129.121 255.047 -126.089C237.545 -120.886 227.904 -118.021 223.207 -107.847C217.368 -96.7044 208.221 -68.7714 213.557 -54.7472C213.8 -53.7102 214.037 -52.666 214.275 -51.6224C216.753 -40.7177 219.32 -29.4418 228.239 -27.0936L228.242 -27.0932C235.21 -25.3444 243.626 -25.3154 252.536 -25.2846C266.952 -25.2349 283.292 -25.179 298.713 -17.9921C315.38 -10.146 400.169 27.3174 432.617 -5.79554C449.484 -24.551 457.733 -49.704 455.26 -74.8169C453.784 -89.8007 448.644 -103.729 439.984 -116.217C430.546 -129.824 417.316 -141.057 400.66 -149.601C392.915 -154.182 386.025 -157.412 379.771 -159.55ZM227.648 -28.0529C219.699 -30.7713 217.263 -41.4918 214.904 -51.871C214.665 -52.9244 214.425 -53.9782 214.18 -55.0248L214.166 -55.0718C208.9 -68.8543 217.974 -96.4846 223.766 -107.538C228.32 -117.402 237.851 -120.234 255.152 -125.377C265.365 -128.413 278.076 -132.191 294.244 -138.635C306.144 -141.832 315.571 -146.508 324.689 -151.029C346.597 -161.896 363.903 -170.478 400.332 -148.932C416.918 -140.423 430.077 -129.254 439.459 -115.726C448.052 -103.336 453.151 -89.5213 454.614 -74.6647C457.064 -49.7888 448.894 -24.8743 432.198 -6.30918C419.27 6.88364 396.37 10.2318 364.146 3.62953C335.781 -2.18161 309.145 -13.9061 299.009 -18.6776C283.48 -25.9131 267.075 -25.9712 252.601 -26.0216C243.726 -26.0522 235.343 -26.081 228.441 -27.8134C228.171 -27.8844 227.906 -27.9645 227.648 -28.0529Z" fill="#004BBB"/>
</g>
<mask id="mask9_21_3375" style="mask-type:alpha" maskUnits="userSpaceOnUse" x="225" y="-142" width="210" height="135">
<path d="M376.329 -138.101C362.517 -142.824 349.643 -141.38 331.845 -139.383C326.787 -138.815 321.557 -138.229 315.707 -137.706C311.349 -136.857 307.271 -136.078 303.432 -135.345C270.021 -128.965 254.773 -126.053 248.263 -113.067C243.019 -103.58 227.05 -74.6858 226.831 -62.6879C224.721 -50.467 223.341 -36.2103 231.308 -34.3183L231.311 -34.3178C237.977 -32.817 247.614 -33.4176 257.816 -34.0537C272.204 -34.9505 288.51 -35.9651 300.605 -31.388C302.902 -30.5062 305.635 -29.4017 308.799 -28.1229C321.762 -22.8839 341.35 -14.9669 360.432 -10.6361C383.263 -5.45427 399.87 -6.74862 409.791 -14.4827C424.767 -27.6361 433.845 -47.0517 434.089 -66.4313C434.359 -87.9202 423.923 -107.19 404.701 -120.691C393.93 -129.805 384.947 -135.154 376.329 -138.101ZM230.898 -35.1221C224.003 -37.4804 225.386 -51.0132 227.398 -62.6531L227.403 -62.7111C227.595 -74.5021 243.515 -103.309 248.746 -112.775C255.11 -125.469 270.266 -128.363 303.472 -134.704C307.312 -135.438 311.391 -136.216 315.722 -137.062C321.551 -137.581 326.784 -138.168 331.845 -138.736C360.612 -141.963 376.458 -143.741 404.349 -120.142C423.432 -106.737 433.784 -87.6475 433.516 -66.3765C433.275 -47.208 424.291 -27.9999 409.485 -14.9947C399.721 -7.3846 383.268 -6.12862 360.597 -11.2741C341.552 -15.5972 321.985 -23.5047 309.037 -28.7381C305.871 -30.0176 303.137 -31.1227 300.834 -32.0067C288.637 -36.6221 272.279 -35.6028 257.841 -34.7029C247.677 -34.0691 238.075 -33.4708 231.476 -34.9554C231.278 -35.0026 231.085 -35.0584 230.898 -35.1221Z" fill="url(#paint9_linear_21_3375)"/>
</mask>
<g mask="url(#mask9_21_3375)">
</g>
<mask id="mask10_21_3375" style="mask-type:alpha" maskUnits="userSpaceOnUse" x="231" y="-137" width="186" height="116">
<path d="M364.751 -130.433C356.718 -133.18 347.61 -135.042 337.284 -136.062C300.006 -137.356 280.881 -132.04 273.319 -118.285C269.682 -112.031 261.349 -100.504 253.997 -90.3339C248.175 -82.281 242.676 -74.675 240.17 -70.6175C237.675 -67.2915 235.135 -62.317 233.393 -57.3346C231.485 -51.8775 230.831 -47.3415 231.552 -44.5615C231.996 -42.8452 232.948 -41.8306 234.378 -41.5421L234.38 -41.5419C240.794 -40.314 252.247 -41.7505 264.372 -43.2714C278.78 -45.0784 293.677 -46.9469 302.503 -44.7841C307.298 -43.5866 314.505 -40.5908 322.851 -37.1222C343.566 -28.5123 371.939 -16.7185 386.945 -23.1687C400.883 -30.3553 411.784 -43.6929 415.41 -57.9839C418.458 -69.9907 416.159 -81.6664 408.762 -91.7488C401.085 -105.431 392.727 -114.997 382.473 -121.828C377.243 -125.312 371.361 -128.173 364.751 -130.433ZM234.105 -42.2065C233.076 -42.5583 232.379 -43.4178 232.029 -44.7684C230.56 -50.4386 235.486 -63.5473 240.55 -70.3016C243.061 -74.363 248.553 -81.9601 254.368 -90.0028C261.729 -100.185 270.072 -111.726 273.729 -118.015C281.175 -131.559 300.158 -136.786 337.207 -135.5C355.944 -133.648 370.663 -129.015 382.191 -121.335C392.384 -114.544 400.697 -105.028 408.351 -91.3888C415.664 -81.4183 417.935 -69.9121 414.935 -58.0895C411.352 -43.9717 400.569 -30.7892 386.795 -23.6858C371.982 -17.3195 343.708 -29.0722 323.061 -37.6537C314.7 -41.1289 307.48 -44.1307 302.653 -45.3354C293.751 -47.5169 278.813 -45.6432 264.367 -43.8313C252.276 -42.3149 240.856 -40.8826 234.509 -42.0979C234.369 -42.1259 234.234 -42.1623 234.105 -42.2065Z" fill="url(#paint10_linear_21_3375)"/>
</mask>
<g mask="url(#mask10_21_3375)">
</g>
<mask id="mask11_21_3375" style="mask-type:alpha" maskUnits="userSpaceOnUse" x="235" y="-140" width="179" height="109">
<path d="M361.888 -133.442C360.882 -133.786 359.869 -134.109 358.847 -134.412C342.223 -139.338 328.311 -140.335 317.499 -137.375C309.01 -135.051 302.576 -130.383 298.375 -123.501C291.496 -112.232 264.676 -85.2946 253.534 -78.465C249.382 -75.92 244.836 -70.9113 241.061 -64.7228C237.645 -59.1236 235.595 -53.6922 235.838 -50.8853C235.946 -49.6367 236.505 -48.9044 237.448 -48.7666C244.05 -47.8044 260.123 -50.8584 275.666 -53.8116C287.718 -56.1018 299.103 -58.2649 304.412 -58.1838C310.434 -58.0923 321.055 -52.2013 332.298 -45.9645C343.881 -39.5399 355.858 -32.8954 364.067 -31.8801C372.655 -30.8174 383.705 -33.2937 392.903 -38.3431C403.653 -44.2443 410.719 -52.8836 412.799 -62.6689C415.232 -74.12 411.179 -89.0804 401.955 -102.688C392.199 -117.083 378.058 -127.912 361.888 -133.442ZM237.255 -49.3077C236.663 -49.5101 236.336 -50.0595 236.256 -50.9778C235.785 -56.4168 244.571 -72.452 253.704 -78.0502C264.887 -84.9049 291.807 -111.944 298.712 -123.256C302.844 -130.025 309.185 -134.619 317.558 -136.912C328.301 -139.853 342.145 -138.856 358.704 -133.949C376.056 -128.809 391.298 -117.593 401.613 -102.375C410.63 -89.0718 414.76 -73.8831 412.391 -62.7365C410.345 -53.1096 403.37 -44.5977 392.751 -38.7687C383.625 -33.7586 372.666 -31.3007 364.153 -32.3541C356.012 -33.3619 344.065 -39.9882 332.512 -46.3972C321.228 -52.6556 310.572 -58.5678 304.459 -58.6607C299.112 -58.7421 287.709 -56.5756 275.637 -54.2817C260.125 -51.3342 244.083 -48.2862 237.541 -49.2394C237.44 -49.2545 237.344 -49.2771 237.255 -49.3077Z" fill="url(#paint11_linear_21_3375)"/>
</mask>
<g mask="url(#mask11_21_3375)">
</g>
</g>
<defs>
<linearGradient id="paint0_linear_21_3375" x1="77.8664" y1="-227.308" x2="652.21" y2="-30.8934" gradientUnits="userSpaceOnUse">
<stop stop-color="white"/>
<stop offset="0.0436152" stop-color="#B4B4B4"/>
<stop offset="0.150732"/>
<stop offset="0.171421" stop-color="#171717"/>
<stop offset="0.385884" stop-color="white"/>
<stop offset="0.632551" stop-color="#E6E6E6"/>
<stop offset="0.856667" stop-color="#1A1A1A"/>
<stop offset="0.998739"/>
</linearGradient>
<linearGradient id="paint1_linear_21_3375" x1="96.7062" y1="-214.309" x2="627.145" y2="-32.9082" gradientUnits="userSpaceOnUse">
<stop stop-color="white"/>
<stop offset="0.0436152" stop-color="#B4B4B4"/>
<stop offset="0.150732"/>
<stop offset="0.171421" stop-color="#171717"/>
<stop offset="0.385884" stop-color="white"/>
<stop offset="0.632551" stop-color="#E6E6E6"/>
<stop offset="0.856667" stop-color="#1A1A1A"/>
<stop offset="0.998739"/>
</linearGradient>
<linearGradient id="paint2_linear_21_3375" x1="115.548" y1="-201.332" x2="602.112" y2="-34.9353" gradientUnits="userSpaceOnUse">
<stop stop-color="white"/>
<stop offset="0.0436152" stop-color="#B4B4B4"/>
<stop offset="0.150732"/>
<stop offset="0.171421" stop-color="#171717"/>
<stop offset="0.385884" stop-color="white"/>
<stop offset="0.632551" stop-color="#E6E6E6"/>
<stop offset="0.856667" stop-color="#1A1A1A"/>
<stop offset="0.998739"/>
</linearGradient>
<linearGradient id="paint3_linear_21_3375" x1="134.39" y1="-188.381" x2="577.127" y2="-36.9736" gradientUnits="userSpaceOnUse">
<stop stop-color="white"/>
<stop offset="0.0436152" stop-color="#B4B4B4"/>
<stop offset="0.150732"/>
<stop offset="0.171421" stop-color="#171717"/>
<stop offset="0.385884" stop-color="white"/>
<stop offset="0.632551" stop-color="#E6E6E6"/>
<stop offset="0.856667" stop-color="#1A1A1A"/>
<stop offset="0.998739"/>
</linearGradient>
<linearGradient id="paint4_linear_21_3375" x1="153.224" y1="-175.448" x2="552.196" y2="-39.0066" gradientUnits="userSpaceOnUse">
<stop stop-color="white"/>
<stop offset="0.0436152" stop-color="#B4B4B4"/>
<stop offset="0.150732"/>
<stop offset="0.171421" stop-color="#171717"/>
<stop offset="0.385884" stop-color="white"/>
<stop offset="0.632551" stop-color="#E6E6E6"/>
<stop offset="0.856667" stop-color="#1A1A1A"/>
<stop offset="0.998739"/>
</linearGradient>
<linearGradient id="paint5_linear_21_3375" x1="172.075" y1="-162.613" x2="527.333" y2="-41.1209" gradientUnits="userSpaceOnUse">
<stop stop-color="white"/>
<stop offset="0.0436152" stop-color="#B4B4B4"/>
<stop offset="0.150732"/>
<stop offset="0.171421" stop-color="#171717"/>
<stop offset="0.385884" stop-color="white"/>
<stop offset="0.632551" stop-color="#E6E6E6"/>
<stop offset="0.856667" stop-color="#1A1A1A"/>
<stop offset="0.998739"/>
</linearGradient>
<linearGradient id="paint6_linear_21_3375" x1="190.953" y1="-149.94" x2="502.716" y2="-43.3229" gradientUnits="userSpaceOnUse">
<stop stop-color="white"/>
<stop offset="0.0436152" stop-color="#B4B4B4"/>
<stop offset="0.150732"/>
<stop offset="0.171421" stop-color="#171717"/>
<stop offset="0.385884" stop-color="white"/>
<stop offset="0.632551" stop-color="#E6E6E6"/>
<stop offset="0.856667" stop-color="#1A1A1A"/>
<stop offset="0.998739"/>
</linearGradient>
<linearGradient id="paint7_linear_21_3375" x1="208.797" y1="-134.583" x2="477.408" y2="-42.7234" gradientUnits="userSpaceOnUse">
<stop stop-color="white"/>
<stop offset="0.0436152" stop-color="#B4B4B4"/>
<stop offset="0.150732"/>
<stop offset="0.171421" stop-color="#171717"/>
<stop offset="0.385884" stop-color="white"/>
<stop offset="0.632551" stop-color="#E6E6E6"/>
<stop offset="0.856667" stop-color="#1A1A1A"/>
<stop offset="0.998739"/>
</linearGradient>
<linearGradient id="paint8_linear_21_3375" x1="226.344" y1="-119.864" x2="452.743" y2="-42.4393" gradientUnits="userSpaceOnUse">
<stop stop-color="white"/>
<stop offset="0.0436152" stop-color="#B4B4B4"/>
<stop offset="0.150732"/>
<stop offset="0.171421" stop-color="#171717"/>
<stop offset="0.385884" stop-color="white"/>
<stop offset="0.632551" stop-color="#E6E6E6"/>
<stop offset="0.856667" stop-color="#1A1A1A"/>
<stop offset="0.998739"/>
</linearGradient>
<linearGradient id="paint9_linear_21_3375" x1="240.953" y1="-107.692" x2="429.635" y2="-43.1658" gradientUnits="userSpaceOnUse">
<stop stop-color="white"/>
<stop offset="0.0436152" stop-color="#B4B4B4"/>
<stop offset="0.150732"/>
<stop offset="0.171421" stop-color="#171717"/>
<stop offset="0.385884" stop-color="white"/>
<stop offset="0.632551" stop-color="#E6E6E6"/>
<stop offset="0.856667" stop-color="#1A1A1A"/>
<stop offset="0.998739"/>
</linearGradient>
<linearGradient id="paint10_linear_21_3375" x1="249.088" y1="-103.233" x2="411.991" y2="-47.5228" gradientUnits="userSpaceOnUse">
<stop stop-color="white"/>
<stop offset="0.0436152" stop-color="#B4B4B4"/>
<stop offset="0.150732"/>
<stop offset="0.171421" stop-color="#171717"/>
<stop offset="0.385884" stop-color="white"/>
<stop offset="0.632551" stop-color="#E6E6E6"/>
<stop offset="0.856667" stop-color="#1A1A1A"/>
<stop offset="0.998739"/>
</linearGradient>
<linearGradient id="paint11_linear_21_3375" x1="254.127" y1="-106.661" x2="409.856" y2="-53.4044" gradientUnits="userSpaceOnUse">
<stop stop-color="white"/>
<stop offset="0.0436152" stop-color="#B4B4B4"/>
<stop offset="0.150732"/>
<stop offset="0.171421" stop-color="#171717"/>
<stop offset="0.385884" stop-color="white"/>
<stop offset="0.632551" stop-color="#E6E6E6"/>
<stop offset="0.856667" stop-color="#1A1A1A"/>
<stop offset="0.998739"/>
</linearGradient>
</defs>
</svg>
