<svg width="376" height="126" viewBox="0 0 376 126" fill="none" xmlns="http://www.w3.org/2000/svg">
<g opacity="0.5">
<mask id="mask0_49_134" style="mask-type:alpha" maskUnits="userSpaceOnUse" x="-67" y="-119" width="443" height="245">
<path d="M93.5208 125.844C90.2349 125.844 86.9371 125.548 83.6209 124.957C66.0312 121.824 50.7723 110.842 36.9028 99.44C27.0624 91.35 4.23762 92.7111 -17.8349 94.0286C-39.74 95.3343 -60.4292 96.5692 -65.641 87.7089C-68.2013 83.3565 -66.8691 77.1461 -61.5687 68.723C-20.9951 4.24384 57.6837 -40.7737 116.543 -67.1847C182.867 -96.9453 251.051 -115.129 284.125 -117.71C326.226 -120.994 370.679 -118.413 375.08 -105.242C376.693 -100.414 372.785 -94.9287 363.465 -88.9367C328.357 -66.3657 187.57 59.71 145.176 100.802C127.86 117.586 110.869 125.844 93.5208 125.844ZM6.61527 90.9718C19.9574 90.9718 31.6141 92.4265 38.2042 97.8443C51.8585 109.069 66.8541 119.877 83.9796 122.927C104.111 126.513 123.661 118.789 143.749 99.3182C186.185 58.1864 327.159 -68.0442 362.357 -90.6733C370.663 -96.0133 374.389 -100.824 373.133 -104.586C369.736 -114.751 332.371 -119.407 284.284 -115.654C251.386 -113.087 183.493 -94.967 117.381 -65.302C58.7808 -39.0068 -19.5322 5.78083 -59.8321 69.8245C-64.6139 77.4237 -65.9731 83.0883 -63.8719 86.6603C-59.2988 94.4358 -39.218 93.2378 -17.957 91.97C-9.64262 91.474 -1.22262 90.9718 6.61527 90.9718Z" fill="url(#paint0_linear_49_134)"/>
</mask>
<g mask="url(#mask0_49_134)">
<path d="M93.5208 125.844C90.2349 125.844 86.9371 125.548 83.6209 124.957C66.0312 121.824 50.7723 110.842 36.9028 99.44C27.0624 91.35 4.23762 92.7111 -17.8349 94.0286C-39.74 95.3343 -60.4292 96.5692 -65.641 87.7089C-68.2013 83.3565 -66.8691 77.1461 -61.5687 68.723C-20.9951 4.24384 57.6837 -40.7737 116.543 -67.1847C182.867 -96.9453 251.051 -115.129 284.125 -117.71C326.226 -120.994 370.679 -118.413 375.08 -105.242C376.693 -100.414 372.785 -94.9287 363.465 -88.9367C328.357 -66.3657 187.57 59.71 145.176 100.802C127.86 117.586 110.869 125.844 93.5208 125.844ZM6.61527 90.9718C19.9574 90.9718 31.6141 92.4265 38.2042 97.8443C51.8585 109.069 66.8541 119.877 83.9796 122.927C104.111 126.513 123.661 118.789 143.749 99.3182C186.185 58.1864 327.159 -68.0442 362.357 -90.6733C370.663 -96.0133 374.389 -100.824 373.133 -104.586C369.736 -114.751 332.371 -119.407 284.284 -115.654C251.386 -113.087 183.493 -94.967 117.381 -65.302C58.7808 -39.0068 -19.5322 5.78083 -59.8321 69.8245C-64.6139 77.4237 -65.9731 83.0883 -63.8719 86.6603C-59.2988 94.4358 -39.218 93.2378 -17.957 91.97C-9.64262 91.474 -1.22262 90.9718 6.61527 90.9718Z" fill="#005E9E"/>
</g>
<mask id="mask1_49_134" style="mask-type:alpha" maskUnits="userSpaceOnUse" x="-52" y="-112" width="412" height="228">
<path d="M97.9853 115.907C94.9229 115.907 91.8487 115.629 88.7584 115.074C72.5427 112.167 58.3345 101.971 45.3962 91.3877C36.2237 83.8861 14.9721 85.2039 -5.57939 86.4807C-25.9587 87.7458 -45.2092 88.94 -50.0655 80.7176C-52.4482 76.6833 -51.2207 70.9212 -46.3136 63.1018C-8.6569 3.08893 64.4902 -38.7995 119.222 -63.3717C180.92 -91.0708 244.318 -107.968 275.056 -110.343C314.125 -113.365 355.371 -110.927 359.461 -98.6757C360.962 -94.1748 357.324 -89.0646 348.647 -83.4867C316.024 -62.5144 185.228 54.555 145.845 92.7071C129.795 108.256 114.052 115.906 97.9853 115.907ZM17.5972 83.5616C29.8512 83.5616 40.5368 84.9146 46.6153 89.886C72.6797 111.207 103.888 130.661 144.505 91.3129C183.927 53.1238 314.898 -64.0912 347.607 -85.1179C355.333 -90.0846 358.799 -94.5599 357.63 -98.0605C354.479 -107.507 319.813 -111.86 275.204 -108.412C244.632 -106.049 181.507 -89.2122 120.01 -61.603C65.5217 -37.1402 -7.2817 4.5315 -44.6806 64.1343C-49.1029 71.1803 -50.3561 76.4272 -48.4057 79.7294C-44.1502 86.9332 -25.4731 85.7748 -5.69837 84.547C2.18959 84.0577 10.1812 83.5616 17.5972 83.5616Z" fill="url(#paint1_linear_49_134)"/>
</mask>
<g mask="url(#mask1_49_134)">
<path d="M97.9853 115.907C94.9229 115.907 91.8487 115.629 88.7584 115.074C72.5427 112.167 58.3345 101.971 45.3962 91.3877C36.2237 83.8861 14.9721 85.2039 -5.57939 86.4807C-25.9587 87.7458 -45.2092 88.94 -50.0655 80.7176C-52.4482 76.6833 -51.2207 70.9212 -46.3136 63.1018C-8.6569 3.08893 64.4902 -38.7995 119.222 -63.3717C180.92 -91.0708 244.318 -107.968 275.056 -110.343C314.125 -113.365 355.371 -110.927 359.461 -98.6757C360.962 -94.1748 357.324 -89.0646 348.647 -83.4867C316.024 -62.5144 185.228 54.555 145.845 92.7071C129.795 108.256 114.052 115.906 97.9853 115.907ZM17.5972 83.5616C29.8512 83.5616 40.5368 84.9146 46.6153 89.886C72.6797 111.207 103.888 130.661 144.505 91.3129C183.927 53.1238 314.898 -64.0912 347.607 -85.1179C355.333 -90.0846 358.799 -94.5599 357.63 -98.0605C354.479 -107.507 319.813 -111.86 275.204 -108.412C244.632 -106.049 181.507 -89.2122 120.01 -61.603C65.5217 -37.1402 -7.2817 4.5315 -44.6806 64.1343C-49.1029 71.1803 -50.3561 76.4272 -48.4057 79.7294C-44.1502 86.9332 -25.4731 85.7748 -5.69837 84.547C2.18959 84.0577 10.1812 83.5616 17.5972 83.5616Z" fill="#005E9E"/>
</g>
<mask id="mask2_49_134" style="mask-type:alpha" maskUnits="userSpaceOnUse" x="-36" y="-105" width="381" height="211">
<path d="M102.45 105.97C99.6106 105.97 96.7618 105.71 93.8966 105.192C78.3148 102.375 65.0758 92.433 53.8903 83.3354C45.3867 76.4223 25.7082 77.6985 6.67748 78.9329C-12.9971 80.2082 -29.9886 81.3111 -34.4891 73.7263C-36.6943 70.0103 -35.5718 64.6962 -31.0568 57.4804C3.68215 1.93325 71.2978 -36.8256 121.903 -59.5589C178.972 -85.1961 237.585 -100.807 265.988 -102.977C302.017 -105.732 340.066 -103.441 343.842 -92.1098C345.233 -87.9357 341.864 -83.201 333.831 -78.0369C303.685 -58.6592 182.884 49.4025 146.515 84.6122C131.731 98.9255 117.235 105.969 102.45 105.97ZM28.5701 76.1505C39.7386 76.1505 49.4589 77.4011 55.0265 81.927C66.0382 90.8833 79.0558 100.668 94.2166 103.408C111.388 106.514 128.085 99.9375 145.262 83.3079C181.666 48.0633 302.632 -60.1348 332.857 -79.5628C340.002 -84.1559 343.209 -88.2958 342.13 -91.5352C339.221 -100.263 307.255 -104.316 266.125 -101.17C237.878 -99.0116 179.521 -83.4574 122.64 -57.9047C72.2634 -35.274 4.97049 3.28194 -29.5281 58.444V58.4443C-33.5903 64.9369 -34.7375 69.7666 -32.9383 72.799C-29.0028 79.4314 -11.7267 78.311 6.56103 77.1245C14.0201 76.6408 21.5795 76.1505 28.5701 76.1505Z" fill="url(#paint2_linear_49_134)"/>
</mask>
<g mask="url(#mask2_49_134)">
<path d="M102.45 105.97C99.6106 105.97 96.7618 105.71 93.8966 105.192C78.3148 102.375 65.0758 92.433 53.8903 83.3354C45.3867 76.4223 25.7082 77.6985 6.67748 78.9329C-12.9971 80.2082 -29.9886 81.3111 -34.4891 73.7263C-36.6943 70.0103 -35.5718 64.6962 -31.0568 57.4804C3.68215 1.93325 71.2978 -36.8256 121.903 -59.5589C178.972 -85.1961 237.585 -100.807 265.988 -102.977C302.017 -105.732 340.066 -103.441 343.842 -92.1098C345.233 -87.9357 341.864 -83.201 333.831 -78.0369C303.685 -58.6592 182.884 49.4025 146.515 84.6122C131.731 98.9255 117.235 105.969 102.45 105.97ZM28.5701 76.1505C39.7386 76.1505 49.4589 77.4011 55.0265 81.927C66.0382 90.8833 79.0558 100.668 94.2166 103.408C111.388 106.514 128.085 99.9375 145.262 83.3079C181.666 48.0633 302.632 -60.1348 332.857 -79.5628C340.002 -84.1559 343.209 -88.2958 342.13 -91.5352C339.221 -100.263 307.255 -104.316 266.125 -101.17C237.878 -99.0116 179.521 -83.4574 122.64 -57.9047C72.2634 -35.274 4.97049 3.28194 -29.5281 58.444V58.4443C-33.5903 64.9369 -34.7375 69.7666 -32.9383 72.799C-29.0028 79.4314 -11.7267 78.311 6.56103 77.1245C14.0201 76.6408 21.5795 76.1505 28.5701 76.1505Z" fill="#005E9E"/>
</g>
<mask id="mask3_49_134" style="mask-type:alpha" maskUnits="userSpaceOnUse" x="-20" y="-97" width="349" height="194">
<path d="M106.915 96.0319C104.299 96.0319 101.673 95.7905 99.0337 95.309C84.8976 92.729 72.7036 83.6191 62.3838 75.2828C54.5482 68.9581 36.4423 70.1919 18.9331 71.3855C0.849888 72.6181 -14.768 73.6824 -18.9142 66.7351C-20.9417 63.3372 -19.9235 58.4713 -15.8015 51.8592C16.0205 0.778078 78.1043 -34.8515 124.583 -55.746C177.024 -79.3213 230.851 -93.6458 256.92 -95.6109C289.914 -98.1025 324.759 -95.956 328.223 -85.5447C329.503 -81.6971 326.404 -77.3374 319.013 -72.5871C291.351 -54.8075 180.541 44.2483 147.184 76.5173C133.665 89.5957 120.418 96.0319 106.915 96.0319ZM39.5275 68.7379C49.6164 68.7379 58.3789 69.8851 63.4374 73.9681C73.5964 82.1744 85.5861 91.1397 99.3343 93.6488C115.029 96.5099 130.297 90.5107 146.018 75.3023C179.408 43.0006 290.371 -56.1813 318.107 -74.0083C324.672 -78.2278 327.619 -82.0325 326.628 -85.0103C323.963 -93.0204 294.702 -96.7703 257.045 -93.9286C231.123 -91.9741 177.535 -77.7022 125.27 -54.2061C79.0044 -33.4073 17.2215 2.03266 -14.3764 52.7541C-18.0792 58.6934 -19.1204 63.1056 -17.472 65.8681C-13.8552 71.9293 2.01658 70.8471 18.8191 69.7019C25.8459 69.2233 32.9672 68.7379 39.5275 68.7379Z" fill="url(#paint3_linear_49_134)"/>
</mask>
<g mask="url(#mask3_49_134)">
<path d="M106.915 96.0319C104.299 96.0319 101.673 95.7905 99.0337 95.309C84.8976 92.729 72.7036 83.6191 62.3838 75.2828C54.5482 68.9581 36.4423 70.1919 18.9331 71.3855C0.849888 72.6181 -14.768 73.6824 -18.9142 66.7351C-20.9417 63.3372 -19.9235 58.4713 -15.8015 51.8592C16.0205 0.778078 78.1043 -34.8515 124.583 -55.746C177.024 -79.3213 230.851 -93.6458 256.92 -95.6109C289.914 -98.1025 324.759 -95.956 328.223 -85.5447C329.503 -81.6971 326.404 -77.3374 319.013 -72.5871C291.351 -54.8075 180.541 44.2483 147.184 76.5173C133.665 89.5957 120.418 96.0319 106.915 96.0319ZM39.5275 68.7379C49.6164 68.7379 58.3789 69.8851 63.4374 73.9681C73.5964 82.1744 85.5861 91.1397 99.3343 93.6488C115.029 96.5099 130.297 90.5107 146.018 75.3023C179.408 43.0006 290.371 -56.1813 318.107 -74.0083C324.672 -78.2278 327.619 -82.0325 326.628 -85.0103C323.963 -93.0204 294.702 -96.7703 257.045 -93.9286C231.123 -91.9741 177.535 -77.7022 125.27 -54.2061C79.0044 -33.4073 17.2215 2.03266 -14.3764 52.7541C-18.0792 58.6934 -19.1204 63.1056 -17.472 65.8681C-13.8552 71.9293 2.01658 70.8471 18.8191 69.7019C25.8459 69.2233 32.9672 68.7379 39.5275 68.7379Z" fill="#0056BB"/>
</g>
<mask id="mask4_49_134" style="mask-type:alpha" maskUnits="userSpaceOnUse" x="-5" y="-90" width="318" height="177">
<path d="M111.379 86.0952C108.985 86.0952 106.585 85.8719 104.171 85.4265C91.4824 83.0847 80.3322 74.8065 70.8774 67.2311C63.7102 61.4951 47.1765 62.687 31.1888 63.8386C14.6958 65.0272 0.451456 66.0546 -3.33892 59.7443C-5.18901 56.6647 -4.27551 52.2468 -0.545925 46.238L-0.54638 46.2383C28.3587 -0.376992 84.9108 -32.8773 127.263 -51.933C175.076 -73.4464 224.118 -86.4843 247.851 -88.2445C277.811 -90.4712 309.452 -88.4697 312.603 -78.9791C313.772 -75.4574 310.944 -71.4732 304.195 -67.1372C279.017 -50.956 178.199 39.0939 147.853 68.4227C135.6 80.2659 123.6 86.0946 111.379 86.0952ZM50.4691 61.3239C59.4852 61.3239 67.2963 62.3668 71.8481 66.0096C92.9453 82.9132 116.109 96.9362 146.774 67.2972C177.15 37.9382 278.11 -52.2281 303.357 -68.453C309.341 -72.2989 312.028 -75.7682 311.126 -78.485C308.706 -85.7764 282.145 -89.2266 247.966 -86.6864C224.368 -84.9363 175.548 -71.9471 127.899 -50.5076C85.7453 -31.5404 29.4724 0.783379 0.775117 47.0641L0.774792 47.0643C-2.56793 52.4502 -3.50341 56.4448 -2.00611 58.9377C1.29175 64.4271 15.7594 63.3848 31.077 62.2802C37.6648 61.8056 44.3454 61.3239 50.4691 61.3239Z" fill="url(#paint4_linear_49_134)"/>
</mask>
<g mask="url(#mask4_49_134)">
<path d="M111.379 86.0952C108.985 86.0952 106.585 85.8719 104.171 85.4265C91.4824 83.0847 80.3322 74.8065 70.8774 67.2311C63.7102 61.4951 47.1765 62.687 31.1888 63.8386C14.6958 65.0272 0.451456 66.0546 -3.33892 59.7443C-5.18901 56.6647 -4.27551 52.2468 -0.545925 46.238L-0.54638 46.2383C28.3587 -0.376992 84.9108 -32.8773 127.263 -51.933C175.076 -73.4464 224.118 -86.4843 247.851 -88.2445C277.811 -90.4712 309.452 -88.4697 312.603 -78.9791C313.772 -75.4574 310.944 -71.4732 304.195 -67.1372C279.017 -50.956 178.199 39.0939 147.853 68.4227C135.6 80.2659 123.6 86.0946 111.379 86.0952ZM50.4691 61.3239C59.4852 61.3239 67.2963 62.3668 71.8481 66.0096C92.9453 82.9132 116.109 96.9362 146.774 67.2972C177.15 37.9382 278.11 -52.2281 303.357 -68.453C309.341 -72.2989 312.028 -75.7682 311.126 -78.485C308.706 -85.7764 282.145 -89.2266 247.966 -86.6864C224.368 -84.9363 175.548 -71.9471 127.899 -50.5076C85.7453 -31.5404 29.4724 0.783379 0.775117 47.0641L0.774792 47.0643C-2.56793 52.4502 -3.50341 56.4448 -2.00611 58.9377C1.29175 64.4271 15.7594 63.3848 31.077 62.2802C37.6648 61.8056 44.3454 61.3239 50.4691 61.3239Z" fill="#0056BB"/>
</g>
<mask id="mask5_49_134" style="mask-type:alpha" maskUnits="userSpaceOnUse" x="11" y="-82" width="287" height="159">
<path d="M115.842 76.1581C113.672 76.1581 111.497 75.953 109.309 75.5434C98.0699 73.4406 88.3569 66.3063 79.3719 59.179C72.8724 54.0308 57.2381 55.2313 43.4445 56.292C28.5422 57.438 15.6717 58.4262 12.2367 52.7536C10.5641 49.9918 11.3734 46.022 14.71 40.6167L14.7097 40.617C40.6973 -1.53206 91.718 -30.9031 129.943 -48.1204C173.128 -67.5715 217.385 -79.3232 238.783 -80.8782C265.705 -82.8402 294.147 -80.9843 296.984 -72.4137C298.042 -69.2187 295.483 -65.6097 289.379 -61.6876C266.682 -47.1041 175.856 33.9392 148.522 60.3276C137.535 70.9357 126.782 76.157 115.842 76.1581ZM61.3914 53.9079C69.3412 53.9079 76.2121 54.8454 80.2589 58.0509C89.1043 65.067 98.6531 72.0879 109.571 74.1304C122.304 76.5152 134.721 71.659 147.529 59.2918C174.891 32.8758 265.848 -48.2749 288.607 -62.8979C294.011 -66.3706 296.438 -69.5046 295.625 -71.9606C293.448 -78.5341 269.584 -81.6822 238.886 -79.4443C217.613 -77.8987 173.563 -66.1921 130.529 -46.809C92.4867 -29.6739 41.7239 -0.466013 15.9276 41.3736L15.9271 41.3739C12.9439 46.2064 12.1137 49.7841 13.4602 52.0071C16.438 56.9251 29.5031 55.9218 43.3355 54.8588C49.4788 54.3869 55.711 53.9079 61.3914 53.9079Z" fill="url(#paint5_linear_49_134)"/>
</mask>
<g mask="url(#mask5_49_134)">
<path d="M115.842 76.1581C113.672 76.1581 111.497 75.953 109.309 75.5434C98.0699 73.4406 88.3569 66.3063 79.3719 59.179C72.8724 54.0308 57.2381 55.2313 43.4445 56.292C28.5422 57.438 15.6717 58.4262 12.2367 52.7536C10.5641 49.9918 11.3734 46.022 14.71 40.6167L14.7097 40.617C40.6973 -1.53206 91.718 -30.9031 129.943 -48.1204C173.128 -67.5715 217.385 -79.3232 238.783 -80.8782C265.705 -82.8402 294.147 -80.9843 296.984 -72.4137C298.042 -69.2187 295.483 -65.6097 289.379 -61.6876C266.682 -47.1041 175.856 33.9392 148.522 60.3276C137.535 70.9357 126.782 76.157 115.842 76.1581ZM61.3914 53.9079C69.3412 53.9079 76.2121 54.8454 80.2589 58.0509C89.1043 65.067 98.6531 72.0879 109.571 74.1304C122.304 76.5152 134.721 71.659 147.529 59.2918C174.891 32.8758 265.848 -48.2749 288.607 -62.8979C294.011 -66.3706 296.438 -69.5046 295.625 -71.9606C293.448 -78.5341 269.584 -81.6822 238.886 -79.4443C217.613 -77.8987 173.563 -66.1921 130.529 -46.809C92.4867 -29.6739 41.7239 -0.466013 15.9276 41.3736L15.9271 41.3739C12.9439 46.2064 12.1137 49.7841 13.4602 52.0071C16.438 56.9251 29.5031 55.9218 43.3355 54.8588C49.4788 54.3869 55.711 53.9079 61.3914 53.9079Z" fill="#0056BB"/>
</g>
<mask id="mask6_49_134" style="mask-type:alpha" maskUnits="userSpaceOnUse" x="27" y="-75" width="255" height="142">
<path d="M120.305 66.221C118.359 66.221 116.407 66.034 114.446 65.6604C104.654 63.7971 96.2852 57.7225 87.8651 51.1266C82.0341 46.5667 68.0432 47.7237 55.7002 48.7461C42.3883 49.8471 30.8908 50.799 27.8114 45.7635C26.3166 43.3196 27.0212 39.7976 29.9653 34.9957C53.0352 -2.68719 98.5244 -28.9292 132.622 -44.3076C171.179 -61.6971 210.651 -72.1621 229.714 -73.5121C253.602 -75.2088 278.84 -73.4987 281.365 -65.8488C282.312 -62.98 280.023 -59.7459 274.561 -56.2374C254.35 -43.2539 173.514 28.7841 149.191 52.2329C139.469 61.6063 129.965 66.221 120.305 66.221ZM72.2901 46.4892C79.183 46.4892 85.1237 47.3196 88.669 50.0918C102.84 61.1919 122.245 76.395 148.286 51.2864C172.635 27.8124 253.588 -44.323 273.856 -57.343C278.681 -60.4424 280.849 -63.2411 280.124 -65.4362C278.191 -71.2914 257.029 -74.1377 229.806 -72.2031C210.858 -70.8611 171.575 -60.437 133.159 -43.1107C99.2277 -27.8078 53.9747 -1.71546 31.079 35.6835L31.0787 35.6838C28.455 39.9628 27.7303 43.1232 28.9254 45.0771C31.5849 49.4251 43.2479 48.4605 55.5928 47.438C61.2851 46.9671 67.0615 46.4892 72.2901 46.4892Z" fill="url(#paint6_linear_49_134)"/>
</mask>
<g mask="url(#mask6_49_134)">
<path d="M120.305 66.221C118.359 66.221 116.407 66.034 114.446 65.6604C104.654 63.7971 96.2852 57.7225 87.8651 51.1266C82.0341 46.5667 68.0432 47.7237 55.7002 48.7461C42.3883 49.8471 30.8908 50.799 27.8114 45.7635C26.3166 43.3196 27.0212 39.7976 29.9653 34.9957C53.0352 -2.68719 98.5244 -28.9292 132.622 -44.3076C171.179 -61.6971 210.651 -72.1621 229.714 -73.5121C253.602 -75.2088 278.84 -73.4987 281.365 -65.8488C282.312 -62.98 280.023 -59.7459 274.561 -56.2374C254.35 -43.2539 173.514 28.7841 149.191 52.2329C139.469 61.6063 129.965 66.221 120.305 66.221ZM72.2901 46.4892C79.183 46.4892 85.1237 47.3196 88.669 50.0918C102.84 61.1919 122.245 76.395 148.286 51.2864C172.635 27.8124 253.588 -44.323 273.856 -57.343C278.681 -60.4424 280.849 -63.2411 280.124 -65.4362C278.191 -71.2914 257.029 -74.1377 229.806 -72.2031C210.858 -70.8611 171.575 -60.437 133.159 -43.1107C99.2277 -27.8078 53.9747 -1.71546 31.079 35.6835L31.0787 35.6838C28.455 39.9628 27.7303 43.1232 28.9254 45.0771C31.5849 49.4251 43.2479 48.4605 55.5928 47.438C61.2851 46.9671 67.0615 46.4892 72.2901 46.4892Z" fill="#0056BB"/>
</g>
<mask id="mask7_49_134" style="mask-type:alpha" maskUnits="userSpaceOnUse" x="42" y="-67" width="224" height="124">
<path d="M124.744 56.2419C113.44 56.2432 104.048 49.0012 96.3597 43.0748C91.1956 39.1034 78.8489 40.2178 67.9558 41.201C56.2336 42.2586 46.1101 43.1725 43.3859 38.7738C42.0685 36.6474 42.6687 33.5729 45.2207 29.3748C65.3732 -3.84214 105.331 -26.9549 135.303 -40.4949C169.231 -55.8222 203.917 -65.0006 220.646 -66.1459C241.501 -67.5801 263.534 -66.0136 265.746 -59.2841C266.582 -56.7412 264.563 -53.8825 259.745 -50.7877C242.014 -39.401 171.17 23.6305 149.86 44.1382C140.608 53.0431 132.253 56.2412 124.744 56.2419ZM83.1572 39.0668C89.0065 39.0668 94.0318 39.7889 97.0795 42.1327C110.23 52.2694 126.596 64.8837 149.042 43.281C170.375 22.7507 241.325 -40.3683 259.107 -51.7879C263.352 -54.5141 265.259 -56.9775 264.623 -58.9119C262.934 -64.0494 244.473 -66.5926 220.726 -64.9611C204.103 -63.8231 169.589 -54.682 135.788 -39.4121C105.969 -25.9412 66.2259 -2.96516 46.2307 29.9928L46.2304 29.9931C43.9658 33.7189 43.3465 36.4622 44.3904 38.1469C46.7303 41.9246 56.989 40.9982 67.8498 40.0184C73.0804 39.5461 78.3924 39.0668 83.1572 39.0668Z" fill="url(#paint7_linear_49_134)"/>
</mask>
<g mask="url(#mask7_49_134)">
<path d="M124.744 56.2419C113.44 56.2432 104.048 49.0012 96.3597 43.0748C91.1956 39.1034 78.8489 40.2178 67.9558 41.201C56.2336 42.2586 46.1101 43.1725 43.3859 38.7738C42.0685 36.6474 42.6687 33.5729 45.2207 29.3748C65.3732 -3.84214 105.331 -26.9549 135.303 -40.4949C169.231 -55.8222 203.917 -65.0006 220.646 -66.1459C241.501 -67.5801 263.534 -66.0136 265.746 -59.2841C266.582 -56.7412 264.563 -53.8825 259.745 -50.7877C242.014 -39.401 171.17 23.6305 149.86 44.1382C140.608 53.0431 132.253 56.2412 124.744 56.2419ZM83.1572 39.0668C89.0065 39.0668 94.0318 39.7889 97.0795 42.1327C110.23 52.2694 126.596 64.8837 149.042 43.281C170.375 22.7507 241.325 -40.3683 259.107 -51.7879C263.352 -54.5141 265.259 -56.9775 264.623 -58.9119C262.934 -64.0494 244.473 -66.5926 220.726 -64.9611C204.103 -63.8231 169.589 -54.682 135.788 -39.4121C105.969 -25.9412 66.2259 -2.96516 46.2307 29.9928L46.2304 29.9931C43.9658 33.7189 43.3465 36.4622 44.3904 38.1469C46.7303 41.9246 56.989 40.9982 67.8498 40.0184C73.0804 39.5461 78.3924 39.0668 83.1572 39.0668Z" fill="#0056BB"/>
</g>
<mask id="mask8_49_134" style="mask-type:alpha" maskUnits="userSpaceOnUse" x="58" y="-60" width="193" height="107">
<path d="M129.252 46.3368C119.849 46.3379 111.934 40.3646 105.024 35.1516L104.854 35.0233C100.359 31.6409 89.6555 32.712 80.2117 33.6575C70.0797 34.6719 61.33 35.5483 58.9603 31.7853C57.8208 29.9761 58.3166 27.349 60.4759 23.7548C77.7116 -4.99703 112.138 -24.9808 137.983 -36.6821C167.282 -49.9471 197.183 -57.839 211.578 -58.7792C229.402 -59.9493 248.229 -58.5291 250.128 -52.72C250.853 -50.5026 249.103 -48.0188 244.927 -45.3379C229.683 -35.552 168.83 18.4749 150.529 36.0437C142.658 43.6006 135.614 46.3366 129.252 46.3368ZM93.9858 31.6399C98.8061 31.6399 102.935 32.2518 105.49 34.1738L105.66 34.302C117.511 43.2441 130.944 53.3776 149.798 35.2758C168.119 17.6871 229.068 -36.4175 244.357 -46.2328C248.022 -48.5857 249.67 -50.7145 249.123 -52.3887C247.678 -56.8082 231.916 -59.0486 211.647 -57.7191C197.347 -56.785 167.602 -48.9264 138.418 -35.7134C112.71 -24.0745 78.4776 -4.21425 61.3827 24.3025L61.3824 24.3028C59.4769 27.4749 58.9629 29.8013 59.8547 31.2176C61.8756 34.4263 71.1429 33.4978 80.1067 32.6005C84.8643 32.124 89.6987 31.6399 93.9858 31.6399Z" fill="url(#paint8_linear_49_134)"/>
</mask>
<g mask="url(#mask8_49_134)">
<path d="M129.252 46.3368C119.849 46.3379 111.934 40.3646 105.024 35.1516L104.854 35.0233C100.359 31.6409 89.6555 32.712 80.2117 33.6575C70.0797 34.6719 61.33 35.5483 58.9603 31.7853C57.8208 29.9761 58.3166 27.349 60.4759 23.7548C77.7116 -4.99703 112.138 -24.9808 137.983 -36.6821C167.282 -49.9471 197.183 -57.839 211.578 -58.7792C229.402 -59.9493 248.229 -58.5291 250.128 -52.72C250.853 -50.5026 249.103 -48.0188 244.927 -45.3379C229.683 -35.552 168.83 18.4749 150.529 36.0437C142.658 43.6006 135.614 46.3366 129.252 46.3368ZM93.9858 31.6399C98.8061 31.6399 102.935 32.2518 105.49 34.1738L105.66 34.302C117.511 43.2441 130.944 53.3776 149.798 35.2758C168.119 17.6871 229.068 -36.4175 244.357 -46.2328C248.022 -48.5857 249.67 -50.7145 249.123 -52.3887C247.678 -56.8082 231.916 -59.0486 211.647 -57.7191C197.347 -56.785 167.602 -48.9264 138.418 -35.7134C112.71 -24.0745 78.4776 -4.21425 61.3827 24.3025L61.3824 24.3028C59.4769 27.4749 58.9629 29.8013 59.8547 31.2176C61.8756 34.4263 71.1429 33.4978 80.1067 32.6005C84.8643 32.124 89.6987 31.6399 93.9858 31.6399Z" fill="#0056BB"/>
</g>
<mask id="mask9_49_134" style="mask-type:alpha" maskUnits="userSpaceOnUse" x="74" y="-52" width="161" height="89">
<path d="M133.728 36.3643C126.144 36.365 119.745 31.6659 114.153 27.5611L113.35 26.972C109.521 24.1781 100.46 25.2071 92.4668 26.1161C83.925 27.0869 76.5489 27.9254 74.534 24.798C73.5724 23.3051 73.9638 21.1254 75.7314 18.1343C102.161 -26.6957 181.061 -50.1052 202.509 -51.4132C210.758 -51.919 218.424 -51.7321 224.096 -50.8863C230.288 -49.9632 233.792 -48.3719 234.51 -46.1565C235.124 -44.2648 233.643 -42.1556 230.11 -39.8879C217.354 -31.7032 166.49 13.3191 151.199 27.9491C144.734 34.1346 138.95 36.3637 133.728 36.3643ZM104.762 24.2059C108.575 24.2059 111.832 24.7051 113.899 26.2145L114.704 26.8046C124.342 33.8799 135.267 41.8992 150.554 27.2705C165.864 12.6229 216.811 -32.4675 229.607 -40.678C232.692 -42.6581 234.081 -44.452 233.623 -45.8662C232.421 -49.5685 219.356 -51.5075 202.566 -50.4774C181.237 -49.1768 102.788 -25.9189 76.5352 18.6115L76.5349 18.612C74.9874 21.2304 74.5782 23.1406 75.3181 24.2892C77.0183 26.9287 84.8184 26.042 92.3618 25.1847C96.6296 24.6994 100.971 24.2059 104.762 24.2059Z" fill="url(#paint9_linear_49_134)"/>
</mask>
<g mask="url(#mask9_49_134)">
<path d="M133.728 36.3643C126.144 36.365 119.745 31.6659 114.153 27.5611L113.35 26.972C109.521 24.1781 100.46 25.2071 92.4668 26.1161C83.925 27.0869 76.5489 27.9254 74.534 24.798C73.5724 23.3051 73.9638 21.1254 75.7314 18.1343C102.161 -26.6957 181.061 -50.1052 202.509 -51.4132C210.758 -51.919 218.424 -51.7321 224.096 -50.8863C230.288 -49.9632 233.792 -48.3719 234.51 -46.1565C235.124 -44.2648 233.643 -42.1556 230.11 -39.8879C217.354 -31.7032 166.49 13.3191 151.199 27.9491C144.734 34.1346 138.95 36.3637 133.728 36.3643ZM104.762 24.2059C108.575 24.2059 111.832 24.7051 113.899 26.2145L114.704 26.8046C124.342 33.8799 135.267 41.8992 150.554 27.2705C165.864 12.6229 216.811 -32.4675 229.607 -40.678C232.692 -42.6581 234.081 -44.452 233.623 -45.8662C232.421 -49.5685 219.356 -51.5075 202.566 -50.4774C181.237 -49.1768 102.788 -25.9189 76.5352 18.6115L76.5349 18.612C74.9874 21.2304 74.5782 23.1406 75.3181 24.2892C77.0183 26.9287 84.8184 26.042 92.3618 25.1847C96.6296 24.6994 100.971 24.2059 104.762 24.2059Z" fill="#005E9E"/>
</g>
<mask id="mask10_49_134" style="mask-type:alpha" maskUnits="userSpaceOnUse" x="89" y="-45" width="131" height="72">
<path d="M138.187 26.4847C132.522 26.4847 127.7 23.0671 123.226 19.8955C122.764 19.5675 122.304 19.2416 121.846 18.9214C118.685 16.7151 111.266 17.705 104.722 18.5781C97.7706 19.5057 91.7667 20.3064 90.1066 17.813C89.3225 16.6352 89.6104 14.9019 90.9866 12.5137C112.147 -24.2746 176.039 -43.0967 193.441 -44.0466C204.336 -44.6467 217.533 -43.8371 218.893 -39.5948C219.396 -38.0276 218.184 -36.2927 215.293 -34.4381C205.025 -27.855 164.149 8.16302 151.867 19.8545C146.75 24.7256 142.252 26.4847 138.187 26.4847ZM115.465 16.7614C118.302 16.7614 120.719 17.1458 122.308 18.2545C122.768 18.576 123.229 18.9029 123.693 19.2319C131.485 24.7558 139.543 30.4666 151.31 19.2651C163.608 7.55851 204.556 -28.5176 214.857 -35.1229C216.606 -36.244 218.591 -37.8867 218.123 -39.3457C217.166 -42.3307 206.806 -43.9657 193.485 -43.2356C176.189 -42.2915 112.694 -23.6019 91.6874 12.9203L91.6871 12.9206C90.4974 14.9852 90.1918 16.4792 90.7793 17.3617C92.1599 19.434 98.4918 18.5894 104.616 17.7728C108.372 17.2716 112.197 16.7614 115.465 16.7614Z" fill="url(#paint10_linear_49_134)"/>
</mask>
<g mask="url(#mask10_49_134)">
<path d="M138.187 26.4847C132.522 26.4847 127.7 23.0671 123.226 19.8955C122.764 19.5675 122.304 19.2416 121.846 18.9214C118.685 16.7151 111.266 17.705 104.722 18.5781C97.7706 19.5057 91.7667 20.3064 90.1066 17.813C89.3225 16.6352 89.6104 14.9019 90.9866 12.5137C112.147 -24.2746 176.039 -43.0967 193.441 -44.0466C204.336 -44.6467 217.533 -43.8371 218.893 -39.5948C219.396 -38.0276 218.184 -36.2927 215.293 -34.4381C205.025 -27.855 164.149 8.16302 151.867 19.8545C146.75 24.7256 142.252 26.4847 138.187 26.4847ZM115.465 16.7614C118.302 16.7614 120.719 17.1458 122.308 18.2545C122.768 18.576 123.229 18.9029 123.693 19.2319C131.485 24.7558 139.543 30.4666 151.31 19.2651C163.608 7.55851 204.556 -28.5176 214.857 -35.1229C216.606 -36.244 218.591 -37.8867 218.123 -39.3457C217.166 -42.3307 206.806 -43.9657 193.485 -43.2356C176.189 -42.2915 112.694 -23.6019 91.6874 12.9203L91.6871 12.9206C90.4974 14.9852 90.1918 16.4792 90.7793 17.3617C92.1599 19.434 98.4918 18.5894 104.616 17.7728C108.372 17.2716 112.197 16.7614 115.465 16.7614Z" fill="#0056BB"/>
</g>
<mask id="mask11_49_134" style="mask-type:alpha" maskUnits="userSpaceOnUse" x="105" y="-37" width="99" height="54">
<path d="M142.649 16.5724C138.78 16.5724 135.461 14.3215 132.204 12.1136C131.583 11.6927 130.965 11.2731 130.344 10.871C127.848 9.25412 122.073 10.2068 116.978 11.0469C111.615 11.9313 106.983 12.6943 105.677 10.8327C105.071 9.96845 105.255 8.68051 106.241 6.89489C114.723 -8.45996 132.556 -19.0569 146.022 -25.2431C161.264 -32.2447 177.158 -36.3615 184.374 -36.6804C192.453 -37.0382 202.252 -36.297 203.278 -33.0359C203.67 -31.7919 202.727 -30.4302 200.475 -28.9882C192.708 -24.0138 161.815 3.00263 152.536 11.7598C148.791 15.2949 145.563 16.5721 142.649 16.5724ZM126.062 9.29882C127.968 9.29882 129.593 9.56626 130.715 10.2936C131.34 10.6982 131.963 11.1205 132.587 11.544C138.326 15.4356 143.748 19.111 152.067 11.259C161.359 2.48945 192.311 -24.5755 200.107 -29.5675C201.453 -30.4296 202.982 -31.6949 202.626 -32.8288C201.899 -35.134 194.408 -36.4371 184.405 -35.9937C171.587 -35.4274 122.349 -20.8472 106.84 7.22843C106.006 8.7389 105.803 9.81842 106.237 10.437C107.295 11.9468 112.161 11.1442 116.867 10.3685C120.079 9.83884 123.355 9.29882 126.062 9.29882Z" fill="url(#paint11_linear_49_134)"/>
</mask>
<g mask="url(#mask11_49_134)">
<path d="M142.649 16.5724C138.78 16.5724 135.461 14.3215 132.204 12.1136C131.583 11.6927 130.965 11.2731 130.344 10.871C127.848 9.25412 122.073 10.2068 116.978 11.0469C111.615 11.9313 106.983 12.6943 105.677 10.8327C105.071 9.96845 105.255 8.68051 106.241 6.89489C114.723 -8.45996 132.556 -19.0569 146.022 -25.2431C161.264 -32.2447 177.158 -36.3615 184.374 -36.6804C192.453 -37.0382 202.252 -36.297 203.278 -33.0359C203.67 -31.7919 202.727 -30.4302 200.475 -28.9882C192.708 -24.0138 161.815 3.00263 152.536 11.7598C148.791 15.2949 145.563 16.5721 142.649 16.5724ZM126.062 9.29882C127.968 9.29882 129.593 9.56626 130.715 10.2936C131.34 10.6982 131.963 11.1205 132.587 11.544C138.326 15.4356 143.748 19.111 152.067 11.259C161.359 2.48945 192.311 -24.5755 200.107 -29.5675C201.453 -30.4296 202.982 -31.6949 202.626 -32.8288C201.899 -35.134 194.408 -36.4371 184.405 -35.9937C171.587 -35.4274 122.349 -20.8472 106.84 7.22843C106.006 8.7389 105.803 9.81842 106.237 10.437C107.295 11.9468 112.161 11.1442 116.867 10.3685C120.079 9.83884 123.355 9.29882 126.062 9.29882Z" fill="#0056BB"/>
</g>
</g>
<defs>
<linearGradient id="paint0_linear_49_134" x1="-66.9014" y1="3.42212" x2="375.434" y2="3.42212" gradientUnits="userSpaceOnUse">
<stop stop-color="white"/>
<stop offset="0.0436152" stop-color="#B4B4B4"/>
<stop offset="0.150732"/>
<stop offset="0.171421" stop-color="#171717"/>
<stop offset="0.385884" stop-color="white"/>
<stop offset="0.632551" stop-color="#E6E6E6"/>
<stop offset="0.856667" stop-color="#1A1A1A"/>
<stop offset="0.998739"/>
</linearGradient>
<linearGradient id="paint1_linear_49_134" x1="-51.2425" y1="2.19453" x2="359.79" y2="2.19453" gradientUnits="userSpaceOnUse">
<stop stop-color="white"/>
<stop offset="0.0436152" stop-color="#B4B4B4"/>
<stop offset="0.150732"/>
<stop offset="0.171421" stop-color="#171717"/>
<stop offset="0.385884" stop-color="white"/>
<stop offset="0.632551" stop-color="#E6E6E6"/>
<stop offset="0.856667" stop-color="#1A1A1A"/>
<stop offset="0.998739"/>
</linearGradient>
<linearGradient id="paint2_linear_49_134" x1="-35.5828" y1="0.967455" x2="344.147" y2="0.967455" gradientUnits="userSpaceOnUse">
<stop stop-color="white"/>
<stop offset="0.0436152" stop-color="#B4B4B4"/>
<stop offset="0.150732"/>
<stop offset="0.171421" stop-color="#171717"/>
<stop offset="0.385884" stop-color="white"/>
<stop offset="0.632551" stop-color="#E6E6E6"/>
<stop offset="0.856667" stop-color="#1A1A1A"/>
<stop offset="0.998739"/>
</linearGradient>
<linearGradient id="paint3_linear_49_134" x1="-19.9243" y1="-0.260923" x2="328.503" y2="-0.260923" gradientUnits="userSpaceOnUse">
<stop stop-color="white"/>
<stop offset="0.0436152" stop-color="#B4B4B4"/>
<stop offset="0.150732"/>
<stop offset="0.171421" stop-color="#171717"/>
<stop offset="0.385884" stop-color="white"/>
<stop offset="0.632551" stop-color="#E6E6E6"/>
<stop offset="0.856667" stop-color="#1A1A1A"/>
<stop offset="0.998739"/>
</linearGradient>
<linearGradient id="paint4_linear_49_134" x1="-4.26588" y1="-1.48842" x2="312.859" y2="-1.48842" gradientUnits="userSpaceOnUse">
<stop stop-color="white"/>
<stop offset="0.0436152" stop-color="#B4B4B4"/>
<stop offset="0.150732"/>
<stop offset="0.171421" stop-color="#171717"/>
<stop offset="0.385884" stop-color="white"/>
<stop offset="0.632551" stop-color="#E6E6E6"/>
<stop offset="0.856667" stop-color="#1A1A1A"/>
<stop offset="0.998739"/>
</linearGradient>
<linearGradient id="paint5_linear_49_134" x1="11.3931" y1="-2.71659" x2="297.216" y2="-2.71659" gradientUnits="userSpaceOnUse">
<stop stop-color="white"/>
<stop offset="0.0436152" stop-color="#B4B4B4"/>
<stop offset="0.150732"/>
<stop offset="0.171421" stop-color="#171717"/>
<stop offset="0.385884" stop-color="white"/>
<stop offset="0.632551" stop-color="#E6E6E6"/>
<stop offset="0.856667" stop-color="#1A1A1A"/>
<stop offset="0.998739"/>
</linearGradient>
<linearGradient id="paint6_linear_49_134" x1="27.051" y1="-3.94518" x2="281.573" y2="-3.94518" gradientUnits="userSpaceOnUse">
<stop stop-color="white"/>
<stop offset="0.0436152" stop-color="#B4B4B4"/>
<stop offset="0.150732"/>
<stop offset="0.171421" stop-color="#171717"/>
<stop offset="0.385884" stop-color="white"/>
<stop offset="0.632551" stop-color="#E6E6E6"/>
<stop offset="0.856667" stop-color="#1A1A1A"/>
<stop offset="0.998739"/>
</linearGradient>
<linearGradient id="paint7_linear_49_134" x1="42.7085" y1="-5.19598" x2="265.93" y2="-5.19598" gradientUnits="userSpaceOnUse">
<stop stop-color="white"/>
<stop offset="0.0436152" stop-color="#B4B4B4"/>
<stop offset="0.150732"/>
<stop offset="0.171421" stop-color="#171717"/>
<stop offset="0.385884" stop-color="white"/>
<stop offset="0.632551" stop-color="#E6E6E6"/>
<stop offset="0.856667" stop-color="#1A1A1A"/>
<stop offset="0.998739"/>
</linearGradient>
<linearGradient id="paint8_linear_49_134" x1="58.366" y1="-6.41009" x2="250.288" y2="-6.41009" gradientUnits="userSpaceOnUse">
<stop stop-color="white"/>
<stop offset="0.0436152" stop-color="#B4B4B4"/>
<stop offset="0.150732"/>
<stop offset="0.171421" stop-color="#171717"/>
<stop offset="0.385884" stop-color="white"/>
<stop offset="0.632551" stop-color="#E6E6E6"/>
<stop offset="0.856667" stop-color="#1A1A1A"/>
<stop offset="0.998739"/>
</linearGradient>
<linearGradient id="paint9_linear_49_134" x1="74.0224" y1="-7.66379" x2="234.645" y2="-7.66379" gradientUnits="userSpaceOnUse">
<stop stop-color="white"/>
<stop offset="0.0436152" stop-color="#B4B4B4"/>
<stop offset="0.150732"/>
<stop offset="0.171421" stop-color="#171717"/>
<stop offset="0.385884" stop-color="white"/>
<stop offset="0.632551" stop-color="#E6E6E6"/>
<stop offset="0.856667" stop-color="#1A1A1A"/>
<stop offset="0.998739"/>
</linearGradient>
<linearGradient id="paint10_linear_49_134" x1="89.6772" y1="-8.86873" x2="219.004" y2="-8.86873" gradientUnits="userSpaceOnUse">
<stop stop-color="white"/>
<stop offset="0.0436152" stop-color="#B4B4B4"/>
<stop offset="0.150732"/>
<stop offset="0.171421" stop-color="#171717"/>
<stop offset="0.385884" stop-color="white"/>
<stop offset="0.632551" stop-color="#E6E6E6"/>
<stop offset="0.856667" stop-color="#1A1A1A"/>
<stop offset="0.998739"/>
</linearGradient>
<linearGradient id="paint11_linear_49_134" x1="105.329" y1="-10.095" x2="203.364" y2="-10.095" gradientUnits="userSpaceOnUse">
<stop stop-color="white"/>
<stop offset="0.0436152" stop-color="#B4B4B4"/>
<stop offset="0.150732"/>
<stop offset="0.171421" stop-color="#171717"/>
<stop offset="0.385884" stop-color="white"/>
<stop offset="0.632551" stop-color="#E6E6E6"/>
<stop offset="0.856667" stop-color="#1A1A1A"/>
<stop offset="0.998739"/>
</linearGradient>
</defs>
</svg>
