<svg width="252" height="367" viewBox="0 0 252 367" fill="none" xmlns="http://www.w3.org/2000/svg">
<g opacity="0.7">
<g filter="url(#filter0_b_49_244)">
<mask id="mask0_49_244" style="mask-type:alpha" maskUnits="userSpaceOnUse" x="-371" y="86" width="623" height="323">
<path d="M-185.136 409C-193.283 409 -197.881 407.616 -200.368 405.733C-214.426 395.09 -248.418 399.018 -281.288 402.818C-319.141 407.194 -354.893 411.326 -366.918 396.105C-372.036 389.627 -372.338 380.359 -367.841 367.771C-354.389 330.125 -308.003 286.676 -271.458 256.856C-226.356 220.054 -180.657 191.039 -160.943 180.515L-160.461 181.425L-160.943 180.515C-101.45 148.754 -49.0021 121.133 -9.65552 104.776C31.8798 87.5094 57.718 83.0291 74.1223 90.2537C83.6818 94.4632 89.9288 102.665 93.2207 115.327C97.7982 132.937 107.067 145.592 122.39 155.153C136.301 163.833 154.022 169.215 172.784 174.912C195.482 181.805 221.208 189.618 245.441 204.896C249.503 207.458 251.429 210.802 251.165 214.835C250.496 225.057 235.28 239.632 205.941 258.154C180.158 274.432 143.797 293.488 100.791 313.26C39.8832 341.262 -30.3462 368.778 -87.0725 386.864C-140.129 403.781 -169.319 408.999 -185.136 409ZM-232.417 396.806C-218.234 396.806 -206.328 398.638 -199.13 404.087C-189.477 411.395 -148.861 404.401 -87.6944 384.899C-31.0426 366.836 39.099 339.354 99.9354 311.385C192.159 268.985 247.927 232.841 249.115 214.699C249.329 211.435 247.77 208.8 244.348 206.643C220.349 191.511 194.763 183.741 172.189 176.886C134.269 165.371 101.521 155.426 91.2329 115.848C88.1102 103.836 82.2434 96.0821 73.2971 92.1424C39.7538 77.3717 -37.2014 116.791 -159.979 182.335C-179.621 192.822 -225.174 221.747 -270.163 258.457C-306.505 288.111 -352.616 331.268 -365.907 368.468C-370.145 380.329 -369.949 388.95 -365.309 394.823C-353.992 409.147 -317.151 404.888 -281.523 400.769C-264.525 398.805 -247.23 396.806 -232.417 396.806Z" fill="url(#paint0_linear_49_244)"/>
</mask>
<g mask="url(#mask0_49_244)">
<path d="M-185.136 409C-193.283 409 -197.881 407.616 -200.368 405.733C-214.426 395.09 -248.418 399.018 -281.288 402.818C-319.141 407.194 -354.893 411.326 -366.918 396.105C-372.036 389.627 -372.338 380.359 -367.841 367.771C-354.389 330.125 -308.003 286.676 -271.458 256.856C-226.356 220.054 -180.657 191.039 -160.943 180.515L-160.461 181.425L-160.943 180.515C-101.45 148.754 -49.0021 121.133 -9.65552 104.776C31.8798 87.5094 57.718 83.0291 74.1223 90.2537C83.6818 94.4632 89.9288 102.665 93.2207 115.327C97.7982 132.937 107.067 145.592 122.39 155.153C136.301 163.833 154.022 169.215 172.784 174.912C195.482 181.805 221.208 189.618 245.441 204.896C249.503 207.458 251.429 210.802 251.165 214.835C250.496 225.057 235.28 239.632 205.941 258.154C180.158 274.432 143.797 293.488 100.791 313.26C39.8832 341.262 -30.3462 368.778 -87.0725 386.864C-140.129 403.781 -169.319 408.999 -185.136 409ZM-232.417 396.806C-218.234 396.806 -206.328 398.638 -199.13 404.087C-189.477 411.395 -148.861 404.401 -87.6944 384.899C-31.0426 366.836 39.099 339.354 99.9354 311.385C192.159 268.985 247.927 232.841 249.115 214.699C249.329 211.435 247.77 208.8 244.348 206.643C220.349 191.511 194.763 183.741 172.189 176.886C134.269 165.371 101.521 155.426 91.2329 115.848C88.1102 103.836 82.2434 96.0821 73.2971 92.1424C39.7538 77.3717 -37.2014 116.791 -159.979 182.335C-179.621 192.822 -225.174 221.747 -270.163 258.457C-306.505 288.111 -352.616 331.268 -365.907 368.468C-370.145 380.329 -369.949 388.95 -365.309 394.823C-353.992 409.147 -317.151 404.888 -281.523 400.769C-264.525 398.805 -247.23 396.806 -232.417 396.806Z" fill="#005E9E"/>
</g>
</g>
<mask id="mask1_49_244" style="mask-type:alpha" maskUnits="userSpaceOnUse" x="-331" y="0" width="347" height="235">
<path d="M-326.14 234.948C-327.502 234.948 -328.578 234.683 -329.364 234.142C-330.829 233.134 -331.306 231.347 -330.781 228.832C-328.748 219.094 -308.877 185.81 -283.53 149.691C-241.508 89.8086 -215.6 64.9562 -206.411 57.0508C-166.228 22.4785 -127.643 0.0927047 -108.11 0.0205078C-108.093 0.0205078 -108.073 0.0205078 -108.056 0.0205078C-99.5132 0.0205078 -98.6149 7.41911 -97.6623 15.252C-96.3744 25.8402 -94.9149 37.8412 -77.4397 41.2428C-62.4697 44.1565 -43.2651 44.1961 -26.3211 44.2309C-4.61551 44.2754 12.5288 44.3106 15.1248 50.1919C15.8424 51.8171 15.8603 53.4161 15.1782 54.9447C11.9952 62.0783 -6.54691 68.1352 -47.1736 81.4062C-54.4108 83.7701 -62.6135 86.4497 -71.4047 89.3591C-99.4821 98.6519 -154.804 134.19 -208.304 168.558C-271.522 209.169 -312.703 234.946 -326.14 234.948ZM-108.055 1.94901C-108.071 1.94901 -108.087 1.94901 -108.103 1.94901C-129.823 2.02941 -172.497 30.416 -205.153 58.5129C-224.459 75.1223 -252.451 108.759 -281.951 150.798C-307.166 186.73 -326.907 219.713 -328.893 229.226C-329.422 231.761 -328.555 232.358 -328.27 232.554C-324.774 234.959 -311.127 229.336 -287.706 215.84C-266.02 203.342 -238.491 185.658 -209.346 166.936C-155.745 132.503 -100.32 96.8976 -72.0105 87.5285C-63.2158 84.6176 -55.0113 81.9376 -47.7722 79.5728C-10.1445 67.2815 10.583 60.5107 13.417 54.159C13.8803 53.1204 13.8625 52.1075 13.3609 50.9709C11.271 46.2366 -6.991 46.1989 -26.3249 46.1594C-43.3552 46.1242 -62.6578 46.0847 -77.8082 43.1355C-96.6597 39.4662 -98.2771 26.1691 -99.5766 15.4849C-100.627 6.84561 -101.542 1.94901 -108.055 1.94901Z" fill="url(#paint1_linear_49_244)"/>
</mask>
<g mask="url(#mask1_49_244)">
<path d="M-326.14 234.948C-327.502 234.948 -328.578 234.683 -329.364 234.142C-330.829 233.134 -331.306 231.347 -330.781 228.832C-328.748 219.094 -308.877 185.81 -283.53 149.691C-241.508 89.8086 -215.6 64.9562 -206.411 57.0508C-166.228 22.4785 -127.643 0.0927047 -108.11 0.0205078C-108.093 0.0205078 -108.073 0.0205078 -108.056 0.0205078C-99.5132 0.0205078 -98.6149 7.41911 -97.6623 15.252C-96.3744 25.8402 -94.9149 37.8412 -77.4397 41.2428C-62.4697 44.1565 -43.2651 44.1961 -26.3211 44.2309C-4.61551 44.2754 12.5288 44.3106 15.1248 50.1919C15.8424 51.8171 15.8603 53.4161 15.1782 54.9447C11.9952 62.0783 -6.54691 68.1352 -47.1736 81.4062C-54.4108 83.7701 -62.6135 86.4497 -71.4047 89.3591C-99.4821 98.6519 -154.804 134.19 -208.304 168.558C-271.522 209.169 -312.703 234.946 -326.14 234.948ZM-108.055 1.94901C-108.071 1.94901 -108.087 1.94901 -108.103 1.94901C-129.823 2.02941 -172.497 30.416 -205.153 58.5129C-224.459 75.1223 -252.451 108.759 -281.951 150.798C-307.166 186.73 -326.907 219.713 -328.893 229.226C-329.422 231.761 -328.555 232.358 -328.27 232.554C-324.774 234.959 -311.127 229.336 -287.706 215.84C-266.02 203.342 -238.491 185.658 -209.346 166.936C-155.745 132.503 -100.32 96.8976 -72.0105 87.5285C-63.2158 84.6176 -55.0113 81.9376 -47.7722 79.5728C-10.1445 67.2815 10.583 60.5107 13.417 54.159C13.8803 53.1204 13.8625 52.1075 13.3609 50.9709C11.271 46.2366 -6.991 46.1989 -26.3249 46.1594C-43.3552 46.1242 -62.6578 46.0847 -77.8082 43.1355C-96.6597 39.4662 -98.2771 26.1691 -99.5766 15.4849C-100.627 6.84561 -101.542 1.94901 -108.055 1.94901Z" fill="#005E9E"/>
</g>
</g>
<defs>
<filter id="filter0_b_49_244" x="-375" y="82.9404" width="630.189" height="330.06" filterUnits="userSpaceOnUse" color-interpolation-filters="sRGB">
<feFlood flood-opacity="0" result="BackgroundImageFix"/>
<feGaussianBlur in="BackgroundImage" stdDeviation="2"/>
<feComposite in2="SourceAlpha" operator="in" result="effect1_backgroundBlur_49_244"/>
<feBlend mode="normal" in="SourceGraphic" in2="effect1_backgroundBlur_49_244" result="shape"/>
</filter>
<linearGradient id="paint0_linear_49_244" x1="-371" y1="247.97" x2="251.189" y2="247.97" gradientUnits="userSpaceOnUse">
<stop stop-color="white"/>
<stop offset="0.0436152" stop-color="#B4B4B4"/>
<stop offset="0.150732"/>
<stop offset="0.171421" stop-color="#171717"/>
<stop offset="0.385884" stop-color="white"/>
<stop offset="0.632551" stop-color="#E6E6E6"/>
<stop offset="0.856667" stop-color="#1A1A1A"/>
<stop offset="0.998739"/>
</linearGradient>
<linearGradient id="paint1_linear_49_244" x1="-330.987" y1="117.484" x2="15.6768" y2="117.484" gradientUnits="userSpaceOnUse">
<stop stop-color="white"/>
<stop offset="0.0436152" stop-color="#B4B4B4"/>
<stop offset="0.150732"/>
<stop offset="0.171421" stop-color="#171717"/>
<stop offset="0.385884" stop-color="white"/>
<stop offset="0.632551" stop-color="#E6E6E6"/>
<stop offset="0.856667" stop-color="#1A1A1A"/>
<stop offset="0.998739"/>
</linearGradient>
</defs>
</svg>
