<svg width="252" height="281" viewBox="0 0 252 281" fill="none" xmlns="http://www.w3.org/2000/svg">
<mask id="mask0_44_6" style="mask-type:alpha" maskUnits="userSpaceOnUse" x="-371" y="0" width="623" height="323">
<path d="M-185.136 323C-193.283 323 -197.881 321.616 -200.368 319.733C-214.426 309.09 -248.418 313.018 -281.288 316.818C-319.141 321.194 -354.893 325.326 -366.918 310.105C-372.036 303.627 -372.338 294.359 -367.841 281.771C-354.389 244.125 -308.003 200.676 -271.458 170.856C-226.356 134.054 -180.657 105.039 -160.943 94.5148L-160.461 95.425L-160.943 94.5148C-101.45 62.7542 -49.0021 35.1332 -9.65552 18.7762C31.8798 1.50942 57.718 -2.97088 74.1223 4.25372C83.6818 8.46316 89.9288 16.6649 93.2207 29.327C97.7982 46.9375 107.067 59.5923 122.39 69.1534C136.301 77.8335 154.022 83.2149 172.784 88.9124C195.482 95.805 221.208 103.618 245.441 118.896C249.503 121.458 251.429 124.802 251.165 128.835C250.496 139.057 235.28 153.632 205.941 172.154C180.158 188.432 143.797 207.488 100.791 227.26C39.8832 255.262 -30.3462 282.778 -87.0725 300.864C-140.129 317.781 -169.319 322.999 -185.136 323ZM-232.417 310.806C-218.234 310.806 -206.328 312.638 -199.13 318.087C-189.477 325.395 -148.861 318.401 -87.6944 298.899C-31.0426 280.836 39.099 253.354 99.9354 225.385C192.159 182.985 247.927 146.841 249.115 128.699C249.329 125.435 247.77 122.8 244.348 120.643C220.349 105.511 194.763 97.7414 172.189 90.8863C134.269 79.3707 101.521 69.4256 91.2329 29.848C88.1102 17.836 82.2434 10.0821 73.2971 6.14243C39.7538 -8.62834 -37.2014 30.7912 -159.979 96.3354C-179.621 106.822 -225.174 135.747 -270.163 172.457C-306.505 202.111 -352.616 245.268 -365.907 282.468C-370.145 294.329 -369.949 302.95 -365.309 308.823C-353.992 323.147 -317.151 318.888 -281.523 314.769C-264.525 312.805 -247.23 310.806 -232.417 310.806Z" fill="url(#paint0_linear_44_6)"/>
</mask>
<g mask="url(#mask0_44_6)">
<path d="M-185.136 323C-193.283 323 -197.881 321.616 -200.368 319.733C-214.426 309.09 -248.418 313.018 -281.288 316.818C-319.141 321.194 -354.893 325.326 -366.918 310.105C-372.036 303.627 -372.338 294.359 -367.841 281.771C-354.389 244.125 -308.003 200.676 -271.458 170.856C-226.356 134.054 -180.657 105.039 -160.943 94.5148L-160.461 95.425L-160.943 94.5148C-101.45 62.7542 -49.0021 35.1332 -9.65552 18.7762C31.8798 1.50942 57.718 -2.97088 74.1223 4.25372C83.6818 8.46316 89.9288 16.6649 93.2207 29.327C97.7982 46.9375 107.067 59.5923 122.39 69.1534C136.301 77.8335 154.022 83.2149 172.784 88.9124C195.482 95.805 221.208 103.618 245.441 118.896C249.503 121.458 251.429 124.802 251.165 128.835C250.496 139.057 235.28 153.632 205.941 172.154C180.158 188.432 143.797 207.488 100.791 227.26C39.8832 255.262 -30.3462 282.778 -87.0725 300.864C-140.129 317.781 -169.319 322.999 -185.136 323ZM-232.417 310.806C-218.234 310.806 -206.328 312.638 -199.13 318.087C-189.477 325.395 -148.861 318.401 -87.6944 298.899C-31.0426 280.836 39.099 253.354 99.9354 225.385C192.159 182.985 247.927 146.841 249.115 128.699C249.329 125.435 247.77 122.8 244.348 120.643C220.349 105.511 194.763 97.7414 172.189 90.8863C134.269 79.3707 101.521 69.4256 91.2329 29.848C88.1102 17.836 82.2434 10.0821 73.2971 6.14243C39.7538 -8.62834 -37.2014 30.7912 -159.979 96.3354C-179.621 106.822 -225.174 135.747 -270.163 172.457C-306.505 202.111 -352.616 245.268 -365.907 282.468C-370.145 294.329 -369.949 302.95 -365.309 308.823C-353.992 323.147 -317.151 318.888 -281.523 314.769C-264.525 312.805 -247.23 310.806 -232.417 310.806Z" fill="#005E9E"/>
</g>
<mask id="mask1_44_6" style="mask-type:alpha" maskUnits="userSpaceOnUse" x="-351" y="17" width="569" height="300">
<path d="M-180.406 316.147C-186.66 316.147 -191.256 315.242 -193.894 313.306C-206.843 303.754 -237.834 307.307 -267.804 310.743C-302.632 314.737 -335.528 318.508 -346.642 304.497C-351.344 298.57 -351.669 290.117 -347.636 278.657C-340.903 258.572 -323.245 233.45 -296.576 206.019C-273.867 182.662 -245.043 158.265 -217.495 139.083C-188.589 119.356 -165.199 105.637 -158.719 101.902C-99.1974 69.9035 -55.4583 47.2771 -21.287 33.3236C15.9495 18.1181 40.3094 14.1104 55.375 20.7114C64.4395 24.6832 70.3586 32.4116 73.4694 44.3391V44.3394C77.6829 60.5129 86.1715 72.1709 100.183 81.0274C112.902 89.0667 129.085 94.1005 146.219 99.4293C166.839 105.843 190.211 113.113 212.216 127.122C216.028 129.663 217.799 132.926 217.497 136.832C215.465 163.079 118.542 210.569 76.9653 229.769C-20.3194 274.693 -138.124 316.147 -180.406 316.147ZM-223.114 305.224C-210.212 305.224 -199.365 306.866 -192.754 311.743C-173.386 325.952 -34.8062 279.251 76.1588 228.009C162.101 188.322 214.218 154.181 215.573 136.682C215.82 133.484 214.379 130.889 211.165 128.747C189.394 114.887 166.153 107.658 145.647 101.28C110.999 90.5029 81.0759 81.1952 71.6025 44.8295V44.8298C68.651 33.5142 63.0904 26.2058 54.6029 22.487C23.0711 8.67347 -49.9619 45.6323 -157.783 103.596C-164.223 107.308 -187.56 120.996 -216.403 140.68C-243.847 159.79 -272.568 184.1 -295.194 207.372C-321.663 234.596 -339.166 259.464 -345.811 279.288C-349.609 290.082 -349.386 297.928 -345.133 303.29C-334.684 316.461 -300.795 312.575 -268.023 308.819C-252.48 307.037 -236.664 305.224 -223.114 305.224Z" fill="url(#paint1_linear_44_6)"/>
</mask>
<g mask="url(#mask1_44_6)">
<path d="M-180.406 316.147C-186.66 316.147 -191.256 315.242 -193.894 313.306C-206.843 303.754 -237.834 307.307 -267.804 310.743C-302.632 314.737 -335.528 318.508 -346.642 304.497C-351.344 298.57 -351.669 290.117 -347.636 278.657C-340.903 258.572 -323.245 233.45 -296.576 206.019C-273.867 182.662 -245.043 158.265 -217.495 139.083C-188.589 119.356 -165.199 105.637 -158.719 101.902C-99.1974 69.9035 -55.4583 47.2771 -21.287 33.3236C15.9495 18.1181 40.3094 14.1104 55.375 20.7114C64.4395 24.6832 70.3586 32.4116 73.4694 44.3391V44.3394C77.6829 60.5129 86.1715 72.1709 100.183 81.0274C112.902 89.0667 129.085 94.1005 146.219 99.4293C166.839 105.843 190.211 113.113 212.216 127.122C216.028 129.663 217.799 132.926 217.497 136.832C215.465 163.079 118.542 210.569 76.9653 229.769C-20.3194 274.693 -138.124 316.147 -180.406 316.147ZM-223.114 305.224C-210.212 305.224 -199.365 306.866 -192.754 311.743C-173.386 325.952 -34.8062 279.251 76.1588 228.009C162.101 188.322 214.218 154.181 215.573 136.682C215.82 133.484 214.379 130.889 211.165 128.747C189.394 114.887 166.153 107.658 145.647 101.28C110.999 90.5029 81.0759 81.1952 71.6025 44.8295V44.8298C68.651 33.5142 63.0904 26.2058 54.6029 22.487C23.0711 8.67347 -49.9619 45.6323 -157.783 103.596C-164.223 107.308 -187.56 120.996 -216.403 140.68C-243.847 159.79 -272.568 184.1 -295.194 207.372C-321.663 234.596 -339.166 259.464 -345.811 279.288C-349.609 290.082 -349.386 297.928 -345.133 303.29C-334.684 316.461 -300.795 312.575 -268.023 308.819C-252.48 307.037 -236.664 305.224 -223.114 305.224Z" fill="#005E9E"/>
</g>
<mask id="mask2_44_6" style="mask-type:alpha" maskUnits="userSpaceOnUse" x="-330" y="34" width="514" height="276">
<path d="M-175.271 309.412C-180.822 309.412 -184.968 308.61 -187.42 306.879C-199.257 298.419 -227.246 301.596 -254.313 304.669C-286.12 308.28 -316.162 311.69 -326.366 298.889C-330.651 293.514 -330.999 285.877 -327.43 275.543C-321.677 256.919 -305.752 232.473 -282.6 206.739C-261.082 182.824 -235.113 159.816 -211.35 143.615C-195.24 133.107 -180.418 124.011 -168.508 116.702C-163.879 113.861 -159.881 111.408 -156.492 109.291C-112.569 85.4767 -67.2401 61.5754 -32.9323 47.865C0.562134 34.4791 22.6577 31.0742 36.6024 37.1458C45.1857 40.8834 50.7844 48.1469 53.7184 59.3514V59.3517C62.1258 91.5416 88.7841 100.072 119.652 109.95C138.195 115.884 159.214 122.61 178.991 135.347C186.749 140.854 183.761 148.567 179.894 154.072C159.597 182.968 66.761 228.301 -6.57083 258.343C-73.0042 285.558 -145.003 309.412 -175.271 309.412ZM-213.558 299.588C-202.008 299.588 -192.438 301.068 -186.378 305.4C-173.37 314.577 -99.7087 294.54 -7.25333 256.665C36.029 238.934 77.632 219.489 109.891 201.913C146.125 182.172 169.821 165.268 178.418 153.028C183.423 145.903 183.28 140.611 177.982 136.85C158.439 124.264 137.541 117.577 119.103 111.676C87.7281 101.636 60.6314 92.9654 51.9724 59.8116C49.1884 49.1804 43.9258 42.3102 35.8842 38.8084C8.42471 26.852 -50.1402 53.6906 -155.586 110.857C-158.933 112.95 -162.934 115.406 -167.566 118.248C-179.467 125.551 -194.277 134.64 -210.351 145.125C-233.984 161.237 -259.835 184.141 -281.259 207.954C-304.24 233.497 -320.029 257.701 -325.715 276.109C-329.074 285.835 -328.822 292.907 -324.957 297.756C-315.375 309.777 -284.436 306.264 -254.516 302.868C-239.866 301.205 -225.63 299.588 -213.558 299.588Z" fill="url(#paint2_linear_44_6)"/>
</mask>
<g mask="url(#mask2_44_6)">
<path d="M-175.271 309.412C-180.822 309.412 -184.968 308.61 -187.42 306.879C-199.257 298.419 -227.246 301.596 -254.313 304.669C-286.12 308.28 -316.162 311.69 -326.366 298.889C-330.651 293.514 -330.999 285.877 -327.43 275.543C-321.677 256.919 -305.752 232.473 -282.6 206.739C-261.082 182.824 -235.113 159.816 -211.35 143.615C-195.24 133.107 -180.418 124.011 -168.508 116.702C-163.879 113.861 -159.881 111.408 -156.492 109.291C-112.569 85.4767 -67.2401 61.5754 -32.9323 47.865C0.562134 34.4791 22.6577 31.0742 36.6024 37.1458C45.1857 40.8834 50.7844 48.1469 53.7184 59.3514V59.3517C62.1258 91.5416 88.7841 100.072 119.652 109.95C138.195 115.884 159.214 122.61 178.991 135.347C186.749 140.854 183.761 148.567 179.894 154.072C159.597 182.968 66.761 228.301 -6.57083 258.343C-73.0042 285.558 -145.003 309.412 -175.271 309.412ZM-213.558 299.588C-202.008 299.588 -192.438 301.068 -186.378 305.4C-173.37 314.577 -99.7087 294.54 -7.25333 256.665C36.029 238.934 77.632 219.489 109.891 201.913C146.125 182.172 169.821 165.268 178.418 153.028C183.423 145.903 183.28 140.611 177.982 136.85C158.439 124.264 137.541 117.577 119.103 111.676C87.7281 101.636 60.6314 92.9654 51.9724 59.8116C49.1884 49.1804 43.9258 42.3102 35.8842 38.8084C8.42471 26.852 -50.1402 53.6906 -155.586 110.857C-158.933 112.95 -162.934 115.406 -167.566 118.248C-179.467 125.551 -194.277 134.64 -210.351 145.125C-233.984 161.237 -259.835 184.141 -281.259 207.954C-304.24 233.497 -320.029 257.701 -325.715 276.109C-329.074 285.835 -328.822 292.907 -324.957 297.756C-315.375 309.777 -284.436 306.264 -254.516 302.868C-239.866 301.205 -225.63 299.588 -213.558 299.588Z" fill="#005E9E"/>
</g>
<mask id="mask3_44_6" style="mask-type:alpha" maskUnits="userSpaceOnUse" x="-310" y="50" width="461" height="253">
<path d="M-170.467 302.574C-175.064 302.574 -178.726 301.946 -180.945 300.453C-191.667 293.08 -216.653 295.882 -240.815 298.593C-268.336 301.681 -296.794 304.873 -306.091 293.281C-309.959 288.458 -310.33 281.638 -307.225 272.43C-297.185 236.194 -248.552 176.935 -205.204 148.147C-197.97 143.682 -191.066 139.503 -184.39 135.462C-172.13 128.04 -161.542 121.63 -154.263 116.679L-154.194 116.637C-102.997 88.5913 -70.2202 72.3702 -44.5974 62.3972C-14.851 50.8186 4.97458 48.0067 17.7962 53.5471C25.9156 57.056 31.2049 63.8651 33.9671 74.3633L33.9675 74.3643C41.58 103.42 65.4471 111.323 93.0828 120.473C109.551 125.926 128.216 132.107 145.766 143.573C151.604 148.023 151.713 154.232 146.141 162.065C137.851 173.718 116.276 189.396 83.748 207.402C55.0154 223.308 17.9975 240.852 -20.4867 256.804C-58.0525 272.375 -94.4875 285.413 -123.08 293.516C-139.026 298.035 -158.118 302.574 -170.467 302.574ZM-204.267 294.011C-193.998 294.011 -185.468 295.298 -180.002 299.056C-174.044 303.064 -153.988 300.522 -123.536 291.892C-95.0047 283.806 -58.6357 270.791 -21.128 255.244C43.5843 228.421 125.863 187.666 144.774 161.084C149.786 154.039 149.795 148.762 144.8 144.952C127.482 133.64 108.927 127.496 92.5562 122.076C64.4554 112.771 40.1867 104.735 32.3418 74.7932L32.3421 74.7943C29.7203 64.8304 24.7449 58.3872 17.1317 55.0971C-8.80341 43.888 -65.015 69.7088 -153.354 118.098C-160.668 123.072 -171.26 129.484 -183.522 136.907C-190.195 140.946 -197.095 145.123 -204.3 149.569C-247.35 178.16 -295.654 236.964 -305.619 272.927C-308.539 281.588 -308.26 287.886 -304.782 292.223C-296.064 303.092 -268.072 299.953 -241.001 296.916C-227.864 295.443 -215.098 294.011 -204.267 294.011Z" fill="url(#paint3_linear_44_6)"/>
</mask>
<g mask="url(#mask3_44_6)">
<path d="M-170.467 302.574C-175.064 302.574 -178.726 301.946 -180.945 300.453C-191.667 293.08 -216.653 295.882 -240.815 298.593C-268.336 301.681 -296.794 304.873 -306.091 293.281C-309.959 288.458 -310.33 281.638 -307.225 272.43C-297.185 236.194 -248.552 176.935 -205.204 148.147C-197.97 143.682 -191.066 139.503 -184.39 135.462C-172.13 128.04 -161.542 121.63 -154.263 116.679L-154.194 116.637C-102.997 88.5913 -70.2202 72.3702 -44.5974 62.3972C-14.851 50.8186 4.97458 48.0067 17.7962 53.5471C25.9156 57.056 31.2049 63.8651 33.9671 74.3633L33.9675 74.3643C41.58 103.42 65.4471 111.323 93.0828 120.473C109.551 125.926 128.216 132.107 145.766 143.573C151.604 148.023 151.713 154.232 146.141 162.065C137.851 173.718 116.276 189.396 83.748 207.402C55.0154 223.308 17.9975 240.852 -20.4867 256.804C-58.0525 272.375 -94.4875 285.413 -123.08 293.516C-139.026 298.035 -158.118 302.574 -170.467 302.574ZM-204.267 294.011C-193.998 294.011 -185.468 295.298 -180.002 299.056C-174.044 303.064 -153.988 300.522 -123.536 291.892C-95.0047 283.806 -58.6357 270.791 -21.128 255.244C43.5843 228.421 125.863 187.666 144.774 161.084C149.786 154.039 149.795 148.762 144.8 144.952C127.482 133.64 108.927 127.496 92.5562 122.076C64.4554 112.771 40.1867 104.735 32.3418 74.7932L32.3421 74.7943C29.7203 64.8304 24.7449 58.3872 17.1317 55.0971C-8.80341 43.888 -65.015 69.7088 -153.354 118.098C-160.668 123.072 -171.26 129.484 -183.522 136.907C-190.195 140.946 -197.095 145.123 -204.3 149.569C-247.35 178.16 -295.654 236.964 -305.619 272.927C-308.539 281.588 -308.26 287.886 -304.782 292.223C-296.064 303.092 -268.072 299.953 -241.001 296.916C-227.864 295.443 -215.098 294.011 -204.267 294.011Z" fill="#005E9E"/>
</g>
<mask id="mask4_44_6" style="mask-type:alpha" maskUnits="userSpaceOnUse" x="-289" y="67" width="406" height="229">
<path d="M-165.491 295.786C-169.389 295.786 -172.517 295.263 -174.469 294.027C-184.074 287.742 -206.051 290.171 -227.304 292.519C-251.945 295.241 -277.424 298.056 -285.817 287.675C-289.269 283.404 -289.662 277.4 -287.021 269.318C-283.261 253.497 -271.152 230.62 -254.645 208.184C-237.093 184.327 -216.832 164.096 -199.058 152.678L-193.814 149.663C-177.152 140.093 -161.414 131.054 -152.033 124.067L-151.946 124.011C-65.0541 75.789 -22.7501 60.6172 -1.0593 69.9013C6.62112 73.189 11.6179 79.5591 14.2156 89.3753L14.2159 89.3767C21.0343 115.299 42.1084 122.576 66.5101 131.002C80.9033 135.972 97.2163 141.605 112.542 151.799L112.608 151.848C117.983 156.302 117.898 162.458 112.357 170.144C94.4929 194.921 24.8431 230.365 -34.3822 255.274C-66.9866 268.987 -98.7317 280.501 -123.77 287.694C-137.788 291.722 -154.629 295.786 -165.491 295.786ZM-194.963 288.433C-185.981 288.433 -178.495 289.527 -173.629 292.711C-162.948 299.475 -104.635 283.128 -34.9838 253.833C-1.41776 239.716 30.8927 224.138 55.996 209.97C84.3737 193.953 103.427 179.865 111.096 169.227C116.128 162.248 116.309 156.965 111.648 153.078C96.4975 143.008 80.2984 137.415 66.0039 132.48C41.1803 123.908 19.7419 116.505 12.7113 89.7754L12.7115 89.7767C10.2449 80.456 5.54071 74.425 -1.66983 71.3386C-26.1001 60.8813 -79.0894 85.3656 -151.147 125.353C-160.607 132.39 -176.362 141.44 -193.041 151.019L-198.252 154.014C-215.839 165.313 -235.95 185.403 -253.393 209.112C-269.782 231.388 -281.793 254.053 -285.525 269.743C-288.006 277.342 -287.7 282.865 -284.609 286.69C-276.751 296.41 -251.7 293.642 -227.475 290.966C-215.848 289.681 -204.553 288.433 -194.963 288.433Z" fill="url(#paint4_linear_44_6)"/>
</mask>
<g mask="url(#mask4_44_6)">
<path d="M-165.491 295.786C-169.389 295.786 -172.517 295.263 -174.469 294.027C-184.074 287.742 -206.051 290.171 -227.304 292.519C-251.945 295.241 -277.424 298.056 -285.817 287.675C-289.269 283.404 -289.662 277.4 -287.021 269.318C-283.261 253.497 -271.152 230.62 -254.645 208.184C-237.093 184.327 -216.832 164.096 -199.058 152.678L-193.814 149.663C-177.152 140.093 -161.414 131.054 -152.033 124.067L-151.946 124.011C-65.0541 75.789 -22.7501 60.6172 -1.0593 69.9013C6.62112 73.189 11.6179 79.5591 14.2156 89.3753L14.2159 89.3767C21.0343 115.299 42.1084 122.576 66.5101 131.002C80.9033 135.972 97.2163 141.605 112.542 151.799L112.608 151.848C117.983 156.302 117.898 162.458 112.357 170.144C94.4929 194.921 24.8431 230.365 -34.3822 255.274C-66.9866 268.987 -98.7317 280.501 -123.77 287.694C-137.788 291.722 -154.629 295.786 -165.491 295.786ZM-194.963 288.433C-185.981 288.433 -178.495 289.527 -173.629 292.711C-162.948 299.475 -104.635 283.128 -34.9838 253.833C-1.41776 239.716 30.8927 224.138 55.996 209.97C84.3737 193.953 103.427 179.865 111.096 169.227C116.128 162.248 116.309 156.965 111.648 153.078C96.4975 143.008 80.2984 137.415 66.0039 132.48C41.1803 123.908 19.7419 116.505 12.7113 89.7754L12.7115 89.7767C10.2449 80.456 5.54071 74.425 -1.66983 71.3386C-26.1001 60.8813 -79.0894 85.3656 -151.147 125.353C-160.607 132.39 -176.362 141.44 -193.041 151.019L-198.252 154.014C-215.839 165.313 -235.95 185.403 -253.393 209.112C-269.782 231.388 -281.793 254.053 -285.525 269.743C-288.006 277.342 -287.7 282.865 -284.609 286.69C-276.751 296.41 -251.7 293.642 -227.475 290.966C-215.848 289.681 -204.553 288.433 -194.963 288.433Z" fill="#005E9E"/>
</g>
<mask id="mask5_44_6" style="mask-type:alpha" maskUnits="userSpaceOnUse" x="-269" y="83" width="352" height="207">
<path d="M-160.449 289.018C-163.774 289.018 -166.336 288.568 -167.99 287.601C-176.474 282.401 -195.437 284.456 -213.776 286.444C-235.542 288.802 -258.05 291.242 -265.543 282.068C-268.573 278.359 -268.994 273.183 -266.829 266.246C-261.481 237.928 -227.355 178.385 -192.91 157.208C-176.409 148.541 -159.525 139.436 -149.799 131.455L-149.697 131.386C-78.6679 91.2955 -39.8754 77.7776 -19.9886 86.184C-12.7082 89.2616 -7.98041 95.2158 -5.53586 104.387L-5.53552 104.389C0.48938 127.18 18.7686 133.834 39.9339 141.538C52.2533 146.022 66.2161 151.105 79.3183 160.026L79.3981 160.089C84.3612 164.621 84.0706 170.76 78.5349 178.336C61.9898 200.979 2.19962 232.141 -48.2382 253.753C-90.7154 271.954 -139.975 289.018 -160.449 289.018ZM-185.637 282.853C-177.95 282.853 -171.517 283.755 -167.257 286.366C-157.644 291.992 -107.82 277.72 -48.8002 252.431C1.46298 230.894 61.006 199.895 77.3803 177.486C82.4669 170.525 82.8245 165.193 78.4716 161.186C65.5297 152.384 51.6728 147.34 39.4458 142.889C17.9028 135.048 -0.702667 128.275 -6.91919 104.757L-6.91885 104.758C-9.2417 96.0449 -13.6984 90.4025 -20.5443 87.5089C-39.9726 79.2957 -78.3727 92.782 -148.942 132.608C-158.779 140.664 -175.707 149.795 -192.204 158.458C-226.315 179.431 -260.154 238.5 -265.43 266.555L-265.45 266.637C-267.473 273.095 -267.141 277.844 -264.436 281.157C-257.433 289.729 -235.317 287.331 -213.93 285.015C-203.813 283.918 -193.986 282.853 -185.637 282.853Z" fill="url(#paint5_linear_44_6)"/>
</mask>
<g mask="url(#mask5_44_6)">
<path d="M-160.449 289.018C-163.774 289.018 -166.336 288.568 -167.99 287.601C-176.474 282.401 -195.437 284.456 -213.776 286.444C-235.542 288.802 -258.05 291.242 -265.543 282.068C-268.573 278.359 -268.994 273.183 -266.829 266.246C-261.481 237.928 -227.355 178.385 -192.91 157.208C-176.409 148.541 -159.525 139.436 -149.799 131.455L-149.697 131.386C-78.6679 91.2955 -39.8754 77.7776 -19.9886 86.184C-12.7082 89.2616 -7.98041 95.2158 -5.53586 104.387L-5.53552 104.389C0.48938 127.18 18.7686 133.834 39.9339 141.538C52.2533 146.022 66.2161 151.105 79.3183 160.026L79.3981 160.089C84.3612 164.621 84.0706 170.76 78.5349 178.336C61.9898 200.979 2.19962 232.141 -48.2382 253.753C-90.7154 271.954 -139.975 289.018 -160.449 289.018ZM-185.637 282.853C-177.95 282.853 -171.517 283.755 -167.257 286.366C-157.644 291.992 -107.82 277.72 -48.8002 252.431C1.46298 230.894 61.006 199.895 77.3803 177.486C82.4669 170.525 82.8245 165.193 78.4716 161.186C65.5297 152.384 51.6728 147.34 39.4458 142.889C17.9028 135.048 -0.702667 128.275 -6.91919 104.757L-6.91885 104.758C-9.2417 96.0449 -13.6984 90.4025 -20.5443 87.5089C-39.9726 79.2957 -78.3727 92.782 -148.942 132.608C-158.779 140.664 -175.707 149.795 -192.204 158.458C-226.315 179.431 -260.154 238.5 -265.43 266.555L-265.45 266.637C-267.473 273.095 -267.141 277.844 -264.436 281.157C-257.433 289.729 -235.317 287.331 -213.93 285.015C-203.813 283.918 -193.986 282.853 -185.637 282.853Z" fill="#005E9E"/>
</g>
<mask id="mask6_44_6" style="mask-type:alpha" maskUnits="userSpaceOnUse" x="-248" y="100" width="298" height="183">
<path d="M-155.415 282.25C-158.044 282.25 -160.11 281.908 -161.508 281.175C-168.864 277.057 -184.804 278.74 -200.219 280.369C-219.12 282.365 -238.666 284.43 -245.269 276.464C-247.847 273.356 -248.303 268.876 -246.627 263.148C-243.566 238.492 -216.218 178.788 -186.76 161.739C-174.435 156.022 -157.026 147.462 -147.562 138.844L-147.449 138.761C-91.481 106.443 -57.0318 94.8738 -39.0339 102.354C-32.1902 105.198 -27.5652 110.933 -25.287 119.399L-25.2864 119.401C-20.0546 139.063 -4.57404 145.098 13.351 152.085C23.599 156.08 35.2138 160.607 46.0958 168.253L46.1881 168.332C50.7374 172.997 50.2276 179.172 44.6724 186.684C37.8938 195.852 23.8494 206.829 2.92915 219.313C-15.3417 230.215 -37.8011 241.601 -62.0206 252.239C-97.1722 267.678 -138.256 282.25 -155.415 282.25ZM-176.276 277.271C-169.899 277.271 -164.53 277.982 -160.887 280.02C-152.344 284.499 -110.979 272.31 -62.5446 251.036C0.793167 223.217 33.8273 199.15 43.6225 185.902C48.7185 179.01 49.2813 173.423 45.296 169.293C34.5594 161.76 23.5371 157.463 12.8778 153.308C-5.37929 146.191 -21.1463 140.045 -26.5496 119.74C-28.7464 111.575 -32.9936 106.284 -39.5342 103.566C-57.1185 96.2606 -91.1843 107.793 -146.736 139.863C-156.344 148.586 -173.832 157.188 -186.159 162.903C-215.261 179.748 -242.336 238.962 -245.336 263.363L-245.358 263.468C-246.943 268.849 -246.585 272.826 -244.264 275.625C-238.108 283.05 -218.917 281.023 -200.356 279.064C-191.745 278.154 -183.385 277.271 -176.276 277.271Z" fill="url(#paint6_linear_44_6)"/>
</mask>
<g mask="url(#mask6_44_6)">
<path d="M-155.415 282.25C-158.044 282.25 -160.11 281.908 -161.508 281.175C-168.864 277.057 -184.804 278.74 -200.219 280.369C-219.12 282.365 -238.666 284.43 -245.269 276.464C-247.847 273.356 -248.303 268.876 -246.627 263.148C-243.566 238.492 -216.218 178.788 -186.76 161.739C-174.435 156.022 -157.026 147.462 -147.562 138.844L-147.449 138.761C-91.481 106.443 -57.0318 94.8738 -39.0339 102.354C-32.1902 105.198 -27.5652 110.933 -25.287 119.399L-25.2864 119.401C-20.0546 139.063 -4.57404 145.098 13.351 152.085C23.599 156.08 35.2138 160.607 46.0958 168.253L46.1881 168.332C50.7374 172.997 50.2276 179.172 44.6724 186.684C37.8938 195.852 23.8494 206.829 2.92915 219.313C-15.3417 230.215 -37.8011 241.601 -62.0206 252.239C-97.1722 267.678 -138.256 282.25 -155.415 282.25ZM-176.276 277.271C-169.899 277.271 -164.53 277.982 -160.887 280.02C-152.344 284.499 -110.979 272.31 -62.5446 251.036C0.793167 223.217 33.8273 199.15 43.6225 185.902C48.7185 179.01 49.2813 173.423 45.296 169.293C34.5594 161.76 23.5371 157.463 12.8778 153.308C-5.37929 146.191 -21.1463 140.045 -26.5496 119.74C-28.7464 111.575 -32.9936 106.284 -39.5342 103.566C-57.1185 96.2606 -91.1843 107.793 -146.736 139.863C-156.344 148.586 -173.832 157.188 -186.159 162.903C-215.261 179.748 -242.336 238.962 -245.336 263.363L-245.358 263.468C-246.943 268.849 -246.585 272.826 -244.264 275.625C-238.108 283.05 -218.917 281.023 -200.356 279.064C-191.745 278.154 -183.385 277.271 -176.276 277.271Z" fill="#005E9E"/>
</g>
<mask id="mask7_44_6" style="mask-type:alpha" maskUnits="userSpaceOnUse" x="-228" y="116" width="244" height="160">
<path d="M-207.373 275.761C-215.295 275.761 -221.819 274.613 -224.997 270.864C-227.164 268.307 -227.645 264.671 -226.426 260.055C-225.663 238.858 -205.651 179.53 -180.607 166.267L-180.543 166.238C-163.873 159.797 -152.022 153.065 -145.321 146.23L-145.202 146.136C-103.442 121.229 -74.1977 111.871 -58.2771 118.326C-51.67 121.005 -47.2156 126.417 -45.0379 134.411L-45.0371 134.413C-40.5972 150.949 -27.9207 156.37 -13.243 162.648C-5.06303 166.147 4.20831 170.113 12.8751 176.482L12.9764 176.576C17.1071 181.458 16.3665 187.74 10.7746 195.248C-0.629379 210.56 -32.9448 231.3 -75.6692 250.725C-93.5708 258.865 -111.339 265.797 -125.7 270.243C-136.313 273.529 -150.015 276.98 -155.021 274.75C-161.237 271.707 -174.135 273.022 -186.609 274.293C-193.757 275.021 -201.016 275.761 -207.373 275.761ZM-180.086 167.334C-194.604 175.047 -206.067 197.896 -211.61 210.836C-219.255 228.685 -224.863 248.969 -225.246 260.163L-225.266 260.297C-226.416 264.604 -226.033 267.808 -224.096 270.094C-218.772 276.376 -202.482 274.717 -186.729 273.112C-173.508 271.764 -161.021 270.492 -154.523 273.674C-139.029 280.57 -15.9981 229.213 9.82733 194.537C15.0234 187.561 15.7941 181.794 12.1194 177.398C3.58037 171.135 -5.20705 167.376 -13.7067 163.741C-28.6683 157.341 -41.5895 151.815 -46.1794 134.722C-48.2548 127.106 -52.4742 121.959 -58.7201 119.427C-74.2696 113.122 -103.143 122.44 -144.532 147.118C-151.357 154.051 -163.319 160.852 -180.086 167.334Z" fill="url(#paint7_linear_44_6)"/>
</mask>
<g mask="url(#mask7_44_6)">
<path d="M-207.373 275.761C-215.295 275.761 -221.819 274.613 -224.997 270.864C-227.164 268.307 -227.645 264.671 -226.426 260.055C-225.663 238.858 -205.651 179.53 -180.607 166.267L-180.543 166.238C-163.873 159.797 -152.022 153.065 -145.321 146.23L-145.202 146.136C-103.442 121.229 -74.1977 111.871 -58.2771 118.326C-51.67 121.005 -47.2156 126.417 -45.0379 134.411L-45.0371 134.413C-40.5972 150.949 -27.9207 156.37 -13.243 162.648C-5.06303 166.147 4.20831 170.113 12.8751 176.482L12.9764 176.576C17.1071 181.458 16.3665 187.74 10.7746 195.248C-0.629379 210.56 -32.9448 231.3 -75.6692 250.725C-93.5708 258.865 -111.339 265.797 -125.7 270.243C-136.313 273.529 -150.015 276.98 -155.021 274.75C-161.237 271.707 -174.135 273.022 -186.609 274.293C-193.757 275.021 -201.016 275.761 -207.373 275.761ZM-180.086 167.334C-194.604 175.047 -206.067 197.896 -211.61 210.836C-219.255 228.685 -224.863 248.969 -225.246 260.163L-225.266 260.297C-226.416 264.604 -226.033 267.808 -224.096 270.094C-218.772 276.376 -202.482 274.717 -186.729 273.112C-173.508 271.764 -161.021 270.492 -154.523 273.674C-139.029 280.57 -15.9981 229.213 9.82733 194.537C15.0234 187.561 15.7941 181.794 12.1194 177.398C3.58037 171.135 -5.20705 167.376 -13.7067 163.741C-28.6683 157.341 -41.5895 151.815 -46.1794 134.722C-48.2548 127.106 -52.4742 121.959 -58.7201 119.427C-74.2696 113.122 -103.143 122.44 -144.532 147.118C-151.357 154.051 -163.319 160.852 -180.086 167.334Z" fill="#005E9E"/>
</g>
<defs>
<linearGradient id="paint0_linear_44_6" x1="-371" y1="161.97" x2="251.189" y2="161.97" gradientUnits="userSpaceOnUse">
<stop stop-color="white"/>
<stop offset="0.0436152" stop-color="#B4B4B4"/>
<stop offset="0.150732"/>
<stop offset="0.171421" stop-color="#171717"/>
<stop offset="0.385884" stop-color="white"/>
<stop offset="0.632551" stop-color="#E6E6E6"/>
<stop offset="0.856667" stop-color="#1A1A1A"/>
<stop offset="0.998739"/>
</linearGradient>
<linearGradient id="paint1_linear_44_6" x1="-350.433" y1="166.898" x2="217.53" y2="166.898" gradientUnits="userSpaceOnUse">
<stop stop-color="white"/>
<stop offset="0.0436152" stop-color="#B4B4B4"/>
<stop offset="0.150732"/>
<stop offset="0.171421" stop-color="#171717"/>
<stop offset="0.385884" stop-color="white"/>
<stop offset="0.632551" stop-color="#E6E6E6"/>
<stop offset="0.856667" stop-color="#1A1A1A"/>
<stop offset="0.998739"/>
</linearGradient>
<linearGradient id="paint2_linear_44_6" x1="-329.867" y1="171.828" x2="183.836" y2="171.828" gradientUnits="userSpaceOnUse">
<stop stop-color="white"/>
<stop offset="0.0436152" stop-color="#B4B4B4"/>
<stop offset="0.150732"/>
<stop offset="0.171421" stop-color="#171717"/>
<stop offset="0.385884" stop-color="white"/>
<stop offset="0.632551" stop-color="#E6E6E6"/>
<stop offset="0.856667" stop-color="#1A1A1A"/>
<stop offset="0.998739"/>
</linearGradient>
<linearGradient id="paint3_linear_44_6" x1="-309.303" y1="176.69" x2="150.235" y2="176.69" gradientUnits="userSpaceOnUse">
<stop stop-color="white"/>
<stop offset="0.0436152" stop-color="#B4B4B4"/>
<stop offset="0.150732"/>
<stop offset="0.171421" stop-color="#171717"/>
<stop offset="0.385884" stop-color="white"/>
<stop offset="0.632551" stop-color="#E6E6E6"/>
<stop offset="0.856667" stop-color="#1A1A1A"/>
<stop offset="0.998739"/>
</linearGradient>
<linearGradient id="paint4_linear_44_6" x1="-288.743" y1="181.55" x2="116.577" y2="181.55" gradientUnits="userSpaceOnUse">
<stop stop-color="white"/>
<stop offset="0.0436152" stop-color="#B4B4B4"/>
<stop offset="0.150732"/>
<stop offset="0.171421" stop-color="#171717"/>
<stop offset="0.385884" stop-color="white"/>
<stop offset="0.632551" stop-color="#E6E6E6"/>
<stop offset="0.856667" stop-color="#1A1A1A"/>
<stop offset="0.998739"/>
</linearGradient>
<linearGradient id="paint5_linear_44_6" x1="-268.187" y1="186.408" x2="82.9155" y2="186.408" gradientUnits="userSpaceOnUse">
<stop stop-color="white"/>
<stop offset="0.0436152" stop-color="#B4B4B4"/>
<stop offset="0.150732"/>
<stop offset="0.171421" stop-color="#171717"/>
<stop offset="0.385884" stop-color="white"/>
<stop offset="0.632551" stop-color="#E6E6E6"/>
<stop offset="0.856667" stop-color="#1A1A1A"/>
<stop offset="0.998739"/>
</linearGradient>
<linearGradient id="paint6_linear_44_6" x1="-247.616" y1="191.207" x2="49.2576" y2="191.207" gradientUnits="userSpaceOnUse">
<stop stop-color="white"/>
<stop offset="0.0436152" stop-color="#B4B4B4"/>
<stop offset="0.150732"/>
<stop offset="0.171421" stop-color="#171717"/>
<stop offset="0.385884" stop-color="white"/>
<stop offset="0.632551" stop-color="#E6E6E6"/>
<stop offset="0.856667" stop-color="#1A1A1A"/>
<stop offset="0.998739"/>
</linearGradient>
<linearGradient id="paint7_linear_44_6" x1="-227.082" y1="196.054" x2="15.605" y2="196.054" gradientUnits="userSpaceOnUse">
<stop stop-color="white"/>
<stop offset="0.0436152" stop-color="#B4B4B4"/>
<stop offset="0.150732"/>
<stop offset="0.171421" stop-color="#171717"/>
<stop offset="0.385884" stop-color="white"/>
<stop offset="0.632551" stop-color="#E6E6E6"/>
<stop offset="0.856667" stop-color="#1A1A1A"/>
<stop offset="0.998739"/>
</linearGradient>
</defs>
</svg>
