<svg width="184" height="89" viewBox="0 0 184 89" fill="none" xmlns="http://www.w3.org/2000/svg">
<g opacity="0.2">
<mask id="mask0_48_113" style="mask-type:alpha" maskUnits="userSpaceOnUse" x="-98" y="-69" width="275" height="132">
<path d="M-84.6724 62.1494C-90.7903 61.5076 -94.6684 59.6406 -96.2713 56.5498C-98.327 52.5859 -96.6186 46.6624 -91.1935 38.9435C-85.3119 30.5753 -74.8812 19.8036 -60.1907 6.92773C-40.7411 -10.1195 -21.9122 -24.3971 -4.22681 -35.5086C11.1363 -45.161 26.1228 -52.7246 40.3166 -57.9889C65.1682 -67.2063 84.2618 -68.3311 101.193 -68.1734C119.342 -68.0047 134.69 -64.148 146.808 -56.7108C157.346 -50.2437 165.27 -41.2298 170.358 -29.9192C180.962 -6.35054 176.545 21.8864 166.149 35.5691C161.272 41.9876 155.349 44.8026 149.473 43.4952C124.592 37.9601 102.332 34.8302 81.418 33.9275C52.5998 32.6831 26.6812 35.8109 4.38232 43.2237C-11.5583 48.5231 -34.8467 55.6647 -55.2672 59.5942C-67.9097 62.0269 -77.7323 62.8774 -84.6724 62.1494ZM101.184 -67.6475L101.174 -67.1216C84.3355 -67.2782 65.3479 -66.1602 40.644 -56.9977C26.5141 -51.757 11.5894 -44.224 -3.71563 -34.608C-21.3555 -23.5249 -40.141 -9.27983 -59.5497 7.73154C-74.1779 20.5528 -84.5527 31.262 -90.3857 39.5615C-95.5585 46.9213 -97.241 52.4657 -95.3871 56.0408C-92.2386 62.1114 -78.4252 62.9822 -55.4395 58.5595C-35.0709 54.64 -11.8263 47.5114 4.08629 42.2214C26.4979 34.7711 52.533 31.6269 81.469 32.8764C102.439 33.7818 124.755 36.9187 149.691 42.4659C155.176 43.6858 160.74 41.0054 165.365 34.9192C175.568 21.4897 179.885 -6.26447 169.448 -29.4635C164.446 -40.5811 156.656 -49.4426 146.294 -55.8021C134.327 -63.1458 119.148 -66.9549 101.174 -67.1216L101.184 -67.6475Z" fill="url(#paint0_linear_48_113)"/>
</mask>
<g mask="url(#mask0_48_113)">
<path d="M-84.6743 62.1494C-90.7923 61.5076 -94.6704 59.6406 -96.2733 56.5498C-98.3289 52.5859 -96.6205 46.6624 -91.1954 38.9435C-85.3138 30.5753 -74.8831 19.8036 -60.1927 6.92773C-40.743 -10.1195 -21.9141 -24.3971 -4.22876 -35.5086C11.1344 -45.161 26.1208 -52.7246 40.3147 -57.9889C65.1663 -67.2063 84.2598 -68.3311 101.192 -68.1734C119.34 -68.0047 134.688 -64.148 146.807 -56.7108C157.344 -50.2437 165.268 -41.2298 170.356 -29.9192C180.96 -6.35054 176.543 21.8864 166.147 35.5691C161.27 41.9876 155.347 44.8026 149.472 43.4952C124.59 37.9601 102.33 34.8302 81.416 33.9275C52.5979 32.6831 26.6792 35.8109 4.38036 43.2237C-11.5603 48.5231 -34.8486 55.6647 -55.2692 59.5942C-67.9116 62.0269 -77.7343 62.8774 -84.6743 62.1494ZM101.182 -67.6475L101.173 -67.1216C84.3336 -67.2782 65.3459 -66.1602 40.6421 -56.9977C26.5122 -51.757 11.5875 -44.224 -3.71758 -34.608C-21.3575 -23.5249 -40.1429 -9.27983 -59.5517 7.73154C-74.1798 20.5528 -84.5546 31.262 -90.3877 39.5615C-95.5605 46.9213 -97.2429 52.4657 -95.389 56.0408C-92.2405 62.1114 -78.4272 62.9822 -55.4415 58.5595C-35.0729 54.64 -11.8283 47.5114 4.08434 42.2214C26.496 34.7711 52.531 31.6269 81.4671 32.8764C102.437 33.7818 124.753 36.9187 149.689 42.4659C155.174 43.6858 160.738 41.0054 165.363 34.9192C175.566 21.4897 179.883 -6.26447 169.446 -29.4635C164.444 -40.5811 156.654 -49.4426 146.292 -55.8021C134.325 -63.1458 119.146 -66.9549 101.173 -67.1216L101.182 -67.6475Z" fill="#005E9E"/>
</g>
<mask id="mask1_48_113" style="mask-type:alpha" maskUnits="userSpaceOnUse" x="-87" y="-64" width="255" height="120">
<path d="M-75.0689 54.9217C-80.7003 54.331 -84.2632 52.6125 -85.7211 49.7693C-89.647 42.1136 -78.7167 27.1842 -52.3055 4.12757C-17.7377 -25.2894 14.5831 -45.2388 43.7632 -55.1708C67.4458 -63.2316 85.1097 -63.6691 100.67 -62.9414C116.782 -62.6401 130.4 -59.1473 141.137 -52.5593C150.519 -46.8031 157.554 -38.82 162.047 -28.832C165.143 -21.9477 168.521 -10.6659 167.027 3.98393C165.965 14.392 162.518 24.1649 157.569 30.7967C152.574 37.4886 146.481 40.4947 140.409 39.2616C94.9661 30.6711 47.0364 24.624 4.43077 38.4325C-10.0432 43.1228 -31.0698 49.4185 -49.0435 52.7759C-60.1855 54.8571 -68.8776 55.5712 -75.0689 54.9217ZM109.995 -61.388C106.978 -61.7045 103.856 -61.8934 100.632 -61.9535C85.1474 -62.6777 67.5858 -62.2429 44.0473 -54.2312C14.9795 -44.3375 -17.2379 -24.4469 -51.7095 4.88807C-65.2207 16.6831 -74.8124 26.5353 -80.2137 34.1668C-84.9976 40.9255 -86.5702 46.0154 -84.8882 49.2953C-82.0392 54.8506 -70.0317 55.694 -49.2009 51.803C-31.2748 48.4547 -10.2889 42.1707 4.15954 37.4888C46.9595 23.617 95.0242 29.6759 140.591 38.2901C146.305 39.4507 152.065 36.5739 156.827 30.193C161.67 23.7043 165.045 14.1166 166.088 3.88851C166.9 -4.07238 166.709 -16.1368 161.192 -28.4041C156.781 -38.2108 149.871 -46.0505 140.654 -51.7056C132.197 -56.8939 121.914 -60.1376 109.995 -61.388Z" fill="url(#paint1_linear_48_113)"/>
</mask>
<g mask="url(#mask1_48_113)">
<path d="M-75.0728 54.9217C-80.7042 54.331 -84.2671 52.6125 -85.725 49.7693C-89.6509 42.1136 -78.7206 27.1842 -52.3094 4.12757C-17.7416 -25.2894 14.5792 -45.2388 43.7593 -55.1708C67.4419 -63.2316 85.1058 -63.6691 100.666 -62.9414C116.778 -62.6401 130.396 -59.1473 141.133 -52.5593C150.515 -46.8031 157.55 -38.82 162.043 -28.832C165.139 -21.9477 168.517 -10.6659 167.023 3.98393C165.962 14.392 162.514 24.1649 157.565 30.7967C152.571 37.4886 146.477 40.4947 140.405 39.2616C94.9622 30.6711 47.0325 24.624 4.42687 38.4325C-10.0471 43.1228 -31.0737 49.4185 -49.0474 52.7759C-60.1894 54.8571 -68.8815 55.5712 -75.0728 54.9217ZM109.991 -61.388C106.974 -61.7045 103.852 -61.8934 100.628 -61.9535C85.1435 -62.6777 67.5819 -62.2429 44.0434 -54.2312C14.9756 -44.3375 -17.2418 -24.4469 -51.7134 4.88807C-65.2246 16.6831 -74.8163 26.5353 -80.2176 34.1668C-85.0015 40.9255 -86.5741 46.0154 -84.8921 49.2953C-82.0431 54.8506 -70.0356 55.694 -49.2048 51.803C-31.2787 48.4547 -10.2928 42.1707 4.15564 37.4888C46.9556 23.617 95.0203 29.6759 140.587 38.2901C146.301 39.4507 152.061 36.5739 156.823 30.193C161.666 23.7043 165.041 14.1166 166.084 3.88851C166.896 -4.07238 166.706 -16.1368 161.188 -28.4041C156.777 -38.2108 149.867 -46.0505 140.65 -51.7056C132.193 -56.8939 121.911 -60.1376 109.991 -61.388Z" fill="#005E9E"/>
</g>
<mask id="mask2_48_113" style="mask-type:alpha" maskUnits="userSpaceOnUse" x="-76" y="-59" width="235" height="107">
<path d="M-65.5036 47.7035C-70.6543 47.1632 -73.9016 45.5932 -75.2153 42.9955C-78.7484 36.009 -68.6864 22.3791 -44.4546 1.32655C-11.5746 -25.7336 19.2509 -43.7915 47.1755 -52.353C69.895 -59.3185 86.6861 -58.9692 100.115 -57.7088C114.209 -57.2824 126.122 -54.1457 135.496 -48.3836C143.731 -43.3213 149.883 -36.3466 153.783 -27.6531C157.696 -18.9329 159.145 -8.86642 157.976 1.45806C156.909 10.8793 153.755 19.5709 149.094 25.9318C143.951 32.9512 137.637 36.1801 131.309 35.0271L127.795 34.4759C108.913 31.5106 87.5112 28.1496 66.4034 27.1548C42.2472 26.0162 21.9801 28.1378 4.44448 33.6407C-14.4774 39.5761 -30.3929 43.7215 -42.8597 45.9621C-52.5006 47.6947 -60.0635 48.2742 -65.5036 47.7035ZM107.381 -56.2991C105.011 -56.5477 102.568 -56.7102 100.054 -56.7861C86.6814 -58.0405 69.9937 -58.3879 47.4162 -51.466C19.6013 -42.938 -11.1231 -24.9349 -43.9034 2.0434C-67.4199 22.4746 -77.6951 36.1078 -74.4337 42.5567C-71.9287 47.5103 -61.3538 48.3494 -43.0012 45.051C-30.5693 42.8168 -14.6892 38.6799 4.19867 32.7553C21.8312 27.2218 42.1943 25.0878 66.4516 26.231C87.6058 27.2282 109.031 30.5926 127.934 33.5616L131.458 34.1145C137.457 35.2042 143.465 32.1031 148.395 25.3735C152.893 19.2345 156.066 10.4811 157.099 1.35801C158.249 -8.79512 156.826 -18.6888 152.983 -27.2536C149.159 -35.7774 143.123 -42.6178 135.043 -47.5852C127.461 -52.2458 118.181 -55.1661 107.381 -56.2991Z" fill="url(#paint2_linear_48_113)"/>
</mask>
<g mask="url(#mask2_48_113)">
<path d="M-65.4978 47.7045C-70.6485 47.1642 -73.8958 45.5942 -75.2095 42.9965C-78.7426 36.01 -68.6806 22.3801 -44.4488 1.32753C-11.5688 -25.7326 19.2568 -43.7905 47.1814 -52.352C69.9009 -59.3175 86.692 -58.9682 100.121 -57.7078C114.215 -57.2814 126.128 -54.1447 135.501 -48.3827C143.736 -43.3203 149.889 -36.3457 153.789 -27.6521C157.702 -18.932 159.151 -8.86544 157.982 1.45904C156.915 10.8802 153.761 19.5719 149.1 25.9328C143.957 32.9521 137.643 36.1811 131.315 35.0281L127.801 34.4769C108.919 31.5116 87.517 28.1506 66.4092 27.1557C42.2531 26.0172 21.9859 28.1388 4.45034 33.6416C-14.4715 39.577 -30.387 43.7225 -42.8538 45.9631C-52.4948 47.6957 -60.0576 48.2752 -65.4978 47.7045ZM107.387 -56.2981C105.017 -56.5467 102.574 -56.7092 100.06 -56.7852C86.6873 -58.0396 69.9996 -58.387 47.4221 -51.465C19.6072 -42.937 -11.1173 -24.9339 -43.8975 2.04438C-67.4141 22.4755 -77.6892 36.1088 -74.4279 42.5577C-71.9228 47.5113 -61.3479 48.3503 -42.9953 45.052C-30.5634 42.8177 -14.6833 38.6808 4.20453 32.7563C21.8371 27.2228 42.2001 25.0888 66.4575 26.232C87.6117 27.2291 109.037 30.5936 127.94 33.5625L131.464 34.1155C137.463 35.2052 143.47 32.1041 148.401 25.3745C152.899 19.2355 156.071 10.482 157.105 1.35898C158.255 -8.79414 156.832 -18.6879 152.989 -27.2526C149.165 -35.7764 143.129 -42.6169 135.049 -47.5842C127.467 -52.2448 118.187 -55.1652 107.387 -56.2981Z" fill="#005E9E"/>
</g>
<mask id="mask3_48_113" style="mask-type:alpha" maskUnits="userSpaceOnUse" x="-66" y="-54" width="216" height="95">
<path d="M-55.9391 40.5412C-60.6016 40.0521 -63.5049 38.6157 -64.6876 36.2353C-67.8266 29.9158 -58.6286 17.582 -36.5675 -1.47068C-5.35433 -26.196 23.9766 -42.3619 50.624 -49.5309C72.6146 -55.4472 88.3359 -54.2143 99.5772 -52.4744C128.623 -51.1664 140.668 -37.5559 145.657 -26.366C149.026 -18.8083 150.205 -10.0464 149.066 -1.02692C148.024 7.2216 145.102 15.0304 140.837 20.9611C135.585 28.2638 128.8 31.85 122.245 30.7961C117.419 30.1929 112.456 29.535 107.656 28.899C72.396 24.2275 35.9351 19.3961 4.49438 28.8526L4.49407 28.8526C-25.2252 37.7842 -45.2244 41.6652 -55.9391 40.5412ZM93.0898 -52.4565C82.5589 -53.5612 68.8014 -53.5345 50.8216 -48.6973C24.2812 -41.5572 -4.95047 -25.4414 -36.0614 -0.79747C-57.459 17.6827 -66.8491 30.0104 -63.957 35.8324C-61.7953 40.1846 -52.6488 41.0182 -36.7712 38.3094C-26.1486 36.4974 -12.7223 33.1336 4.27438 28.0255L4.27406 28.0254C35.8784 18.5197 72.4252 23.3625 107.767 28.0451C112.566 28.681 117.527 29.3384 122.364 29.9433C128.724 30.96 135.046 27.5897 140.182 20.4477C144.362 14.6349 147.227 6.97114 148.251 -1.13154C149.369 -9.9883 148.214 -18.5861 144.911 -25.9959C140.016 -36.9751 128.167 -50.331 99.5127 -51.6154L99.4911 -51.6163L99.4701 -51.6196C97.4876 -51.9265 95.3635 -52.218 93.0898 -52.4565Z" fill="url(#paint3_linear_48_113)"/>
</mask>
<g mask="url(#mask3_48_113)">
<path d="M-55.9372 40.5408C-60.5997 40.0517 -63.503 38.6152 -64.6856 36.2348C-67.8246 29.9153 -58.6266 17.5815 -36.5656 -1.47117C-5.35237 -26.1965 23.9786 -42.3623 50.626 -49.5314C72.6166 -55.4476 88.3378 -54.2148 99.5791 -52.4748C128.625 -51.1669 140.67 -37.5564 145.659 -26.3665C149.028 -18.8088 150.207 -10.0469 149.068 -1.02741C148.026 7.22111 145.104 15.0299 140.839 20.9606C135.587 28.2633 128.802 31.8495 122.247 30.7956C117.421 30.1924 112.458 29.5346 107.658 28.8985C72.3979 24.227 35.9371 19.3956 4.49634 28.8521L4.49602 28.8521C-25.2232 37.7837 -45.2225 41.6647 -55.9372 40.5408ZM93.0918 -52.457C82.5608 -53.5617 68.8033 -53.535 50.8236 -48.6978C24.2831 -41.5577 -4.94852 -25.4418 -36.0595 -0.797958C-57.457 17.6822 -66.8472 30.0099 -63.9551 35.8319C-61.7933 40.1841 -52.6468 41.0177 -36.7692 38.3089C-26.1467 36.4969 -12.7204 33.1331 4.27633 28.025L4.27602 28.025C35.8804 18.5192 72.4271 23.362 107.769 28.0447C112.568 28.6805 117.529 29.338 122.366 29.9428C128.726 30.9595 135.048 27.5892 140.184 20.4473C144.364 14.6344 147.229 6.97065 148.253 -1.13203C149.371 -9.98878 148.216 -18.5866 144.913 -25.9963C140.018 -36.9756 128.169 -50.3315 99.5147 -51.6159L99.4931 -51.6168L99.4721 -51.6201C97.4896 -51.927 95.3655 -52.2184 93.0918 -52.457Z" fill="#005E9E"/>
</g>
<mask id="mask4_48_113" style="mask-type:alpha" maskUnits="userSpaceOnUse" x="-55" y="-50" width="196" height="84">
<path d="M-46.3214 33.3716C-50.2915 32.9552 -53.0817 31.7511 -54.1815 29.4842C-56.9256 23.8281 -48.5847 12.7859 -28.682 -4.27363C0.888929 -26.6864 28.7249 -40.9605 54.071 -46.714C70.2826 -50.394 84.9973 -50.5673 99.0531 -47.244C123.529 -45.6777 133.557 -34.2643 137.653 -24.9651C140.466 -18.5778 141.379 -11.1424 140.293 -3.46299C139.298 3.57827 136.642 10.4404 132.815 15.8593C127.465 23.4379 120.507 27.3346 113.658 26.6166C113.498 26.5998 113.339 26.5808 113.179 26.5588C104.881 25.7759 96.6447 24.8291 88.6802 23.9137C58.0735 20.3956 29.1642 17.0732 4.5418 24.0588L4.54148 24.0588C-14.0563 29.3282 -34.9897 34.5603 -46.3214 33.3716ZM87.9313 -48.3263C77.2914 -49.4425 66.1704 -48.6467 54.2254 -45.9353C28.984 -40.2053 1.24485 -25.9767 -28.2213 -3.64448C-47.5121 12.8918 -56.0241 23.9195 -53.5019 29.1179C-48.9966 38.4029 -10.2409 27.4233 4.34925 23.2897C29.111 16.2646 58.0891 19.5954 88.7706 23.1214C96.7304 24.0363 104.963 24.9825 113.27 25.7669C120.004 26.69 126.9 22.9029 132.205 15.3896C135.957 10.075 138.562 3.34094 139.54 -3.57216C140.604 -11.0983 139.712 -18.3785 136.961 -24.6257C132.949 -33.7337 123.103 -44.9164 98.9685 -46.4504L98.9379 -46.4524L98.908 -46.4594C95.2986 -47.3144 91.6438 -47.9369 87.9313 -48.3263Z" fill="url(#paint4_linear_48_113)"/>
</mask>
<g mask="url(#mask4_48_113)">
<path d="M-46.3234 33.3724C-50.2934 32.9559 -53.0837 31.7518 -54.1834 29.4849C-56.9275 23.8288 -48.5867 12.7866 -28.684 -4.2729C0.886976 -26.6856 28.7229 -40.9597 54.069 -46.7133C70.2807 -50.3933 84.9953 -50.5665 99.0512 -47.2433C123.527 -45.677 133.555 -34.2636 137.651 -24.9644C140.464 -18.5771 141.377 -11.1417 140.291 -3.46225C139.296 3.579 136.64 10.4411 132.814 15.8601C127.463 23.4386 120.505 27.3353 113.656 26.6173C113.496 26.6005 113.337 26.5815 113.177 26.5595C104.879 25.7767 96.6427 24.8298 88.6783 23.9145C58.0716 20.3963 29.1623 17.074 4.53984 24.0596L4.53953 24.0595C-14.0583 29.3289 -34.9917 34.5611 -46.3234 33.3724ZM87.9293 -48.3256C77.2894 -49.4417 66.1684 -48.646 54.2234 -45.9345C28.982 -40.2046 1.2429 -25.976 -28.2233 -3.64374C-47.514 12.8925 -56.026 23.9202 -53.5038 29.1186C-48.9986 38.4036 -10.2428 27.4241 4.34729 23.2904C29.109 16.2653 58.0871 19.5961 88.7686 23.1221C96.7285 24.037 104.961 24.9833 113.268 25.7676C120.002 26.6907 126.898 22.9036 132.203 15.3904C135.955 10.0757 138.56 3.34168 139.538 -3.57143C140.602 -11.0976 139.71 -18.3778 136.959 -24.6249C132.947 -33.7329 123.101 -44.9157 98.9666 -46.4496L98.9359 -46.4516L98.9061 -46.4587C95.2966 -47.3136 91.6418 -47.9361 87.9293 -48.3256Z" fill="#005E9E"/>
</g>
<mask id="mask5_48_113" style="mask-type:alpha" maskUnits="userSpaceOnUse" x="-45" y="-46" width="178" height="73">
<path d="M-36.8198 26.2118C-40.343 25.8422 -42.7705 24.7696 -43.7142 22.7596C-46.0607 17.7619 -38.5664 8.00369 -20.8038 -7.07301C7.15284 -27.1955 33.4938 -39.5775 57.5103 -43.8924C77.0229 -47.398 90.5779 -44.8072 98.5243 -42.0086C118.515 -40.2084 126.573 -30.9105 129.801 -23.4222C134.209 -13.1936 132.365 0.173409 125.102 10.6318C119.465 18.7489 111.658 23.1176 104.2 22.3357C104.168 22.3324 104.137 22.329 104.105 22.3254C92.2406 21.5591 81.2389 20.4218 70.5993 19.322C45.1629 16.6926 23.1956 14.4218 4.58055 19.2694C-11.9863 23.5742 -27.9052 27.147 -36.8198 26.2118ZM84.0706 -44.3921C63.9944 -46.4981 28.9974 -42.0318 -20.3881 -6.48771C-37.5913 8.11546 -45.2351 17.8511 -43.0848 22.4312C-39.5391 29.9808 -9.85016 22.2655 4.41783 18.5578L4.41781 18.5579C23.1505 13.6797 45.1737 15.9562 70.6749 18.5923C81.3079 19.6914 92.3032 20.8282 104.17 21.5948C104.201 21.5982 104.231 21.6016 104.261 21.6048C111.482 22.3622 119.049 18.1063 124.537 10.2046C131.653 -0.0431426 133.469 -13.1221 129.162 -23.1155C126.008 -30.4323 118.111 -39.5298 98.4161 -41.2816L98.3741 -41.2853L98.3345 -41.2995C94.9996 -42.477 90.2372 -43.7452 84.0706 -44.3921Z" fill="url(#paint5_linear_48_113)"/>
</mask>
<g mask="url(#mask5_48_113)">
<path d="M-36.8237 26.2116C-40.3469 25.842 -42.7744 24.7693 -43.7181 22.7594C-46.0646 17.7616 -38.5703 8.00344 -20.8077 -7.07326C7.14893 -27.1958 33.4899 -39.5777 57.5064 -43.8926C77.019 -47.3982 90.574 -44.8074 98.5204 -42.0088C118.512 -40.2087 126.57 -30.9108 129.797 -23.4224C134.205 -13.1938 132.361 0.173164 125.098 10.6316C119.461 18.7486 111.654 23.1173 104.196 22.3355C104.164 22.3321 104.133 22.3287 104.101 22.3251C92.2367 21.5589 81.235 20.4215 70.5954 19.3218C45.159 16.6924 23.1917 14.4216 4.57664 19.2691C-11.9902 23.574 -27.9091 27.1467 -36.8237 26.2116ZM84.0667 -44.3923C63.9905 -46.4983 28.9935 -42.032 -20.392 -6.48795C-37.5952 8.11522 -45.2391 17.8508 -43.0887 22.4309C-39.543 29.9806 -9.85407 22.2652 4.41392 18.5575L4.41391 18.5577C23.1466 13.6794 45.1698 15.956 70.671 18.5921C81.304 19.6912 92.2993 20.8279 104.166 21.5946C104.197 21.5979 104.227 21.6013 104.257 21.6045C111.478 22.362 119.045 18.1061 124.533 10.2044C131.649 -0.0433867 133.465 -13.1224 129.158 -23.1157C126.004 -30.4325 118.107 -39.53 98.4122 -41.2818L98.3702 -41.2856L98.3306 -41.2997C94.9957 -42.4772 90.2333 -43.7454 84.0667 -44.3923Z" fill="#005E9E"/>
</g>
<mask id="mask6_48_113" style="mask-type:alpha" maskUnits="userSpaceOnUse" x="-34" y="-42" width="158" height="62">
<path d="M-27.2323 19.0902C-30.2972 18.7687 -32.5039 17.8565 -33.3025 16.0719C-35.2476 11.7239 -28.5835 3.23697 -12.929 -9.87333C13.4442 -27.728 38.2902 -38.2177 60.945 -41.0709C69.3259 -42.1267 77.183 -42.0877 84.2984 -40.9582C91.455 -39.8213 95.9356 -37.859 97.996 -36.7722C107.461 -35.572 114.495 -32.3059 118.904 -27.0643C122.711 -22.5376 124.363 -16.6892 123.68 -10.1512C122.929 -2.95717 119.432 4.34003 114.086 9.86954C108.429 15.722 101.66 18.6416 95.0265 18.0906C79.2408 17.5283 65.468 16.1679 53.3162 14.9674C33.525 13.0124 17.8924 11.4683 4.61357 14.4789L3.79484 14.664C-6.00731 16.8801 -19.4108 19.9107 -27.2323 19.0902ZM80.6377 -40.7637C75.313 -41.3222 68.7828 -41.3846 61.0153 -40.4062C38.4586 -37.5655 13.7047 -27.1105 -12.5589 -9.33228C-27.7061 3.35567 -34.499 11.8124 -32.7227 15.7831C-30.1004 21.6436 -8.96333 16.8647 3.66553 14.0097L4.48429 13.8246C17.8601 10.7919 33.5361 12.3406 53.3825 14.3011C65.5253 15.5005 79.2879 16.86 95.069 17.4225C101.527 17.9585 108.117 15.1076 113.639 9.39561C118.881 3.9736 122.309 -3.1752 123.044 -10.2177C123.707 -16.5645 122.109 -22.236 118.422 -26.6191C114.11 -31.7455 107.192 -34.9401 97.858 -36.1146L97.8022 -36.1215L97.7523 -36.148C95.7231 -37.225 90.0742 -39.7737 80.6377 -40.7637Z" fill="url(#paint6_linear_48_113)"/>
</mask>
<g mask="url(#mask6_48_113)">
<path d="M-27.2342 19.0902C-30.2992 18.7687 -32.5058 17.8565 -33.3044 16.0719C-35.2496 11.7239 -28.5854 3.23697 -12.9309 -9.87333C13.4423 -27.728 38.2883 -38.2177 60.9431 -41.0709C69.3239 -42.1267 77.1811 -42.0877 84.2964 -40.9582C91.453 -39.8213 95.9337 -37.859 97.994 -36.7722C107.459 -35.572 114.493 -32.3059 118.902 -27.0643C122.709 -22.5376 124.361 -16.6892 123.678 -10.1512C122.927 -2.95717 119.43 4.34003 114.085 9.86954C108.427 15.722 101.658 18.6416 95.0246 18.0906C79.2389 17.5283 65.466 16.1679 53.3142 14.9674C33.5231 13.0124 17.8904 11.4683 4.61162 14.4789L3.79289 14.664C-6.00927 16.8801 -19.4128 19.9107 -27.2342 19.0902ZM80.6357 -40.7637C75.311 -41.3222 68.7808 -41.3846 61.0133 -40.4062C38.4566 -37.5655 13.7027 -27.1105 -12.5609 -9.33228C-27.7081 3.35567 -34.501 11.8124 -32.7246 15.7831C-30.1023 21.6436 -8.96529 16.8647 3.66357 14.0097L4.48234 13.8246C17.8581 10.7919 33.5341 12.3406 53.3806 14.3011C65.5233 15.5005 79.286 16.86 95.067 17.4225C101.525 17.9585 108.115 15.1076 113.637 9.39561C118.879 3.9736 122.307 -3.1752 123.042 -10.2177C123.705 -16.5645 122.107 -22.236 118.42 -26.6191C114.108 -31.7455 107.19 -34.9401 97.856 -36.1146L97.8002 -36.1215L97.7504 -36.148C95.7211 -37.225 90.0723 -39.7737 80.6357 -40.7637Z" fill="#005E9E"/>
</g>
<mask id="mask7_48_113" style="mask-type:alpha" maskUnits="userSpaceOnUse" x="-24" y="-39" width="140" height="53">
<path d="M-17.6949 12.1358C-20.3768 11.8544 -22.3154 11.058 -22.9799 9.4558C-24.5203 5.74083 -18.6555 -1.49809 -5.05016 -12.6745L-5.01992 -12.6961C12.0274 -23.4112 37.906 -36.5424 64.3832 -38.2488C72.1715 -38.7508 79.5968 -38.1976 85.8558 -36.6504C90.7799 -35.4325 95.0092 -33.5694 97.4773 -31.5325C115.63 -28.1922 116.29 -16.5993 115.729 -11.7652C115.01 -5.57613 111.283 1.10052 105.758 6.0948C99.8219 11.4611 92.7876 14.217 85.9511 13.8551C65.527 13.7035 49.6619 12.0354 36.9156 10.6939C23.1473 9.24438 13.213 8.20034 4.64764 9.68823L4.64728 9.68836C3.96448 9.80601 3.25636 9.93016 2.52849 10.0576C-4.40698 11.2729 -12.4643 12.6845 -17.6949 12.1358ZM-4.70995 -12.1875C-17.8808 -1.36634 -23.849 5.83298 -22.4487 9.21008C-20.6657 13.5086 -6.76189 11.0722 2.43828 9.4602C3.16645 9.33266 3.87529 9.20842 4.55836 9.0908C13.1997 7.58992 23.1711 8.63812 36.9793 10.0911C49.7178 11.4339 65.5635 13.0981 85.9733 13.2498C92.5752 13.599 99.645 10.8244 105.382 5.63797C110.8 0.740797 114.453 -5.79037 115.154 -11.8326C116.3 -21.7038 109.793 -28.6716 97.3007 -30.949L97.2284 -30.9621L97.1713 -31.01C92.335 -35.0515 80.3299 -38.67 64.4132 -37.6443C49.8663 -36.7068 26.0661 -31.5283 -4.70995 -12.1875Z" fill="url(#paint7_linear_48_113)"/>
</mask>
<g mask="url(#mask7_48_113)">
<path d="M-17.6969 12.1358C-20.3788 11.8544 -22.3173 11.058 -22.9818 9.4558C-24.5222 5.74083 -18.6574 -1.49809 -5.05211 -12.6745L-5.02188 -12.6961C12.0254 -23.4112 37.9041 -36.5424 64.3813 -38.2488C72.1695 -38.7508 79.5949 -38.1976 85.8538 -36.6504C90.7779 -35.4325 95.0073 -33.5694 97.4754 -31.5325C115.628 -28.1922 116.288 -16.5993 115.727 -11.7652C115.009 -5.57613 111.281 1.10052 105.756 6.0948C99.82 11.4611 92.7856 14.217 85.9492 13.8551C65.5251 13.7035 49.66 12.0354 36.9137 10.6939C23.1453 9.24438 13.2111 8.20034 4.64569 9.68823L4.64532 9.68836C3.96253 9.80601 3.25441 9.93016 2.52654 10.0576C-4.40894 11.2729 -12.4662 12.6845 -17.6969 12.1358ZM-4.7119 -12.1875C-17.8828 -1.36634 -23.8509 5.83298 -22.4507 9.21008C-20.6677 13.5086 -6.76384 11.0722 2.43633 9.4602C3.1645 9.33266 3.87333 9.20842 4.55641 9.0908C13.1978 7.58992 23.1691 8.63812 36.9773 10.0911C49.7159 11.4339 65.5616 13.0981 85.9713 13.2498C92.5733 13.599 99.6431 10.8244 105.38 5.63797C110.798 0.740797 114.451 -5.79037 115.152 -11.8326C116.298 -21.7038 109.791 -28.6716 97.2987 -30.949L97.2264 -30.9621L97.1693 -31.01C92.333 -35.0515 80.328 -38.67 64.4113 -37.6443C49.8644 -36.7068 26.0641 -31.5283 -4.7119 -12.1875Z" fill="#005E9E"/>
</g>
<mask id="mask8_48_113" style="mask-type:alpha" maskUnits="userSpaceOnUse" x="-14" y="-36" width="123" height="46">
<path d="M-8.10329 5.40926C-10.5315 5.15454 -12.3376 4.47107 -12.8666 2.99435C-13.4102 1.47764 -12.5377 -0.642678 -10.199 -3.48772C-7.65561 -6.58168 -3.27503 -10.6143 2.82146 -15.4732L2.8544 -15.4956C31.8595 -32.1292 54.1885 -35.5132 67.8125 -35.4229C83.5711 -35.3175 93.9376 -30.6269 96.957 -26.2817C108.085 -23.1184 108.841 -16.3533 108.298 -12.5958C106.808 -2.27529 92.4551 9.93626 76.8663 9.62182C50.4683 10.1502 33.9205 7.90458 21.8377 6.26506C14.4931 5.2684 9.1864 4.54796 4.66548 4.90033L4.66479 4.90026C3.92335 4.95649 3.14778 5.02172 2.35325 5.08857C-1.26273 5.39291 -5.14471 5.71962 -8.10329 5.40926ZM3.11701 -15.0307C-8.17927 -6.02566 -13.3945 -0.0261741 -12.3816 2.79976C-11.343 5.69748 -3.76914 5.06024 2.31686 4.54832C3.11276 4.48128 3.88963 4.41604 4.6327 4.35981C9.2057 4.00341 14.5348 4.72674 21.9092 5.72752C33.9764 7.36463 50.5021 9.60786 76.8712 9.08009C83.7987 9.21961 91.2834 6.69235 97.4165 2.14633C103.188 -2.1316 107.064 -7.67112 107.786 -12.6718C108.681 -18.8704 104.755 -23.5267 96.7294 -25.7831L96.6403 -25.8083L96.5872 -25.8871C94.1878 -29.4416 84.5415 -34.7697 67.8039 -34.8809C54.2441 -34.9708 32.0161 -31.6001 3.11701 -15.0307Z" fill="url(#paint8_linear_48_113)"/>
</mask>
<g mask="url(#mask8_48_113)">
<path d="M-8.10133 5.40877C-10.5295 5.15405 -12.3357 4.47058 -12.8647 2.99387C-13.4083 1.47715 -12.5357 -0.643166 -10.197 -3.48821C-7.65365 -6.58217 -3.27307 -10.6148 2.82341 -15.4737L2.85635 -15.4961C31.8614 -32.1297 54.1905 -35.5137 67.8144 -35.4234C83.573 -35.318 93.9396 -30.6274 96.9589 -26.2822C108.087 -23.1188 108.843 -16.3537 108.3 -12.5963C106.81 -2.27578 92.457 9.93577 76.8682 9.62134C50.4702 10.1497 33.9224 7.90409 21.8397 6.26458C14.495 5.26791 9.18835 4.54747 4.66743 4.89985L4.66674 4.89977C3.9253 4.95601 3.14974 5.02123 2.3552 5.08808C-1.26078 5.39242 -5.14276 5.71913 -8.10133 5.40877ZM3.11896 -15.0312C-8.17732 -6.02615 -13.3925 -0.0266623 -12.3796 2.79927C-11.3411 5.69699 -3.76718 5.05975 2.31881 4.54783C3.11471 4.4808 3.89159 4.41555 4.63466 4.35932C9.20765 4.00292 14.5367 4.72625 21.9112 5.72704C33.9783 7.36415 50.5041 9.60737 76.8731 9.07961C83.8007 9.21912 91.2854 6.69186 97.4184 2.14584C103.19 -2.13209 107.066 -7.67161 107.788 -12.6722C108.683 -18.8709 104.757 -23.5272 96.7314 -25.7836L96.6423 -25.8088L96.5891 -25.8876C94.1898 -29.442 84.5434 -34.7702 67.8059 -34.8814C54.246 -34.9713 32.0181 -31.6006 3.11896 -15.0312Z" fill="#005E9E"/>
</g>
<mask id="mask9_48_113" style="mask-type:alpha" maskUnits="userSpaceOnUse" x="-4" y="-33" width="106" height="39">
<path d="M29.2393 4.72819C19.7114 3.72869 13.7239 2.22881 9.5665 1.18744C7.59226 0.692841 6.03294 0.302239 4.67359 0.102074L4.67264 0.101974C4.31947 0.0484632 3.96091 -0.00314389 3.60135 -0.0548572C0.441105 -0.508638 -2.82633 -0.978 -3.30617 -3.05864C-3.69743 -4.75469 -2.67054 -8.1778 10.7075 -18.2782L10.7417 -18.2996C27.2002 -26.6961 43.1383 -31.5237 58.1135 -32.648C73.8343 -33.8283 83.6414 -30.5251 88.0877 -28.4512C92.6603 -26.3185 95.6984 -23.615 96.4488 -21.0176C101.78 -18.3228 102.272 -14.8432 101.74 -12.3922C100.875 -8.40145 96.5311 -3.95139 90.1207 -0.488651C83.429 3.12606 75.2911 5.26622 67.7935 5.38339C50.7056 6.18233 38.3526 5.68418 29.2393 4.72819ZM4.74166 -0.37135C6.12234 -0.168123 7.691 0.224832 9.67713 0.72222C17.7894 2.75435 32.8894 6.53664 67.7841 4.9054C84.3164 4.64706 99.6319 -4.82414 101.295 -12.4937C102.009 -15.7858 100.232 -18.5998 96.1578 -20.6314L96.065 -20.6777L96.0376 -20.7813C95.3753 -23.2741 92.4087 -25.9103 87.8985 -28.0141C82.92 -30.3364 55.817 -40.7598 10.9564 -17.8792C1.09398 -10.4314 -3.42626 -5.62146 -2.86219 -3.17506C-2.45439 -1.40786 0.657872 -0.960757 3.66751 -0.52859C4.02803 -0.476886 4.3876 -0.425174 4.74166 -0.37135Z" fill="url(#paint9_linear_48_113)"/>
</mask>
<g mask="url(#mask9_48_113)">
<path d="M29.2374 4.72868C19.7094 3.72918 13.722 2.2293 9.56455 1.18793C7.59031 0.693329 6.03099 0.302727 4.67163 0.102562L4.67069 0.102462C4.31751 0.0489514 3.95896 -0.00265561 3.5994 -0.0543689C0.439152 -0.50815 -2.82828 -0.977512 -3.30812 -3.05816C-3.69938 -4.7542 -2.67249 -8.17731 10.7056 -18.2777L10.7397 -18.2991C27.1982 -26.6956 43.1363 -31.5233 58.1115 -32.6475C73.8323 -33.8278 83.6395 -30.5246 88.0858 -28.4508C92.6583 -26.318 95.6964 -23.6145 96.4469 -21.0171C101.778 -18.3223 102.27 -14.8427 101.738 -12.3917C100.873 -8.40096 96.5292 -3.9509 90.1188 -0.488163C83.4271 3.12654 75.2891 5.26671 67.7915 5.38387C50.7037 6.18282 38.3506 5.68467 29.2374 4.72868ZM4.73971 -0.370861C6.12039 -0.167635 7.68905 0.225321 9.67518 0.722708C17.7875 2.75483 32.8875 6.53713 67.7821 4.90589C84.3145 4.64755 99.6299 -4.82365 101.293 -12.4932C102.007 -15.7853 100.23 -18.5993 96.1558 -20.6309L96.063 -20.6772L96.0357 -20.7808C95.3733 -23.2736 92.4068 -25.9098 87.8966 -28.0136C82.918 -30.3359 55.8151 -40.7593 10.9544 -17.8787C1.09203 -10.4309 -3.42821 -5.62098 -2.86414 -3.17457C-2.45634 -1.40737 0.655918 -0.960268 3.66556 -0.528102C4.02608 -0.476398 4.38564 -0.424686 4.73971 -0.370861Z" fill="#005E9E"/>
</g>
<mask id="mask10_48_113" style="mask-type:alpha" maskUnits="userSpaceOnUse" x="3" y="-31" width="95" height="34">
<path d="M21.9771 1.40122C19.8375 1.17677 17.8827 0.894823 16.1115 0.554876C7.38565 -1.11944 5.28506 -3.86362 4.59476 -4.7654L4.59361 -4.76689C3.91012 -5.67696 3.65766 -6.59569 3.82229 -7.57577C4.31595 -10.5172 8.59222 -14.4303 18.5816 -21.0825L18.6119 -21.099C34.25 -27.9277 49.9429 -31.3152 63.9943 -30.8954C79.871 -30.4206 88.188 -25.447 91.0268 -23.3304C94.2939 -20.8948 96.0218 -18.1931 95.902 -15.7126C97.0903 -14.0548 97.3267 -12.396 96.6052 -10.7815C94.8966 -6.95904 88.2677 -4.30568 83.0076 -2.75292C76.1205 -0.719701 67.4885 0.665607 58.7024 1.14792C43.3363 2.26654 31.0224 2.35009 21.9771 1.40122ZM4.90494 -5.0264C9.55951 1.05489 27.6524 2.99314 58.6821 0.734316C74.756 -0.148157 93.3816 -4.54437 96.2469 -10.9541C96.9098 -12.4371 96.6727 -13.9733 95.5424 -15.5199L95.4976 -15.5813L95.5024 -15.6586C95.6529 -18.0123 93.9813 -20.6167 90.7951 -22.9922C78.9102 -31.853 51.3033 -34.921 18.777 -20.7238C9.03404 -14.2345 4.67796 -10.2818 4.21235 -7.5078C4.06627 -6.6386 4.28638 -5.84986 4.9052 -5.02582L4.90494 -5.0264Z" fill="url(#paint10_linear_48_113)"/>
</mask>
<g mask="url(#mask10_48_113)">
<path d="M21.9811 1.40171C19.8414 1.17726 17.8866 0.895312 16.1154 0.555364C7.38956 -1.11895 5.28897 -3.86313 4.59867 -4.76491L4.59751 -4.7664C3.91403 -5.67647 3.66156 -6.59521 3.8262 -7.57528C4.31986 -10.5167 8.59612 -14.4298 18.5855 -21.082L18.6158 -21.0986C34.2539 -27.9272 49.9468 -31.3147 63.9982 -30.8949C79.8749 -30.4201 88.1919 -25.4466 91.0307 -23.3299C94.2978 -20.8944 96.0257 -18.1926 95.9059 -15.7121C97.0942 -14.0543 97.3306 -12.3955 96.6091 -10.781C94.9005 -6.95855 88.2716 -4.30519 83.0115 -2.75243C76.1244 -0.719213 67.4924 0.666095 58.7063 1.14841C43.3402 2.26703 31.0263 2.35058 21.9811 1.40171ZM4.90884 -5.02591C9.56341 1.05538 27.6563 2.99363 58.686 0.734804C74.76 -0.147669 93.3855 -4.54388 96.2508 -10.9536C96.9137 -12.4366 96.6766 -13.9728 95.5464 -15.5194L95.5015 -15.5808L95.5063 -15.6581C95.6569 -18.0118 93.9852 -20.6162 90.799 -22.9917C78.9141 -31.8525 51.3072 -34.9205 18.781 -20.7233C9.03794 -14.234 4.68186 -10.2813 4.21625 -7.50731C4.07018 -6.63812 4.29028 -5.84937 4.9091 -5.02534L4.90884 -5.02591Z" fill="#005E9E"/>
</g>
<mask id="mask11_48_113" style="mask-type:alpha" maskUnits="userSpaceOnUse" x="4" y="-30" width="92" height="29">
<path d="M14.6062 -1.93375C9.04932 -2.51668 5.70928 -3.73879 4.51775 -5.60489C3.7957 -6.73604 3.84338 -8.0875 4.6645 -9.73649C6.06753 -12.5549 10.6163 -15.7182 14.185 -17.8755C18.2631 -20.341 23.0979 -22.7044 26.5019 -23.8967C44.8454 -30.322 59.4204 -30.2326 68.4117 -29.0298C78.8638 -27.63 87.8793 -23.8459 92.5288 -18.9073C95.2148 -16.0546 96.2064 -13.0294 95.3215 -10.3891C93.0962 -3.7512 81.7194 -3.73839 68.546 -3.72349C62.3617 -3.7165 55.9666 -3.70934 49.6307 -3.08728C33.7703 -1.53029 22.1477 -1.14264 14.6062 -1.93375ZM26.5538 -23.7306L26.6054 -23.5644C20.3368 -21.3685 7.35763 -14.3902 4.9614 -9.57682C4.20236 -8.05209 4.14845 -6.81718 4.79686 -5.80159C7.49326 -1.57797 22.5686 -0.782723 49.6028 -3.43643C55.9541 -4.06001 62.3568 -4.0672 68.549 -4.07407C81.5937 -4.08885 92.8597 -4.10155 95.0052 -10.5021C95.846 -13.0097 94.881 -15.9068 92.2891 -18.66C87.6899 -23.5452 78.7467 -27.2916 68.3661 -28.682C59.3989 -29.8829 44.8878 -29.9679 26.6054 -23.5644L26.5538 -23.7306Z" fill="url(#paint11_linear_48_113)"/>
</mask>
<g mask="url(#mask11_48_113)">
</g>
</g>
<defs>
<linearGradient id="paint0_linear_48_113" x1="-90.1986" y1="-13.6244" x2="175.327" y2="14.2297" gradientUnits="userSpaceOnUse">
<stop stop-color="white"/>
<stop offset="0.0436152" stop-color="#B4B4B4"/>
<stop offset="0.150732"/>
<stop offset="0.171421" stop-color="#171717"/>
<stop offset="0.385884" stop-color="white"/>
<stop offset="0.632551" stop-color="#E6E6E6"/>
<stop offset="0.856667" stop-color="#1A1A1A"/>
<stop offset="0.998739"/>
</linearGradient>
<linearGradient id="paint1_linear_48_113" x1="-80.2216" y1="-13.9777" x2="166.2" y2="11.8723" gradientUnits="userSpaceOnUse">
<stop stop-color="white"/>
<stop offset="0.0436152" stop-color="#B4B4B4"/>
<stop offset="0.150732"/>
<stop offset="0.171421" stop-color="#171717"/>
<stop offset="0.385884" stop-color="white"/>
<stop offset="0.632551" stop-color="#E6E6E6"/>
<stop offset="0.856667" stop-color="#1A1A1A"/>
<stop offset="0.998739"/>
</linearGradient>
<linearGradient id="paint2_linear_48_113" x1="-70.2578" y1="-14.3295" x2="157.132" y2="9.52398" gradientUnits="userSpaceOnUse">
<stop stop-color="white"/>
<stop offset="0.0436152" stop-color="#B4B4B4"/>
<stop offset="0.150732"/>
<stop offset="0.171421" stop-color="#171717"/>
<stop offset="0.385884" stop-color="white"/>
<stop offset="0.632551" stop-color="#E6E6E6"/>
<stop offset="0.856667" stop-color="#1A1A1A"/>
<stop offset="0.998739"/>
</linearGradient>
<linearGradient id="paint3_linear_48_113" x1="-60.2725" y1="-14.6621" x2="148.214" y2="7.20848" gradientUnits="userSpaceOnUse">
<stop stop-color="white"/>
<stop offset="0.0436152" stop-color="#B4B4B4"/>
<stop offset="0.150732"/>
<stop offset="0.171421" stop-color="#171717"/>
<stop offset="0.385884" stop-color="white"/>
<stop offset="0.632551" stop-color="#E6E6E6"/>
<stop offset="0.856667" stop-color="#1A1A1A"/>
<stop offset="0.998739"/>
</linearGradient>
<linearGradient id="paint4_linear_48_113" x1="-50.2724" y1="-15.3343" x2="139.48" y2="4.57107" gradientUnits="userSpaceOnUse">
<stop stop-color="white"/>
<stop offset="0.0436152" stop-color="#B4B4B4"/>
<stop offset="0.150732"/>
<stop offset="0.171421" stop-color="#171717"/>
<stop offset="0.385884" stop-color="white"/>
<stop offset="0.632551" stop-color="#E6E6E6"/>
<stop offset="0.856667" stop-color="#1A1A1A"/>
<stop offset="0.998739"/>
</linearGradient>
<linearGradient id="paint5_linear_48_113" x1="-40.2901" y1="-16.1762" x2="130.98" y2="1.79034" gradientUnits="userSpaceOnUse">
<stop stop-color="white"/>
<stop offset="0.0436152" stop-color="#B4B4B4"/>
<stop offset="0.150732"/>
<stop offset="0.171421" stop-color="#171717"/>
<stop offset="0.385884" stop-color="white"/>
<stop offset="0.632551" stop-color="#E6E6E6"/>
<stop offset="0.856667" stop-color="#1A1A1A"/>
<stop offset="0.998739"/>
</linearGradient>
<linearGradient id="paint6_linear_48_113" x1="-30.3446" y1="-17.1575" x2="122.73" y2="-1.09969" gradientUnits="userSpaceOnUse">
<stop stop-color="white"/>
<stop offset="0.0436152" stop-color="#B4B4B4"/>
<stop offset="0.150732"/>
<stop offset="0.171421" stop-color="#171717"/>
<stop offset="0.385884" stop-color="white"/>
<stop offset="0.632551" stop-color="#E6E6E6"/>
<stop offset="0.856667" stop-color="#1A1A1A"/>
<stop offset="0.998739"/>
</linearGradient>
<linearGradient id="paint7_linear_48_113" x1="-20.4702" y1="-18.2469" x2="114.92" y2="-4.04432" gradientUnits="userSpaceOnUse">
<stop stop-color="white"/>
<stop offset="0.0436152" stop-color="#B4B4B4"/>
<stop offset="0.150732"/>
<stop offset="0.171421" stop-color="#171717"/>
<stop offset="0.385884" stop-color="white"/>
<stop offset="0.632551" stop-color="#E6E6E6"/>
<stop offset="0.856667" stop-color="#1A1A1A"/>
<stop offset="0.998739"/>
</linearGradient>
<linearGradient id="paint8_linear_48_113" x1="-10.7849" y1="-19.4533" x2="107.723" y2="-7.02169" gradientUnits="userSpaceOnUse">
<stop stop-color="white"/>
<stop offset="0.0436152" stop-color="#B4B4B4"/>
<stop offset="0.150732"/>
<stop offset="0.171421" stop-color="#171717"/>
<stop offset="0.385884" stop-color="white"/>
<stop offset="0.632551" stop-color="#E6E6E6"/>
<stop offset="0.856667" stop-color="#1A1A1A"/>
<stop offset="0.998739"/>
</linearGradient>
<linearGradient id="paint9_linear_48_113" x1="-1.73035" y1="-19.3946" x2="101.385" y2="-8.57769" gradientUnits="userSpaceOnUse">
<stop stop-color="white"/>
<stop offset="0.0436152" stop-color="#B4B4B4"/>
<stop offset="0.150732"/>
<stop offset="0.171421" stop-color="#171717"/>
<stop offset="0.385884" stop-color="white"/>
<stop offset="0.632551" stop-color="#E6E6E6"/>
<stop offset="0.856667" stop-color="#1A1A1A"/>
<stop offset="0.998739"/>
</linearGradient>
<linearGradient id="paint10_linear_48_113" x1="4.99684" y1="-18.8388" x2="96.6793" y2="-9.22119" gradientUnits="userSpaceOnUse">
<stop stop-color="white"/>
<stop offset="0.0436152" stop-color="#B4B4B4"/>
<stop offset="0.150732"/>
<stop offset="0.171421" stop-color="#171717"/>
<stop offset="0.385884" stop-color="white"/>
<stop offset="0.632551" stop-color="#E6E6E6"/>
<stop offset="0.856667" stop-color="#1A1A1A"/>
<stop offset="0.998739"/>
</linearGradient>
<linearGradient id="paint11_linear_48_113" x1="5.24362" y1="-19.2999" x2="95.4097" y2="-9.84137" gradientUnits="userSpaceOnUse">
<stop stop-color="white"/>
<stop offset="0.0436152" stop-color="#B4B4B4"/>
<stop offset="0.150732"/>
<stop offset="0.171421" stop-color="#171717"/>
<stop offset="0.385884" stop-color="white"/>
<stop offset="0.632551" stop-color="#E6E6E6"/>
<stop offset="0.856667" stop-color="#1A1A1A"/>
<stop offset="0.998739"/>
</linearGradient>
</defs>
</svg>
