<svg width="205" height="56" viewBox="0 0 205 56" fill="none" xmlns="http://www.w3.org/2000/svg">
<path d="M201.809 50.7164H197.58V52.2789H201.449C202.013 52.2789 202.399 52.3758 202.605 52.5725C202.812 52.7694 202.914 53.1464 202.914 53.7013V54.4243C202.914 54.9813 202.814 55.3558 202.613 55.5525C202.411 55.7494 202.022 55.8493 201.449 55.8493H197.781C197.207 55.8493 196.816 55.7494 196.61 55.5525C196.403 55.3558 196.301 54.9813 196.301 54.4243V54.2585L197.342 54.0427V54.9385H201.892V53.2435H198.011C197.439 53.2435 197.053 53.1464 196.849 52.9499C196.645 52.7529 196.544 52.3758 196.544 51.8215V51.252C196.544 50.6997 196.645 50.3228 196.849 50.1214C197.053 49.92 197.439 49.8204 198.011 49.8204H201.366C201.925 49.8204 202.312 49.9173 202.525 50.1118C202.739 50.3063 202.845 50.6503 202.845 51.1406V51.2852L201.809 51.5087V50.7164V50.7164ZM186.632 51.0295C186.66 51.2046 186.679 51.3826 186.694 51.5628C186.707 51.7453 186.714 51.9257 186.714 52.1055V55.8493H185.666V49.8204H186.534L190.958 53.7584C191.089 53.8696 191.212 53.9928 191.331 54.1255C191.449 54.2608 191.565 54.4145 191.681 54.5854C191.648 54.4051 191.624 54.2206 191.608 54.0358C191.591 53.8509 191.584 53.6583 191.584 53.4594V49.8204H192.632V55.8493H191.854L187.34 51.8542C187.181 51.7076 187.046 51.5677 186.933 51.435C186.819 51.3021 186.719 51.1669 186.632 51.0295ZM174.641 51.252C174.641 50.6997 174.745 50.3228 174.954 50.1214C175.163 49.92 175.551 49.8204 176.12 49.8204H180.475C181.044 49.8204 181.433 49.92 181.642 50.1214C181.85 50.3228 181.954 50.6997 181.954 51.252V54.4243C181.954 54.9768 181.852 55.3511 181.646 55.5503C181.44 55.7494 181.049 55.8493 180.475 55.8493H176.12C175.541 55.8493 175.15 55.7494 174.946 55.5525C174.742 55.3558 174.641 54.9813 174.641 54.4243V51.252V51.252ZM175.779 54.9385H180.816V50.7164H175.779V54.9385ZM170.959 55.8493H169.826V49.8344H170.959V55.8493ZM164.222 50.7164V55.8493H163.089V50.7164H160.241V49.8204H167.083V50.7164H164.222V50.7164ZM151.911 49.8204V54.9385H156.316V49.8204H157.468V54.4243C157.468 54.9813 157.366 55.3558 157.16 55.5525C156.954 55.7494 156.562 55.8493 155.989 55.8493H152.252C151.679 55.8493 151.288 55.7494 151.081 55.5503C150.875 55.3511 150.773 54.9768 150.773 54.4243V49.8204H151.911ZM142.096 55.8493V49.8204H143.234V54.9385H147.924V55.8493H142.096V55.8493ZM131.07 51.252C131.07 50.6997 131.175 50.3228 131.384 50.1214C131.592 49.92 131.98 49.8204 132.549 49.8204H136.905C137.473 49.8204 137.863 49.92 138.071 50.1214C138.28 50.3228 138.384 50.6997 138.384 51.252V54.4243C138.384 54.9768 138.282 55.3511 138.076 55.5503C137.869 55.7494 137.479 55.8493 136.905 55.8493H132.549C131.971 55.8493 131.58 55.7494 131.375 55.5525C131.172 55.3558 131.07 54.9813 131.07 54.4243V51.252ZM132.208 54.9385H137.246V50.7164H132.208V54.9385ZM125.82 49.5074H120.622V51.5559H125.251C125.903 51.5559 126.348 51.6765 126.59 51.9161C126.829 52.1581 126.95 52.6133 126.95 53.2863V54.1113C126.95 54.7894 126.832 55.2468 126.597 55.4888C126.36 55.7285 125.912 55.8493 125.251 55.8493H120.964C120.295 55.8493 119.843 55.7285 119.601 55.4843C119.361 55.2424 119.24 54.7848 119.24 54.1113V53.9101L120.378 53.6468V54.8273H125.845V52.6175H121.234C120.568 52.6175 120.115 52.4967 119.878 52.253C119.644 52.0109 119.525 51.5532 119.525 50.8826V50.2419C119.525 49.5711 119.644 49.1139 119.878 48.872C120.115 48.6278 120.568 48.5071 121.234 48.5071H125.146C125.798 48.5071 126.249 48.6256 126.495 48.8648C126.744 49.1019 126.867 49.5214 126.867 50.1192V50.2709L125.82 50.5696V49.5074V49.5074ZM104.079 50.9392C104.079 51.027 104.084 51.1476 104.093 51.2997C104.103 51.5508 104.107 51.7099 104.107 51.7787V55.8493H103.169V49.8204H104.107L107.109 53.7319L109.866 49.8204H110.921V55.8493H109.866V51.7787C109.866 51.6317 109.871 51.4871 109.883 51.3494C109.895 51.2097 109.914 51.0742 109.935 50.9466C109.871 51.136 109.805 51.3044 109.734 51.4487C109.665 51.5958 109.601 51.7054 109.539 51.7787L107.22 54.8984H106.922L104.518 51.8068C104.435 51.7003 104.355 51.5744 104.281 51.4325C104.207 51.2881 104.141 51.1239 104.079 50.9392ZM93.8401 55.8493V49.8204H99.9117V50.7164H94.9785V52.2646H97.9514V53.1607H94.9785V54.9673H99.9665V55.8493H93.8401V55.8493ZM88.2076 50.7164V55.8493H87.0747V50.7164H84.2273V49.8204H91.0693V50.7164H88.2076V50.7164ZM80.5029 50.7164H76.2738V52.2789H80.1427C80.707 52.2789 81.0934 52.3758 81.2996 52.5725C81.5061 52.7694 81.608 53.1464 81.608 53.7013V54.4243C81.608 54.9813 81.5084 55.3558 81.307 55.5525C81.1049 55.7494 80.7166 55.8493 80.1427 55.8493H76.4752C75.9013 55.8493 75.5103 55.7494 75.304 55.5525C75.0977 55.3558 74.9956 54.9813 74.9956 54.4243V54.2585L76.0365 54.0427V54.9385H80.5865V53.2435H76.7053C76.1336 53.2435 75.7473 53.1464 75.5437 52.9499C75.3399 52.7529 75.2376 52.3758 75.2376 51.8215V51.252C75.2376 50.6997 75.3399 50.3228 75.5437 50.1214C75.7473 49.92 76.1336 49.8204 76.7053 49.8204H80.0596C80.619 49.8204 81.0058 49.9173 81.219 50.1118C81.4329 50.3063 81.5391 50.6503 81.5391 51.1406V51.2852L80.5029 51.5087V50.7164V50.7164ZM68.1445 55.8493V53.2175L64.9987 49.8204H66.3809L68.7848 52.4328L71.0775 49.8204H72.4097L69.2782 53.2175V55.8493H68.1445ZM60.6987 49.5074H55.5018V51.5559H60.1297C60.7818 51.5559 61.2272 51.6765 61.4691 51.9161C61.7086 52.1581 61.8292 52.6133 61.8292 53.2863V54.1113C61.8292 54.7894 61.7111 55.2468 61.4762 55.4888C61.239 55.7285 60.7912 55.8493 60.1297 55.8493H55.8433C55.1747 55.8493 54.722 55.7285 54.4801 55.4843C54.241 55.2424 54.1198 54.7848 54.1198 54.1113V53.9101L55.2576 53.6468V54.8273H60.7248V52.6175H56.1135C55.4476 52.6175 54.9947 52.4967 54.7574 52.253C54.5229 52.0109 54.4043 51.5532 54.4043 50.8826V50.2419C54.4043 49.5711 54.5229 49.1139 54.7574 48.872C54.9947 48.6278 55.4476 48.5071 56.1135 48.5071H60.0257C60.6775 48.5071 61.128 48.6256 61.3744 48.8648C61.6231 49.1019 61.7465 49.5214 61.7465 50.1192V50.2709L60.6987 50.5696V49.5074V49.5074ZM42.1738 49.8204C42.7479 49.8204 43.2309 49.858 43.6221 49.9342C44.0135 50.0127 44.3359 50.1287 44.5897 50.2849C45.002 50.546 45.3246 50.8989 45.557 51.3442C45.7867 51.7925 45.903 52.2833 45.903 52.8218C45.903 53.8339 45.5944 54.5927 44.9782 55.0951C44.3642 55.5977 43.4276 55.8493 42.1738 55.8493H38.7009V49.8204H42.1738ZM42.0479 50.7164H39.8387V54.9385H42.0479C43.0295 54.9385 43.7288 54.7727 44.1438 54.4432C44.5589 54.1113 44.7652 53.5661 44.7652 52.8077C44.7652 52.0657 44.5565 51.532 44.1365 51.2072C43.717 50.88 43.0201 50.7164 42.0479 50.7164ZM34.4076 55.8493H33.2741V49.8344H34.4076V55.8493ZM23.8892 49.8204V54.9385H28.2939V49.8204H29.4459V54.4243C29.4459 54.9813 29.3441 55.3558 29.1376 55.5525C28.9317 55.7494 28.5405 55.8493 27.9664 55.8493H24.2303C23.6568 55.8493 23.2654 55.7494 23.0593 55.5503C22.8528 55.3511 22.7507 54.9768 22.7507 54.4243V49.8204H23.8892ZM14.0743 55.8493V49.8204H15.2123V54.9385H19.9017V55.8493H14.0743V55.8493ZM4.4541 55.8493V48.5071H11.4432V49.5074H5.68434V51.911H8.97024V52.8904H5.68434V55.8493H4.4541V55.8493Z" fill="white"/>
<path fill-rule="evenodd" clip-rule="evenodd" d="M171.303 37.9034V4.40696H179.705V37.9034H171.303ZM191.148 37.9034L181.364 22.8134V14.5221L187.886 4.40696H197.891L188.66 18.6677L201.152 37.9034H191.148ZM165.932 36.7427C165.158 37.5162 164.181 37.9034 163.002 37.9034H144.595C143.49 37.9034 142.514 37.4794 141.666 36.6315C140.819 35.784 140.395 34.8076 140.395 33.7021V14.4662H148.796V29.5012H158.856V14.4662H167.202V33.7021C167.202 34.9183 166.779 35.9316 165.932 36.7427ZM140.395 12.7532V8.60759C140.395 7.42859 140.809 6.43342 141.638 5.62314C142.467 4.81221 143.453 4.40696 144.595 4.40696H163.002C163.996 4.40696 164.946 4.82134 165.848 5.65033C166.751 6.47996 167.202 7.46513 167.202 8.60759V12.7532H140.395ZM113.023 37.9034V4.40696H121.425V37.9034H113.023ZM134.249 37.9034H123.083V29.5012H139.831L134.249 37.9034ZM80.124 25.3556V16.9541H108.59V25.3556H80.124ZM67.1793 37.9034L60.6569 27.8433H56.4006V37.9034H47.9992V14.4662H56.4006V19.4967H66.4607V12.7532H47.9992V4.40696H70.6064C71.6014 4.40696 72.541 4.96858 73.4253 6.09255C74.3098 7.21629 74.7703 8.05508 74.807 8.60759V23.6426C74.807 24.4527 74.383 25.3556 73.5358 26.351C72.6883 27.3458 71.7116 27.8433 70.6064 27.8433L77.1842 37.9034H67.1793V37.9034ZM35.2757 37.9034V4.40696H43.677V37.9034H35.2757ZM26.642 37.9034H9.61685C8.91662 37.9034 8.35518 37.8297 7.93103 37.682C7.50748 37.5345 7.07416 37.2215 6.63218 36.7427C5.82143 35.9316 5.41595 34.9183 5.41595 33.7021V14.4662H13.8177V29.5012H32.2244L26.642 37.9034ZM5.41595 12.7532V8.60759C5.41595 7.50214 5.83124 6.52586 6.65978 5.67817C7.48855 4.83024 8.47504 4.40696 9.61685 4.40696H26.642L32.2244 12.7532H5.41595ZM4.89822 0H200.102C202.796 0 205 2.20423 205 4.89841V38.4127C205 41.1064 202.796 43.3109 200.102 43.3109H4.89822C2.20405 43.3109 0 41.1064 0 38.4127V4.89841C0 2.20423 2.20405 0 4.89822 0Z" fill="white"/>
</svg>
