<svg width="205" height="56" viewBox="0 0 205 56" fill="none" xmlns="http://www.w3.org/2000/svg">
<path d="M201.809 50.7167H197.58V52.2791H201.449C202.013 52.2791 202.399 52.376 202.605 52.5727C202.812 52.7697 202.914 53.1466 202.914 53.7016V54.4245C202.914 54.9815 202.814 55.356 202.613 55.5527C202.411 55.7497 202.022 55.8495 201.449 55.8495H197.781C197.207 55.8495 196.816 55.7497 196.61 55.5527C196.403 55.356 196.301 54.9815 196.301 54.4245V54.2588L197.342 54.0429V54.9387H201.892V53.2437H198.011C197.439 53.2437 197.053 53.1466 196.849 52.9501C196.645 52.7532 196.544 52.376 196.544 51.8217V51.2523C196.544 50.7 196.645 50.3231 196.849 50.1216C197.053 49.9202 197.439 49.8207 198.011 49.8207H201.366C201.925 49.8207 202.312 49.9176 202.525 50.1121C202.739 50.3065 202.845 50.6505 202.845 51.1409V51.2855L201.809 51.5089V50.7167ZM186.632 51.0297C186.66 51.2048 186.679 51.3828 186.694 51.563C186.707 51.7455 186.714 51.926 186.714 52.1058V55.8495H185.666V49.8207H186.534L190.958 53.7586C191.089 53.8698 191.212 53.993 191.331 54.1258C191.449 54.261 191.565 54.4147 191.681 54.5856C191.648 54.4054 191.624 54.2209 191.608 54.036C191.591 53.8511 191.584 53.6586 191.584 53.4597V49.8207H192.632V55.8495H191.854L187.34 51.8545C187.181 51.7079 187.046 51.568 186.933 51.4352C186.819 51.3024 186.719 51.1672 186.632 51.0297ZM174.641 51.2523C174.641 50.7 174.745 50.3231 174.954 50.1216C175.163 49.9202 175.551 49.8207 176.12 49.8207H180.475C181.044 49.8207 181.433 49.9202 181.642 50.1216C181.85 50.3231 181.954 50.7 181.954 51.2523V54.4245C181.954 54.9771 181.852 55.3513 181.646 55.5505C181.44 55.7497 181.049 55.8495 180.475 55.8495H176.12C175.541 55.8495 175.15 55.7497 174.946 55.5527C174.742 55.356 174.641 54.9815 174.641 54.4245V51.2523ZM175.779 54.9387H180.816V50.7167H175.779V54.9387ZM170.959 55.8495H169.826V49.8347H170.959V55.8495ZM164.222 50.7167V55.8495H163.089V50.7167H160.241V49.8207H167.083V50.7167H164.222ZM151.911 49.8207V54.9387H156.316V49.8207H157.468V54.4245C157.468 54.9815 157.366 55.356 157.16 55.5527C156.954 55.7497 156.562 55.8495 155.989 55.8495H152.252C151.679 55.8495 151.288 55.7497 151.081 55.5505C150.875 55.3513 150.773 54.9771 150.773 54.4245V49.8207H151.911ZM142.096 55.8495V49.8207H143.234V54.9387H147.924V55.8495H142.096ZM131.07 51.2523C131.07 50.7 131.175 50.3231 131.384 50.1216C131.592 49.9202 131.98 49.8207 132.549 49.8207H136.905C137.473 49.8207 137.863 49.9202 138.071 50.1216C138.28 50.3231 138.384 50.7 138.384 51.2523V54.4245C138.384 54.9771 138.282 55.3513 138.076 55.5505C137.869 55.7497 137.479 55.8495 136.905 55.8495H132.549C131.971 55.8495 131.58 55.7497 131.375 55.5527C131.172 55.356 131.07 54.9815 131.07 54.4245V51.2523ZM132.208 54.9387H137.246V50.7167H132.208V54.9387ZM125.82 49.5076H120.622V51.5562H125.251C125.903 51.5562 126.348 51.6767 126.59 51.9164C126.829 52.1583 126.95 52.6135 126.95 53.2866V54.1115C126.95 54.7897 126.832 55.2471 126.597 55.489C126.36 55.7287 125.912 55.8495 125.251 55.8495H120.964C120.295 55.8495 119.843 55.7287 119.601 55.4846C119.361 55.2426 119.24 54.785 119.24 54.1115V53.9104L120.378 53.647V54.8276H125.845V52.6177H121.234C120.568 52.6177 120.115 52.497 119.878 52.2532C119.644 52.0111 119.525 51.5535 119.525 50.8829V50.2422C119.525 49.5713 119.644 49.1142 119.878 48.8722C120.115 48.6281 120.568 48.5073 121.234 48.5073H125.146C125.798 48.5073 126.249 48.6258 126.495 48.8651C126.744 49.1022 126.867 49.5217 126.867 50.1194V50.2711L125.82 50.5699V49.5076ZM104.079 50.9395C104.079 51.0273 104.084 51.1478 104.093 51.3C104.103 51.551 104.107 51.7101 104.107 51.779V55.8495H103.169V49.8207H104.107L107.109 53.7321L109.866 49.8207H110.921V55.8495H109.866V51.779C109.866 51.6319 109.871 51.4873 109.883 51.3497C109.895 51.2099 109.914 51.0745 109.935 50.9468C109.871 51.1362 109.805 51.3046 109.734 51.449C109.665 51.596 109.601 51.7056 109.539 51.779L107.22 54.8986H106.922L104.518 51.807C104.435 51.7005 104.355 51.5746 104.281 51.4327C104.207 51.2884 104.141 51.1242 104.079 50.9395ZM93.8401 55.8495V49.8207H99.9117V50.7167H94.9785V52.2648H97.9514V53.1609H94.9785V54.9675H99.9665V55.8495H93.8401ZM88.2076 50.7167V55.8495H87.0747V50.7167H84.2273V49.8207H91.0693V50.7167H88.2076ZM80.5029 50.7167H76.2738V52.2791H80.1427C80.707 52.2791 81.0934 52.376 81.2996 52.5727C81.5061 52.7697 81.608 53.1466 81.608 53.7016V54.4245C81.608 54.9815 81.5084 55.356 81.307 55.5527C81.1049 55.7497 80.7166 55.8495 80.1427 55.8495H76.4752C75.9013 55.8495 75.5103 55.7497 75.304 55.5527C75.0977 55.356 74.9956 54.9815 74.9956 54.4245V54.2588L76.0365 54.0429V54.9387H80.5865V53.2437H76.7053C76.1336 53.2437 75.7473 53.1466 75.5437 52.9501C75.3399 52.7532 75.2376 52.376 75.2376 51.8217V51.2523C75.2376 50.7 75.3399 50.3231 75.5437 50.1216C75.7473 49.9202 76.1336 49.8207 76.7053 49.8207H80.0596C80.619 49.8207 81.0058 49.9176 81.219 50.1121C81.4329 50.3065 81.5391 50.6505 81.5391 51.1409V51.2855L80.5029 51.5089V50.7167ZM68.1445 55.8495V53.2177L64.9987 49.8207H66.3809L68.7848 52.4331L71.0775 49.8207H72.4097L69.2782 53.2177V55.8495H68.1445ZM60.6987 49.5076H55.5018V51.5562H60.1297C60.7818 51.5562 61.2272 51.6767 61.4691 51.9164C61.7086 52.1583 61.8292 52.6135 61.8292 53.2866V54.1115C61.8292 54.7897 61.7111 55.2471 61.4762 55.489C61.239 55.7287 60.7912 55.8495 60.1297 55.8495H55.8433C55.1747 55.8495 54.722 55.7287 54.48 55.4846C54.241 55.2426 54.1198 54.785 54.1198 54.1115V53.9104L55.2576 53.647V54.8276H60.7248V52.6177H56.1135C55.4476 52.6177 54.9947 52.497 54.7574 52.2532C54.5229 52.0111 54.4043 51.5535 54.4043 50.8829V50.2422C54.4043 49.5713 54.5229 49.1142 54.7574 48.8722C54.9947 48.6281 55.4476 48.5073 56.1135 48.5073H60.0257C60.6775 48.5073 61.128 48.6258 61.3744 48.8651C61.6231 49.1022 61.7465 49.5217 61.7465 50.1194V50.2711L60.6987 50.5699V49.5076ZM42.1738 49.8207C42.7479 49.8207 43.2309 49.8583 43.6221 49.9345C44.0135 50.0129 44.3359 50.129 44.5897 50.2851C45.002 50.5463 45.3246 50.8992 45.557 51.3445C45.7867 51.7927 45.903 52.2835 45.903 52.822C45.903 53.8342 45.5944 54.593 44.9782 55.0953C44.3642 55.598 43.4276 55.8495 42.1738 55.8495H38.7009V49.8207H42.1738ZM42.0479 50.7167H39.8387V54.9387H42.0479C43.0295 54.9387 43.7288 54.773 44.1438 54.4435C44.5589 54.1115 44.7652 53.5664 44.7652 52.808C44.7652 52.0659 44.5564 51.5323 44.1365 51.2075C43.717 50.8802 43.0201 50.7167 42.0479 50.7167ZM34.4076 55.8495H33.2741V49.8347H34.4076V55.8495ZM23.8892 49.8207V54.9387H28.2939V49.8207H29.4459V54.4245C29.4459 54.9815 29.3441 55.356 29.1376 55.5527C28.9317 55.7497 28.5405 55.8495 27.9664 55.8495H24.2303C23.6568 55.8495 23.2654 55.7497 23.0593 55.5505C22.8528 55.3513 22.7507 54.9771 22.7507 54.4245V49.8207H23.8892ZM14.0743 55.8495V49.8207H15.2123V54.9387H19.9017V55.8495H14.0743ZM4.4541 55.8495V48.5073H11.4432V49.5076H5.68434V51.9113H8.97024V52.8906H5.68434V55.8495H4.4541Z" fill="#005E9E"/>
<path fill-rule="evenodd" clip-rule="evenodd" d="M171.303 37.9034V4.40696H179.705V37.9034H171.303ZM191.148 37.9034L181.364 22.8134V14.5221L187.886 4.40696H197.891L188.66 18.6677L201.152 37.9034H191.148ZM165.932 36.7427C165.158 37.5162 164.181 37.9034 163.002 37.9034H144.595C143.49 37.9034 142.514 37.4794 141.666 36.6315C140.819 35.784 140.395 34.8076 140.395 33.7021V14.4662H148.796V29.5012H158.856V14.4662H167.202V33.7021C167.202 34.9183 166.779 35.9316 165.932 36.7427ZM140.395 12.7532V8.60759C140.395 7.42859 140.809 6.43342 141.638 5.62314C142.467 4.81221 143.453 4.40696 144.595 4.40696H163.002C163.996 4.40696 164.946 4.82134 165.848 5.65033C166.751 6.47996 167.202 7.46513 167.202 8.60759V12.7532H140.395ZM113.023 37.9034V4.40696H121.425V37.9034H113.023ZM134.249 37.9034H123.083V29.5012H139.831L134.249 37.9034ZM80.124 25.3556V16.9541H108.59V25.3556H80.124ZM67.1793 37.9034L60.6569 27.8433H56.4006V37.9034H47.9992V14.4662H56.4006V19.4967H66.4607V12.7532H47.9992V4.40696H70.6064C71.6014 4.40696 72.541 4.96858 73.4253 6.09255C74.3098 7.21629 74.7703 8.05508 74.807 8.60759V23.6426C74.807 24.4527 74.383 25.3556 73.5358 26.351C72.6883 27.3458 71.7116 27.8433 70.6064 27.8433L77.1842 37.9034H67.1793ZM35.2757 37.9034V4.40696H43.677V37.9034H35.2757ZM26.642 37.9034H9.61685C8.91662 37.9034 8.35518 37.8297 7.93103 37.682C7.50748 37.5345 7.07416 37.2215 6.63218 36.7427C5.82143 35.9316 5.41595 34.9183 5.41595 33.7021V14.4662H13.8177V29.5012H32.2244L26.642 37.9034ZM5.41595 12.7532V8.60759C5.41595 7.50214 5.83124 6.52587 6.65978 5.67817C7.48855 4.83024 8.47504 4.40696 9.61685 4.40696H26.642L32.2244 12.7532H5.41595ZM4.89822 0H200.102C202.796 0 205 2.20423 205 4.89841V38.4127C205 41.1064 202.796 43.3109 200.102 43.3109H4.89822C2.20405 43.3109 0 41.1064 0 38.4127V4.89841C0 2.20423 2.20405 0 4.89822 0Z" fill="#005E9E"/>
</svg>
